<?xml version="1.0" encoding="utf-8"?>
<!-- Generator: Adobe Illustrator 23.0.2, SVG Export Plug-In . SVG Version: 6.00 Build 0)  -->
<svg version="1.1" id="Layer_1" xmlns="http://www.w3.org/2000/svg" xmlns:xlink="http://www.w3.org/1999/xlink" x="0px" y="0px"
	 viewBox="0 0 388 92.6" style="enable-background:new 0 0 388 92.6;" xml:space="preserve">
<style type="text/css">
	.st0{fill:#FAC805;}
	.st1{fill:#FFFFFF;}
</style>
<g>
	<path class="st0" d="M59.3,43.8c-0.3,0-0.6-0.1-0.8-0.4c-0.2-0.2-0.4-0.5-0.4-0.8V14.2c0-0.3,0.1-0.6,0.4-0.8
		c0.2-0.2,0.5-0.4,0.8-0.4h14.6c4.2,0,7.3,0.8,9.2,2.3c2,1.5,2.9,3.9,2.9,6.9c0,0.9-0.2,1.8-0.6,2.5c-0.4,0.7-0.9,1.4-1.4,1.9
		s-1,0.9-1.5,1.1c1.1,0.5,2.1,1.3,2.9,2.4c0.8,1.2,1.3,2.5,1.3,3.9c0,3.3-1.1,5.7-3.2,7.3c-2.1,1.6-5.2,2.4-9.2,2.4L59.3,43.8
		L59.3,43.8z M61.1,28.4c-0.1-0.3-0.1-0.5-0.2-0.7c0-0.2-0.2-0.3-0.5-0.3c-0.3,0-0.4,0.1-0.5,0.3c0,0.2-0.1,0.4-0.2,0.7
		c-0.1,0.3-0.2,0.5-0.3,0.7c-0.1,0.2,0,0.3,0.2,0.5c0.3,0.2,0.5,0.2,0.6,0.1c0.1-0.1,0.3-0.2,0.6-0.4c0.2-0.1,0.3-0.2,0.3-0.4
		C61.2,28.8,61.2,28.6,61.1,28.4z M62.3,35.6c-0.5-0.1-0.9-0.2-1.2-0.2c-0.3,0-0.6,0.2-0.8,0.6c-0.3,0.5-0.4,0.9-0.4,1.1
		c0.1,0.3,0.3,0.6,0.7,1.1c0.4,0.4,0.7,0.6,0.9,0.6c0.3,0,0.7-0.1,1.1-0.3c0.5-0.2,0.9-0.5,1.1-0.7s0.3-0.6,0.2-1.1
		s-0.2-0.8-0.5-0.9C63.2,35.7,62.8,35.7,62.3,35.6z M65.4,22.3c-0.2-0.6-0.4-0.9-0.7-1.1C64.5,21,64.1,21,63.5,21s-1,0.1-1.3,0.2
		c-0.3,0.2-0.5,0.5-0.7,1.1c-0.1,0.5-0.1,0.9,0.1,1.1c0.2,0.2,0.5,0.5,1,0.8c0.4,0.3,0.7,0.4,0.9,0.4s0.5-0.2,0.9-0.5
		s0.7-0.6,0.9-0.8C65.5,23.1,65.6,22.8,65.4,22.3z M63.2,39.8c-0.2-0.2-0.5-0.2-0.7-0.1c-0.3,0.2-0.4,0.4-0.3,0.7
		c0.1,0.3,0.3,0.5,0.6,0.5c0.3,0,0.5-0.1,0.6-0.4C63.5,40.2,63.5,40,63.2,39.8z M63.3,31l-0.5,0.1l0.1,0.5h0.4l0.1-0.3L63.3,31z
		 M65.3,15c-0.2-0.2-0.3-0.3-0.5-0.3c-0.1,0-0.3,0.1-0.6,0.2c-0.4,0.2-0.5,0.5-0.5,0.8c0,0.4,0.2,0.6,0.6,0.7
		c0.3,0.1,0.5,0.1,0.7,0.2c0.2,0,0.3-0.1,0.5-0.3c0.2-0.3,0.2-0.5,0.2-0.7S65.5,15.2,65.3,15z M64.7,26.4l-0.5-0.2h-0.4v0.5l0.6,0.2
		L64.7,26.4z M64.4,29.5l-0.5,0.4l0.2,0.5l0.6,0.2V30L64.4,29.5z M65.7,34.8c-0.3-0.1-0.5-0.1-0.6-0.1c-0.2,0-0.3,0.2-0.5,0.4
		c-0.2,0.3-0.3,0.5-0.3,0.6s0.1,0.4,0.3,0.6c0.2,0.2,0.3,0.3,0.5,0.3c0.2,0,0.4,0,0.6-0.1c0.2-0.1,0.4-0.2,0.5-0.3
		c0.1-0.1,0.1-0.3,0.1-0.6s0-0.5-0.1-0.6C66.2,35,66,34.9,65.7,34.8z M66.1,41l-0.4,0.1l-0.1,0.4l0.4,0.4l0.2-0.4L66.1,41z
		 M68.1,17.8c-0.2-0.3-0.4-0.5-0.5-0.6s-0.4-0.1-0.7,0c-0.4,0.1-0.7,0.3-0.8,0.4c-0.2,0.1-0.3,0.4-0.3,0.8c0,0.4,0.1,0.7,0.4,0.7
		c0.2,0.1,0.5,0.2,0.9,0.3c0.3,0.1,0.5,0.1,0.6,0c0.1-0.1,0.3-0.3,0.4-0.6c0.1-0.2,0.2-0.4,0.3-0.6C68.4,18.1,68.3,18,68.1,17.8z
		 M66.6,39L66,39.2l-0.1,0.6l0.6,0.1l0.4-0.3L66.6,39z M68.6,28.9c-0.2-0.2-0.4-0.4-0.5-0.5s-0.4-0.1-0.7,0
		c-0.3,0.1-0.4,0.2-0.4,0.4s0,0.4,0,0.8c0,0.4,0,0.6,0,0.9c0,0.2,0.1,0.4,0.5,0.5c0.3,0.1,0.5,0,0.6-0.2s0.2-0.5,0.4-0.7
		c0.1-0.2,0.2-0.4,0.3-0.6C68.8,29.3,68.8,29.1,68.6,28.9z M69.3,40.4l-0.4,0.2v0.3l0.3,0.3l0.4-0.4L69.3,40.4z M69.6,14.5l-0.5,0.2
		l0.1,0.3l0.3-0.1L69.6,14.5z M69.2,24.6h3.7c0.6,0,1.1-0.2,1.4-0.6c0.3-0.4,0.4-0.9,0.4-1.3c0-0.5-0.1-0.9-0.4-1.4
		c-0.3-0.4-0.7-0.7-1.4-0.7h-3.7V24.6z M69.2,36.3h4.1c0.7,0,1.3-0.2,1.6-0.7s0.5-1,0.5-1.4c0-0.5-0.2-1-0.5-1.5S74.1,32,73.4,32
		h-4.1L69.2,36.3L69.2,36.3z M71.4,15.6L71,15.4l-0.4,0.4l0.4,0.4l0.4-0.2V15.6z M74.1,39c-0.4-0.4-0.7-0.8-1-1
		c-0.2-0.2-0.6-0.2-1.2,0.1s-0.9,0.6-1,0.9c-0.1,0.3-0.1,0.8,0,1.4c0.1,0.6,0.2,1.1,0.4,1.3c0.2,0.3,0.6,0.5,1.2,0.5
		c0.7,0.1,1.2,0.1,1.6,0s0.7-0.4,1.1-1.1c0.3-0.6,0.3-1,0-1.3C74.9,39.7,74.6,39.4,74.1,39z M72.8,16.5c-0.2,0-0.4,0.1-0.5,0.4
		c-0.1,0.3-0.1,0.5,0.1,0.6c0.1,0.1,0.2,0.2,0.3,0.2s0.2,0,0.4-0.1c0.3-0.2,0.4-0.4,0.3-0.7c-0.1-0.2-0.1-0.3-0.2-0.3
		C73.1,16.5,72.9,16.5,72.8,16.5z M74.2,26.9c0-0.3-0.2-0.5-0.6-0.6c-0.2,0-0.4-0.1-0.5-0.1s-0.3,0.1-0.4,0.3
		c-0.1,0.2-0.1,0.4,0,0.5c0.1,0.1,0.2,0.2,0.4,0.4c0.1,0.2,0.3,0.3,0.4,0.4c0.1,0.1,0.2,0.1,0.4,0c0.2-0.1,0.3-0.2,0.4-0.3
		C74.2,27.3,74.2,27.2,74.2,26.9z M76,15.9c0-0.3,0-0.5,0-0.7s-0.1-0.3-0.4-0.4c-0.3-0.1-0.5-0.1-0.7,0c-0.1,0.1-0.3,0.3-0.5,0.5
		c-0.1,0.2-0.2,0.4-0.1,0.5c0.1,0.1,0.2,0.3,0.3,0.5s0.3,0.4,0.4,0.4c0.1,0.1,0.3,0.1,0.5,0c0.2-0.1,0.4-0.2,0.4-0.3
		C76,16.4,76,16.2,76,15.9z M75.3,30.3l-0.6,0.1l0.1,0.6l0.5,0.1l0.2-0.4L75.3,30.3z M76.2,19.5h-0.5v0.6l0.4,0.1l0.5-0.4L76.2,19.5
		z M76.9,24.5c-0.1-0.1-0.3-0.2-0.4-0.1c-0.1,0-0.3,0.1-0.4,0.2c-0.3,0.2-0.4,0.4-0.3,0.7c0.1,0.2,0.1,0.4,0.2,0.5
		c0,0.1,0.2,0.2,0.4,0.2s0.4,0,0.5-0.1s0.2-0.2,0.3-0.5c0.1-0.2,0.1-0.4,0.1-0.5C77.2,24.9,77.1,24.7,76.9,24.5z M78.4,31.3
		c-0.1-0.3-0.1-0.5-0.3-0.6c-0.1-0.1-0.3-0.1-0.6-0.2c-0.3,0-0.4,0-0.5,0.2c-0.1,0.1-0.1,0.3-0.2,0.5c-0.1,0.3,0,0.5,0.2,0.7
		c0.1,0.1,0.3,0.2,0.4,0.3s0.3,0,0.5-0.1c0.2-0.1,0.4-0.2,0.4-0.4C78.5,31.7,78.5,31.5,78.4,31.3z M78.5,14.9
		c-0.2-0.1-0.3-0.2-0.4-0.1c-0.1,0.1-0.3,0.2-0.4,0.3c-0.1,0.1-0.2,0.2-0.3,0.3c0,0.1,0,0.2,0,0.4c0.1,0.2,0.1,0.4,0.2,0.5
		c0.1,0.1,0.2,0.2,0.4,0.2c0.3,0,0.4,0,0.5-0.1c0.1-0.1,0.2-0.3,0.3-0.5C78.9,15.5,78.8,15.1,78.5,14.9z M79.2,33.9
		c-0.2-0.1-0.4-0.1-0.5,0c-0.1,0.1-0.2,0.2-0.3,0.4c-0.2,0.3-0.1,0.6,0.1,0.8c0.2,0.3,0.5,0.4,0.8,0.3s0.5-0.4,0.4-0.7
		c0-0.2-0.1-0.4-0.1-0.5C79.5,34,79.4,33.9,79.2,33.9z M80,24.2c-0.1-0.3-0.4-0.5-0.7-0.5c-0.3,0-0.5,0.2-0.6,0.5
		c-0.1,0.3-0.2,0.5-0.2,0.6c-0.1,0.1,0,0.3,0.3,0.4c0.2,0.2,0.4,0.3,0.6,0.2c0.2,0,0.4-0.1,0.6-0.3s0.3-0.3,0.2-0.5
		C80.1,24.6,80.1,24.4,80,24.2z M79.7,17.6c-0.2-0.1-0.4-0.2-0.5-0.2c-0.1-0.1-0.3,0-0.4,0.2c-0.1,0.2-0.2,0.3-0.1,0.4
		c0.1,0.1,0.2,0.3,0.4,0.5c0.1,0.2,0.2,0.4,0.3,0.5s0.2,0.1,0.5,0.1c0.3-0.1,0.5-0.2,0.6-0.3s0.1-0.3,0.1-0.6c0-0.2-0.1-0.4-0.2-0.4
		C80.1,17.7,79.9,17.7,79.7,17.6z M80,27l-0.3-0.4l-0.5,0.2l0.2,0.5l0.4,0.1L80,27z M80.6,39.2c-0.4-0.2-0.7-0.2-1,0
		c-0.2,0.2-0.3,0.3-0.4,0.4c-0.1,0.1-0.1,0.3,0.1,0.5c0.1,0.2,0.2,0.4,0.3,0.4c0.1,0,0.3,0,0.5,0c0.2,0,0.4-0.1,0.5-0.1
		c0.1,0,0.2-0.2,0.2-0.4c0.1-0.2,0.1-0.4,0-0.5C80.9,39.5,80.8,39.3,80.6,39.2z M80.7,15.7c-0.1-0.2-0.1-0.3-0.1-0.4
		c0-0.1-0.1-0.2-0.3-0.2s-0.3,0.1-0.4,0.2c-0.1,0.1-0.1,0.2-0.2,0.4c-0.1,0.3,0,0.5,0.3,0.7s0.5,0.2,0.7,0c0.1-0.1,0.1-0.2,0.1-0.3
		C80.8,16,80.8,15.9,80.7,15.7z M81.4,35.3h-0.3L81,35.6l0.2,0.3l0.3-0.2L81.4,35.3z M81.7,37.6l-0.4-0.2L81,37.6l0.1,0.3l0.4,0.1
		L81.7,37.6z M81.7,31.4h-0.4v0.4l0.4,0.3l0.4-0.4L81.7,31.4z M82.5,19.2c-0.3-0.1-0.6,0.1-0.7,0.4c-0.1,0.2-0.2,0.4-0.3,0.6
		c-0.1,0.1,0,0.3,0.2,0.5c0.2,0.2,0.3,0.3,0.5,0.3c0.1,0,0.4,0,0.6-0.2c0.2-0.1,0.3-0.2,0.3-0.4c0-0.1-0.1-0.3-0.1-0.6
		c0-0.2-0.1-0.3-0.1-0.4C82.9,19.3,82.7,19.2,82.5,19.2z M83.3,35.3l-0.6,0.1V36h0.5l0.4-0.3L83.3,35.3z M83.6,39.2L83.3,39L83,39.4
		l0.3,0.3h0.4L83.6,39.2z"/>
	<path class="st0" d="M101.8,44.3c-3.8,0-6.9-0.9-9.2-2.8s-3.4-4.9-3.4-9v-0.3c0.1-3.8,1.2-6.7,3.5-8.6c2.3-2,5.3-3,9-3
		c2.9,0,5.2,0.5,7.1,1.6s3.2,2.6,4.1,4.4c0.9,1.8,1.3,3.8,1.3,6v1.3c0,0.3-0.1,0.6-0.4,0.8c-0.2,0.2-0.5,0.4-0.8,0.4h-13v0.1
		c0,0.9,0.1,1.5,0.4,2c0.2,0.5,0.7,0.7,1.3,0.7c0.3,0,0.5-0.1,0.7-0.2s0.4-0.3,0.6-0.6c0.3-0.3,0.5-0.4,0.7-0.5
		c0.2-0.1,0.4-0.1,0.8-0.1h8.3c0.3,0,0.5,0.1,0.7,0.3s0.3,0.4,0.2,0.7c0,0.6-0.3,1.2-0.8,2s-1.2,1.5-2.2,2.3c-1,0.7-2.2,1.3-3.7,1.8
		C105.6,44,103.9,44.3,101.8,44.3z M93.5,33c-0.4-0.1-0.6-0.1-0.8,0c-0.2,0.1-0.3,0.3-0.5,0.6c-0.1,0.3-0.2,0.5-0.1,0.6
		c0.1,0.1,0.2,0.3,0.4,0.6c0.1,0.2,0.3,0.3,0.4,0.4c0.1,0.1,0.3,0,0.5-0.1c0.4-0.1,0.6-0.4,0.6-0.8c0-0.3,0-0.6,0-0.8
		S93.8,33.1,93.5,33z M93.7,26.7c-0.2-0.1-0.3-0.1-0.4,0c-0.1,0.1-0.2,0.2-0.3,0.3c-0.2,0.2-0.3,0.3-0.5,0.4c-0.1,0.1-0.1,0.3,0,0.5
		c0.1,0.3,0.3,0.3,0.4,0.3c0.1-0.1,0.4-0.1,0.6-0.2c0.3-0.1,0.4-0.2,0.4-0.5c0-0.2,0-0.3,0-0.4C94,26.9,93.9,26.8,93.7,26.7z
		 M95.2,30.9c-0.1-0.2-0.3-0.3-0.4-0.3c-0.1,0-0.3,0-0.6,0.1c-0.3,0.1-0.4,0.2-0.5,0.3c-0.1,0.1-0.1,0.3-0.1,0.5
		c0,0.3,0,0.6,0.1,0.7c0,0.2,0.2,0.3,0.5,0.4c0.3,0.1,0.6,0.1,0.7,0s0.3-0.3,0.5-0.6c0.2-0.2,0.2-0.4,0.2-0.6
		C95.6,31.3,95.5,31.1,95.2,30.9z M95,36.7c0-0.2,0-0.4,0-0.5S94.9,36,94.8,36c-0.2-0.1-0.3-0.1-0.4,0c-0.1,0.1-0.2,0.2-0.3,0.4
		C94,36.5,94,36.6,94,36.7s0.1,0.2,0.2,0.3c0.1,0.1,0.2,0.3,0.3,0.4c0.1,0.1,0.2,0.1,0.4,0.1c0.2-0.1,0.2-0.1,0.2-0.3
		C95,37,95,36.8,95,36.7z M95.5,24c-0.3,0-0.4,0.1-0.5,0.2c-0.1,0.1-0.1,0.3-0.2,0.6c-0.1,0.1-0.1,0.3,0,0.4
		c0.1,0.1,0.2,0.2,0.3,0.3s0.3,0.3,0.4,0.4c0.1,0.1,0.2,0.1,0.4,0s0.3-0.3,0.4-0.4c0.1-0.1,0-0.3,0-0.6c-0.1-0.3-0.1-0.5-0.2-0.6
		C96,24.1,95.8,24,95.5,24z M97.1,27.2C96.7,27,96.5,27,96.3,27c-0.2,0-0.4,0.2-0.6,0.4c-0.3,0.3-0.4,0.5-0.4,0.7s0.1,0.4,0.3,0.8
		c0.1,0.3,0.3,0.4,0.5,0.4s0.4-0.1,0.8-0.2c0.3-0.1,0.5-0.1,0.7-0.2c0.2,0,0.3-0.2,0.3-0.5c0-0.4,0-0.6-0.1-0.8
		C97.7,27.5,97.5,27.3,97.1,27.2z M98,36.6c-0.3-0.3-0.6-0.3-0.9-0.1c-0.2,0.1-0.4,0.3-0.5,0.4c-0.1,0.1-0.1,0.3-0.1,0.5
		c0.1,0.3,0.2,0.4,0.3,0.4c0.1,0,0.4,0.1,0.6,0.1c0.3,0,0.5,0.1,0.6,0.1c0.2,0,0.3-0.1,0.4-0.3c0.1-0.2,0.1-0.4,0-0.5
		C98.3,37,98.2,36.8,98,36.6z M97.4,40.3c-0.2,0-0.3,0-0.4,0.1c-0.1,0.1-0.2,0.2-0.2,0.4c-0.2,0.1-0.2,0.3-0.3,0.4
		c0,0.1,0,0.2,0.2,0.4c0.2,0.2,0.4,0.3,0.5,0.4c0.1,0.1,0.3,0.1,0.5-0.1c0.2-0.1,0.3-0.2,0.2-0.4c-0.1-0.2-0.1-0.3-0.1-0.6
		c0-0.2-0.1-0.3-0.1-0.4S97.6,40.4,97.4,40.3z M97.5,31.3c-0.2,0-0.4,0-0.4,0.1c-0.1,0.1-0.1,0.3-0.3,0.5c-0.1,0.3-0.2,0.5-0.2,0.6
		c-0.1,0.1,0,0.3,0.2,0.4c0.2,0.2,0.4,0.3,0.5,0.3c0.1,0,0.4-0.1,0.6-0.2s0.4-0.3,0.5-0.4c0.1-0.1,0.1-0.3,0-0.6
		c-0.1-0.3-0.2-0.5-0.3-0.6C98,31.4,97.8,31.3,97.5,31.3z M99,39.4l-0.4-0.3l-0.3,0.4l0.3,0.3H99V39.4z M100,29.5h1.3
		c0-0.1-0.1-0.1-0.1-0.2c-0.1-0.5-0.2-1-0.3-1.4s0-0.7,0-1.1c0.2-0.1,0.5-0.2,0.8-0.2c1.2,0,1.8,0.9,1.8,2.8h-2.2
		c0.2,0.8,0.4,1.6,0.5,2.2c0.1,0.6,0.3,1.2,0.7,1.5c0.3,0.4,0.9,0.6,1.8,0.6c1.1,0,2-0.1,2.6-0.2c0.7-0.2,1.2-0.6,1.6-1.1
		c0.4-0.5,0.8-1.3,1.1-2.4c0.3-0.9,0.3-1.5,0.1-2c-0.2-0.5-0.7-0.9-1.3-1.2c-0.6-0.4-1.3-0.8-2-1.4c-0.9-0.6-1.5-1-2.1-1
		c-0.5,0-1.3,0.2-2.1,0.8c-0.7,0.5-1.2,1-1.3,1.5C100.4,27.2,100,28.1,100,29.5z M104.3,39.8c0-0.4-0.1-0.6-0.1-0.8
		s-0.2-0.4-0.5-0.4c-0.4-0.1-0.8-0.2-1-0.2c-0.2,0-0.5,0.2-0.7,0.6s-0.3,0.6-0.1,0.8s0.4,0.4,0.6,0.7s0.4,0.4,0.5,0.5
		c0.2,0.1,0.4,0,0.7-0.1c0.3-0.1,0.5-0.3,0.5-0.4C104.3,40.3,104.3,40.1,104.3,39.8z M106.2,37.8c-0.1-0.1-0.1-0.2-0.2-0.3
		c-0.1,0-0.2,0-0.3,0c-0.3,0-0.4,0.1-0.5,0.3c-0.1,0.2,0,0.4,0.1,0.6c0.1,0.1,0.3,0.2,0.3,0.2c0.1,0.1,0.2,0,0.3,0
		c0.1-0.1,0.2-0.2,0.2-0.3C106.3,38.1,106.3,38,106.2,37.8z M109.4,39.5c-0.1-0.4-0.3-0.6-0.4-0.8c-0.1-0.2-0.4-0.3-0.8-0.2
		c-0.5,0.1-0.8,0.1-1.1,0.3c-0.2,0.1-0.4,0.4-0.5,0.9c-0.1,0.4,0,0.7,0.2,0.9s0.5,0.4,0.9,0.6c0.4,0.2,0.7,0.4,0.9,0.5
		s0.5,0,0.9-0.4c0.4-0.3,0.4-0.6,0.3-0.8C109.7,40.2,109.5,39.9,109.4,39.5z"/>
	<path class="st0" d="M120.8,52.2c-0.3,0-0.5-0.1-0.7-0.3c-0.2-0.2-0.3-0.4-0.3-0.7c0-0.1,0-0.1,0-0.2s0-0.2,0-0.2l3.5-8.4
		l-8.5-20.1c0-0.1,0-0.2,0-0.3c0.1-0.3,0.2-0.5,0.4-0.7s0.4-0.3,0.7-0.3h7.4c0.4,0,0.8,0.1,1,0.4c0.2,0.2,0.4,0.5,0.4,0.7l3.6,10
		l3.7-10c0.1-0.3,0.3-0.5,0.5-0.7s0.5-0.3,1-0.3h7.3c0.3,0,0.5,0.1,0.7,0.3s0.3,0.4,0.3,0.6s0,0.3,0,0.4l-12.2,28.7
		c-0.1,0.3-0.3,0.5-0.5,0.7c-0.2,0.2-0.6,0.3-1,0.3L120.8,52.2L120.8,52.2z M118.6,26.6l-0.5,0.1l0.1,0.4l0.3,0.3l0.2-0.4
		L118.6,26.6z M119.5,23.6c-0.3-0.1-0.5-0.1-0.6,0s-0.3,0.3-0.5,0.5s-0.3,0.4-0.3,0.5s0,0.3,0.2,0.6c0.1,0.2,0.3,0.4,0.4,0.4
		s0.4,0,0.6-0.1c0.3-0.1,0.5-0.1,0.6-0.2c0.1-0.1,0.2-0.3,0.2-0.6s0-0.5-0.1-0.7S119.8,23.7,119.5,23.6z M120.2,29.5
		c-0.2-0.1-0.4-0.1-0.4,0c-0.1,0.1-0.2,0.2-0.3,0.4s-0.3,0.3-0.3,0.5c-0.1,0.1,0,0.3,0.1,0.5c0.3,0.4,0.6,0.5,1.1,0.3
		c0.3-0.1,0.4-0.2,0.5-0.3s0.1-0.3,0.1-0.6c0-0.2,0-0.4-0.1-0.5C120.7,29.6,120.5,29.5,120.2,29.5z M121.1,26.9
		c-0.2-0.1-0.4-0.2-0.5-0.3s-0.3-0.1-0.4,0.2c-0.1,0.2-0.1,0.3,0,0.4c0.1,0.1,0.2,0.3,0.4,0.5c0.1,0.2,0.2,0.3,0.3,0.4
		c0.1,0.1,0.2,0.1,0.4,0s0.3-0.1,0.4-0.3c0-0.1,0-0.3,0-0.5c0-0.1,0-0.2-0.1-0.3C121.4,27,121.3,27,121.1,26.9z M121.4,25.5
		l-0.4-0.2l-0.4,0.2l0.2,0.4l0.4-0.1L121.4,25.5z M123.1,29.8c-0.1-0.3-0.2-0.4-0.6-0.4c-0.2,0-0.4,0-0.5,0s-0.2,0.1-0.3,0.3
		c-0.1,0.4-0.1,0.7,0.3,0.9c0.2,0.2,0.4,0.3,0.6,0.3s0.3,0,0.5-0.2c0.2-0.1,0.3-0.3,0.2-0.4S123.1,30,123.1,29.8z M124.7,48.1
		c-0.2-0.3-0.3-0.5-0.5-0.6c-0.1-0.1-0.4-0.1-0.7,0c-0.4,0.1-0.7,0.2-0.9,0.3s-0.3,0.4-0.4,0.8c0,0.4,0,0.7,0.2,0.9
		c0.2,0.1,0.5,0.3,0.9,0.5s0.7,0.3,1,0.3s0.5-0.1,0.8-0.5c0.3-0.3,0.3-0.6,0.2-0.8C125.1,48.7,124.9,48.4,124.7,48.1z M123.3,24.2
		l-0.3,0.3v0.4l0.5,0.1v-0.4L123.3,24.2z M126.6,34.3c-0.7-0.1-1.2-0.2-1.6-0.2s-0.8,0.4-1.1,1c-0.4,0.8-0.7,1.4-0.8,1.8
		c-0.1,0.5,0.2,1,0.8,1.7c0.6,0.6,1.1,0.8,1.5,0.7c0.5-0.2,1-0.4,1.8-0.8c0.7-0.3,1.2-0.6,1.5-0.9c0.3-0.3,0.4-0.8,0.3-1.6
		c-0.1-0.7-0.3-1.1-0.7-1.3C127.9,34.6,127.4,34.4,126.6,34.3z M124.4,26.1c-0.4-0.1-0.7,0-0.9,0.3c-0.1,0.2-0.1,0.3,0,0.4
		c0.1,0.1,0.2,0.2,0.3,0.4s0.2,0.3,0.3,0.4c0.1,0.1,0.2,0.1,0.4,0.1c0.2-0.1,0.3-0.1,0.2-0.3c0-0.1,0-0.3,0-0.5s0-0.4,0-0.5
		C124.7,26.3,124.6,26.2,124.4,26.1z M127.1,45.3c-0.1-0.3-0.2-0.4-0.3-0.5s-0.3-0.1-0.6-0.1s-0.4,0.1-0.5,0.2s-0.2,0.3-0.2,0.5
		c-0.1,0.2-0.1,0.4-0.1,0.5s0.2,0.3,0.4,0.4c0.4,0.2,0.7,0.2,1.1,0C127.1,46,127.2,45.7,127.1,45.3z M129.3,46.7
		c-0.1-0.4-0.4-0.5-0.7-0.5c-0.2,0-0.3,0.1-0.3,0.2s-0.1,0.3-0.1,0.5c-0.1,0.2,0,0.4,0.2,0.5c0.2,0.1,0.4,0.1,0.5,0
		c0.1-0.1,0.3-0.2,0.4-0.3C129.3,47,129.4,46.9,129.3,46.7z M129.5,42.6c-0.3,0-0.5,0-0.5,0.2c-0.1,0.2-0.2,0.4-0.3,0.6
		c-0.2,0.3-0.1,0.6,0.1,0.8c0.2,0.2,0.5,0.3,0.8,0.2c0.2-0.1,0.4-0.2,0.5-0.3c0.1-0.1,0.2-0.2,0.1-0.5c0-0.3-0.1-0.5-0.2-0.7
		C130,42.8,129.8,42.7,129.5,42.6z M130.8,38.6c-0.1-0.1-0.2-0.2-0.3-0.3c-0.1,0-0.2,0-0.4,0c-0.2,0.1-0.4,0.2-0.5,0.2
		c-0.1,0.1-0.2,0.2-0.2,0.4c0,0.3,0,0.5,0.1,0.6s0.2,0.2,0.5,0.3c0.2,0.1,0.4,0,0.5,0c0.1-0.1,0.2-0.2,0.3-0.4s0.2-0.3,0.1-0.4
		C131,38.9,131,38.8,130.8,38.6z M132.3,28.5c-0.5-0.1-0.9-0.1-1.1,0c-0.2,0.1-0.5,0.4-0.7,0.8c-0.2,0.3-0.2,0.6,0,0.7
		c0.2,0.2,0.4,0.4,0.7,0.7c0.2,0.2,0.4,0.4,0.5,0.5c0.1,0.1,0.4,0.1,0.7,0c0.4-0.1,0.6-0.3,0.8-0.4c0.2-0.1,0.2-0.4,0.2-0.7
		c0-0.5-0.1-0.8-0.2-1.1C133.1,28.8,132.8,28.6,132.3,28.5z M132.2,41.6c-0.1-0.1-0.3-0.2-0.4-0.2c-0.1,0-0.3,0.1-0.4,0.2
		c-0.2,0.1-0.3,0.3-0.3,0.6c0.1,0.2,0.2,0.4,0.4,0.4c0.3,0,0.5-0.1,0.6-0.3c0.1-0.2,0.2-0.3,0.2-0.4
		C132.4,41.8,132.3,41.7,132.2,41.6z M132.9,33.3c-0.2-0.1-0.4-0.1-0.5-0.1c-0.1,0.1-0.2,0.2-0.4,0.3c-0.1,0.1-0.2,0.3-0.2,0.4
		s0.1,0.3,0.2,0.4c0.1,0.2,0.2,0.3,0.2,0.4c0.1,0.1,0.2,0.1,0.4,0.1c0.2-0.1,0.3-0.1,0.4-0.2c0.1-0.1,0.1-0.2,0.1-0.4s0-0.4,0-0.5
		C133.2,33.5,133.1,33.4,132.9,33.3z M132.8,37.4h-0.3v0.3l0.3,0.2l0.4-0.3L132.8,37.4z M137.9,25.4c-0.2-0.3-0.3-0.5-0.5-0.7
		c-0.2-0.1-0.4-0.2-0.8-0.1c-0.5,0.1-0.8,0.2-1,0.3c-0.2,0.1-0.4,0.4-0.4,0.8c-0.1,0.4,0,0.8,0.2,0.9c0.2,0.2,0.5,0.4,0.9,0.6
		c0.4,0.2,0.8,0.3,1.1,0.4c0.3,0.1,0.6-0.1,0.9-0.4c0.3-0.4,0.4-0.6,0.2-0.9C138.3,26.2,138.1,25.8,137.9,25.4z M135.9,30.5
		c-0.3,0-0.4,0.1-0.4,0.3s-0.1,0.4-0.2,0.6c-0.1,0.3-0.1,0.5,0.2,0.7c0.1,0.1,0.3,0.3,0.4,0.3c0.1,0.1,0.2,0.1,0.4-0.1
		c0.2-0.1,0.3-0.3,0.4-0.4c0-0.1,0-0.3,0-0.5c-0.1-0.3-0.1-0.5-0.2-0.6C136.4,30.6,136.2,30.5,135.9,30.5z"/>
	<path class="st0" d="M155.4,44.3c-8.1,0-12.3-3.3-12.8-9.8c-0.1-1.4-0.1-2.8,0-4.1c0.2-3.2,1.5-5.7,3.7-7.3
		c2.2-1.7,5.3-2.5,9.1-2.5s6.8,0.8,9.1,2.5c2.2,1.7,3.5,4.1,3.7,7.3c0.1,1.4,0.1,2.8,0,4.1C167.8,41,163.5,44.3,155.4,44.3z
		 M145.8,35.2c-0.2-0.1-0.4-0.2-0.5-0.2s-0.3,0.1-0.5,0.3c-0.3,0.2-0.4,0.5-0.3,0.9c0.1,0.3,0.2,0.5,0.3,0.6s0.3,0.2,0.5,0.2
		s0.4-0.1,0.4-0.2c0-0.2,0.1-0.4,0.1-0.6c0.1-0.2,0.2-0.4,0.2-0.5S146,35.3,145.8,35.2z M147.7,29.1c-0.3-0.6-0.6-1-0.8-1.3
		s-0.6-0.4-1.2-0.3c-0.6,0.1-0.9,0.4-0.9,0.8c0,0.4,0,0.9-0.1,1.5s-0.1,1-0.1,1.3s0.2,0.6,0.7,0.9c0.6,0.3,1.1,0.4,1.5,0.4
		c0.4,0,0.8-0.3,1.2-0.8s0.5-0.9,0.3-1.2C148.2,30,148,29.6,147.7,29.1z M146.9,39.2c-0.2-0.3-0.5-0.5-0.9-0.4
		c-0.2,0.1-0.3,0.1-0.4,0.3c0,0.1-0.1,0.3-0.1,0.5s0,0.4,0,0.5s0.1,0.2,0.3,0.3s0.4,0.1,0.4,0s0.2-0.2,0.4-0.4
		c0.1-0.2,0.3-0.3,0.3-0.4C147.1,39.5,147.1,39.4,146.9,39.2z M147.6,35.9l-0.4-0.3l-0.4,0.4l0.4,0.4h0.4
		C147.6,36.4,147.6,35.9,147.6,35.9z M149.7,39.8c-0.2-0.1-0.3-0.1-0.4-0.1c-0.1,0-0.2,0.1-0.4,0.2c-0.1,0.1-0.2,0.3-0.3,0.4
		s-0.1,0.2,0,0.4s0.2,0.3,0.3,0.3s0.3,0.1,0.5,0c0.2,0,0.3-0.1,0.4-0.2c0.1-0.1,0.1-0.2,0.2-0.4c0-0.2,0.1-0.4,0.1-0.5
		C150,40,149.9,39.9,149.7,39.8z M149.9,27.9l-0.5-0.1l-0.2,0.4l0.4,0.2l0.2-0.1L149.9,27.9z M150,34l-0.4-0.1l-0.1,0.4l0.4,0.3
		l0.4-0.3L150,34z M150.2,31.7c-0.2,0-0.4,0.1-0.5,0.4s-0.1,0.5,0.1,0.7c0.2,0.2,0.5,0.2,0.7,0c0.3-0.2,0.4-0.4,0.3-0.7
		c0-0.2-0.1-0.3-0.2-0.3C150.5,31.7,150.4,31.7,150.2,31.7z M152.3,22.8c-0.1-0.3-0.3-0.4-0.5-0.4s-0.4,0.1-0.7,0.1
		s-0.5,0.1-0.6,0.1c-0.2,0-0.3,0.2-0.3,0.4c-0.1,0.3-0.1,0.6,0,0.7c0.1,0.1,0.2,0.3,0.5,0.4c0.3,0.2,0.6,0.3,0.7,0.3
		c0.2,0,0.4-0.1,0.7-0.3c0.3-0.2,0.4-0.4,0.4-0.6C152.5,23.3,152.4,23.1,152.3,22.8z M151.8,36.2l-0.5-0.3l-0.5,0.4l0.3,0.4l0.5,0.1
		L151.8,36.2z M152.6,28.1c-0.1-0.2-0.2-0.3-0.3-0.3s-0.3,0-0.5,0c-0.3,0-0.5,0.1-0.6,0.3c-0.1,0.1-0.1,0.3,0,0.3s0.1,0.2,0.3,0.3
		c0.1,0.1,0.2,0.2,0.3,0.3s0.2,0,0.4,0c0.2-0.1,0.3-0.2,0.4-0.3C152.6,28.4,152.6,28.3,152.6,28.1z M153.5,25
		c-0.1-0.1-0.3-0.3-0.4-0.3c-0.1-0.1-0.2-0.1-0.4,0s-0.2,0.1-0.2,0.3c0,0.1,0.1,0.3,0.1,0.4c0,0.2,0.1,0.4,0.3,0.4
		c0.2,0,0.3,0.1,0.4,0.1s0.2,0,0.3-0.2s0.1-0.3,0-0.4C153.8,25.2,153.7,25.1,153.5,25z M155.5,40c0-0.4-0.1-0.7-0.2-0.9
		s-0.4-0.3-0.8-0.4c-0.4-0.1-0.7-0.2-0.9-0.2c-0.2,0-0.4,0.2-0.7,0.6c-0.2,0.3-0.2,0.5-0.1,0.6c0.2,0.2,0.4,0.4,0.6,0.7
		c0.1,0.2,0.3,0.3,0.4,0.4c0.1,0.1,0.3,0,0.5,0c0.4-0.1,0.6-0.2,0.8-0.2C155.4,40.6,155.5,40.4,155.5,40z M155.4,37.2
		c0.9,0,1.4-0.2,1.6-0.7s0.3-1.2,0.4-2.3c0-0.4,0-1.1,0-1.8s0-1.4,0-1.8c-0.1-1-0.2-1.7-0.4-2.2s-0.7-0.8-1.6-0.8
		c-0.8,0-1.3,0.3-1.6,0.8s-0.4,1.3-0.4,2.2c0,0.4,0,1.1,0,1.8s0,1.4,0,1.8c0.1,1,0.2,1.8,0.4,2.3C154.1,37,154.6,37.2,155.4,37.2z
		 M154.8,23.8l-0.4-0.3l-0.4,0.3l0.1,0.4l0.4-0.2L154.8,23.8z M157.6,39.3c-0.2-0.1-0.4-0.2-0.6-0.3c-0.1-0.1-0.3,0-0.5,0.2
		s-0.2,0.3-0.1,0.5c0.1,0.1,0.2,0.3,0.3,0.5s0.2,0.3,0.2,0.4c0.1,0.1,0.2,0.1,0.4,0.1c0.3,0,0.5-0.1,0.7-0.1s0.3-0.2,0.3-0.5
		s0-0.4-0.2-0.5C158.1,39.5,157.9,39.4,157.6,39.3z M158.6,41.7l-0.6-0.1l-0.3,0.6l0.5,0.2l0.4-0.1V41.7L158.6,41.7z M159.3,24.8
		c-0.1-0.2-0.2-0.3-0.3-0.4c-0.1,0-0.3,0-0.5,0s-0.3,0.1-0.3,0.2c0,0.1,0,0.2-0.1,0.4c0,0.2-0.1,0.4-0.1,0.5s0,0.2,0.2,0.3
		s0.4,0.2,0.6,0.2c0.1,0,0.3-0.1,0.5-0.3c0.2-0.2,0.3-0.3,0.2-0.5C159.5,25.2,159.4,25,159.3,24.8z M160,22.2
		c-0.1-0.2-0.2-0.3-0.4-0.2c-0.1,0.1-0.3,0.1-0.6,0.1c-0.2,0-0.3,0-0.4,0c-0.1,0-0.1,0.1-0.2,0.3c-0.1,0.2-0.2,0.4-0.2,0.6
		c0,0.1,0,0.3,0.2,0.4c0.2,0.1,0.4,0.2,0.5,0.2c0.1,0,0.3-0.1,0.5-0.3c0.2-0.2,0.3-0.3,0.4-0.4C160.1,22.7,160.1,22.5,160,22.2z
		 M164.2,26.9c-0.5-0.7-1-1.2-1.4-1.4c-0.4-0.2-1-0.2-1.9,0.1c-0.8,0.3-1.2,0.7-1.2,1.2s0,1.2,0,2c0,0.6,0.2,1,0.5,1.2
		s0.7,0.3,1.4,0.5c0.6,0.2,1,0.3,1.3,0.3c0.3,0,0.7-0.2,1-0.7c0.4-0.6,0.7-1.2,0.9-1.5C164.8,28,164.7,27.5,164.2,26.9z M162.3,39.6
		c-0.2-0.2-0.4-0.3-0.5-0.3c-0.2,0-0.4,0.1-0.7,0.2s-0.5,0.3-0.6,0.4c-0.1,0.1-0.2,0.3-0.2,0.6c0.1,0.4,0.2,0.8,0.2,1
		c0.1,0.2,0.3,0.4,0.7,0.5s0.7,0,0.7-0.3c0.1-0.2,0.2-0.6,0.4-0.9c0.1-0.3,0.2-0.5,0.2-0.7C162.6,40,162.5,39.8,162.3,39.6z
		 M166.7,34.2c-0.2-0.6-0.6-0.9-0.9-0.8c-0.4,0.1-0.9,0.1-1.6,0.2c-0.5,0.1-0.9,0.2-1.1,0.3c-0.2,0.1-0.4,0.5-0.5,1
		c-0.1,0.5-0.1,0.9,0,1.2c0.1,0.3,0.4,0.5,0.8,0.8c0.6,0.4,1,0.6,1.4,0.8c0.3,0.2,0.8,0,1.3-0.4c0.6-0.5,0.9-1,1-1.4
		C167.1,35.5,167,34.9,166.7,34.2z"/>
	<path class="st0" d="M172.7,43.8c-0.3,0-0.6-0.1-0.8-0.4c-0.2-0.2-0.4-0.5-0.4-0.8V22.2c0-0.3,0.1-0.6,0.4-0.8
		c0.2-0.2,0.5-0.4,0.8-0.4h7.7c0.3,0,0.6,0.1,0.8,0.4c0.2,0.2,0.4,0.5,0.4,0.8v1.5c0.7-0.9,1.7-1.6,3-2.2c1.3-0.6,2.7-0.9,4.3-0.9
		c1.5,0,2.9,0.4,4.2,1.1c1.3,0.7,2.3,1.8,3.1,3.3s1.2,3.4,1.2,5.7v12.1c0,0.3-0.1,0.6-0.4,0.8c-0.2,0.2-0.5,0.4-0.8,0.4h-8.4
		c-0.3,0-0.6-0.1-0.8-0.4s-0.4-0.5-0.4-0.8v-12c0-1.6-0.7-2.4-2.2-2.4s-2.2,0.8-2.2,2.4v11.8c0,0.3-0.1,0.6-0.4,0.8
		c-0.3,0.2-0.5,0.4-0.8,0.4C181,43.8,172.7,43.8,172.7,43.8z M173.3,30.6l-0.4-0.3l-0.3,0.4l0.2,0.3l0.4,0.1L173.3,30.6z
		 M173.9,41.5h-0.6l-0.4,0.4l0.3,0.6l0.6-0.3L173.9,41.5z M175.1,21.8c-0.3,0-0.5,0-0.6,0c-0.1,0-0.3,0.2-0.4,0.4s-0.2,0.4-0.1,0.5
		c0,0.1,0.2,0.3,0.4,0.5s0.3,0.3,0.5,0.4c0.1,0.1,0.3,0,0.6-0.1s0.4-0.3,0.5-0.4c0.1-0.1,0.1-0.3,0-0.6s-0.1-0.5-0.3-0.6
		C175.6,21.9,175.4,21.8,175.1,21.8z M175.2,28.1c-0.4-0.1-0.6,0-0.8,0.3c-0.1,0.2-0.2,0.4-0.3,0.5s0,0.3,0.1,0.5
		c0.2,0.2,0.3,0.3,0.5,0.2c0.1-0.1,0.3-0.1,0.6-0.2c0.2-0.1,0.3-0.2,0.3-0.3s0-0.2,0-0.4s0-0.4-0.1-0.4S175.3,28.2,175.2,28.1z
		 M175.5,25.7c-0.1-0.1-0.2-0.2-0.2-0.2c-0.1,0-0.2,0-0.4,0c-0.3,0.1-0.4,0.2-0.4,0.4s0.1,0.4,0.3,0.5s0.4,0,0.5-0.1
		s0.2-0.2,0.2-0.3C175.6,26,175.6,25.9,175.5,25.7z M176.1,39.9c-0.2-0.2-0.4-0.3-0.5-0.4s-0.3,0-0.5,0.1s-0.4,0.3-0.4,0.4
		s0,0.4,0.1,0.6c0.1,0.3,0.2,0.5,0.2,0.6c0.1,0.1,0.2,0.2,0.5,0.2s0.5,0,0.6-0.1s0.3-0.3,0.4-0.5s0.1-0.4,0-0.5
		C176.4,40.3,176.3,40.1,176.1,39.9z M175.4,38.1l-0.4-0.2l-0.2,0.4l0.3,0.3h0.5L175.4,38.1z M177.9,32.7c-0.3-0.4-0.6-0.7-0.8-0.8
		s-0.6-0.1-1.1,0s-0.7,0.3-0.7,0.6s-0.1,0.6-0.1,1.1s0,0.8,0,1.1s0.3,0.5,0.7,0.7c0.4,0.1,0.7,0.1,0.9-0.1c0.2-0.2,0.4-0.5,0.6-0.9
		c0.3-0.4,0.5-0.6,0.7-0.8C178.2,33.3,178.1,33.1,177.9,32.7z M177.5,22.9l-0.4-0.2l-0.4,0.2v0.6h0.6L177.5,22.9z M179.9,27.3
		c-0.1-0.2-0.3-0.4-0.4-0.6c-0.1-0.2-0.3-0.2-0.6-0.1c-0.3,0.1-0.5,0.2-0.5,0.4s-0.1,0.4-0.1,0.7c0,0.4,0.2,0.7,0.6,0.9
		c0.2,0.1,0.4,0,0.4,0s0.2-0.2,0.4-0.4c0.1-0.1,0.2-0.3,0.3-0.4C180.1,27.7,180,27.5,179.9,27.3z M179.2,25.4l-0.4-0.3l-0.4,0.2
		l0.2,0.4l0.5,0.1L179.2,25.4z M180.6,40.4c-0.3-0.3-0.6-0.3-0.9-0.1s-0.5,0.3-0.6,0.4c-0.2,0.1-0.2,0.3-0.1,0.6
		c0.1,0.4,0.1,0.6,0.3,0.8c0.1,0.2,0.4,0.3,0.7,0.3s0.5,0,0.6-0.2s0.2-0.4,0.3-0.7c0.1-0.2,0.1-0.4,0.1-0.5
		C180.9,40.7,180.7,40.6,180.6,40.4z M180.3,31.4c-0.1-0.3-0.2-0.5-0.5-0.6s-0.6,0.1-0.7,0.4s-0.1,0.5,0.1,0.7
		c0.1,0.1,0.3,0.2,0.4,0.2s0.2-0.1,0.4-0.1c0.1-0.1,0.3-0.2,0.3-0.2C180.3,31.7,180.3,31.6,180.3,31.4z M180.2,35.6
		c-0.2,0-0.4,0-0.4,0.2c-0.1,0.1-0.2,0.3-0.2,0.4c-0.1,0.1-0.1,0.2,0.1,0.3c0.2,0.2,0.5,0.3,0.8,0.1c0.1-0.1,0.2-0.1,0.2-0.2
		s0-0.2,0-0.4C180.6,35.7,180.4,35.6,180.2,35.6z M180.3,37.7l-0.5-0.1v0.5l0.3,0.3l0.4-0.3L180.3,37.7z M181.2,25.7l-0.5-0.3
		l-0.3,0.5l0.2,0.4h0.5L181.2,25.7z M183.2,25.8c-0.3-0.1-0.5-0.1-0.6-0.2c-0.1,0-0.3,0.1-0.5,0.3s-0.2,0.4-0.2,0.5
		c0.1,0.1,0.2,0.3,0.3,0.5s0.2,0.3,0.4,0.4c0.1,0,0.3,0,0.5,0c0.2-0.1,0.4-0.1,0.5-0.2c0.1-0.1,0.2-0.3,0.2-0.5c0-0.3,0-0.4-0.1-0.5
		S183.4,25.9,183.2,25.8z M186.7,25.6c-0.2-0.1-0.4-0.1-0.5-0.1s-0.3,0.1-0.4,0.3s-0.2,0.4-0.3,0.5c0,0.1,0,0.3,0.2,0.6
		c0.1,0.2,0.3,0.2,0.4,0.2s0.3-0.1,0.6-0.2c0.3-0.1,0.5-0.3,0.5-0.7C187.2,25.9,187,25.7,186.7,25.6z M192.5,32.7
		c-0.5-0.4-1-0.7-1.3-0.8s-0.8,0-1.3,0.4c-0.6,0.5-1.1,0.9-1.4,1.2c-0.3,0.4-0.3,0.9-0.1,1.7c0.3,0.8,0.6,1.3,1,1.5s1,0.3,1.9,0.3
		c0.7,0,1.2-0.2,1.4-0.5s0.4-0.8,0.7-1.5c0.2-0.6,0.2-1,0.1-1.3C193.3,33.4,193,33.1,192.5,32.7z M190.4,40.8
		c-0.3-0.1-0.5-0.1-0.6,0.1c-0.1,0.2-0.1,0.4,0,0.6c0.2,0.3,0.4,0.4,0.6,0.3s0.3-0.2,0.3-0.5S190.6,40.9,190.4,40.8z M192.5,26.9
		c-0.3-0.2-0.5-0.4-0.7-0.5s-0.4-0.1-0.7,0.1c-0.4,0.2-0.5,0.4-0.5,0.6s0.1,0.5,0.2,0.9s0.1,0.7,0.2,0.9s0.3,0.4,0.7,0.4
		s0.7-0.1,0.8-0.2c0.1-0.2,0.3-0.5,0.5-0.9c0.1-0.3,0.1-0.6,0.1-0.7C192.9,27.3,192.8,27.1,192.5,26.9z M191.9,39l-0.3-0.4l-0.4,0.4
		l0.2,0.3h0.3L191.9,39z M196.1,41.1c-0.2-0.2-0.3-0.2-0.5-0.2c-0.1,0.1-0.3,0.2-0.4,0.2c-0.1,0.1-0.1,0.2-0.1,0.4
		c0,0.1,0.1,0.2,0.2,0.3c0.1,0,0.2,0.1,0.4,0.1c0.3,0,0.5,0,0.6-0.2c0.1-0.1,0.1-0.2,0-0.3C196.3,41.3,196.3,41.2,196.1,41.1z
		 M196,30.1l-0.3-0.1l-0.4,0.2l0.2,0.4h0.4L196,30.1C195.9,30.1,196,30.1,196,30.1z M196.6,37.1L196,37l-0.2,0.4l0.1,0.4l0.4-0.2
		L196.6,37.1z"/>
	<path class="st0" d="M210,44.3c-1.7,0-3.2-0.3-4.6-1s-2.5-1.8-3.3-3.3c-0.8-1.5-1.3-3.5-1.4-5.9c0-0.7,0-1.3,0-1.8s0-1.1,0-1.7
		c0.1-2.3,0.5-4.2,1.4-5.7c0.8-1.5,1.9-2.6,3.3-3.3s2.9-1.1,4.6-1.1c1.2,0,2.3,0.2,3.3,0.5c1,0.4,1.8,0.9,2.5,1.5v-8.8
		c0-0.3,0.1-0.6,0.4-0.8c0.2-0.2,0.5-0.4,0.8-0.4h8.1c0.3,0,0.6,0.1,0.8,0.4c0.2,0.2,0.4,0.5,0.4,0.8v28.9c0,0.3-0.1,0.6-0.4,0.8
		c-0.2,0.2-0.6-0.5-0.9-0.5l-3.4-1.3l-1.7,0.1l-2.3,2.1c-0.3,0-0.6-0.1-0.8-0.4c-0.2-0.2-0.4-0.5-0.4-0.8v-1
		c-0.7,0.8-1.6,1.4-2.6,1.9S211.5,44.3,210,44.3z M204,33.6c0-0.2-0.1-0.4-0.3-0.4c-0.1,0-0.2,0-0.3,0c-0.1,0.1-0.1,0.1-0.2,0.3
		c-0.1,0.1-0.2,0.2-0.2,0.3c-0.1,0.1,0,0.2,0,0.3c0.1,0.1,0.2,0.2,0.3,0.2s0.2-0.1,0.4-0.1C203.9,34,204,33.9,204,33.6z M204.7,35.2
		c-0.1-0.2-0.3-0.2-0.4-0.1c-0.1,0.1-0.3,0.2-0.4,0.3c-0.2,0.1-0.3,0.1-0.4,0.2c-0.1,0.1-0.1,0.2-0.1,0.4s0.1,0.4,0.1,0.5
		c0.1,0.1,0.2,0.2,0.4,0.2s0.4,0,0.5,0c0.1-0.1,0.2-0.2,0.3-0.4s0.2-0.4,0.2-0.5C204.9,35.5,204.8,35.4,204.7,35.2z M207.1,26.6
		c-0.1-0.5-0.2-0.8-0.4-0.9c-0.2-0.2-0.5-0.3-1-0.4c-0.5-0.1-0.8,0-1,0.1s-0.4,0.4-0.6,0.9c-0.2,0.4-0.2,0.6,0,0.8s0.4,0.4,0.6,0.6
		c0.4,0.3,0.6,0.6,0.8,0.8s0.4,0.2,0.9,0c0.4-0.2,0.7-0.5,0.8-0.7C207.2,27.5,207.2,27.1,207.1,26.6z M208.4,38.1
		c-0.6-0.4-1-0.8-1.4-1s-0.8-0.1-1.4,0.3c-0.4,0.2-0.6,0.5-0.6,0.7c0,0.3,0,0.6,0.2,0.9c0.1,0.3,0.3,0.7,0.4,1.1
		c0.1,0.5,0.2,0.9,0.3,1.3c0,0.4,0.1,0.7,0.3,0.9c0.1,0.2,0.5,0.3,1,0.4c0.5,0,0.8-0.1,0.9-0.3c0.1-0.2,0.2-0.5,0.3-0.9
		s0.2-0.8,0.3-1.2c0.2-0.5,0.3-0.9,0.4-1.2C209,38.7,208.9,38.4,208.4,38.1z M209.9,29.8c-0.2-0.2-0.4-0.3-0.5-0.3
		c-0.2,0-0.4,0.1-0.7,0.2c-0.3,0.1-0.6,0.2-0.7,0.3c-0.2,0.1-0.2,0.3-0.2,0.6c0,0.4,0.1,0.6,0.2,0.7s0.4,0.2,0.7,0.3s0.5,0.1,0.7,0
		c0.1-0.1,0.3-0.3,0.4-0.6c0.2-0.3,0.3-0.5,0.4-0.7C210.2,30.2,210.1,30,209.9,29.8z M210,34.6c0-0.3-0.1-0.4-0.2-0.5
		s-0.3-0.2-0.6-0.2c-0.3-0.1-0.6-0.1-0.7-0.1c-0.2,0-0.3,0.1-0.5,0.4c-0.2,0.3-0.3,0.6-0.3,0.8s0.2,0.4,0.4,0.7
		c0.2,0.2,0.4,0.3,0.6,0.3s0.4-0.1,0.7-0.2c0.3-0.1,0.4-0.3,0.5-0.4C210.1,35.1,210.1,34.9,210,34.6z M211.2,22.9
		c-0.3-0.1-0.5-0.1-0.6,0s-0.3,0.3-0.5,0.5c-0.3,0.3-0.3,0.7-0.1,1s0.3,0.6,0.4,0.8s0.3,0.3,0.7,0.2s0.7-0.2,0.8-0.4
		s0.2-0.5,0.2-0.9s0-0.6-0.2-0.8C211.8,23.2,211.6,23.1,211.2,22.9z M213.6,36.4c0.8,0,1.4-0.2,1.7-0.7s0.5-1.1,0.5-1.9
		c0.1-0.7,0.1-1.2,0.1-1.7c0-0.4,0-1-0.1-1.6c0-0.7-0.2-1.2-0.5-1.6c-0.3-0.4-0.9-0.6-1.6-0.6c-0.8,0-1.4,0.2-1.7,0.7
		s-0.5,1.1-0.5,1.9c-0.1,1-0.1,1.9,0,2.9c0.1,0.8,0.3,1.4,0.5,1.9C212.2,36.2,212.8,36.4,213.6,36.4z M213.8,40.5
		c-0.2-0.2-0.3-0.4-0.4-0.6c-0.1-0.2-0.2-0.2-0.5-0.2c-0.4,0.1-0.6,0.2-0.7,0.3s-0.2,0.4-0.2,0.7c0,0.4,0,0.7,0.1,0.8
		c0.1,0.2,0.3,0.3,0.7,0.5c0.4,0.1,0.6,0.2,0.8,0.1s0.4-0.2,0.6-0.5c0.2-0.2,0.2-0.4,0.1-0.6C214.1,41,214,40.8,213.8,40.5z
		 M213.7,25.7c0-0.1-0.1-0.3-0.1-0.4c0-0.1-0.1-0.1-0.3-0.1s-0.3,0-0.3,0.1s-0.1,0.2-0.1,0.4s-0.1,0.3-0.1,0.4c0,0.1,0,0.2,0.1,0.3
		c0.3,0.2,0.6,0.2,0.8,0c0.1-0.1,0.2-0.2,0.1-0.3C213.8,25.9,213.7,25.8,213.7,25.7z M218.3,39.4c-0.2-0.1-0.3-0.2-0.4-0.3
		c-0.1,0-0.2,0-0.4,0.1s-0.3,0.3-0.4,0.4c-0.1,0.1,0,0.3,0,0.5c0.1,0.3,0.2,0.4,0.3,0.6c0.1,0.1,0.3,0.2,0.5,0.2
		c0.3,0,0.4-0.1,0.5-0.2s0.1-0.3,0.2-0.5s0.1-0.3,0-0.4S218.4,39.6,218.3,39.4z M217.6,19.6l-0.4,0.1v0.4l0.4,0.1l0.3-0.3
		L217.6,19.6z M217.9,37l-0.3-0.2l-0.4,0.2l0.1,0.4l0.4-0.1L217.9,37z M222.8,27.7c-0.7-0.5-1.3-0.8-1.7-0.8s-1,0.2-1.7,0.7
		s-1.2,1-1.4,1.5c-0.2,0.4-0.1,1.1,0.2,1.9c0.3,0.9,0.6,1.4,1,1.7c0.4,0.2,1.1,0.4,2,0.4c1,0,1.7-0.1,2.1-0.3
		c0.5-0.2,0.8-0.8,1.1-1.7s0.3-1.5,0-1.9C224.1,28.8,223.5,28.2,222.8,27.7z M221.7,17.8c-0.5-0.3-0.8-0.4-1.1-0.4s-0.6,0.1-1,0.5
		s-0.7,0.7-0.7,0.9c-0.1,0.3,0,0.7,0.2,1.2s0.4,0.7,0.7,0.8s0.7,0.1,1.2,0c0.6-0.1,1-0.1,1.3-0.2c0.3-0.1,0.5-0.4,0.6-0.9
		c0.1-0.6,0.1-0.9-0.2-1.2C222.5,18.4,222.2,18.1,221.7,17.8z M221.1,22.5c-0.3-0.2-0.5-0.3-0.7-0.3s-0.4,0.1-0.7,0.3
		c-0.3,0.1-0.4,0.3-0.4,0.5s0,0.4,0.1,0.7s0.1,0.5,0.2,0.7c0.1,0.1,0.3,0.2,0.6,0.3c0.4,0,0.6,0,0.7-0.1s0.3-0.3,0.4-0.6
		s0.2-0.6,0.1-0.7C221.3,23.2,221.3,22.7,221.1,22.5z M223.5,34.3c-0.4-0.2-0.7-0.3-0.9-0.2s-0.5,0.3-0.8,0.6s-0.5,0.6-0.6,0.8
		s0,0.5,0.2,0.9s0.4,0.5,0.6,0.5s0.5-0.1,0.9-0.2c0.3-0.1,0.5-0.1,0.7-0.2c0.1-0.1,0.2-0.3,0.3-0.6c0.1-0.4,0.1-0.7,0.1-1
		C224.1,34.6,223.9,34.4,223.5,34.3z M224.9,40.2c-0.2-0.5-0.4-0.8-0.6-1s-0.5-0.3-1-0.2c-0.6,0.1-1,0.2-1.2,0.4s-0.4,0.5-0.5,1.1
		c-0.1,0.5,0,0.8,0.3,0.9s0.6,0.3,1.1,0.5c0.4,0.2,0.6,0.3,0.9,0.3c0.2,0,0.5-0.1,0.8-0.4s0.5-0.5,0.5-0.8
		C225.1,40.9,225,40.6,224.9,40.2z M223.1,13.6c-0.3-0.1-0.5-0.1-0.7-0.1c-0.2,0.1-0.3,0.2-0.5,0.4s-0.2,0.4-0.1,0.5
		s0.2,0.3,0.3,0.5c0.2,0.3,0.4,0.5,0.7,0.4c0.2-0.1,0.4-0.1,0.5-0.2c0.1-0.1,0.2-0.2,0.2-0.4c0-0.3,0-0.5,0-0.6
		C223.5,13.9,223.3,13.8,223.1,13.6z"/>
</g>
<path class="st0" d="M96.5,79.6c-2.1,0-4-0.3-5.7-0.9c-1.7-0.6-3-1.5-3.9-2.9c-1-1.4-1.4-3.3-1.4-5.7v-5.7H82
	c-0.3,0-0.6-0.1-0.8-0.4c-0.2-0.2-0.4-0.5-0.4-0.8V58c0-0.3,0.1-0.6,0.4-0.8c0.2-0.2,0.5-0.4,0.8-0.4h3.5v-7.2
	c0-0.3,0.1-0.6,0.4-0.8c0.2-0.2,0.5-0.4,0.8-0.4h7.7c0.3,0,0.6,0.1,0.8,0.4c0.2,0.2,0.4,0.5,0.4,0.8v7.2h5.5c0.3,0,0.6,0.1,0.8,0.4
	c0.2,0.2,0.4,0.5,0.4,0.8v5.3c0,0.3-0.1,0.6-0.4,0.8c-0.2,0.2-0.5,0.4-0.8,0.4h-5.5v4.8c0,0.7,0.2,1.2,0.5,1.6
	c0.3,0.4,0.8,0.6,1.4,0.6h4c0.3,0,0.6,0.1,0.8,0.4c0.2,0.2,0.4,0.5,0.4,0.8v5.8c0,0.3-0.1,0.6-0.4,0.8c-0.2,0.2-0.5,0.4-0.8,0.4
	L96.5,79.6L96.5,79.6z M84.8,59.1c0-0.2-0.1-0.3-0.2-0.4c-0.1,0-0.3-0.1-0.5-0.1s-0.4,0-0.5,0s-0.2,0.1-0.3,0.4
	c-0.1,0.2-0.1,0.4-0.1,0.5s0.1,0.3,0.3,0.4c0.2,0.2,0.4,0.3,0.5,0.3s0.3,0,0.6-0.2c0.2-0.1,0.3-0.3,0.3-0.4
	C84.9,59.5,84.8,59.3,84.8,59.1z M84.4,62.6L84,62.4l-0.1,0.5l0.2,0.3l0.4-0.1L84.4,62.6z M86.2,60.8c-0.1,0-0.2-0.1-0.3-0.1
	s-0.2,0-0.3,0.2c-0.2,0.3-0.2,0.5,0,0.7c0.1,0.1,0.2,0.2,0.3,0.2s0.2-0.1,0.4-0.1c0.2-0.1,0.3-0.2,0.3-0.5
	C86.5,60.9,86.4,60.8,86.2,60.8z M90.5,56.2c-0.7-0.4-1.3-0.6-1.7-0.8c-0.4-0.2-0.9,0-1.5,0.6c-0.6,0.6-0.7,1-0.6,1.5
	c0.2,0.4,0.5,1,0.9,1.7c0.4,0.7,0.7,1.2,0.9,1.4c0.2,0.2,0.8,0.4,1.5,0.2c0.7-0.1,1.2-0.4,1.4-0.7c0.2-0.4,0.4-0.9,0.4-1.6
	c0.1-0.7,0.1-1.2-0.2-1.4S91.1,56.5,90.5,56.2z M88.4,66.4c-0.1-0.2-0.1-0.4-0.2-0.5c-0.1-0.1-0.2-0.1-0.5-0.1
	c-0.4,0-0.7,0.2-0.8,0.6c-0.1,0.2-0.1,0.4,0,0.5s0.2,0.2,0.4,0.4c0.3,0.2,0.6,0.2,1,0C88.4,67,88.5,66.7,88.4,66.4z M87.6,72.1h-0.4
	L87,72.5l0.6-0.1V72.1L87.6,72.1z M89.8,63.9c0-0.2-0.1-0.4-0.2-0.4c-0.1-0.1-0.3-0.1-0.5-0.1c-0.3,0-0.5-0.1-0.7-0.1
	c-0.2-0.1-0.3,0-0.5,0.3c-0.1,0.3-0.2,0.5-0.1,0.6c0.1,0.1,0.3,0.3,0.5,0.6c0.2,0.2,0.3,0.2,0.5,0.2c0.1,0,0.3-0.1,0.5-0.2
	c0.2-0.1,0.4-0.2,0.4-0.3S89.8,64.1,89.8,63.9z M89,53.5c-0.1-0.2-0.2-0.4-0.5-0.4c-0.1,0-0.3,0-0.4,0s-0.2,0.1-0.3,0.2
	c-0.1,0.3-0.1,0.5,0.1,0.7c0.1,0.1,0.2,0.2,0.3,0.1s0.2-0.1,0.4-0.2C88.9,53.8,89,53.7,89,53.5z M89.9,51.3l-0.4-0.4L89,51l0.2,0.5
	l0.4,0.3L89.9,51.3z M93.2,69.9c-0.7-0.3-1.2-0.4-1.5-0.1c-0.3,0.2-0.8,0.7-1.3,1.3c-0.5,0.5-0.8,1-0.9,1.3c-0.1,0.4,0,0.8,0.3,1.4
	c0.4,0.7,0.8,1.2,1.1,1.5c0.4,0.3,0.9,0.3,1.7,0.2s1.3-0.4,1.5-0.8s0.3-1,0.4-1.8c0.1-0.8,0.1-1.4-0.1-1.8
	C94.2,70.7,94,70.2,93.2,69.9z M92.7,49.7c-0.3-0.2-0.5-0.2-0.6-0.2c-0.2,0.1-0.3,0.2-0.6,0.4c-0.2,0.2-0.4,0.4-0.5,0.5
	c-0.1,0.1-0.1,0.4,0.1,0.7c0.1,0.3,0.2,0.5,0.4,0.5c0.1,0.1,0.4,0.1,0.7,0c0.3,0,0.5-0.1,0.6-0.2s0.2-0.3,0.2-0.6
	c0.1-0.3,0.1-0.5,0.1-0.7C93.1,50,93,49.8,92.7,49.7z M92.6,66.6c-0.2-0.1-0.3-0.2-0.4-0.1c-0.1,0-0.3,0.1-0.4,0.2
	c-0.2,0.1-0.3,0.2-0.3,0.3c0,0.1,0,0.2,0,0.4c0.1,0.3,0.2,0.5,0.2,0.6c0.1,0.1,0.2,0.2,0.5,0.2s0.5-0.1,0.5-0.2
	c0.1-0.1,0.2-0.3,0.2-0.6c0.1-0.2,0.1-0.4,0-0.5C92.9,66.9,92.8,66.7,92.6,66.6z M92.4,62.9l-0.5-0.2l-0.3,0.4l0.3,0.3h0.4
	L92.4,62.9z M92.6,52.7l-0.1-0.4l-0.3,0.2l-0.1,0.4h0.4L92.6,52.7z M95.6,61.5c0-0.3-0.2-0.5-0.6-0.6c-0.3-0.1-0.5-0.1-0.6-0.2
	c-0.2-0.1-0.3,0-0.5,0.3s-0.2,0.5-0.2,0.7s0.1,0.4,0.4,0.6c0.2,0.2,0.4,0.4,0.5,0.4c0.2,0,0.4-0.1,0.7-0.2c0.2-0.1,0.3-0.2,0.3-0.4
	C95.7,61.9,95.6,61.7,95.6,61.5z M95.1,76.7c0-0.2-0.1-0.3-0.2-0.3c-0.1,0-0.2-0.1-0.4-0.1c-0.2-0.1-0.4,0-0.5,0.3
	c-0.2,0.3-0.2,0.5,0,0.7c0.1,0.1,0.2,0.2,0.3,0.1c0.1,0,0.2-0.1,0.4-0.2c0.1-0.1,0.3-0.1,0.4-0.1C95.1,77,95.1,76.9,95.1,76.7z
	 M98.7,74.5c-0.1-0.3-0.2-0.5-0.4-0.6c-0.1-0.1-0.4-0.1-0.7-0.1s-0.5,0.1-0.6,0.3c-0.1,0.1-0.2,0.4-0.2,0.7
	c-0.1,0.4-0.2,0.6-0.2,0.9c-0.1,0.2,0.1,0.4,0.4,0.6s0.6,0.3,0.8,0.2c0.2-0.1,0.5-0.3,0.7-0.5s0.4-0.4,0.4-0.6
	C98.9,75,98.8,74.8,98.7,74.5z M98.3,61.3l-0.4,0.1l0.1,0.4l0.4,0.1l0.1-0.4L98.3,61.3z M99.1,77.9L98.7,78l0.1,0.5h0.4l0.3-0.3
	L99.1,77.9z M100.3,73.4l-0.3-0.3l-0.3,0.3v0.4h0.5L100.3,73.4z"/>
<path class="st0" d="M107,79.6c-0.3,0-0.6-0.1-0.8-0.4c-0.2-0.2-0.4-0.5-0.4-0.8V49.6c0-0.3,0.1-0.6,0.4-0.8
	c0.2-0.2,0.5-0.4,0.8-0.4h8.6c0.3,0,0.6,0.1,0.8,0.4c0.2,0.2,0.4,0.5,0.4,0.8v9.5c0.8-0.9,1.7-1.5,2.9-2s2.4-0.7,3.8-0.7
	c1.5,0,2.9,0.4,4.2,1.1s2.4,1.8,3.3,3.3c0.9,1.5,1.3,3.4,1.3,5.7v12.1c0,0.3-0.1,0.6-0.4,0.8c-0.2,0.2-0.5,0.4-0.8,0.4h-8.6
	c-0.3,0-0.6-0.1-0.8-0.4c-0.2-0.2-0.4-0.5-0.4-0.8v-12c0-1.6-0.7-2.4-2.2-2.4s-2.2,0.8-2.2,2.4v11.8c0,0.3-0.1,0.6-0.4,0.8
	c-0.2,0.2-0.5,0.4-0.8,0.4C115.7,79.6,107,79.6,107,79.6z M108.3,71.4c-0.1-0.2-0.2-0.3-0.2-0.4c-0.1-0.1-0.2-0.1-0.4-0.1
	c-0.3,0.1-0.5,0.1-0.6,0.1c-0.2,0-0.3,0.2-0.3,0.4c0,0.3,0,0.4,0.2,0.5c0.1,0.1,0.4,0.2,0.6,0.3c0.2,0.1,0.4,0.3,0.6,0.3
	c0.1,0.1,0.3,0,0.5-0.2s0.2-0.4,0.1-0.5C108.6,71.8,108.5,71.7,108.3,71.4z M107.7,61.8l-0.5-0.4l-0.4,0.4l0.1,0.4h0.4L107.7,61.8z
	 M109.7,74.7c-0.5-0.2-0.9-0.2-1.1,0c-0.2,0.2-0.5,0.5-0.9,1c-0.4,0.5-0.6,0.8-0.7,1.1c-0.1,0.3-0.1,0.7,0.2,1.1
	c0.3,0.5,0.6,0.7,0.9,0.7s0.7-0.1,1.3-0.2c0.5-0.1,0.8-0.3,0.9-0.5c0.1-0.2,0.2-0.6,0.2-1.1c0-0.6,0-1,0-1.3
	C110.5,75.1,110.3,74.8,109.7,74.7z M107.7,69.3l-0.4-0.3l-0.3,0.4v0.4l0.5,0.1L107.7,69.3z M107.6,56.2l-0.3,0.1l-0.1,0.3l0.4,0.2
	l0.2-0.4L107.6,56.2z M109,60.1c-0.1-0.2-0.2-0.4-0.3-0.5c-0.1-0.1-0.2-0.2-0.4-0.1c-0.4,0.1-0.7,0.4-0.7,0.8c0,0.3,0,0.4,0.1,0.5
	s0.3,0.1,0.5,0.3c0.1,0.1,0.3,0.1,0.4,0c0.1,0,0.2-0.1,0.3-0.3C109,60.5,109.1,60.3,109,60.1z M110.4,56c-0.2-0.1-0.4-0.2-0.5-0.1
	s-0.3,0.2-0.6,0.4c-0.2,0.1-0.3,0.3-0.4,0.4s-0.1,0.3,0,0.5c0.1,0.3,0.2,0.5,0.3,0.7c0.1,0.2,0.3,0.2,0.6,0.2c0.3,0,0.5-0.1,0.6-0.3
	c0.1-0.2,0.2-0.4,0.2-0.7c0.1-0.3,0.1-0.5,0.1-0.6C110.8,56.4,110.7,56.2,110.4,56z M113.3,68c-0.4-0.3-0.7-0.4-0.9-0.4
	s-0.6,0.2-0.9,0.4c-0.4,0.2-0.6,0.4-0.6,0.6c-0.1,0.2-0.1,0.5,0,0.9c0.1,0.5,0.2,0.8,0.3,1.1c0.1,0.2,0.4,0.4,0.9,0.5
	c0.5,0,0.8-0.1,1-0.3c0.1-0.2,0.3-0.6,0.5-1s0.3-0.8,0.3-1C113.9,68.6,113.7,68.4,113.3,68z M114,62.4c-0.3-0.4-0.6-0.6-0.8-0.5
	c-0.3,0.1-0.6,0.2-1.1,0.3c-0.4,0.1-0.6,0.3-0.8,0.4s-0.2,0.4-0.2,0.8s0.1,0.7,0.2,0.9c0.1,0.2,0.3,0.3,0.7,0.5
	c0.4,0.1,0.7,0.2,1,0.2c0.2,0,0.5-0.2,0.7-0.5c0.3-0.4,0.5-0.7,0.6-1C114.3,63.1,114.2,62.8,114,62.4z M112.6,52.7
	c-0.1-0.3-0.2-0.5-0.5-0.5c-0.2,0-0.4,0.1-0.5,0.4s-0.1,0.5,0.1,0.7c0.1,0.1,0.2,0.1,0.3,0s0.2-0.1,0.3-0.2s0.2-0.1,0.3-0.2
	C112.6,52.9,112.6,52.8,112.6,52.7z M112.7,56.5l-0.2-0.4l-0.4,0.3l0.2,0.3l0.3,0.2L112.7,56.5z M114.9,73.4
	c-0.2-0.2-0.4-0.3-0.6-0.3s-0.4,0.1-0.7,0.3c-0.3,0.2-0.5,0.3-0.6,0.5c-0.1,0.1-0.2,0.4-0.1,0.7c0.1,0.4,0.2,0.7,0.3,1
	c0.1,0.2,0.4,0.4,0.8,0.4s0.7-0.1,0.7-0.3c0.1-0.2,0.2-0.6,0.4-1c0.1-0.3,0.2-0.5,0.2-0.7C115.3,73.9,115.1,73.7,114.9,73.4z
	 M114.6,51.3c-0.3-0.1-0.5-0.2-0.6-0.2c-0.2,0-0.3,0.2-0.5,0.4c-0.2,0.2-0.3,0.4-0.4,0.5c0,0.1,0,0.4,0.2,0.6
	c0.1,0.3,0.2,0.4,0.4,0.4c0.1,0,0.4,0,0.6,0c0.2-0.1,0.4-0.1,0.5-0.2s0.2-0.2,0.3-0.5c0-0.3,0-0.5,0-0.7
	C115,51.6,114.9,51.4,114.6,51.3z M115.1,57.6l-0.4-0.2l-0.3,0.4l0.2,0.3L115,58L115.1,57.6z M115.6,64.2l-0.4-0.1v0.4h0.4l0.2-0.2
	L115.6,64.2z M118.7,60.8c-0.2,0-0.3,0-0.4,0.1s-0.1,0.2-0.3,0.4c-0.1,0.1-0.1,0.2,0,0.3c0,0.1,0.1,0.1,0.2,0.3
	c0.1,0.1,0.2,0.3,0.3,0.4s0.2,0.1,0.4,0s0.2-0.2,0.2-0.3s-0.1-0.3-0.1-0.5s-0.1-0.3-0.1-0.5C118.9,60.9,118.9,60.8,118.7,60.8z
	 M124.4,64.6c0-0.3-0.1-0.5-0.2-0.6c-0.1-0.1-0.3-0.2-0.6-0.2c-0.2-0.1-0.4-0.1-0.5,0s-0.2,0.2-0.4,0.5c-0.2,0.4-0.2,0.7,0,1
	c0.3,0.3,0.6,0.4,1,0.3c0.3-0.1,0.5-0.2,0.6-0.3C124.4,65,124.4,64.8,124.4,64.6z M123.8,60.1l-0.6,0.1l-0.2,0.4l0.3,0.4l0.5-0.3
	V60.1L123.8,60.1z M124.9,70.8l-0.2-0.4l-0.4,0.2v0.5h0.4L124.9,70.8z M125.1,67.6l-0.4,0.3l-0.1,0.6l0.6-0.1l0.4-0.4L125.1,67.6z
	 M125.8,74.4h-0.4l-0.2,0.4l0.3,0.4l0.3-0.3L125.8,74.4z M125.9,77.1h-0.5v0.5l0.4,0.1l0.2-0.4L125.9,77.1z M127.7,60.3
	c-0.3-0.3-0.5-0.4-0.7-0.5s-0.5,0-0.8,0.2c-0.4,0.2-0.6,0.4-0.6,0.6c-0.1,0.2-0.1,0.5,0,0.9c0.1,0.5,0.2,0.9,0.3,1.2
	c0.1,0.3,0.4,0.5,0.9,0.5s0.9-0.1,1-0.4s0.3-0.6,0.5-1.1c0.2-0.4,0.2-0.7,0.1-0.9C128.2,60.8,128,60.6,127.7,60.3z M130.1,66.7
	c-0.5-0.3-0.9-0.3-1.1,0s-0.6,0.6-1,1c-0.5,0.4-0.9,0.7-1.2,0.9c-0.3,0.2-0.4,0.6-0.2,1.1c0.3,0.6,0.6,0.9,0.9,1
	c0.4,0.1,0.9,0.1,1.5,0c0.6-0.1,1-0.2,1.2-0.4c0.2-0.2,0.4-0.6,0.6-1.1c0.1-0.6,0.2-1.1,0.2-1.5S130.6,67,130.1,66.7z M128.5,76.7
	c-0.2-0.3-0.5-0.4-0.9-0.3c-0.2,0-0.3,0.1-0.3,0.2s0,0.3,0,0.5s0,0.4-0.1,0.6c0,0.1,0,0.3,0.2,0.4s0.4,0.1,0.5,0s0.2-0.3,0.4-0.5
	c0.1-0.2,0.2-0.3,0.2-0.4C128.6,77.1,128.6,76.9,128.5,76.7z M128.2,64.7l-0.4-0.1l-0.2,0.4l0.2,0.4l0.4-0.3V64.7z M129.8,73.1
	c-0.2-0.1-0.3-0.2-0.4-0.2c-0.1,0-0.3,0.1-0.5,0.3c-0.2,0.1-0.4,0.3-0.5,0.4c-0.1,0.1-0.2,0.2-0.1,0.5s0.2,0.4,0.3,0.5
	c0.1,0,0.4,0.1,0.6,0.1c0.3,0,0.5,0,0.6-0.1s0.2-0.2,0.3-0.4C130.3,73.7,130.2,73.4,129.8,73.1z"/>
<path class="st0" d="M147.8,80.1c-3.8,0-6.9-0.9-9.2-2.8s-3.4-4.9-3.4-9V68c0.1-3.8,1.2-6.7,3.5-8.6c2.3-2,5.3-3,9-3
	c2.9,0,5.2,0.5,7.1,1.6c1.8,1.1,3.2,2.6,4.1,4.4c0.9,1.8,1.3,3.8,1.3,6v1.3c0,0.3-0.1,0.6-0.4,0.8c-0.2,0.2-0.5,0.4-0.8,0.4h-13.1
	V71c0,0.9,0.1,1.5,0.4,2c0.2,0.5,0.7,0.7,1.3,0.7c0.3,0,0.5-0.1,0.7-0.2s0.4-0.3,0.6-0.6c0.3-0.3,0.5-0.4,0.7-0.5
	c0.2-0.1,0.4-0.1,0.8-0.1h8.3c0.3,0,0.5,0.1,0.7,0.3c0.2,0.2,0.3,0.4,0.2,0.7c0,0.6-0.3,1.2-0.8,2s-1.2,1.5-2.2,2.3
	c-1,0.7-2.2,1.3-3.7,1.8C151.5,79.8,149.8,80.1,147.8,80.1z M139.4,68.8c-0.4-0.1-0.6-0.1-0.8,0c-0.2,0.1-0.3,0.3-0.5,0.6
	c-0.1,0.3-0.2,0.5-0.1,0.6s0.2,0.3,0.4,0.6c0.1,0.2,0.3,0.3,0.4,0.4s0.3,0,0.5-0.1c0.4-0.1,0.6-0.4,0.6-0.8c0-0.3,0-0.6,0-0.8
	C139.9,69.1,139.7,68.9,139.4,68.8z M139.6,62.5c-0.2-0.1-0.3-0.1-0.4,0s-0.2,0.2-0.3,0.3c-0.2,0.2-0.3,0.3-0.5,0.4
	c-0.1,0.1-0.1,0.3,0,0.5s0.3,0.3,0.4,0.2c0.1-0.1,0.4-0.1,0.6-0.2c0.3-0.1,0.4-0.2,0.4-0.5c0-0.2,0-0.3,0-0.4
	C139.9,62.7,139.8,62.6,139.6,62.5z M141.2,66.7c-0.1-0.2-0.3-0.3-0.4-0.3c-0.1,0-0.3,0-0.6,0.1s-0.4,0.2-0.5,0.3s-0.1,0.3-0.1,0.6
	c0,0.3,0,0.6,0.1,0.7c0,0.2,0.2,0.3,0.5,0.4s0.6,0.1,0.7,0s0.3-0.3,0.5-0.6c0.2-0.2,0.2-0.4,0.2-0.6
	C141.5,67.1,141.4,66.9,141.2,66.7z M140.9,72.5c0-0.2,0-0.4,0-0.5s-0.1-0.2-0.2-0.2c-0.2-0.1-0.3-0.1-0.4,0s-0.2,0.2-0.3,0.4
	c-0.1,0.1-0.1,0.2-0.1,0.3s0.1,0.2,0.2,0.3c0.1,0.1,0.2,0.3,0.3,0.4s0.2,0.1,0.4,0.1c0.2-0.1,0.2-0.1,0.2-0.3
	C140.9,72.8,140.9,72.6,140.9,72.5z M141.4,59.8c-0.3,0-0.4,0.1-0.5,0.2c-0.1,0.1-0.1,0.3-0.2,0.6c-0.1,0.1-0.1,0.3,0,0.4
	c0.1,0.1,0.2,0.2,0.3,0.3c0.1,0.1,0.3,0.3,0.4,0.4s0.2,0.1,0.4,0c0.2-0.1,0.3-0.3,0.4-0.4s0-0.3,0-0.6c-0.1-0.3-0.1-0.5-0.2-0.6
	C141.9,59.9,141.7,59.8,141.4,59.8z M143.1,63c-0.4-0.2-0.6-0.2-0.8-0.2c-0.2,0-0.4,0.2-0.6,0.4c-0.3,0.3-0.4,0.5-0.4,0.7
	c0,0.2,0.1,0.4,0.3,0.8c0.1,0.3,0.3,0.4,0.5,0.4c0.2,0,0.4-0.1,0.8-0.2c0.3-0.1,0.5-0.1,0.7-0.2c0.2-0.1,0.3-0.2,0.3-0.5
	c0-0.4,0-0.6-0.1-0.8C143.6,63.3,143.4,63.1,143.1,63z M143.9,72.4c-0.3-0.3-0.6-0.3-0.9-0.1c-0.2,0.1-0.4,0.3-0.5,0.4
	s-0.1,0.3-0.1,0.5c0.1,0.3,0.2,0.4,0.3,0.4s0.4,0.1,0.6,0.1s0.5,0.1,0.6,0.1c0.1,0,0.3-0.1,0.4-0.3c0.1-0.2,0.1-0.4,0-0.5
	C144.2,72.8,144.1,72.6,143.9,72.4z M143.3,76.1c-0.2,0-0.3,0-0.4,0.1c-0.1,0.1-0.2,0.2-0.2,0.4c-0.1,0.2-0.2,0.3-0.2,0.4
	s0,0.2,0.2,0.4c0.2,0.2,0.4,0.3,0.5,0.4c0.1,0.1,0.3,0.1,0.5-0.1c0.2-0.1,0.3-0.2,0.2-0.4c-0.1-0.2-0.1-0.3-0.1-0.6
	c0-0.2-0.1-0.3-0.1-0.4C143.6,76.2,143.5,76.2,143.3,76.1z M143.4,67.1c-0.2,0-0.4,0-0.4,0.1c-0.1,0.1-0.1,0.3-0.3,0.5
	c-0.1,0.2-0.2,0.4-0.2,0.5c-0.1,0.1,0,0.3,0.2,0.4c0.2,0.2,0.4,0.3,0.5,0.3s0.4-0.1,0.6-0.2c0.2-0.1,0.4-0.3,0.5-0.4
	c0.1-0.1,0.1-0.3,0-0.6c-0.1-0.3-0.2-0.5-0.3-0.6C143.9,67.2,143.7,67.1,143.4,67.1z M144.9,75.2l-0.4-0.3l-0.3,0.4l0.3,0.3h0.4
	V75.2z M146,65.3h1.3c0-0.1-0.1-0.1-0.1-0.2c-0.1-0.5-0.2-1-0.3-1.4c-0.1-0.4,0-0.7,0-1.1c0.2-0.1,0.5-0.2,0.8-0.2
	c1.2,0,1.8,0.9,1.8,2.8h-2.2c0.2,0.8,0.4,1.6,0.5,2.2c0.1,0.6,0.3,1.2,0.7,1.5c0.3,0.4,0.9,0.6,1.8,0.6c1.1,0,2-0.1,2.6-0.2
	c0.7-0.2,1.2-0.6,1.6-1.1c0.4-0.5,0.8-1.3,1.1-2.4c0.3-0.9,0.3-1.5,0.1-2c-0.2-0.5-0.7-0.9-1.3-1.2c-0.6-0.4-1.3-0.8-2-1.4
	c-0.9-0.6-1.5-1-2.1-1s-1.3,0.2-2.1,0.8c-0.7,0.5-1.2,1-1.3,1.5C146.3,63,146,63.9,146,65.3z M150.2,75.6c0-0.4-0.1-0.6-0.1-0.8
	c0-0.2-0.2-0.4-0.5-0.4c-0.4-0.1-0.8-0.2-1-0.2c-0.2,0-0.5,0.2-0.7,0.6c-0.2,0.4-0.3,0.6-0.1,0.8c0.2,0.2,0.4,0.4,0.6,0.7
	c0.2,0.3,0.4,0.4,0.6,0.5s0.4,0,0.7-0.1s0.5-0.3,0.5-0.4C150.2,76.1,150.3,75.9,150.2,75.6z M152.2,73.6c-0.1-0.1-0.1-0.2-0.2-0.3
	c-0.1,0-0.2,0-0.3,0c-0.3,0-0.4,0.1-0.5,0.3c-0.1,0.2,0,0.4,0.1,0.6c0.1,0.1,0.3,0.2,0.3,0.2s0.2,0,0.3,0c0.1-0.1,0.2-0.2,0.2-0.3
	C152.2,73.9,152.2,73.8,152.2,73.6z M155.3,75.3c-0.1-0.4-0.3-0.6-0.4-0.8c-0.1-0.2-0.4-0.3-0.8-0.2c-0.5,0.1-0.8,0.1-1.1,0.3
	c-0.2,0.1-0.4,0.4-0.5,0.9c-0.1,0.4,0,0.7,0.2,0.9c0.2,0.2,0.5,0.4,0.9,0.6c0.4,0.2,0.7,0.4,0.9,0.5s0.5,0,0.9-0.4
	c0.4-0.3,0.4-0.6,0.3-0.8C155.6,76,155.5,75.7,155.3,75.3z"/>
<path class="st1" d="M172.7,79.6c-0.3,0-0.6-0.1-0.8-0.4c-0.2-0.2-0.4-0.5-0.4-0.8V58c0-0.3,0.1-0.6,0.4-0.8
	c0.2-0.2,0.5-0.4,0.8-0.4h7.3c0.3,0,0.6,0.1,0.8,0.4c0.2,0.2,0.4,0.5,0.4,0.8v1.5c0.5-0.7,1.3-1.3,2.4-2s2.3-1,3.8-1.1
	c3.5-0.1,5.8,1.1,7,3.6c0.7-1,1.6-1.9,2.9-2.6c1.2-0.7,2.5-1,3.9-1c1.5,0,2.9,0.3,4.1,1s2.2,1.7,2.9,3.2c0.7,1.4,1.1,3.3,1.1,5.6
	v12.3c0,0.3-0.1,0.6-0.4,0.8c-0.2,0.2-0.5,0.4-0.8,0.4h-7.7c-0.3,0-0.6-0.1-0.8-0.4c-0.2-0.2-0.4-0.5-0.4-0.8V66.4
	c0-1.4-0.6-2.2-1.8-2.2c-1.1,0-1.7,0.7-1.7,2.2v12.1c0,0.3-0.1,0.6-0.4,0.8c-0.2,0.2-0.5,0.4-0.8,0.4h-7.7c-0.3,0-0.6-0.1-0.8-0.4
	c-0.2-0.2-0.4-0.5-0.4-0.8V66.4c0-1.4-0.6-2.2-1.8-2.2s-1.8,0.7-1.8,2.2v12.1c0,0.3-0.1,0.6-0.4,0.8c-0.2,0.2-0.5,0.4-0.8,0.4
	L172.7,79.6L172.7,79.6L172.7,79.6z M174.2,63.2c-0.1-0.2-0.3-0.2-0.4-0.2c-0.2,0.1-0.3,0.2-0.3,0.4c0,0.1,0,0.3,0,0.4
	s0.1,0.2,0.2,0.2c0.1,0.1,0.3,0.1,0.4,0.1s0.2-0.1,0.3-0.2s0.1-0.2,0.1-0.3S174.2,63.3,174.2,63.2z M176.1,76.4
	c-0.1-0.3-0.2-0.5-0.5-0.4c-0.2,0-0.5,0-0.9,0c-0.3,0-0.5,0-0.6,0.1s-0.2,0.2-0.3,0.4c-0.1,0.3-0.1,0.5,0,0.6s0.2,0.3,0.4,0.4
	c0.3,0.2,0.5,0.3,0.6,0.4s0.3,0,0.6-0.2s0.5-0.4,0.7-0.6C176.3,77,176.3,76.8,176.1,76.4z M174.7,65.3h-0.4v0.4l0.4,0.2l0.4-0.4
	L174.7,65.3z M179.3,72.7c0-0.4-0.1-0.7-0.2-0.9c-0.1-0.2-0.4-0.3-0.8-0.5c-0.4-0.1-0.7-0.1-0.9-0.1c-0.2,0.1-0.4,0.2-0.7,0.6
	c-0.2,0.3-0.3,0.6-0.2,0.8c0.1,0.2,0.3,0.4,0.5,0.8c0.2,0.3,0.4,0.5,0.6,0.6s0.4,0.1,0.8,0s0.6-0.3,0.8-0.4
	C179.2,73.4,179.3,73.1,179.3,72.7z M177.7,58.6H177l-0.3,0.6l0.5,0.2l0.6-0.1L177.7,58.6z M177.6,63.8l-0.4-0.1l-0.4,0.4l0.3,0.4
	l0.5-0.2L177.6,63.8L177.6,63.8z M178.4,60.1l-0.4,0.1l0.1,0.5h0.5l0.2-0.4L178.4,60.1z M179.7,75.7c-0.2-0.1-0.3-0.1-0.4,0
	s-0.2,0.2-0.3,0.4c-0.1,0.1-0.2,0.2-0.3,0.3s-0.1,0.2,0,0.4c0.1,0.2,0.2,0.3,0.3,0.4s0.2,0.1,0.5,0c0.2-0.1,0.3-0.1,0.2-0.3
	c0-0.1,0-0.3,0-0.5s0.1-0.4,0.1-0.5S179.8,75.7,179.7,75.7z M180.1,59.9l-0.5,0.2l0.2,0.5l0.6,0.2l0.2-0.7L180.1,59.9z M180,68.7
	l-0.4,0.1v0.3l0.3,0.2l0.2-0.3L180,68.7z M180.8,66.7l-0.3-0.3l-0.4,0.3l0.2,0.3h0.3L180.8,66.7z M182.8,61.4l-0.4-0.3l-0.4,0.4
	l0.2,0.4h0.4L182.8,61.4z M184.7,57.8l-0.4,0.2l0.1,0.5h0.6l0.2-0.5L184.7,57.8z M187.4,69.6c-0.2-0.1-0.3-0.2-0.4-0.1
	s-0.2,0.1-0.4,0.2s-0.2,0.4-0.1,0.7c0.1,0.2,0.1,0.3,0.2,0.4s0.2,0.1,0.4,0.1s0.3,0,0.3-0.1s0.1-0.2,0.2-0.4c0-0.2,0.1-0.3,0.1-0.4
	C187.7,69.8,187.6,69.7,187.4,69.6z M192.2,61.9c-0.2-0.9-0.4-1.5-0.7-1.8c-0.3-0.4-0.8-0.6-1.7-0.7s-1.4,0-1.7,0.4s-0.6,0.9-1,1.7
	c-0.3,0.6-0.4,1.2-0.3,1.5c0.1,0.4,0.4,0.8,0.9,1.3c0.6,0.6,1.2,1,1.6,1.3s1,0.2,1.7-0.2c0.8-0.4,1.2-0.9,1.3-1.4
	C192.4,63.4,192.3,62.7,192.2,61.9z M187.7,77.3l-0.4-0.4l-0.4,0.4l0.1,0.4h0.4L187.7,77.3z M189.5,73.8c-0.3-0.2-0.5-0.4-0.7-0.4
	s-0.4,0-0.8,0.2c-0.4,0.3-0.6,0.5-0.8,0.7s-0.2,0.5-0.1,0.9s0.3,0.6,0.6,0.6s0.6,0,1,0c0.3,0,0.6,0,0.7-0.1s0.3-0.3,0.4-0.6
	c0.1-0.3,0.2-0.6,0.2-0.7C190,74.3,189.7,74,189.5,73.8z M190.1,67.8c-0.2,0-0.4,0-0.5,0s-0.2,0.1-0.3,0.4s0,0.6,0.2,0.8
	c0.1,0.1,0.3,0.1,0.4,0.1c0.1-0.1,0.2-0.1,0.4-0.3c0.2-0.1,0.3-0.3,0.3-0.5c-0.1-0.2-0.1-0.3-0.2-0.4
	C190.4,67.8,190.3,67.8,190.1,67.8z M192.4,72.6c0-0.3-0.2-0.5-0.4-0.5s-0.4,0.1-0.5,0.3c-0.1,0.1-0.1,0.3-0.2,0.4
	c0,0.1,0,0.2,0.1,0.3c0.2,0.3,0.5,0.3,0.7,0.2s0.3-0.2,0.3-0.3C192.4,72.9,192.4,72.8,192.4,72.6z M193.3,67.2
	c-0.2-0.1-0.3-0.2-0.5-0.2c-0.1,0-0.3,0.1-0.5,0.2c-0.3,0.2-0.5,0.3-0.6,0.4s-0.2,0.3-0.1,0.6c0.1,0.3,0.2,0.4,0.4,0.4s0.4,0,0.8,0
	c0.3,0,0.5,0,0.6,0c0.2,0,0.3-0.2,0.4-0.4c0.1-0.2,0.1-0.5,0-0.6C193.7,67.5,193.6,67.4,193.3,67.2z M193.6,74.1
	c-0.2-0.2-0.4-0.3-0.7-0.2c-0.3,0.1-0.4,0.3-0.4,0.6c0,0.2,0.2,0.4,0.4,0.5c0.2,0,0.3,0,0.4,0s0.2-0.1,0.3-0.2
	C193.8,74.6,193.8,74.4,193.6,74.1z M198.2,59.5c-0.2-0.3-0.4-0.4-0.5-0.4c-0.2,0.1-0.4,0.1-0.8,0.2c-0.3,0.1-0.4,0.1-0.5,0.2
	s-0.1,0.3-0.2,0.5c0,0.3,0,0.5,0,0.6c0.1,0.2,0.2,0.3,0.5,0.4s0.6,0.2,0.8,0.2s0.4-0.1,0.6-0.4c0.3-0.3,0.4-0.5,0.4-0.7
	C198.5,60.1,198.4,59.9,198.2,59.5z M200.3,61.7H200v0.4l0.4,0.2L200.3,61.7z M201.6,60.1c-0.1-0.2-0.1-0.3-0.2-0.4
	c0-0.1-0.1-0.2-0.4-0.1c-0.2,0-0.3,0.1-0.3,0.2s-0.1,0.2-0.2,0.4c0,0.2-0.1,0.4-0.1,0.5s0.1,0.2,0.3,0.3c0.2,0.1,0.3,0.2,0.4,0.1
	s0.3-0.1,0.4-0.3c0.1-0.1,0.2-0.2,0.1-0.3C201.7,60.3,201.7,60.2,201.6,60.1z M201.4,66l-0.5-0.3l-0.4,0.2v0.4l0.5,0.2L201.4,66z
	 M202.6,63.1c-0.1-0.2-0.3-0.4-0.3-0.5c-0.1-0.1-0.2-0.2-0.5-0.1s-0.4,0.2-0.4,0.3c0,0.2-0.1,0.4-0.1,0.6c0,0.3,0,0.5,0,0.6
	c0,0.1,0.2,0.3,0.4,0.4c0.3,0.1,0.5,0.1,0.6,0.1s0.3-0.2,0.5-0.4c0.1-0.2,0.2-0.4,0.2-0.5C202.8,63.5,202.7,63.4,202.6,63.1z
	 M207,68.7c-0.2-0.7-0.5-1.1-0.9-1.2s-1-0.1-1.7-0.1c-0.6,0-1.1,0.1-1.4,0.2s-0.6,0.5-0.8,1.1c-0.3,0.7-0.4,1.3-0.5,1.8
	c-0.1,0.4,0.2,0.9,0.8,1.4c0.8,0.6,1.4,1,1.9,1.2s1.2,0,2-0.5c0.8-0.6,1.2-1.1,1.1-1.6C207.5,70.4,207.3,69.7,207,68.7z M202.4,58.4
	l-0.4-0.1l-0.3,0.2l0.2,0.4l0.4-0.1L202.4,58.4z M204.7,74l-0.5,0.3l-0.3,0.4l0.4,0.1l0.5-0.1L204.7,74z M206.5,76.7
	c-0.2-0.3-0.5-0.3-0.8-0.2c-0.2,0.1-0.3,0.1-0.3,0.2s0,0.2,0,0.4c0,0.3,0.1,0.5,0.3,0.5s0.4,0.1,0.5,0.1s0.2-0.1,0.3-0.2
	C206.7,77.3,206.7,77,206.5,76.7z M207.1,62.2h-0.5v0.6l0.6,0.2l0.4-0.5L207.1,62.2z"/>
<path class="st1" d="M225.3,65.9c-8.9,0-13.6-3.6-14.1-10.8c-0.1-1.5-0.1-3.1,0-4.5c0.2-3.5,1.7-6.3,4.1-8.1c2.4-1.9,5.8-2.8,10-2.8
	s7.5,0.9,10,2.8c2.4,1.9,3.9,4.5,4.1,8.1c0.1,1.5,0.1,3.1,0,4.5C239,62.3,234.2,65.9,225.3,65.9z M214.7,55.9
	c-0.2-0.1-0.4-0.2-0.6-0.2s-0.3,0.1-0.6,0.3c-0.3,0.2-0.4,0.6-0.3,1c0.1,0.3,0.2,0.6,0.3,0.7s0.3,0.2,0.6,0.2c0.2,0,0.4-0.1,0.4-0.2
	c0-0.2,0.1-0.4,0.1-0.7c0.1-0.2,0.2-0.4,0.2-0.6C214.9,56.2,214.9,56,214.7,55.9z M216.7,49.2c-0.3-0.7-0.7-1.1-0.9-1.4
	s-0.7-0.4-1.3-0.3c-0.7,0.1-1,0.4-1,0.9s0,1-0.1,1.7s-0.1,1.1-0.1,1.4s0.2,0.7,0.8,1c0.7,0.3,1.2,0.4,1.7,0.4s0.9-0.3,1.3-0.9
	s0.6-1,0.3-1.3C217.1,50.3,217.1,49.7,216.7,49.2z M215.9,60.3c-0.2-0.3-0.6-0.6-1-0.4c-0.2,0.1-0.3,0.1-0.4,0.3
	c0,0.1-0.1,0.3-0.1,0.6s0,0.4,0,0.6s0.1,0.2,0.3,0.3c0.2,0.1,0.4,0.1,0.4,0s0.2-0.2,0.4-0.4c0.1-0.2,0.3-0.3,0.3-0.4
	C216.1,60.6,216.1,60.5,215.9,60.3z M216.7,56.7l-0.4-0.3l-0.4,0.4l0.4,0.4h0.4V56.7z M219,61c-0.2-0.1-0.3-0.1-0.4-0.1
	s-0.2,0.1-0.4,0.2c-0.1,0.1-0.2,0.3-0.3,0.4s-0.1,0.2,0,0.4c0.1,0.2,0.2,0.3,0.3,0.3s0.3,0.1,0.6,0c0.2,0,0.3-0.1,0.4-0.2
	s0.1-0.2,0.2-0.4c0-0.2,0.1-0.4,0.1-0.6C219.3,61.2,219.2,61.1,219,61z M219.2,47.8l-0.6-0.1l-0.2,0.4l0.4,0.2l0.2-0.2L219.2,47.8z
	 M219.3,54.6l-0.4-0.1l-0.1,0.4l0.4,0.3l0.4-0.3L219.3,54.6z M219.5,52c-0.2,0-0.4,0.1-0.6,0.4s-0.1,0.6,0.1,0.8
	c0.2,0.2,0.6,0.2,0.8,0c0.3-0.2,0.4-0.4,0.3-0.8c0-0.2-0.1-0.3-0.2-0.3S219.8,52,219.5,52z M221.9,42.2c-0.1-0.3-0.3-0.4-0.6-0.4
	c-0.2,0-0.4,0.1-0.8,0.1c-0.3,0-0.6,0.1-0.7,0.1c-0.2,0-0.3,0.2-0.3,0.4c-0.1,0.3-0.1,0.7,0,0.8c0.1,0.1,0.2,0.3,0.6,0.4
	c0.1,0,0.1,0.1,0.2,0.1c0.3,0.1,0.5,0.2,0.6,0.2c0.2,0,0.4-0.1,0.8-0.3c0.3-0.2,0.4-0.4,0.4-0.7C222.1,42.8,222,42.5,221.9,42.2z
	 M221.3,57l-0.6-0.3l-0.6,0.4l0.3,0.4l0.6,0.1L221.3,57z M222.2,48.1c-0.1-0.2-0.2-0.3-0.3-0.3s-0.3,0-0.6,0s-0.6,0.1-0.7,0.3
	c-0.1,0.1-0.1,0.3,0,0.3s0.1,0.2,0.3,0.3c0.1,0.1,0.2,0.2,0.3,0.3c0.1,0.1,0.2,0,0.4,0c0.2-0.1,0.3-0.2,0.4-0.3
	C222.3,48.6,222.2,48.3,222.2,48.1z M223.2,44.6c-0.1-0.1-0.3-0.3-0.4-0.3c-0.1-0.1-0.2-0.1-0.4,0s-0.2,0.1-0.2,0.3
	c0,0.1,0.1,0.3,0.1,0.4c0,0.2,0.1,0.4,0.3,0.4s0.3,0.1,0.4,0.1s0.2,0,0.3-0.2s0.1-0.3,0-0.4C223.4,44.9,223.4,44.7,223.2,44.6z
	 M225.4,61.2c0-0.4-0.1-0.8-0.2-1s-0.4-0.3-0.9-0.4s-0.8-0.2-1-0.2s-0.4,0.2-0.8,0.7c-0.2,0.3-0.2,0.6-0.1,0.7
	c0.2,0.2,0.4,0.4,0.7,0.8c0.1,0.2,0.3,0.3,0.4,0.4s0.3,0,0.6,0c0.4-0.1,0.7-0.2,0.9-0.2C225.3,61.9,225.4,61.6,225.4,61.2z
	 M224.6,43.3l-0.4-0.3l-0.4,0.3l0.1,0.4l0.4-0.2L224.6,43.3z M227.7,60.4c-0.2-0.1-0.4-0.2-0.7-0.3c-0.1-0.1-0.3,0-0.6,0.2
	c-0.2,0.2-0.2,0.3-0.1,0.6c0.1,0.1,0.2,0.3,0.3,0.6c0.1,0.2,0.2,0.3,0.2,0.4s0.2,0.1,0.4,0.1c0.3,0,0.6-0.1,0.8-0.1s0.3-0.2,0.3-0.6
	s0-0.4-0.2-0.6C228.3,60.6,228,60.5,227.7,60.4z M228.8,63.1l-0.7-0.1l-0.3,0.7l0.6,0.2l0.4-0.1V63.1z M229.6,44.4
	c-0.1-0.2-0.2-0.3-0.3-0.4s-0.3,0-0.6,0c-0.2,0-0.3,0.1-0.3,0.2s0,0.2-0.1,0.4c0,0.2-0.1,0.4-0.1,0.6s0,0.2,0.2,0.3
	c0.2,0.1,0.4,0.2,0.7,0.2s0.3-0.1,0.6-0.3c0.2-0.2,0.3-0.3,0.2-0.6C229.7,44.9,229.7,44.6,229.6,44.4z M230.4,41.5
	c-0.1-0.2-0.2-0.3-0.4-0.2c-0.1,0.1-0.3,0.1-0.7,0.1c-0.2,0-0.3,0-0.4,0s-0.1,0.1-0.2,0.3s-0.2,0.4-0.2,0.7c0,0.1,0,0.3,0.2,0.4
	s0.4,0.2,0.6,0.2s0.3-0.1,0.6-0.3c0.2-0.2,0.3-0.3,0.4-0.4C230.5,42.1,230.5,41.9,230.4,41.5z M235,46.7c-0.6-0.8-1.1-1.3-1.5-1.5
	s-1.1-0.2-2.1,0.1c-0.9,0.3-1.3,0.8-1.3,1.3s0,1.3,0,2.2c0,0.7,0.2,1.1,0.6,1.3c0.3,0.2,0.8,0.3,1.5,0.6c0.7,0.2,1.1,0.3,1.4,0.3
	s0.8-0.2,1.1-0.8c0.4-0.7,0.8-1.3,1-1.7C235.7,47.9,235.5,47.4,235,46.7z M232.9,60.7c-0.2-0.2-0.4-0.3-0.7-0.3s-0.4,0.1-0.8,0.2
	c-0.3,0.1-0.6,0.3-0.7,0.4s-0.2,0.3-0.2,0.7c0.1,0.4,0.2,0.9,0.2,1.1c0.1,0.2,0.3,0.4,0.8,0.6c0.4,0.1,0.8,0,0.8-0.3s0.2-0.7,0.4-1
	c0.1-0.3,0.2-0.6,0.2-0.8C233.2,61.2,233.1,61,232.9,60.7z M237.8,54.8c-0.2-0.7-0.6-1-1-0.9s-1,0.1-1.8,0.2c-0.6,0.1-1,0.2-1.2,0.3
	c-0.2,0.1-0.4,0.6-0.6,1.1s-0.1,1,0,1.3s0.4,0.6,0.9,0.9c0.7,0.4,1.1,0.7,1.5,0.9c0.3,0.2,0.9,0,1.4-0.4c0.7-0.6,1-1.1,1.1-1.5
	C238.1,56.2,238,55.6,237.8,54.8z"/>
<path class="st1" d="M253.2,80.1c-8.1,0-12.3-3.3-12.8-9.8c-0.1-1.4-0.1-2.8,0-4.1c0.2-3.2,1.5-5.7,3.7-7.3c2.2-1.7,5.3-2.5,9.1-2.5
	s6.8,0.8,9.1,2.5c2.2,1.7,3.5,4.1,3.7,7.3c0.1,1.4,0.1,2.8,0,4.1C265.5,76.8,261.2,80.1,253.2,80.1z M243.5,71
	c-0.2-0.1-0.4-0.2-0.5-0.2s-0.3,0.1-0.5,0.3c-0.3,0.2-0.4,0.5-0.3,0.9c0.1,0.3,0.2,0.5,0.3,0.6s0.3,0.2,0.5,0.2s0.4-0.1,0.4-0.2
	c0-0.2,0.1-0.4,0.1-0.6c0.1-0.2,0.2-0.4,0.2-0.5C243.8,71.3,243.7,71.1,243.5,71z M245.4,64.9c-0.3-0.6-0.6-1-0.8-1.3
	s-0.6-0.4-1.2-0.3s-0.9,0.4-0.9,0.8c0,0.4,0,0.9-0.1,1.5s-0.1,1-0.1,1.3s0.2,0.6,0.7,0.9c0.6,0.3,1.1,0.4,1.5,0.4s0.8-0.3,1.2-0.8
	s0.5-0.9,0.3-1.2C245.8,65.9,245.7,65.4,245.4,64.9z M244.7,75c-0.2-0.3-0.5-0.5-0.9-0.4c-0.2,0.1-0.3,0.1-0.4,0.3
	c0,0.1-0.1,0.3-0.1,0.5s0,0.4,0,0.5s0.1,0.2,0.3,0.3c0.2,0.1,0.4,0.1,0.4,0s0.2-0.2,0.4-0.4c0.1-0.2,0.3-0.3,0.3-0.4
	C244.8,75.3,244.8,75.2,244.7,75z M245.3,71.7l-0.4-0.3l-0.4,0.4l0.4,0.4h0.4V71.7z M247.5,75.6c-0.2-0.1-0.3-0.1-0.4-0.1
	s-0.2,0.1-0.4,0.2c-0.1,0.1-0.2,0.3-0.3,0.4s-0.1,0.2,0,0.4c0.1,0.2,0.2,0.3,0.3,0.3s0.3,0.1,0.5,0c0.2,0,0.3-0.1,0.4-0.2
	s0.1-0.2,0.2-0.4c0-0.2,0.1-0.4,0.1-0.5C247.7,75.8,247.6,75.7,247.5,75.6z M247.6,63.7l-0.5-0.1l-0.2,0.4l0.4,0.2l0.2-0.1
	L247.6,63.7z M247.7,69.8l-0.4-0.1l-0.1,0.4l0.4,0.3l0.4-0.3L247.7,69.8z M247.9,67.5c-0.2,0-0.4,0.1-0.5,0.4s-0.1,0.5,0.1,0.7
	s0.5,0.2,0.7,0c0.3-0.2,0.4-0.4,0.3-0.7c0-0.2-0.1-0.3-0.2-0.3S248.1,67.5,247.9,67.5z M250,58.6c-0.1-0.3-0.3-0.4-0.5-0.4
	s-0.4,0.1-0.7,0.1s-0.5,0.1-0.6,0.1c-0.2,0-0.3,0.2-0.3,0.4c-0.1,0.3-0.1,0.6,0,0.7s0.2,0.3,0.5,0.4c0.3,0.2,0.6,0.3,0.7,0.3
	c0.2,0,0.4-0.1,0.7-0.3c0.3-0.2,0.4-0.4,0.4-0.6S250.2,58.9,250,58.6z M249.6,72l-0.5-0.3l-0.5,0.4l0.3,0.4l0.5,0.1L249.6,72z
	 M250.3,63.9c-0.1-0.2-0.2-0.3-0.3-0.3s-0.3,0-0.5,0c-0.3,0-0.5,0.1-0.6,0.3c-0.1,0.1-0.1,0.3,0,0.3s0.1,0.2,0.3,0.3
	c0.1,0.1,0.2,0.2,0.3,0.3c0.1,0.1,0.2,0,0.4,0c0.2-0.1,0.3-0.2,0.4-0.3S250.4,64.1,250.3,63.9z M251.3,60.8
	c-0.1-0.1-0.3-0.3-0.4-0.3c-0.1-0.1-0.2-0.1-0.4,0s-0.2,0.1-0.2,0.3c0,0.1,0.1,0.3,0.1,0.4c0,0.2,0.1,0.4,0.3,0.4s0.3,0.1,0.4,0.1
	s0.2,0,0.3-0.2s0.1-0.3,0-0.4C251.5,61,251.4,60.9,251.3,60.8z M253.3,75.8c0-0.4-0.1-0.7-0.2-0.9c-0.1-0.2-0.4-0.3-0.8-0.4
	s-0.7-0.2-0.9-0.2s-0.4,0.2-0.7,0.6c-0.2,0.3-0.2,0.5-0.1,0.6c0.2,0.2,0.4,0.4,0.6,0.7c0.1,0.2,0.3,0.3,0.4,0.4s0.3,0,0.5,0
	c0.4-0.1,0.6-0.2,0.8-0.2C253.2,76.4,253.3,76.2,253.3,75.8z M253.2,73c0.9,0,1.4-0.2,1.6-0.7s0.3-1.2,0.4-2.3c0-0.4,0-1.1,0-1.8
	c0-0.7,0-1.4,0-1.8c-0.1-1-0.2-1.7-0.4-2.2c-0.2-0.5-0.7-0.8-1.6-0.8c-0.8,0-1.3,0.3-1.6,0.8c-0.2,0.5-0.4,1.3-0.4,2.2
	c0,0.4,0,1.1,0,1.8c0,0.7,0,1.4,0,1.8c0.1,1,0.2,1.8,0.4,2.3S252.4,73,253.2,73z M252.6,59.6l-0.4-0.3l-0.4,0.3l0.1,0.4l0.4-0.2
	L252.6,59.6z M255.4,75.1c-0.2-0.1-0.4-0.2-0.6-0.3c-0.1-0.1-0.3,0-0.5,0.2s-0.2,0.3-0.1,0.5c0.1,0.1,0.2,0.3,0.3,0.5
	s0.2,0.3,0.2,0.4s0.2,0.1,0.4,0.1c0.3,0,0.5-0.1,0.7-0.1s0.3-0.2,0.3-0.5s0-0.4-0.2-0.5C255.8,75.3,255.6,75.2,255.4,75.1z
	 M256.3,77.5l-0.6-0.1l-0.3,0.6l0.5,0.2l0.4-0.1V77.5L256.3,77.5z M257,60.6c-0.1-0.2-0.2-0.3-0.3-0.4c-0.1-0.1-0.3,0-0.5,0
	c-0.2,0-0.3,0.1-0.3,0.2s0,0.2-0.1,0.4c0,0.2-0.1,0.4-0.1,0.5s0,0.2,0.2,0.3s0.4,0.2,0.6,0.2s0.3-0.1,0.5-0.3
	c0.2-0.2,0.3-0.3,0.2-0.5C257.2,61,257.1,60.8,257,60.6z M257.7,58c-0.1-0.2-0.2-0.3-0.4-0.2c-0.1,0.1-0.3,0.1-0.6,0.1
	c-0.2,0-0.3,0-0.4,0c-0.1,0-0.1,0.1-0.2,0.3s-0.2,0.4-0.2,0.6c0,0.1,0,0.3,0.2,0.4c0.2,0.1,0.4,0.2,0.5,0.2s0.3-0.1,0.5-0.3
	c0.2-0.2,0.3-0.3,0.4-0.4C257.8,58.5,257.8,58.3,257.7,58z M261.9,62.7c-0.5-0.7-1-1.2-1.4-1.4s-1-0.2-1.9,0.1
	c-0.8,0.3-1.2,0.7-1.2,1.2s0,1.2,0,2c0,0.6,0.2,1,0.5,1.2c0.3,0.2,0.7,0.3,1.4,0.5c0.6,0.2,1,0.3,1.3,0.3s0.7-0.2,1-0.7
	c0.4-0.6,0.7-1.2,0.9-1.5C262.6,63.8,262.4,63.3,261.9,62.7z M260,75.4c-0.2-0.2-0.4-0.3-0.6-0.3s-0.4,0.1-0.7,0.2
	c-0.3,0.1-0.5,0.3-0.6,0.4c-0.1,0.1-0.2,0.3-0.2,0.6c0.1,0.4,0.2,0.8,0.2,1c0.1,0.2,0.3,0.4,0.7,0.5s0.7,0,0.7-0.3s0.2-0.6,0.4-0.9
	c0.1-0.3,0.2-0.5,0.2-0.7C260.3,75.8,260.2,75.6,260,75.4z M264.4,70c-0.2-0.6-0.5-0.9-0.9-0.8s-0.9,0.1-1.6,0.2
	c-0.5,0.1-0.9,0.2-1.1,0.3s-0.4,0.5-0.5,1s-0.1,0.9,0,1.2c0.1,0.3,0.4,0.5,0.8,0.8c0.6,0.4,1,0.6,1.4,0.8c0.3,0.2,0.8,0,1.3-0.4
	c0.6-0.5,0.9-1,1-1.4C264.8,71.3,264.7,70.7,264.4,70z"/>
<path class="st1" d="M270.5,79.6c-0.3,0-0.6-0.1-0.8-0.4c-0.2-0.2-0.4-0.5-0.4-0.8V58c0-0.3,0.1-0.6,0.4-0.8
	c0.2-0.2,0.5-0.4,0.8-0.4h7.7c0.3,0,0.6,0.1,0.8,0.4c0.2,0.2,0.4,0.5,0.4,0.8v1.5c0.7-0.9,1.7-1.6,3-2.2s2.7-0.9,4.3-0.9
	c1.5,0,2.9,0.4,4.2,1.1s2.3,1.8,3.1,3.3s1.2,3.4,1.2,5.7v12.1c0,0.3-0.1,0.6-0.4,0.8c-0.2,0.2-0.5,0.4-0.8,0.4h-8.4
	c-0.3,0-0.6-0.1-0.8-0.4c-0.2-0.2-0.4-0.5-0.4-0.8v-12c0-1.6-0.7-2.4-2.2-2.4S280,65,280,66.6v11.8c0,0.3-0.1,0.6-0.4,0.8
	c-0.2,0.2-0.5,0.4-0.8,0.4C278.8,79.6,270.5,79.6,270.5,79.6z M271,66.4l-0.4-0.3l-0.3,0.4l0.2,0.3l0.4,0.1L271,66.4z M271.7,77.3
	h-0.6l-0.4,0.4l0.3,0.6l0.6-0.3L271.7,77.3z M272.8,57.6c-0.3,0-0.5,0-0.6,0c-0.1,0-0.3,0.2-0.4,0.4c-0.1,0.2-0.2,0.4-0.1,0.5
	c0,0.1,0.2,0.3,0.4,0.5c0.2,0.2,0.3,0.3,0.5,0.4c0.1,0.1,0.3,0,0.5-0.1c0.3-0.1,0.4-0.3,0.5-0.4c0.1-0.1,0.1-0.3,0-0.6
	c-0.1-0.3-0.1-0.5-0.3-0.6C273.3,57.7,273.1,57.6,272.8,57.6z M272.9,63.9c-0.4-0.1-0.6,0-0.8,0.3c-0.1,0.2-0.2,0.4-0.3,0.5
	s0,0.3,0.1,0.5c0.2,0.2,0.3,0.3,0.5,0.2c0.1-0.1,0.3-0.1,0.6-0.2c0.2-0.1,0.3-0.2,0.3-0.3s0-0.2,0-0.4c0-0.2,0-0.4-0.1-0.4
	C273.2,64.1,273.1,64,272.9,63.9z M273.3,61.5c-0.1-0.1-0.2-0.2-0.2-0.2c-0.1,0-0.2,0-0.4,0c-0.3,0.1-0.4,0.2-0.4,0.4
	s0.1,0.4,0.3,0.5c0.2,0.1,0.4,0,0.5-0.1c0.1-0.1,0.2-0.2,0.2-0.3C273.4,61.8,273.3,61.7,273.3,61.5z M273.8,75.7
	c-0.2-0.2-0.4-0.3-0.5-0.4c-0.1-0.1-0.3,0-0.5,0.1c-0.2,0.1-0.4,0.3-0.4,0.4s0,0.4,0.1,0.6c0.1,0.3,0.2,0.5,0.2,0.6
	c0.1,0.1,0.2,0.2,0.5,0.2s0.5,0,0.6-0.1s0.3-0.3,0.4-0.5s0.1-0.4,0-0.5S274,75.9,273.8,75.7z M273.1,73.9l-0.4-0.2l-0.2,0.4l0.3,0.3
	h0.5L273.1,73.9z M275.6,68.5c-0.3-0.4-0.6-0.7-0.8-0.8c-0.2-0.1-0.6-0.1-1.1,0S273,68,273,68.3s-0.1,0.6-0.1,1.1s0,0.8,0,1.1
	c0,0.3,0.3,0.5,0.7,0.7c0.4,0.1,0.7,0.1,0.9-0.1c0.2-0.2,0.4-0.5,0.6-0.9c0.3-0.4,0.5-0.6,0.7-0.8C275.9,69.1,275.9,68.9,275.6,68.5
	z M275.3,58.7l-0.4-0.2l-0.4,0.2v0.6h0.6L275.3,58.7z M277.6,63.1c-0.1-0.2-0.3-0.4-0.4-0.6s-0.3-0.2-0.6-0.1s-0.5,0.2-0.5,0.4
	s-0.1,0.4-0.1,0.7c0,0.4,0.2,0.7,0.6,0.9c0.2,0.1,0.4,0,0.4,0c0.1-0.1,0.2-0.2,0.4-0.4c0.1-0.1,0.2-0.3,0.3-0.4
	C277.8,63.5,277.8,63.3,277.6,63.1z M276.9,61.2l-0.4-0.3l-0.4,0.2l0.2,0.4l0.5,0.1L276.9,61.2z M278.3,76.2
	c-0.3-0.3-0.6-0.3-0.9-0.1c-0.3,0.2-0.5,0.3-0.6,0.4c-0.2,0.1-0.2,0.3-0.1,0.6c0.1,0.4,0.1,0.6,0.3,0.8c0.1,0.2,0.4,0.3,0.7,0.3
	c0.3,0,0.5,0,0.6-0.2c0.1-0.2,0.2-0.4,0.3-0.7c0.1-0.2,0.1-0.4,0.1-0.5C278.6,76.5,278.5,76.4,278.3,76.2z M278,67.2
	c-0.1-0.3-0.2-0.5-0.5-0.6s-0.6,0.1-0.7,0.4c-0.1,0.3-0.1,0.5,0.1,0.7c0.1,0.1,0.3,0.2,0.4,0.2c0.1,0,0.2-0.1,0.4-0.1
	c0.1-0.1,0.3-0.2,0.3-0.2C278,67.5,278.1,67.4,278,67.2z M278,71.4c-0.2,0-0.4,0-0.4,0.2c-0.1,0.1-0.2,0.3-0.2,0.4
	c-0.1,0.1-0.1,0.2,0.1,0.3c0.2,0.2,0.5,0.3,0.8,0.1c0.1-0.1,0.2-0.1,0.2-0.2s0-0.2,0-0.4C278.3,71.5,278.2,71.4,278,71.4z M278,73.5
	l-0.5-0.1v0.5l0.3,0.3l0.4-0.3L278,73.5z M278.9,61.5l-0.5-0.3l-0.3,0.5l0.2,0.4h0.5L278.9,61.5z M280.9,61.6
	c-0.3-0.1-0.5-0.1-0.6-0.2c-0.1,0-0.3,0.1-0.5,0.3c-0.2,0.2-0.2,0.4-0.2,0.5c0.1,0.1,0.2,0.3,0.3,0.5s0.2,0.3,0.4,0.4
	c0.1,0,0.3,0,0.5,0c0.2-0.1,0.4-0.1,0.5-0.2s0.2-0.3,0.2-0.5c0-0.3,0-0.4-0.1-0.5C281.3,61.8,281.2,61.7,280.9,61.6z M284.4,61.4
	c-0.2-0.1-0.4-0.1-0.5-0.1s-0.3,0.1-0.4,0.3c-0.1,0.2-0.2,0.4-0.3,0.5c0,0.1,0,0.3,0.2,0.6c0.1,0.2,0.3,0.2,0.4,0.2s0.3-0.1,0.5-0.2
	c0.3-0.1,0.5-0.3,0.5-0.7C284.9,61.7,284.8,61.5,284.4,61.4z M290.3,68.5c-0.5-0.4-1-0.7-1.3-0.8c-0.4-0.1-0.8,0-1.3,0.4
	c-0.6,0.5-1.1,0.9-1.4,1.2c-0.3,0.4-0.3,0.9-0.1,1.7c0.3,0.8,0.6,1.3,1,1.5c0.4,0.2,1,0.3,1.9,0.3c0.7,0,1.2-0.2,1.4-0.5
	c0.2-0.3,0.4-0.8,0.7-1.5c0.2-0.6,0.2-1,0.1-1.3C291.1,69.2,290.8,68.9,290.3,68.5z M288.2,76.6c-0.3-0.1-0.5-0.1-0.6,0.1
	c-0.1,0.2-0.1,0.4,0,0.6c0.2,0.3,0.4,0.4,0.6,0.3s0.3-0.2,0.3-0.5C288.5,76.8,288.4,76.7,288.2,76.6z M290.3,62.7
	c-0.3-0.2-0.5-0.4-0.7-0.5s-0.4-0.1-0.7,0.1c-0.4,0.2-0.5,0.4-0.5,0.6s0.1,0.5,0.2,0.9c0.1,0.4,0.1,0.7,0.2,0.9
	c0.1,0.2,0.3,0.4,0.7,0.4s0.7-0.1,0.8-0.2c0.1-0.2,0.3-0.5,0.5-0.9c0.1-0.3,0.1-0.6,0.1-0.7C290.7,63.1,290.5,62.9,290.3,62.7z
	 M289.6,74.8l-0.3-0.4l-0.4,0.4l0.2,0.3h0.3L289.6,74.8z M293.9,76.9c-0.2-0.2-0.3-0.2-0.5-0.2c-0.1,0.1-0.3,0.2-0.4,0.2
	s-0.1,0.2-0.1,0.4c0,0.1,0.1,0.2,0.2,0.3c0.1,0,0.2,0.1,0.4,0.1c0.3,0,0.5,0,0.6-0.2c0.1-0.1,0.1-0.2,0-0.3
	C294,77.1,294,77,293.9,76.9z M293.8,65.9l-0.3-0.1l-0.4,0.2l0.2,0.4h0.4L293.8,65.9L293.8,65.9z M294.4,72.9l-0.6-0.1l-0.2,0.4
	l0.1,0.4l0.4-0.2L294.4,72.9z"/>
<path class="st1" d="M306,68.5c-0.2,0-0.4-0.1-0.6-0.2c-0.2-0.2-0.3-0.3-0.3-0.5c0-0.1,0-0.3,0-0.4c0.3-1,0.8-2,1.6-2.8
	c0.7-0.9,1.5-1.7,2.3-2.4c0.8-0.7,1.5-1.4,2.1-2s0.9-1.2,0.9-1.7c0-0.4-0.1-0.8-0.4-1s-0.6-0.4-1.1-0.4c-0.9,0-1.5,0.2-1.8,0.5
	c-0.3,0.4-0.6,0.7-0.8,1.1c-0.1,0.3-0.3,0.6-0.5,0.8c-0.2,0.2-0.6,0.3-1.1,0.3h-8.2c-0.3,0-0.5-0.1-0.8-0.4c-0.2-0.2-0.3-0.6-0.3-1
	c0-1.1,0.3-2.3,0.9-3.4c0.6-1.2,1.4-2.2,2.6-3.2s2.6-1.8,4.4-2.4s3.9-0.9,6.3-0.9c2.6,0,4.6,0.3,6.2,0.9s2.9,1.3,3.7,2.2
	c0.9,0.9,1.5,1.8,1.8,2.7c0.4,0.9,0.5,1.7,0.5,2.4c0,1.2-0.2,2.2-0.6,3.2c-0.4,0.9-1,1.8-1.6,2.6c-0.7,0.8-1.3,1.5-2,2.2
	c-0.7,0.7-1.3,1.4-1.9,2c-0.1,0.1-0.2,0.2-0.3,0.3c-0.1,0.1-0.2,0.2-0.2,0.3c-0.3,0.4-0.5,0.8-0.7,1s-0.5,0.3-0.9,0.3L306,68.5
	L306,68.5z M302.2,54.2c-0.1-0.2-0.3-0.4-0.6-0.4c-0.2,0-0.3,0-0.3,0.1s-0.1,0.2-0.1,0.3c0,0.2-0.1,0.3-0.1,0.4s0,0.2,0.2,0.3
	c0.1,0.1,0.2,0.1,0.3,0.1c0.1-0.1,0.2-0.2,0.3-0.2c0.1-0.1,0.2-0.2,0.3-0.2C302.2,54.5,302.2,54.4,302.2,54.2z M302.4,57.1
	c-0.3-0.2-0.7-0.2-1,0c-0.2,0.1-0.2,0.2-0.2,0.4c0,0.1,0.1,0.3,0.2,0.5s0.1,0.4,0.2,0.6c0,0.1,0.1,0.2,0.3,0.2s0.4-0.1,0.4-0.2
	c0.1-0.1,0.1-0.3,0.2-0.5c0.1-0.2,0.1-0.4,0.2-0.5C302.6,57.4,302.5,57.2,302.4,57.1z M306.3,52.8c-0.1-0.3-0.3-0.5-0.5-0.6
	c-0.2,0-0.4-0.1-0.8,0c-0.4,0-0.7,0.1-0.9,0.1c-0.2,0-0.4,0.2-0.5,0.6s-0.1,0.7,0,0.9c0.1,0.2,0.3,0.4,0.7,0.6
	c0.4,0.2,0.6,0.4,0.9,0.4c0.2,0,0.5-0.1,0.8-0.4s0.5-0.5,0.5-0.7C306.6,53.4,306.5,53.1,306.3,52.8z M306.5,79.6
	c-0.3,0-0.6-0.1-0.8-0.4c-0.2-0.2-0.4-0.5-0.4-0.8v-7c0-0.3,0.1-0.6,0.4-0.8c0.2-0.2,0.5-0.4,0.8-0.4h8.1c0.3,0,0.6,0.1,0.8,0.4
	c0.2,0.2,0.4,0.5,0.4,0.8v7c0,0.3-0.1,0.6-0.4,0.8c-0.2,0.2-0.5,0.4-0.8,0.4H306.5z M308.5,75.1h-0.4l-0.3,0.5l0.5,0.4l0.3-0.4
	L308.5,75.1z M309.9,53.5c-0.2-0.4-0.5-0.6-1-0.5c-0.4,0.1-0.7,0.3-0.8,0.7c-0.1,0.4,0.1,0.8,0.5,1c0.2,0.1,0.4,0.2,0.5,0.1
	c0.1,0,0.3-0.1,0.5-0.4c0.2-0.2,0.3-0.3,0.3-0.5C310.1,53.9,310.1,53.7,309.9,53.5z M310.7,73.6c0-0.2-0.1-0.4-0.1-0.5
	s-0.2-0.2-0.4-0.3c-0.2,0-0.4,0-0.5,0.1s-0.2,0.2-0.3,0.4c-0.1,0.2-0.2,0.4-0.2,0.5s0,0.3,0.2,0.4c0.2,0.2,0.3,0.3,0.4,0.4
	s0.3,0,0.6-0.1c0.2-0.1,0.3-0.2,0.4-0.3C310.7,74,310.7,73.8,310.7,73.6z M310.3,77.7l-0.4,0.1v0.4h0.4l0.1-0.3L310.3,77.7z
	 M313.6,63.2c-0.5-0.2-0.9-0.3-1.2-0.3c-0.3,0-0.6,0.1-0.9,0.6c-0.3,0.4-0.4,0.7-0.4,1c0.1,0.3,0.3,0.6,0.6,1.1
	c0.2,0.4,0.5,0.5,0.7,0.6c0.2,0,0.6,0,1-0.1s0.6-0.3,0.8-0.4c0.1-0.2,0.2-0.4,0.3-0.9c0-0.4-0.1-0.8-0.2-0.9
	C314.3,63.5,314,63.4,313.6,63.2z M312.3,51.4l-0.5,0.2l-0.3,0.5l0.5,0.2l0.4-0.3L312.3,51.4z M313,76c-0.2-0.1-0.3-0.2-0.4-0.1
	s-0.3,0.2-0.4,0.4c-0.1,0.1-0.3,0.2-0.3,0.3c-0.1,0.1-0.1,0.2,0,0.4c0.1,0.2,0.1,0.3,0.2,0.3s0.3,0,0.5,0s0.4,0,0.5,0
	s0.2-0.1,0.3-0.3c0.1-0.3,0.1-0.5,0.1-0.6C313.4,76.3,313.2,76.2,313,76z M312.8,73.9l-0.6-0.1l-0.4,0.6l0.6,0.4l0.6-0.3L312.8,73.9
	z M312.3,54.5l-0.3,0.2l0.1,0.4l0.4,0.1l0.1-0.4L312.3,54.5z M313,71.3l-0.4,0.1l0.2,0.4l0.3,0.2l0.1-0.4L313,71.3z M314.7,60
	c-0.2,0-0.3,0.1-0.4,0.3c-0.1,0.1-0.1,0.3-0.2,0.4c0,0.1,0,0.2,0.1,0.3c0.2,0.2,0.4,0.2,0.7,0c0.1-0.1,0.2-0.2,0.2-0.3s0-0.2,0-0.4
	C315.1,60.2,314.9,60.1,314.7,60z M317.8,52.2c-0.4-0.3-0.7-0.4-1-0.4s-0.6,0.2-0.9,0.5c-0.4,0.4-0.7,0.7-0.9,0.9
	c-0.2,0.2-0.1,0.6,0.1,1.1s0.5,0.7,0.8,0.7s0.7-0.1,1.2-0.1c0.4,0,0.6-0.1,0.8-0.3c0.1-0.1,0.3-0.4,0.4-0.8s0.2-0.7,0.2-1
	C318.3,52.6,318.1,52.4,317.8,52.2z M318.5,61.1l-0.4,0.1l-0.2,0.4l0.5,0.2l0.3-0.5L318.5,61.1z M320.1,56.7
	c-0.1-0.1-0.2-0.1-0.3-0.1c-0.1,0.1-0.2,0.2-0.3,0.2c-0.2,0.1-0.2,0.3-0.2,0.4c0,0.2,0.1,0.3,0.1,0.4s0.1,0.1,0.3,0.1
	c0.2,0,0.3-0.1,0.3-0.2s0.1-0.2,0.1-0.4c0-0.1,0.1-0.3,0.1-0.4S320.2,56.8,320.1,56.7z"/>
</svg>
