<?xml version="1.0" encoding="utf-8"?>
<!-- Generator: Adobe Illustrator 25.4.1, SVG Export Plug-In . SVG Version: 6.00 Build 0)  -->
<svg version="1.1" id="Layer_1" xmlns="http://www.w3.org/2000/svg" xmlns:xlink="http://www.w3.org/1999/xlink" x="0px" y="0px"
	 viewBox="0 0 200.7 110.7" style="enable-background:new 0 0 200.7 110.7;" xml:space="preserve">
<style type="text/css">
	.st0{fill:#FAC805;}
	.st1{fill:#FFFFFF;}
</style>
<g>
	<path class="st0" d="M17.3,43.8c-0.3,0-0.6-0.1-0.8-0.4c-0.2-0.2-0.4-0.5-0.4-0.8V14.2c0-0.3,0.1-0.6,0.4-0.8
		c0.2-0.2,0.5-0.4,0.8-0.4h14.6c4.2,0,7.3,0.8,9.2,2.3c2,1.5,2.9,3.9,2.9,6.9c0,0.9-0.2,1.8-0.6,2.5s-0.9,1.4-1.4,1.9
		s-1,0.9-1.5,1.1c1.1,0.5,2.1,1.3,2.9,2.4c0.8,1.2,1.3,2.5,1.3,3.9c0,3.3-1.1,5.7-3.2,7.3s-5.2,2.4-9.2,2.4L17.3,43.8L17.3,43.8z
		 M19.1,28.4c-0.1-0.3-0.1-0.5-0.2-0.7c0-0.2-0.2-0.3-0.5-0.3s-0.4,0.1-0.5,0.3c0,0.2-0.1,0.4-0.2,0.7c-0.1,0.3-0.2,0.5-0.3,0.7
		s0,0.3,0.2,0.5c0.3,0.2,0.5,0.2,0.6,0.1s0.3-0.2,0.6-0.4c0.2-0.1,0.3-0.2,0.3-0.4C19.2,28.8,19.2,28.6,19.1,28.4z M20.3,35.6
		c-0.5-0.1-0.9-0.2-1.2-0.2s-0.6,0.2-0.8,0.6c-0.3,0.5-0.4,0.9-0.4,1.1c0.1,0.3,0.3,0.6,0.7,1.1c0.4,0.4,0.7,0.6,0.9,0.6
		c0.3,0,0.7-0.1,1.1-0.3c0.5-0.2,0.9-0.5,1.1-0.7s0.3-0.6,0.2-1.1s-0.2-0.8-0.5-0.9C21.2,35.7,20.8,35.7,20.3,35.6z M23.4,22.3
		c-0.2-0.6-0.4-0.9-0.7-1.1C22.5,21,22.1,21,21.5,21s-1,0.1-1.3,0.2c-0.3,0.2-0.5,0.5-0.7,1.1c-0.1,0.5-0.1,0.9,0.1,1.1
		c0.2,0.2,0.5,0.5,1,0.8c0.4,0.3,0.7,0.4,0.9,0.4s0.5-0.2,0.9-0.5s0.7-0.6,0.9-0.8C23.5,23.1,23.6,22.8,23.4,22.3z M21.2,39.8
		c-0.2-0.2-0.5-0.2-0.7-0.1c-0.3,0.2-0.4,0.4-0.3,0.7c0.1,0.3,0.3,0.5,0.6,0.5s0.5-0.1,0.6-0.4C21.5,40.2,21.5,40,21.2,39.8z
		 M21.3,31l-0.5,0.1l0.1,0.5h0.4l0.1-0.3L21.3,31z M23.3,15c-0.2-0.2-0.3-0.3-0.5-0.3c-0.1,0-0.3,0.1-0.6,0.2
		c-0.4,0.2-0.5,0.5-0.5,0.8c0,0.4,0.2,0.6,0.6,0.7c0.3,0.1,0.5,0.1,0.7,0.2c0.2,0,0.3-0.1,0.5-0.3c0.2-0.3,0.2-0.5,0.2-0.7
		S23.5,15.2,23.3,15z M22.7,26.4l-0.5-0.2h-0.4v0.5l0.6,0.2L22.7,26.4z M22.4,29.5l-0.5,0.4l0.2,0.5l0.6,0.2V30L22.4,29.5z
		 M23.7,34.8c-0.3-0.1-0.5-0.1-0.6-0.1c-0.2,0-0.3,0.2-0.5,0.4c-0.2,0.3-0.3,0.5-0.3,0.6s0.1,0.4,0.3,0.6c0.2,0.2,0.3,0.3,0.5,0.3
		s0.4,0,0.6-0.1s0.4-0.2,0.5-0.3s0.1-0.3,0.1-0.6s0-0.5-0.1-0.6C24.2,35,24,34.9,23.7,34.8z M24.1,41l-0.4,0.1l-0.1,0.4l0.4,0.4
		l0.2-0.4L24.1,41z M26.1,17.8c-0.2-0.3-0.4-0.5-0.5-0.6s-0.4-0.1-0.7,0c-0.4,0.1-0.7,0.3-0.8,0.4c-0.2,0.1-0.3,0.4-0.3,0.8
		s0.1,0.7,0.4,0.7c0.2,0.1,0.5,0.2,0.9,0.3c0.3,0.1,0.5,0.1,0.6,0s0.3-0.3,0.4-0.6c0.1-0.2,0.2-0.4,0.3-0.6
		C26.4,18.1,26.3,18,26.1,17.8z M24.6,39L24,39.2l-0.1,0.6l0.6,0.1l0.4-0.3L24.6,39z M26.6,28.9c-0.2-0.2-0.4-0.4-0.5-0.5
		s-0.4-0.1-0.7,0c-0.3,0.1-0.4,0.2-0.4,0.4s0,0.4,0,0.8s0,0.6,0,0.9c0,0.2,0.1,0.4,0.5,0.5c0.3,0.1,0.5,0,0.6-0.2s0.2-0.5,0.4-0.7
		c0.1-0.2,0.2-0.4,0.3-0.6C26.8,29.3,26.8,29.1,26.6,28.9z M27.3,40.4l-0.4,0.2v0.3l0.3,0.3l0.4-0.4L27.3,40.4z M27.6,14.5l-0.5,0.2
		l0.1,0.3l0.3-0.1L27.6,14.5z M27.2,24.6h3.7c0.6,0,1.1-0.2,1.4-0.6s0.4-0.9,0.4-1.3c0-0.5-0.1-0.9-0.4-1.4
		c-0.3-0.4-0.7-0.7-1.4-0.7h-3.7V24.6z M27.2,36.3h4.1c0.7,0,1.3-0.2,1.6-0.7s0.5-1,0.5-1.4c0-0.5-0.2-1-0.5-1.5S32.1,32,31.4,32
		h-4.1L27.2,36.3L27.2,36.3z M29.4,15.6L29,15.4l-0.4,0.4l0.4,0.4l0.4-0.2V15.6z M32.1,39c-0.4-0.4-0.7-0.8-1-1
		c-0.2-0.2-0.6-0.2-1.2,0.1s-0.9,0.6-1,0.9c-0.1,0.3-0.1,0.8,0,1.4c0.1,0.6,0.2,1.1,0.4,1.3c0.2,0.3,0.6,0.5,1.2,0.5
		c0.7,0.1,1.2,0.1,1.6,0s0.7-0.4,1.1-1.1c0.3-0.6,0.3-1,0-1.3C32.9,39.7,32.6,39.4,32.1,39z M30.8,16.5c-0.2,0-0.4,0.1-0.5,0.4
		s-0.1,0.5,0.1,0.6c0.1,0.1,0.2,0.2,0.3,0.2s0.2,0,0.4-0.1c0.3-0.2,0.4-0.4,0.3-0.7c-0.1-0.2-0.1-0.3-0.2-0.3
		C31.1,16.5,30.9,16.5,30.8,16.5z M32.2,26.9c0-0.3-0.2-0.5-0.6-0.6c-0.2,0-0.4-0.1-0.5-0.1s-0.3,0.1-0.4,0.3
		c-0.1,0.2-0.1,0.4,0,0.5s0.2,0.2,0.4,0.4c0.1,0.2,0.3,0.3,0.4,0.4s0.2,0.1,0.4,0c0.2-0.1,0.3-0.2,0.4-0.3
		C32.2,27.3,32.2,27.2,32.2,26.9z M34,15.9c0-0.3,0-0.5,0-0.7s-0.1-0.3-0.4-0.4c-0.3-0.1-0.5-0.1-0.7,0c-0.1,0.1-0.3,0.3-0.5,0.5
		c-0.1,0.2-0.2,0.4-0.1,0.5s0.2,0.3,0.3,0.5s0.3,0.4,0.4,0.4c0.1,0.1,0.3,0.1,0.5,0s0.4-0.2,0.4-0.3C34,16.4,34,16.2,34,15.9z
		 M33.3,30.3l-0.6,0.1l0.1,0.6l0.5,0.1l0.2-0.4L33.3,30.3z M34.2,19.5h-0.5v0.6l0.4,0.1l0.5-0.4L34.2,19.5z M34.9,24.5
		c-0.1-0.1-0.3-0.2-0.4-0.1c-0.1,0-0.3,0.1-0.4,0.2c-0.3,0.2-0.4,0.4-0.3,0.7c0.1,0.2,0.1,0.4,0.2,0.5c0,0.1,0.2,0.2,0.4,0.2
		s0.4,0,0.5-0.1s0.2-0.2,0.3-0.5c0.1-0.2,0.1-0.4,0.1-0.5C35.2,24.9,35.1,24.7,34.9,24.5z M36.4,31.3c-0.1-0.3-0.1-0.5-0.3-0.6
		c-0.1-0.1-0.3-0.1-0.6-0.2c-0.3,0-0.4,0-0.5,0.2c-0.1,0.1-0.1,0.3-0.2,0.5c-0.1,0.3,0,0.5,0.2,0.7c0.1,0.1,0.3,0.2,0.4,0.3
		s0.3,0,0.5-0.1s0.4-0.2,0.4-0.4C36.5,31.7,36.5,31.5,36.4,31.3z M36.5,14.9c-0.2-0.1-0.3-0.2-0.4-0.1c-0.1,0.1-0.3,0.2-0.4,0.3
		s-0.2,0.2-0.3,0.3c0,0.1,0,0.2,0,0.4c0.1,0.2,0.1,0.4,0.2,0.5s0.2,0.2,0.4,0.2c0.3,0,0.4,0,0.5-0.1s0.2-0.3,0.3-0.5
		C36.9,15.5,36.8,15.1,36.5,14.9z M37.2,33.9c-0.2-0.1-0.4-0.1-0.5,0s-0.2,0.2-0.3,0.4c-0.2,0.3-0.1,0.6,0.1,0.8
		c0.2,0.3,0.5,0.4,0.8,0.3s0.5-0.4,0.4-0.7c0-0.2-0.1-0.4-0.1-0.5C37.5,34,37.4,33.9,37.2,33.9z M38,24.2c-0.1-0.3-0.4-0.5-0.7-0.5
		c-0.3,0-0.5,0.2-0.6,0.5s-0.2,0.5-0.2,0.6c-0.1,0.1,0,0.3,0.3,0.4c0.2,0.2,0.4,0.3,0.6,0.2c0.2,0,0.4-0.1,0.6-0.3s0.3-0.3,0.2-0.5
		C38.1,24.6,38.1,24.4,38,24.2z M37.7,17.6c-0.2-0.1-0.4-0.2-0.5-0.2c-0.1-0.1-0.3,0-0.4,0.2s-0.2,0.3-0.1,0.4s0.2,0.3,0.4,0.5
		c0.1,0.2,0.2,0.4,0.3,0.5s0.2,0.1,0.5,0.1c0.3-0.1,0.5-0.2,0.6-0.3s0.1-0.3,0.1-0.6c0-0.2-0.1-0.4-0.2-0.4
		C38.1,17.7,37.9,17.7,37.7,17.6z M38,27l-0.3-0.4l-0.5,0.2l0.2,0.5l0.4,0.1L38,27z M38.6,39.2c-0.4-0.2-0.7-0.2-1,0
		c-0.2,0.2-0.3,0.3-0.4,0.4c-0.1,0.1-0.1,0.3,0.1,0.5c0.1,0.2,0.2,0.4,0.3,0.4c0.1,0,0.3,0,0.5,0s0.4-0.1,0.5-0.1s0.2-0.2,0.2-0.4
		c0.1-0.2,0.1-0.4,0-0.5C38.9,39.5,38.8,39.3,38.6,39.2z M38.7,15.7c-0.1-0.2-0.1-0.3-0.1-0.4c0-0.1-0.1-0.2-0.3-0.2
		s-0.3,0.1-0.4,0.2c-0.1,0.1-0.1,0.2-0.2,0.4c-0.1,0.3,0,0.5,0.3,0.7s0.5,0.2,0.7,0c0.1-0.1,0.1-0.2,0.1-0.3
		C38.8,16,38.8,15.9,38.7,15.7z M39.4,35.3h-0.3L39,35.6l0.2,0.3l0.3-0.2L39.4,35.3z M39.7,37.6l-0.4-0.2L39,37.6l0.1,0.3l0.4,0.1
		L39.7,37.6z M39.7,31.4h-0.4v0.4l0.4,0.3l0.4-0.4L39.7,31.4z M40.5,19.2c-0.3-0.1-0.6,0.1-0.7,0.4c-0.1,0.2-0.2,0.4-0.3,0.6
		c-0.1,0.1,0,0.3,0.2,0.5S40,21,40.2,21c0.1,0,0.4,0,0.6-0.2c0.2-0.1,0.3-0.2,0.3-0.4c0-0.1-0.1-0.3-0.1-0.6c0-0.2-0.1-0.3-0.1-0.4
		S40.7,19.2,40.5,19.2z M41.3,35.3l-0.6,0.1V36h0.5l0.4-0.3L41.3,35.3z M41.6,39.2L41.3,39L41,39.4l0.3,0.3h0.4L41.6,39.2z"/>
	<path class="st0" d="M59.8,44.3c-3.8,0-6.9-0.9-9.2-2.8s-3.4-4.9-3.4-9v-0.3c0.1-3.8,1.2-6.7,3.5-8.6c2.3-2,5.3-3,9-3
		c2.9,0,5.2,0.5,7.1,1.6s3.2,2.6,4.1,4.4s1.3,3.8,1.3,6v1.3c0,0.3-0.1,0.6-0.4,0.8c-0.2,0.2-0.5,0.4-0.8,0.4H58v0.1
		c0,0.9,0.1,1.5,0.4,2c0.2,0.5,0.7,0.7,1.3,0.7c0.3,0,0.5-0.1,0.7-0.2s0.4-0.3,0.6-0.6c0.3-0.3,0.5-0.4,0.7-0.5s0.4-0.1,0.8-0.1h8.3
		c0.3,0,0.5,0.1,0.7,0.3s0.3,0.4,0.2,0.7c0,0.6-0.3,1.2-0.8,2s-1.2,1.5-2.2,2.3c-1,0.7-2.2,1.3-3.7,1.8C63.6,44,61.9,44.3,59.8,44.3
		z M51.5,33c-0.4-0.1-0.6-0.1-0.8,0c-0.2,0.1-0.3,0.3-0.5,0.6c-0.1,0.3-0.2,0.5-0.1,0.6s0.2,0.3,0.4,0.6c0.1,0.2,0.3,0.3,0.4,0.4
		c0.1,0.1,0.3,0,0.5-0.1c0.4-0.1,0.6-0.4,0.6-0.8c0-0.3,0-0.6,0-0.8S51.8,33.1,51.5,33z M51.7,26.7c-0.2-0.1-0.3-0.1-0.4,0
		S51.1,26.9,51,27c-0.2,0.2-0.3,0.3-0.5,0.4c-0.1,0.1-0.1,0.3,0,0.5c0.1,0.3,0.3,0.3,0.4,0.3c0.1-0.1,0.4-0.1,0.6-0.2
		c0.3-0.1,0.4-0.2,0.4-0.5c0-0.2,0-0.3,0-0.4C52,26.9,51.9,26.8,51.7,26.7z M53.2,30.9c-0.1-0.2-0.3-0.3-0.4-0.3s-0.3,0-0.6,0.1
		c-0.3,0.1-0.4,0.2-0.5,0.3c-0.1,0.1-0.1,0.3-0.1,0.5c0,0.3,0,0.6,0.1,0.7c0,0.2,0.2,0.3,0.5,0.4c0.3,0.1,0.6,0.1,0.7,0
		s0.3-0.3,0.5-0.6c0.2-0.2,0.2-0.4,0.2-0.6C53.6,31.3,53.5,31.1,53.2,30.9z M53,36.7c0-0.2,0-0.4,0-0.5S52.9,36,52.8,36
		c-0.2-0.1-0.3-0.1-0.4,0s-0.2,0.2-0.3,0.4C52,36.5,52,36.6,52,36.7s0.1,0.2,0.2,0.3s0.2,0.3,0.3,0.4c0.1,0.1,0.2,0.1,0.4,0.1
		c0.2-0.1,0.2-0.1,0.2-0.3C53,37,53,36.8,53,36.7z M53.5,24c-0.3,0-0.4,0.1-0.5,0.2s-0.1,0.3-0.2,0.6c-0.1,0.1-0.1,0.3,0,0.4
		s0.2,0.2,0.3,0.3s0.3,0.3,0.4,0.4s0.2,0.1,0.4,0s0.3-0.3,0.4-0.4s0-0.3,0-0.6c-0.1-0.3-0.1-0.5-0.2-0.6C54,24.1,53.8,24,53.5,24z
		 M55.1,27.2C54.7,27,54.5,27,54.3,27s-0.4,0.2-0.6,0.4c-0.3,0.3-0.4,0.5-0.4,0.7s0.1,0.4,0.3,0.8c0.1,0.3,0.3,0.4,0.5,0.4
		s0.4-0.1,0.8-0.2c0.3-0.1,0.5-0.1,0.7-0.2c0.2,0,0.3-0.2,0.3-0.5c0-0.4,0-0.6-0.1-0.8C55.7,27.5,55.5,27.3,55.1,27.2z M56,36.6
		c-0.3-0.3-0.6-0.3-0.9-0.1c-0.2,0.1-0.4,0.3-0.5,0.4c-0.1,0.1-0.1,0.3-0.1,0.5c0.1,0.3,0.2,0.4,0.3,0.4c0.1,0,0.4,0.1,0.6,0.1
		c0.3,0,0.5,0.1,0.6,0.1c0.2,0,0.3-0.1,0.4-0.3s0.1-0.4,0-0.5C56.3,37,56.2,36.8,56,36.6z M55.4,40.3c-0.2,0-0.3,0-0.4,0.1
		s-0.2,0.2-0.2,0.4c-0.2,0.1-0.2,0.3-0.3,0.4c0,0.1,0,0.2,0.2,0.4s0.4,0.3,0.5,0.4c0.1,0.1,0.3,0.1,0.5-0.1c0.2-0.1,0.3-0.2,0.2-0.4
		c-0.1-0.2-0.1-0.3-0.1-0.6c0-0.2-0.1-0.3-0.1-0.4S55.6,40.4,55.4,40.3z M55.5,31.3c-0.2,0-0.4,0-0.4,0.1c-0.1,0.1-0.1,0.3-0.3,0.5
		c-0.1,0.3-0.2,0.5-0.2,0.6c-0.1,0.1,0,0.3,0.2,0.4c0.2,0.2,0.4,0.3,0.5,0.3s0.4-0.1,0.6-0.2s0.4-0.3,0.5-0.4c0.1-0.1,0.1-0.3,0-0.6
		c-0.1-0.3-0.2-0.5-0.3-0.6C56,31.4,55.8,31.3,55.5,31.3z M57,39.4l-0.4-0.3l-0.3,0.4l0.3,0.3H57V39.4z M58,29.5h1.3
		c0-0.1-0.1-0.1-0.1-0.2c-0.1-0.5-0.2-1-0.3-1.4s0-0.7,0-1.1c0.2-0.1,0.5-0.2,0.8-0.2c1.2,0,1.8,0.9,1.8,2.8h-2.2
		c0.2,0.8,0.4,1.6,0.5,2.2c0.1,0.6,0.3,1.2,0.7,1.5c0.3,0.4,0.9,0.6,1.8,0.6c1.1,0,2-0.1,2.6-0.2c0.7-0.2,1.2-0.6,1.6-1.1
		s0.8-1.3,1.1-2.4c0.3-0.9,0.3-1.5,0.1-2c-0.2-0.5-0.7-0.9-1.3-1.2c-0.6-0.4-1.3-0.8-2-1.4c-0.9-0.6-1.5-1-2.1-1
		c-0.5,0-1.3,0.2-2.1,0.8c-0.7,0.5-1.2,1-1.3,1.5C58.4,27.2,58,28.1,58,29.5z M62.3,39.8c0-0.4-0.1-0.6-0.1-0.8s-0.2-0.4-0.5-0.4
		c-0.4-0.1-0.8-0.2-1-0.2S60.2,38.6,60,39s-0.3,0.6-0.1,0.8s0.4,0.4,0.6,0.7s0.4,0.4,0.5,0.5c0.2,0.1,0.4,0,0.7-0.1
		c0.3-0.1,0.5-0.3,0.5-0.4C62.3,40.3,62.3,40.1,62.3,39.8z M64.2,37.8c-0.1-0.1-0.1-0.2-0.2-0.3c-0.1,0-0.2,0-0.3,0
		c-0.3,0-0.4,0.1-0.5,0.3s0,0.4,0.1,0.6c0.1,0.1,0.3,0.2,0.3,0.2c0.1,0.1,0.2,0,0.3,0c0.1-0.1,0.2-0.2,0.2-0.3
		C64.3,38.1,64.3,38,64.2,37.8z M67.4,39.5c-0.1-0.4-0.3-0.6-0.4-0.8s-0.4-0.3-0.8-0.2c-0.5,0.1-0.8,0.1-1.1,0.3
		c-0.2,0.1-0.4,0.4-0.5,0.9c-0.1,0.4,0,0.7,0.2,0.9s0.5,0.4,0.9,0.6c0.4,0.2,0.7,0.4,0.9,0.5s0.5,0,0.9-0.4c0.4-0.3,0.4-0.6,0.3-0.8
		C67.7,40.2,67.5,39.9,67.4,39.5z"/>
	<path class="st0" d="M78.8,52.2c-0.3,0-0.5-0.1-0.7-0.3s-0.3-0.4-0.3-0.7c0-0.1,0-0.1,0-0.2s0-0.2,0-0.2l3.5-8.4l-8.5-20.1
		c0-0.1,0-0.2,0-0.3c0.1-0.3,0.2-0.5,0.4-0.7s0.4-0.3,0.7-0.3h7.4c0.4,0,0.8,0.1,1,0.4c0.2,0.2,0.4,0.5,0.4,0.7l3.6,10l3.7-10
		c0.1-0.3,0.3-0.5,0.5-0.7s0.5-0.3,1-0.3h7.3c0.3,0,0.5,0.1,0.7,0.3s0.3,0.4,0.3,0.6s0,0.3,0,0.4L87.6,51.1
		c-0.1,0.3-0.3,0.5-0.5,0.7s-0.6,0.3-1,0.3L78.8,52.2L78.8,52.2z M76.6,26.6l-0.5,0.1l0.1,0.4l0.3,0.3l0.2-0.4L76.6,26.6z
		 M77.5,23.6c-0.3-0.1-0.5-0.1-0.6,0s-0.3,0.3-0.5,0.5s-0.3,0.4-0.3,0.5s0,0.3,0.2,0.6c0.1,0.2,0.3,0.4,0.4,0.4s0.4,0,0.6-0.1
		c0.3-0.1,0.5-0.1,0.6-0.2s0.2-0.3,0.2-0.6s0-0.5-0.1-0.7S77.8,23.7,77.5,23.6z M78.2,29.5c-0.2-0.1-0.4-0.1-0.4,0
		c-0.1,0.1-0.2,0.2-0.3,0.4s-0.3,0.3-0.3,0.5c-0.1,0.1,0,0.3,0.1,0.5c0.3,0.4,0.6,0.5,1.1,0.3c0.3-0.1,0.4-0.2,0.5-0.3
		s0.1-0.3,0.1-0.6c0-0.2,0-0.4-0.1-0.5C78.7,29.6,78.5,29.5,78.2,29.5z M79.1,26.9c-0.2-0.1-0.4-0.2-0.5-0.3s-0.3-0.1-0.4,0.2
		c-0.1,0.2-0.1,0.3,0,0.4s0.2,0.3,0.4,0.5c0.1,0.2,0.2,0.3,0.3,0.4c0.1,0.1,0.2,0.1,0.4,0s0.3-0.1,0.4-0.3c0-0.1,0-0.3,0-0.5
		c0-0.1,0-0.2-0.1-0.3C79.4,27,79.3,27,79.1,26.9z M79.4,25.5L79,25.3l-0.4,0.2l0.2,0.4l0.4-0.1L79.4,25.5z M81.1,29.8
		c-0.1-0.3-0.2-0.4-0.6-0.4c-0.2,0-0.4,0-0.5,0s-0.2,0.1-0.3,0.3c-0.1,0.4-0.1,0.7,0.3,0.9c0.2,0.2,0.4,0.3,0.6,0.3s0.3,0,0.5-0.2
		c0.2-0.1,0.3-0.3,0.2-0.4S81.1,30,81.1,29.8z M82.7,48.1c-0.2-0.3-0.3-0.5-0.5-0.6c-0.1-0.1-0.4-0.1-0.7,0
		c-0.4,0.1-0.7,0.2-0.9,0.3s-0.3,0.4-0.4,0.8c0,0.4,0,0.7,0.2,0.9c0.2,0.1,0.5,0.3,0.9,0.5s0.7,0.3,1,0.3s0.5-0.1,0.8-0.5
		c0.3-0.3,0.3-0.6,0.2-0.8C83.1,48.7,82.9,48.4,82.7,48.1z M81.3,24.2L81,24.5v0.4l0.5,0.1v-0.4L81.3,24.2z M84.6,34.3
		c-0.7-0.1-1.2-0.2-1.6-0.2s-0.8,0.4-1.1,1c-0.4,0.8-0.7,1.4-0.8,1.8c-0.1,0.5,0.2,1,0.8,1.7c0.6,0.6,1.1,0.8,1.5,0.7
		c0.5-0.2,1-0.4,1.8-0.8c0.7-0.3,1.2-0.6,1.5-0.9c0.3-0.3,0.4-0.8,0.3-1.6c-0.1-0.7-0.3-1.1-0.7-1.3C85.9,34.6,85.4,34.4,84.6,34.3z
		 M82.4,26.1c-0.4-0.1-0.7,0-0.9,0.3c-0.1,0.2-0.1,0.3,0,0.4s0.2,0.2,0.3,0.4s0.2,0.3,0.3,0.4c0.1,0.1,0.2,0.1,0.4,0.1
		c0.2-0.1,0.3-0.1,0.2-0.3c0-0.1,0-0.3,0-0.5s0-0.4,0-0.5C82.7,26.3,82.6,26.2,82.4,26.1z M85.1,45.3c-0.1-0.3-0.2-0.4-0.3-0.5
		s-0.3-0.1-0.6-0.1s-0.4,0.1-0.5,0.2s-0.2,0.3-0.2,0.5c-0.1,0.2-0.1,0.4-0.1,0.5s0.2,0.3,0.4,0.4c0.4,0.2,0.7,0.2,1.1,0
		C85.1,46,85.2,45.7,85.1,45.3z M87.3,46.7c-0.1-0.4-0.4-0.5-0.7-0.5c-0.2,0-0.3,0.1-0.3,0.2s-0.1,0.3-0.1,0.5
		c-0.1,0.2,0,0.4,0.2,0.5s0.4,0.1,0.5,0s0.3-0.2,0.4-0.3C87.3,47,87.4,46.9,87.3,46.7z M87.5,42.6c-0.3,0-0.5,0-0.5,0.2
		c-0.1,0.2-0.2,0.4-0.3,0.6c-0.2,0.3-0.1,0.6,0.1,0.8c0.2,0.2,0.5,0.3,0.8,0.2c0.2-0.1,0.4-0.2,0.5-0.3s0.2-0.2,0.1-0.5
		c0-0.3-0.1-0.5-0.2-0.7C88,42.8,87.8,42.7,87.5,42.6z M88.8,38.6c-0.1-0.1-0.2-0.2-0.3-0.3c-0.1,0-0.2,0-0.4,0
		c-0.2,0.1-0.4,0.2-0.5,0.2c-0.1,0.1-0.2,0.2-0.2,0.4c0,0.3,0,0.5,0.1,0.6s0.2,0.2,0.5,0.3c0.2,0.1,0.4,0,0.5,0
		c0.1-0.1,0.2-0.2,0.3-0.4s0.2-0.3,0.1-0.4C89,38.9,89,38.8,88.8,38.6z M90.3,28.5c-0.5-0.1-0.9-0.1-1.1,0c-0.2,0.1-0.5,0.4-0.7,0.8
		c-0.2,0.3-0.2,0.6,0,0.7c0.2,0.2,0.4,0.4,0.7,0.7c0.2,0.2,0.4,0.4,0.5,0.5s0.4,0.1,0.7,0c0.4-0.1,0.6-0.3,0.8-0.4s0.2-0.4,0.2-0.7
		c0-0.5-0.1-0.8-0.2-1.1C91.1,28.8,90.8,28.6,90.3,28.5z M90.2,41.6c-0.1-0.1-0.3-0.2-0.4-0.2c-0.1,0-0.3,0.1-0.4,0.2
		c-0.2,0.1-0.3,0.3-0.3,0.6c0.1,0.2,0.2,0.4,0.4,0.4c0.3,0,0.5-0.1,0.6-0.3s0.2-0.3,0.2-0.4C90.4,41.8,90.3,41.7,90.2,41.6z
		 M90.9,33.3c-0.2-0.1-0.4-0.1-0.5-0.1c-0.1,0.1-0.2,0.2-0.4,0.3c-0.1,0.1-0.2,0.3-0.2,0.4s0.1,0.3,0.2,0.4c0.1,0.2,0.2,0.3,0.2,0.4
		c0.1,0.1,0.2,0.1,0.4,0.1c0.2-0.1,0.3-0.1,0.4-0.2c0.1-0.1,0.1-0.2,0.1-0.4s0-0.4,0-0.5C91.2,33.5,91.1,33.4,90.9,33.3z M90.8,37.4
		h-0.3v0.3l0.3,0.2l0.4-0.3L90.8,37.4z M95.9,25.4c-0.2-0.3-0.3-0.5-0.5-0.7c-0.2-0.1-0.4-0.2-0.8-0.1c-0.5,0.1-0.8,0.2-1,0.3
		c-0.2,0.1-0.4,0.4-0.4,0.8c-0.1,0.4,0,0.8,0.2,0.9c0.2,0.2,0.5,0.4,0.9,0.6s0.8,0.3,1.1,0.4s0.6-0.1,0.9-0.4
		c0.3-0.4,0.4-0.6,0.2-0.9C96.3,26.2,96.1,25.8,95.9,25.4z M93.9,30.5c-0.3,0-0.4,0.1-0.4,0.3s-0.1,0.4-0.2,0.6
		c-0.1,0.3-0.1,0.5,0.2,0.7c0.1,0.1,0.3,0.3,0.4,0.3c0.1,0.1,0.2,0.1,0.4-0.1c0.2-0.1,0.3-0.3,0.4-0.4c0-0.1,0-0.3,0-0.5
		c-0.1-0.3-0.1-0.5-0.2-0.6C94.4,30.6,94.2,30.5,93.9,30.5z"/>
	<path class="st0" d="M113.4,44.3c-8.1,0-12.3-3.3-12.8-9.8c-0.1-1.4-0.1-2.8,0-4.1c0.2-3.2,1.5-5.7,3.7-7.3
		c2.2-1.7,5.3-2.5,9.1-2.5s6.8,0.8,9.1,2.5c2.2,1.7,3.5,4.1,3.7,7.3c0.1,1.4,0.1,2.8,0,4.1C125.8,41,121.5,44.3,113.4,44.3z
		 M103.8,35.2c-0.2-0.1-0.4-0.2-0.5-0.2s-0.3,0.1-0.5,0.3c-0.3,0.2-0.4,0.5-0.3,0.9c0.1,0.3,0.2,0.5,0.3,0.6s0.3,0.2,0.5,0.2
		s0.4-0.1,0.4-0.2c0-0.2,0.1-0.4,0.1-0.6c0.1-0.2,0.2-0.4,0.2-0.5S104,35.3,103.8,35.2z M105.7,29.1c-0.3-0.6-0.6-1-0.8-1.3
		s-0.6-0.4-1.2-0.3c-0.6,0.1-0.9,0.4-0.9,0.8s0,0.9-0.1,1.5s-0.1,1-0.1,1.3s0.2,0.6,0.7,0.9c0.6,0.3,1.1,0.4,1.5,0.4
		s0.8-0.3,1.2-0.8s0.5-0.9,0.3-1.2C106.2,30,106,29.6,105.7,29.1z M104.9,39.2c-0.2-0.3-0.5-0.5-0.9-0.4c-0.2,0.1-0.3,0.1-0.4,0.3
		c0,0.1-0.1,0.3-0.1,0.5s0,0.4,0,0.5s0.1,0.2,0.3,0.3s0.4,0.1,0.4,0s0.2-0.2,0.4-0.4c0.1-0.2,0.3-0.3,0.3-0.4
		C105.1,39.5,105.1,39.4,104.9,39.2z M105.6,35.9l-0.4-0.3l-0.4,0.4l0.4,0.4h0.4C105.6,36.4,105.6,35.9,105.6,35.9z M107.7,39.8
		c-0.2-0.1-0.3-0.1-0.4-0.1c-0.1,0-0.2,0.1-0.4,0.2c-0.1,0.1-0.2,0.3-0.3,0.4s-0.1,0.2,0,0.4s0.2,0.3,0.3,0.3s0.3,0.1,0.5,0
		c0.2,0,0.3-0.1,0.4-0.2c0.1-0.1,0.1-0.2,0.2-0.4c0-0.2,0.1-0.4,0.1-0.5C108,40,107.9,39.9,107.7,39.8z M107.9,27.9l-0.5-0.1
		l-0.2,0.4l0.4,0.2l0.2-0.1L107.9,27.9z M108,34l-0.4-0.1l-0.1,0.4l0.4,0.3l0.4-0.3L108,34z M108.2,31.7c-0.2,0-0.4,0.1-0.5,0.4
		c-0.1,0.3-0.1,0.5,0.1,0.7c0.2,0.2,0.5,0.2,0.7,0c0.3-0.2,0.4-0.4,0.3-0.7c0-0.2-0.1-0.3-0.2-0.3C108.5,31.7,108.4,31.7,108.2,31.7
		z M110.3,22.8c-0.1-0.3-0.3-0.4-0.5-0.4s-0.4,0.1-0.7,0.1s-0.5,0.1-0.6,0.1c-0.2,0-0.3,0.2-0.3,0.4c-0.1,0.3-0.1,0.6,0,0.7
		s0.2,0.3,0.5,0.4c0.3,0.2,0.6,0.3,0.7,0.3c0.2,0,0.4-0.1,0.7-0.3c0.3-0.2,0.4-0.4,0.4-0.6C110.5,23.3,110.4,23.1,110.3,22.8z
		 M109.8,36.2l-0.5-0.3l-0.5,0.4l0.3,0.4l0.5,0.1L109.8,36.2z M110.6,28.1c-0.1-0.2-0.2-0.3-0.3-0.3s-0.3,0-0.5,0
		c-0.3,0-0.5,0.1-0.6,0.3c-0.1,0.1-0.1,0.3,0,0.3s0.1,0.2,0.3,0.3c0.1,0.1,0.2,0.2,0.3,0.3s0.2,0,0.4,0c0.2-0.1,0.3-0.2,0.4-0.3
		C110.6,28.4,110.6,28.3,110.6,28.1z M111.5,25c-0.1-0.1-0.3-0.3-0.4-0.3c-0.1-0.1-0.2-0.1-0.4,0s-0.2,0.1-0.2,0.3
		c0,0.1,0.1,0.3,0.1,0.4c0,0.2,0.1,0.4,0.3,0.4s0.3,0.1,0.4,0.1s0.2,0,0.3-0.2s0.1-0.3,0-0.4C111.8,25.2,111.7,25.1,111.5,25z
		 M113.5,40c0-0.4-0.1-0.7-0.2-0.9s-0.4-0.3-0.8-0.4c-0.4-0.1-0.7-0.2-0.9-0.2s-0.4,0.2-0.7,0.6c-0.2,0.3-0.2,0.5-0.1,0.6
		c0.2,0.2,0.4,0.4,0.6,0.7c0.1,0.2,0.3,0.3,0.4,0.4c0.1,0.1,0.3,0,0.5,0c0.4-0.1,0.6-0.2,0.8-0.2C113.4,40.6,113.5,40.4,113.5,40z
		 M113.4,37.2c0.9,0,1.4-0.2,1.6-0.7s0.3-1.2,0.4-2.3c0-0.4,0-1.1,0-1.8s0-1.4,0-1.8c-0.1-1-0.2-1.7-0.4-2.2s-0.7-0.8-1.6-0.8
		c-0.8,0-1.3,0.3-1.6,0.8s-0.4,1.3-0.4,2.2c0,0.4,0,1.1,0,1.8c0,0.7,0,1.4,0,1.8c0.1,1,0.2,1.8,0.4,2.3
		C112.1,37,112.6,37.2,113.4,37.2z M112.8,23.8l-0.4-0.3l-0.4,0.3l0.1,0.4l0.4-0.2L112.8,23.8z M115.6,39.3
		c-0.2-0.1-0.4-0.2-0.6-0.3c-0.1-0.1-0.3,0-0.5,0.2s-0.2,0.3-0.1,0.5c0.1,0.1,0.2,0.3,0.3,0.5s0.2,0.3,0.2,0.4
		c0.1,0.1,0.2,0.1,0.4,0.1c0.3,0,0.5-0.1,0.7-0.1s0.3-0.2,0.3-0.5s0-0.4-0.2-0.5C116.1,39.5,115.9,39.4,115.6,39.3z M116.6,41.7
		l-0.6-0.1l-0.3,0.6l0.5,0.2l0.4-0.1L116.6,41.7L116.6,41.7z M117.3,24.8c-0.1-0.2-0.2-0.3-0.3-0.4c-0.1,0-0.3,0-0.5,0
		s-0.3,0.1-0.3,0.2s0,0.2-0.1,0.4c0,0.2-0.1,0.4-0.1,0.5s0,0.2,0.2,0.3s0.4,0.2,0.6,0.2c0.1,0,0.3-0.1,0.5-0.3
		c0.2-0.2,0.3-0.3,0.2-0.5C117.5,25.2,117.4,25,117.3,24.8z M118,22.2c-0.1-0.2-0.2-0.3-0.4-0.2c-0.1,0.1-0.3,0.1-0.6,0.1
		c-0.2,0-0.3,0-0.4,0c-0.1,0-0.1,0.1-0.2,0.3c-0.1,0.2-0.2,0.4-0.2,0.6c0,0.1,0,0.3,0.2,0.4s0.4,0.2,0.5,0.2s0.3-0.1,0.5-0.3
		c0.2-0.2,0.3-0.3,0.4-0.4C118.1,22.7,118.1,22.5,118,22.2z M122.2,26.9c-0.5-0.7-1-1.2-1.4-1.4c-0.4-0.2-1-0.2-1.9,0.1
		c-0.8,0.3-1.2,0.7-1.2,1.2s0,1.2,0,2c0,0.6,0.2,1,0.5,1.2s0.7,0.3,1.4,0.5c0.6,0.2,1,0.3,1.3,0.3s0.7-0.2,1-0.7
		c0.4-0.6,0.7-1.2,0.9-1.5C122.8,28,122.7,27.5,122.2,26.9z M120.3,39.6c-0.2-0.2-0.4-0.3-0.5-0.3c-0.2,0-0.4,0.1-0.7,0.2
		s-0.5,0.3-0.6,0.4c-0.1,0.1-0.2,0.3-0.2,0.6c0.1,0.4,0.2,0.8,0.2,1c0.1,0.2,0.3,0.4,0.7,0.5s0.7,0,0.7-0.3c0.1-0.2,0.2-0.6,0.4-0.9
		c0.1-0.3,0.2-0.5,0.2-0.7C120.6,40,120.5,39.8,120.3,39.6z M124.7,34.2c-0.2-0.6-0.6-0.9-0.9-0.8c-0.4,0.1-0.9,0.1-1.6,0.2
		c-0.5,0.1-0.9,0.2-1.1,0.3c-0.2,0.1-0.4,0.5-0.5,1s-0.1,0.9,0,1.2s0.4,0.5,0.8,0.8c0.6,0.4,1,0.6,1.4,0.8c0.3,0.2,0.8,0,1.3-0.4
		c0.6-0.5,0.9-1,1-1.4C125.1,35.5,125,34.9,124.7,34.2z"/>
	<path class="st0" d="M130.7,43.8c-0.3,0-0.6-0.1-0.8-0.4c-0.2-0.2-0.4-0.5-0.4-0.8V22.2c0-0.3,0.1-0.6,0.4-0.8
		c0.2-0.2,0.5-0.4,0.8-0.4h7.7c0.3,0,0.6,0.1,0.8,0.4c0.2,0.2,0.4,0.5,0.4,0.8v1.5c0.7-0.9,1.7-1.6,3-2.2s2.7-0.9,4.3-0.9
		c1.5,0,2.9,0.4,4.2,1.1s2.3,1.8,3.1,3.3s1.2,3.4,1.2,5.7v12.1c0,0.3-0.1,0.6-0.4,0.8c-0.2,0.2-0.5,0.4-0.8,0.4h-8.4
		c-0.3,0-0.6-0.1-0.8-0.4s-0.4-0.5-0.4-0.8v-12c0-1.6-0.7-2.4-2.2-2.4s-2.2,0.8-2.2,2.4v11.8c0,0.3-0.1,0.6-0.4,0.8
		c-0.3,0.2-0.5,0.4-0.8,0.4C139,43.8,130.7,43.8,130.7,43.8z M131.3,30.6l-0.4-0.3l-0.3,0.4l0.2,0.3l0.4,0.1L131.3,30.6z
		 M131.9,41.5h-0.6l-0.4,0.4l0.3,0.6l0.6-0.3L131.9,41.5z M133.1,21.8c-0.3,0-0.5,0-0.6,0s-0.3,0.2-0.4,0.4s-0.2,0.4-0.1,0.5
		c0,0.1,0.2,0.3,0.4,0.5s0.3,0.3,0.5,0.4c0.1,0.1,0.3,0,0.6-0.1s0.4-0.3,0.5-0.4s0.1-0.3,0-0.6s-0.1-0.5-0.3-0.6
		C133.6,21.9,133.4,21.8,133.1,21.8z M133.2,28.1c-0.4-0.1-0.6,0-0.8,0.3c-0.1,0.2-0.2,0.4-0.3,0.5s0,0.3,0.1,0.5
		c0.2,0.2,0.3,0.3,0.5,0.2c0.1-0.1,0.3-0.1,0.6-0.2c0.2-0.1,0.3-0.2,0.3-0.3s0-0.2,0-0.4s0-0.4-0.1-0.4S133.3,28.2,133.2,28.1z
		 M133.5,25.7c-0.1-0.1-0.2-0.2-0.2-0.2c-0.1,0-0.2,0-0.4,0c-0.3,0.1-0.4,0.2-0.4,0.4s0.1,0.4,0.3,0.5s0.4,0,0.5-0.1
		s0.2-0.2,0.2-0.3C133.6,26,133.6,25.9,133.5,25.7z M134.1,39.9c-0.2-0.2-0.4-0.3-0.5-0.4s-0.3,0-0.5,0.1s-0.4,0.3-0.4,0.4
		s0,0.4,0.1,0.6c0.1,0.3,0.2,0.5,0.2,0.6c0.1,0.1,0.2,0.2,0.5,0.2s0.5,0,0.6-0.1s0.3-0.3,0.4-0.5s0.1-0.4,0-0.5
		C134.4,40.3,134.3,40.1,134.1,39.9z M133.4,38.1l-0.4-0.2l-0.2,0.4l0.3,0.3h0.5L133.4,38.1z M135.9,32.7c-0.3-0.4-0.6-0.7-0.8-0.8
		s-0.6-0.1-1.1,0c-0.5,0.1-0.7,0.3-0.7,0.6s-0.1,0.6-0.1,1.1s0,0.8,0,1.1s0.3,0.5,0.7,0.7c0.4,0.1,0.7,0.1,0.9-0.1
		c0.2-0.2,0.4-0.5,0.6-0.9c0.3-0.4,0.5-0.6,0.7-0.8C136.2,33.3,136.1,33.1,135.9,32.7z M135.5,22.9l-0.4-0.2l-0.4,0.2v0.6h0.6
		L135.5,22.9z M137.9,27.3c-0.1-0.2-0.3-0.4-0.4-0.6c-0.1-0.2-0.3-0.2-0.6-0.1s-0.5,0.2-0.5,0.4s-0.1,0.4-0.1,0.7
		c0,0.4,0.2,0.7,0.6,0.9c0.2,0.1,0.4,0,0.4,0s0.2-0.2,0.4-0.4c0.1-0.1,0.2-0.3,0.3-0.4C138.1,27.7,138,27.5,137.9,27.3z M137.2,25.4
		l-0.4-0.3l-0.4,0.2l0.2,0.4l0.5,0.1L137.2,25.4z M138.6,40.4c-0.3-0.3-0.6-0.3-0.9-0.1s-0.5,0.3-0.6,0.4c-0.2,0.1-0.2,0.3-0.1,0.6
		c0.1,0.4,0.1,0.6,0.3,0.8c0.1,0.2,0.4,0.3,0.7,0.3s0.5,0,0.6-0.2s0.2-0.4,0.3-0.7c0.1-0.2,0.1-0.4,0.1-0.5
		C138.9,40.7,138.7,40.6,138.6,40.4z M138.3,31.4c-0.1-0.3-0.2-0.5-0.5-0.6s-0.6,0.1-0.7,0.4s-0.1,0.5,0.1,0.7
		c0.1,0.1,0.3,0.2,0.4,0.2s0.2-0.1,0.4-0.1c0.1-0.1,0.3-0.2,0.3-0.2C138.3,31.7,138.3,31.6,138.3,31.4z M138.2,35.6
		c-0.2,0-0.4,0-0.4,0.2c-0.1,0.1-0.2,0.3-0.2,0.4c-0.1,0.1-0.1,0.2,0.1,0.3c0.2,0.2,0.5,0.3,0.8,0.1c0.1-0.1,0.2-0.1,0.2-0.2
		s0-0.2,0-0.4C138.6,35.7,138.4,35.6,138.2,35.6z M138.3,37.7l-0.5-0.1v0.5l0.3,0.3l0.4-0.3L138.3,37.7z M139.2,25.7l-0.5-0.3
		l-0.3,0.5l0.2,0.4h0.5L139.2,25.7z M141.2,25.8c-0.3-0.1-0.5-0.1-0.6-0.2c-0.1,0-0.3,0.1-0.5,0.3s-0.2,0.4-0.2,0.5
		c0.1,0.1,0.2,0.3,0.3,0.5s0.2,0.3,0.4,0.4c0.1,0,0.3,0,0.5,0c0.2-0.1,0.4-0.1,0.5-0.2s0.2-0.3,0.2-0.5c0-0.3,0-0.4-0.1-0.5
		S141.4,25.9,141.2,25.8z M144.7,25.6c-0.2-0.1-0.4-0.1-0.5-0.1s-0.3,0.1-0.4,0.3s-0.2,0.4-0.3,0.5c0,0.1,0,0.3,0.2,0.6
		c0.1,0.2,0.3,0.2,0.4,0.2s0.3-0.1,0.6-0.2s0.5-0.3,0.5-0.7C145.2,25.9,145,25.7,144.7,25.6z M150.5,32.7c-0.5-0.4-1-0.7-1.3-0.8
		s-0.8,0-1.3,0.4c-0.6,0.5-1.1,0.9-1.4,1.2c-0.3,0.4-0.3,0.9-0.1,1.7c0.3,0.8,0.6,1.3,1,1.5s1,0.3,1.9,0.3c0.7,0,1.2-0.2,1.4-0.5
		s0.4-0.8,0.7-1.5c0.2-0.6,0.2-1,0.1-1.3C151.3,33.4,151,33.1,150.5,32.7z M148.4,40.8c-0.3-0.1-0.5-0.1-0.6,0.1
		c-0.1,0.2-0.1,0.4,0,0.6c0.2,0.3,0.4,0.4,0.6,0.3s0.3-0.2,0.3-0.5S148.6,40.9,148.4,40.8z M150.5,26.9c-0.3-0.2-0.5-0.4-0.7-0.5
		s-0.4-0.1-0.7,0.1c-0.4,0.2-0.5,0.4-0.5,0.6s0.1,0.5,0.2,0.9s0.1,0.7,0.2,0.9s0.3,0.4,0.7,0.4s0.7-0.1,0.8-0.2
		c0.1-0.2,0.3-0.5,0.5-0.9c0.1-0.3,0.1-0.6,0.1-0.7C150.9,27.3,150.8,27.1,150.5,26.9z M149.9,39l-0.3-0.4l-0.4,0.4l0.2,0.3h0.3
		L149.9,39z M154.1,41.1c-0.2-0.2-0.3-0.2-0.5-0.2c-0.1,0.1-0.3,0.2-0.4,0.2c-0.1,0.1-0.1,0.2-0.1,0.4c0,0.1,0.1,0.2,0.2,0.3
		c0.1,0,0.2,0.1,0.4,0.1c0.3,0,0.5,0,0.6-0.2c0.1-0.1,0.1-0.2,0-0.3C154.3,41.3,154.3,41.2,154.1,41.1z M154,30.1l-0.3-0.1l-0.4,0.2
		l0.2,0.4h0.4L154,30.1C153.9,30.1,154,30.1,154,30.1z M154.6,37.1L154,37l-0.2,0.4l0.1,0.4l0.4-0.2L154.6,37.1z"/>
	<path class="st0" d="M168,44.3c-1.7,0-3.2-0.3-4.6-1s-2.5-1.8-3.3-3.3s-1.3-3.5-1.4-5.9c0-0.7,0-1.3,0-1.8s0-1.1,0-1.7
		c0.1-2.3,0.5-4.2,1.4-5.7c0.8-1.5,1.9-2.6,3.3-3.3s2.9-1.1,4.6-1.1c1.2,0,2.3,0.2,3.3,0.5c1,0.4,1.8,0.9,2.5,1.5v-8.8
		c0-0.3,0.1-0.6,0.4-0.8c0.2-0.2,0.5-0.4,0.8-0.4h8.1c0.3,0,0.6,0.1,0.8,0.4c0.2,0.2,0.4,0.5,0.4,0.8v28.9c0,0.3-0.1,0.6-0.4,0.8
		c-0.2,0.2-0.6-0.5-0.9-0.5l-3.4-1.3l-1.7,0.1l-2.3,2.1c-0.3,0-0.6-0.1-0.8-0.4c-0.2-0.2-0.4-0.5-0.4-0.8v-1
		c-0.7,0.8-1.6,1.4-2.6,1.9S169.5,44.3,168,44.3z M162,33.6c0-0.2-0.1-0.4-0.3-0.4c-0.1,0-0.2,0-0.3,0c-0.1,0.1-0.1,0.1-0.2,0.3
		c-0.1,0.1-0.2,0.2-0.2,0.3c-0.1,0.1,0,0.2,0,0.3c0.1,0.1,0.2,0.2,0.3,0.2s0.2-0.1,0.4-0.1C161.9,34,162,33.9,162,33.6z M162.7,35.2
		c-0.1-0.2-0.3-0.2-0.4-0.1c-0.1,0.1-0.3,0.2-0.4,0.3c-0.2,0.1-0.3,0.1-0.4,0.2c-0.1,0.1-0.1,0.2-0.1,0.4s0.1,0.4,0.1,0.5
		c0.1,0.1,0.2,0.2,0.4,0.2s0.4,0,0.5,0c0.1-0.1,0.2-0.2,0.3-0.4s0.2-0.4,0.2-0.5C162.9,35.5,162.8,35.4,162.7,35.2z M165.1,26.6
		c-0.1-0.5-0.2-0.8-0.4-0.9c-0.2-0.2-0.5-0.3-1-0.4s-0.8,0-1,0.1s-0.4,0.4-0.6,0.9c-0.2,0.4-0.2,0.6,0,0.8s0.4,0.4,0.6,0.6
		c0.4,0.3,0.6,0.6,0.8,0.8s0.4,0.2,0.9,0c0.4-0.2,0.7-0.5,0.8-0.7C165.2,27.5,165.2,27.1,165.1,26.6z M166.4,38.1
		c-0.6-0.4-1-0.8-1.4-1s-0.8-0.1-1.4,0.3c-0.4,0.2-0.6,0.5-0.6,0.7c0,0.3,0,0.6,0.2,0.9c0.1,0.3,0.3,0.7,0.4,1.1
		c0.1,0.5,0.2,0.9,0.3,1.3c0,0.4,0.1,0.7,0.3,0.9c0.1,0.2,0.5,0.3,1,0.4c0.5,0,0.8-0.1,0.9-0.3c0.1-0.2,0.2-0.5,0.3-0.9
		s0.2-0.8,0.3-1.2c0.2-0.5,0.3-0.9,0.4-1.2C167,38.7,166.9,38.4,166.4,38.1z M167.9,29.8c-0.2-0.2-0.4-0.3-0.5-0.3
		c-0.2,0-0.4,0.1-0.7,0.2s-0.6,0.2-0.7,0.3c-0.2,0.1-0.2,0.3-0.2,0.6c0,0.4,0.1,0.6,0.2,0.7s0.4,0.2,0.7,0.3s0.5,0.1,0.7,0
		c0.1-0.1,0.3-0.3,0.4-0.6c0.2-0.3,0.3-0.5,0.4-0.7C168.2,30.2,168.1,30,167.9,29.8z M168,34.6c0-0.3-0.1-0.4-0.2-0.5
		s-0.3-0.2-0.6-0.2c-0.3-0.1-0.6-0.1-0.7-0.1c-0.2,0-0.3,0.1-0.5,0.4c-0.2,0.3-0.3,0.6-0.3,0.8s0.2,0.4,0.4,0.7
		c0.2,0.2,0.4,0.3,0.6,0.3s0.4-0.1,0.7-0.2c0.3-0.1,0.4-0.3,0.5-0.4C168.1,35.1,168.1,34.9,168,34.6z M169.2,22.9
		c-0.3-0.1-0.5-0.1-0.6,0s-0.3,0.3-0.5,0.5c-0.3,0.3-0.3,0.7-0.1,1s0.3,0.6,0.4,0.8s0.3,0.3,0.7,0.2s0.7-0.2,0.8-0.4
		s0.2-0.5,0.2-0.9s0-0.6-0.2-0.8C169.8,23.2,169.6,23.1,169.2,22.9z M171.6,36.4c0.8,0,1.4-0.2,1.7-0.7s0.5-1.1,0.5-1.9
		c0.1-0.7,0.1-1.2,0.1-1.7c0-0.4,0-1-0.1-1.6c0-0.7-0.2-1.2-0.5-1.6s-0.9-0.6-1.6-0.6c-0.8,0-1.4,0.2-1.7,0.7s-0.5,1.1-0.5,1.9
		c-0.1,1-0.1,1.9,0,2.9c0.1,0.8,0.3,1.4,0.5,1.9S170.8,36.4,171.6,36.4z M171.8,40.5c-0.2-0.2-0.3-0.4-0.4-0.6
		c-0.1-0.2-0.2-0.2-0.5-0.2c-0.4,0.1-0.6,0.2-0.7,0.3s-0.2,0.4-0.2,0.7c0,0.4,0,0.7,0.1,0.8c0.1,0.2,0.3,0.3,0.7,0.5
		c0.4,0.1,0.6,0.2,0.8,0.1s0.4-0.2,0.6-0.5c0.2-0.2,0.2-0.4,0.1-0.6C172.1,41,172,40.8,171.8,40.5z M171.7,25.7
		c0-0.1-0.1-0.3-0.1-0.4s-0.1-0.1-0.3-0.1s-0.3,0-0.3,0.1s-0.1,0.2-0.1,0.4s-0.1,0.3-0.1,0.4s0,0.2,0.1,0.3c0.3,0.2,0.6,0.2,0.8,0
		c0.1-0.1,0.2-0.2,0.1-0.3C171.8,25.9,171.7,25.8,171.7,25.7z M176.3,39.4c-0.2-0.1-0.3-0.2-0.4-0.3c-0.1,0-0.2,0-0.4,0.1
		s-0.3,0.3-0.4,0.4c-0.1,0.1,0,0.3,0,0.5c0.1,0.3,0.2,0.4,0.3,0.6c0.1,0.1,0.3,0.2,0.5,0.2c0.3,0,0.4-0.1,0.5-0.2s0.1-0.3,0.2-0.5
		s0.1-0.3,0-0.4S176.4,39.6,176.3,39.4z M175.6,19.6l-0.4,0.1v0.4l0.4,0.1l0.3-0.3L175.6,19.6z M175.9,37l-0.3-0.2l-0.4,0.2l0.1,0.4
		l0.4-0.1L175.9,37z M180.8,27.7c-0.7-0.5-1.3-0.8-1.7-0.8s-1,0.2-1.7,0.7s-1.2,1-1.4,1.5c-0.2,0.4-0.1,1.1,0.2,1.9
		c0.3,0.9,0.6,1.4,1,1.7c0.4,0.2,1.1,0.4,2,0.4c1,0,1.7-0.1,2.1-0.3c0.5-0.2,0.8-0.8,1.1-1.7s0.3-1.5,0-1.9
		C182.1,28.8,181.5,28.2,180.8,27.7z M179.7,17.8c-0.5-0.3-0.8-0.4-1.1-0.4s-0.6,0.1-1,0.5s-0.7,0.7-0.7,0.9c-0.1,0.3,0,0.7,0.2,1.2
		s0.4,0.7,0.7,0.8s0.7,0.1,1.2,0c0.6-0.1,1-0.1,1.3-0.2s0.5-0.4,0.6-0.9c0.1-0.6,0.1-0.9-0.2-1.2C180.5,18.4,180.2,18.1,179.7,17.8z
		 M179.1,22.5c-0.3-0.2-0.5-0.3-0.7-0.3s-0.4,0.1-0.7,0.3c-0.3,0.1-0.4,0.3-0.4,0.5s0,0.4,0.1,0.7s0.1,0.5,0.2,0.7
		c0.1,0.1,0.3,0.2,0.6,0.3c0.4,0,0.6,0,0.7-0.1s0.3-0.3,0.4-0.6s0.2-0.6,0.1-0.7C179.3,23.2,179.3,22.7,179.1,22.5z M181.5,34.3
		c-0.4-0.2-0.7-0.3-0.9-0.2s-0.5,0.3-0.8,0.6s-0.5,0.6-0.6,0.8s0,0.5,0.2,0.9s0.4,0.5,0.6,0.5s0.5-0.1,0.9-0.2
		c0.3-0.1,0.5-0.1,0.7-0.2c0.1-0.1,0.2-0.3,0.3-0.6c0.1-0.4,0.1-0.7,0.1-1C182.1,34.6,181.9,34.4,181.5,34.3z M182.9,40.2
		c-0.2-0.5-0.4-0.8-0.6-1s-0.5-0.3-1-0.2c-0.6,0.1-1,0.2-1.2,0.4s-0.4,0.5-0.5,1.1c-0.1,0.5,0,0.8,0.3,0.9s0.6,0.3,1.1,0.5
		c0.4,0.2,0.6,0.3,0.9,0.3c0.2,0,0.5-0.1,0.8-0.4s0.5-0.5,0.5-0.8C183.1,40.9,183,40.6,182.9,40.2z M181.1,13.6
		c-0.3-0.1-0.5-0.1-0.7-0.1c-0.2,0.1-0.3,0.2-0.5,0.4s-0.2,0.4-0.1,0.5s0.2,0.3,0.3,0.5c0.2,0.3,0.4,0.5,0.7,0.4
		c0.2-0.1,0.4-0.1,0.5-0.2c0.1-0.1,0.2-0.2,0.2-0.4c0-0.3,0-0.5,0-0.6C181.5,13.9,181.3,13.8,181.1,13.6z"/>
</g>
<g>
	<path class="st0" d="M102.9,72c-2.1,0-4-0.3-5.7-0.9s-3-1.5-3.9-2.9c-1-1.4-1.4-3.3-1.4-5.7v-5.7h-3.5c-0.3,0-0.6-0.1-0.8-0.4
		c-0.2-0.2-0.4-0.5-0.4-0.8v-5.2c0-0.3,0.1-0.6,0.4-0.8c0.2-0.2,0.5-0.4,0.8-0.4h3.5V42c0-0.3,0.1-0.6,0.4-0.8
		c0.2-0.2,0.5-0.4,0.8-0.4h7.7c0.3,0,0.6,0.1,0.8,0.4c0.2,0.2,0.4,0.5,0.4,0.8v7.2h5.5c0.3,0,0.6,0.1,0.8,0.4
		c0.2,0.2,0.4,0.5,0.4,0.8v5.3c0,0.3-0.1,0.6-0.4,0.8c-0.2,0.2-0.5,0.4-0.8,0.4H102v4.8c0,0.7,0.2,1.2,0.5,1.6s0.8,0.6,1.4,0.6h4
		c0.3,0,0.6,0.1,0.8,0.4c0.2,0.2,0.4,0.5,0.4,0.8v5.8c0,0.3-0.1,0.6-0.4,0.8c-0.2,0.2-0.5,0.4-0.8,0.4L102.9,72L102.9,72z
		 M91.2,51.5c0-0.2-0.1-0.3-0.2-0.4c-0.1,0-0.3-0.1-0.5-0.1s-0.4,0-0.5,0s-0.2,0.1-0.3,0.4c-0.1,0.2-0.1,0.4-0.1,0.5
		s0.1,0.3,0.3,0.4c0.2,0.2,0.4,0.3,0.5,0.3s0.3,0,0.6-0.2c0.2-0.1,0.3-0.3,0.3-0.4C91.3,51.9,91.2,51.7,91.2,51.5z M90.8,55
		l-0.4-0.2l-0.1,0.5l0.2,0.3l0.4-0.1L90.8,55z M92.6,53.2c-0.1,0-0.2-0.1-0.3-0.1s-0.2,0-0.3,0.2c-0.2,0.3-0.2,0.5,0,0.7
		c0.1,0.1,0.2,0.2,0.3,0.2s0.2-0.1,0.4-0.1c0.2-0.1,0.3-0.2,0.3-0.5C92.9,53.3,92.8,53.2,92.6,53.2z M96.9,48.6
		c-0.7-0.4-1.3-0.6-1.7-0.8c-0.4-0.2-0.9,0-1.5,0.6s-0.7,1-0.6,1.5c0.2,0.4,0.5,1,0.9,1.7s0.7,1.2,0.9,1.4c0.2,0.2,0.8,0.4,1.5,0.2
		c0.7-0.1,1.2-0.4,1.4-0.7c0.2-0.4,0.4-0.9,0.4-1.6c0.1-0.7,0.1-1.2-0.2-1.4S97.5,48.9,96.9,48.6z M94.8,58.8
		c-0.1-0.2-0.1-0.4-0.2-0.5s-0.2-0.1-0.5-0.1c-0.4,0-0.7,0.2-0.8,0.6c-0.1,0.2-0.1,0.4,0,0.5s0.2,0.2,0.4,0.4c0.3,0.2,0.6,0.2,1,0
		C94.8,59.4,94.9,59.1,94.8,58.8z M94,64.5h-0.4l-0.2,0.4l0.6-0.1V64.5L94,64.5z M96.2,56.3c0-0.2-0.1-0.4-0.2-0.4
		c-0.1-0.1-0.3-0.1-0.5-0.1c-0.3,0-0.5-0.1-0.7-0.1c-0.2-0.1-0.3,0-0.5,0.3c-0.1,0.3-0.2,0.5-0.1,0.6s0.3,0.3,0.5,0.6
		c0.2,0.2,0.3,0.2,0.5,0.2c0.1,0,0.3-0.1,0.5-0.2s0.4-0.2,0.4-0.3S96.2,56.5,96.2,56.3z M95.4,45.9c-0.1-0.2-0.2-0.4-0.5-0.4
		c-0.1,0-0.3,0-0.4,0s-0.2,0.1-0.3,0.2c-0.1,0.3-0.1,0.5,0.1,0.7c0.1,0.1,0.2,0.2,0.3,0.1s0.2-0.1,0.4-0.2
		C95.3,46.2,95.4,46.1,95.4,45.9z M96.3,43.7l-0.4-0.4l-0.5,0.1l0.2,0.5l0.4,0.3L96.3,43.7z M99.6,62.3c-0.7-0.3-1.2-0.4-1.5-0.1
		c-0.3,0.2-0.8,0.7-1.3,1.3c-0.5,0.5-0.8,1-0.9,1.3c-0.1,0.4,0,0.8,0.3,1.4c0.4,0.7,0.8,1.2,1.1,1.5c0.4,0.3,0.9,0.3,1.7,0.2
		s1.3-0.4,1.5-0.8s0.3-1,0.4-1.8s0.1-1.4-0.1-1.8S100.4,62.6,99.6,62.3z M99.1,42.1c-0.3-0.2-0.5-0.2-0.6-0.2
		c-0.2,0.1-0.3,0.2-0.6,0.4c-0.2,0.2-0.4,0.4-0.5,0.5s-0.1,0.4,0.1,0.7c0.1,0.3,0.2,0.5,0.4,0.5c0.1,0.1,0.4,0.1,0.7,0
		c0.3,0,0.5-0.1,0.6-0.2s0.2-0.3,0.2-0.6c0.1-0.3,0.1-0.5,0.1-0.7C99.5,42.4,99.4,42.2,99.1,42.1z M99,59c-0.2-0.1-0.3-0.2-0.4-0.1
		c-0.1,0-0.3,0.1-0.4,0.2c-0.2,0.1-0.3,0.2-0.3,0.3c0,0.1,0,0.2,0,0.4c0.1,0.3,0.2,0.5,0.2,0.6c0.1,0.1,0.2,0.2,0.5,0.2
		s0.5-0.1,0.5-0.2c0.1-0.1,0.2-0.3,0.2-0.6c0.1-0.2,0.1-0.4,0-0.5C99.3,59.3,99.2,59.1,99,59z M98.8,55.3l-0.5-0.2L98,55.5l0.3,0.3
		h0.4L98.8,55.3z M99,45.1l-0.1-0.4l-0.3,0.2l-0.1,0.4h0.4L99,45.1z M102,53.9c0-0.3-0.2-0.5-0.6-0.6c-0.3-0.1-0.5-0.1-0.6-0.2
		c-0.2-0.1-0.3,0-0.5,0.3s-0.2,0.5-0.2,0.7s0.1,0.4,0.4,0.6c0.2,0.2,0.4,0.4,0.5,0.4c0.2,0,0.4-0.1,0.7-0.2c0.2-0.1,0.3-0.2,0.3-0.4
		C102.1,54.3,102,54.1,102,53.9z M101.5,69.1c0-0.2-0.1-0.3-0.2-0.3s-0.2-0.1-0.4-0.1c-0.2-0.1-0.4,0-0.5,0.3
		c-0.2,0.3-0.2,0.5,0,0.7c0.1,0.1,0.2,0.2,0.3,0.1c0.1,0,0.2-0.1,0.4-0.2c0.1-0.1,0.3-0.1,0.4-0.1C101.5,69.4,101.5,69.3,101.5,69.1
		z M105.1,66.9c-0.1-0.3-0.2-0.5-0.4-0.6c-0.1-0.1-0.4-0.1-0.7-0.1s-0.5,0.1-0.6,0.3c-0.1,0.1-0.2,0.4-0.2,0.7
		c-0.1,0.4-0.2,0.6-0.2,0.9c-0.1,0.2,0.1,0.4,0.4,0.6s0.6,0.3,0.8,0.2c0.2-0.1,0.5-0.3,0.7-0.5s0.4-0.4,0.4-0.6
		C105.3,67.4,105.2,67.2,105.1,66.9z M104.7,53.7l-0.4,0.1l0.1,0.4l0.4,0.1l0.1-0.4L104.7,53.7z M105.5,70.3l-0.4,0.1l0.1,0.5h0.4
		l0.3-0.3L105.5,70.3z M106.7,65.8l-0.3-0.3l-0.3,0.3v0.4h0.5L106.7,65.8z"/>
	<path class="st0" d="M113.4,72c-0.3,0-0.6-0.1-0.8-0.4c-0.2-0.2-0.4-0.5-0.4-0.8V42c0-0.3,0.1-0.6,0.4-0.8c0.2-0.2,0.5-0.4,0.8-0.4
		h8.6c0.3,0,0.6,0.1,0.8,0.4c0.2,0.2,0.4,0.5,0.4,0.8v9.5c0.8-0.9,1.7-1.5,2.9-2s2.4-0.7,3.8-0.7c1.5,0,2.9,0.4,4.2,1.1
		c1.3,0.7,2.4,1.8,3.3,3.3s1.3,3.4,1.3,5.7V71c0,0.3-0.1,0.6-0.4,0.8c-0.2,0.2-0.5,0.4-0.8,0.4h-8.6c-0.3,0-0.6-0.1-0.8-0.4
		c-0.2-0.2-0.4-0.5-0.4-0.8V59c0-1.6-0.7-2.4-2.2-2.4s-2.2,0.8-2.2,2.4v11.8c0,0.3-0.1,0.6-0.4,0.8c-0.2,0.2-0.5,0.4-0.8,0.4
		C122.1,72,113.4,72,113.4,72z M114.7,63.8c-0.1-0.2-0.2-0.3-0.2-0.4c-0.1-0.1-0.2-0.1-0.4-0.1c-0.3,0.1-0.5,0.1-0.6,0.1
		c-0.2,0-0.3,0.2-0.3,0.4c0,0.3,0,0.4,0.2,0.5c0.1,0.1,0.4,0.2,0.6,0.3c0.2,0.1,0.4,0.3,0.6,0.3c0.1,0.1,0.3,0,0.5-0.2
		s0.2-0.4,0.1-0.5C115,64.2,114.9,64.1,114.7,63.8z M114.1,54.2l-0.5-0.4l-0.4,0.4l0.1,0.4h0.4L114.1,54.2z M116.1,67.1
		c-0.5-0.2-0.9-0.2-1.1,0s-0.5,0.5-0.9,1s-0.6,0.8-0.7,1.1c-0.1,0.3-0.1,0.7,0.2,1.1c0.3,0.5,0.6,0.7,0.9,0.7s0.7-0.1,1.3-0.2
		c0.5-0.1,0.8-0.3,0.9-0.5s0.2-0.6,0.2-1.1c0-0.6,0-1,0-1.3C116.9,67.5,116.7,67.2,116.1,67.1z M114.1,61.7l-0.4-0.3l-0.3,0.4v0.4
		l0.5,0.1L114.1,61.7z M114,48.6l-0.3,0.1l-0.1,0.3l0.4,0.2l0.2-0.4L114,48.6z M115.4,52.5c-0.1-0.2-0.2-0.4-0.3-0.5
		c-0.1-0.1-0.2-0.2-0.4-0.1c-0.4,0.1-0.7,0.4-0.7,0.8c0,0.3,0,0.4,0.1,0.5s0.3,0.1,0.5,0.3c0.1,0.1,0.3,0.1,0.4,0
		c0.1,0,0.2-0.1,0.3-0.3C115.4,52.9,115.5,52.7,115.4,52.5z M116.8,48.4c-0.2-0.1-0.4-0.2-0.5-0.1s-0.3,0.2-0.6,0.4
		c-0.2,0.1-0.3,0.3-0.4,0.4s-0.1,0.3,0,0.5c0.1,0.3,0.2,0.5,0.3,0.7c0.1,0.2,0.3,0.2,0.6,0.2c0.3,0,0.5-0.1,0.6-0.3s0.2-0.4,0.2-0.7
		c0.1-0.3,0.1-0.5,0.1-0.6C117.2,48.8,117.1,48.6,116.8,48.4z M119.7,60.4c-0.4-0.3-0.7-0.4-0.9-0.4s-0.6,0.2-0.9,0.4
		c-0.4,0.2-0.6,0.4-0.6,0.6c-0.1,0.2-0.1,0.5,0,0.9c0.1,0.5,0.2,0.8,0.3,1.1c0.1,0.2,0.4,0.4,0.9,0.5c0.5,0,0.8-0.1,1-0.3
		c0.1-0.2,0.3-0.6,0.5-1s0.3-0.8,0.3-1C120.3,61,120.1,60.8,119.7,60.4z M120.4,54.8c-0.3-0.4-0.6-0.6-0.8-0.5
		c-0.3,0.1-0.6,0.2-1.1,0.3c-0.4,0.1-0.6,0.3-0.8,0.4s-0.2,0.4-0.2,0.8s0.1,0.7,0.2,0.9c0.1,0.2,0.3,0.3,0.7,0.5
		c0.4,0.1,0.7,0.2,1,0.2c0.2,0,0.5-0.2,0.7-0.5c0.3-0.4,0.5-0.7,0.6-1C120.7,55.5,120.6,55.2,120.4,54.8z M119,45.1
		c-0.1-0.3-0.2-0.5-0.5-0.5c-0.2,0-0.4,0.1-0.5,0.4s-0.1,0.5,0.1,0.7c0.1,0.1,0.2,0.1,0.3,0s0.2-0.1,0.3-0.2s0.2-0.1,0.3-0.2
		C119,45.3,119,45.2,119,45.1z M119.1,48.9l-0.2-0.4l-0.4,0.3l0.2,0.3l0.3,0.2L119.1,48.9z M121.3,65.8c-0.2-0.2-0.4-0.3-0.6-0.3
		s-0.4,0.1-0.7,0.3c-0.3,0.2-0.5,0.3-0.6,0.5c-0.1,0.1-0.2,0.4-0.1,0.7c0.1,0.4,0.2,0.7,0.3,1c0.1,0.2,0.4,0.4,0.8,0.4
		s0.7-0.1,0.7-0.3c0.1-0.2,0.2-0.6,0.4-1c0.1-0.3,0.2-0.5,0.2-0.7C121.7,66.3,121.5,66.1,121.3,65.8z M121,43.7
		c-0.3-0.1-0.5-0.2-0.6-0.2c-0.2,0-0.3,0.2-0.5,0.4s-0.3,0.4-0.4,0.5c0,0.1,0,0.4,0.2,0.6c0.1,0.3,0.2,0.4,0.4,0.4
		c0.1,0,0.4,0,0.6,0c0.2-0.1,0.4-0.1,0.5-0.2s0.2-0.2,0.3-0.5c0-0.3,0-0.5,0-0.7C121.4,44,121.3,43.8,121,43.7z M121.5,50l-0.4-0.2
		l-0.3,0.4l0.2,0.3l0.4-0.1L121.5,50z M122,56.6l-0.4-0.1v0.4h0.4l0.2-0.2L122,56.6z M125.1,53.2c-0.2,0-0.3,0-0.4,0.1
		s-0.1,0.2-0.3,0.4c-0.1,0.1-0.1,0.2,0,0.3c0,0.1,0.1,0.1,0.2,0.3c0.1,0.1,0.2,0.3,0.3,0.4s0.2,0.1,0.4,0s0.2-0.2,0.2-0.3
		s-0.1-0.3-0.1-0.5s-0.1-0.3-0.1-0.5C125.3,53.3,125.3,53.2,125.1,53.2z M130.8,57c0-0.3-0.1-0.5-0.2-0.6c-0.1-0.1-0.3-0.2-0.6-0.2
		c-0.2-0.1-0.4-0.1-0.5,0c-0.1,0.1-0.2,0.2-0.4,0.5c-0.2,0.4-0.2,0.7,0,1c0.3,0.3,0.6,0.4,1,0.3c0.3-0.1,0.5-0.2,0.6-0.3
		C130.8,57.4,130.8,57.2,130.8,57z M130.2,52.5l-0.6,0.1l-0.2,0.4l0.3,0.4l0.5-0.3L130.2,52.5L130.2,52.5z M131.3,63.2l-0.2-0.4
		l-0.4,0.2v0.5h0.4L131.3,63.2z M131.5,60l-0.4,0.3l-0.1,0.6l0.6-0.1l0.4-0.4L131.5,60z M132.2,66.8h-0.4l-0.2,0.4l0.3,0.4l0.3-0.3
		L132.2,66.8z M132.3,69.5h-0.5V70l0.4,0.1l0.2-0.4L132.3,69.5z M134.1,52.7c-0.3-0.3-0.5-0.4-0.7-0.5s-0.5,0-0.8,0.2
		c-0.4,0.2-0.6,0.4-0.6,0.6c-0.1,0.2-0.1,0.5,0,0.9c0.1,0.5,0.2,0.9,0.3,1.2c0.1,0.3,0.4,0.5,0.9,0.5s0.9-0.1,1-0.4
		c0.1-0.3,0.3-0.6,0.5-1.1c0.2-0.4,0.2-0.7,0.1-0.9C134.6,53.2,134.4,53,134.1,52.7z M136.5,59.1c-0.5-0.3-0.9-0.3-1.1,0
		s-0.6,0.6-1,1c-0.5,0.4-0.9,0.7-1.2,0.9c-0.3,0.2-0.4,0.6-0.2,1.1c0.3,0.6,0.6,0.9,0.9,1c0.4,0.1,0.9,0.1,1.5,0
		c0.6-0.1,1-0.2,1.2-0.4c0.2-0.2,0.4-0.6,0.6-1.1c0.1-0.6,0.2-1.1,0.2-1.5S137,59.4,136.5,59.1z M134.9,69.1
		c-0.2-0.3-0.5-0.4-0.9-0.3c-0.2,0-0.3,0.1-0.3,0.2s0,0.3,0,0.5s0,0.4-0.1,0.6c0,0.1,0,0.3,0.2,0.4s0.4,0.1,0.5,0
		c0.1-0.1,0.2-0.3,0.4-0.5c0.1-0.2,0.2-0.3,0.2-0.4C135,69.5,135,69.3,134.9,69.1z M134.6,57.1l-0.4-0.1l-0.2,0.4l0.2,0.4l0.4-0.3
		V57.1z M136.2,65.5c-0.2-0.1-0.3-0.2-0.4-0.2c-0.1,0-0.3,0.1-0.5,0.3c-0.2,0.1-0.4,0.3-0.5,0.4s-0.2,0.2-0.1,0.5s0.2,0.4,0.3,0.5
		c0.1,0,0.4,0.1,0.6,0.1c0.3,0,0.5,0,0.6-0.1s0.2-0.2,0.3-0.4C136.7,66.1,136.6,65.8,136.2,65.5z"/>
	<path class="st0" d="M154.2,72.5c-3.8,0-6.9-0.9-9.2-2.8s-3.4-4.9-3.4-9v-0.3c0.1-3.8,1.2-6.7,3.5-8.6c2.3-2,5.3-3,9-3
		c2.9,0,5.2,0.5,7.1,1.6c1.8,1.1,3.2,2.6,4.1,4.4c0.9,1.8,1.3,3.8,1.3,6v1.3c0,0.3-0.1,0.6-0.4,0.8c-0.2,0.2-0.5,0.4-0.8,0.4h-13.1
		v0.1c0,0.9,0.1,1.5,0.4,2c0.2,0.5,0.7,0.7,1.3,0.7c0.3,0,0.5-0.1,0.7-0.2s0.4-0.3,0.6-0.6c0.3-0.3,0.5-0.4,0.7-0.5s0.4-0.1,0.8-0.1
		h8.3c0.3,0,0.5,0.1,0.7,0.3c0.2,0.2,0.3,0.4,0.2,0.7c0,0.6-0.3,1.2-0.8,2S164,69.2,163,70c-1,0.7-2.2,1.3-3.7,1.8
		C157.9,72.2,156.2,72.5,154.2,72.5z M145.8,61.2c-0.4-0.1-0.6-0.1-0.8,0s-0.3,0.3-0.5,0.6c-0.1,0.3-0.2,0.5-0.1,0.6
		s0.2,0.3,0.4,0.6c0.1,0.2,0.3,0.3,0.4,0.4s0.3,0,0.5-0.1c0.4-0.1,0.6-0.4,0.6-0.8c0-0.3,0-0.6,0-0.8
		C146.3,61.5,146.1,61.3,145.8,61.2z M146,54.9c-0.2-0.1-0.3-0.1-0.4,0s-0.2,0.2-0.3,0.3c-0.2,0.2-0.3,0.3-0.5,0.4
		c-0.1,0.1-0.1,0.3,0,0.5s0.3,0.3,0.4,0.2c0.1-0.1,0.4-0.1,0.6-0.2c0.3-0.1,0.4-0.2,0.4-0.5c0-0.2,0-0.3,0-0.4
		C146.3,55.1,146.2,55,146,54.9z M147.6,59.1c-0.1-0.2-0.3-0.3-0.4-0.3c-0.1,0-0.3,0-0.6,0.1s-0.4,0.2-0.5,0.3s-0.1,0.3-0.1,0.6
		c0,0.3,0,0.6,0.1,0.7c0,0.2,0.2,0.3,0.5,0.4s0.6,0.1,0.7,0s0.3-0.3,0.5-0.6c0.2-0.2,0.2-0.4,0.2-0.6
		C147.9,59.5,147.8,59.3,147.6,59.1z M147.3,64.9c0-0.2,0-0.4,0-0.5s-0.1-0.2-0.2-0.2c-0.2-0.1-0.3-0.1-0.4,0s-0.2,0.2-0.3,0.4
		c-0.1,0.1-0.1,0.2-0.1,0.3s0.1,0.2,0.2,0.3c0.1,0.1,0.2,0.3,0.3,0.4s0.2,0.1,0.4,0.1c0.2-0.1,0.2-0.1,0.2-0.3
		C147.3,65.2,147.3,65,147.3,64.9z M147.8,52.2c-0.3,0-0.4,0.1-0.5,0.2c-0.1,0.1-0.1,0.3-0.2,0.6c-0.1,0.1-0.1,0.3,0,0.4
		c0.1,0.1,0.2,0.2,0.3,0.3s0.3,0.3,0.4,0.4s0.2,0.1,0.4,0s0.3-0.3,0.4-0.4s0-0.3,0-0.6c-0.1-0.3-0.1-0.5-0.2-0.6
		C148.3,52.3,148.1,52.2,147.8,52.2z M149.5,55.4c-0.4-0.2-0.6-0.2-0.8-0.2s-0.4,0.2-0.6,0.4c-0.3,0.3-0.4,0.5-0.4,0.7
		c0,0.2,0.1,0.4,0.3,0.8c0.1,0.3,0.3,0.4,0.5,0.4s0.4-0.1,0.8-0.2c0.3-0.1,0.5-0.1,0.7-0.2s0.3-0.2,0.3-0.5c0-0.4,0-0.6-0.1-0.8
		C150,55.7,149.8,55.5,149.5,55.4z M150.3,64.8c-0.3-0.3-0.6-0.3-0.9-0.1c-0.2,0.1-0.4,0.3-0.5,0.4s-0.1,0.3-0.1,0.5
		c0.1,0.3,0.2,0.4,0.3,0.4s0.4,0.1,0.6,0.1s0.5,0.1,0.6,0.1s0.3-0.1,0.4-0.3c0.1-0.2,0.1-0.4,0-0.5C150.6,65.2,150.5,65,150.3,64.8z
		 M149.7,68.5c-0.2,0-0.3,0-0.4,0.1c-0.1,0.1-0.2,0.2-0.2,0.4c-0.1,0.2-0.2,0.3-0.2,0.4s0,0.2,0.2,0.4c0.2,0.2,0.4,0.3,0.5,0.4
		s0.3,0.1,0.5-0.1c0.2-0.1,0.3-0.2,0.2-0.4c-0.1-0.2-0.1-0.3-0.1-0.6c0-0.2-0.1-0.3-0.1-0.4C150,68.6,149.9,68.6,149.7,68.5z
		 M149.8,59.5c-0.2,0-0.4,0-0.4,0.1c-0.1,0.1-0.1,0.3-0.3,0.5c-0.1,0.2-0.2,0.4-0.2,0.5c-0.1,0.1,0,0.3,0.2,0.4
		c0.2,0.2,0.4,0.3,0.5,0.3s0.4-0.1,0.6-0.2c0.2-0.1,0.4-0.3,0.5-0.4s0.1-0.3,0-0.6c-0.1-0.3-0.2-0.5-0.3-0.6
		C150.3,59.6,150.1,59.5,149.8,59.5z M151.3,67.6l-0.4-0.3l-0.3,0.4l0.3,0.3h0.4V67.6z M152.4,57.7h1.3c0-0.1-0.1-0.1-0.1-0.2
		c-0.1-0.5-0.2-1-0.3-1.4s0-0.7,0-1.1c0.2-0.1,0.5-0.2,0.8-0.2c1.2,0,1.8,0.9,1.8,2.8h-2.2c0.2,0.8,0.4,1.6,0.5,2.2s0.3,1.2,0.7,1.5
		c0.3,0.4,0.9,0.6,1.8,0.6c1.1,0,2-0.1,2.6-0.2c0.7-0.2,1.2-0.6,1.6-1.1c0.4-0.5,0.8-1.3,1.1-2.4c0.3-0.9,0.3-1.5,0.1-2
		s-0.7-0.9-1.3-1.2c-0.6-0.4-1.3-0.8-2-1.4c-0.9-0.6-1.5-1-2.1-1s-1.3,0.2-2.1,0.8c-0.7,0.5-1.2,1-1.3,1.5
		C152.7,55.4,152.4,56.3,152.4,57.7z M156.6,68c0-0.4-0.1-0.6-0.1-0.8c0-0.2-0.2-0.4-0.5-0.4c-0.4-0.1-0.8-0.2-1-0.2
		s-0.5,0.2-0.7,0.6s-0.3,0.6-0.1,0.8c0.2,0.2,0.4,0.4,0.6,0.7c0.2,0.3,0.4,0.4,0.6,0.5s0.4,0,0.7-0.1s0.5-0.3,0.5-0.4
		C156.6,68.5,156.7,68.3,156.6,68z M158.6,66c-0.1-0.1-0.1-0.2-0.2-0.3c-0.1,0-0.2,0-0.3,0c-0.3,0-0.4,0.1-0.5,0.3
		c-0.1,0.2,0,0.4,0.1,0.6c0.1,0.1,0.3,0.2,0.3,0.2s0.2,0,0.3,0c0.1-0.1,0.2-0.2,0.2-0.3C158.6,66.3,158.6,66.2,158.6,66z
		 M161.7,67.7c-0.1-0.4-0.3-0.6-0.4-0.8c-0.1-0.2-0.4-0.3-0.8-0.2c-0.5,0.1-0.8,0.1-1.1,0.3c-0.2,0.1-0.4,0.4-0.5,0.9
		c-0.1,0.4,0,0.7,0.2,0.9c0.2,0.2,0.5,0.4,0.9,0.6s0.7,0.4,0.9,0.5s0.5,0,0.9-0.4c0.4-0.3,0.4-0.6,0.3-0.8
		C162,68.4,161.9,68.1,161.7,67.7z"/>
</g>
<g>
	<path class="st1" d="M28.2,99.1c-0.3,0-0.6-0.1-0.8-0.4c-0.2-0.2-0.4-0.5-0.4-0.8V77.5c0-0.3,0.1-0.6,0.4-0.8
		c0.2-0.2,0.5-0.4,0.8-0.4h7.3c0.3,0,0.6,0.1,0.8,0.4c0.2,0.2,0.4,0.5,0.4,0.8V79c0.5-0.7,1.3-1.3,2.4-2c1.1-0.7,2.3-1,3.8-1.1
		c3.5-0.1,5.8,1.1,7,3.6c0.7-1,1.6-1.9,2.9-2.6c1.2-0.7,2.5-1,3.9-1c1.5,0,2.9,0.3,4.1,1c1.2,0.7,2.2,1.7,2.9,3.2
		c0.7,1.4,1.1,3.3,1.1,5.6V98c0,0.3-0.1,0.6-0.4,0.8c-0.2,0.2-0.5,0.4-0.8,0.4h-7.7c-0.3,0-0.6-0.1-0.8-0.4
		c-0.2-0.2-0.4-0.5-0.4-0.8V85.9c0-1.4-0.6-2.2-1.8-2.2c-1.1,0-1.7,0.7-1.7,2.2V98c0,0.3-0.1,0.6-0.4,0.8c-0.2,0.2-0.5,0.4-0.8,0.4
		h-7.7c-0.3,0-0.6-0.1-0.8-0.4c-0.2-0.2-0.4-0.5-0.4-0.8V85.9c0-1.4-0.6-2.2-1.8-2.2s-1.8,0.7-1.8,2.2V98c0,0.3-0.1,0.6-0.4,0.8
		c-0.2,0.2-0.5,0.4-0.8,0.4L28.2,99.1L28.2,99.1L28.2,99.1z M29.7,82.7c-0.1-0.2-0.3-0.2-0.4-0.2c-0.2,0.1-0.3,0.2-0.3,0.4
		c0,0.1,0,0.3,0,0.4c0,0.1,0.1,0.2,0.2,0.2c0.1,0.1,0.3,0.1,0.4,0.1s0.2-0.1,0.3-0.2c0.1-0.1,0.1-0.2,0.1-0.3S29.7,82.8,29.7,82.7z
		 M31.6,95.9c-0.1-0.3-0.2-0.5-0.5-0.4c-0.2,0-0.5,0-0.9,0c-0.3,0-0.5,0-0.6,0.1s-0.2,0.2-0.3,0.4c-0.1,0.3-0.1,0.5,0,0.6
		s0.2,0.3,0.4,0.4c0.3,0.2,0.5,0.3,0.6,0.4s0.3,0,0.6-0.2s0.5-0.4,0.7-0.6C31.8,96.5,31.8,96.3,31.6,95.9z M30.2,84.8h-0.4v0.4
		l0.4,0.2l0.4-0.4L30.2,84.8z M34.8,92.2c0-0.4-0.1-0.7-0.2-0.9c-0.1-0.2-0.4-0.3-0.8-0.5c-0.4-0.1-0.7-0.1-0.9-0.1
		c-0.2,0.1-0.4,0.2-0.7,0.6c-0.2,0.3-0.3,0.6-0.2,0.8c0.1,0.2,0.3,0.4,0.5,0.8c0.2,0.3,0.4,0.5,0.6,0.6s0.4,0.1,0.8,0
		s0.6-0.3,0.8-0.4C34.7,92.9,34.8,92.6,34.8,92.2z M33.2,78.1h-0.7l-0.3,0.6l0.5,0.2l0.6-0.1L33.2,78.1z M33.1,83.3l-0.4-0.1
		l-0.4,0.4l0.3,0.4l0.5-0.2L33.1,83.3L33.1,83.3z M33.9,79.6l-0.4,0.1l0.1,0.5h0.5l0.2-0.4L33.9,79.6z M35.2,95.2
		c-0.2-0.1-0.3-0.1-0.4,0s-0.2,0.2-0.3,0.4c-0.1,0.1-0.2,0.2-0.3,0.3s-0.1,0.2,0,0.4c0.1,0.2,0.2,0.3,0.3,0.4s0.2,0.1,0.5,0
		c0.2-0.1,0.3-0.1,0.2-0.3c0-0.1,0-0.3,0-0.5s0.1-0.4,0.1-0.5S35.3,95.2,35.2,95.2z M35.6,79.4l-0.5,0.2l0.2,0.5l0.6,0.2l0.2-0.7
		L35.6,79.4z M35.5,88.2l-0.4,0.1v0.3l0.3,0.2l0.2-0.3L35.5,88.2z M36.3,86.2L36,85.9l-0.4,0.3l0.2,0.3h0.3L36.3,86.2z M38.3,80.9
		l-0.4-0.3L37.5,81l0.2,0.4h0.4L38.3,80.9z M40.2,77.3l-0.4,0.2l0.1,0.5h0.6l0.2-0.5L40.2,77.3z M42.9,89.1
		c-0.2-0.1-0.3-0.2-0.4-0.1s-0.2,0.1-0.4,0.2s-0.2,0.4-0.1,0.7c0.1,0.2,0.1,0.3,0.2,0.4s0.2,0.1,0.4,0.1s0.3,0,0.3-0.1
		s0.1-0.2,0.2-0.4c0-0.2,0.1-0.3,0.1-0.4C43.2,89.3,43.1,89.2,42.9,89.1z M47.7,81.4c-0.2-0.9-0.4-1.5-0.7-1.8
		c-0.3-0.4-0.8-0.6-1.7-0.7c-0.9-0.1-1.4,0-1.7,0.4s-0.6,0.9-1,1.7c-0.3,0.6-0.4,1.2-0.3,1.5c0.1,0.4,0.4,0.8,0.9,1.3
		c0.6,0.6,1.2,1,1.6,1.3s1,0.2,1.7-0.2c0.8-0.4,1.2-0.9,1.3-1.4C47.9,82.9,47.8,82.2,47.7,81.4z M43.2,96.8l-0.4-0.4l-0.4,0.4
		l0.1,0.4h0.4L43.2,96.8z M45,93.3c-0.3-0.2-0.5-0.4-0.7-0.4s-0.4,0-0.8,0.2c-0.4,0.3-0.6,0.5-0.8,0.7s-0.2,0.5-0.1,0.9
		s0.3,0.6,0.6,0.6s0.6,0,1,0c0.3,0,0.6,0,0.7-0.1s0.3-0.3,0.4-0.6c0.1-0.3,0.2-0.6,0.2-0.7C45.5,93.8,45.2,93.5,45,93.3z M45.6,87.3
		c-0.2,0-0.4,0-0.5,0s-0.2,0.1-0.3,0.4s0,0.6,0.2,0.8c0.1,0.1,0.3,0.1,0.4,0.1c0.1-0.1,0.2-0.1,0.4-0.3c0.2-0.1,0.3-0.3,0.3-0.5
		c-0.1-0.2-0.1-0.3-0.2-0.4C45.9,87.3,45.8,87.3,45.6,87.3z M47.9,92.1c0-0.3-0.2-0.5-0.4-0.5s-0.4,0.1-0.5,0.3
		c-0.1,0.1-0.1,0.3-0.2,0.4c0,0.1,0,0.2,0.1,0.3c0.2,0.3,0.5,0.3,0.7,0.2s0.3-0.2,0.3-0.3C47.9,92.4,47.9,92.3,47.9,92.1z
		 M48.8,86.7c-0.2-0.1-0.3-0.2-0.5-0.2c-0.1,0-0.3,0.1-0.5,0.2c-0.3,0.2-0.5,0.3-0.6,0.4s-0.2,0.3-0.1,0.6c0.1,0.3,0.2,0.4,0.4,0.4
		s0.4,0,0.8,0c0.3,0,0.5,0,0.6,0c0.2,0,0.3-0.2,0.4-0.4c0.1-0.2,0.1-0.5,0-0.6C49.2,87,49.1,86.9,48.8,86.7z M49.1,93.6
		c-0.2-0.2-0.4-0.3-0.7-0.2C48.1,93.5,48,93.7,48,94c0,0.2,0.2,0.4,0.4,0.5c0.2,0,0.3,0,0.4,0s0.2-0.1,0.3-0.2
		C49.3,94.1,49.3,93.9,49.1,93.6z M53.7,79c-0.2-0.3-0.4-0.4-0.5-0.4c-0.2,0.1-0.4,0.1-0.8,0.2c-0.3,0.1-0.4,0.1-0.5,0.2
		c-0.1,0.1-0.1,0.3-0.2,0.5c0,0.3,0,0.5,0,0.6c0.1,0.2,0.2,0.3,0.5,0.4c0.3,0.1,0.6,0.2,0.8,0.2s0.4-0.1,0.6-0.4
		c0.3-0.3,0.4-0.5,0.4-0.7C54,79.6,53.9,79.4,53.7,79z M55.8,81.2h-0.3v0.4l0.4,0.2L55.8,81.2z M57.1,79.6c-0.1-0.2-0.1-0.3-0.2-0.4
		c0-0.1-0.1-0.2-0.4-0.1c-0.2,0-0.3,0.1-0.3,0.2c0,0.1-0.1,0.2-0.2,0.4c0,0.2-0.1,0.4-0.1,0.5s0.1,0.2,0.3,0.3s0.3,0.2,0.4,0.1
		c0.1-0.1,0.3-0.1,0.4-0.3c0.1-0.1,0.2-0.2,0.1-0.3C57.2,79.8,57.2,79.7,57.1,79.6z M56.9,85.5l-0.5-0.3L56,85.4v0.4l0.5,0.2
		L56.9,85.5z M58.1,82.6c-0.1-0.2-0.3-0.4-0.3-0.5c-0.1-0.1-0.2-0.2-0.5-0.1c-0.3,0.1-0.4,0.2-0.4,0.3c0,0.2-0.1,0.4-0.1,0.6
		c0,0.3,0,0.5,0,0.6s0.2,0.3,0.4,0.4c0.3,0.1,0.5,0.1,0.6,0.1s0.3-0.2,0.5-0.4c0.1-0.2,0.2-0.4,0.2-0.5C58.3,83,58.2,82.9,58.1,82.6
		z M62.5,88.2c-0.2-0.7-0.5-1.1-0.9-1.2s-1-0.1-1.7-0.1c-0.6,0-1.1,0.1-1.4,0.2s-0.6,0.5-0.8,1.1c-0.3,0.7-0.4,1.3-0.5,1.8
		c-0.1,0.4,0.2,0.9,0.8,1.4c0.8,0.6,1.4,1,1.9,1.2s1.2,0,2-0.5c0.8-0.6,1.2-1.1,1.1-1.6C63,89.9,62.8,89.2,62.5,88.2z M57.9,77.9
		l-0.4-0.1L57.2,78l0.2,0.4l0.4-0.1L57.9,77.9z M60.2,93.5l-0.5,0.3l-0.3,0.4l0.4,0.1l0.5-0.1L60.2,93.5z M62,96.2
		c-0.2-0.3-0.5-0.3-0.8-0.2c-0.2,0.1-0.3,0.1-0.3,0.2s0,0.2,0,0.4c0,0.3,0.1,0.5,0.3,0.5s0.4,0.1,0.5,0.1s0.2-0.1,0.3-0.2
		C62.2,96.8,62.2,96.5,62,96.2z M62.6,81.7h-0.5v0.6l0.6,0.2l0.4-0.5L62.6,81.7z"/>
	<path class="st1" d="M80.8,85.4c-8.9,0-13.6-3.6-14.1-10.8c-0.1-1.5-0.1-3.1,0-4.5c0.2-3.5,1.7-6.3,4.1-8.1c2.4-1.9,5.8-2.8,10-2.8
		s7.5,0.9,10,2.8c2.4,1.9,3.9,4.5,4.1,8.1c0.1,1.5,0.1,3.1,0,4.5C94.5,81.8,89.7,85.4,80.8,85.4z M70.2,75.4
		c-0.2-0.1-0.4-0.2-0.6-0.2s-0.3,0.1-0.6,0.3c-0.3,0.2-0.4,0.6-0.3,1c0.1,0.3,0.2,0.6,0.3,0.7c0.1,0.1,0.3,0.2,0.6,0.2
		c0.2,0,0.4-0.1,0.4-0.2c0-0.2,0.1-0.4,0.1-0.7c0.1-0.2,0.2-0.4,0.2-0.6C70.4,75.7,70.4,75.5,70.2,75.4z M72.2,68.7
		c-0.3-0.7-0.7-1.1-0.9-1.4S70.6,66.9,70,67c-0.7,0.1-1,0.4-1,0.9s0,1-0.1,1.7c-0.1,0.7-0.1,1.1-0.1,1.4s0.2,0.7,0.8,1
		c0.7,0.3,1.2,0.4,1.7,0.4s0.9-0.3,1.3-0.9c0.4-0.6,0.6-1,0.3-1.3C72.6,69.8,72.6,69.2,72.2,68.7z M71.4,79.8
		c-0.2-0.3-0.6-0.6-1-0.4c-0.2,0.1-0.3,0.1-0.4,0.3c0,0.1-0.1,0.3-0.1,0.6c0,0.3,0,0.4,0,0.6s0.1,0.2,0.3,0.3s0.4,0.1,0.4,0
		s0.2-0.2,0.4-0.4c0.1-0.2,0.3-0.3,0.3-0.4C71.6,80.1,71.6,80,71.4,79.8z M72.2,76.2l-0.4-0.3l-0.4,0.4l0.4,0.4h0.4V76.2z
		 M74.5,80.5c-0.2-0.1-0.3-0.1-0.4-0.1s-0.2,0.1-0.4,0.2c-0.1,0.1-0.2,0.3-0.3,0.4c-0.1,0.1-0.1,0.2,0,0.4c0.1,0.2,0.2,0.3,0.3,0.3
		s0.3,0.1,0.6,0c0.2,0,0.3-0.1,0.4-0.2c0.1-0.1,0.1-0.2,0.2-0.4c0-0.2,0.1-0.4,0.1-0.6C74.8,80.7,74.7,80.6,74.5,80.5z M74.7,67.3
		l-0.6-0.1l-0.2,0.4l0.4,0.2l0.2-0.2L74.7,67.3z M74.8,74.1L74.4,74l-0.1,0.4l0.4,0.3l0.4-0.3L74.8,74.1z M75,71.5
		c-0.2,0-0.4,0.1-0.6,0.4s-0.1,0.6,0.1,0.8c0.2,0.2,0.6,0.2,0.8,0c0.3-0.2,0.4-0.4,0.3-0.8c0-0.2-0.1-0.3-0.2-0.3S75.3,71.5,75,71.5
		z M77.4,61.7c-0.1-0.3-0.3-0.4-0.6-0.4c-0.2,0-0.4,0.1-0.8,0.1c-0.3,0-0.6,0.1-0.7,0.1c-0.2,0-0.3,0.2-0.3,0.4
		c-0.1,0.3-0.1,0.7,0,0.8s0.2,0.3,0.6,0.4c0.1,0,0.1,0.1,0.2,0.1c0.3,0.1,0.5,0.2,0.6,0.2c0.2,0,0.4-0.1,0.8-0.3
		c0.3-0.2,0.4-0.4,0.4-0.7C77.6,62.3,77.5,62,77.4,61.7z M76.8,76.5l-0.6-0.3l-0.6,0.4l0.3,0.4l0.6,0.1L76.8,76.5z M77.7,67.6
		c-0.1-0.2-0.2-0.3-0.3-0.3s-0.3,0-0.6,0s-0.6,0.1-0.7,0.3c-0.1,0.1-0.1,0.3,0,0.3s0.1,0.2,0.3,0.3c0.1,0.1,0.2,0.2,0.3,0.3
		s0.2,0,0.4,0c0.2-0.1,0.3-0.2,0.4-0.3C77.8,68.1,77.7,67.8,77.7,67.6z M78.7,64.1c-0.1-0.1-0.3-0.3-0.4-0.3c-0.1-0.1-0.2-0.1-0.4,0
		s-0.2,0.1-0.2,0.3c0,0.1,0.1,0.3,0.1,0.4c0,0.2,0.1,0.4,0.3,0.4s0.3,0.1,0.4,0.1s0.2,0,0.3-0.2c0.1-0.2,0.1-0.3,0-0.4
		C78.9,64.4,78.9,64.2,78.7,64.1z M80.9,80.7c0-0.4-0.1-0.8-0.2-1c-0.1-0.2-0.4-0.3-0.9-0.4c-0.5-0.1-0.8-0.2-1-0.2
		s-0.4,0.2-0.8,0.7c-0.2,0.3-0.2,0.6-0.1,0.7c0.2,0.2,0.4,0.4,0.7,0.8c0.1,0.2,0.3,0.3,0.4,0.4c0.1,0.1,0.3,0,0.6,0
		c0.4-0.1,0.7-0.2,0.9-0.2C80.8,81.4,80.9,81.1,80.9,80.7z M80.1,62.8l-0.4-0.3l-0.4,0.3l0.1,0.4l0.4-0.2L80.1,62.8z M83.2,79.9
		c-0.2-0.1-0.4-0.2-0.7-0.3c-0.1-0.1-0.3,0-0.6,0.2c-0.2,0.2-0.2,0.3-0.1,0.6c0.1,0.1,0.2,0.3,0.3,0.6c0.1,0.2,0.2,0.3,0.2,0.4
		c0,0.1,0.2,0.1,0.4,0.1c0.3,0,0.6-0.1,0.8-0.1s0.3-0.2,0.3-0.6c0-0.4,0-0.4-0.2-0.6C83.8,80.1,83.5,80,83.2,79.9z M84.3,82.6
		l-0.7-0.1l-0.3,0.7l0.6,0.2l0.4-0.1V82.6z M85.1,63.9c-0.1-0.2-0.2-0.3-0.3-0.4s-0.3,0-0.6,0c-0.2,0-0.3,0.1-0.3,0.2s0,0.2-0.1,0.4
		c0,0.2-0.1,0.4-0.1,0.6s0,0.2,0.2,0.3s0.4,0.2,0.7,0.2s0.3-0.1,0.6-0.3c0.2-0.2,0.3-0.3,0.2-0.6C85.2,64.4,85.2,64.1,85.1,63.9z
		 M85.9,61c-0.1-0.2-0.2-0.3-0.4-0.2c-0.1,0.1-0.3,0.1-0.7,0.1c-0.2,0-0.3,0-0.4,0s-0.1,0.1-0.2,0.3S84,61.6,84,61.9
		c0,0.1,0,0.3,0.2,0.4s0.4,0.2,0.6,0.2s0.3-0.1,0.6-0.3c0.2-0.2,0.3-0.3,0.4-0.4C86,61.6,86,61.4,85.9,61z M90.5,66.2
		c-0.6-0.8-1.1-1.3-1.5-1.5c-0.4-0.2-1.1-0.2-2.1,0.1c-0.9,0.3-1.3,0.8-1.3,1.3s0,1.3,0,2.2c0,0.7,0.2,1.1,0.6,1.3
		c0.3,0.2,0.8,0.3,1.5,0.6c0.7,0.2,1.1,0.3,1.4,0.3s0.8-0.2,1.1-0.8c0.4-0.7,0.8-1.3,1-1.7C91.2,67.4,91,66.9,90.5,66.2z M88.4,80.2
		c-0.2-0.2-0.4-0.3-0.7-0.3s-0.4,0.1-0.8,0.2c-0.3,0.1-0.6,0.3-0.7,0.4c-0.1,0.1-0.2,0.3-0.2,0.7c0.1,0.4,0.2,0.9,0.2,1.1
		c0.1,0.2,0.3,0.4,0.8,0.6c0.4,0.1,0.8,0,0.8-0.3c0-0.3,0.2-0.7,0.4-1c0.1-0.3,0.2-0.6,0.2-0.8C88.7,80.7,88.6,80.5,88.4,80.2z
		 M93.3,74.3c-0.2-0.7-0.6-1-1-0.9s-1,0.1-1.8,0.2c-0.6,0.1-1,0.2-1.2,0.3s-0.4,0.6-0.6,1.1s-0.1,1,0,1.3c0.1,0.3,0.4,0.6,0.9,0.9
		c0.7,0.4,1.1,0.7,1.5,0.9c0.3,0.2,0.9,0,1.4-0.4c0.7-0.6,1-1.1,1.1-1.5C93.6,75.7,93.5,75.1,93.3,74.3z"/>
	<path class="st1" d="M108.7,99.6c-8.1,0-12.3-3.3-12.8-9.8c-0.1-1.4-0.1-2.8,0-4.1c0.2-3.2,1.5-5.7,3.7-7.3
		c2.2-1.7,5.3-2.5,9.1-2.5s6.8,0.8,9.1,2.5c2.2,1.7,3.5,4.1,3.7,7.3c0.1,1.4,0.1,2.8,0,4.1C121,96.3,116.7,99.6,108.7,99.6z
		 M99,90.5c-0.2-0.1-0.4-0.2-0.5-0.2s-0.3,0.1-0.5,0.3c-0.3,0.2-0.4,0.5-0.3,0.9c0.1,0.3,0.2,0.5,0.3,0.6s0.3,0.2,0.5,0.2
		s0.4-0.1,0.4-0.2c0-0.2,0.1-0.4,0.1-0.6c0.1-0.2,0.2-0.4,0.2-0.5C99.3,90.8,99.2,90.6,99,90.5z M100.9,84.4c-0.3-0.6-0.6-1-0.8-1.3
		c-0.2-0.3-0.6-0.4-1.2-0.3c-0.6,0.1-0.9,0.4-0.9,0.8s0,0.9-0.1,1.5s-0.1,1-0.1,1.3s0.2,0.6,0.7,0.9c0.6,0.3,1.1,0.4,1.5,0.4
		s0.8-0.3,1.2-0.8s0.5-0.9,0.3-1.2C101.3,85.4,101.2,84.9,100.9,84.4z M100.2,94.5c-0.2-0.3-0.5-0.5-0.9-0.4
		c-0.2,0.1-0.3,0.1-0.4,0.3c0,0.1-0.1,0.3-0.1,0.5s0,0.4,0,0.5s0.1,0.2,0.3,0.3c0.2,0.1,0.4,0.1,0.4,0s0.2-0.2,0.4-0.4
		c0.1-0.2,0.3-0.3,0.3-0.4C100.3,94.8,100.3,94.7,100.2,94.5z M100.8,91.2l-0.4-0.3l-0.4,0.4l0.4,0.4h0.4V91.2z M103,95.1
		c-0.2-0.1-0.3-0.1-0.4-0.1s-0.2,0.1-0.4,0.2c-0.1,0.1-0.2,0.3-0.3,0.4s-0.1,0.2,0,0.4c0.1,0.2,0.2,0.3,0.3,0.3s0.3,0.1,0.5,0
		c0.2,0,0.3-0.1,0.4-0.2s0.1-0.2,0.2-0.4c0-0.2,0.1-0.4,0.1-0.5C103.2,95.3,103.1,95.2,103,95.1z M103.1,83.2l-0.5-0.1l-0.2,0.4
		l0.4,0.2l0.2-0.1L103.1,83.2z M103.2,89.3l-0.4-0.1l-0.1,0.4l0.4,0.3l0.4-0.3L103.2,89.3z M103.4,87c-0.2,0-0.4,0.1-0.5,0.4
		s-0.1,0.5,0.1,0.7s0.5,0.2,0.7,0c0.3-0.2,0.4-0.4,0.3-0.7c0-0.2-0.1-0.3-0.2-0.3S103.6,87,103.4,87z M105.5,78.1
		c-0.1-0.3-0.3-0.4-0.5-0.4s-0.4,0.1-0.7,0.1s-0.5,0.1-0.6,0.1c-0.2,0-0.3,0.2-0.3,0.4c-0.1,0.3-0.1,0.6,0,0.7
		c0.1,0.1,0.2,0.3,0.5,0.4c0.3,0.2,0.6,0.3,0.7,0.3c0.2,0,0.4-0.1,0.7-0.3c0.3-0.2,0.4-0.4,0.4-0.6S105.7,78.4,105.5,78.1z
		 M105.1,91.5l-0.5-0.3l-0.5,0.4l0.3,0.4l0.5,0.1L105.1,91.5z M105.8,83.4c-0.1-0.2-0.2-0.3-0.3-0.3s-0.3,0-0.5,0
		c-0.3,0-0.5,0.1-0.6,0.3c-0.1,0.1-0.1,0.3,0,0.3s0.1,0.2,0.3,0.3c0.1,0.1,0.2,0.2,0.3,0.3c0.1,0.1,0.2,0,0.4,0
		c0.2-0.1,0.3-0.2,0.4-0.3S105.9,83.6,105.8,83.4z M106.8,80.3c-0.1-0.1-0.3-0.3-0.4-0.3c-0.1-0.1-0.2-0.1-0.4,0s-0.2,0.1-0.2,0.3
		c0,0.1,0.1,0.3,0.1,0.4c0,0.2,0.1,0.4,0.3,0.4s0.3,0.1,0.4,0.1s0.2,0,0.3-0.2c0.1-0.2,0.1-0.3,0-0.4
		C107,80.5,106.9,80.4,106.8,80.3z M108.8,95.3c0-0.4-0.1-0.7-0.2-0.9c-0.1-0.2-0.4-0.3-0.8-0.4s-0.7-0.2-0.9-0.2s-0.4,0.2-0.7,0.6
		c-0.2,0.3-0.2,0.5-0.1,0.6c0.2,0.2,0.4,0.4,0.6,0.7c0.1,0.2,0.3,0.3,0.4,0.4s0.3,0,0.5,0c0.4-0.1,0.6-0.2,0.8-0.2
		C108.7,95.9,108.8,95.7,108.8,95.3z M108.7,92.5c0.9,0,1.4-0.2,1.6-0.7s0.3-1.2,0.4-2.3c0-0.4,0-1.1,0-1.8c0-0.7,0-1.4,0-1.8
		c-0.1-1-0.2-1.7-0.4-2.2s-0.7-0.8-1.6-0.8c-0.8,0-1.3,0.3-1.6,0.8c-0.2,0.5-0.4,1.3-0.4,2.2c0,0.4,0,1.1,0,1.8c0,0.7,0,1.4,0,1.8
		c0.1,1,0.2,1.8,0.4,2.3S107.9,92.5,108.7,92.5z M108.1,79.1l-0.4-0.3l-0.4,0.3l0.1,0.4l0.4-0.2L108.1,79.1z M110.9,94.6
		c-0.2-0.1-0.4-0.2-0.6-0.3c-0.1-0.1-0.3,0-0.5,0.2s-0.2,0.3-0.1,0.5c0.1,0.1,0.2,0.3,0.3,0.5s0.2,0.3,0.2,0.4s0.2,0.1,0.4,0.1
		c0.3,0,0.5-0.1,0.7-0.1s0.3-0.2,0.3-0.5s0-0.4-0.2-0.5C111.3,94.8,111.1,94.7,110.9,94.6z M111.8,97l-0.6-0.1l-0.3,0.6l0.5,0.2
		l0.4-0.1V97L111.8,97z M112.5,80.1c-0.1-0.2-0.2-0.3-0.3-0.4c-0.1-0.1-0.3,0-0.5,0s-0.3,0.1-0.3,0.2c0,0.1,0,0.2-0.1,0.4
		c0,0.2-0.1,0.4-0.1,0.5s0,0.2,0.2,0.3c0.2,0.1,0.4,0.2,0.6,0.2s0.3-0.1,0.5-0.3c0.2-0.2,0.3-0.3,0.2-0.5
		C112.7,80.5,112.6,80.3,112.5,80.1z M113.2,77.5c-0.1-0.2-0.2-0.3-0.4-0.2c-0.1,0.1-0.3,0.1-0.6,0.1c-0.2,0-0.3,0-0.4,0
		s-0.1,0.1-0.2,0.3c-0.1,0.2-0.2,0.4-0.2,0.6c0,0.1,0,0.3,0.2,0.4c0.2,0.1,0.4,0.2,0.5,0.2s0.3-0.1,0.5-0.3c0.2-0.2,0.3-0.3,0.4-0.4
		C113.3,78,113.3,77.8,113.2,77.5z M117.4,82.2c-0.5-0.7-1-1.2-1.4-1.4c-0.4-0.2-1-0.2-1.9,0.1c-0.8,0.3-1.2,0.7-1.2,1.2s0,1.2,0,2
		c0,0.6,0.2,1,0.5,1.2s0.7,0.3,1.4,0.5c0.6,0.2,1,0.3,1.3,0.3s0.7-0.2,1-0.7c0.4-0.6,0.7-1.2,0.9-1.5
		C118.1,83.3,117.9,82.8,117.4,82.2z M115.5,94.9c-0.2-0.2-0.4-0.3-0.6-0.3s-0.4,0.1-0.7,0.2c-0.3,0.1-0.5,0.3-0.6,0.4
		s-0.2,0.3-0.2,0.6c0.1,0.4,0.2,0.8,0.2,1c0.1,0.2,0.3,0.4,0.7,0.5s0.7,0,0.7-0.3s0.2-0.6,0.4-0.9c0.1-0.3,0.2-0.5,0.2-0.7
		C115.8,95.3,115.7,95.1,115.5,94.9z M119.9,89.5c-0.2-0.6-0.5-0.9-0.9-0.8s-0.9,0.1-1.6,0.2c-0.5,0.1-0.9,0.2-1.1,0.3
		s-0.4,0.5-0.5,1s-0.1,0.9,0,1.2c0.1,0.3,0.4,0.5,0.8,0.8c0.6,0.4,1,0.6,1.4,0.8c0.3,0.2,0.8,0,1.3-0.4c0.6-0.5,0.9-1,1-1.4
		C120.3,90.8,120.2,90.2,119.9,89.5z"/>
	<path class="st1" d="M126,99.1c-0.3,0-0.6-0.1-0.8-0.4c-0.2-0.2-0.4-0.5-0.4-0.8V77.5c0-0.3,0.1-0.6,0.4-0.8
		c0.2-0.2,0.5-0.4,0.8-0.4h7.7c0.3,0,0.6,0.1,0.8,0.4c0.2,0.2,0.4,0.5,0.4,0.8V79c0.7-0.9,1.7-1.6,3-2.2c1.3-0.6,2.7-0.9,4.3-0.9
		c1.5,0,2.9,0.4,4.2,1.1s2.3,1.8,3.1,3.3s1.2,3.4,1.2,5.7v12.1c0,0.3-0.1,0.6-0.4,0.8c-0.2,0.2-0.5,0.4-0.8,0.4h-8.4
		c-0.3,0-0.6-0.1-0.8-0.4c-0.2-0.2-0.4-0.5-0.4-0.8v-12c0-1.6-0.7-2.4-2.2-2.4s-2.2,0.8-2.2,2.4v11.8c0,0.3-0.1,0.6-0.4,0.8
		c-0.2,0.2-0.5,0.4-0.8,0.4C134.3,99.1,126,99.1,126,99.1z M126.5,85.9l-0.4-0.3l-0.3,0.4l0.2,0.3l0.4,0.1L126.5,85.9z M127.2,96.8
		h-0.6l-0.4,0.4l0.3,0.6l0.6-0.3L127.2,96.8z M128.3,77.1c-0.3,0-0.5,0-0.6,0s-0.3,0.2-0.4,0.4c-0.1,0.2-0.2,0.4-0.1,0.5
		c0,0.1,0.2,0.3,0.4,0.5c0.2,0.2,0.3,0.3,0.5,0.4c0.1,0.1,0.3,0,0.5-0.1c0.3-0.1,0.4-0.3,0.5-0.4c0.1-0.1,0.1-0.3,0-0.6
		c-0.1-0.3-0.1-0.5-0.3-0.6C128.8,77.2,128.6,77.1,128.3,77.1z M128.4,83.4c-0.4-0.1-0.6,0-0.8,0.3c-0.1,0.2-0.2,0.4-0.3,0.5
		s0,0.3,0.1,0.5c0.2,0.2,0.3,0.3,0.5,0.2c0.1-0.1,0.3-0.1,0.6-0.2c0.2-0.1,0.3-0.2,0.3-0.3s0-0.2,0-0.4c0-0.2,0-0.4-0.1-0.4
		C128.7,83.6,128.6,83.5,128.4,83.4z M128.8,81c-0.1-0.1-0.2-0.2-0.2-0.2c-0.1,0-0.2,0-0.4,0c-0.3,0.1-0.4,0.2-0.4,0.4
		c0,0.2,0.1,0.4,0.3,0.5c0.2,0.1,0.4,0,0.5-0.1s0.2-0.2,0.2-0.3C128.9,81.3,128.8,81.2,128.8,81z M129.3,95.2
		c-0.2-0.2-0.4-0.3-0.5-0.4s-0.3,0-0.5,0.1s-0.4,0.3-0.4,0.4s0,0.4,0.1,0.6c0.1,0.3,0.2,0.5,0.2,0.6c0.1,0.1,0.2,0.2,0.5,0.2
		s0.5,0,0.6-0.1s0.3-0.3,0.4-0.5s0.1-0.4,0-0.5S129.5,95.4,129.3,95.2z M128.6,93.4l-0.4-0.2l-0.2,0.4l0.3,0.3h0.5L128.6,93.4z
		 M131.1,88c-0.3-0.4-0.6-0.7-0.8-0.8c-0.2-0.1-0.6-0.1-1.1,0s-0.7,0.3-0.7,0.6s-0.1,0.6-0.1,1.1s0,0.8,0,1.1c0,0.3,0.3,0.5,0.7,0.7
		c0.4,0.1,0.7,0.1,0.9-0.1c0.2-0.2,0.4-0.5,0.6-0.9c0.3-0.4,0.5-0.6,0.7-0.8C131.4,88.6,131.4,88.4,131.1,88z M130.8,78.2l-0.4-0.2
		l-0.4,0.2v0.6h0.6L130.8,78.2z M133.1,82.6c-0.1-0.2-0.3-0.4-0.4-0.6s-0.3-0.2-0.6-0.1c-0.3,0.1-0.5,0.2-0.5,0.4
		c0,0.2-0.1,0.4-0.1,0.7c0,0.4,0.2,0.7,0.6,0.9c0.2,0.1,0.4,0,0.4,0c0.1-0.1,0.2-0.2,0.4-0.4c0.1-0.1,0.2-0.3,0.3-0.4
		C133.3,83,133.3,82.8,133.1,82.6z M132.4,80.7l-0.4-0.3l-0.4,0.2l0.2,0.4l0.5,0.1L132.4,80.7z M133.8,95.7
		c-0.3-0.3-0.6-0.3-0.9-0.1c-0.3,0.2-0.5,0.3-0.6,0.4c-0.2,0.1-0.2,0.3-0.1,0.6c0.1,0.4,0.1,0.6,0.3,0.8c0.1,0.2,0.4,0.3,0.7,0.3
		c0.3,0,0.5,0,0.6-0.2s0.2-0.4,0.3-0.7c0.1-0.2,0.1-0.4,0.1-0.5C134.1,96,134,95.9,133.8,95.7z M133.5,86.7
		c-0.1-0.3-0.2-0.5-0.5-0.6s-0.6,0.1-0.7,0.4s-0.1,0.5,0.1,0.7c0.1,0.1,0.3,0.2,0.4,0.2s0.2-0.1,0.4-0.1c0.1-0.1,0.3-0.2,0.3-0.2
		C133.5,87,133.6,86.9,133.5,86.7z M133.5,90.9c-0.2,0-0.4,0-0.4,0.2c-0.1,0.1-0.2,0.3-0.2,0.4c-0.1,0.1-0.1,0.2,0.1,0.3
		c0.2,0.2,0.5,0.3,0.8,0.1c0.1-0.1,0.2-0.1,0.2-0.2s0-0.2,0-0.4C133.8,91,133.7,90.9,133.5,90.9z M133.5,93l-0.5-0.1v0.5l0.3,0.3
		l0.4-0.3L133.5,93z M134.4,81l-0.5-0.3l-0.3,0.5l0.2,0.4h0.5L134.4,81z M136.4,81.1c-0.3-0.1-0.5-0.1-0.6-0.2
		c-0.1,0-0.3,0.1-0.5,0.3c-0.2,0.2-0.2,0.4-0.2,0.5c0.1,0.1,0.2,0.3,0.3,0.5c0.1,0.2,0.2,0.3,0.4,0.4c0.1,0,0.3,0,0.5,0
		c0.2-0.1,0.4-0.1,0.5-0.2c0.1-0.1,0.2-0.3,0.2-0.5c0-0.3,0-0.4-0.1-0.5C136.8,81.3,136.7,81.2,136.4,81.1z M139.9,80.9
		c-0.2-0.1-0.4-0.1-0.5-0.1s-0.3,0.1-0.4,0.3c-0.1,0.2-0.2,0.4-0.3,0.5c0,0.1,0,0.3,0.2,0.6c0.1,0.2,0.3,0.2,0.4,0.2
		s0.3-0.1,0.5-0.2c0.3-0.1,0.5-0.3,0.5-0.7C140.4,81.2,140.3,81,139.9,80.9z M145.8,88c-0.5-0.4-1-0.7-1.3-0.8
		c-0.4-0.1-0.8,0-1.3,0.4c-0.6,0.5-1.1,0.9-1.4,1.2c-0.3,0.4-0.3,0.9-0.1,1.7c0.3,0.8,0.6,1.3,1,1.5s1,0.3,1.9,0.3
		c0.7,0,1.2-0.2,1.4-0.5c0.2-0.3,0.4-0.8,0.7-1.5c0.2-0.6,0.2-1,0.1-1.3C146.6,88.7,146.3,88.4,145.8,88z M143.7,96.1
		c-0.3-0.1-0.5-0.1-0.6,0.1s-0.1,0.4,0,0.6c0.2,0.3,0.4,0.4,0.6,0.3s0.3-0.2,0.3-0.5C144,96.3,143.9,96.2,143.7,96.1z M145.8,82.2
		c-0.3-0.2-0.5-0.4-0.7-0.5s-0.4-0.1-0.7,0.1c-0.4,0.2-0.5,0.4-0.5,0.6s0.1,0.5,0.2,0.9c0.1,0.4,0.1,0.7,0.2,0.9s0.3,0.4,0.7,0.4
		s0.7-0.1,0.8-0.2c0.1-0.2,0.3-0.5,0.5-0.9c0.1-0.3,0.1-0.6,0.1-0.7C146.2,82.6,146,82.4,145.8,82.2z M145.1,94.3l-0.3-0.4l-0.4,0.4
		l0.2,0.3h0.3L145.1,94.3z M149.4,96.4c-0.2-0.2-0.3-0.2-0.5-0.2c-0.1,0.1-0.3,0.2-0.4,0.2s-0.1,0.2-0.1,0.4c0,0.1,0.1,0.2,0.2,0.3
		c0.1,0,0.2,0.1,0.4,0.1c0.3,0,0.5,0,0.6-0.2c0.1-0.1,0.1-0.2,0-0.3S149.5,96.5,149.4,96.4z M149.3,85.4l-0.3-0.1l-0.4,0.2l0.2,0.4
		h0.4L149.3,85.4L149.3,85.4z M149.9,92.4l-0.6-0.1l-0.2,0.4l0.1,0.4l0.4-0.2L149.9,92.4z"/>
	<path class="st1" d="M161.5,88c-0.2,0-0.4-0.1-0.6-0.2c-0.2-0.2-0.3-0.3-0.3-0.5c0-0.1,0-0.3,0-0.4c0.3-1,0.8-2,1.6-2.8
		c0.7-0.9,1.5-1.7,2.3-2.4c0.8-0.7,1.5-1.4,2.1-2s0.9-1.2,0.9-1.7c0-0.4-0.1-0.8-0.4-1c-0.3-0.2-0.6-0.4-1.1-0.4
		c-0.9,0-1.5,0.2-1.8,0.5c-0.3,0.4-0.6,0.7-0.8,1.1c-0.1,0.3-0.3,0.6-0.5,0.8c-0.2,0.2-0.6,0.3-1.1,0.3h-8.2c-0.3,0-0.5-0.1-0.8-0.4
		c-0.2-0.2-0.3-0.6-0.3-1c0-1.1,0.3-2.3,0.9-3.4c0.6-1.2,1.4-2.2,2.6-3.2s2.6-1.8,4.4-2.4c1.8-0.6,3.9-0.9,6.3-0.9
		c2.6,0,4.6,0.3,6.2,0.9c1.6,0.6,2.9,1.3,3.7,2.2c0.9,0.9,1.5,1.8,1.8,2.7c0.4,0.9,0.5,1.7,0.5,2.4c0,1.2-0.2,2.2-0.6,3.2
		c-0.4,0.9-1,1.8-1.6,2.6c-0.7,0.8-1.3,1.5-2,2.2s-1.3,1.4-1.9,2c-0.1,0.1-0.2,0.2-0.3,0.3c-0.1,0.1-0.2,0.2-0.2,0.3
		c-0.3,0.4-0.5,0.8-0.7,1s-0.5,0.3-0.9,0.3L161.5,88L161.5,88z M157.7,73.7c-0.1-0.2-0.3-0.4-0.6-0.4c-0.2,0-0.3,0-0.3,0.1
		s-0.1,0.2-0.1,0.3c0,0.2-0.1,0.3-0.1,0.4c0,0.1,0,0.2,0.2,0.3c0.1,0.1,0.2,0.1,0.3,0.1c0.1-0.1,0.2-0.2,0.3-0.2
		c0.1-0.1,0.2-0.2,0.3-0.2C157.7,74,157.7,73.9,157.7,73.7z M157.9,76.6c-0.3-0.2-0.7-0.2-1,0c-0.2,0.1-0.2,0.2-0.2,0.4
		c0,0.1,0.1,0.3,0.2,0.5c0.1,0.2,0.1,0.4,0.2,0.6c0,0.1,0.1,0.2,0.3,0.2s0.4-0.1,0.4-0.2c0.1-0.1,0.1-0.3,0.2-0.5
		c0.1-0.2,0.1-0.4,0.2-0.5C158.1,76.9,158,76.7,157.9,76.6z M161.8,72.3c-0.1-0.3-0.3-0.5-0.5-0.6c-0.2,0-0.4-0.1-0.8,0
		c-0.4,0-0.7,0.1-0.9,0.1c-0.2,0-0.4,0.2-0.5,0.6c-0.1,0.4-0.1,0.7,0,0.9c0.1,0.2,0.3,0.4,0.7,0.6c0.4,0.2,0.6,0.4,0.9,0.4
		c0.2,0,0.5-0.1,0.8-0.4s0.5-0.5,0.5-0.7C162.1,72.9,162,72.6,161.8,72.3z M162,99.1c-0.3,0-0.6-0.1-0.8-0.4
		c-0.2-0.2-0.4-0.5-0.4-0.8v-7c0-0.3,0.1-0.6,0.4-0.8c0.2-0.2,0.5-0.4,0.8-0.4h8.1c0.3,0,0.6,0.1,0.8,0.4c0.2,0.2,0.4,0.5,0.4,0.8v7
		c0,0.3-0.1,0.6-0.4,0.8c-0.2,0.2-0.5,0.4-0.8,0.4H162z M164,94.6h-0.4l-0.3,0.5l0.5,0.4l0.3-0.4L164,94.6z M165.4,73
		c-0.2-0.4-0.5-0.6-1-0.5c-0.4,0.1-0.7,0.3-0.8,0.7c-0.1,0.4,0.1,0.8,0.5,1c0.2,0.1,0.4,0.2,0.5,0.1c0.1,0,0.3-0.1,0.5-0.4
		c0.2-0.2,0.3-0.3,0.3-0.5C165.6,73.4,165.6,73.2,165.4,73z M166.2,93.1c0-0.2-0.1-0.4-0.1-0.5s-0.2-0.2-0.4-0.3
		c-0.2,0-0.4,0-0.5,0.1s-0.2,0.2-0.3,0.4c-0.1,0.2-0.2,0.4-0.2,0.5s0,0.3,0.2,0.4c0.2,0.2,0.3,0.3,0.4,0.4s0.3,0,0.6-0.1
		c0.2-0.1,0.3-0.2,0.4-0.3C166.2,93.5,166.2,93.3,166.2,93.1z M165.8,97.2l-0.4,0.1v0.4h0.4l0.1-0.3L165.8,97.2z M169.1,82.7
		c-0.5-0.2-0.9-0.3-1.2-0.3c-0.3,0-0.6,0.1-0.9,0.6c-0.3,0.4-0.4,0.7-0.4,1c0.1,0.3,0.3,0.6,0.6,1.1c0.2,0.4,0.5,0.5,0.7,0.6
		c0.2,0,0.6,0,1-0.1s0.6-0.3,0.8-0.4c0.1-0.2,0.2-0.4,0.3-0.9c0-0.4-0.1-0.8-0.2-0.9C169.8,83,169.5,82.9,169.1,82.7z M167.8,70.9
		l-0.5,0.2l-0.3,0.5l0.5,0.2l0.4-0.3L167.8,70.9z M168.5,95.5c-0.2-0.1-0.3-0.2-0.4-0.1s-0.3,0.2-0.4,0.4c-0.1,0.1-0.3,0.2-0.3,0.3
		c-0.1,0.1-0.1,0.2,0,0.4c0.1,0.2,0.1,0.3,0.2,0.3s0.3,0,0.5,0s0.4,0,0.5,0s0.2-0.1,0.3-0.3c0.1-0.3,0.1-0.5,0.1-0.6
		C168.9,95.8,168.7,95.7,168.5,95.5z M168.3,93.4l-0.6-0.1l-0.4,0.6l0.6,0.4l0.6-0.3L168.3,93.4z M167.8,74l-0.3,0.2l0.1,0.4
		l0.4,0.1l0.1-0.4L167.8,74z M168.5,90.8l-0.4,0.1l0.2,0.4l0.3,0.2l0.1-0.4L168.5,90.8z M170.2,79.5c-0.2,0-0.3,0.1-0.4,0.3
		c-0.1,0.1-0.1,0.3-0.2,0.4c0,0.1,0,0.2,0.1,0.3c0.2,0.2,0.4,0.2,0.7,0c0.1-0.1,0.2-0.2,0.2-0.3s0-0.2,0-0.4
		C170.6,79.7,170.4,79.6,170.2,79.5z M173.3,71.7c-0.4-0.3-0.7-0.4-1-0.4s-0.6,0.2-0.9,0.5c-0.4,0.4-0.7,0.7-0.9,0.9
		c-0.2,0.2-0.1,0.6,0.1,1.1s0.5,0.7,0.8,0.7s0.7-0.1,1.2-0.1c0.4,0,0.6-0.1,0.8-0.3c0.1-0.1,0.3-0.4,0.4-0.8c0.1-0.4,0.2-0.7,0.2-1
		C173.8,72.1,173.6,71.9,173.3,71.7z M174,80.6l-0.4,0.1l-0.2,0.4l0.5,0.2l0.3-0.5L174,80.6z M175.6,76.2c-0.1-0.1-0.2-0.1-0.3-0.1
		c-0.1,0.1-0.2,0.2-0.3,0.2c-0.2,0.1-0.2,0.3-0.2,0.4c0,0.2,0.1,0.3,0.1,0.4c0,0.1,0.1,0.1,0.3,0.1c0.2,0,0.3-0.1,0.3-0.2
		c0-0.1,0.1-0.2,0.1-0.4c0-0.1,0.1-0.3,0.1-0.4C175.7,76.1,175.7,76.3,175.6,76.2z"/>
</g>
</svg>
