<?xml version="1.0" encoding="utf-8"?>
<!-- Generator: Adobe Illustrator 23.0.2, SVG Export Plug-In . SVG Version: 6.00 Build 0)  -->
<svg version="1.1" id="Layer_1" xmlns="http://www.w3.org/2000/svg" xmlns:xlink="http://www.w3.org/1999/xlink" x="0px" y="0px"
	 viewBox="0 0 500 150" style="enable-background:new 0 0 500 150;" xml:space="preserve">
<style type="text/css">
	.st0{fill:#FFFFFF;}
</style>
<g>
	<path class="st0" d="M163.2,105.7c-0.6,0-1.2-0.2-1.6-0.8c-0.4-0.4-0.8-1-0.8-1.6V46.1c0-0.6,0.2-1.2,0.8-1.6
		c0.4-0.4,1-0.8,1.6-0.8h29.4c8.5,0,14.7,1.6,18.5,4.6c4,3,5.8,7.9,5.8,13.9c0,1.8-0.4,3.6-1.2,5S214,70,212.9,71s-2,1.8-3,2.2
		c2.2,1,4.2,2.6,5.8,4.8c1.6,2.4,2.6,5,2.6,7.9c0,6.6-2.2,11.5-6.4,14.7c-4.2,3.2-10.5,4.8-18.5,4.8L163.2,105.7L163.2,105.7z
		 M166.8,74.7c-0.2-0.6-0.2-1-0.4-1.4c0-0.4-0.4-0.6-1-0.6s-0.8,0.2-1,0.6c0,0.4-0.2,0.8-0.4,1.4c-0.2,0.6-0.4,1-0.6,1.4
		s0,0.6,0.4,1c0.6,0.4,1,0.4,1.2,0.2s0.6-0.4,1.2-0.8c0.4-0.2,0.6-0.4,0.6-0.8C167,75.5,167,75.1,166.8,74.7z M169.2,89.2
		c-1-0.2-1.8-0.4-2.4-0.4s-1.2,0.4-1.6,1.2c-0.6,1-0.8,1.8-0.8,2.2c0.2,0.6,0.6,1.2,1.4,2.2c0.8,0.8,1.4,1.2,1.8,1.2
		c0.6,0,1.4-0.2,2.2-0.6c1-0.4,1.8-1,2.2-1.4c0.4-0.4,0.6-1.2,0.4-2.2c-0.2-1-0.4-1.6-1-1.8C171,89.4,170.2,89.4,169.2,89.2z
		 M175.5,62.4c-0.4-1.2-0.8-1.8-1.4-2.2c-0.4-0.4-1.2-0.4-2.4-0.4c-1.2,0-2,0.2-2.6,0.4c-0.6,0.4-1,1-1.4,2.2
		c-0.2,1-0.2,1.8,0.2,2.2s1,1,2,1.6c0.8,0.6,1.4,0.8,1.8,0.8s1-0.4,1.8-1s1.4-1.2,1.8-1.6C175.7,64,175.9,63.4,175.5,62.4z
		 M171,97.6c-0.4-0.4-1-0.4-1.4-0.2c-0.6,0.4-0.8,0.8-0.6,1.4c0.2,0.6,0.6,1,1.2,1s1-0.2,1.2-0.8C171.6,98.4,171.6,98,171,97.6z
		 M171.2,79.9l-1,0.2l0.2,1h0.8l0.2-0.6L171.2,79.9z M175.3,47.7c-0.4-0.4-0.6-0.6-1-0.6c-0.2,0-0.6,0.2-1.2,0.4c-0.8,0.4-1,1-1,1.6
		c0,0.8,0.4,1.2,1.2,1.4c0.6,0.2,1,0.2,1.4,0.4c0.4,0,0.6-0.2,1-0.6c0.4-0.6,0.4-1,0.4-1.4C176.1,48.5,175.7,48.1,175.3,47.7z
		 M174.1,70.6l-1-0.4h-0.8v1l1.2,0.4L174.1,70.6z M173.4,76.9l-1,0.8l0.4,1l1.2,0.4v-1.2L173.4,76.9z M176.1,87.6
		c-0.6-0.2-1-0.2-1.2-0.2c-0.4,0-0.6,0.4-1,0.8c-0.4,0.6-0.6,1-0.6,1.2s0.2,0.8,0.6,1.2s0.6,0.6,1,0.6s0.8,0,1.2-0.2
		c0.4-0.2,0.8-0.4,1-0.6c0.2-0.2,0.2-0.6,0.2-1.2c0-0.6,0-1-0.2-1.2C177.1,88,176.7,87.8,176.1,87.6z M176.9,100.1l-0.8,0.2
		l-0.2,0.8l0.8,0.8l0.4-0.8L176.9,100.1z M180.9,53.3c-0.4-0.6-0.8-1-1-1.2s-0.8-0.2-1.4,0c-0.8,0.2-1.4,0.6-1.6,0.8
		c-0.4,0.2-0.6,0.8-0.6,1.6s0.2,1.4,0.8,1.4c0.4,0.2,1,0.4,1.8,0.6c0.6,0.2,1,0.2,1.2,0s0.6-0.6,0.8-1.2c0.2-0.4,0.4-0.8,0.6-1.2
		C181.5,53.9,181.3,53.7,180.9,53.3z M177.9,96l-1.2,0.4l-0.2,1.2l1.2,0.2l0.8-0.6L177.9,96z M181.9,75.7c-0.4-0.4-0.8-0.8-1-1
		s-0.8-0.2-1.4,0s-0.8,0.4-0.8,0.8c0,0.4,0,0.8,0,1.6s0,1.2,0,1.8c0,0.4,0.2,0.8,1,1c0.6,0.2,1,0,1.2-0.4s0.4-1,0.8-1.4
		c0.2-0.4,0.4-0.8,0.6-1.2C182.3,76.5,182.3,76.1,181.9,75.7z M183.3,98.8l-0.8,0.4v0.6l0.6,0.6l0.8-0.8L183.3,98.8z M183.9,46.7
		l-1,0.4l0.2,0.6l0.6-0.2L183.9,46.7z M183.1,67h7.5c1.2,0,2.2-0.4,2.8-1.2s0.8-1.8,0.8-2.6c0-1-0.2-1.8-0.8-2.8
		c-0.6-0.8-1.4-1.4-2.8-1.4h-7.5V67z M183.1,90.6h8.3c1.4,0,2.6-0.4,3.2-1.4s1-2,1-2.8c0-1-0.4-2-1-3s-1.6-1.4-3-1.4h-8.3v8.7
		C183.3,90.6,183.1,90.6,183.1,90.6z M187.6,48.9l-0.8-0.4l-0.8,0.8l0.8,0.8l0.8-0.4V48.9z M193,96c-0.8-0.8-1.4-1.6-2-2
		c-0.4-0.4-1.2-0.4-2.4,0.2c-1.2,0.6-1.8,1.2-2,1.8c-0.2,0.6-0.2,1.6,0,2.8s0.4,2.2,0.8,2.6c0.4,0.6,1.2,1,2.4,1
		c1.4,0.2,2.4,0.2,3.2,0c0.8-0.2,1.4-0.8,2.2-2.2c0.6-1.2,0.6-2,0-2.6C194.6,97.4,194,96.8,193,96z M190.4,50.7
		c-0.4,0-0.8,0.2-1,0.8s-0.2,1,0.2,1.2c0.2,0.2,0.4,0.4,0.6,0.4s0.4,0,0.8-0.2c0.6-0.4,0.8-0.8,0.6-1.4c-0.2-0.4-0.2-0.6-0.4-0.6
		C191,50.7,190.6,50.7,190.4,50.7z M193.2,71.6c0-0.6-0.4-1-1.2-1.2c-0.4,0-0.8-0.2-1-0.2s-0.6,0.2-0.8,0.6c-0.2,0.4-0.2,0.8,0,1
		s0.4,0.4,0.8,0.8c0.2,0.4,0.6,0.6,0.8,0.8c0.2,0.2,0.4,0.2,0.8,0s0.6-0.4,0.8-0.6C193.2,72.4,193.2,72.2,193.2,71.6z M196.8,49.5
		c0-0.6,0-1,0-1.4s-0.2-0.6-0.8-0.8c-0.6-0.2-1-0.2-1.4,0c-0.2,0.2-0.6,0.6-1,1c-0.2,0.4-0.4,0.8-0.2,1s0.4,0.6,0.6,1
		s0.6,0.8,0.8,0.8c0.2,0.2,0.6,0.2,1,0s0.8-0.4,0.8-0.6C196.8,50.5,196.8,50.1,196.8,49.5z M195.4,78.5l-1.2,0.2l0.2,1.2l1,0.2
		l0.4-0.8L195.4,78.5z M197.2,56.7h-1v1.2l0.8,0.2l1-0.8L197.2,56.7z M198.6,66.8c-0.2-0.2-0.6-0.4-0.8-0.2c-0.2,0-0.6,0.2-0.8,0.4
		c-0.6,0.4-0.8,0.8-0.6,1.4c0.2,0.4,0.2,0.8,0.4,1c0,0.2,0.4,0.4,0.8,0.4s0.8,0,1-0.2s0.4-0.4,0.6-1c0.2-0.4,0.2-0.8,0.2-1
		C199.2,67.6,199,67.2,198.6,66.8z M201.7,80.5c-0.2-0.6-0.2-1-0.6-1.2c-0.2-0.2-0.6-0.2-1.2-0.4c-0.6,0-0.8,0-1,0.4
		c-0.2,0.2-0.2,0.6-0.4,1c-0.2,0.6,0,1,0.4,1.4c0.2,0.2,0.6,0.4,0.8,0.6c0.2,0.2,0.6,0,1-0.2s0.8-0.4,0.8-0.8
		C201.9,81.3,201.9,80.9,201.7,80.5z M201.9,47.5c-0.4-0.2-0.6-0.4-0.8-0.2c-0.2,0.2-0.6,0.4-0.8,0.6c-0.2,0.2-0.4,0.4-0.6,0.6
		c0,0.2,0,0.4,0,0.8c0.2,0.4,0.2,0.8,0.4,1c0.2,0.2,0.4,0.4,0.8,0.4c0.6,0,0.8,0,1-0.2s0.4-0.6,0.6-1
		C202.7,48.7,202.5,47.9,201.9,47.5z M203.3,85.7c-0.4-0.2-0.8-0.2-1,0s-0.4,0.4-0.6,0.8c-0.4,0.6-0.2,1.2,0.2,1.6
		c0.4,0.6,1,0.8,1.6,0.6s1-0.8,0.8-1.4c0-0.4-0.2-0.8-0.2-1C203.9,86,203.7,85.7,203.3,85.7z M204.9,66.2c-0.2-0.6-0.8-1-1.4-1
		s-1,0.4-1.2,1s-0.4,1-0.4,1.2c-0.2,0.2,0,0.6,0.6,0.8c0.4,0.4,0.8,0.6,1.2,0.4c0.4,0,0.8-0.2,1.2-0.6c0.4-0.4,0.6-0.6,0.4-1
		C205.1,67,205.1,66.6,204.9,66.2z M204.3,52.9c-0.4-0.2-0.8-0.4-1-0.4c-0.2-0.2-0.6,0-0.8,0.4s-0.4,0.6-0.2,0.8
		c0.2,0.2,0.4,0.6,0.8,1c0.2,0.4,0.4,0.8,0.6,1s0.4,0.2,1,0.2c0.6-0.2,1-0.4,1.2-0.6c0.2-0.2,0.2-0.6,0.2-1.2c0-0.4-0.2-0.8-0.4-0.8
		C205.1,53.1,204.7,53.1,204.3,52.9z M204.9,71.8l-0.6-0.8l-1,0.4l0.4,1l0.8,0.2L204.9,71.8z M206.1,96.4c-0.8-0.4-1.4-0.4-2,0
		c-0.4,0.4-0.6,0.6-0.8,0.8c-0.2,0.2-0.2,0.6,0.2,1c0.2,0.4,0.4,0.8,0.6,0.8s0.6,0,1,0s0.8-0.2,1-0.2c0.2,0,0.4-0.4,0.4-0.8
		c0.2-0.4,0.2-0.8,0-1C206.7,97,206.5,96.6,206.1,96.4z M206.3,49.1c-0.2-0.4-0.2-0.6-0.2-0.8s-0.2-0.4-0.6-0.4s-0.6,0.2-0.8,0.4
		c-0.2,0.2-0.2,0.4-0.4,0.8c-0.2,0.6,0,1,0.6,1.4s1,0.4,1.4,0c0.2-0.2,0.2-0.4,0.2-0.6C206.5,49.7,206.5,49.5,206.3,49.1z
		 M207.7,88.6h-0.6l-0.2,0.6l0.4,0.6l0.6-0.4L207.7,88.6z M208.3,93.2l-0.8-0.4l-0.6,0.4l0.2,0.6l0.8,0.2L208.3,93.2z M208.3,80.7
		h-0.8v0.8l0.8,0.6l0.8-0.8L208.3,80.7z M209.9,56.1c-0.6-0.2-1.2,0.2-1.4,0.8c-0.2,0.4-0.4,0.8-0.6,1.2c-0.2,0.2,0,0.6,0.4,1
		s0.6,0.6,1,0.6c0.2,0,0.8,0,1.2-0.4c0.4-0.2,0.6-0.4,0.6-0.8c0-0.2-0.2-0.6-0.2-1.2c0-0.4-0.2-0.6-0.2-0.8
		C210.7,56.3,210.3,56.1,209.9,56.1z M211.5,88.6l-1.2,0.2V90h1l0.8-0.6L211.5,88.6z M212.1,96.4l-0.6-0.4l-0.6,0.8l0.6,0.6h0.8
		L212.1,96.4z"/>
	<path class="st0" d="M248.8,106.7c-7.7,0-13.9-1.8-18.5-5.6s-6.9-9.9-6.9-18.1v-0.6c0.2-7.7,2.4-13.5,7.1-17.3c4.6-4,10.7-6,18.1-6
		c5.8,0,10.5,1,14.3,3.2c3.8,2.2,6.4,5.2,8.3,8.9s2.6,7.7,2.6,12.1v2.6c0,0.6-0.2,1.2-0.8,1.6c-0.4,0.4-1,0.8-1.6,0.8h-26.2v0.2
		c0,1.8,0.2,3,0.8,4c0.4,1,1.4,1.4,2.6,1.4c0.6,0,1-0.2,1.4-0.4s0.8-0.6,1.2-1.2c0.6-0.6,1-0.8,1.4-1s0.8-0.2,1.6-0.2H271
		c0.6,0,1,0.2,1.4,0.6c0.4,0.4,0.6,0.8,0.4,1.4c0,1.2-0.6,2.4-1.6,4c-1,1.6-2.4,3-4.4,4.6c-2,1.4-4.4,2.6-7.5,3.6
		C256.5,106.1,253,106.7,248.8,106.7z M232.1,83.9c-0.8-0.2-1.2-0.2-1.6,0s-0.6,0.6-1,1.2c-0.2,0.6-0.4,1-0.2,1.2s0.4,0.6,0.8,1.2
		c0.2,0.4,0.6,0.6,0.8,0.8s0.6,0,1-0.2c0.8-0.2,1.2-0.8,1.2-1.6c0-0.6,0-1.2,0-1.6S232.7,84.1,232.1,83.9z M232.5,71.2
		c-0.4-0.2-0.6-0.2-0.8,0s-0.4,0.4-0.6,0.6c-0.4,0.4-0.6,0.6-1,0.8c-0.2,0.2-0.2,0.6,0,1c0.2,0.6,0.6,0.6,0.8,0.6
		c0.2-0.2,0.8-0.2,1.2-0.4c0.6-0.2,0.8-0.4,0.8-1c0-0.4,0-0.6,0-0.8C233.1,71.6,232.9,71.4,232.5,71.2z M235.5,79.7
		c-0.2-0.4-0.6-0.6-0.8-0.6s-0.6,0-1.2,0.2s-0.8,0.4-1,0.6c-0.2,0.2-0.2,0.6-0.2,1c0,0.6,0,1.2,0.2,1.4c0,0.4,0.4,0.6,1,0.8
		s1.2,0.2,1.4,0c0.2-0.2,0.6-0.6,1-1.2c0.4-0.4,0.4-0.8,0.4-1.2C236.3,80.5,236.1,80.1,235.5,79.7z M235.1,91.4c0-0.4,0-0.8,0-1
		s-0.2-0.4-0.4-0.4c-0.4-0.2-0.6-0.2-0.8,0s-0.4,0.4-0.6,0.8c-0.2,0.2-0.2,0.4-0.2,0.6s0.2,0.4,0.4,0.6c0.2,0.2,0.4,0.6,0.6,0.8
		s0.4,0.2,0.8,0.2c0.4-0.2,0.4-0.2,0.4-0.6C235.1,92,235.1,91.6,235.1,91.4z M236.1,65.8c-0.6,0-0.8,0.2-1,0.4s-0.2,0.6-0.4,1.2
		c-0.2,0.2-0.2,0.6,0,0.8s0.4,0.4,0.6,0.6c0.2,0.2,0.6,0.6,0.8,0.8s0.4,0.2,0.8,0s0.6-0.6,0.8-0.8s0-0.6,0-1.2
		c-0.2-0.6-0.2-1-0.4-1.2C237.1,66,236.7,65.8,236.1,65.8z M239.3,72.2c-0.8-0.4-1.2-0.4-1.6-0.4s-0.8,0.4-1.2,0.8
		c-0.6,0.6-0.8,1-0.8,1.4s0.2,0.8,0.6,1.6c0.2,0.6,0.6,0.8,1,0.8s0.8-0.2,1.6-0.4c0.6-0.2,1-0.2,1.4-0.4c0.4,0,0.6-0.4,0.6-1
		c0-0.8,0-1.2-0.2-1.6C240.5,72.9,240.1,72.4,239.3,72.2z M241.2,91.2c-0.6-0.6-1.2-0.6-1.8-0.2c-0.4,0.2-0.8,0.6-1,0.8
		s-0.2,0.6-0.2,1c0.2,0.6,0.4,0.8,0.6,0.8s0.8,0.2,1.2,0.2c0.6,0,1,0.2,1.2,0.2c0.4,0,0.6-0.2,0.8-0.6c0.2-0.4,0.2-0.8,0-1
		C241.8,92,241.6,91.6,241.2,91.2z M239.9,98.6c-0.4,0-0.6,0-0.8,0.2c-0.2,0.2-0.4,0.4-0.4,0.8c-0.4,0.2-0.4,0.6-0.6,0.8
		c0,0.2,0,0.4,0.4,0.8c0.4,0.4,0.8,0.6,1,0.8s0.6,0.2,1-0.2c0.4-0.2,0.6-0.4,0.4-0.8s-0.2-0.6-0.2-1.2c0-0.4-0.2-0.6-0.2-0.8
		S240.3,98.8,239.9,98.6z M240.1,80.5c-0.4,0-0.8,0-0.8,0.2c-0.2,0.2-0.2,0.6-0.6,1c-0.2,0.6-0.4,1-0.4,1.2c-0.2,0.2,0,0.6,0.4,0.8
		c0.4,0.4,0.8,0.6,1,0.6s0.8-0.2,1.2-0.4c0.4-0.2,0.8-0.6,1-0.8s0.2-0.6,0-1.2c-0.2-0.6-0.4-1-0.6-1.2
		C241.2,80.7,240.8,80.5,240.1,80.5z M243.2,96.8l-0.8-0.6l-0.6,0.8l0.6,0.6h0.8V96.8z M245.2,76.9h2.6c0-0.2-0.2-0.2-0.2-0.4
		c-0.2-1-0.4-2-0.6-2.8s0-1.4,0-2.2c0.4-0.2,1-0.4,1.6-0.4c2.4,0,3.6,1.8,3.6,5.6h-4.4c0.4,1.6,0.8,3.2,1,4.4s0.6,2.4,1.4,3
		c0.6,0.8,1.8,1.2,3.6,1.2c2.2,0,4-0.2,5.2-0.4c1.4-0.4,2.4-1.2,3.2-2.2s1.6-2.6,2.2-4.8c0.6-1.8,0.6-3,0.2-4s-1.4-1.8-2.6-2.4
		c-1.2-0.8-2.6-1.6-4-2.8c-1.8-1.2-3-2-4.2-2c-1,0-2.6,0.4-4.2,1.6c-1.4,1-2.4,2-2.6,3C246,72.2,245.2,74.1,245.2,76.9z M253.8,97.6
		c0-0.8-0.2-1.2-0.2-1.6c0-0.4-0.4-0.8-1-0.8c-0.8-0.2-1.6-0.4-2-0.4s-1,0.4-1.4,1.2c-0.4,0.8-0.6,1.2-0.2,1.6
		c0.4,0.4,0.8,0.8,1.2,1.4c0.4,0.6,0.8,0.8,1,1c0.4,0.2,0.8,0,1.4-0.2s1-0.6,1-0.8C253.8,98.6,253.8,98.2,253.8,97.6z M257.7,93.6
		c-0.2-0.2-0.2-0.4-0.4-0.6c-0.2,0-0.4,0-0.6,0c-0.6,0-0.8,0.2-1,0.6c-0.2,0.4,0,0.8,0.2,1.2c0.2,0.2,0.6,0.4,0.6,0.4
		c0.2,0.2,0.4,0,0.6,0c0.2-0.2,0.4-0.4,0.4-0.6C257.9,94.2,257.9,94,257.7,93.6z M264.1,97c-0.2-0.8-0.6-1.2-0.8-1.6
		c-0.2-0.4-0.8-0.6-1.6-0.4c-1,0.2-1.6,0.2-2.2,0.6c-0.4,0.2-0.8,0.8-1,1.8c-0.2,0.8,0,1.4,0.4,1.8c0.4,0.4,1,0.8,1.8,1.2
		s1.4,0.8,1.8,1s1,0,1.8-0.8c0.8-0.6,0.8-1.2,0.6-1.6C264.7,98.4,264.3,97.8,264.1,97z"/>
	<path class="st0" d="M287.1,122.6c-0.6,0-1-0.2-1.4-0.6c-0.4-0.4-0.6-0.8-0.6-1.4c0-0.2,0-0.2,0-0.4s0-0.4,0-0.4l7.1-16.9L275,62.4
		c0-0.2,0-0.4,0-0.6c0.2-0.6,0.4-1,0.8-1.4s0.8-0.6,1.4-0.6h14.9c0.8,0,1.6,0.2,2,0.8c0.4,0.4,0.8,1,0.8,1.4l7.3,20.2l7.5-20.2
		c0.2-0.6,0.6-1,1-1.4s1-0.6,2-0.6h14.7c0.6,0,1,0.2,1.4,0.6c0.4,0.4,0.6,0.8,0.6,1.2s0,0.6,0,0.8l-24.6,57.8c-0.2,0.6-0.6,1-1,1.4
		s-1.2,0.6-2,0.6L287.1,122.6L287.1,122.6z M282.7,71l-1,0.2l0.2,0.8l0.6,0.6l0.4-0.8L282.7,71z M284.5,65c-0.6-0.2-1-0.2-1.2,0
		c-0.2,0.2-0.6,0.6-1,1s-0.6,0.8-0.6,1s0,0.6,0.4,1.2c0.2,0.4,0.6,0.8,0.8,0.8c0.2,0,0.8,0,1.2-0.2c0.6-0.2,1-0.2,1.2-0.4
		c0.2-0.2,0.4-0.6,0.4-1.2c0-0.6,0-1-0.2-1.4C285.3,65.4,285.1,65.2,284.5,65z M285.9,76.9c-0.4-0.2-0.8-0.2-0.8,0
		c-0.2,0.2-0.4,0.4-0.6,0.8c-0.2,0.4-0.6,0.6-0.6,1c-0.2,0.2,0,0.6,0.2,1c0.6,0.8,1.2,1,2.2,0.6c0.6-0.2,0.8-0.4,1-0.6
		c0.2-0.2,0.2-0.6,0.2-1.2c0-0.4,0-0.8-0.2-1C286.9,77.1,286.5,76.9,285.9,76.9z M287.7,71.6c-0.4-0.2-0.8-0.4-1-0.6
		c-0.2-0.2-0.6-0.2-0.8,0.4c-0.2,0.4-0.2,0.6,0,0.8c0.2,0.2,0.4,0.6,0.8,1c0.2,0.4,0.4,0.6,0.6,0.8c0.2,0.2,0.4,0.2,0.8,0
		s0.6-0.2,0.8-0.6c0-0.2,0-0.6,0-1c0-0.2,0-0.4-0.2-0.6C288.3,71.8,288.1,71.8,287.7,71.6z M288.3,68.8l-0.8-0.4l-0.8,0.4l0.4,0.8
		l0.8-0.2L288.3,68.8z M291.7,77.5c-0.2-0.6-0.4-0.8-1.2-0.8c-0.4,0-0.8,0-1,0c-0.2,0-0.4,0.2-0.6,0.6c-0.2,0.8-0.2,1.4,0.6,1.8
		c0.4,0.4,0.8,0.6,1.2,0.6s0.6,0,1-0.4c0.4-0.2,0.6-0.6,0.4-0.8C291.9,78.3,291.7,77.9,291.7,77.5z M295,114.4c-0.4-0.6-0.6-1-1-1.2
		c-0.2-0.2-0.8-0.2-1.4,0c-0.8,0.2-1.4,0.4-1.8,0.6c-0.4,0.2-0.6,0.8-0.8,1.6c0,0.8,0,1.4,0.4,1.8c0.4,0.2,1,0.6,1.8,1
		s1.4,0.6,2,0.6c0.6,0,1-0.2,1.6-1c0.6-0.6,0.6-1.2,0.4-1.6C295.8,115.6,295.4,115,295,114.4z M292.1,66.2l-0.6,0.6v0.8l1,0.2V67
		L292.1,66.2z M298.8,86.6c-1.4-0.2-2.4-0.4-3.2-0.4c-0.8,0-1.6,0.8-2.2,2c-0.8,1.6-1.4,2.8-1.6,3.6c-0.2,1,0.4,2,1.6,3.4
		c1.2,1.2,2.2,1.6,3,1.4c1-0.4,2-0.8,3.6-1.6c1.4-0.6,2.4-1.2,3-1.8c0.6-0.6,0.8-1.6,0.6-3.2c-0.2-1.4-0.6-2.2-1.4-2.6
		C301.4,87.2,300.4,86.8,298.8,86.6z M294.4,70c-0.8-0.2-1.4,0-1.8,0.6c-0.2,0.4-0.2,0.6,0,0.8c0.2,0.2,0.4,0.4,0.6,0.8
		c0.2,0.4,0.4,0.6,0.6,0.8c0.2,0.2,0.4,0.2,0.8,0.2c0.4-0.2,0.6-0.2,0.4-0.6c0-0.2,0-0.6,0-1s0-0.8,0-1
		C295,70.4,294.8,70.2,294.4,70z M299.8,108.7c-0.2-0.6-0.4-0.8-0.6-1c-0.2-0.2-0.6-0.2-1.2-0.2c-0.6,0-0.8,0.2-1,0.4
		c-0.2,0.2-0.4,0.6-0.4,1c-0.2,0.4-0.2,0.8-0.2,1s0.4,0.6,0.8,0.8c0.8,0.4,1.4,0.4,2.2,0C299.8,110.1,300,109.5,299.8,108.7z
		 M304.2,111.5c-0.2-0.8-0.8-1-1.4-1c-0.4,0-0.6,0.2-0.6,0.4s-0.2,0.6-0.2,1c-0.2,0.4,0,0.8,0.4,1s0.8,0.2,1,0
		c0.2-0.2,0.6-0.4,0.8-0.6C304.2,112.1,304.4,111.9,304.2,111.5z M304.6,103.3c-0.6,0-1,0-1,0.4c-0.2,0.4-0.4,0.8-0.6,1.2
		c-0.4,0.6-0.2,1.2,0.2,1.6c0.4,0.4,1,0.6,1.6,0.4c0.4-0.2,0.8-0.4,1-0.6c0.2-0.2,0.4-0.4,0.2-1c0-0.6-0.2-1-0.4-1.4
		C305.6,103.7,305.2,103.5,304.6,103.3z M307.2,95.2c-0.2-0.2-0.4-0.4-0.6-0.6c-0.2,0-0.4,0-0.8,0c-0.4,0.2-0.8,0.4-1,0.4
		c-0.2,0.2-0.4,0.4-0.4,0.8c0,0.6,0,1,0.2,1.2c0.2,0.2,0.4,0.4,1,0.6c0.4,0.2,0.8,0,1,0c0.2-0.2,0.4-0.4,0.6-0.8
		c0.2-0.4,0.4-0.6,0.2-0.8C307.7,95.8,307.7,95.6,307.2,95.2z M310.3,74.9c-1-0.2-1.8-0.2-2.2,0c-0.4,0.2-1,0.8-1.4,1.6
		c-0.4,0.6-0.4,1.2,0,1.4c0.4,0.4,0.8,0.8,1.4,1.4c0.4,0.4,0.8,0.8,1,1c0.2,0.2,0.8,0.2,1.4,0c0.8-0.2,1.2-0.6,1.6-0.8
		s0.4-0.8,0.4-1.4c0-1-0.2-1.6-0.4-2.2C311.9,75.5,311.3,75.1,310.3,74.9z M310.1,101.3c-0.2-0.2-0.6-0.4-0.8-0.4
		c-0.2,0-0.6,0.2-0.8,0.4c-0.4,0.2-0.6,0.6-0.6,1.2c0.2,0.4,0.4,0.8,0.8,0.8c0.6,0,1-0.2,1.2-0.6c0.2-0.4,0.4-0.6,0.4-0.8
		C310.5,101.7,310.3,101.5,310.1,101.3z M311.5,84.5c-0.4-0.2-0.8-0.2-1-0.2c-0.2,0.2-0.4,0.4-0.8,0.6c-0.2,0.2-0.4,0.6-0.4,0.8
		s0.2,0.6,0.4,0.8c0.2,0.4,0.4,0.6,0.4,0.8c0.2,0.2,0.4,0.2,0.8,0.2c0.4-0.2,0.6-0.2,0.8-0.4c0.2-0.2,0.2-0.4,0.2-0.8
		c0-0.4,0-0.8,0-1C312.1,84.9,311.9,84.7,311.5,84.5z M311.3,92.8h-0.6v0.6l0.6,0.4l0.8-0.6L311.3,92.8z M321.6,68.6
		c-0.4-0.6-0.6-1-1-1.4c-0.4-0.2-0.8-0.4-1.6-0.2c-1,0.2-1.6,0.4-2,0.6c-0.4,0.2-0.8,0.8-0.8,1.6c-0.2,0.8,0,1.6,0.4,1.8
		c0.4,0.4,1,0.8,1.8,1.2s1.6,0.6,2.2,0.8c0.6,0.2,1.2-0.2,1.8-0.8c0.6-0.8,0.8-1.2,0.4-1.8C322.4,70.2,322,69.4,321.6,68.6z
		 M317.5,78.9c-0.6,0-0.8,0.2-0.8,0.6c0,0.4-0.2,0.8-0.4,1.2c-0.2,0.6-0.2,1,0.4,1.4c0.2,0.2,0.6,0.6,0.8,0.6
		c0.2,0.2,0.4,0.2,0.8-0.2c0.4-0.2,0.6-0.6,0.8-0.8c0-0.2,0-0.6,0-1c-0.2-0.6-0.2-1-0.4-1.2C318.5,79.1,318.1,78.9,317.5,78.9z"/>
	<path class="st0" d="M356.8,106.7c-16.3,0-24.8-6.6-25.8-19.7c-0.2-2.8-0.2-5.6,0-8.3c0.4-6.4,3-11.5,7.5-14.7
		c4.4-3.4,10.7-5,18.3-5c7.7,0,13.7,1.6,18.3,5c4.4,3.4,7.1,8.3,7.5,14.7c0.2,2.8,0.2,5.6,0,8.3
		C381.8,100.1,373.1,106.7,356.8,106.7z M337.5,88.4c-0.4-0.2-0.8-0.4-1-0.4c-0.2,0-0.6,0.2-1,0.6c-0.6,0.4-0.8,1-0.6,1.8
		c0.2,0.6,0.4,1,0.6,1.2c0.2,0.2,0.6,0.4,1,0.4s0.8-0.2,0.8-0.4c0-0.4,0.2-0.8,0.2-1.2c0.2-0.4,0.4-0.8,0.4-1S337.9,88.6,337.5,88.4
		z M341.3,76.1c-0.6-1.2-1.2-2-1.6-2.6s-1.2-0.8-2.4-0.6c-1.2,0.2-1.8,0.8-1.8,1.6s0,1.8-0.2,3c-0.2,1.2-0.2,2-0.2,2.6
		s0.4,1.2,1.4,1.8c1.2,0.6,2.2,0.8,3,0.8s1.6-0.6,2.4-1.6s1-1.8,0.6-2.4C342.3,77.9,341.9,77.1,341.3,76.1z M339.7,96.4
		c-0.4-0.6-1-1-1.8-0.8c-0.4,0.2-0.6,0.2-0.8,0.6c0,0.2-0.2,0.6-0.2,1s0,0.8,0,1s0.2,0.4,0.6,0.6c0.4,0.2,0.8,0.2,0.8,0
		s0.4-0.4,0.8-0.8c0.2-0.4,0.6-0.6,0.6-0.8C340.1,97,340.1,96.8,339.7,96.4z M341.1,89.8l-0.8-0.6l-0.8,0.8l0.8,0.8h0.8V89.8z
		 M345.3,97.6c-0.4-0.2-0.6-0.2-0.8-0.2s-0.4,0.2-0.8,0.4c-0.2,0.2-0.4,0.6-0.6,0.8c-0.2,0.2-0.2,0.4,0,0.8c0.2,0.4,0.4,0.6,0.6,0.6
		c0.2,0,0.6,0.2,1,0c0.4,0,0.6-0.2,0.8-0.4s0.2-0.4,0.4-0.8c0-0.4,0.2-0.8,0.2-1C345.9,98,345.7,97.8,345.3,97.6z M345.7,73.7
		l-1-0.2l-0.4,0.8l0.8,0.4l0.4-0.2L345.7,73.7z M345.9,86l-0.8-0.2l-0.2,0.8l0.8,0.6l0.8-0.6L345.9,86z M346.3,81.3
		c-0.4,0-0.8,0.2-1,0.8c-0.2,0.6-0.2,1,0.2,1.4c0.4,0.4,1,0.4,1.4,0c0.6-0.4,0.8-0.8,0.6-1.4c0-0.4-0.2-0.6-0.4-0.6
		C346.9,81.3,346.7,81.3,346.3,81.3z M350.6,63.4c-0.2-0.6-0.6-0.8-1-0.8s-0.8,0.2-1.4,0.2c-0.6,0-1,0.2-1.2,0.2
		c-0.4,0-0.6,0.4-0.6,0.8c-0.2,0.6-0.2,1.2,0,1.4c0.2,0.2,0.4,0.6,1,0.8c0.6,0.4,1.2,0.6,1.4,0.6c0.4,0,0.8-0.2,1.4-0.6
		c0.6-0.4,0.8-0.8,0.8-1.2C351,64.4,350.8,64,350.6,63.4z M349.6,90.4l-1-0.6l-1,0.8l0.6,0.8l1,0.2L349.6,90.4z M351.2,74.1
		c-0.2-0.4-0.4-0.6-0.6-0.6c-0.2,0-0.6,0-1,0c-0.6,0-1,0.2-1.2,0.6c-0.2,0.2-0.2,0.6,0,0.6c0.2,0,0.2,0.4,0.6,0.6
		c0.2,0.2,0.4,0.4,0.6,0.6c0.2,0.2,0.4,0,0.8,0c0.4-0.2,0.6-0.4,0.8-0.6C351.2,74.7,351.2,74.5,351.2,74.1z M353,67.8
		c-0.2-0.2-0.6-0.6-0.8-0.6c-0.2-0.2-0.4-0.2-0.8,0s-0.4,0.2-0.4,0.6c0,0.2,0.2,0.6,0.2,0.8c0,0.4,0.2,0.8,0.6,0.8s0.6,0.2,0.8,0.2
		c0.2,0,0.4,0,0.6-0.4c0.2-0.4,0.2-0.6,0-0.8C353.6,68.2,353.4,68,353,67.8z M357,98c0-0.8-0.2-1.4-0.4-1.8
		c-0.2-0.4-0.8-0.6-1.6-0.8s-1.4-0.4-1.8-0.4s-0.8,0.4-1.4,1.2c-0.4,0.6-0.4,1-0.2,1.2c0.4,0.4,0.8,0.8,1.2,1.4
		c0.2,0.4,0.6,0.6,0.8,0.8c0.2,0.2,0.6,0,1,0c0.8-0.2,1.2-0.4,1.6-0.4C356.8,99.3,357,98.8,357,98z M356.8,92.4
		c1.8,0,2.8-0.4,3.2-1.4s0.6-2.4,0.8-4.6c0-0.8,0-2.2,0-3.6s0-2.8,0-3.6c-0.2-2-0.4-3.4-0.8-4.4s-1.4-1.6-3.2-1.6
		c-1.6,0-2.6,0.6-3.2,1.6s-0.8,2.6-0.8,4.4c0,0.8,0,2.2,0,3.6s0,2.8,0,3.6c0.2,2,0.4,3.6,0.8,4.6C354.2,92,355.2,92.4,356.8,92.4z
		 M355.6,65.4l-0.8-0.6l-0.8,0.6l0.2,0.8l0.8-0.4L355.6,65.4z M361.3,96.6c-0.4-0.2-0.8-0.4-1.2-0.6c-0.2-0.2-0.6,0-1,0.4
		c-0.4,0.4-0.4,0.6-0.2,1c0.2,0.2,0.4,0.6,0.6,1c0.2,0.4,0.4,0.6,0.4,0.8c0.2,0.2,0.4,0.2,0.8,0.2c0.6,0,1-0.2,1.4-0.2
		s0.6-0.4,0.6-1s0-0.8-0.4-1C362.3,97,361.9,96.8,361.3,96.6z M363.3,101.5l-1.2-0.2l-0.6,1.2l1,0.4l0.8-0.2V101.5L363.3,101.5z
		 M364.7,67.4c-0.2-0.4-0.4-0.6-0.6-0.8c-0.2,0-0.6,0-1,0c-0.4,0-0.6,0.2-0.6,0.4s0,0.4-0.2,0.8c0,0.4-0.2,0.8-0.2,1s0,0.4,0.4,0.6
		c0.4,0.2,0.8,0.4,1.2,0.4c0.2,0,0.6-0.2,1-0.6c0.4-0.4,0.6-0.6,0.4-1C365.1,68.2,364.9,67.8,364.7,67.4z M366.1,62.2
		c-0.2-0.4-0.4-0.6-0.8-0.4c-0.2,0.2-0.6,0.2-1.2,0.2c-0.4,0-0.6,0-0.8,0c-0.2,0-0.2,0.2-0.4,0.6c-0.2,0.4-0.4,0.8-0.4,1.2
		c0,0.2,0,0.6,0.4,0.8s0.8,0.4,1,0.4c0.2,0,0.6-0.2,1-0.6c0.4-0.4,0.6-0.6,0.8-0.8C366.3,63.2,366.3,62.8,366.1,62.2z M374.6,71.6
		c-1-1.4-2-2.4-2.8-2.8c-0.8-0.4-2-0.4-3.8,0.2c-1.6,0.6-2.4,1.4-2.4,2.4s0,2.4,0,4c0,1.2,0.4,2,1,2.4c0.6,0.4,1.4,0.6,2.8,1
		c1.2,0.4,2,0.6,2.6,0.6c0.6,0,1.4-0.4,2-1.4c0.8-1.2,1.4-2.4,1.8-3C375.8,73.9,375.6,72.9,374.6,71.6z M370.7,97.2
		c-0.4-0.4-0.8-0.6-1-0.6c-0.4,0-0.8,0.2-1.4,0.4c-0.6,0.2-1,0.6-1.2,0.8c-0.2,0.2-0.4,0.6-0.4,1.2c0.2,0.8,0.4,1.6,0.4,2
		c0.2,0.4,0.6,0.8,1.4,1s1.4,0,1.4-0.6c0.2-0.4,0.4-1.2,0.8-1.8c0.2-0.6,0.4-1,0.4-1.4C371.3,98,371.1,97.6,370.7,97.2z M379.6,86.4
		c-0.4-1.2-1.2-1.8-1.8-1.6c-0.8,0.2-1.8,0.2-3.2,0.4c-1,0.2-1.8,0.4-2.2,0.6c-0.4,0.2-0.8,1-1,2c-0.2,1-0.2,1.8,0,2.4
		c0.2,0.6,0.8,1,1.6,1.6c1.2,0.8,2,1.2,2.8,1.6c0.6,0.4,1.6,0,2.6-0.8c1.2-1,1.8-2,2-2.8C380.4,89,380.2,87.8,379.6,86.4z"/>
	<path class="st0" d="M391.7,105.7c-0.6,0-1.2-0.2-1.6-0.8c-0.4-0.4-0.8-1-0.8-1.6V62.2c0-0.6,0.2-1.2,0.8-1.6
		c0.4-0.4,1-0.8,1.6-0.8h15.5c0.6,0,1.2,0.2,1.6,0.8c0.4,0.4,0.8,1,0.8,1.6v3c1.4-1.8,3.4-3.2,6-4.4c2.6-1.2,5.4-1.8,8.7-1.8
		c3,0,5.8,0.8,8.5,2.2c2.6,1.4,4.6,3.6,6.2,6.6c1.6,3,2.4,6.9,2.4,11.5v24.4c0,0.6-0.2,1.2-0.8,1.6c-0.4,0.4-1,0.8-1.6,0.8h-16.9
		c-0.6,0-1.2-0.2-1.6-0.8s-0.8-1-0.8-1.6V79.5c0-3.2-1.4-4.8-4.4-4.8c-3,0-4.4,1.6-4.4,4.8v23.8c0,0.6-0.2,1.2-0.8,1.6
		c-0.6,0.4-1,0.8-1.6,0.8C408.4,105.7,391.7,105.7,391.7,105.7z M392.9,79.1l-0.8-0.6l-0.6,0.8l0.4,0.6l0.8,0.2L392.9,79.1z
		 M394.1,101.1h-1.2l-0.8,0.8l0.6,1.2l1.2-0.6L394.1,101.1z M396.5,61.4c-0.6,0-1,0-1.2,0c-0.2,0-0.6,0.4-0.8,0.8
		c-0.2,0.4-0.4,0.8-0.2,1c0,0.2,0.4,0.6,0.8,1c0.4,0.4,0.6,0.6,1,0.8c0.2,0.2,0.6,0,1.2-0.2c0.6-0.2,0.8-0.6,1-0.8
		c0.2-0.2,0.2-0.6,0-1.2c-0.2-0.6-0.2-1-0.6-1.2C397.5,61.6,397.1,61.4,396.5,61.4z M396.7,74.1c-0.8-0.2-1.2,0-1.6,0.6
		c-0.2,0.4-0.4,0.8-0.6,1c-0.2,0.2,0,0.6,0.2,1c0.4,0.4,0.6,0.6,1,0.4c0.2-0.2,0.6-0.2,1.2-0.4c0.4-0.2,0.6-0.4,0.6-0.6
		c0-0.2,0-0.4,0-0.8c0-0.4,0-0.8-0.2-0.8S396.9,74.3,396.7,74.1z M397.3,69.2c-0.2-0.2-0.4-0.4-0.4-0.4c-0.2,0-0.4,0-0.8,0
		c-0.6,0.2-0.8,0.4-0.8,0.8c0,0.4,0.2,0.8,0.6,1c0.4,0.2,0.8,0,1-0.2c0.2-0.2,0.4-0.4,0.4-0.6C397.5,69.8,397.5,69.6,397.3,69.2z
		 M398.5,97.8c-0.4-0.4-0.8-0.6-1-0.8c-0.2-0.2-0.6,0-1,0.2s-0.8,0.6-0.8,0.8s0,0.8,0.2,1.2c0.2,0.6,0.4,1,0.4,1.2
		c0.2,0.2,0.4,0.4,1,0.4c0.6,0,1,0,1.2-0.2c0.2-0.2,0.6-0.6,0.8-1c0.2-0.4,0.2-0.8,0-1C399.1,98.6,398.9,98.2,398.5,97.8z
		 M397.1,94.2l-0.8-0.4l-0.4,0.8l0.6,0.6h1L397.1,94.2z M402.2,83.3c-0.6-0.8-1.2-1.4-1.6-1.6c-0.4-0.2-1.2-0.2-2.2,0
		c-1,0.2-1.4,0.6-1.4,1.2s-0.2,1.2-0.2,2.2s0,1.6,0,2.2c0,0.6,0.6,1,1.4,1.4c0.8,0.2,1.4,0.2,1.8-0.2c0.4-0.4,0.8-1,1.2-1.8
		c0.6-0.8,1-1.2,1.4-1.6C402.8,84.5,402.6,84.1,402.2,83.3z M401.4,63.6l-0.8-0.4l-0.8,0.4v1.2h1.2L401.4,63.6z M406.2,72.4
		c-0.2-0.4-0.6-0.8-0.8-1.2c-0.2-0.4-0.6-0.4-1.2-0.2c-0.6,0.2-1,0.4-1,0.8c0,0.4-0.2,0.8-0.2,1.4c0,0.8,0.4,1.4,1.2,1.8
		c0.4,0.2,0.8,0,0.8,0s0.4-0.4,0.8-0.8c0.2-0.2,0.4-0.6,0.6-0.8C406.6,73.3,406.4,72.9,406.2,72.4z M404.8,68.6L404,68l-0.8,0.4
		l0.4,0.8l1,0.2L404.8,68.6z M407.6,98.8c-0.6-0.6-1.2-0.6-1.8-0.2c-0.6,0.4-1,0.6-1.2,0.8c-0.4,0.2-0.4,0.6-0.2,1.2
		c0.2,0.8,0.2,1.2,0.6,1.6c0.2,0.4,0.8,0.6,1.4,0.6c0.6,0,1,0,1.2-0.4c0.2-0.4,0.4-0.8,0.6-1.4c0.2-0.4,0.2-0.8,0.2-1
		C408.2,99.5,407.8,99.3,407.6,98.8z M407,80.7c-0.2-0.6-0.4-1-1-1.2c-0.6-0.2-1.2,0.2-1.4,0.8c-0.2,0.6-0.2,1,0.2,1.4
		c0.2,0.2,0.6,0.4,0.8,0.4c0.2,0,0.4-0.2,0.8-0.2c0.2-0.2,0.6-0.4,0.6-0.4C407,81.3,407,81.1,407,80.7z M406.8,89.2
		c-0.4,0-0.8,0-0.8,0.4c-0.2,0.2-0.4,0.6-0.4,0.8c-0.2,0.2-0.2,0.4,0.2,0.6c0.4,0.4,1,0.6,1.6,0.2c0.2-0.2,0.4-0.2,0.4-0.4
		s0-0.4,0-0.8C407.6,89.4,407.2,89.2,406.8,89.2z M407,93.4l-1-0.2v1l0.6,0.6l0.8-0.6L407,93.4z M408.8,69.2l-1-0.6l-0.6,1l0.4,0.8
		h1L408.8,69.2z M412.8,69.4c-0.6-0.2-1-0.2-1.2-0.4c-0.2,0-0.6,0.2-1,0.6c-0.4,0.4-0.4,0.8-0.4,1c0.2,0.2,0.4,0.6,0.6,1
		c0.2,0.4,0.4,0.6,0.8,0.8c0.2,0,0.6,0,1,0c0.4-0.2,0.8-0.2,1-0.4c0.2-0.2,0.4-0.6,0.4-1c0-0.6,0-0.8-0.2-1
		C413.6,69.8,413.2,69.6,412.8,69.4z M419.9,69c-0.4-0.2-0.8-0.2-1-0.2c-0.2,0-0.6,0.2-0.8,0.6c-0.2,0.4-0.4,0.8-0.6,1
		c0,0.2,0,0.6,0.4,1.2c0.2,0.4,0.6,0.4,0.8,0.4c0.2,0,0.6-0.2,1.2-0.4c0.6-0.2,1-0.6,1-1.4C420.9,69.6,420.5,69.2,419.9,69z
		 M431.6,83.3c-1-0.8-2-1.4-2.6-1.6c-0.6-0.2-1.6,0-2.6,0.8c-1.2,1-2.2,1.8-2.8,2.4c-0.6,0.8-0.6,1.8-0.2,3.4c0.6,1.6,1.2,2.6,2,3
		s2,0.6,3.8,0.6c1.4,0,2.4-0.4,2.8-1c0.4-0.6,0.8-1.6,1.4-3c0.4-1.2,0.4-2,0.2-2.6C433.2,84.7,432.6,84.1,431.6,83.3z M427.3,99.7
		c-0.6-0.2-1-0.2-1.2,0.2c-0.2,0.4-0.2,0.8,0,1.2c0.4,0.6,0.8,0.8,1.2,0.6s0.6-0.4,0.6-1C428,100.1,427.8,99.9,427.3,99.7z
		 M431.6,71.6c-0.6-0.4-1-0.8-1.4-1s-0.8-0.2-1.4,0.2c-0.8,0.4-1,0.8-1,1.2s0.2,1,0.4,1.8c0.2,0.8,0.2,1.4,0.4,1.8
		c0.2,0.4,0.6,0.8,1.4,0.8c0.8,0,1.4-0.2,1.6-0.4c0.2-0.4,0.6-1,1-1.8c0.2-0.6,0.2-1.2,0.2-1.4C432.4,72.4,432.2,72,431.6,71.6z
		 M430.4,96l-0.6-0.8L429,96l0.4,0.6h0.6L430.4,96z M438.8,100.3c-0.4-0.4-0.6-0.4-1-0.4c-0.2,0.2-0.6,0.4-0.8,0.4
		c-0.2,0.2-0.2,0.4-0.2,0.8c0,0.2,0.2,0.4,0.4,0.6c0.2,0,0.4,0.2,0.8,0.2c0.6,0,1,0,1.2-0.4c0.2-0.2,0.2-0.4,0-0.6
		C439.2,100.7,439.2,100.5,438.8,100.3z M438.6,78.1l-0.6-0.2l-0.8,0.4l0.4,0.8h0.8v-1H438.6z M439.8,92.2l-1.2-0.2l-0.4,0.8
		l0.2,0.8l0.8-0.4L439.8,92.2z"/>
	<path class="st0" d="M466.8,106.7c-3.4,0-6.4-0.6-9.3-2s-5-3.6-6.6-6.6c-1.6-3-2.6-7.1-2.8-11.9c0-1.4,0-2.6,0-3.6s0-2.2,0-3.4
		c0.2-4.6,1-8.5,2.8-11.5c1.6-3,3.8-5.2,6.6-6.6c2.8-1.4,5.8-2.2,9.3-2.2c2.4,0,4.6,0.4,6.6,1c2,0.8,3.6,1.8,5,3V45
		c0-0.6,0.2-1.2,0.8-1.6c0.4-0.4,1-0.8,1.6-0.8h16.3c0.6,0,1.2,0.2,1.6,0.8c0.4,0.4,0.8,1,0.8,1.6v58.2c0,0.6-0.2,1.2-0.8,1.6
		c-0.4,0.4-1,0.8-1.6,0.8h-15.1c-0.6,0-1.2-0.2-1.6-0.8c-0.4-0.4-0.8-1-0.8-1.6v-2c-1.4,1.6-3.2,2.8-5.2,3.8
		C472.5,106.1,469.9,106.7,466.8,106.7z M454.8,85.1c0-0.4-0.2-0.8-0.6-0.8c-0.2,0-0.4,0-0.6,0c-0.2,0.2-0.2,0.2-0.4,0.6
		c-0.2,0.2-0.4,0.4-0.4,0.6c-0.2,0.2,0,0.4,0,0.6c0.2,0.2,0.4,0.4,0.6,0.4c0.2,0,0.4-0.2,0.8-0.2C454.6,86,454.8,85.7,454.8,85.1z
		 M456.2,88.4c-0.2-0.4-0.6-0.4-0.8-0.2c-0.2,0.2-0.6,0.4-0.8,0.6c-0.4,0.2-0.6,0.2-0.8,0.4c-0.2,0.2-0.2,0.4-0.2,0.8
		c0,0.4,0.2,0.8,0.2,1c0.2,0.2,0.4,0.4,0.8,0.4c0.4,0,0.8,0,1,0c0.2-0.2,0.4-0.4,0.6-0.8c0.2-0.4,0.4-0.8,0.4-1
		C456.6,89,456.4,88.8,456.2,88.4z M461,71c-0.2-1-0.4-1.6-0.8-1.8c-0.4-0.4-1-0.6-2-0.8c-1-0.2-1.6,0-2,0.2s-0.8,0.8-1.2,1.8
		c-0.4,0.8-0.4,1.2,0,1.6c0.4,0.4,0.8,0.8,1.2,1.2c0.8,0.6,1.2,1.2,1.6,1.6c0.4,0.4,0.8,0.4,1.8,0c0.8-0.4,1.4-1,1.6-1.4
		C461.2,72.9,461.2,72,461,71z M463.6,94.2c-1.2-0.8-2-1.6-2.8-2s-1.6-0.2-2.8,0.6c-0.8,0.4-1.2,1-1.2,1.4c0,0.6,0,1.2,0.4,1.8
		c0.2,0.6,0.6,1.4,0.8,2.2c0.2,1,0.4,1.8,0.6,2.6c0,0.8,0.2,1.4,0.6,1.8c0.2,0.4,1,0.6,2,0.8c1,0,1.6-0.2,1.8-0.6
		c0.2-0.4,0.4-1,0.6-1.8c0.2-0.8,0.4-1.6,0.6-2.4c0.4-1,0.6-1.8,0.8-2.4C464.8,95.4,464.6,94.8,463.6,94.2z M466.6,77.5
		c-0.4-0.4-0.8-0.6-1-0.6c-0.4,0-0.8,0.2-1.4,0.4c-0.6,0.2-1.2,0.4-1.4,0.6c-0.4,0.2-0.4,0.6-0.4,1.2c0,0.8,0.2,1.2,0.4,1.4
		c0.2,0.2,0.8,0.4,1.4,0.6c0.6,0.2,1,0.2,1.4,0c0.2-0.2,0.6-0.6,0.8-1.2c0.4-0.6,0.6-1,0.8-1.4C467.2,78.3,467,77.9,466.6,77.5z
		 M466.8,87.2c0-0.6-0.2-0.8-0.4-1c-0.2-0.2-0.6-0.4-1.2-0.4c-0.6-0.2-1.2-0.2-1.4-0.2c-0.4,0-0.6,0.2-1,0.8s-0.6,1.2-0.6,1.6
		c0,0.4,0.4,0.8,0.8,1.4c0.4,0.4,0.8,0.6,1.2,0.6s0.8-0.2,1.4-0.4c0.6-0.2,0.8-0.6,1-0.8C467,88.2,467,87.8,466.8,87.2z M469.3,63.6
		c-0.6-0.2-1-0.2-1.2,0c-0.2,0.2-0.6,0.6-1,1c-0.6,0.6-0.6,1.4-0.2,2c0.4,0.6,0.6,1.2,0.8,1.6c0.2,0.4,0.6,0.6,1.4,0.4
		c0.8-0.2,1.4-0.4,1.6-0.8c0.2-0.4,0.4-1,0.4-1.8s0-1.2-0.4-1.6C470.5,64.2,470.1,64,469.3,63.6z M474.1,90.8c1.6,0,2.8-0.4,3.4-1.4
		c0.6-1,1-2.2,1-3.8c0.2-1.4,0.2-2.4,0.2-3.4c0-0.8,0-2-0.2-3.2c0-1.4-0.4-2.4-1-3.2c-0.6-0.8-1.8-1.2-3.2-1.2
		c-1.6,0-2.8,0.4-3.4,1.4c-0.6,1-1,2.2-1,3.8c-0.2,2-0.2,3.8,0,5.8c0.2,1.6,0.6,2.8,1,3.8C471.3,90.4,472.5,90.8,474.1,90.8z
		 M474.5,99c-0.4-0.4-0.6-0.8-0.8-1.2c-0.2-0.4-0.4-0.4-1-0.4c-0.8,0.2-1.2,0.4-1.4,0.6c-0.2,0.2-0.4,0.8-0.4,1.4
		c0,0.8,0,1.4,0.2,1.6c0.2,0.4,0.6,0.6,1.4,1c0.8,0.2,1.2,0.4,1.6,0.2s0.8-0.4,1.2-1c0.4-0.4,0.4-0.8,0.2-1.2
		C475.1,100.1,474.9,99.7,474.5,99z M474.3,69.2c0-0.2-0.2-0.6-0.2-0.8s-0.2-0.2-0.6-0.2s-0.6,0-0.6,0.2s-0.2,0.4-0.2,0.8
		c0,0.4-0.2,0.6-0.2,0.8s0,0.4,0.2,0.6c0.6,0.4,1.2,0.4,1.6,0c0.2-0.2,0.4-0.4,0.2-0.6C474.5,69.6,474.3,69.4,474.3,69.2z
		 M483.6,96.8c-0.4-0.2-0.6-0.4-0.8-0.6c-0.2,0-0.4,0-0.8,0.2c-0.4,0.2-0.6,0.6-0.8,0.8c-0.2,0.2,0,0.6,0,1c0.2,0.6,0.4,0.8,0.6,1.2
		c0.2,0.2,0.6,0.4,1,0.4c0.6,0,0.8-0.2,1-0.4c0.2-0.2,0.2-0.6,0.4-1c0.2-0.4,0.2-0.6,0-0.8C484,97.4,483.8,97.2,483.6,96.8z
		 M482.2,56.9l-0.8,0.2v0.8l0.8,0.2l0.6-0.6L482.2,56.9z M482.8,92l-0.6-0.4l-0.8,0.4l0.2,0.8l0.8-0.2L482.8,92z M492.6,73.3
		c-1.4-1-2.6-1.6-3.4-1.6c-0.8,0-2,0.4-3.4,1.4c-1.4,1-2.4,2-2.8,3c-0.4,0.8-0.2,2.2,0.4,3.8c0.6,1.8,1.2,2.8,2,3.4
		c0.8,0.4,2.2,0.8,4,0.8c2,0,3.4-0.2,4.2-0.6c1-0.4,1.6-1.6,2.2-3.4c0.6-1.8,0.6-3,0-3.8C495.3,75.5,494,74.3,492.6,73.3z
		 M490.4,53.3c-1-0.6-1.6-0.8-2.2-0.8c-0.6,0-1.2,0.2-2,1s-1.4,1.4-1.4,1.8c-0.2,0.6,0,1.4,0.4,2.4c0.4,1,0.8,1.4,1.4,1.6
		c0.6,0.2,1.4,0.2,2.4,0c1.2-0.2,2-0.2,2.6-0.4c0.6-0.2,1-0.8,1.2-1.8c0.2-1.2,0.2-1.8-0.4-2.4C492,54.5,491.4,53.9,490.4,53.3z
		 M486.4,101.3c-0.4-0.2-0.6-0.2-0.8,0c-0.2,0.2-0.4,0.4-0.4,0.6c-0.4,0.4-0.4,0.8-0.2,1.2c0.2,0.4,0.6,0.6,1.2,0.6
		c0.4-0.2,0.8-0.4,0.8-1c0-0.4,0-0.6,0-0.8C487,101.5,486.8,101.5,486.4,101.3z M489.2,62.8c-0.6-0.4-1-0.6-1.4-0.6
		s-0.8,0.2-1.4,0.6c-0.6,0.2-0.8,0.6-0.8,1c0,0.4,0,0.8,0.2,1.4c0.2,0.6,0.2,1,0.4,1.4c0.2,0.2,0.6,0.4,1.2,0.6c0.8,0,1.2,0,1.4-0.2
		c0.2-0.2,0.6-0.6,0.8-1.2c0.2-0.6,0.4-1.2,0.2-1.4C489.6,64.2,489.6,63.2,489.2,62.8z M494,86.6c-0.8-0.4-1.4-0.6-1.8-0.4
		c-0.4,0.2-1,0.6-1.6,1.2c-0.6,0.6-1,1.2-1.2,1.6c-0.2,0.4,0,1,0.4,1.8s0.8,1,1.2,1s1-0.2,1.8-0.4c0.6-0.2,1-0.2,1.4-0.4
		c0.2-0.2,0.4-0.6,0.6-1.2c0.2-0.8,0.2-1.4,0.2-2C495.3,87.2,494.9,86.8,494,86.6z M496.9,98.4c-0.4-1-0.8-1.6-1.2-2
		c-0.4-0.4-1-0.6-2-0.4c-1.2,0.2-2,0.4-2.4,0.8c-0.4,0.4-0.8,1-1,2.2c-0.2,1,0,1.6,0.6,1.8c0.6,0.2,1.2,0.6,2.2,1
		c0.8,0.4,1.2,0.6,1.8,0.6c0.4,0,1-0.2,1.6-0.8c0.6-0.6,1-1,1-1.6C497.3,99.9,497.1,99.3,496.9,98.4z M493.2,44.8
		c-0.6-0.2-1-0.2-1.4-0.2c-0.4,0.2-0.6,0.4-1,0.8s-0.4,0.8-0.2,1c0.2,0.2,0.4,0.6,0.6,1c0.4,0.6,0.8,1,1.4,0.8
		c0.4-0.2,0.8-0.2,1-0.4c0.2-0.2,0.4-0.4,0.4-0.8c0-0.6,0-1,0-1.2C494,45.4,493.6,45.2,493.2,44.8z"/>
</g>
</svg>
