<?xml version="1.0" encoding="utf-8"?>
<!-- Generator: Adobe Illustrator 23.0.2, SVG Export Plug-In . SVG Version: 6.00 Build 0)  -->
<svg version="1.1" id="Layer_1" xmlns="http://www.w3.org/2000/svg" xmlns:xlink="http://www.w3.org/1999/xlink" x="0px" y="0px"
	 viewBox="0 0 896.7 191.2" style="enable-background:new 0 0 896.7 191.2;" xml:space="preserve">
<style type="text/css">
	.st0{fill:#FFFFFF;}
	.st1{fill:#FDC300;}
	.st2{fill:none;}
</style>
<g>
	<path class="st0" d="M364.5,162.1c-0.8,0-1.4-0.3-1.9-0.8c-0.5-0.5-0.8-1.2-0.8-1.9V93.4c0-0.8,0.3-1.4,0.8-1.9
		c0.5-0.5,1.2-0.8,1.9-0.8h16.1c1.4,0,2.4,0.4,3.1,1.1s1.1,1.3,1.3,1.6l14.8,24.5l14.8-24.5c0.2-0.3,0.6-0.9,1.3-1.6
		s1.7-1.1,3.1-1.1h16.1c0.8,0,1.4,0.3,1.9,0.8c0.5,0.5,0.8,1.2,0.8,1.9v65.9c0,0.8-0.3,1.4-0.8,1.9c-0.5,0.5-1.2,0.8-1.9,0.8h-18.5
		c-0.8,0-1.4-0.3-1.9-0.8c-0.5-0.5-0.8-1.2-0.8-1.9v-27.9l-6.7,11c-0.3,0.5-0.8,1.1-1.4,1.7c-0.6,0.6-1.4,0.9-2.4,0.9h-7.1
		c-1,0-1.8-0.3-2.4-0.9s-1-1.1-1.4-1.7l-6.7-11v27.9c0,0.8-0.3,1.4-0.8,1.9c-0.5,0.5-1.2,0.8-1.9,0.8H364.5L364.5,162.1z
		 M366.4,95.7l-1.3,0.4l-1,1l1.3,0.8l1.3-0.6L366.4,95.7z M366.8,126l-0.7-0.6l-0.3,0.9l0.3,0.6l0.8-0.1L366.8,126z M371.2,131.5
		c-0.8-0.5-1.5-1-1.9-1.3c-0.5-0.3-1.1-0.2-1.8,0.4c-0.8,0.6-1.2,1.2-1.1,1.7c0.1,0.6,0.3,1.3,0.6,2.2c0.3,0.9,0.6,1.6,0.9,2
		c0.3,0.4,1,0.6,1.9,0.6c1.2,0,2.2-0.1,2.9-0.2c0.7-0.1,1.2-0.7,1.6-1.9c0.3-1.2,0.1-1.9-0.6-2.1C373,132.6,372.2,132.1,371.2,131.5
		z M370.2,104.9c-0.1-0.6-0.3-1.1-0.4-1.3c-0.1-0.3-0.5-0.4-1.1-0.4s-1,0.1-1.3,0.2c-0.2,0.2-0.5,0.6-0.8,1.2
		c-0.2,0.5-0.2,0.8,0,1.1c0.2,0.2,0.5,0.5,0.9,0.9c0.6,0.5,1.3,0.6,1.9,0.1C370.2,106.3,370.4,105.7,370.2,104.9z M377.2,111.5
		c-1.8-0.7-3.2-0.8-4.2-0.5c-1,0.4-2,1.3-3.3,2.8c-0.6,0.9-0.9,1.6-0.7,2.1s0.5,1.1,1,1.7c0.5,0.6,1.1,1.4,1.6,2.2
		c0.8,1.2,1.5,2.1,1.9,2.8c0.5,0.7,1.4,0.9,2.8,0.5c1.4-0.4,2.2-1,2.3-1.8s0.2-2,0.3-3.5c0.1-1.1,0.2-2,0.3-2.9
		c0.1-0.8,0.1-1.5-0.1-2.1C378.9,112.4,378.3,111.9,377.2,111.5z M374.9,144.1c0-0.5,0-0.9,0-1.2s-0.2-0.5-0.7-0.6
		c-0.5-0.1-0.8-0.1-1,0.2c-0.2,0.2-0.4,0.6-0.7,1c-0.3,0.5-0.2,0.9,0.2,1.4c0.4,0.6,0.9,0.8,1.4,0.6
		C374.7,145.2,374.9,144.8,374.9,144.1z M376.4,151.3l-1-0.6l-1.4-0.1l0.1,1.7h1.5L376.4,151.3z M381,104.6
		c-0.1-0.5-0.5-0.7-1.2-0.6c-0.3,0-0.6,0-0.9,0s-0.4,0.2-0.6,0.6c-0.1,0.4,0,0.7,0.3,0.7c0.2,0.1,0.5,0.2,0.9,0.4
		c0.3,0.2,0.5,0.4,0.7,0.6c0.2,0.2,0.4,0.1,0.8-0.2c0.3-0.2,0.4-0.4,0.4-0.7C381.2,105.3,381.1,105,381,104.6z M382,131.7l-1.1-0.7
		l-0.5,1.1l0.3,0.8l1.3,0.1L382,131.7L382,131.7z M382.9,127.7l-0.5,0.4l-0.1,0.7l0.8,0.1l0.2-0.7L382.9,127.7z M387.8,111.3
		c-0.5-0.5-1-0.9-1.4-1.1c-0.4-0.2-0.9-0.1-1.5,0.3c-0.8,0.4-1.2,0.8-1.5,1.2c-0.2,0.4-0.3,1,0,1.9c0.1,0.8,0.4,1.2,0.8,1.4
		c0.4,0.2,1,0.3,1.8,0.5c0.6,0.1,1-0.1,1.2-0.4s0.4-0.7,0.7-1.3c0.3-0.5,0.4-1,0.5-1.3C388.5,112,388.3,111.7,387.8,111.3z
		 M389.2,121.3c-0.2-0.3-0.5-0.3-1,0c-0.3,0.1-0.6,0.2-0.8,0.3c-0.2,0.1-0.3,0.2-0.3,0.5c0.1,0.5,0.4,0.9,1.1,1s1.1,0,1.3-0.5
		c0.2-0.3,0.2-0.5,0.1-0.7C389.6,121.7,389.4,121.5,389.2,121.3z M397.1,125c-0.8-0.3-1.4-0.3-1.8,0s-0.9,0.9-1.4,1.6
		c-0.6,0.8-1.1,1.3-1.4,1.8c-0.3,0.4-0.2,1.1,0.3,1.9c0.6,0.9,1.2,1.5,1.7,1.7s1.3,0.1,2.4-0.2c1-0.3,1.4-0.7,1.5-1.2
		c0-0.5,0.1-1.3,0.1-2.2c0.1-0.9,0.1-1.6,0-2.1C398.5,125.8,398,125.4,397.1,125z M402.1,133c-0.5-0.3-1-0.3-1.2-0.1
		c-0.3,0.2-0.6,0.5-1,0.9c-0.5,0.5-0.6,1.2-0.2,1.9c0.2,0.4,0.4,0.7,0.6,0.9c0.2,0.2,0.5,0.3,1.1,0.2c0.5-0.1,1-0.2,1.2-0.4
		s0.5-0.5,0.6-1.1c0.1-0.7,0-1.2,0-1.5C403,133.6,402.7,133.3,402.1,133z M409,119.5c-0.9-0.5-1.6-0.8-2.1-0.7s-1.2,0.5-2,1.2
		c-1.1,0.9-2,1.6-2.8,2s-0.9,1.3-0.5,2.6c0.5,1.4,1.2,2.2,2,2.4c0.8,0.2,2,0.3,3.5,0.2c1.2-0.1,2-0.4,2.4-0.9
		c0.4-0.5,0.8-1.4,1.2-2.7c0.3-1,0.3-1.8,0-2.3C410.4,120.8,409.8,120.2,409,119.5z M418.4,94.8c-0.5-0.2-0.8-0.2-1.1,0
		c-0.2,0.2-0.5,0.5-0.9,0.9c-0.3,0.3-0.4,0.6-0.3,0.9c0.1,0.2,0.2,0.5,0.4,0.9c0.3,0.5,0.8,0.8,1.4,0.6c0.6-0.2,1-0.6,1-1.2
		c0-0.5,0-1,0-1.3C419.1,95.3,418.9,95,418.4,94.8z M418.7,107c-0.5,0-1,0-1.3-0.1c-0.3,0-0.6,0.2-0.8,0.8c-0.2,0.6-0.3,1.1-0.2,1.4
		c0.1,0.3,0.3,0.7,0.8,1.1c0.5,0.4,0.9,0.5,1.1,0.3s0.6-0.5,1.1-0.8c0.5-0.3,0.8-0.5,1-0.7c0.2-0.2,0.2-0.6,0.1-1.1
		c-0.1-0.5-0.4-0.7-0.7-0.8C419.7,107,419.3,107,418.7,107z M419.1,121.3c-0.5-0.5-0.9-0.6-1.3-0.4c-0.5,0.3-0.7,0.7-0.6,1.3
		c0.1,0.4,0.1,0.7,0.2,1s0.4,0.4,0.8,0.5s0.7,0,0.8-0.2c0.1-0.2,0.3-0.5,0.5-0.9C419.6,122.1,419.5,121.7,419.1,121.3z M418.5,152.9
		l-1,0.5v1.2l1.2,0.4l0.7-1.2L418.5,152.9z M425.4,139.6c-0.8-0.7-1.5-0.8-1.9-0.5c-0.5,0.4-1.2,0.8-2,1.4c-1,0.6-1.8,1.1-2.5,1.3
		c-0.7,0.3-0.9,1-0.6,2.1c0.3,1.2,0.7,2,1.4,2.2c0.6,0.2,1.6,0.4,2.9,0.5c1,0.1,1.7-0.1,2-0.7c0.3-0.5,0.6-1.2,1-2.2
		c0.4-0.9,0.7-1.7,0.8-2.3C426.5,140.9,426.2,140.3,425.4,139.6z M426.5,102.1c-0.8-0.2-1.3-0.1-1.5,0.4c-0.2,0.5-0.5,1-0.9,1.6
		c-0.4,0.7-0.8,1.2-1,1.5c-0.3,0.3-0.2,0.8,0.3,1.4c0.5,0.6,1,0.9,1.4,1s1-0.1,1.8-0.5c0.7-0.3,1.1-0.6,1.3-1
		c0.2-0.4,0.2-0.9,0.1-1.7c-0.1-0.8-0.2-1.4-0.3-1.9C427.7,102.6,427.2,102.3,426.5,102.1z M426.6,118.3c-0.3-0.4-0.7-0.6-1-0.6
		s-0.8,0.2-1.3,0.4c-0.4,0.1-0.6,0.3-0.6,0.6s0,0.6,0,1c0,0.7,0.3,1.1,0.8,1.2c0.6,0.2,1.1,0.4,1.4,0.6s0.7,0,1-0.5
		c0.4-0.5,0.6-1,0.5-1.4C427.4,119.3,427.1,118.8,426.6,118.3z M426.4,125.3c0-0.5,0-0.8,0.1-1.1c0.1-0.3,0-0.5-0.5-0.6
		c-0.5-0.1-0.8-0.1-1,0.1s-0.4,0.5-0.8,0.8c-0.3,0.5-0.2,1,0.1,1.5c0.3,0.3,0.5,0.6,0.7,0.7c0.2,0.1,0.5,0.1,0.9,0
		c0.3-0.1,0.5-0.2,0.5-0.5C426.4,126.1,426.4,125.7,426.4,125.3z M433.9,130.7c-0.4-1.3-0.9-2.1-1.5-2.5c-0.6-0.4-1.6-0.6-3-0.6
		c-1.3,0-2.2,0.2-2.7,0.7s-1,1.3-1.4,2.5c-0.3,1.2-0.4,2-0.1,2.6c0.3,0.6,0.9,1.2,1.9,1.9c0.8,0.6,1.5,0.8,2,0.6
		c0.5-0.2,1.2-0.6,2-1.2c1-0.7,1.7-1.2,2.3-1.7C434.2,132.6,434.3,131.8,433.9,130.7z M431.5,152.8c-0.5-0.8-0.9-1.4-1.2-1.8
		c-0.3-0.4-0.9-0.5-1.9-0.3s-1.6,0.5-1.9,0.9c-0.3,0.4-0.6,1.1-0.7,2.1c-0.1,0.9,0,1.6,0.3,2c0.3,0.4,0.9,0.8,1.7,1.2
		c1,0.5,1.8,0.8,2.5,1.1c0.6,0.2,1.3-0.1,2-1c0.8-0.8,0.9-1.4,0.6-2C432.5,154.5,432,153.7,431.5,152.8z M430,111.7
		c-0.5-0.1-0.9-0.1-1.1-0.1s-0.5,0.2-0.7,0.7c-0.2,0.4-0.2,0.7,0.1,0.8c0.3,0.1,0.6,0.3,0.9,0.6c0.3,0.3,0.5,0.7,0.6,0.9
		c0.1,0.3,0.4,0.3,0.8,0.1c0.8-0.3,1-1,0.9-1.9c-0.1-0.4-0.2-0.7-0.5-0.8C430.8,111.8,430.4,111.7,430,111.7z M431.5,140l-1.3,0.3
		l-0.4,1.4l1.3,0.2l1-0.6L431.5,140z M433.5,93.5c-0.7-0.4-1.4-0.3-2,0.4c-0.3,0.3-0.4,0.5-0.2,0.8c0.1,0.2,0.2,0.6,0.5,1
		c0.2,0.3,0.4,0.6,0.5,0.8s0.4,0.3,0.8,0.2c0.5-0.1,0.8-0.2,1.1-0.3s0.4-0.4,0.5-0.9C434.6,94.6,434.3,93.9,433.5,93.5z"/>
	<path class="st0" d="M557,163.1c-6.7,0-12.5-1-17.5-3.1c-5-2-8.9-5.1-11.8-9.2s-4.5-9.2-4.7-15.2c-0.2-5.9-0.2-11.8,0-18
		c0.3-6,1.8-11,4.7-15.2c2.9-4.2,6.8-7.3,11.8-9.5s10.9-3.3,17.5-3.3s12.5,1.1,17.5,3.3c5,2.2,9,5.3,11.9,9.5
		c2.9,4.2,4.4,9.2,4.6,15.2c0.2,6.1,0.2,12.1,0,18c-0.3,6.1-1.8,11.1-4.7,15.2c-2.9,4.1-6.8,7.2-11.8,9.2
		C569.5,162.1,563.6,163.1,557,163.1z M533.3,132.4c-0.4-0.6-0.8-0.8-1.2-0.6c-0.4,0.2-1,0.4-1.7,0.6c-0.6,0.2-1.1,0.4-1.4,0.5
		c-0.3,0.1-0.5,0.5-0.5,1.2c0,0.8,0.1,1.4,0.2,1.9c0.1,0.4,0.6,0.8,1.4,1.1c0.8,0.2,1.4,0.2,1.8-0.1c0.4-0.2,0.8-0.7,1.3-1.4
		c0.5-0.7,0.8-1.2,0.9-1.6C534.1,133.6,533.8,133.1,533.3,132.4z M530.8,144.5c-0.3-0.3-0.8-0.4-1.3-0.2c-0.3,0.1-0.5,0.2-0.7,0.4
		c-0.2,0.1-0.3,0.3-0.3,0.7c0,0.4,0,0.7,0.2,0.9c0.1,0.2,0.4,0.3,0.8,0.4c0.5,0.1,0.8,0.2,1.1,0.2s0.5-0.2,0.8-0.6
		c0.3-0.4,0.3-0.7,0.1-0.9C531.4,145.1,531.1,144.9,530.8,144.5z M534.7,116.8c-0.1-0.5-0.5-0.7-1-0.7c-0.3,0-0.6,0-0.8,0.1
		c-0.2,0-0.3,0.2-0.4,0.6c-0.2,0.6-0.1,1.1,0.4,1.5c0.5,0.3,1,0.2,1.5-0.1C534.8,117.8,534.9,117.3,534.7,116.8z M537.6,105.1
		c-0.6,0-1.1,0-1.3,0.1c-0.3,0.1-0.5,0.4-0.7,0.9c-0.2,0.5-0.2,0.9,0,1.2c0.2,0.2,0.5,0.5,1,0.9c0.5,0.5,1,0.9,1.3,1.2
		c0.3,0.3,0.8,0.2,1.4-0.2c0.6-0.4,0.9-0.8,0.8-1.2c-0.1-0.4-0.2-1-0.4-1.7c-0.1-0.5-0.4-0.9-0.7-1
		C538.5,105.2,538.1,105.1,537.6,105.1z M540.2,149.5c-0.9-0.4-1.6-0.7-2.1-0.7c-0.5-0.1-1.1,0.3-1.8,1c-0.7,0.7-1,1.3-0.9,1.8
		c0.1,0.5,0.3,1.2,0.8,2.1c0.4,0.8,0.8,1.3,1.2,1.6c0.4,0.2,1,0.3,1.9,0.2c1-0.2,1.6-0.5,2-0.8c0.4-0.3,0.6-1,0.8-1.9
		c0.1-0.9,0-1.5-0.2-1.9C541.6,150.3,541,149.9,540.2,149.5z M536.4,138.7l-0.7-0.4l-0.2,0.7l0.3,0.8l0.8-0.4L536.4,138.7z
		 M543.6,122.7c-0.3-0.8-0.6-1.3-1.1-1.3s-1.1-0.1-2-0.1c-0.6,0-1,0.1-1.2,0.4c-0.2,0.3-0.4,0.7-0.6,1.3c-0.2,0.6-0.4,1.1-0.5,1.5
		c-0.1,0.4,0.1,0.8,0.7,1.2c0.5,0.4,1,0.5,1.3,0.4c0.3-0.1,0.8-0.4,1.3-0.8c0.7-0.4,1.2-0.8,1.6-1
		C543.7,123.9,543.8,123.4,543.6,122.7z M541.8,115.2c-0.5-0.1-0.8-0.2-1.1-0.4s-0.5-0.1-0.8,0.4c-0.3,0.4-0.3,0.7-0.2,1
		s0.4,0.6,0.7,1c0.3,0.3,0.6,0.6,0.8,0.8c0.2,0.2,0.5,0.2,0.9,0.1c0.5-0.2,0.7-0.4,0.7-0.7c0-0.3,0-0.7,0-1.1
		C542.7,115.7,542.4,115.4,541.8,115.2z M542.9,143.6c-0.3-0.5-0.8-0.7-1.4-0.5c-0.5,0.1-0.9,0.2-1.2,0.3c-0.3,0.1-0.5,0.3-0.5,0.8
		c0,0.5,0.1,0.9,0.3,1.2c0.2,0.2,0.6,0.5,1.1,0.7c0.4,0.1,0.7,0.1,0.8-0.2c0.1-0.2,0.4-0.5,0.7-0.9
		C543.1,144.5,543.2,144,542.9,143.6z M547.5,100.3c-0.1-0.9-0.5-1.5-1.1-1.5s-1.4-0.2-2.3-0.3c-1-0.1-1.7-0.2-2.3-0.3
		s-1.1,0.3-1.5,1.2c-0.5,0.9-0.5,1.5,0,1.9c0.4,0.4,1,0.9,1.8,1.6c0.6,0.6,1.1,1,1.5,1.2c0.4,0.2,1,0.1,1.7-0.3
		c0.9-0.5,1.5-0.9,1.9-1.3C547.6,102.1,547.7,101.4,547.5,100.3z M545.7,137.4c-0.1-0.5-0.4-0.9-0.7-0.9c-0.3-0.1-0.7-0.1-1.3-0.1
		c-0.8-0.1-1.3,0.3-1.5,1c-0.2,0.4-0.3,0.8-0.2,1c0,0.3,0.2,0.5,0.6,0.8c0.4,0.3,0.7,0.5,1,0.4c0.2-0.1,0.6-0.2,1-0.5
		c0.4-0.3,0.8-0.6,1-0.8C545.8,138.2,545.9,137.8,545.7,137.4z M546,155.8c-0.5-0.1-0.8-0.1-1.1-0.1c-0.2,0-0.5,0.2-0.7,0.6
		c-0.4,0.6-0.4,1.2,0.1,1.8c0.5,0.6,1,0.8,1.7,0.5c0.8-0.3,1.2-0.8,1.1-1.5c0-0.4-0.1-0.7-0.3-0.9C546.8,156.1,546.5,156,546,155.8z
		 M548,147l-0.6,0.2l0.1,0.7l0.7,0.2L548,147z M557,143.2c2.2,0,4-0.7,5.4-2c1.4-1.3,2.1-3.4,2.1-6.3c0.2-5.8,0.2-11.6,0-17.1
		c-0.1-2.9-0.8-4.9-2.2-6.3c-1.4-1.3-3.2-2-5.3-2c-2.2,0-3.9,0.7-5.3,2c-1.4,1.3-2.1,3.4-2.2,6.3c-0.2,5.6-0.2,11.3,0,17.1
		c0.1,2.9,0.9,4.9,2.2,6.3C552.9,142.5,554.7,143.2,557,143.2z M552.8,147.6c-0.6-0.1-1.1,0-1.4,0.5c-0.3,0.4-0.5,0.8-0.7,1
		c-0.2,0.3-0.1,0.6,0.2,1c0.3,0.4,0.7,0.6,1,0.5c0.3-0.1,0.7-0.2,1.2-0.5c0.5-0.2,0.8-0.4,1.1-0.5c0.3-0.1,0.4-0.4,0.4-1
		c0-0.5-0.2-0.8-0.5-0.8C553.7,147.8,553.3,147.7,552.8,147.6z M562.1,96.4c-1.4-0.6-2.5-1.2-3.4-1.6c-0.8-0.5-1.7-0.1-2.7,1
		c-1,1.2-1.2,2.1-0.7,2.9s1.2,1.8,2,3.1c0.7,1.1,1.3,1.8,1.7,2.3c0.5,0.4,1.3,0.5,2.5,0.2c1.2-0.3,1.9-0.7,2.1-1.4
		c0.2-0.7,0.3-1.6,0.5-2.8c0.1-1.1,0-1.9-0.3-2.3C563.6,97.2,563,96.8,562.1,96.4z M559.9,151.8c-1.2-0.1-2,0-2.5,0.3
		s-1.1,1.1-1.6,2.1c-0.5,1.1-0.7,2-0.6,2.6c0.1,0.7,0.6,1.3,1.6,2.1c0.9,0.8,1.7,1.3,2.3,1.3c0.7,0.1,1.5-0.2,2.5-0.8
		c1-0.6,1.7-1.2,1.9-1.8s0.2-1.4,0-2.6c-0.2-1.2-0.5-1.9-1-2.4C562,152.2,561.1,151.9,559.9,151.8z M557.4,148.2l-1.2-0.2l0.1,1.2
		l0.8,0.5l0.5-0.7L557.4,148.2z M562.2,147.1l-0.6-0.7l-1,0.1l0.2,1l0.8,0.4L562.2,147.1z M570.4,145c0-0.9-0.4-1.4-1.1-1.6
		c-0.4-0.1-0.7-0.1-0.8,0.1c-0.1,0.2-0.3,0.5-0.6,0.9c-0.3,0.3-0.5,0.6-0.7,0.8c-0.2,0.2-0.2,0.5,0,0.9c0.3,0.3,0.6,0.5,0.9,0.5
		s0.6-0.2,1.1-0.4c0.4-0.1,0.7-0.3,0.9-0.4C570.3,145.7,570.4,145.4,570.4,145z M570.6,138.7l-1-1l-0.9,1.3l0.8,0.9h1.3L570.6,138.7
		z M572,130c-1-0.4-1.7-0.2-2.3,0.5c-0.7,0.8-0.8,1.5-0.2,2.3c0.3,0.5,0.6,0.9,0.9,0.9c0.3,0.1,0.7,0.1,1.3,0c0.5-0.1,0.9-0.3,1-0.6
		c0.1-0.3,0.2-0.7,0.3-1.2c0.1-0.5,0-0.9,0-1.2C572.7,130.5,572.4,130.2,572,130z M571.8,121.6c-0.9-0.3-1.6-0.2-2,0.5
		c-0.5,0.7-0.6,1.4-0.1,2.1c0.3,0.4,0.5,0.6,0.8,0.6c0.3,0,0.7-0.1,1.1-0.2c0.4-0.1,0.7-0.2,0.7-0.5c0.1-0.2,0.1-0.6,0.1-1
		s0-0.8,0-1C572.5,121.9,572.3,121.7,571.8,121.6z M571.4,151.7l-1,0.5l-0.7,1l1.3,0.2l0.9-0.5L571.4,151.7z M575,113.2
		c-0.8-0.3-1.4-0.2-1.8,0.1c-0.4,0.3-0.8,0.8-1.4,1.5c-0.5,0.7-0.9,1.2-1.1,1.6c-0.2,0.4-0.1,1,0.4,1.7c0.5,0.8,1,1.2,1.4,1.3
		c0.5,0.1,1.2,0.1,2-0.2c1-0.3,1.7-0.5,2.2-0.8s0.8-0.9,0.9-1.9c0.1-1.1-0.1-1.8-0.5-2.2C576.7,114,576,113.6,575,113.2z
		 M571.6,106.5l-0.9,0.2l0.1,0.9l0.8,0.3l0.6-0.7L571.6,106.5z M574.2,97c-0.6-0.3-1.1-0.3-1.5,0c-0.3,0.3-0.6,0.5-0.8,0.7
		c-0.2,0.2-0.2,0.5,0,0.9c0.2,0.5,0.4,0.7,0.7,0.8c0.2,0,0.6,0.1,1.1,0.1c0.3,0,0.5-0.1,0.6-0.3c0.1-0.2,0.2-0.5,0.3-0.8
		C574.6,97.7,574.5,97.3,574.2,97z M573.4,102l-1-0.4l-0.4,0.9l0.3,0.8l1-0.2L573.4,102z M576.8,144.3c-0.5-0.4-1-0.6-1.3-0.5
		c-0.3,0.1-0.8,0.3-1.3,0.6c-0.5,0.3-0.8,0.7-0.9,1s0,0.8,0.2,1.4c0.2,0.9,0.8,1.4,1.7,1.4c1,0.1,1.6-0.3,1.9-1.2
		c0.2-0.6,0.3-1.1,0.4-1.5C577.6,145.1,577.4,144.7,576.8,144.3z M579.5,103.5c-0.6-0.2-1.1-0.4-1.4-0.5s-0.7,0-1.1,0.5
		c-0.4,0.5-0.6,0.9-0.5,1.2c0.1,0.3,0.3,0.7,0.6,1.3c0.2,0.5,0.5,0.7,0.8,0.8s0.7,0,1.2,0c0.5-0.1,0.8-0.3,0.8-0.5s0.1-0.5,0.2-1
		c0.1-0.4,0.1-0.7,0-1C580,103.9,579.8,103.7,579.5,103.5z M579.8,113l-0.8,0.4l0.1,0.9l0.9,0.3l0.2-0.9L579.8,113z M580.9,128.8
		c-0.5-0.1-0.8,0-1,0.1c-0.2,0.1-0.3,0.4-0.5,0.8c-0.2,0.3-0.3,0.6-0.4,0.9s0.1,0.5,0.4,0.8c0.3,0.3,0.5,0.5,0.8,0.4
		c0.2-0.1,0.5-0.2,0.9-0.4c0.6-0.3,0.9-0.8,0.8-1.2c-0.1-0.4-0.2-0.7-0.2-0.9C581.6,129,581.3,128.9,580.9,128.8z M585,136.2
		c-1-0.3-1.7-0.4-2.1-0.1c-0.5,0.3-1,0.8-1.6,1.6c-0.6,0.8-1,1.5-1.1,2c-0.1,0.5,0.2,1.2,0.8,2c0.5,0.8,1.1,1.2,1.6,1.1
		c0.5-0.1,1.3-0.2,2.2-0.5c0.7-0.3,1-0.6,1.1-1c0.1-0.4,0.1-1,0.1-1.7c0-0.9,0-1.6,0.2-2.2C586.3,136.9,585.9,136.5,585,136.2z
		 M583.2,122c-0.5-0.1-0.9-0.1-1.1,0.2c-0.2,0.2-0.4,0.6-0.7,1.1c-0.3,0.5-0.3,1.1,0.1,1.6c0.4,0.4,0.7,0.8,0.9,1.1
		c0.2,0.3,0.5,0.3,1,0.1c0.6-0.2,1-0.5,1.1-0.8c0.1-0.3,0.2-0.8,0.1-1.4C584.6,122.8,584.1,122.2,583.2,122z"/>
	<path class="st0" d="M603.2,162.1c-0.8,0-1.4-0.3-1.9-0.8c-0.5-0.5-0.8-1.2-0.8-1.9V93.4c0-0.8,0.3-1.4,0.8-1.9
		c0.5-0.5,1.2-0.8,1.9-0.8h16.1c1.4,0,2.3,0.3,3,0.9c0.6,0.6,1,1.1,1.2,1.4l17.2,28.2V93.4c0-0.8,0.3-1.4,0.8-1.9
		c0.5-0.5,1.2-0.8,1.9-0.8h18.5c0.8,0,1.4,0.3,1.9,0.8c0.5,0.5,0.8,1.2,0.8,1.9v65.9c0,0.8-0.3,1.4-0.8,1.9
		c-0.5,0.5-1.2,0.8-1.9,0.8h-16.1c-1.4,0-2.3-0.3-3-1c-0.6-0.6-1-1.1-1.2-1.4l-17.2-26v25.6c0,0.8-0.3,1.4-0.8,1.9
		c-0.5,0.5-1.2,0.8-1.9,0.8L603.2,162.1L603.2,162.1z M607.2,144.4c-0.1-0.5-0.2-0.9-0.5-1c-0.3-0.1-0.7-0.2-1.2-0.4
		c-0.5-0.1-0.9-0.1-1.2-0.1c-0.3,0-0.6,0.2-0.8,0.6c-0.5,0.8-0.4,1.6,0.2,2.3c0.4,0.4,0.8,0.7,1,0.8c0.3,0.1,0.7,0,1.2-0.2
		C606.9,146,607.3,145.4,607.2,144.4z M606.6,129.2c0-0.4-0.3-0.7-0.9-0.9c-0.5-0.1-0.9,0-1.1,0.3c-0.3,0.3-0.5,0.6-0.6,0.8
		c-0.1,0.2,0,0.5,0.2,0.8c0.5,0.6,1.1,0.7,1.8,0.4c0.4-0.1,0.6-0.3,0.6-0.6C606.6,129.8,606.6,129.6,606.6,129.2z M607.9,104.3
		c-0.1-0.5-0.3-0.9-0.6-1.1c-0.3-0.2-0.7-0.3-1.2-0.4c-0.5-0.1-0.9,0-1.1,0.3s-0.4,0.6-0.6,1.1c-0.3,0.8-0.1,1.4,0.4,1.8
		c0.4,0.4,0.8,0.7,1,0.9c0.3,0.2,0.7,0.2,1.2-0.1c0.5-0.3,0.9-0.7,1-1C608.1,105.5,608.1,105,607.9,104.3z M606,150.7l-0.9-0.5
		l-0.6,0.8l0.4,0.6h0.8L606,150.7z M608.7,122.9c-0.1-0.7-0.2-1.2-0.3-1.6s-0.5-0.7-1.2-0.7c-0.7-0.1-1.2,0.1-1.4,0.4
		c-0.3,0.3-0.5,0.8-0.8,1.5c-0.2,0.6-0.2,0.9,0,1.2c0.2,0.2,0.6,0.5,1.1,0.9c0.4,0.3,0.8,0.6,1,0.7c0.3,0.1,0.7,0.1,1.1-0.2
		c0.5-0.3,0.7-0.7,0.8-0.9C609,123.8,608.9,123.4,608.7,122.9z M608.2,134.5c-0.7-0.2-1.2-0.4-1.5-0.5c-0.3-0.1-0.7,0.1-1.1,0.7
		c-0.3,0.5-0.4,1-0.2,1.3c0.2,0.3,0.5,0.7,0.9,1.3c0.3,0.5,0.7,0.8,0.9,1.1c0.3,0.2,0.7,0.2,1.3,0.1c0.6-0.3,1-0.6,1.2-0.9
		c0.2-0.3,0.3-0.8,0.3-1.5c0-0.5-0.2-0.9-0.5-1.1C609.1,134.8,608.7,134.7,608.2,134.5z M609,152.6c-0.3-0.3-0.7-0.4-1.1-0.2
		c-0.3,0.2-0.6,0.4-0.8,0.5c-0.2,0.1-0.2,0.4-0.2,0.8c0.1,0.3,0.2,0.5,0.5,0.5s0.5,0,0.9,0.1c0.3,0.1,0.6,0.1,0.8,0.1
		c0.2,0,0.4-0.2,0.5-0.5c0.1-0.3,0.1-0.5,0-0.6S609.2,152.8,609,152.6z M612.8,142.1c-0.1-0.4-0.3-0.6-0.6-0.7
		c-0.3,0-0.7-0.1-1.1-0.1c-0.5,0-0.9,0-1.2,0s-0.5,0.2-0.7,0.7c-0.1,0.5-0.1,0.8,0.2,0.9s0.6,0.3,1,0.6c0.3,0.2,0.5,0.4,0.7,0.5
		c0.2,0.1,0.4,0,0.7-0.2c0.4-0.3,0.7-0.5,0.9-0.7C612.9,142.9,612.9,142.5,612.8,142.1z M611.7,96.1c-0.4-0.1-0.7-0.1-0.9,0.1
		c-0.2,0.2-0.4,0.5-0.7,0.9c-0.5,0.6-0.5,1.1-0.2,1.6c0.4,0.5,1,0.7,1.6,0.5c0.4-0.1,0.7-0.2,0.9-0.4c0.2-0.2,0.3-0.5,0.3-0.9
		c0-0.5,0-0.9-0.2-1.2C612.5,96.5,612.2,96.3,611.7,96.1z M614.3,118.8c-0.3-0.3-0.6-0.5-0.8-0.6c-0.2-0.1-0.5-0.1-0.9,0.2
		c-0.4,0.2-0.6,0.4-0.6,0.7s0,0.6,0.1,1c0.1,0.5,0.3,0.8,0.4,1s0.4,0.3,0.9,0.4c0.4,0,0.7-0.1,0.9-0.2s0.3-0.5,0.5-0.9
		C615,119.7,614.8,119.2,614.3,118.8z M617.7,153.4c-0.5-0.7-0.9-1-1.4-1.1s-1.1,0.1-1.9,0.4c-0.8,0.3-1.2,0.6-1.5,0.9
		s-0.4,0.9-0.4,1.6c0,0.8,0.1,1.4,0.3,1.8c0.2,0.4,0.7,0.7,1.4,1c1,0.3,1.7,0.5,2.2,0.6c0.5,0.1,1.1-0.2,1.7-1.1
		c0.6-0.8,0.8-1.5,0.6-2C618.8,154.9,618.4,154.2,617.7,153.4z M621.2,103.7c-1.2-0.2-2.3-0.4-3.2-0.7c-0.9-0.3-1.7-0.3-2.3-0.1
		c-0.7,0.2-1.3,0.8-1.8,1.9c-0.6,1.1-0.7,2-0.5,2.6c0.2,0.7,0.7,1.2,1.5,1.8c0.8,0.5,1.6,1.3,2.5,2.1c1.1,1.1,2,1.9,2.7,2.4
		c0.7,0.5,1.8,0.5,3.2-0.2c1.6-0.9,2.7-1.7,3.2-2.5s0.6-2.1,0.4-3.9c-0.3-1.6-0.9-2.6-1.8-2.8C624.1,104.1,622.8,103.9,621.2,103.7z
		 M617.5,133.6c-0.3-0.5-0.7-0.6-1-0.5s-0.7,0.4-1.3,0.6c-0.4,0.1-0.7,0.3-0.9,0.4c-0.2,0.1-0.3,0.4-0.3,0.8c0,0.4,0.1,0.7,0.3,0.8
		c0.2,0.1,0.5,0.3,0.9,0.4c0.5,0.2,0.8,0.3,1.1,0.4c0.2,0,0.5-0.1,0.9-0.5c0.3-0.5,0.6-1,0.7-1.3S617.9,134.1,617.5,133.6z
		 M620.5,126.5c-0.5-0.5-1-0.9-1.3-1.2s-0.8-0.2-1.5,0.1c-0.9,0.3-1.5,0.7-1.8,1s-0.4,0.9-0.4,1.8c0.1,0.8,0.3,1.3,0.8,1.5
		c0.4,0.2,1,0.4,1.8,0.6c0.8,0.2,1.4,0.3,1.9,0.4c0.4,0,0.9-0.3,1.3-1c0.5-0.7,0.6-1.2,0.4-1.6C621.3,127.6,621,127.1,620.5,126.5z
		 M618.2,145.4c-0.8-0.1-1.3,0.1-1.6,0.6c-0.3,0.5-0.4,0.8-0.5,1.1s0.1,0.6,0.4,1c0.3,0.3,0.7,0.5,0.9,0.5c0.3,0,0.7-0.1,1.1-0.4
		c0.5-0.2,0.8-0.4,1-0.6s0.2-0.5,0.2-1c-0.1-0.5-0.2-0.8-0.4-0.9C619,145.7,618.6,145.6,618.2,145.4z M621.9,96.4l-0.4-0.8l-0.7,0.4
		l-0.5,1.1l1.3,0.3L621.9,96.4z M628.1,120.1c-0.5-0.7-0.9-1.1-1.3-1.1c-0.4-0.1-1,0-1.8,0.2s-1.4,0.5-1.7,0.8
		c-0.3,0.3-0.5,0.9-0.5,1.7c0,0.8,0.2,1.3,0.5,1.5s0.8,0.5,1.6,0.8c0.6,0.2,1.1,0.2,1.4,0.1s0.7-0.5,1.1-1.1c0.5-0.5,0.8-1,1.1-1.4
		C628.5,121.2,628.5,120.7,628.1,120.1z M632.9,120.3c-0.7,0-1.1,0.1-1.3,0.4c-0.2,0.3-0.4,0.7-0.7,1.3c-0.3,0.8-0.5,1.3-0.6,1.8
		c-0.1,0.4,0.1,0.9,0.7,1.4c0.5,0.4,1,0.4,1.3,0.1c0.3-0.4,0.8-0.8,1.4-1.3c0.6-0.3,1.2-0.6,1.6-0.8c0.5-0.2,0.6-0.6,0.4-1.3
		c-0.2-0.8-0.5-1.2-0.9-1.4C634.4,120.4,633.8,120.3,632.9,120.3z M653.4,125.8c-2-0.9-3.8-1.4-5.2-1.5s-2.7,0.2-3.9,0.9
		c-1.2,0.7-2.5,1.9-4,3.6c-1.2,1.4-1.7,2.6-1.4,3.6c0.3,1,0.9,2.1,1.9,3.1c1,1.1,2,2.4,2.9,3.9c1,1.7,2,2.9,2.8,3.5
		c0.8,0.6,2.2,0.7,4.1,0.2c2.3-0.5,4.1-1.1,5.2-1.6c1.2-0.5,1.9-2,2.1-4.4c0.1-2,0.2-3.7,0.2-5.1s-0.3-2.5-1-3.5
		C656.6,127.5,655.4,126.6,653.4,125.8z M641.8,147.5l-1.1,0.6l0.1,1.1l1.1,0.3l0.6-1L641.8,147.5z M646.2,154l-1-0.3l-0.8,0.7
		l0.7,0.9l0.9-0.3L646.2,154z M648.9,98.4c-0.1-0.5-0.3-0.8-0.5-1c-0.2-0.2-0.5-0.3-1-0.3c-0.5,0-1,0.1-1.2,0.2
		c-0.3,0.2-0.5,0.5-0.6,1c-0.2,0.5-0.2,0.9-0.1,1.2c0.1,0.3,0.4,0.6,0.9,0.9c0.4,0.3,0.8,0.4,1,0.3c0.3-0.1,0.6-0.2,1-0.5
		C649,99.8,649.1,99.2,648.9,98.4z M648,105.8c-0.4-0.2-0.7-0.2-0.9,0c-0.2,0.2-0.4,0.4-0.7,0.7c-0.3,0.4-0.6,0.7-0.9,0.9
		s-0.3,0.5,0,0.9c0.3,0.5,0.6,0.9,0.9,1.1s0.7,0.2,1.3,0.2c0.6-0.1,1-0.3,1.2-0.6c0.2-0.3,0.3-0.7,0.4-1.3c0.1-0.5,0-0.9-0.2-1.1
		C649,106.2,648.6,106,648,105.8z M650.7,115c-0.6-0.5-1.2-0.5-1.8-0.1c-0.7,0.5-0.9,1.1-0.7,1.8c0.1,0.4,0.2,0.6,0.5,0.7
		c0.3,0,0.7,0.1,1.1,0.1c0.5,0,0.9-0.3,1.1-0.8c0.1-0.4,0.2-0.7,0.2-0.9C651.2,115.5,651,115.3,650.7,115z M652.1,102.9h-1.2
		l-0.5,0.7l0.6,0.8l0.9-0.4L652.1,102.9z M652.3,96.2l-0.9,0.4l0.1,1.1l1-0.3l0.5-0.6L652.3,96.2z M654,105.3l-1.2,0.2l-0.3,1.2
		l1.2,0.6l0.4-1L654,105.3z M657.7,157.1l-0.7-0.7l-0.8,0.6l0.2,0.9l0.9,0.1L657.7,157.1z M662.1,110.6c-0.1-0.7-0.4-1.1-0.7-1.3
		s-0.8-0.3-1.5-0.4s-1.1,0-1.4,0.2c-0.2,0.2-0.5,0.7-0.8,1.3c-0.2,0.5-0.2,0.8,0,1.1c0.2,0.3,0.5,0.6,0.9,0.9
		c0.5,0.4,0.9,0.7,1.2,0.9c0.3,0.2,0.7,0.1,1.2-0.2c0.6-0.4,1-0.8,1.2-1.1C662.3,111.8,662.3,111.3,662.1,110.6z"/>
	<path class="st1" d="M694.1,163.1c-3.4,0-6.6-0.8-9.6-2.4c-3-1.6-5.5-4.1-7.3-7.6c-1.9-3.4-2.8-7.8-2.8-13.2v-28.2
		c0-0.8,0.3-1.4,0.8-1.9c0.5-0.5,1.2-0.8,1.9-0.8h19.5c0.8,0,1.4,0.3,1.9,0.8c0.5,0.6,0.8,1.2,0.8,1.9v27.4c0,3.7,1.7,5.6,5.1,5.6
		c3.4,0,5.1-1.9,5.1-5.6v-27.4c0-0.8,0.3-1.4,0.8-1.9c0.5-0.5,1.2-0.8,1.9-0.8h19.4c0.8,0,1.4,0.3,1.9,0.8c0.5,0.6,0.8,1.2,0.8,1.9
		v47.5c0,0.8-0.3,1.4-0.8,1.9c-0.5,0.5-1.2,0.8-1.9,0.8h-17.8c-0.8,0-1.4-0.3-1.9-0.8c-0.5-0.5-0.8-1.2-0.8-1.9v-3.4
		c-1.7,2.5-4,4.3-7,5.5C701,162.5,697.7,163.1,694.1,163.1z M681.5,129.7c-0.3-0.3-0.5-0.5-0.8-0.6s-0.6,0-1.1,0.1
		c-0.5,0.1-0.8,0.6-0.9,1.3c-0.1,0.4,0.2,0.8,0.8,1c0.5,0.2,0.8,0.1,1.1-0.2c0.3-0.3,0.6-0.6,0.8-0.8
		C681.7,130.4,681.7,130.1,681.5,129.7z M687.7,116.9c-0.8-0.8-1.5-1.2-2.1-1.2s-1.4,0.2-2.4,0.7c-1,0.5-1.7,0.9-2.1,1.4
		s-0.5,1.3-0.4,2.3c0.1,1.1,0.4,1.8,0.9,2.2s1.3,0.7,2.3,0.9c1,0.2,1.6,0.1,2-0.3c0.4-0.4,0.8-1,1.3-1.9c0.5-0.9,0.9-1.6,1.1-2.1
		C688.6,118.4,688.4,117.7,687.7,116.9z M686.3,136c-0.1-0.8-0.3-1.2-0.8-1.2c-0.5-0.1-1.1-0.2-1.8-0.3c-0.5-0.2-1-0.3-1.3-0.2
		c-0.3,0.1-0.6,0.3-1,0.8c-0.3,0.6-0.5,1-0.6,1.4c-0.1,0.4,0.1,0.8,0.6,1.3c0.4,0.5,0.8,0.8,1.2,0.9c0.4,0.1,0.9,0,1.6-0.3
		c0.8-0.3,1.3-0.5,1.7-0.8C686.2,137.4,686.4,136.9,686.3,136z M683.4,144.1c-0.4-0.6-0.9-0.8-1.5-0.6c-0.8,0.2-1.1,0.6-1.1,1.2
		c0,0.8,0.3,1.3,1,1.5c0.3,0.1,0.6,0.1,0.7-0.1c0.1-0.2,0.3-0.4,0.5-0.7c0.2-0.3,0.4-0.5,0.5-0.7
		C683.7,144.6,683.6,144.4,683.4,144.1z M692,147.8c-0.3-0.9-0.6-1.7-0.7-2.3s-0.7-0.9-1.7-0.9c-1,0-1.5,0.3-1.6,0.9
		c-0.1,0.6-0.3,1.3-0.6,2.3c-0.2,0.7-0.2,1.2,0,1.5c0.2,0.3,0.5,0.7,1.1,1.1c0.5,0.4,1,0.6,1.3,0.6c0.3,0,0.8-0.2,1.3-0.6
		c0.5-0.4,0.9-0.8,1-1.1C692.2,148.9,692.2,148.4,692,147.8z M690.9,156.8c-0.3-0.5-0.8-0.8-1.4-0.6c-0.5,0.1-0.8,0.2-1,0.3
		s-0.3,0.4-0.4,0.8c-0.1,0.4,0,0.7,0.3,0.7c0.3,0.1,0.6,0.2,0.9,0.3c0.3,0.1,0.5,0.2,0.7,0.3c0.2,0.1,0.4,0,0.6-0.3
		C691.1,157.7,691.2,157.2,690.9,156.8z M692.5,139.3c-0.1-0.3-0.3-0.6-0.4-0.8c-0.1-0.2-0.4-0.3-0.7-0.2c-0.5,0.1-1,0.1-1.2,0.2
		c-0.3,0.1-0.5,0.4-0.6,0.9c-0.1,0.5,0,0.9,0.2,1.2c0.2,0.2,0.5,0.5,1.1,0.8c0.4,0.2,0.7,0.2,0.9,0s0.4-0.4,0.8-0.7
		C692.8,140.3,692.8,139.9,692.5,139.3z M693.9,111.5c-0.7-0.1-1.1,0-1.4,0.3c-0.2,0.3-0.5,0.7-0.7,1.3c-0.3,0.5-0.3,0.9-0.2,1.2
		c0.1,0.3,0.4,0.6,0.8,1c0.5,0.4,0.9,0.7,1.2,0.9c0.3,0.2,0.7,0.1,1.3-0.2c0.6-0.3,0.9-0.7,1-1.1c0-0.4,0-0.9-0.2-1.5
		c-0.1-0.7-0.3-1.2-0.5-1.5C695,111.7,694.6,111.5,693.9,111.5z M694.7,126.7c-0.3-0.5-0.6-0.7-1-0.6c-0.5,0.1-0.7,0.5-0.7,1.1
		c0,0.3,0,0.6,0,0.9c0,0.2,0.2,0.4,0.6,0.6c0.5,0.2,0.8,0.3,1.1,0.2c0.2,0,0.5-0.2,0.8-0.7c0.3-0.3,0.3-0.5,0.1-0.7
		C695.2,127.3,694.9,127,694.7,126.7z M697.6,156c-0.3-0.3-0.5-0.5-0.8-0.4c-0.2,0.1-0.6,0.2-1,0.3c-0.5,0.1-0.8,0.2-1.1,0.4
		c-0.2,0.1-0.4,0.4-0.4,0.9c0,0.5,0.1,0.8,0.4,0.9c0.3,0.1,0.6,0.2,1,0.2c0.5,0.2,1,0.3,1.2,0.4c0.3,0.1,0.6-0.1,0.9-0.5
		c0.3-0.4,0.4-0.8,0.2-1.1C698.2,156.8,698,156.4,697.6,156z M696.7,132.9l-1-0.4l-0.8,0.6l0.6,0.7l1.1,0.4L696.7,132.9z M701,153
		c-0.3-0.1-0.5-0.2-0.7-0.1c-0.2,0.1-0.4,0.3-0.6,0.6c-0.3,0.3-0.5,0.5-0.6,0.7c-0.1,0.2-0.1,0.4,0.1,0.8c0.2,0.4,0.4,0.7,0.6,0.8
		s0.5,0.2,0.9,0.1c0.4-0.1,0.7-0.2,0.7-0.5c0.1-0.2,0.1-0.6,0.2-1.1C701.8,153.7,701.5,153.2,701,153z M702.9,149.2l-0.9-0.6
		l-0.6,0.9l0.3,1.1l1-0.5L702.9,149.2z M708.7,154.3c-0.1-0.5-0.4-0.8-0.8-0.9c-0.4,0-0.9-0.1-1.5-0.2c-0.6-0.1-1.1-0.1-1.5-0.2
		c-0.4-0.1-0.8,0.1-1,0.7c-0.3,0.7-0.3,1.2-0.2,1.6c0.1,0.4,0.4,0.8,0.9,1.3c0.5,0.4,0.8,0.5,1.1,0.2c0.3-0.2,0.7-0.5,1.2-0.8
		c0.5-0.3,1-0.5,1.3-0.6C708.7,155.3,708.8,154.9,708.7,154.3z M713.9,116.4l-1-0.3l-0.8,0.4l0.3,0.8l1.1,0.3L713.9,116.4z
		 M715.7,112.4l-1-0.4l-0.8,0.6l0.5,0.7l0.7,0.1L715.7,112.4z M715.4,128.3c-0.5-0.3-1-0.2-1.2,0.2c-0.2,0.2-0.3,0.4-0.2,0.5
		s0.2,0.3,0.3,0.6c0.2,0.3,0.3,0.6,0.4,0.9c0.1,0.3,0.3,0.4,0.6,0.3c0.4-0.1,0.6-0.3,0.5-0.6c-0.1-0.2-0.1-0.6,0-1
		C715.8,128.8,715.7,128.4,715.4,128.3z M720.6,147.1c-0.5-1-0.9-1.8-1.2-2.4c-0.3-0.6-1.1-0.9-2.2-0.7c-1.2,0.1-1.8,0.6-1.8,1.3
		c-0.1,0.7-0.2,1.6-0.4,2.8c-0.2,1-0.4,1.8-0.5,2.4c-0.1,0.6,0.3,1.2,1.2,1.7c1,0.5,1.8,0.7,2.4,0.5s1.3-0.7,2.2-1.5
		c0.8-0.7,1.1-1.3,1.1-1.8C721.2,148.8,721,148,720.6,147.1z M725.9,115.8c-0.9-1-1.7-1.5-2.3-1.5c-0.7,0-1.6,0.3-2.9,0.8
		c-1.6,0.5-2.8,1-3.7,1.3c-0.9,0.3-1.3,1.2-1.3,2.8c0.1,1.8,0.5,2.9,1.3,3.5c0.8,0.5,2,1.1,3.7,1.5c1.4,0.4,2.4,0.3,3-0.2
		s1.3-1.5,2.1-2.8c0.8-1.1,1.2-2,1.2-2.7C727.1,117.8,726.7,116.9,725.9,115.8z M718.2,159l-0.7-1l-0.8,0.7l-0.1,0.7l0.8,0.2
		L718.2,159z M719.6,140.4l-1.1,0.5l0.3,1.2l1.2,0.2l0.1-1L719.6,140.4z M721.8,132.9c-0.2-0.3-0.4-0.6-0.5-0.8
		c-0.1-0.2-0.4-0.2-0.8-0.1c-0.6,0.2-0.9,0.7-0.9,1.4c0,0.5,0.3,0.9,1,1.1c0.5,0.1,0.9,0,1.2-0.5
		C722.1,133.7,722.1,133.3,721.8,132.9z M726.9,144.2c-0.5-0.1-1-0.1-1.2,0.1c-0.3,0.1-0.5,0.4-0.7,0.9c-0.2,0.4-0.2,0.7,0,1
		c0.2,0.2,0.4,0.5,0.8,0.9c0.4,0.3,0.7,0.6,1,0.8c0.2,0.2,0.6,0.2,1,0c0.6-0.3,1-0.6,1.2-0.9c0.2-0.3,0.3-0.7,0.2-1.3
		c-0.1-0.6-0.4-1-0.7-1.1C728,144.4,727.5,144.3,726.9,144.2z M729.2,136c-0.5-0.3-0.9-0.5-1.2-0.4c-0.3,0.1-0.7,0.3-1.2,0.6
		c-0.4,0.3-0.6,0.6-0.7,0.8c0,0.3,0,0.6,0.2,1.1c0.1,0.6,0.3,0.9,0.5,1.1c0.2,0.2,0.5,0.3,1,0.3c0.8,0,1.4-0.4,1.7-1.2
		c0.2-0.5,0.3-1,0.4-1.3C729.9,136.8,729.7,136.5,729.2,136z M729.7,129.7c0-0.5,0-0.8,0-1.1c0-0.2-0.2-0.4-0.7-0.5
		c-0.5-0.1-0.8-0.2-1.1-0.2c-0.3,0-0.5,0.2-0.8,0.7c-0.3,0.4-0.3,0.7-0.2,1c0.1,0.2,0.3,0.6,0.6,1c0.3,0.3,0.5,0.6,0.7,0.7
		s0.5,0.1,0.9-0.1s0.6-0.3,0.6-0.6S729.7,130.1,729.7,129.7z M728.4,125l-0.7-0.3l-0.3,0.8l0.4,0.8l0.6-0.7L728.4,125L728.4,125z"/>
	<path class="st1" d="M746.4,181.4c-0.8,0-1.4-0.3-1.9-0.8c-0.5-0.5-0.8-1.2-0.8-1.9v-66.9c0-0.8,0.3-1.4,0.8-1.9
		c0.5-0.5,1.2-0.8,1.9-0.8h17.3c0.8,0,1.4,0.3,1.9,0.8c0.5,0.6,0.8,1.2,0.8,1.9v3.1c1.6-2,3.6-3.6,6.1-4.9c2.5-1.3,5.5-1.9,9-1.9
		c3.9,0,7.5,0.8,10.7,2.3c3.2,1.6,5.7,4.1,7.7,7.5c2,3.4,3.1,8,3.3,13.7c0.1,1.5,0.1,2.8,0.1,4s0,2.5-0.1,4.1
		c-0.2,5.3-1.3,9.7-3.2,13.2c-1.9,3.5-4.5,6.1-7.7,7.8c-3.2,1.7-6.8,2.6-10.7,2.6c-2.9,0-5.4-0.5-7.8-1.4s-4.2-2.5-5.8-4.7v21.7
		c0,0.8-0.3,1.4-0.8,1.9c-0.5,0.5-1.2,0.8-1.9,0.8L746.4,181.4L746.4,181.4L746.4,181.4z M747.7,114.2l-1-0.4l-0.6,1.2l1,0.7
		l1.1-0.4L747.7,114.2z M748.2,140.1l-1.4-0.1l-0.1,1.5l1.3,0.6l0.8-1.1L748.2,140.1z M751.3,133.4c-0.1-0.5-0.2-1-0.2-1.3
		c-0.1-0.3-0.4-0.5-1-0.7c-0.7-0.1-1.2-0.2-1.7-0.2s-0.8,0.3-1.2,1c-0.4,0.6-0.5,1.1-0.2,1.4c0.3,0.3,0.7,0.8,1.2,1.3
		c0.4,0.5,0.8,0.8,1.1,1.1c0.3,0.2,0.8,0.2,1.4-0.1c0.6-0.3,0.9-0.6,0.8-1C751.4,134.6,751.3,134.1,751.3,133.4z M749.7,168.8
		l-1-0.6l-0.9,0.6l0.4,0.8l0.8,0.1L749.7,168.8z M750.4,173.8l-1.2-0.7l-0.8,1l0.6,0.8l1.2,0.4L750.4,173.8z M753.5,113.4
		c-0.6-0.2-1.1-0.2-1.4-0.1c-0.3,0.1-0.7,0.5-1,1c-0.4,0.5-0.6,1-0.5,1.3c0.1,0.3,0.3,0.7,0.6,1.3c0.4,0.5,0.8,0.9,1.1,1
		c0.3,0.1,0.8,0.1,1.4-0.1c0.8-0.3,1.3-0.5,1.6-0.8c0.3-0.3,0.5-0.8,0.5-1.5s-0.2-1.2-0.6-1.4C754.8,113.8,754.3,113.6,753.5,113.4z
		 M755.2,152c-0.1-0.5-0.2-0.8-0.5-1c-0.2-0.2-0.6-0.3-1.1-0.5c-0.8-0.1-1.3,0.1-1.7,0.8c-0.3,0.7-0.3,1.3,0.2,1.8
		c0.5,0.5,1,0.7,1.7,0.4c0.5-0.2,0.8-0.4,1.1-0.6C755.2,152.9,755.3,152.5,755.2,152z M755.9,139.8c-1-0.2-1.6-0.2-2,0.1
		c-0.4,0.3-0.8,0.8-1.3,1.6c-0.5,0.7-0.7,1.2-0.7,1.7c0,0.4,0.3,1,0.9,1.6c0.6,0.8,1.1,1.3,1.5,1.8c0.4,0.4,1.1,0.5,2,0.1
		c1-0.3,1.5-0.8,1.7-1.3c0.2-0.5,0.3-1.4,0.2-2.4c-0.1-0.9-0.2-1.6-0.6-2C757.4,140.4,756.8,140.1,755.9,139.8z M756.1,175.1
		c-0.4-0.4-0.8-0.6-1.1-0.4c-0.3,0.1-0.7,0.3-1.2,0.6c-0.5,0.3-0.8,0.5-1.1,0.7c-0.3,0.2-0.4,0.5-0.3,1.1c0.1,0.5,0.4,0.9,0.7,0.9
		c0.3,0.1,0.7,0.1,1.3,0.2c0.5,0.1,0.8,0.1,1.1,0s0.5-0.3,0.7-0.8c0.3-0.5,0.4-0.9,0.5-1.2C756.6,175.9,756.5,175.5,756.1,175.1z
		 M755,168.6c-0.5-0.4-1-0.4-1.5,0c-0.4,0.3-0.7,0.5-0.9,0.7s-0.2,0.5,0,0.9c0.1,0.4,0.3,0.6,0.6,0.6s0.6,0,1.1,0
		c0.5,0,0.8,0,1.1,0.1c0.3,0,0.5-0.1,0.6-0.6c0.1-0.5,0.1-0.8,0-1C755.7,169.1,755.4,168.9,755,168.6z M759.3,123.7
		c-1-0.2-1.7-0.2-2.1,0.1s-0.9,0.8-1.4,1.6c-0.5,0.9-0.8,1.7-0.8,2.2c-0.1,0.5,0.3,1.2,1,1.9c0.7,0.8,1.3,1.2,1.9,1.3
		c0.6,0.1,1.3-0.1,2.3-0.5c0.9-0.4,1.3-0.9,1.3-1.4c0-0.5-0.1-1.3-0.2-2.2c-0.1-0.9-0.3-1.7-0.4-2.1S760.3,123.8,759.3,123.7z
		 M762.6,157.6c-1-0.5-1.7-0.6-2.2-0.4c-0.5,0.2-1.1,0.7-1.9,1.5c-0.8,0.7-1.2,1.3-1.3,1.8c-0.1,0.5,0,1.2,0.5,2
		c0.5,1,0.9,1.8,1.3,2.2c0.4,0.4,1.2,0.6,2.3,0.5c1-0.2,1.7-0.6,1.9-1.1c0.3-0.5,0.5-1.3,0.7-2.3c0.1-1.1,0.2-1.9,0.1-2.4
		C764,158.7,763.5,158.1,762.6,157.6z M762.4,132.4c-0.7-0.2-1.2-0.1-1.4,0.2s-0.6,0.8-1,1.4c-0.4,0.7-0.7,1.2-1,1.6
		c-0.2,0.4-0.1,0.9,0.5,1.5c0.5,0.6,0.9,0.8,1.3,0.5c0.4-0.3,1-0.5,1.7-0.8c0.5-0.3,0.9-0.5,1.1-0.8c0.2-0.2,0.2-0.6,0.2-1.2
		c-0.1-0.7-0.1-1.2-0.2-1.7S763.1,132.5,762.4,132.4z M762.5,113.2c-0.8-0.1-1.3,0.1-1.5,0.6c-0.2,0.5-0.4,1.1-0.8,1.8
		c-0.3,0.7-0.7,1.2-0.9,1.7c-0.3,0.4-0.1,0.9,0.5,1.5c0.7,0.6,1.3,0.9,1.7,0.9s1.1-0.3,1.9-0.8c0.7-0.3,1.1-0.7,1.2-1.1s0.1-1,0-1.8
		c-0.2-0.8-0.4-1.4-0.6-1.9C763.9,113.6,763.4,113.3,762.5,113.2z M763,176.4l-0.8,0.2l-0.3,0.6l0.6,0.5l0.5-0.5L763,176.4
		L763,176.4z M771.5,150.4c-0.1-1.2-0.5-2-1.1-2.2c-0.6-0.3-1.5-0.5-2.7-0.8c-1.2-0.3-2.2-0.4-2.8-0.5c-0.7,0-1.3,0.5-2,1.6
		c-0.5,0.9-0.5,1.7,0,2.1c0.5,0.5,1.2,1.2,1.9,2c0.8,0.9,1.3,1.7,1.7,2.3c0.4,0.7,1.1,0.8,2.3,0.3c1.3-0.5,2.1-1.1,2.4-1.8
		C771.5,152.9,771.6,151.9,771.5,150.4z M773.1,144.8c1.9,0,3.2-0.5,3.8-1.6c0.7-1.1,1.1-2.5,1.3-4.3c0.2-2.2,0.2-4.5,0-6.7
		c-0.2-1.8-0.6-3.3-1.3-4.3s-1.9-1.6-3.8-1.6c-1.9,0-3.2,0.5-3.9,1.6c-0.7,1.1-1.1,2.5-1.2,4.3c-0.1,1.5-0.1,2.7-0.1,3.7
		c0,1,0,2.3,0.1,3.8c0.1,1.6,0.6,2.9,1.4,3.8C770.2,144.4,771.4,144.8,773.1,144.8z M774.8,116.2c-0.3-0.4-0.5-0.7-0.7-0.9
		s-0.5-0.2-1-0.2c-0.5,0.1-0.7,0.3-0.8,0.6c0,0.3-0.1,0.7-0.2,1.1c-0.1,0.4-0.1,0.7,0,0.9c0.1,0.2,0.3,0.4,0.7,0.6
		c0.5,0.2,0.8,0.3,1.1,0.4c0.3,0,0.6-0.1,0.9-0.5c0.3-0.4,0.5-0.8,0.4-1C775.3,117,775.1,116.6,774.8,116.2z M782.5,150
		c-1-1-1.7-1.8-2.3-2.3c-0.6-0.5-1.5-0.5-2.8,0.2s-1.7,1.3-1.5,2.1c0.2,0.8,0.4,1.9,0.6,3.2c0.2,1.2,0.4,2.2,0.6,2.9
		c0.2,0.7,0.9,1.1,2.1,1.2c1.4,0.3,2.5,0.3,3.2,0c0.7-0.3,1.4-1.1,2-2.4c0.5-1.2,0.6-2,0.2-2.6S783.4,150.9,782.5,150z M793.5,124.3
		c-1.5-1.4-2.8-2-3.8-1.8c-1,0.2-2.5,0.9-4.2,1.9c-1.5,0.8-2.4,1.7-2.7,2.6s-0.2,2.1,0.1,3.8c0.3,1.6,0.8,2.6,1.5,3.1
		c0.7,0.5,1.8,0.8,3.4,1c1.8,0.2,3.3,0.3,4.3,0.4c1,0,2-0.8,2.7-2.4c1-2,1.4-3.5,1.2-4.6C795.9,127,795.1,125.7,793.5,124.3z
		 M785.8,114.3c-0.4-0.3-0.7-0.4-1-0.1s-0.6,0.5-1.1,0.8c-0.3,0.2-0.6,0.4-0.8,0.5c-0.2,0.1-0.3,0.4-0.2,0.8
		c0.1,0.4,0.3,0.7,0.5,0.8s0.5,0.2,1,0.3c0.5,0.1,0.8,0.1,1.1,0.1c0.3,0,0.5-0.3,0.7-0.8c0.2-0.5,0.3-1,0.3-1.3
		S786.3,114.7,785.8,114.3z M784.8,144.9l-1.2-0.6l-0.2,1.4l0.7,1.2l1.1-1L784.8,144.9z M788.6,155.9c-0.6-0.1-1.1-0.1-1.3,0.1
		s-0.5,0.4-0.8,0.9c-0.2,0.5-0.2,0.8,0,1.1c0.2,0.2,0.5,0.5,0.8,0.9c0.3,0.3,0.6,0.6,0.9,0.7s0.6,0.1,1-0.2c0.5-0.3,0.8-0.5,1-0.7
		s0.2-0.6,0.2-1.1c-0.1-0.5-0.3-0.9-0.5-1.1C789.5,156.2,789.1,156,788.6,155.9z M789.8,112.8c-0.3-0.3-0.5-0.6-0.7-0.8
		s-0.5-0.2-0.9-0.1c-0.4,0.2-0.6,0.4-0.6,0.7s0,0.7,0.1,1.1c0.1,0.6,0.4,0.9,1,1c0.3,0.1,0.6,0.1,0.9,0.2s0.5-0.1,0.7-0.5
		c0.2-0.3,0.2-0.6,0.2-0.8C790.3,113.4,790.1,113.1,789.8,112.8z M792.7,150.1c-0.6-0.6-1.1-1.1-1.5-1.3c-0.4-0.3-1-0.2-1.6,0.3
		c-0.8,0.4-1.1,0.8-1,1.3c0.1,0.5,0.2,1.1,0.4,1.9c0.1,0.6,0.4,1,0.7,1.1c0.3,0.1,0.8,0.2,1.4,0.3c0.7,0.1,1.2,0.1,1.6,0.1
		s0.8-0.3,1-0.9c0.3-0.7,0.3-1.2,0.2-1.5C793.6,151,793.2,150.6,792.7,150.1z M796,117.1c-0.5-0.2-0.8-0.3-1.1-0.4
		c-0.2,0-0.5,0.1-0.9,0.5c-0.3,0.4-0.3,0.7-0.1,0.9c0.2,0.2,0.4,0.5,0.7,0.8c0.3,0.5,0.6,0.9,0.7,1.2c0.1,0.3,0.4,0.4,0.9,0.3
		c0.5-0.2,0.8-0.5,0.9-0.8c0-0.3,0-0.7,0-1.3c0-0.4-0.1-0.7-0.2-0.8C796.7,117.3,796.5,117.2,796,117.1z M797.6,143.1
		c-0.1-0.5-0.3-0.8-0.4-1c-0.1-0.2-0.4-0.3-0.8-0.3s-0.7,0.1-0.8,0.3c-0.1,0.2-0.2,0.5-0.4,0.9c-0.2,0.5-0.1,0.9,0.4,1.2
		c0.3,0.2,0.5,0.4,0.7,0.5c0.2,0.1,0.4,0.1,0.7-0.2C797.5,144.2,797.7,143.7,797.6,143.1z"/>
	<g>
		<path class="st2" d="M456,118.4c-0.3-0.3-0.8-0.4-1.3-0.2c-0.3,0.1-0.5,0.2-0.7,0.4c-0.2,0.1-0.3,0.3-0.3,0.7c0,0.4,0,0.7,0.2,0.9
			c0.1,0.2,0.4,0.3,0.8,0.4c0.5,0.1,0.8,0.2,1.1,0.2s0.5-0.2,0.8-0.6c0.3-0.4,0.3-0.7,0.1-0.9C456.5,119,456.3,118.7,456,118.4z"/>
		<path class="st2" d="M470.7,112.2c0.3-0.2,0.3-0.5,0.2-1c-0.1-0.5-0.4-0.8-0.7-0.9c-0.3-0.1-0.7-0.1-1.3-0.1
			c-0.8-0.1-1.3,0.3-1.5,1c-0.2,0.4-0.3,0.8-0.2,1c0,0.3,0.2,0.5,0.6,0.8c0.4,0.3,0.7,0.5,1,0.4s0.6-0.2,1-0.5
			C470.1,112.7,470.4,112.4,470.7,112.2z"/>
		<path class="st2" d="M466.3,91.8c0.2,0.2,0.5,0.2,0.9,0.1c0.5-0.2,0.7-0.4,0.7-0.7c0-0.3,0-0.7,0-1.1c0-0.4-0.3-0.7-0.9-0.9
			c-0.5-0.1-0.8-0.2-1.1-0.4c-0.3-0.2-0.5,0-0.8,0.4c-0.3,0.4-0.3,0.7-0.2,1c0.1,0.2,0.4,0.6,0.7,1
			C465.8,91.4,466.1,91.7,466.3,91.8z"/>
		<path class="st2" d="M464.5,95.6c-0.2,0.3-0.4,0.7-0.6,1.3c-0.2,0.6-0.4,1.1-0.5,1.5c-0.1,0.4,0.1,0.8,0.7,1.2
			c0.5,0.4,1,0.5,1.3,0.4c0.3-0.1,0.8-0.4,1.3-0.8c0.7-0.4,1.2-0.8,1.6-1c0.4-0.3,0.5-0.8,0.3-1.5c-0.3-0.8-0.6-1.3-1.1-1.3
			c-0.4-0.1-1.1-0.1-2-0.1C465.1,95.1,464.7,95.3,464.5,95.6z"/>
		<path class="st2" d="M458.9,89.9c-0.3,0-0.6,0-0.8,0c-0.2,0-0.3,0.2-0.4,0.6c-0.2,0.6-0.1,1.1,0.4,1.5c0.5,0.3,1,0.2,1.5-0.1
			c0.4-0.3,0.5-0.8,0.3-1.3C459.7,90.2,459.4,89.9,458.9,89.9z"/>
		<path class="st2" d="M466.6,117c-0.5,0.1-0.9,0.2-1.2,0.3c-0.3,0.1-0.5,0.3-0.5,0.8c0,0.5,0.1,0.9,0.3,1.2
			c0.2,0.2,0.6,0.5,1.1,0.7c0.4,0.1,0.7,0.1,0.8-0.2s0.4-0.5,0.7-0.9c0.4-0.5,0.5-1,0.2-1.4C467.7,117,467.2,116.8,466.6,117z"/>
		<path class="st2" d="M465.4,123.4c-0.9-0.4-1.6-0.7-2.1-0.7c-0.5-0.1-1.1,0.3-1.8,1c-0.7,0.7-1,1.3-0.9,1.8s0.3,1.2,0.8,2.1
			c0.4,0.8,0.8,1.3,1.2,1.6c0.4,0.2,1,0.3,1.9,0.2c1-0.2,1.6-0.5,2-0.8c0.4-0.3,0.6-1,0.8-1.9c0.1-0.9,0-1.5-0.2-1.9
			C466.8,124.2,466.2,123.8,465.4,123.4z"/>
		<path class="st2" d="M461.6,82.1c0.5,0.5,1,0.9,1.3,1.2c0.3,0.3,0.8,0.2,1.4-0.2c0.6-0.4,0.9-0.8,0.8-1.2c-0.1-0.4-0.2-1-0.4-1.7
			c-0.1-0.5-0.4-0.9-0.7-1c-0.3-0.1-0.7-0.2-1.3-0.2c-0.6,0-1.1,0-1.3,0.1c-0.3,0.1-0.5,0.4-0.7,0.9c-0.2,0.5-0.2,0.9,0,1.2
			C460.8,81.5,461.1,81.7,461.6,82.1z"/>
		<polygon class="st2" points="460.8,112.2 460.6,112.9 460.9,113.7 461.7,113.3 461.5,112.6 		"/>
		<path class="st2" d="M457.2,105.6c-0.4,0.2-1,0.4-1.7,0.6c-0.6,0.2-1.1,0.4-1.4,0.5c-0.3,0.1-0.5,0.5-0.5,1.2
			c0,0.8,0.1,1.4,0.2,1.9c0.1,0.4,0.6,0.8,1.4,1.1c0.8,0.2,1.4,0.2,1.8-0.1c0.4-0.2,0.8-0.7,1.3-1.4c0.5-0.7,0.8-1.2,0.9-1.6
			c0.1-0.4-0.1-0.9-0.7-1.6C458.1,105.6,457.6,105.4,457.2,105.6z"/>
		<path class="st2" d="M497.7,73.3c0.2,0,0.6,0,1.1,0c0.3,0,0.5-0.1,0.6-0.3c0.1-0.2,0.2-0.5,0.3-0.8c0.1-0.6,0-1-0.3-1.3
			c-0.6-0.3-1.1-0.3-1.5,0c-0.3,0.3-0.6,0.5-0.8,0.7c-0.2,0.2-0.2,0.5,0,0.9C497.2,73,497.4,73.2,497.7,73.3z"/>
		<polygon class="st2" points="497.1,76.4 497.4,77.2 498.4,77 498.5,75.9 497.5,75.5 		"/>
		<path class="st2" d="M507.6,99.8c0.2,0.3,0.5,0.3,1,0.1c0.6-0.2,1-0.5,1.1-0.8c0.1-0.3,0.2-0.8,0.1-1.4c-0.1-1-0.6-1.6-1.5-1.8
			c-0.5-0.1-0.9-0.1-1.1,0.2c-0.2,0.2-0.4,0.6-0.7,1.1c-0.3,0.5-0.3,1.1,0.1,1.6C507.1,99.1,507.4,99.5,507.6,99.8z"/>
		<path class="st2" d="M467.1,76.8c0.6,0.6,1.1,1,1.5,1.2c0.4,0.2,1,0.1,1.7-0.3c0.9-0.5,1.5-0.9,1.9-1.3c0.4-0.4,0.5-1.1,0.3-2.1
			c-0.1-0.9-0.5-1.5-1.1-1.5s-1.4-0.2-2.3-0.3c-1-0.1-1.7-0.2-2.3-0.3s-1.1,0.3-1.5,1.2c-0.5,0.9-0.5,1.5,0,1.9
			C465.8,75.6,466.4,76.1,467.1,76.8z"/>
		<polygon class="st2" points="496.8,81.8 497.4,81.1 496.8,80.4 495.9,80.6 496,81.5 		"/>
		<polygon class="st2" points="485.9,121.4 486.7,121.8 487.3,120.9 486.7,120.2 485.7,120.3 		"/>
		<path class="st2" d="M482.5,75.6c0.7,1.1,1.3,1.9,1.7,2.3c0.5,0.4,1.3,0.5,2.5,0.2c1.2-0.3,1.9-0.7,2.1-1.4
			c0.2-0.7,0.3-1.6,0.5-2.8c0.1-1.1,0-1.9-0.3-2.3c-0.3-0.5-0.9-0.9-1.8-1.3c-1.4-0.6-2.5-1.2-3.4-1.6c-0.8-0.5-1.7-0.1-2.7,1
			c-1,1.2-1.2,2.1-0.7,2.9C481.1,73.2,481.8,74.3,482.5,75.6z"/>
		<path class="st2" d="M495.7,98.7c0.3,0,0.7-0.1,1.1-0.2c0.4-0.1,0.7-0.2,0.7-0.5c0.1-0.2,0.1-0.6,0.1-1c0-0.4,0-0.8,0-1
			c0-0.3-0.2-0.5-0.6-0.6c-0.9-0.3-1.6-0.2-2,0.5c-0.5,0.7-0.6,1.4-0.1,2.1C495.1,98.5,495.4,98.7,495.7,98.7z"/>
		<path class="st2" d="M471.2,129.7c-0.5-0.1-0.8-0.1-1.1-0.1c-0.2,0-0.5,0.2-0.7,0.6c-0.4,0.6-0.4,1.2,0.1,1.8
			c0.5,0.6,1,0.8,1.7,0.5c0.8-0.3,1.2-0.8,1.1-1.5c0-0.4-0.1-0.7-0.3-0.9C471.9,130,471.6,129.9,471.2,129.7z"/>
		<path class="st2" d="M502,118.2c-0.5-0.4-1-0.6-1.3-0.5s-0.8,0.3-1.3,0.6c-0.5,0.3-0.8,0.7-0.9,1s0,0.8,0.2,1.4
			c0.2,0.9,0.8,1.4,1.7,1.4c1,0.1,1.6-0.3,1.9-1.2c0.2-0.6,0.3-1.1,0.4-1.5C502.8,119,502.6,118.6,502,118.2z"/>
		<path class="st2" d="M500.2,87.1c-0.8-0.3-1.4-0.2-1.8,0c-0.4,0.3-0.8,0.8-1.4,1.5c-0.5,0.7-0.9,1.2-1.1,1.6
			c-0.2,0.4-0.1,1,0.4,1.7c0.5,0.8,1,1.2,1.4,1.3c0.5,0.1,1.2,0.1,2-0.2c1-0.3,1.7-0.5,2.2-0.8c0.5-0.2,0.8-0.9,0.9-1.9
			c0.1-1.1-0.1-1.8-0.5-2.2C501.9,87.9,501.2,87.5,500.2,87.1z"/>
		<path class="st2" d="M497.1,103.9c-1-0.4-1.7-0.2-2.3,0.5c-0.7,0.8-0.8,1.5-0.2,2.3c0.3,0.5,0.6,0.8,0.9,0.9s0.7,0.1,1.3,0
			c0.5-0.1,0.9-0.3,1-0.6c0.1-0.3,0.2-0.7,0.3-1.2s0-0.9,0-1.2C497.9,104.4,497.6,104.1,497.1,103.9z"/>
		<path class="st2" d="M510.2,110.1c-1-0.3-1.7-0.4-2.1-0.1c-0.5,0.3-1,0.8-1.6,1.6c-0.6,0.8-1,1.5-1.1,2c-0.1,0.5,0.2,1.2,0.8,2
			c0.5,0.8,1.1,1.2,1.6,1.1s1.3-0.2,2.2-0.5c0.7-0.3,1-0.6,1.1-1s0.1-1,0.1-1.7c0-0.9,0-1.6,0.2-2.2
			C511.4,110.8,511.1,110.4,510.2,110.1z"/>
		<polygon class="st2" points="495.6,126 494.9,127.1 496.2,127.3 497.1,126.8 496.6,125.5 		"/>
		<path class="st2" d="M506.3,105.2c0.6-0.3,0.9-0.8,0.8-1.2c-0.1-0.4-0.2-0.7-0.2-0.9c-0.1-0.2-0.4-0.3-0.8-0.4
			c-0.5-0.1-0.8,0-1,0.1c-0.2,0.1-0.3,0.4-0.5,0.8c-0.2,0.3-0.3,0.6-0.4,0.9s0.1,0.5,0.4,0.8c0.3,0.3,0.5,0.5,0.8,0.4
			C505.7,105.5,506,105.4,506.3,105.2z"/>
		<polygon class="st2" points="505.4,87.6 505,86.9 504.2,87.3 504.3,88.2 505.2,88.5 		"/>
		<path class="st2" d="M505.1,80c0.1-0.2,0.1-0.5,0.2-1c0.1-0.4,0.1-0.7,0-1s-0.3-0.5-0.6-0.7c-0.6-0.2-1.1-0.4-1.4-0.5
			s-0.7,0-1.1,0.5c-0.4,0.5-0.6,0.9-0.5,1.2c0.1,0.3,0.3,0.7,0.6,1.3c0.2,0.5,0.5,0.7,0.8,0.8c0.3,0,0.7,0,1.2,0
			C504.7,80.4,505,80.3,505.1,80z"/>
		<polygon class="st2" points="481.4,123.1 482.2,123.6 482.7,122.9 482.5,122.1 481.3,121.9 		"/>
		<path class="st2" d="M487.6,126.5c-0.4-0.4-1.3-0.7-2.5-0.9c-1.2-0.1-2,0-2.5,0.3s-1.1,1.1-1.6,2.1c-0.5,1.1-0.7,2-0.6,2.6
			c0.1,0.6,0.6,1.3,1.6,2.1c0.9,0.8,1.7,1.3,2.3,1.3c0.7,0.1,1.5-0.2,2.5-0.8c1-0.6,1.7-1.2,1.9-1.8s0.2-1.4,0-2.6
			C488.3,127.8,488,127,487.6,126.5z"/>
		<path class="st2" d="M479.2,121.8c-0.3-0.1-0.8-0.2-1.2-0.3c-0.6-0.1-1.1,0-1.4,0.5c-0.3,0.4-0.5,0.8-0.7,1s-0.1,0.6,0.2,1
			c0.3,0.4,0.7,0.6,1,0.5s0.7-0.2,1.2-0.5c0.5-0.2,0.8-0.4,1.1-0.5s0.4-0.4,0.4-1C479.7,122.1,479.5,121.8,479.2,121.8z"/>
		<polygon class="st2" points="472.5,121.1 472.6,121.8 473.4,122 473.1,120.8 		"/>
		<polygon class="st2" points="496,113.8 495.8,112.6 494.8,111.6 493.9,112.9 494.7,113.8 		"/>
		<path class="st2" d="M495.6,118.9c0-0.9-0.4-1.4-1.1-1.6c-0.4-0.1-0.7-0.1-0.8,0.2c-0.1,0.2-0.3,0.5-0.6,0.9
			c-0.3,0.3-0.5,0.6-0.7,0.8s-0.2,0.5,0,0.9c0.3,0.3,0.6,0.5,0.9,0.5s0.6-0.2,1.1-0.4c0.4-0.1,0.7-0.3,0.9-0.4
			C495.5,119.6,495.6,119.3,495.6,118.9z"/>
		<path class="st0" d="M516.2,91.5c-0.2-6-1.8-11.1-4.6-15.2s-6.8-7.3-11.9-9.5s-10.9-3.3-17.5-3.3c-6.7,0-12.5,1.1-17.5,3.3
			c-5,2.2-9,5.3-11.8,9.5c-2.9,4.2-4.4,9.2-4.7,15.2c-0.2,6.1-0.2,12.1,0,17.9c0.3,6.1,1.8,11.1,4.7,15.2c2.9,4.1,6.8,7.2,11.8,9.2
			s10.8,3.1,17.5,3.1s12.5-1,17.5-3.1c5-2,8.9-5.1,11.8-9.2c2.9-4.1,4.5-9.2,4.7-15.2C516.4,103.6,516.4,97.6,516.2,91.5z
			 M506.6,97.1c0.3-0.5,0.5-0.8,0.7-1.1c0.2-0.2,0.5-0.3,1.1-0.2c1,0.2,1.5,0.8,1.5,1.8c0.1,0.6,0,1.1-0.1,1.4
			c-0.1,0.3-0.5,0.6-1.1,0.8c-0.5,0.3-0.8,0.2-1,0c-0.2-0.3-0.5-0.7-0.9-1.1C506.3,98.2,506.3,97.6,506.6,97.1z M497.1,71.6
			c0.2-0.2,0.4-0.4,0.8-0.7c0.4-0.3,0.9-0.3,1.5,0c0.3,0.3,0.4,0.7,0.3,1.3c-0.1,0.3-0.2,0.6-0.3,0.8c-0.1,0.2-0.3,0.3-0.6,0.3
			c-0.5,0-0.8,0-1.1-0.1s-0.5-0.3-0.7-0.8C496.9,72.1,496.9,71.8,497.1,71.6z M498.5,75.9l-0.1,1.1l-1,0.2l-0.3-0.8l0.4-0.9
			L498.5,75.9z M496.8,80.4l0.6,0.7l-0.6,0.7l-0.8-0.3l-0.1-0.9L496.8,80.4z M495,96c0.5-0.7,1.2-0.8,2-0.5c0.4,0.1,0.6,0.3,0.6,0.6
			c0,0.3,0,0.6,0,1c0,0.4,0,0.7-0.1,1c-0.1,0.2-0.3,0.4-0.7,0.5c-0.5,0.1-0.8,0.2-1.1,0.2s-0.5-0.2-0.8-0.6
			C494.4,97.4,494.4,96.6,495,96z M481.2,69.6c1-1.2,1.8-1.5,2.7-1c0.8,0.5,1.9,1,3.4,1.6c1,0.4,1.6,0.8,1.8,1.3
			c0.3,0.5,0.4,1.3,0.3,2.3c-0.1,1.2-0.3,2.2-0.5,2.8c-0.2,0.7-0.9,1.1-2.1,1.4c-1.2,0.3-2.1,0.2-2.5-0.2c-0.5-0.4-1.1-1.2-1.7-2.3
			c-0.8-1.3-1.4-2.3-2-3.1C480,71.8,480.2,70.8,481.2,69.6z M487.3,120.9l-0.6,0.8l-0.8-0.4l-0.2-1l1-0.1L487.3,120.9z M476.3,89.7
			c0.1-1.2,0.4-2.1,0.9-2.5c0.4-0.4,1.2-0.8,2.4-1c1.2-0.3,2-0.3,2.6-0.1c0.6,0.2,1.2,0.9,1.8,1.9c0.6,1,0.9,1.8,0.8,2.5
			c-0.1,0.7-0.5,1.4-1.3,2.3c-0.8,1-1.4,1.5-2.1,1.6s-1.5-0.1-2.6-0.6c-1.1-0.5-1.8-1.1-2.1-1.6C476.3,91.7,476.2,90.8,476.3,89.7z
			 M465.4,73.3c0.4-0.9,0.9-1.3,1.5-1.2c0.6,0.1,1.3,0.2,2.3,0.3c1,0.1,1.7,0.2,2.3,0.3c0.6,0.1,1,0.6,1.1,1.5
			c0.2,1,0.1,1.7-0.3,2.1c-0.4,0.4-1,0.9-1.9,1.3c-0.8,0.4-1.3,0.5-1.7,0.3c-0.4-0.2-0.9-0.6-1.5-1.2c-0.8-0.7-1.3-1.2-1.8-1.6
			C464.9,74.8,464.9,74.2,465.4,73.3z M465.7,95.1c0.9,0,1.5,0,2,0.1s0.8,0.5,1.1,1.3c0.2,0.8,0.1,1.3-0.3,1.5c-0.4,0.3-1,0.6-1.6,1
			c-0.5,0.4-1,0.7-1.3,0.8s-0.8,0-1.3-0.4c-0.5-0.4-0.8-0.8-0.7-1.2c0.1-0.4,0.2-0.9,0.5-1.5c0.2-0.6,0.4-1.1,0.6-1.3
			C464.7,95.3,465.1,95.1,465.7,95.1z M465,89.1c0.3-0.4,0.5-0.5,0.8-0.4c0.3,0.2,0.7,0.3,1.1,0.4c0.6,0.2,0.9,0.5,0.9,0.9
			c0,0.5,0,0.8,0,1.1c0,0.3-0.2,0.5-0.7,0.7c-0.4,0.1-0.7,0.1-0.9,0c-0.2-0.2-0.5-0.4-0.8-0.8c-0.3-0.4-0.6-0.7-0.7-1
			C464.6,89.9,464.7,89.5,465,89.1z M456.6,120.1c-0.3,0.4-0.5,0.6-0.8,0.6c-0.3,0-0.7-0.1-1.1-0.2c-0.4-0.1-0.7-0.2-0.8-0.4
			c-0.1-0.2-0.2-0.5-0.2-0.9c0-0.3,0.1-0.6,0.3-0.7c0.2-0.1,0.4-0.2,0.7-0.4c0.5-0.2,1-0.1,1.3,0.2c0.3,0.3,0.5,0.6,0.7,0.8
			C456.9,119.4,456.9,119.7,456.6,120.1z M459.1,107.9c-0.1,0.4-0.4,1-0.9,1.6s-0.9,1.1-1.3,1.4c-0.4,0.2-1,0.2-1.8,0.1
			c-0.8-0.3-1.3-0.6-1.4-1.1c-0.1-0.4-0.2-1.1-0.2-1.9c0-0.7,0.2-1.1,0.5-1.2c0.3-0.1,0.8-0.3,1.4-0.5c0.8-0.2,1.3-0.4,1.7-0.6
			c0.4-0.2,0.8,0,1.2,0.6C459,106.9,459.2,107.5,459.1,107.9z M459.6,92c-0.5,0.3-1,0.4-1.5,0.1c-0.5-0.4-0.6-0.9-0.4-1.5
			c0.1-0.3,0.2-0.5,0.4-0.6c0.2,0,0.5,0,0.8,0c0.5,0,0.9,0.2,1,0.7C460.1,91.2,460,91.6,459.6,92z M460.7,80
			c0.2-0.5,0.4-0.8,0.7-0.9s0.7-0.1,1.3-0.1c0.5,0,1,0,1.3,0.1c0.3,0.1,0.5,0.4,0.7,1c0.2,0.8,0.3,1.3,0.4,1.7
			c0.1,0.4-0.2,0.8-0.8,1.2c-0.6,0.4-1.1,0.5-1.4,0.2s-0.7-0.7-1.3-1.2c-0.5-0.3-0.8-0.6-1-0.9C460.5,81,460.5,80.6,460.7,80z
			 M461.7,113.3l-0.8,0.4l-0.3-0.8l0.2-0.7l0.7,0.4L461.7,113.3z M467.3,126.6c-0.1,0.9-0.4,1.6-0.8,1.9c-0.4,0.3-1,0.6-2,0.8
			c-0.9,0.1-1.5,0.1-1.9-0.1c-0.4-0.2-0.8-0.8-1.2-1.6c-0.5-0.9-0.8-1.6-0.8-2.1s0.2-1.1,0.9-1.8c0.7-0.8,1.3-1.1,1.8-1
			c0.5,0.1,1.2,0.3,2.1,0.7c0.8,0.4,1.4,0.8,1.7,1.2C467.4,125,467.5,125.7,467.3,126.6z M467.8,118.9c-0.3,0.3-0.6,0.6-0.7,0.9
			c-0.1,0.2-0.4,0.3-0.8,0.2c-0.5-0.2-0.9-0.4-1.1-0.7s-0.3-0.6-0.3-1.2c0-0.5,0.2-0.8,0.5-0.8s0.8-0.2,1.2-0.3
			c0.6-0.1,1.1,0,1.4,0.5C468.3,117.9,468.3,118.4,467.8,118.9z M467.7,113.1c-0.3-0.3-0.5-0.5-0.6-0.8c0-0.3,0-0.6,0.2-1
			c0.3-0.8,0.8-1.1,1.5-1c0.5,0,1,0,1.3,0.1c0.3,0.1,0.5,0.4,0.7,0.9c0.1,0.5,0.1,0.8-0.2,1s-0.6,0.4-1,0.8c-0.4,0.2-0.7,0.4-1,0.5
			C468.5,113.6,468.1,113.4,467.7,113.1z M471.3,132.6c-0.7,0.3-1.3,0.1-1.7-0.5c-0.5-0.6-0.5-1.2-0.1-1.8c0.2-0.3,0.4-0.5,0.7-0.6
			s0.6,0,1.1,0.1c0.4,0.1,0.7,0.3,0.9,0.5c0.2,0.2,0.3,0.5,0.3,0.9C472.5,131.8,472.1,132.3,471.3,132.6z M472.6,121.8l-0.1-0.7
			l0.6-0.2l0.2,1.1L472.6,121.8z M475.5,113.4c0.5-0.8,1-1.9,1.6-3.4c0.4-1,0.8-1.6,1.3-1.8c0.5-0.3,1.3-0.4,2.3-0.3
			c1.2,0.1,2.2,0.3,2.8,0.5s1.1,0.9,1.4,2.1s0.2,2.1-0.2,2.6c-0.4,0.5-1.2,1.1-2.3,1.7c-1.3,0.8-2.3,1.4-3.1,2s-1.7,0.4-2.9-0.7
			C475.3,115.1,475,114.2,475.5,113.4z M482.7,122.9l-0.5,0.7l-0.8-0.5l-0.1-1.2l1.2,0.2L482.7,122.9z M479.3,123.6
			c-0.3,0.1-0.7,0.2-1.1,0.5c-0.5,0.2-0.9,0.4-1.2,0.5s-0.6-0.1-1-0.5c-0.3-0.4-0.3-0.8-0.2-1s0.4-0.6,0.7-1
			c0.3-0.5,0.8-0.7,1.4-0.5c0.5,0.1,0.9,0.2,1.2,0.3c0.3,0.1,0.5,0.3,0.5,0.8C479.7,123.1,479.5,123.4,479.3,123.6z M488.6,131.5
			c-0.2,0.6-0.9,1.2-1.9,1.8c-1,0.6-1.8,0.9-2.5,0.8c-0.7-0.1-1.4-0.5-2.3-1.3c-1-0.8-1.5-1.4-1.6-2.1c-0.1-0.7,0.1-1.5,0.6-2.6
			c0.5-1.1,1.1-1.8,1.6-2.1s1.4-0.4,2.5-0.3c1.2,0.1,2.1,0.4,2.5,0.9s0.8,1.2,1,2.4C488.8,130.1,488.8,130.9,488.6,131.5z
			 M490.6,100c0,0.3-0.3,0.6-0.8,0.8c-0.5,0.3-1,0.5-1.3,0.6c-0.3,0.1-0.7-0.1-1.2-0.5c-0.5-0.4-0.7-0.8-0.5-1.1
			c0.1-0.3,0.3-0.8,0.5-1.4c0.2-0.3,0.4-0.5,0.7-0.6c0.2-0.1,0.6-0.1,1,0c0.5,0.1,0.8,0.1,1,0.2c0.2,0.1,0.4,0.3,0.5,0.8
			C490.6,99.3,490.7,99.7,490.6,100z M493.3,120.5c-0.2,0-0.5-0.1-0.9-0.5c-0.2-0.4-0.2-0.7,0-0.9s0.4-0.5,0.7-0.8s0.5-0.6,0.6-0.9
			c0.1-0.2,0.4-0.3,0.8-0.2c0.8,0.2,1.1,0.8,1.1,1.6c0,0.4-0.1,0.7-0.3,0.8c-0.2,0.1-0.5,0.3-0.9,0.4
			C493.9,120.3,493.5,120.5,493.3,120.5z M493.9,112.9l0.9-1.3l1,1l0.2,1.2h-1.3L493.9,112.9z M496.2,127.3l-1.3-0.2l0.7-1l1-0.5
			l0.5,1.2L496.2,127.3z M498,105.9c-0.1,0.5-0.2,1-0.3,1.2c-0.1,0.3-0.5,0.5-1,0.6c-0.5,0.1-1,0.1-1.3,0s-0.6-0.4-0.9-0.9
			c-0.5-0.8-0.5-1.6,0.2-2.3c0.6-0.8,1.4-0.9,2.3-0.5c0.5,0.2,0.8,0.4,0.9,0.7C498.1,104.9,498.1,105.3,498,105.9z M502.3,120.8
			c-0.3,0.9-1,1.3-1.9,1.2s-1.5-0.5-1.7-1.4c-0.2-0.6-0.3-1.1-0.2-1.4s0.4-0.6,0.9-1c0.5-0.3,1-0.5,1.3-0.6c0.3-0.1,0.8,0.1,1.3,0.5
			c0.5,0.4,0.8,0.8,0.7,1.2C502.7,119.7,502.5,120.2,502.3,120.8z M502.8,90.5c-0.1,1-0.4,1.7-0.9,1.9s-1.2,0.5-2.2,0.8
			c-0.9,0.2-1.6,0.2-2,0.2s-1-0.5-1.4-1.3c-0.5-0.8-0.6-1.3-0.4-1.7c0.2-0.4,0.6-1,1.1-1.6s1-1.2,1.4-1.5c0.4-0.3,1-0.3,1.8-0.1
			c1,0.4,1.7,0.8,2.1,1.2C502.7,88.6,502.9,89.4,502.8,90.5z M503.1,80.6c-0.3,0-0.6-0.3-0.8-0.8c-0.3-0.5-0.5-1-0.6-1.3
			c-0.1-0.3,0.1-0.7,0.5-1.2c0.4-0.5,0.8-0.7,1.1-0.5c0.3,0.1,0.8,0.3,1.4,0.5c0.3,0.2,0.5,0.4,0.6,0.7c0.1,0.2,0.1,0.6,0,1
			c-0.1,0.5-0.1,0.8-0.2,1c-0.1,0.2-0.3,0.4-0.8,0.5C503.8,80.6,503.4,80.6,503.1,80.6z M504.2,87.3l0.8-0.4l0.4,0.7l-0.2,0.9
			l-0.9-0.3L504.2,87.3z M504.7,105.2c-0.3-0.3-0.4-0.5-0.4-0.8c0-0.2,0.2-0.5,0.4-0.9c0.1-0.4,0.3-0.7,0.5-0.8
			c0.2-0.1,0.5-0.2,1-0.1c0.4,0.1,0.7,0.2,0.8,0.4c0.1,0.2,0.2,0.5,0.2,0.9c0.1,0.5-0.2,0.9-0.8,1.2c-0.3,0.1-0.6,0.3-0.9,0.4
			C505.2,105.7,504.9,105.6,504.7,105.2z M511.2,113.6c0,0.8,0,1.3-0.1,1.7c-0.1,0.4-0.4,0.8-1.1,1c-1,0.3-1.7,0.4-2.2,0.5
			s-1.1-0.3-1.6-1.1c-0.6-0.8-0.9-1.5-0.8-2s0.5-1.2,1.1-2s1.2-1.4,1.6-1.6c0.5-0.3,1.2-0.2,2.1,0.1c0.9,0.3,1.3,0.7,1.2,1.3
			S511.2,112.7,511.2,113.6z"/>
	</g>
</g>
<g>
	<path class="st0" d="M126.9,76c-0.5,0-1-0.2-1.4-0.6c-0.4-0.4-0.6-0.9-0.6-1.4V39.5c0-0.5,0.2-1,0.6-1.4c0.4-0.4,0.9-0.6,1.4-0.6
		h13.2c0.5,0,1,0.2,1.4,0.6c0.4,0.4,0.6,0.9,0.6,1.4V74c0,0.5-0.2,1-0.6,1.4c-0.4,0.4-0.9,0.6-1.4,0.6C140.1,76,126.9,76,126.9,76z
		 M127.2,33.4c-0.5,0-1-0.2-1.4-0.6s-0.6-0.9-0.6-1.4v-9c0-0.5,0.2-1,0.6-1.4c0.4-0.4,0.9-0.6,1.4-0.6h12.5c0.5,0,1,0.2,1.4,0.6
		c0.4,0.4,0.6,0.9,0.6,1.4v9c0,0.5-0.2,1-0.6,1.4c-0.4,0.4-0.9,0.6-1.4,0.6H127.2z M127.6,57.3l-0.7-0.5l-0.6,0.8l0.6,0.6l0.7-0.2
		V57.3z M128.1,61.1c-0.2-0.2-0.4-0.4-0.6-0.5c-0.1-0.1-0.4-0.1-0.7,0.1c-0.2,0.2-0.3,0.4-0.3,0.6c0.1,0.2,0.2,0.4,0.3,0.8
		c0.1,0.3,0.2,0.5,0.3,0.7c0.1,0.2,0.3,0.2,0.5,0.2c0.4,0,0.8,0,1-0.1s0.4-0.3,0.5-0.7c0.1-0.3,0-0.6-0.2-0.7
		C128.7,61.4,128.5,61.3,128.1,61.1z M127.3,64.6l-0.4,0.6v0.6l0.7,0.2l0.4-0.7L127.3,64.6z M129.7,50.7c-0.1-0.6-0.4-1-1-1.1
		c-0.3-0.1-0.6,0-0.7,0.1c-0.1,0.1-0.3,0.3-0.4,0.6c-0.1,0.2-0.2,0.4-0.1,0.6c0.1,0.1,0.2,0.3,0.4,0.5c0.2,0.2,0.3,0.3,0.4,0.4
		c0.1,0.1,0.3,0.1,0.5,0c0.3-0.2,0.5-0.3,0.7-0.4C129.7,51.2,129.8,51,129.7,50.7z M129.1,27.9l-0.9,0.2v0.7l0.5,0.4l0.7-0.4
		L129.1,27.9z M129.7,44l-0.5-0.2l-0.7,0.4l0.5,0.7l0.7-0.2L129.7,44z M133.6,67.8c-0.3-0.5-0.6-0.8-0.8-1c-0.2-0.2-0.7-0.2-1.3-0.1
		c-0.5,0.1-0.9,0.3-1,0.6c-0.1,0.3-0.2,0.7-0.2,1.3c-0.1,0.5,0,0.8,0.2,1c0.2,0.2,0.5,0.4,0.9,0.5c0.5,0.2,0.9,0.4,1.2,0.5
		c0.3,0.1,0.6-0.1,1-0.5c0.4-0.4,0.6-0.8,0.5-1.2C134.1,68.7,133.9,68.3,133.6,67.8z M130.9,25l-0.6,0.4l0.2,0.8l1,0.2l0.3-1
		L130.9,25z M131.3,64.3l-0.8-0.1v0.7l0.4,0.6l0.4-0.6L131.3,64.3z M132.9,59.9c-0.2-0.5-0.5-0.7-0.8-0.7c-0.5,0.1-0.9,0.3-1,0.7
		c-0.1,0.4,0.1,0.7,0.6,1c0.4,0.2,0.8,0.2,1.1,0C133.1,60.7,133.1,60.3,132.9,59.9z M132.6,41.6l-0.7-0.2l-0.3,0.8l0.7,0.7l0.8-0.6
		L132.6,41.6z M134.5,55.4c-0.2-0.3-0.4-0.4-0.6-0.4c-0.2,0.1-0.5,0.2-0.8,0.3c-0.4,0.1-0.7,0.2-0.9,0.2s-0.3,0.3-0.3,0.7
		c0,0.4,0.1,0.8,0.2,0.9c0.2,0.2,0.4,0.3,0.9,0.5c0.3,0.1,0.6,0.1,0.7-0.1c0.1-0.2,0.3-0.4,0.5-0.7c0.2-0.3,0.4-0.5,0.5-0.7
		C134.9,55.9,134.8,55.7,134.5,55.4z M136.3,45.6c-0.5-0.5-0.9-0.7-1.3-0.5s-0.9,0.3-1.4,0.6c-0.5,0.2-0.9,0.5-1.2,0.7
		c-0.2,0.2-0.4,0.6-0.3,1.2c0.1,0.7,0.2,1.2,0.4,1.4c0.2,0.3,0.6,0.5,1.3,0.6c0.7,0.2,1.2,0.2,1.5,0.1c0.3-0.1,0.7-0.4,1-1
		c0.4-0.6,0.6-1.2,0.6-1.6C137,46.6,136.7,46.2,136.3,45.6z M133.7,26.9l-0.5-0.2l-0.7,0.3l0.4,0.8l0.7-0.4L133.7,26.9z M139.1,62.1
		c-0.1-0.5-0.3-0.9-0.6-1.1c-0.2-0.2-0.7-0.3-1.3-0.4c-0.5-0.1-0.9,0-1.1,0.3s-0.4,0.6-0.6,1.1c-0.2,0.6-0.4,1.1-0.4,1.4
		s0.2,0.7,0.6,1c0.5,0.4,0.9,0.7,1.3,0.7c0.3,0,0.8-0.2,1.3-0.5c0.5-0.3,0.8-0.7,0.9-1C139.3,63.1,139.2,62.6,139.1,62.1z
		 M136.4,52.1l-0.5-0.4l-0.6,0.2l0.1,0.7l0.7,0.2L136.4,52.1z M136.9,28.2c-0.3,0-0.5,0-0.7,0s-0.3,0.1-0.4,0.4
		c-0.1,0.2-0.1,0.4,0,0.6c0.1,0.1,0.2,0.3,0.4,0.4c0.2,0.2,0.4,0.4,0.5,0.5c0.2,0.1,0.3,0.1,0.6,0c0.4-0.3,0.6-0.7,0.5-1.3
		c-0.1-0.3-0.2-0.4-0.4-0.4C137.4,28.3,137.2,28.3,136.9,28.2z M137.1,69.2c-0.4-0.1-0.6,0-0.7,0.2c-0.1,0.2-0.3,0.4-0.4,0.7
		c-0.1,0.2-0.2,0.4-0.1,0.6c0.1,0.1,0.2,0.3,0.4,0.5c0.2,0.2,0.4,0.4,0.6,0.5c0.1,0.2,0.3,0.2,0.6,0c0.5-0.2,0.8-0.7,0.7-1.3
		c-0.1-0.4-0.1-0.7-0.2-0.9C137.8,69.5,137.5,69.3,137.1,69.2z M137.6,67.2l-0.5-0.7l-0.7,0.7l0.2,0.8l0.8-0.1L137.6,67.2z
		 M139.4,43.3c-0.1-0.6-0.4-1-1-1.1c-0.3-0.1-0.5,0-0.6,0.2c-0.1,0.2-0.2,0.4-0.4,0.7c-0.2,0.4-0.2,0.8,0,1.1
		c0.4,0.4,0.8,0.5,1.2,0.3c0.3-0.2,0.5-0.3,0.6-0.4C139.4,43.9,139.4,43.7,139.4,43.3z M140.4,56.4c-0.2-0.4-0.4-0.6-0.6-0.7
		c-0.2-0.1-0.5-0.1-0.9,0c-0.4,0.1-0.7,0.2-0.8,0.3c-0.2,0.2-0.3,0.4-0.4,0.8c0,0.4,0,0.7,0.1,0.8c0.1,0.2,0.4,0.4,0.7,0.6
		c0.5,0.3,1.1,0.2,1.6-0.2c0.3-0.3,0.5-0.6,0.6-0.8C140.7,57.1,140.6,56.8,140.4,56.4z M139.9,49.3c-0.2-0.2-0.4-0.2-0.4-0.1
		c-0.1,0.1-0.2,0.2-0.4,0.4c-0.2,0.2-0.3,0.3-0.4,0.4c-0.1,0.1-0.1,0.2,0,0.4c0.2,0.5,0.6,0.7,1,0.7s0.6-0.3,0.7-0.9
		C140.4,49.8,140.2,49.5,139.9,49.3z M140.3,67l-0.4-0.3l-0.7,0.4l0.4,0.5l0.7,0.2V67z"/>
	<path class="st0" d="M172.6,76c-3.6,0-6.7-0.5-9.5-1.4s-5-2.6-6.6-4.9c-1.6-2.3-2.4-5.5-2.4-9.5v-9.6h-5.9c-0.5,0-1-0.2-1.4-0.6
		c-0.4-0.4-0.6-0.9-0.6-1.4v-8.9c0-0.5,0.2-1,0.6-1.4c0.4-0.4,0.9-0.6,1.4-0.6h5.9V25.4c0-0.5,0.2-1,0.6-1.4
		c0.4-0.4,0.9-0.6,1.4-0.6H169c0.5,0,1,0.2,1.4,0.6c0.4,0.4,0.6,0.9,0.6,1.4v12.1h9.3c0.5,0,1,0.2,1.4,0.6c0.4,0.4,0.6,0.9,0.6,1.4
		v8.9c0,0.5-0.2,1-0.6,1.4c-0.4,0.4-0.9,0.6-1.4,0.6H171v8.1c0,1.1,0.3,2,0.8,2.7c0.5,0.7,1.3,1,2.4,1h6.7c0.5,0,1,0.2,1.4,0.6
		c0.4,0.4,0.6,0.9,0.6,1.4V74c0,0.5-0.2,1-0.6,1.4c-0.4,0.4-0.9,0.6-1.4,0.6C180.9,76,172.6,76,172.6,76z M152.8,41.4
		c0-0.3-0.2-0.6-0.3-0.6c-0.2-0.1-0.4-0.1-0.8-0.2c-0.4,0-0.6,0-0.8,0.1c-0.2,0.1-0.3,0.2-0.5,0.6c-0.1,0.3-0.2,0.6-0.2,0.8
		s0.2,0.5,0.4,0.7c0.3,0.3,0.6,0.5,0.9,0.5c0.2,0.1,0.5-0.1,0.9-0.3c0.3-0.2,0.5-0.5,0.6-0.7C153,42.1,152.9,41.8,152.8,41.4z
		 M152.1,47.3l-0.7-0.4l-0.2,0.8l0.4,0.4l0.7-0.2L152.1,47.3z M155.1,44.2c-0.2-0.1-0.4-0.1-0.5-0.1c-0.1,0-0.3,0.1-0.4,0.3
		c-0.3,0.4-0.3,0.8,0,1.2c0.2,0.2,0.4,0.3,0.5,0.3s0.3-0.1,0.6-0.2c0.3-0.1,0.4-0.4,0.4-0.8C155.7,44.5,155.5,44.3,155.1,44.2z
		 M162.4,36.6c-1.2-0.6-2.1-1.1-2.8-1.4c-0.7-0.3-1.5,0-2.5,1c-0.9,0.9-1.2,1.8-0.9,2.5s0.8,1.7,1.4,2.8c0.6,1.1,1.1,1.9,1.6,2.4
		c0.4,0.5,1.3,0.6,2.5,0.4c1.2-0.2,2-0.6,2.4-1.2c0.3-0.6,0.6-1.5,0.7-2.7c0.2-1.1,0.1-1.9-0.3-2.4
		C164.2,37.6,163.5,37.1,162.4,36.6z M158.9,53.6c-0.1-0.4-0.2-0.7-0.4-0.8c-0.1-0.2-0.4-0.2-0.8-0.2c-0.7,0-1.1,0.3-1.3,1
		c-0.1,0.4-0.2,0.7-0.1,0.9c0.1,0.2,0.3,0.4,0.6,0.7c0.5,0.3,1.1,0.3,1.6,0C159,54.7,159.1,54.2,158.9,53.6z M157.5,63.3l-0.7,0.1
		l-0.4,0.7l1-0.1C157.5,63.9,157.5,63.3,157.5,63.3z M161.3,49.5c-0.1-0.4-0.2-0.6-0.4-0.7c-0.2-0.1-0.5-0.2-0.8-0.2
		c-0.5-0.1-0.9-0.1-1.2-0.2c-0.3-0.1-0.6,0.1-0.8,0.5c-0.2,0.4-0.3,0.8-0.1,1c0.2,0.2,0.4,0.6,0.8,1c0.3,0.3,0.5,0.4,0.8,0.3
		c0.2-0.1,0.5-0.2,0.8-0.4c0.3-0.2,0.6-0.3,0.7-0.4C161.3,50.1,161.3,49.9,161.3,49.5z M159.9,32c-0.1-0.4-0.4-0.6-0.8-0.7
		c-0.2-0.1-0.4-0.1-0.6,0c-0.1,0-0.3,0.2-0.4,0.4c-0.2,0.4-0.1,0.8,0.2,1.2c0.2,0.2,0.4,0.3,0.5,0.2c0.1-0.1,0.3-0.2,0.6-0.3
		C159.8,32.6,160,32.3,159.9,32z M161.3,28.3l-0.7-0.7l-0.9,0.2l0.3,0.8l0.7,0.5L161.3,28.3z M167,59.6c-1.1-0.5-2-0.6-2.5-0.2
		c-0.6,0.4-1.3,1.1-2.1,2.1c-0.8,0.9-1.3,1.6-1.6,2.2c-0.2,0.6-0.1,1.4,0.5,2.4c0.7,1.2,1.3,2.1,1.9,2.6s1.5,0.6,2.9,0.3
		c1.4-0.2,2.2-0.7,2.5-1.4c0.3-0.7,0.5-1.7,0.7-3.1c0.2-1.3,0.1-2.3-0.1-3C169,60.7,168.3,60.2,167,59.6z M166.1,25.6
		c-0.4-0.3-0.8-0.4-1.1-0.3c-0.3,0.1-0.6,0.3-0.9,0.6c-0.4,0.3-0.7,0.6-0.8,0.9c-0.1,0.2-0.1,0.6,0.1,1.1c0.2,0.5,0.4,0.8,0.7,0.9
		s0.6,0.1,1.2,0.1c0.5-0.1,0.8-0.2,1-0.3s0.3-0.5,0.4-1c0.1-0.5,0.2-0.9,0.1-1.2C166.8,26.1,166.6,25.8,166.1,25.6z M165.9,54
		c-0.3-0.2-0.5-0.3-0.7-0.2s-0.4,0.2-0.7,0.4c-0.3,0.2-0.5,0.4-0.6,0.6c-0.1,0.2-0.1,0.4,0,0.7c0.1,0.4,0.3,0.8,0.4,1
		s0.4,0.4,0.8,0.4c0.5,0,0.8-0.1,0.9-0.3c0.1-0.2,0.3-0.6,0.4-1c0.1-0.4,0.2-0.7,0.1-0.9C166.4,54.5,166.2,54.2,165.9,54z
		 M165.6,47.8l-0.9-0.3l-0.5,0.6l0.4,0.5l0.7-0.1L165.6,47.8z M166,30.7l-0.2-0.6l-0.4,0.4l-0.2,0.7l0.7,0.1L166,30.7z M171,45.4
		c-0.1-0.5-0.4-0.9-1-1c-0.4-0.1-0.8-0.2-1.1-0.3s-0.5,0-0.8,0.5c-0.3,0.4-0.4,0.8-0.4,1.1s0.2,0.6,0.6,1s0.7,0.6,0.9,0.6
		c0.3,0,0.6-0.1,1.1-0.3c0.3-0.2,0.5-0.3,0.6-0.6C171.1,46.1,171.1,45.8,171,45.4z M170.1,71.1c-0.1-0.3-0.2-0.5-0.3-0.5
		c-0.2-0.1-0.4-0.1-0.7-0.2c-0.4-0.1-0.7,0.1-0.9,0.4c-0.3,0.4-0.3,0.8,0,1.1c0.2,0.2,0.3,0.3,0.4,0.2c0.1-0.1,0.3-0.2,0.6-0.3
		s0.5-0.2,0.7-0.2S170.2,71.4,170.1,71.1z M176.2,67.3c-0.2-0.5-0.4-0.9-0.6-1.1s-0.6-0.2-1.1-0.2c-0.5,0.1-0.9,0.2-1,0.4
		c-0.1,0.2-0.3,0.6-0.4,1.1c-0.2,0.6-0.3,1.1-0.4,1.4c-0.1,0.4,0.1,0.7,0.7,1c0.5,0.3,1,0.4,1.3,0.3c0.3-0.2,0.8-0.4,1.3-0.9
		c0.4-0.3,0.6-0.7,0.6-1S176.4,67.8,176.2,67.3z M175.6,45.1l-0.7,0.2l0.2,0.7l0.7,0.2l0.2-0.7L175.6,45.1z M176.9,73l-0.7,0.2
		l0.2,0.8L177,74l0.5-0.5L176.9,73z M178.9,65.5l-0.5-0.4l-0.5,0.4l0.1,0.7l0.8-0.1L178.9,65.5z"/>
	<path class="st0" d="M188.5,45.8c-0.4,0-0.8-0.2-1.2-0.4c-0.3-0.3-0.5-0.7-0.4-1.3l2.7-17.8c0.1-0.7,0.4-1.3,0.9-2
		c0.5-0.6,1.3-0.9,2.3-0.9h11.8c0.4,0,0.8,0.2,1.2,0.5c0.3,0.3,0.5,0.7,0.5,1.2c0,0.2,0,0.4-0.1,0.5l-7,17.9c-0.2,0.5-0.5,1-1,1.6
		s-1.2,0.8-2.2,0.8L188.5,45.8L188.5,45.8z M193.3,38.5c-0.2-0.5-0.5-0.8-0.7-1s-0.6-0.2-1.1-0.2c-0.6,0.2-1.1,0.3-1.5,0.4
		c-0.4,0.2-0.6,0.5-0.7,1.2c-0.1,0.7-0.1,1.3,0.1,1.7c0.2,0.4,0.6,0.7,1.3,1c0.7,0.3,1.2,0.5,1.6,0.4s0.8-0.4,1.4-0.9
		c0.4-0.4,0.6-0.8,0.4-1.2C193.9,39.6,193.6,39.1,193.3,38.5z M192.6,29l-0.7-0.2l-0.4,0.7l0.6,0.6l0.6-0.5L192.6,29z M194.9,30.7
		c-0.2-0.2-0.5-0.3-0.6-0.4c-0.2-0.1-0.4,0-0.7,0.1c-0.3,0.2-0.4,0.4-0.4,0.6c0,0.2,0,0.4,0.1,0.8c0.1,0.3,0.2,0.6,0.3,0.8
		c0.1,0.2,0.3,0.3,0.6,0.3c0.3,0.1,0.5,0,0.6-0.3s0.2-0.5,0.3-0.8c0.1-0.2,0.2-0.4,0.2-0.6C195.2,31.1,195.1,30.9,194.9,30.7z
		 M196.3,25.9l-0.7,0.5v0.9l0.8-0.1l0.4-0.5L196.3,25.9z M198.8,34.4c-0.2-0.4-0.4-0.6-0.6-0.7c-0.2-0.1-0.5-0.1-0.9-0.1
		c-0.4,0.1-0.6,0.2-0.6,0.4c0,0.2-0.1,0.5-0.2,0.9c-0.1,0.4-0.1,0.7-0.2,0.9c-0.1,0.2,0,0.4,0.4,0.6c0.4,0.2,0.8,0.4,1.1,0.4
		c0.3,0,0.6-0.2,0.9-0.4c0.4-0.3,0.6-0.7,0.5-0.9C199.1,35.1,199,34.8,198.8,34.4z M200.7,30.2l-0.7-0.3l-0.5,0.5l0.2,0.8l0.9-0.2
		L200.7,30.2z M201.4,26.3l-0.4-0.1l-0.1,0.4l0.3,0.5l0.4-0.4L201.4,26.3z"/>
	<path class="st0" d="M225.9,76.7c-3.6,0-6.6-0.4-9.1-1.1c-2.5-0.7-4.5-1.6-6.1-2.7c-1.6-1.1-2.7-2.3-3.4-3.5
		c-0.7-1.2-1.1-2.3-1.2-3.3c-0.1-0.5,0.1-1,0.5-1.4c0.4-0.4,0.8-0.6,1.3-0.6h13.2c0.6,0.1,1.2,0.3,1.7,0.6c0.5,0.4,1.1,0.7,1.6,1.1
		c0.6,0.3,1.2,0.5,2,0.5c0.4,0,0.8-0.1,1.1-0.3c0.4-0.2,0.6-0.5,0.6-0.8c0-0.4-0.1-0.8-0.4-1.2c-0.3-0.3-0.9-0.7-2-1.1
		s-2.8-0.8-5.3-1.2c-2.3-0.4-4.4-1.1-6.5-2.1c-2.1-0.9-3.8-2.2-5.1-3.9s-2-3.8-2-6.4c0-2.1,0.7-4.1,2.1-6.1s3.5-3.5,6.3-4.7
		c2.8-1.2,6.2-1.8,10.2-1.8c4.1,0,7.6,0.6,10.4,1.8c2.9,1.2,5.1,2.6,6.6,4.2c1.5,1.6,2.3,3.2,2.4,4.6c0.1,0.5-0.1,1-0.4,1.4
		c-0.4,0.4-0.7,0.6-1.2,0.6h-12.4c-0.7,0-1.3-0.2-1.8-0.6c-0.5-0.4-1.1-0.7-1.6-1.1s-1.2-0.6-1.9-0.6c-0.3,0-0.7,0.1-1,0.3
		S224,48,224,48.3c0,0.4,0.1,0.8,0.4,1.2c0.3,0.4,1,0.7,2.1,1c1.1,0.3,3,0.7,5.6,1.1c3.6,0.5,6.4,1.4,8.5,2.7
		c2.1,1.3,3.6,2.9,4.6,4.6c0.9,1.7,1.4,3.4,1.4,5.1c0,3.9-1.8,7.1-5.4,9.3C237.6,75.6,232.5,76.7,225.9,76.7z M213.4,47.8
		c-0.2-0.2-0.3-0.4-0.4-0.5c-0.1-0.2-0.3-0.2-0.5,0c-0.5,0.2-0.7,0.6-0.6,1.1s0.4,0.8,1,0.9c0.4,0.1,0.8-0.2,1-0.6
		c0.1-0.2,0.1-0.4,0-0.5C213.8,48,213.6,47.9,213.4,47.8z M213.4,53.8l-0.4-0.4l-0.4,0.4l-0.1,0.7h0.7L213.4,53.8z M215.6,70
		c-0.4-0.1-0.7-0.1-0.9,0c-0.2,0-0.4,0.2-0.6,0.6c-0.2,0.3-0.2,0.6,0,0.8s0.3,0.4,0.6,0.6c0.3,0.3,0.6,0.6,0.7,0.8
		c0.1,0.2,0.4,0.2,0.8,0c0.4-0.2,0.6-0.4,0.5-0.7s-0.1-0.6-0.1-1.1C216.5,70.5,216.2,70.1,215.6,70z M221.8,42.6
		c-0.7-0.4-1.2-0.6-1.7-0.4s-0.9,0.5-1.6,1.1s-1.1,1-1.2,1.4s-0.1,0.9,0.2,1.7c0.2,0.6,0.6,0.9,1,0.8c0.4-0.1,1-0.1,1.8-0.2
		c0.7,0,1.3-0.1,1.8,0s0.8-0.3,1-1c0.2-0.9,0.2-1.6,0.1-2C223.1,43.6,222.6,43.1,221.8,42.6z M222,54.5c-0.3-0.6-0.5-1.1-0.7-1.4
		c-0.2-0.3-0.6-0.5-1.3-0.4c-0.7,0.1-1.2,0.3-1.4,0.6s-0.4,0.8-0.6,1.5c-0.1,0.6,0,1.1,0.3,1.3c0.3,0.2,0.7,0.5,1.2,0.8
		c0.5,0.3,1,0.5,1.3,0.6c0.3,0.1,0.7-0.1,1.2-0.6c0.4-0.4,0.6-0.8,0.5-1.1C222.4,55.6,222.3,55.1,222,54.5z M218.8,40.5l-0.4-0.2
		l-0.2,0.4l0.2,0.5l0.7-0.2L218.8,40.5z M222.7,66.9c-0.3-0.3-0.6-0.5-0.9-0.6s-0.6-0.1-1,0.2c-0.4,0.2-0.5,0.5-0.4,0.7
		s0.2,0.6,0.3,1c0.2,0.4,0.2,0.8,0.2,1.1s0.2,0.4,0.7,0.5c0.5,0.1,0.9,0,1.2-0.2c0.2-0.2,0.5-0.5,0.7-1c0.2-0.4,0.2-0.8,0-1
		C223.4,67.5,223.1,67.2,222.7,66.9z M223.8,39.1l-0.7,0.4l-0.1,0.7l0.7,0.7l0.5-0.9L223.8,39.1z M229.7,61.3
		c-0.1-0.4-0.3-0.7-0.8-0.8c-0.3-0.1-0.5-0.1-0.7-0.1s-0.3,0.1-0.5,0.4c-0.2,0.4-0.2,0.8,0.2,1.3c0.3,0.3,0.7,0.4,1.2,0.2
		C229.5,62.1,229.8,61.8,229.7,61.3z M230.5,40.3c-0.4-0.1-0.7-0.1-0.8,0.2c-0.1,0.2-0.3,0.5-0.5,0.8c-0.2,0.3-0.4,0.6-0.5,0.8
		c-0.2,0.2-0.1,0.4,0.2,0.7c0.3,0.3,0.5,0.5,0.8,0.4c0.2-0.1,0.5-0.2,0.9-0.4c0.3-0.2,0.6-0.3,0.9-0.4c0.2-0.1,0.3-0.4,0.3-0.8
		C231.7,40.9,231.3,40.4,230.5,40.3z M236.7,60.1c-1.3-0.3-2.4-0.5-3.1-0.4c-0.7,0.1-1.5,0.6-2.3,1.8c-0.7,1.1-1,2.1-0.9,2.8
		c0.1,0.7,0.6,1.6,1.5,2.8c0.7,0.9,1.3,1.2,2,0.9c0.6-0.3,1.5-0.6,2.6-1c1.1-0.4,2-0.7,2.7-0.8s1.1-0.8,1-2
		c-0.1-1.3-0.3-2.2-0.9-2.7C238.8,60.9,237.9,60.4,236.7,60.1z M231.7,54.1c-0.3-0.1-0.5,0-0.5,0.2c0,0.2-0.1,0.4-0.3,0.6
		s-0.1,0.5,0.1,0.7c0.3,0.2,0.5,0.3,0.7,0.2c0.4-0.2,0.6-0.5,0.6-0.8c-0.1-0.3-0.1-0.5-0.1-0.7C232.2,54.2,232,54.1,231.7,54.1z
		 M232.1,72.3l-0.6-0.1v0.6l0.4,0.6l0.3-0.7L232.1,72.3z M233.9,70.5l-0.7-0.4l-0.5,0.5l0.3,0.6h0.7L233.9,70.5z M234.8,45.7h-0.7
		l-0.2,0.8l0.7,0.2l0.4-0.4L234.8,45.7z M237.3,41.3c-0.4-0.1-0.8-0.1-1,0s-0.4,0.4-0.6,0.8c-0.3,0.6-0.3,1.1,0.2,1.6
		c0.2,0.3,0.5,0.4,0.7,0.4c0.2,0,0.5-0.1,0.8-0.3c0.5-0.2,0.8-0.6,0.7-1.1c-0.1-0.4-0.1-0.8-0.2-1C238,41.5,237.7,41.4,237.3,41.3z
		 M240.3,46.4l-0.7,0.4l0.1,0.9l0.8-0.2l0.2-0.6L240.3,46.4z"/>
	<path class="st0" d="M287.7,76c-3.6,0-6.7-0.5-9.5-1.4c-2.8-1-5-2.6-6.6-4.9c-1.6-2.3-2.4-5.5-2.4-9.5v-9.6h-5.9
		c-0.5,0-1-0.2-1.4-0.6c-0.4-0.4-0.6-0.9-0.6-1.4v-8.9c0-0.5,0.2-1,0.6-1.4c0.4-0.4,0.9-0.6,1.4-0.6h5.9V25.4c0-0.5,0.2-1,0.6-1.4
		c0.4-0.4,0.9-0.6,1.4-0.6h12.9c0.5,0,1,0.2,1.4,0.6c0.4,0.4,0.6,0.9,0.6,1.4v12.1h9.3c0.5,0,1,0.2,1.4,0.6c0.4,0.4,0.6,0.9,0.6,1.4
		v8.9c0,0.5-0.2,1-0.6,1.4c-0.4,0.4-0.9,0.6-1.4,0.6h-9.3v8.1c0,1.1,0.3,2,0.8,2.7s1.3,1,2.4,1h6.7c0.5,0,1,0.2,1.4,0.6
		c0.4,0.4,0.6,0.9,0.6,1.4V74c0,0.5-0.2,1-0.6,1.4c-0.4,0.4-0.9,0.6-1.4,0.6C296.1,76,287.7,76,287.7,76z M267.9,41.4
		c-0.1-0.3-0.2-0.6-0.3-0.6s-0.4-0.1-0.8-0.2c-0.4,0-0.6,0-0.8,0.1c-0.2,0.1-0.3,0.2-0.5,0.6c-0.2,0.3-0.2,0.6-0.2,0.8
		s0.2,0.5,0.4,0.7c0.3,0.3,0.6,0.5,0.9,0.5c0.2,0.1,0.5-0.1,0.9-0.3c0.3-0.2,0.5-0.5,0.5-0.7C268.1,42.1,268,41.8,267.9,41.4z
		 M267.2,47.3l-0.7-0.4l-0.2,0.8l0.4,0.4l0.7-0.2L267.2,47.3z M270.3,44.2c-0.2-0.1-0.4-0.1-0.5-0.1c-0.1,0-0.3,0.1-0.4,0.3
		c-0.3,0.4-0.3,0.8,0,1.2c0.2,0.2,0.4,0.3,0.5,0.3c0.1,0,0.3-0.1,0.6-0.2c0.3-0.1,0.4-0.4,0.4-0.8C270.9,44.5,270.7,44.3,270.3,44.2
		z M277.6,36.6c-1.2-0.6-2.1-1.1-2.9-1.4c-0.7-0.3-1.5,0-2.5,1c-0.9,0.9-1.2,1.8-0.9,2.5s0.8,1.7,1.4,2.8c0.6,1.1,1.1,1.9,1.5,2.4
		s1.3,0.6,2.5,0.4c1.2-0.2,2-0.6,2.4-1.2c0.3-0.6,0.6-1.5,0.7-2.7c0.2-1.1,0.1-1.9-0.3-2.4C279.3,37.6,278.6,37.1,277.6,36.6z
		 M274,53.6c-0.1-0.4-0.2-0.7-0.4-0.8c-0.1-0.2-0.4-0.2-0.8-0.2c-0.7,0-1.1,0.3-1.3,1c-0.2,0.4-0.2,0.7-0.1,0.9
		c0.1,0.2,0.3,0.4,0.6,0.7c0.5,0.3,1.1,0.3,1.6,0C274.1,54.7,274.2,54.2,274,53.6z M272.6,63.3l-0.7,0.1l-0.4,0.7l1-0.1V63.3z
		 M276.4,49.5c-0.1-0.4-0.2-0.6-0.4-0.7c-0.2-0.1-0.5-0.2-0.8-0.2c-0.5-0.1-0.9-0.1-1.2-0.2c-0.3-0.1-0.6,0.1-0.8,0.5
		c-0.2,0.4-0.3,0.8-0.1,1c0.2,0.2,0.4,0.6,0.8,1c0.3,0.3,0.5,0.4,0.8,0.3c0.2-0.1,0.5-0.2,0.9-0.4c0.3-0.2,0.6-0.3,0.7-0.4
		C276.4,50.1,276.5,49.9,276.4,49.5z M275.1,32c-0.1-0.4-0.4-0.6-0.8-0.7c-0.2-0.1-0.4-0.1-0.6,0c-0.1,0-0.3,0.2-0.4,0.4
		c-0.2,0.4-0.1,0.8,0.2,1.2c0.2,0.2,0.4,0.3,0.5,0.2c0.1-0.1,0.3-0.2,0.6-0.3C275,32.6,275.1,32.3,275.1,32z M276.5,28.3l-0.7-0.7
		l-0.9,0.2l0.3,0.8l0.7,0.5L276.5,28.3z M282.2,59.6c-1.1-0.5-2-0.6-2.5-0.2c-0.6,0.4-1.3,1.1-2.1,2.1c-0.8,0.9-1.3,1.6-1.6,2.2
		c-0.2,0.6-0.1,1.4,0.5,2.4c0.7,1.2,1.3,2.1,1.9,2.6s1.6,0.6,2.9,0.3c1.4-0.2,2.2-0.7,2.5-1.4c0.3-0.7,0.5-1.7,0.7-3.1
		c0.2-1.3,0.1-2.3-0.1-3C284.2,60.7,283.4,60.2,282.2,59.6z M281.3,25.6c-0.4-0.3-0.8-0.4-1.1-0.3c-0.3,0.1-0.6,0.3-0.9,0.6
		c-0.4,0.3-0.6,0.6-0.8,0.9c-0.1,0.2-0.1,0.6,0.1,1.1c0.2,0.5,0.4,0.8,0.7,0.9s0.6,0.1,1.2,0.1c0.5-0.1,0.8-0.2,1-0.3s0.3-0.5,0.4-1
		c0.1-0.5,0.2-0.9,0.1-1.2C282,26.1,281.7,25.8,281.3,25.6z M281.1,54c-0.3-0.2-0.5-0.3-0.7-0.2s-0.4,0.2-0.7,0.4
		c-0.3,0.2-0.5,0.4-0.6,0.6s-0.1,0.4,0,0.7c0.1,0.4,0.3,0.8,0.4,1c0.1,0.2,0.4,0.4,0.8,0.4c0.5,0,0.8-0.1,0.9-0.3
		c0.1-0.2,0.3-0.6,0.4-1c0.2-0.4,0.2-0.7,0.1-0.9C281.6,54.5,281.4,54.2,281.1,54z M280.7,47.8l-0.9-0.3l-0.5,0.6l0.4,0.5l0.7-0.1
		L280.7,47.8z M281.1,30.7l-0.2-0.6l-0.4,0.4l-0.2,0.7l0.7,0.1L281.1,30.7z M286.2,45.4c-0.1-0.5-0.4-0.9-1-1
		c-0.4-0.1-0.8-0.2-1.1-0.3c-0.3-0.1-0.5,0-0.8,0.5c-0.3,0.4-0.4,0.8-0.4,1.1c0.1,0.3,0.2,0.6,0.6,1c0.3,0.4,0.6,0.6,0.9,0.6
		c0.3,0,0.6-0.1,1.1-0.3c0.3-0.2,0.5-0.3,0.6-0.6C286.2,46.1,286.2,45.8,286.2,45.4z M285.3,71.1c-0.1-0.3-0.1-0.5-0.3-0.5
		c-0.1-0.1-0.4-0.1-0.7-0.2c-0.4-0.1-0.7,0.1-0.9,0.4c-0.3,0.4-0.3,0.8,0,1.1c0.2,0.2,0.3,0.3,0.4,0.2c0.2-0.1,0.3-0.2,0.6-0.3
		s0.5-0.2,0.7-0.2C285.3,71.5,285.3,71.4,285.3,71.1z M291.4,67.3c-0.2-0.5-0.4-0.9-0.6-1.1s-0.6-0.2-1.1-0.2s-0.9,0.2-1,0.4
		c-0.2,0.2-0.3,0.6-0.4,1.1c-0.2,0.6-0.3,1.1-0.4,1.4c-0.1,0.4,0.1,0.7,0.7,1c0.5,0.3,1,0.4,1.3,0.3c0.3-0.2,0.8-0.4,1.3-0.9
		c0.4-0.3,0.6-0.7,0.6-1S291.6,67.8,291.4,67.3z M290.8,45.1l-0.7,0.2l0.2,0.7l0.7,0.2l0.1-0.7L290.8,45.1z M292,73l-0.7,0.2
		l0.2,0.8l0.7-0.1l0.5-0.5L292,73z M294,65.5l-0.5-0.4l-0.5,0.4l0.1,0.7l0.8-0.1L294,65.5z"/>
	<path class="st0" d="M305.3,76c-0.5,0-1-0.2-1.4-0.6s-0.6-0.9-0.6-1.4V39.5c0-0.5,0.2-1,0.6-1.4c0.4-0.4,0.9-0.6,1.4-0.6h13.2
		c0.5,0,1,0.2,1.4,0.6c0.4,0.4,0.6,0.9,0.6,1.4V74c0,0.5-0.2,1-0.6,1.4c-0.4,0.4-0.9,0.6-1.4,0.6C318.5,76,305.3,76,305.3,76z
		 M305.6,33.4c-0.5,0-1-0.2-1.4-0.6s-0.6-0.9-0.6-1.4v-9c0-0.5,0.2-1,0.6-1.4c0.4-0.4,0.9-0.6,1.4-0.6h12.5c0.5,0,1,0.2,1.4,0.6
		c0.4,0.4,0.6,0.9,0.6,1.4v9c0,0.5-0.2,1-0.6,1.4c-0.4,0.4-0.9,0.6-1.4,0.6H305.6z M306,57.3l-0.7-0.5l-0.6,0.8l0.6,0.6L306,58V57.3
		z M306.5,61.1c-0.2-0.2-0.4-0.4-0.6-0.5c-0.1-0.1-0.4-0.1-0.7,0.1c-0.2,0.2-0.4,0.4-0.3,0.6c0,0.2,0.1,0.4,0.3,0.8
		c0.1,0.3,0.2,0.5,0.3,0.7c0.1,0.2,0.3,0.2,0.5,0.2c0.4,0,0.8,0,1-0.1s0.4-0.3,0.5-0.7c0.1-0.3,0-0.6-0.2-0.7
		C307.2,61.4,306.9,61.3,306.5,61.1z M305.7,64.6l-0.4,0.6v0.6l0.7,0.2l0.4-0.7L305.7,64.6z M308.2,50.7c-0.1-0.6-0.4-1-1-1.1
		c-0.4-0.1-0.6,0-0.7,0.1s-0.3,0.3-0.4,0.6c-0.2,0.2-0.2,0.4-0.1,0.6c0.1,0.1,0.2,0.3,0.4,0.5c0.1,0.2,0.3,0.3,0.4,0.4
		c0.1,0.1,0.3,0.1,0.5,0c0.3-0.2,0.5-0.3,0.7-0.4C308.2,51.2,308.2,51,308.2,50.7z M307.6,27.9l-0.9,0.2v0.7l0.5,0.4l0.7-0.4
		L307.6,27.9z M308.1,44l-0.5-0.2l-0.7,0.4l0.5,0.7l0.7-0.2L308.1,44z M312,67.8c-0.3-0.5-0.6-0.8-0.8-1c-0.2-0.2-0.7-0.2-1.3-0.1
		c-0.5,0.1-0.9,0.3-1,0.6c-0.1,0.3-0.2,0.7-0.2,1.3c0,0.5,0,0.8,0.2,1c0.2,0.2,0.5,0.4,0.9,0.5c0.5,0.2,0.9,0.4,1.2,0.5
		c0.3,0.1,0.6-0.1,1-0.5c0.4-0.4,0.6-0.8,0.5-1.2C312.5,68.7,312.3,68.3,312,67.8z M309.3,25l-0.6,0.4l0.2,0.8l1,0.2l0.3-1L309.3,25
		z M309.7,64.3l-0.8-0.1v0.7l0.4,0.6l0.4-0.6L309.7,64.3z M311.3,59.9c-0.2-0.5-0.5-0.7-0.8-0.7c-0.5,0.1-0.9,0.3-1,0.7
		c0,0.4,0.1,0.7,0.6,1c0.4,0.2,0.8,0.2,1.1,0C311.5,60.7,311.5,60.3,311.3,59.9z M311,41.6l-0.7-0.2l-0.3,0.8l0.7,0.7l0.8-0.6
		L311,41.6z M313,55.4c-0.2-0.3-0.4-0.4-0.6-0.4c-0.2,0.1-0.5,0.2-0.8,0.3c-0.4,0.1-0.7,0.2-0.9,0.2s-0.3,0.3-0.3,0.7
		c0,0.4,0.1,0.8,0.2,0.9c0.1,0.2,0.4,0.3,0.9,0.5c0.3,0.1,0.6,0.1,0.7-0.1s0.3-0.4,0.6-0.7c0.2-0.3,0.4-0.5,0.5-0.7
		C313.3,55.9,313.2,55.7,313,55.4z M314.7,45.6c-0.5-0.5-0.9-0.7-1.3-0.5s-0.8,0.3-1.4,0.6c-0.5,0.2-0.9,0.5-1.2,0.7
		c-0.2,0.2-0.3,0.6-0.3,1.2c0.1,0.7,0.2,1.2,0.4,1.4c0.2,0.3,0.6,0.5,1.3,0.6c0.7,0.2,1.2,0.2,1.5,0.1s0.7-0.4,1-1
		c0.4-0.6,0.6-1.2,0.6-1.6C315.4,46.6,315.2,46.2,314.7,45.6z M312.2,26.9l-0.5-0.2l-0.7,0.3l0.4,0.8l0.7-0.4L312.2,26.9z
		 M317.5,62.1c-0.1-0.5-0.4-0.9-0.6-1.1c-0.2-0.2-0.7-0.3-1.3-0.4c-0.5-0.1-0.9,0-1.1,0.3s-0.4,0.6-0.6,1.1
		c-0.2,0.6-0.4,1.1-0.4,1.4s0.2,0.7,0.6,1c0.5,0.4,0.9,0.7,1.3,0.7c0.3,0,0.8-0.2,1.3-0.5c0.5-0.3,0.8-0.7,0.9-1
		C317.7,63.1,317.6,62.6,317.5,62.1z M314.8,52.1l-0.5-0.4l-0.6,0.2l0.1,0.7l0.7,0.2L314.8,52.1z M315.3,28.2c-0.3,0-0.5,0-0.7,0
		s-0.3,0.1-0.4,0.4s-0.1,0.4,0,0.6c0.1,0.1,0.2,0.3,0.4,0.4c0.2,0.2,0.4,0.4,0.5,0.5c0.2,0.1,0.3,0.1,0.6,0c0.4-0.3,0.6-0.7,0.5-1.3
		c-0.1-0.3-0.2-0.4-0.4-0.4C315.9,28.3,315.6,28.3,315.3,28.2z M315.6,69.2c-0.3-0.1-0.6,0-0.7,0.2c-0.1,0.2-0.3,0.4-0.4,0.7
		c-0.1,0.2-0.2,0.4-0.1,0.6c0.1,0.1,0.2,0.3,0.4,0.5c0.2,0.2,0.4,0.4,0.6,0.5c0.1,0.2,0.3,0.2,0.6,0c0.5-0.2,0.8-0.7,0.7-1.3
		c-0.1-0.4-0.1-0.7-0.2-0.9C316.2,69.5,315.9,69.3,315.6,69.2z M316,67.2l-0.5-0.7l-0.7,0.7l0.2,0.8l0.8-0.1L316,67.2z M317.8,43.3
		c-0.1-0.6-0.4-1-1-1.1c-0.3-0.1-0.5,0-0.6,0.2s-0.2,0.4-0.4,0.7c-0.2,0.4-0.2,0.8,0,1.1c0.4,0.4,0.8,0.5,1.2,0.3
		c0.3-0.2,0.5-0.3,0.6-0.4C317.8,43.9,317.8,43.7,317.8,43.3z M318.8,56.4c-0.2-0.4-0.4-0.6-0.6-0.7c-0.2-0.1-0.5-0.1-0.9,0
		c-0.4,0.1-0.7,0.2-0.8,0.3c-0.1,0.2-0.3,0.4-0.4,0.8c0,0.4,0,0.7,0.1,0.8s0.4,0.4,0.7,0.6c0.5,0.3,1.1,0.2,1.5-0.2
		c0.3-0.3,0.5-0.6,0.6-0.8C319.1,57.1,319,56.8,318.8,56.4z M318.3,49.3c-0.2-0.2-0.4-0.2-0.4-0.1c-0.1,0.1-0.2,0.2-0.4,0.4
		c-0.2,0.2-0.4,0.3-0.4,0.4c-0.1,0.1-0.1,0.2,0,0.4c0.2,0.5,0.6,0.7,1,0.7c0.4-0.1,0.6-0.3,0.7-0.9
		C318.8,49.8,318.6,49.5,318.3,49.3z M318.7,67l-0.4-0.3l-0.7,0.4l0.4,0.5l0.7,0.2V67z"/>
	<path class="st0" d="M332.9,76c-0.5,0-1-0.2-1.4-0.6c-0.4-0.4-0.6-0.9-0.6-1.4V39.5c0-0.5,0.2-1,0.6-1.4c0.4-0.4,0.9-0.6,1.4-0.6
		h12.2c0.5,0,1,0.2,1.4,0.6c0.4,0.4,0.6,0.9,0.6,1.4v2.4c0.8-1.1,2.2-2.3,4-3.4c1.8-1.1,3.9-1.7,6.3-1.8c5.8-0.2,9.7,1.8,11.7,6.1
		c1.1-1.7,2.7-3.2,4.8-4.3s4.2-1.7,6.5-1.7c2.5,0,4.8,0.6,6.8,1.7c2,1.1,3.7,2.9,4.9,5.3s1.9,5.6,1.9,9.5V74c0,0.5-0.2,1-0.6,1.4
		c-0.4,0.4-0.9,0.6-1.4,0.6h-13c-0.5,0-1-0.2-1.4-0.6S377,74.5,377,74V53.6c0-2.4-1-3.6-3-3.6c-1.9,0-2.9,1.2-2.9,3.6V74
		c0,0.5-0.2,1-0.6,1.4c-0.4,0.4-0.9,0.6-1.4,0.6h-13c-0.5,0-1-0.2-1.4-0.6c-0.4-0.4-0.6-0.9-0.6-1.4V53.6c0-2.4-1-3.6-3-3.6
		c-2,0-3,1.2-3,3.6V74c0,0.5-0.2,1-0.6,1.4c-0.4,0.4-0.9,0.6-1.4,0.6H332.9L332.9,76z M335.3,48.3c-0.2-0.3-0.4-0.4-0.7-0.4
		c-0.3,0.1-0.5,0.3-0.5,0.7c0,0.2,0,0.4,0,0.6s0.1,0.3,0.3,0.4c0.2,0.1,0.5,0.2,0.6,0.2c0.2,0,0.4-0.1,0.6-0.3
		c0.2-0.2,0.2-0.4,0.1-0.5C335.6,48.7,335.5,48.5,335.3,48.3z M338.6,70.6c-0.2-0.5-0.4-0.8-0.8-0.7s-0.8,0.1-1.4,0.1
		c-0.4,0-0.8,0.1-1,0.2c-0.2,0.1-0.4,0.3-0.5,0.7c-0.1,0.4-0.2,0.8,0,1c0.1,0.2,0.4,0.5,0.7,0.7c0.4,0.3,0.8,0.5,1,0.6s0.6,0,1-0.3
		c0.5-0.4,0.9-0.7,1.1-1C338.8,71.6,338.8,71.2,338.6,70.6z M336.2,51.9l-0.7,0.1l0.1,0.7l0.7,0.3l0.6-0.7L336.2,51.9z M343.9,64.3
		c0-0.7-0.1-1.2-0.4-1.4c-0.2-0.3-0.7-0.5-1.4-0.8c-0.7-0.2-1.2-0.2-1.5-0.2c-0.4,0.1-0.7,0.4-1.2,1c-0.4,0.5-0.4,1-0.3,1.3
		c0.2,0.3,0.5,0.8,0.9,1.3c0.3,0.5,0.6,0.8,0.9,1c0.3,0.2,0.7,0.2,1.3,0c0.6-0.2,1.1-0.4,1.3-0.7S343.9,65,343.9,64.3z M341.2,40.5
		h-1.1l-0.5,1l0.9,0.4l1-0.2L341.2,40.5z M341.2,49.4l-0.7-0.2l-0.7,0.6l0.5,0.7l0.8-0.3L341.2,49.4L341.2,49.4z M342.4,43l-0.7,0.2
		l0.2,0.9h0.9l0.3-0.7L342.4,43z M344.6,69.3c-0.3-0.2-0.5-0.1-0.6,0c-0.1,0.2-0.3,0.4-0.5,0.6c-0.2,0.2-0.4,0.4-0.5,0.5
		s-0.1,0.3,0,0.6c0.2,0.3,0.4,0.6,0.5,0.7c0.1,0.1,0.4,0.1,0.8,0.1c0.3-0.1,0.4-0.2,0.4-0.4c0-0.2,0-0.5,0-0.8
		c0.1-0.3,0.1-0.6,0.1-0.8C345,69.6,344.9,69.4,344.6,69.3z M345.4,42.8l-0.9,0.3l0.4,0.9l1,0.3l0.4-1.1L345.4,42.8z M345.1,57.5
		l-0.6,0.2v0.5l0.5,0.3l0.4-0.5L345.1,57.5z M346.4,54.1l-0.4-0.5l-0.6,0.4l0.3,0.7l0.5-0.1L346.4,54.1z M349.8,45.3l-0.7-0.4
		l-0.6,0.6l0.4,0.6l0.7-0.1L349.8,45.3z M353,39.2l-0.7,0.4l0.1,0.9l1-0.1l0.3-0.8L353,39.2z M357.6,59c-0.3-0.2-0.5-0.3-0.7-0.2
		c-0.1,0.1-0.4,0.2-0.7,0.4c-0.3,0.2-0.3,0.6-0.1,1.1c0.1,0.3,0.2,0.5,0.3,0.6c0.1,0.1,0.3,0.2,0.6,0.2s0.5-0.1,0.6-0.2
		s0.2-0.4,0.3-0.7c0.1-0.3,0.1-0.5,0.1-0.7C358,59.3,357.9,59.2,357.6,59z M365.6,46.1c-0.3-1.4-0.7-2.5-1.1-3.1s-1.4-1-2.8-1.2
		c-1.4-0.2-2.4,0-2.9,0.6c-0.5,0.6-1,1.5-1.6,2.8c-0.5,1.1-0.7,1.9-0.5,2.6c0.2,0.6,0.7,1.4,1.6,2.2c1.1,1,2,1.7,2.6,2.2
		s1.6,0.4,2.9-0.4c1.3-0.7,2-1.5,2.1-2.3C366,48.7,365.9,47.5,365.6,46.1z M358,72l-0.7-0.7l-0.6,0.6l0.2,0.7h0.7L358,72z
		 M361.1,66.2c-0.5-0.4-0.9-0.6-1.2-0.7s-0.8,0.1-1.3,0.4c-0.6,0.4-1,0.8-1.3,1.1c-0.3,0.3-0.4,0.8-0.2,1.5s0.5,1,1,1s1,0,1.7,0.1
		c0.5,0,0.9-0.1,1.2-0.2c0.2-0.2,0.4-0.5,0.6-1c0.2-0.5,0.3-1,0.3-1.3C361.7,66.9,361.5,66.5,361.1,66.2z M362.2,56
		c-0.4,0-0.6,0-0.8,0.1c-0.2,0.1-0.3,0.2-0.5,0.6c-0.2,0.5-0.1,1,0.4,1.4c0.2,0.2,0.4,0.2,0.6,0.2c0.2-0.1,0.4-0.2,0.7-0.4
		c0.4-0.2,0.6-0.5,0.5-0.9c-0.1-0.3-0.2-0.5-0.3-0.7S362.5,56,362.2,56z M366,64.1c-0.1-0.5-0.3-0.8-0.7-0.9
		c-0.4-0.1-0.6,0.1-0.9,0.5c-0.2,0.2-0.2,0.4-0.3,0.6s0,0.3,0.1,0.5c0.4,0.4,0.8,0.6,1.3,0.4c0.3-0.2,0.5-0.3,0.5-0.4
		C366,64.6,366,64.4,366,64.1z M367.6,55c-0.3-0.2-0.6-0.4-0.8-0.4c-0.2,0-0.5,0.1-0.9,0.3c-0.4,0.3-0.8,0.5-1,0.7s-0.3,0.5-0.2,1
		c0.2,0.5,0.4,0.7,0.7,0.7s0.8,0,1.3,0c0.4,0,0.8,0,1.1,0c0.3,0,0.5-0.3,0.6-0.7c0.2-0.4,0.1-0.8,0-1C368.3,55.6,368,55.3,367.6,55z
		 M368,66.6c-0.4-0.4-0.7-0.5-1.2-0.3c-0.4,0.2-0.6,0.5-0.6,1c0.1,0.4,0.3,0.7,0.7,0.8c0.3,0.1,0.5,0.1,0.7,0.1s0.3-0.1,0.5-0.4
		C368.4,67.5,368.4,67.1,368,66.6z M375.7,42.1c-0.3-0.5-0.6-0.7-0.9-0.6c-0.3,0.1-0.8,0.2-1.3,0.4c-0.4,0.1-0.7,0.2-0.9,0.4
		c-0.1,0.2-0.2,0.5-0.3,0.9c0,0.4,0,0.8,0.1,1.1s0.4,0.5,0.8,0.6c0.5,0.2,1,0.4,1.3,0.4s0.6-0.2,1-0.6c0.4-0.5,0.7-0.9,0.7-1.3
		C376.2,43.1,376.1,42.7,375.7,42.1z M379.3,45.8l-0.5,0.1l-0.1,0.6l0.7,0.4L379.3,45.8z M381.4,43c-0.1-0.3-0.2-0.5-0.3-0.7
		s-0.2-0.3-0.6-0.2c-0.3,0.1-0.5,0.2-0.6,0.3c-0.1,0.2-0.2,0.4-0.3,0.7c0,0.3-0.1,0.6-0.1,0.8s0.1,0.4,0.4,0.6
		c0.3,0.2,0.5,0.3,0.7,0.2c0.2-0.1,0.4-0.2,0.7-0.5c0.2-0.2,0.3-0.4,0.2-0.6C381.7,43.5,381.6,43.3,381.4,43z M381.1,53l-0.8-0.5
		l-0.7,0.3v0.7l0.8,0.4L381.1,53z M383.1,48.2c-0.2-0.3-0.4-0.6-0.6-0.9s-0.4-0.3-0.9-0.2c-0.4,0.1-0.7,0.3-0.7,0.6
		c0,0.3-0.1,0.6-0.1,1.1c0,0.4,0,0.8,0,1c0,0.2,0.3,0.4,0.7,0.6c0.4,0.2,0.8,0.2,1,0.1c0.2-0.1,0.5-0.4,0.8-0.7
		c0.2-0.3,0.3-0.6,0.3-0.8C383.5,48.8,383.4,48.6,383.1,48.2z M390.5,57.6c-0.4-1.2-0.9-1.8-1.5-2s-1.6-0.2-2.9-0.2
		c-1.1,0-1.9,0.1-2.4,0.4s-1,0.9-1.3,1.9c-0.4,1.2-0.7,2.2-0.8,3s0.4,1.5,1.4,2.3c1.3,1,2.4,1.7,3.3,2c0.8,0.3,2,0,3.3-0.9
		c1.3-0.9,2-1.9,1.9-2.8C391.3,60.4,391,59.2,390.5,57.6z M382.7,40.3l-0.7-0.2l-0.5,0.4l0.3,0.7l0.7-0.2L382.7,40.3z M386.6,66.5
		l-0.9,0.4l-0.4,0.7l0.7,0.2l0.9-0.2L386.6,66.5z M389.6,71.1c-0.4-0.4-0.8-0.6-1.3-0.4c-0.3,0.1-0.4,0.2-0.4,0.4s0,0.4,0,0.7
		c0,0.5,0.2,0.8,0.5,0.9c0.3,0.1,0.6,0.2,0.8,0.2c0.2,0,0.4-0.1,0.5-0.3C390,72,390,71.5,389.6,71.1z M390.7,46.7l-0.8,0.1v1l1,0.3
		l0.6-0.8L390.7,46.7z"/>
	<path class="st0" d="M420.2,76.7c-6.5,0-11.6-1.6-15.4-4.8s-5.7-8.2-5.7-15.1v-0.5c0.1-6.4,2.1-11.2,5.9-14.5s8.9-5,15.2-5
		c4.8,0,8.8,0.9,11.9,2.8c3.1,1.8,5.4,4.3,6.9,7.3c1.5,3,2.3,6.4,2.3,10v2.2c0,0.5-0.2,1-0.6,1.4c-0.4,0.4-0.9,0.6-1.4,0.6h-22v0.4
		c0,1.5,0.2,2.6,0.6,3.4c0.4,0.8,1.2,1.2,2.3,1.2c0.4,0,0.8-0.1,1.1-0.4s0.6-0.6,1-1c0.4-0.4,0.8-0.7,1.1-0.8
		c0.3-0.1,0.7-0.2,1.3-0.2h14c0.5,0,0.9,0.2,1.2,0.4c0.3,0.3,0.5,0.7,0.4,1.2c0,0.9-0.5,2.1-1.3,3.4s-2,2.6-3.7,3.8
		c-1.6,1.2-3.7,2.3-6.2,3.1C426.6,76.3,423.6,76.7,420.2,76.7z M406.1,57.8c-0.6-0.2-1-0.2-1.3,0c-0.3,0.2-0.6,0.5-0.9,1
		c-0.2,0.4-0.3,0.8-0.1,1s0.4,0.5,0.7,0.9c0.2,0.3,0.5,0.6,0.7,0.6s0.5,0,0.8-0.1c0.6-0.2,1-0.7,1-1.4c0-0.5,0-1,0-1.3
		C406.9,58.1,406.7,57.9,406.1,57.8z M406.5,47.1c-0.3-0.1-0.5-0.1-0.7,0s-0.4,0.3-0.5,0.5c-0.3,0.3-0.5,0.5-0.8,0.7
		c-0.2,0.2-0.2,0.5,0,0.8c0.2,0.4,0.5,0.5,0.7,0.4c0.2-0.1,0.6-0.2,1-0.3c0.4-0.1,0.7-0.4,0.7-0.9c0-0.3,0.1-0.5,0-0.7
		C407,47.4,406.8,47.3,406.5,47.1z M409.1,54.1c-0.2-0.3-0.5-0.5-0.7-0.5s-0.6,0.1-1,0.2c-0.4,0.2-0.7,0.3-0.9,0.5s-0.2,0.5-0.2,0.9
		c0,0.5,0,1,0.1,1.3c0.1,0.3,0.4,0.5,0.9,0.7c0.5,0.2,0.9,0.1,1.2,0c0.2-0.2,0.5-0.5,0.9-1c0.3-0.4,0.4-0.7,0.4-1
		C409.6,54.9,409.4,54.5,409.1,54.1z M408.6,63.9c0-0.3,0-0.6,0-0.8c0-0.2-0.1-0.3-0.4-0.4c-0.4-0.1-0.6-0.1-0.7,0
		c-0.1,0.1-0.3,0.3-0.5,0.6c-0.1,0.2-0.2,0.4-0.1,0.5s0.2,0.3,0.3,0.5c0.2,0.2,0.3,0.5,0.4,0.6s0.3,0.2,0.6,0.1
		c0.3-0.1,0.4-0.2,0.4-0.4C408.7,64.4,408.6,64.2,408.6,63.9z M409.5,42.7c-0.4,0-0.7,0.1-0.8,0.3c-0.1,0.2-0.2,0.6-0.4,1
		c-0.1,0.2-0.1,0.4,0,0.6s0.3,0.3,0.6,0.4c0.2,0.2,0.5,0.4,0.6,0.6s0.4,0.1,0.7-0.1c0.3-0.2,0.6-0.5,0.7-0.7s0.1-0.5-0.1-1
		c-0.1-0.4-0.2-0.8-0.4-1C410.3,42.8,410,42.7,409.5,42.7z M412.3,47.9c-0.6-0.3-1-0.4-1.4-0.4c-0.3,0.1-0.7,0.3-1.1,0.7
		c-0.4,0.5-0.7,0.9-0.7,1.2s0.1,0.8,0.4,1.3c0.2,0.5,0.5,0.7,0.9,0.6s0.8-0.2,1.3-0.3c0.5-0.1,0.9-0.2,1.2-0.3
		c0.3-0.1,0.5-0.4,0.5-0.9c0-0.6,0-1-0.1-1.3C413.1,48.4,412.8,48.2,412.3,47.9z M413.7,63.8c-0.4-0.4-1-0.5-1.5-0.2
		c-0.4,0.2-0.7,0.4-0.9,0.6s-0.2,0.4-0.2,0.9c0.1,0.4,0.3,0.7,0.5,0.7s0.6,0.1,1,0.2c0.4,0.1,0.8,0.1,1.1,0.1c0.3,0,0.5-0.2,0.7-0.6
		c0.2-0.4,0.2-0.7,0-0.9C414.3,64.4,414,64.1,413.7,63.8z M412.7,70c-0.4-0.1-0.6,0-0.7,0.1c-0.1,0.1-0.3,0.3-0.4,0.6
		c-0.2,0.3-0.3,0.5-0.4,0.7s0,0.4,0.3,0.7c0.3,0.3,0.6,0.5,0.8,0.6s0.5,0.1,0.9-0.1c0.3-0.2,0.5-0.4,0.4-0.7s-0.1-0.6-0.2-1
		c0-0.3-0.1-0.5-0.2-0.7C413.2,70.2,413,70.1,412.7,70z M412.9,54.9c-0.4-0.1-0.6,0-0.7,0.2c-0.1,0.2-0.2,0.5-0.4,0.9
		c-0.1,0.4-0.3,0.7-0.4,0.9c-0.1,0.2,0,0.5,0.3,0.7c0.3,0.3,0.6,0.5,0.9,0.5s0.6-0.1,1-0.4c0.4-0.2,0.7-0.5,0.9-0.7s0.2-0.5,0.1-1
		c-0.1-0.5-0.3-0.8-0.5-0.9C413.7,55,413.4,54.9,412.9,54.9z M415.4,68.5l-0.7-0.4l-0.5,0.7l0.5,0.5l0.7,0.1V68.5z M417.2,51.8h2.2
		c0-0.1-0.1-0.2-0.1-0.4c-0.2-0.9-0.4-1.7-0.5-2.3c-0.1-0.6-0.1-1.2,0.1-1.8c0.3-0.2,0.8-0.3,1.3-0.3c2,0,3,1.6,3,4.7l-3.7,0.1
		c0.4,1.4,0.7,2.6,0.9,3.7c0.2,1.1,0.5,1.9,1.1,2.6c0.6,0.6,1.6,0.9,3.1,1c1.8,0.1,3.3-0.1,4.4-0.4s2-0.9,2.7-1.8
		c0.7-0.9,1.3-2.2,1.9-4c0.5-1.5,0.5-2.6,0.1-3.4c-0.4-0.8-1.1-1.4-2.1-2c-1-0.6-2.1-1.4-3.4-2.3c-1.4-1.1-2.6-1.7-3.5-1.7
		c-0.9-0.1-2.1,0.4-3.6,1.4c-1.2,0.9-2,1.8-2.2,2.6C417.7,48,417.2,49.5,417.2,51.8z M424.3,69.2c0-0.6-0.1-1.1-0.1-1.4
		c0-0.3-0.3-0.6-0.9-0.7c-0.7-0.2-1.3-0.3-1.7-0.3c-0.4,0-0.8,0.4-1.2,1c-0.4,0.6-0.4,1-0.1,1.3c0.3,0.3,0.6,0.7,1,1.3
		c0.3,0.4,0.6,0.7,0.9,0.8c0.3,0.1,0.6,0.1,1.1-0.2c0.5-0.2,0.8-0.4,0.9-0.7C424.4,70,424.4,69.6,424.3,69.2z M427.6,65.8
		c-0.1-0.2-0.2-0.4-0.3-0.4s-0.3-0.1-0.5-0.1c-0.4,0-0.7,0.2-0.8,0.4c-0.1,0.4-0.1,0.7,0.2,1c0.2,0.2,0.4,0.3,0.5,0.4
		s0.3,0.1,0.5-0.1c0.2-0.2,0.4-0.4,0.4-0.5C427.7,66.3,427.6,66.1,427.6,65.8z M432.8,68.6c-0.2-0.6-0.5-1.1-0.6-1.4
		s-0.6-0.5-1.3-0.4c-0.8,0.1-1.4,0.2-1.8,0.4c-0.4,0.2-0.7,0.7-0.8,1.5c-0.1,0.7-0.1,1.3,0.3,1.6c0.3,0.3,0.8,0.6,1.5,1
		c0.6,0.4,1.2,0.7,1.6,0.8c0.4,0.2,0.9-0.1,1.5-0.6c0.6-0.5,0.8-0.9,0.5-1.3C433.4,69.9,433.1,69.3,432.8,68.6z"/>
</g>
<g>
	<path class="st0" d="M543.6,76c-3.5,0-6.7-0.5-9.5-1.4c-2.8-1-5-2.6-6.6-4.9c-1.6-2.3-2.4-5.5-2.4-9.5v-9.6h-5.8
		c-0.5,0-1-0.2-1.4-0.6c-0.4-0.4-0.6-0.9-0.6-1.4v-8.9c0-0.5,0.2-1,0.6-1.4c0.4-0.4,0.9-0.6,1.4-0.6h5.8V25.4c0-0.5,0.2-1,0.6-1.4
		c0.4-0.4,0.9-0.6,1.4-0.6h13c0.5,0,1,0.2,1.4,0.6c0.4,0.4,0.6,0.9,0.6,1.4v12.1h9.3c0.5,0,1,0.2,1.4,0.6c0.4,0.4,0.6,0.9,0.6,1.4
		v8.9c0,0.5-0.2,1-0.6,1.4c-0.4,0.4-0.9,0.6-1.4,0.6h-9.3v8.1c0,1.1,0.3,2,0.8,2.7c0.5,0.7,1.3,1,2.4,1h6.7c0.5,0,1,0.2,1.4,0.6
		c0.4,0.4,0.6,0.9,0.6,1.4V74c0,0.5-0.2,1-0.6,1.4c-0.4,0.4-0.9,0.6-1.4,0.6L543.6,76L543.6,76z M523.8,41.4c0-0.3-0.2-0.6-0.3-0.6
		s-0.4-0.1-0.8-0.2c-0.4,0-0.6,0-0.8,0.1c-0.2,0.1-0.3,0.2-0.5,0.6c-0.2,0.3-0.2,0.6-0.2,0.8s0.2,0.5,0.4,0.7
		c0.3,0.3,0.6,0.5,0.9,0.5c0.2,0,0.5-0.1,0.9-0.3c0.3-0.2,0.5-0.5,0.5-0.7C524,42.1,524,41.8,523.8,41.4z M523.1,47.3l-0.7-0.4
		l-0.2,0.8l0.4,0.4l0.7-0.2L523.1,47.3z M526.2,44.2c-0.2-0.1-0.4-0.1-0.5-0.1c-0.1,0-0.3,0.1-0.4,0.3c-0.3,0.4-0.3,0.8,0,1.2
		c0.2,0.2,0.4,0.3,0.5,0.3c0.1,0,0.3-0.1,0.6-0.2c0.3-0.1,0.4-0.4,0.4-0.8C526.8,44.5,526.6,44.3,526.2,44.2z M533.5,36.6
		c-1.2-0.6-2.1-1.1-2.9-1.4c-0.7-0.3-1.5,0-2.5,1c-0.9,0.9-1.2,1.8-0.9,2.5s0.8,1.7,1.4,2.8c0.6,1.1,1.1,1.9,1.5,2.4
		s1.3,0.6,2.5,0.4c1.2-0.2,2-0.6,2.4-1.2c0.3-0.6,0.6-1.5,0.7-2.7c0.2-1.1,0.1-1.9-0.3-2.4C535.2,37.6,534.5,37.1,533.5,36.6z
		 M530,53.6c-0.1-0.4-0.2-0.7-0.4-0.8c-0.1-0.2-0.4-0.2-0.8-0.2c-0.7,0-1.1,0.3-1.3,1c-0.2,0.4-0.2,0.7-0.1,0.9
		c0.1,0.2,0.3,0.4,0.6,0.7c0.5,0.3,1.1,0.3,1.6,0C530,54.7,530.1,54.2,530,53.6z M528.5,63.3l-0.7,0.1l-0.4,0.7l1-0.1V63.3z
		 M532.3,49.5c0-0.4-0.2-0.6-0.4-0.7c-0.2-0.1-0.5-0.2-0.8-0.2c-0.5-0.1-0.9-0.1-1.2-0.2c-0.3-0.1-0.6,0.1-0.8,0.5
		c-0.2,0.4-0.3,0.8-0.1,1c0.2,0.2,0.4,0.6,0.8,1c0.3,0.3,0.5,0.4,0.8,0.3c0.2-0.1,0.5-0.2,0.8-0.4c0.3-0.2,0.6-0.3,0.7-0.4
		C532.3,50.1,532.4,49.9,532.3,49.5z M531,32c-0.1-0.4-0.4-0.6-0.8-0.7c-0.2-0.1-0.4-0.1-0.6,0c-0.1,0-0.3,0.2-0.4,0.4
		c-0.2,0.4-0.1,0.8,0.2,1.2c0.2,0.2,0.4,0.3,0.5,0.2c0.2-0.1,0.3-0.2,0.6-0.3C530.9,32.6,531,32.3,531,32z M532.4,28.3l-0.7-0.7
		l-0.9,0.2l0.3,0.8l0.7,0.5L532.4,28.3z M538.1,59.6c-1.1-0.5-2-0.6-2.5-0.2c-0.6,0.4-1.3,1.1-2.1,2.1c-0.8,0.9-1.3,1.6-1.5,2.2
		c-0.2,0.6-0.1,1.4,0.5,2.4c0.7,1.2,1.3,2.1,1.9,2.6s1.5,0.6,2.9,0.3c1.4-0.2,2.2-0.7,2.5-1.4c0.3-0.7,0.5-1.7,0.7-3.1
		c0.2-1.3,0.1-2.3-0.1-3S539.3,60.2,538.1,59.6z M537.2,25.6c-0.4-0.3-0.8-0.4-1.1-0.3c-0.3,0.1-0.6,0.3-0.9,0.6
		c-0.4,0.3-0.6,0.6-0.8,0.9c-0.1,0.2-0.1,0.6,0.1,1.1c0.2,0.5,0.4,0.8,0.7,0.9s0.6,0.1,1.2,0.1c0.5-0.1,0.8-0.2,1-0.3
		c0.2-0.2,0.3-0.5,0.4-1c0.1-0.5,0.2-0.9,0.1-1.2C537.9,26.1,537.6,25.8,537.2,25.6z M537,54c-0.3-0.2-0.5-0.3-0.7-0.2
		c-0.2,0.1-0.4,0.2-0.7,0.4c-0.3,0.2-0.5,0.4-0.5,0.6c-0.1,0.2-0.1,0.4,0,0.7c0.2,0.4,0.3,0.8,0.4,1c0.1,0.2,0.4,0.4,0.8,0.4
		c0.5,0,0.8-0.1,0.9-0.3c0.1-0.2,0.3-0.6,0.4-1c0.1-0.4,0.2-0.7,0.1-0.9C537.5,54.5,537.3,54.2,537,54z M536.6,47.8l-0.9-0.3
		l-0.5,0.6l0.4,0.5l0.7-0.1L536.6,47.8z M537.1,30.7l-0.2-0.6l-0.4,0.4l-0.2,0.7l0.7,0.1L537.1,30.7z M542.1,45.4c0-0.5-0.4-0.9-1-1
		c-0.4-0.1-0.8-0.2-1.1-0.3s-0.5,0-0.8,0.5c-0.3,0.4-0.4,0.8-0.4,1.1s0.2,0.6,0.6,1c0.3,0.4,0.6,0.6,0.9,0.6c0.3,0,0.6-0.1,1.1-0.3
		c0.3-0.2,0.5-0.3,0.5-0.6C542.1,46.1,542.1,45.8,542.1,45.4z M541.2,71.1c0-0.3-0.2-0.5-0.3-0.5c-0.2-0.1-0.4-0.1-0.7-0.2
		c-0.4-0.1-0.7,0.1-0.9,0.4c-0.3,0.4-0.3,0.8,0,1.1c0.1,0.2,0.3,0.3,0.4,0.2c0.1-0.1,0.3-0.2,0.6-0.3s0.5-0.2,0.7-0.2
		C541.2,71.5,541.2,71.4,541.2,71.1z M547.3,67.3c-0.2-0.5-0.4-0.9-0.6-1.1c-0.2-0.2-0.6-0.2-1.1-0.2c-0.5,0.1-0.9,0.2-1,0.4
		c-0.1,0.2-0.3,0.6-0.4,1.1c-0.1,0.6-0.3,1.1-0.4,1.4c-0.1,0.4,0.1,0.7,0.7,1c0.5,0.3,1,0.4,1.3,0.3c0.3-0.2,0.8-0.4,1.3-0.9
		c0.4-0.3,0.6-0.7,0.6-1S547.5,67.8,547.3,67.3z M546.7,45.1l-0.7,0.2l0.2,0.7l0.7,0.2l0.2-0.7L546.7,45.1z M547.9,73l-0.7,0.2
		l0.2,0.8l0.7-0.1l0.5-0.5L547.9,73z M549.9,65.5l-0.5-0.4l-0.5,0.4l0.1,0.7l0.8-0.1L549.9,65.5z"/>
	<path class="st0" d="M579.6,76.7c-13.6,0-20.7-5.5-21.5-16.5c-0.1-2.3-0.1-4.6,0-7c0.4-5.4,2.5-9.5,6.2-12.3s8.8-4.2,15.2-4.2
		c6.4,0,11.5,1.4,15.3,4.2c3.8,2.8,5.8,6.9,6.2,12.3c0.2,2.3,0.2,4.6,0,7C600.3,71.2,593.2,76.7,579.6,76.7z M563.4,61.5
		c-0.3-0.2-0.6-0.3-0.8-0.3c-0.2,0.1-0.5,0.2-0.9,0.5c-0.5,0.4-0.6,0.9-0.4,1.5c0.2,0.4,0.3,0.8,0.4,1c0.2,0.2,0.4,0.3,0.9,0.3
		c0.4,0,0.6-0.1,0.6-0.4c0-0.3,0.1-0.6,0.2-1c0.2-0.4,0.3-0.7,0.3-0.9C563.8,61.9,563.7,61.7,563.4,61.5z M566.5,51.1
		c-0.5-0.9-1-1.7-1.3-2.2c-0.3-0.5-1-0.6-2.1-0.4c-1,0.2-1.5,0.7-1.4,1.3c0,0.6,0,1.5-0.1,2.5c-0.1,0.9-0.2,1.7-0.2,2.3
		s0.4,1.1,1.3,1.4c1.1,0.4,1.9,0.6,2.5,0.6c0.6-0.1,1.3-0.5,2.1-1.4c0.6-0.8,0.8-1.5,0.5-2C567.5,52.7,567,52,566.5,51.1z
		 M565.3,68.1c-0.3-0.5-0.8-0.8-1.5-0.7c-0.4,0.1-0.5,0.2-0.6,0.4c0,0.2-0.1,0.5-0.1,0.9c0,0.3-0.1,0.6-0.1,0.8
		c0,0.2,0.2,0.4,0.5,0.5c0.3,0.2,0.6,0.2,0.7,0c0.2-0.2,0.3-0.3,0.6-0.6c0.2-0.3,0.4-0.5,0.5-0.7C565.6,68.7,565.5,68.5,565.3,68.1z
		 M566.4,62.6l-0.7-0.4l-0.7,0.6l0.6,0.6l0.6-0.1L566.4,62.6z M570,69.1c-0.3-0.2-0.5-0.2-0.7-0.1c-0.2,0.1-0.4,0.2-0.6,0.4
		c-0.2,0.2-0.4,0.4-0.5,0.6c-0.1,0.2-0.1,0.4,0,0.7c0.2,0.3,0.3,0.5,0.5,0.6c0.2,0.1,0.4,0.1,0.8,0c0.3-0.1,0.5-0.1,0.6-0.3
		c0.1-0.1,0.2-0.3,0.3-0.6c0-0.3,0.1-0.6,0.1-0.8C570.4,69.5,570.3,69.3,570,69.1z M570.3,49.1l-0.8-0.2l-0.3,0.7l0.6,0.3l0.4-0.2
		L570.3,49.1z M570.4,59.5l-0.7-0.2l-0.2,0.7l0.6,0.5l0.6-0.4L570.4,59.5z M570.8,55.5c-0.4,0-0.7,0.2-0.8,0.7
		c-0.2,0.5-0.1,0.9,0.2,1.1c0.4,0.3,0.8,0.3,1.2,0c0.4-0.3,0.6-0.7,0.4-1.1c0-0.3-0.2-0.5-0.3-0.6C571.3,55.5,571.1,55.5,570.8,55.5
		z M574.3,40.5c-0.2-0.4-0.5-0.6-0.8-0.6c-0.3,0.1-0.7,0.1-1.2,0.2c-0.4,0.1-0.8,0.1-1.1,0.2c-0.3,0.1-0.5,0.3-0.5,0.7
		c-0.1,0.5-0.1,0.9,0,1.2c0.1,0.2,0.4,0.5,0.8,0.7c0.5,0.3,1,0.5,1.3,0.5c0.3,0.1,0.7-0.1,1.1-0.5c0.4-0.4,0.7-0.8,0.7-1.1
		C574.6,41.5,574.5,41.1,574.3,40.5z M573.5,63.2l-0.8-0.5l-0.8,0.6l0.5,0.7l0.8,0.2L573.5,63.2z M574.8,49.5
		c-0.1-0.3-0.3-0.5-0.5-0.5c-0.2,0-0.5,0-0.8-0.1c-0.5-0.1-0.9,0.1-1,0.4c-0.1,0.2-0.1,0.4,0,0.6c0.1,0.1,0.2,0.3,0.5,0.5
		c0.2,0.2,0.4,0.3,0.5,0.4c0.1,0.1,0.3,0.1,0.6-0.1c0.3-0.2,0.5-0.4,0.7-0.5C574.8,50.1,574.8,49.8,574.8,49.5z M576.4,44.2
		c-0.2-0.2-0.4-0.4-0.6-0.6c-0.1-0.1-0.3-0.1-0.6,0c-0.3,0.1-0.4,0.2-0.3,0.4c0.1,0.2,0.1,0.4,0.2,0.7c0,0.4,0.2,0.6,0.5,0.7
		c0.3,0.1,0.5,0.1,0.7,0.2c0.2,0.1,0.3-0.1,0.5-0.3c0.2-0.3,0.2-0.5,0.1-0.7C576.8,44.6,576.6,44.4,576.4,44.2z M579.8,69.5
		c0-0.7-0.1-1.2-0.3-1.4c-0.2-0.3-0.6-0.5-1.3-0.7c-0.7-0.2-1.2-0.3-1.5-0.3c-0.4,0.1-0.7,0.4-1.2,1c-0.4,0.4-0.4,0.8-0.1,1.1
		c0.3,0.3,0.6,0.7,1,1.2c0.2,0.3,0.5,0.6,0.7,0.7s0.5,0.1,0.9-0.1c0.6-0.2,1.1-0.3,1.4-0.4C579.6,70.4,579.8,70.1,579.8,69.5z
		 M579.6,64.9c1.4,0,2.3-0.4,2.7-1.2c0.3-0.8,0.6-2.1,0.7-3.8c0-0.7,0.1-1.8,0.1-3.1s0-2.4-0.1-3.1c-0.1-1.6-0.3-2.9-0.7-3.7
		c-0.3-0.9-1.2-1.3-2.7-1.3c-1.4,0-2.3,0.4-2.6,1.3s-0.6,2.1-0.7,3.7c0,0.7-0.1,1.8-0.1,3.1s0,2.4,0.1,3.1c0.1,1.7,0.3,3,0.7,3.8
		C577.3,64.5,578.2,64.9,579.6,64.9z M578.6,42.2l-0.6-0.4l-0.6,0.5l0.2,0.7l0.6-0.3L578.6,42.2z M583.3,68.3
		c-0.4-0.2-0.7-0.4-1-0.5c-0.2-0.1-0.5,0-0.8,0.3c-0.3,0.3-0.4,0.6-0.2,0.8c0.2,0.2,0.3,0.5,0.5,0.9c0.1,0.3,0.3,0.5,0.4,0.7
		c0.1,0.2,0.3,0.2,0.6,0.2c0.5-0.1,0.9-0.1,1.2-0.2c0.3-0.1,0.5-0.3,0.5-0.8c0-0.4,0-0.7-0.3-0.8C584,68.7,583.7,68.5,583.3,68.3z
		 M584.9,72.4l-1-0.2l-0.4,1l0.8,0.4l0.7-0.2V72.4z M586,43.9c-0.2-0.3-0.3-0.5-0.5-0.6c-0.2-0.1-0.5-0.1-0.9,0
		c-0.3,0.1-0.5,0.2-0.5,0.3c0,0.2-0.1,0.4-0.1,0.7c0,0.3-0.1,0.6-0.2,0.8s0,0.4,0.3,0.6c0.4,0.2,0.7,0.3,1,0.3s0.5-0.2,0.8-0.4
		c0.3-0.3,0.4-0.6,0.4-0.8C586.4,44.6,586.2,44.3,586,43.9z M587.2,39.6c-0.1-0.3-0.3-0.5-0.6-0.4c-0.2,0.1-0.6,0.2-1,0.2
		c-0.3,0-0.5,0-0.7,0.1c-0.2,0.1-0.2,0.2-0.3,0.4c-0.2,0.4-0.3,0.7-0.3,1c-0.1,0.2,0.1,0.5,0.4,0.7c0.3,0.2,0.6,0.3,0.9,0.3
		c0.2-0.1,0.5-0.2,0.9-0.5c0.3-0.3,0.6-0.5,0.7-0.7C587.4,40.4,587.4,40.1,587.2,39.6z M594.3,47.5c-0.9-1.2-1.7-2-2.4-2.4
		c-0.7-0.4-1.8-0.4-3.2,0.1c-1.3,0.5-2,1.2-2.1,2c0,0.8,0,1.9,0,3.4c0,1,0.3,1.7,0.8,2s1.3,0.5,2.3,0.8c0.9,0.3,1.7,0.5,2.3,0.5
		c0.6,0,1.1-0.4,1.7-1.2c0.7-1.1,1.2-1.9,1.4-2.6C595.4,49.3,595.1,48.5,594.3,47.5z M591.1,68.9c-0.3-0.4-0.6-0.6-0.9-0.5
		c-0.3,0.1-0.7,0.2-1.2,0.4c-0.4,0.2-0.8,0.5-1,0.7s-0.4,0.5-0.3,1c0.1,0.7,0.3,1.3,0.4,1.7c0.1,0.4,0.5,0.7,1.3,0.8
		c0.7,0.1,1.1-0.1,1.3-0.5s0.4-0.9,0.7-1.6c0.2-0.4,0.4-0.8,0.4-1.1C591.7,69.5,591.5,69.2,591.1,68.9z M598.5,59.8
		c-0.4-1-0.9-1.5-1.6-1.4c-0.7,0.1-1.5,0.2-2.6,0.3c-0.9,0.1-1.5,0.3-1.9,0.5c-0.4,0.2-0.7,0.8-0.9,1.6c-0.2,0.9-0.2,1.6-0.1,2
		c0.2,0.4,0.6,0.9,1.4,1.4c1,0.6,1.8,1,2.3,1.3c0.6,0.3,1.3,0,2.2-0.7c0.9-0.9,1.5-1.6,1.6-2.3C599.1,61.9,599,60.9,598.5,59.8z"/>
</g>
</svg>
