<?xml version="1.0" encoding="utf-8"?>
<!-- Generator: Adobe Illustrator 23.0.2, SVG Export Plug-In . SVG Version: 6.00 Build 0)  -->
<svg version="1.1" id="Layer_1" xmlns="http://www.w3.org/2000/svg" xmlns:xlink="http://www.w3.org/1999/xlink" x="0px" y="0px"
	 viewBox="0 0 447.9 127.2" style="enable-background:new 0 0 447.9 127.2;" xml:space="preserve">
<style type="text/css">
	.st0{fill:#FFFFFF;}
</style>
<g>
	<path class="st0" d="M6.6,67.1c-0.6,0-1.1-0.2-1.5-0.6S4.5,65.6,4.5,65V28.9c0-0.6,0.2-1.1,0.6-1.5s0.9-0.6,1.5-0.6h13.9
		c0.6,0,1.1,0.2,1.5,0.6s0.6,0.9,0.6,1.5v36.2c0,0.6-0.2,1.1-0.6,1.5s-0.9,0.6-1.5,0.6C20.5,67.1,6.6,67.1,6.6,67.1z M6.9,22.5
		c-0.6,0-1.1-0.2-1.5-0.6S4.8,21,4.8,20.4V11c0-0.6,0.2-1.1,0.6-1.5s0.9-0.6,1.5-0.6H20c0.6,0,1.1,0.2,1.5,0.6
		c0.4,0.4,0.6,0.9,0.6,1.5v9.4c0,0.6-0.2,1.1-0.6,1.5s-0.9,0.6-1.5,0.6H6.9z M7.3,47.6l-0.7-0.5L6,47.9l0.6,0.6l0.7-0.2V47.6z
		 M7.9,51.5c-0.3-0.2-0.5-0.4-0.6-0.5c-0.2-0.1-0.4-0.1-0.7,0.1c-0.3,0.2-0.4,0.4-0.3,0.6c0.1,0.2,0.2,0.5,0.3,0.8s0.2,0.5,0.3,0.7
		s0.3,0.2,0.6,0.2c0.5,0,0.8,0,1-0.1S8.9,53,9,52.6s0-0.6-0.2-0.7C8.5,51.9,8.2,51.7,7.9,51.5z M7,55.2l-0.5,0.6v0.6l0.7,0.2
		l0.5-0.8L7,55.2z M9.6,40.6c-0.1-0.7-0.4-1.1-1-1.2c-0.4-0.1-0.6,0-0.7,0.1s-0.3,0.3-0.4,0.7c-0.2,0.3-0.2,0.5-0.1,0.6
		s0.3,0.3,0.5,0.5s0.3,0.3,0.4,0.4c0.1,0.1,0.3,0.1,0.5,0c0.3-0.2,0.5-0.3,0.7-0.4C9.6,41.2,9.6,41,9.6,40.6z M9,16.7l-1,0.2v0.7
		l0.5,0.5l0.7-0.5L9,16.7z M9.5,33.6L9,33.4l-0.7,0.4l0.5,0.7l0.8-0.2L9.5,33.6z M13.6,58.6c-0.3-0.5-0.6-0.9-0.8-1.1
		c-0.3-0.2-0.7-0.2-1.3-0.1c-0.6,0.1-0.9,0.3-1,0.6s-0.2,0.8-0.2,1.4c-0.1,0.5,0,0.9,0.2,1.1c0.2,0.2,0.5,0.4,1,0.5
		c0.5,0.3,0.9,0.4,1.2,0.5s0.7-0.1,1.1-0.5c0.4-0.5,0.6-0.9,0.5-1.2C14.2,59.5,14,59.1,13.6,58.6z M10.8,13.6L10.2,14l0.2,0.8l1,0.2
		l0.3-1L10.8,13.6z M11.2,54.9l-0.8-0.1v0.8l0.5,0.6l0.5-0.6L11.2,54.9z M12.9,50.3c-0.2-0.5-0.5-0.7-0.8-0.7
		c-0.6,0.1-0.9,0.3-1,0.8c-0.1,0.4,0.2,0.8,0.6,1c0.4,0.3,0.8,0.3,1.2,0C13.1,51.1,13.1,50.7,12.9,50.3z M12.5,31l-0.8-0.2l-0.3,0.8
		l0.8,0.7l0.8-0.6L12.5,31z M14.6,45.5c-0.2-0.3-0.4-0.4-0.6-0.3c-0.2,0.1-0.5,0.2-0.8,0.3c-0.4,0.1-0.7,0.2-1,0.2
		c-0.2,0.1-0.3,0.3-0.3,0.7c0,0.5,0.1,0.8,0.2,1c0.2,0.2,0.5,0.3,0.9,0.5c0.4,0.1,0.6,0.1,0.7-0.1s0.3-0.4,0.6-0.7
		c0.2-0.3,0.4-0.6,0.5-0.7C14.9,46.1,14.9,45.9,14.6,45.5z M16.4,35.3c-0.5-0.5-1-0.7-1.4-0.5s-0.9,0.4-1.5,0.6
		c-0.6,0.3-1,0.5-1.2,0.7c-0.3,0.2-0.4,0.7-0.3,1.3c0.1,0.7,0.3,1.2,0.5,1.5s0.7,0.5,1.4,0.6c0.7,0.2,1.3,0.2,1.6,0.1
		c0.4-0.1,0.7-0.5,1.1-1.1c0.4-0.7,0.6-1.2,0.6-1.7C17.2,36.4,16.9,35.9,16.4,35.3z M13.8,15.7l-0.5-0.2l-0.8,0.3l0.5,0.8l0.7-0.4
		L13.8,15.7z M19.4,52.5c-0.2-0.6-0.4-1-0.6-1.2c-0.3-0.2-0.7-0.3-1.3-0.4c-0.6-0.1-1,0-1.2,0.3s-0.4,0.6-0.6,1.1
		c-0.3,0.6-0.4,1.1-0.4,1.4c0,0.3,0.2,0.7,0.7,1c0.5,0.5,1,0.7,1.3,0.7c0.4,0,0.8-0.2,1.4-0.5c0.6-0.4,0.9-0.7,0.9-1
		C19.6,53.6,19.5,53.2,19.4,52.5z M16.6,42.1L16,41.7l-0.6,0.2l0.1,0.8l0.8,0.2L16.6,42.1z M17.1,17.1c-0.3,0-0.5,0-0.7,0
		s-0.3,0.1-0.4,0.3c-0.1,0.3-0.1,0.5,0,0.6s0.3,0.3,0.5,0.4c0.2,0.2,0.4,0.4,0.5,0.5c0.2,0.1,0.4,0.1,0.6,0c0.5-0.3,0.7-0.7,0.5-1.3
		c-0.1-0.3-0.2-0.5-0.4-0.5C17.6,17.1,17.4,17.1,17.1,17.1z M17.3,60.1c-0.4-0.1-0.6,0-0.7,0.2s-0.3,0.5-0.4,0.8
		c-0.2,0.3-0.2,0.5-0.1,0.6c0.1,0.2,0.2,0.3,0.4,0.5c0.3,0.2,0.5,0.4,0.6,0.5c0.1,0.2,0.3,0.2,0.6,0c0.6-0.3,0.8-0.7,0.7-1.3
		c-0.1-0.4-0.1-0.7-0.2-0.9C18,60.3,17.8,60.2,17.3,60.1z M17.8,57.9l-0.5-0.8l-0.7,0.7l0.2,0.8l0.8-0.1L17.8,57.9z M19.7,32.9
		c-0.1-0.7-0.4-1.1-1-1.2c-0.3-0.1-0.5,0-0.6,0.2s-0.2,0.4-0.4,0.7c-0.3,0.5-0.3,0.8,0,1.2c0.4,0.4,0.8,0.5,1.2,0.3
		c0.3-0.2,0.5-0.3,0.7-0.4C19.7,33.5,19.7,33.3,19.7,32.9z M20.8,46.6c-0.2-0.4-0.4-0.7-0.7-0.7c-0.2-0.1-0.6-0.1-1,0
		s-0.7,0.2-0.8,0.3c-0.2,0.2-0.3,0.4-0.4,0.8c-0.1,0.4,0,0.7,0.1,0.9s0.4,0.4,0.7,0.6c0.6,0.3,1.1,0.2,1.6-0.2
		c0.3-0.3,0.5-0.6,0.6-0.8C21,47.3,21,47,20.8,46.6z M20.2,39.2C20,39,19.8,39,19.7,39.1c-0.1,0.1-0.2,0.2-0.4,0.4
		c-0.2,0.2-0.4,0.3-0.5,0.4c-0.1,0.1-0.1,0.3,0,0.5c0.3,0.5,0.6,0.8,1,0.7s0.7-0.4,0.8-0.9C20.7,39.7,20.6,39.4,20.2,39.2z
		 M20.7,57.7l-0.5-0.3l-0.7,0.4l0.5,0.5l0.7,0.2V57.7z"/>
	<path class="st0" d="M54.5,67.1c-3.7,0-7-0.5-10-1.5s-5.2-2.7-6.9-5.2c-1.7-2.4-2.5-5.8-2.5-10V40.3H29c-0.6,0-1.1-0.2-1.5-0.6
		c-0.4-0.4-0.6-0.9-0.6-1.5v-9.4c0-0.6,0.2-1.1,0.6-1.5s0.9-0.6,1.5-0.6h6.1V14.1c0-0.6,0.2-1.1,0.6-1.5c0.4-0.4,0.9-0.6,1.5-0.6
		h13.6c0.6,0,1.1,0.2,1.5,0.6c0.4,0.4,0.6,0.9,0.6,1.5v12.7h9.8c0.6,0,1.1,0.2,1.5,0.6s0.6,0.9,0.6,1.5v9.3c0,0.6-0.2,1.1-0.6,1.5
		s-0.9,0.6-1.5,0.6h-9.8v8.5c0,1.2,0.3,2.1,0.8,2.8s1.4,1,2.5,1h7.1c0.6,0,1.1,0.2,1.5,0.6c0.4,0.4,0.6,0.9,0.6,1.5v10.2
		c0,0.6-0.2,1.1-0.6,1.5S63.9,67,63.3,67C63.3,67.1,54.5,67.1,54.5,67.1z M33.7,30.9c-0.1-0.4-0.2-0.6-0.3-0.7
		c-0.2-0.1-0.5-0.1-0.8-0.2c-0.4,0-0.6,0-0.8,0.1s-0.3,0.3-0.5,0.6c-0.2,0.4-0.2,0.7-0.2,0.9s0.2,0.5,0.5,0.7
		c0.4,0.3,0.7,0.5,0.9,0.5c0.2,0.1,0.6-0.1,1-0.3c0.4-0.3,0.6-0.5,0.6-0.7C33.9,31.6,33.9,31.3,33.7,30.9z M33,37l-0.8-0.4L32,37.5
		l0.4,0.5l0.8-0.2L33,37z M36.2,33.8c-0.2-0.1-0.4-0.1-0.5-0.1c-0.2,0-0.3,0.1-0.5,0.3c-0.3,0.5-0.3,0.9,0,1.2
		c0.2,0.2,0.4,0.3,0.5,0.3s0.4-0.1,0.6-0.2c0.3-0.1,0.5-0.4,0.5-0.8S36.6,33.9,36.2,33.8z M43.9,25.8c-1.2-0.6-2.2-1.1-3-1.4
		s-1.6,0-2.6,1s-1.3,1.8-1,2.6c0.3,0.8,0.8,1.8,1.5,3c0.6,1.2,1.2,2,1.6,2.5s1.3,0.6,2.6,0.4c1.3-0.2,2.1-0.6,2.5-1.2
		c0.4-0.6,0.6-1.6,0.8-2.9c0.2-1.2,0.1-2-0.3-2.5C45.7,26.8,45,26.3,43.9,25.8z M40.2,43.7c-0.1-0.4-0.2-0.7-0.4-0.8
		c-0.2-0.2-0.4-0.2-0.8-0.2c-0.7,0-1.2,0.3-1.4,1c-0.2,0.4-0.2,0.7-0.1,0.9c0.1,0.2,0.3,0.4,0.6,0.7c0.6,0.4,1.1,0.4,1.7,0
		C40.2,44.8,40.4,44.3,40.2,43.7z M38.7,53.8L38,53.9l-0.4,0.7l1.1-0.2C38.7,54.5,38.7,53.8,38.7,53.8z M42.6,39.3
		c-0.1-0.4-0.2-0.7-0.4-0.8s-0.5-0.2-0.8-0.2c-0.5-0.1-0.9-0.1-1.2-0.2c-0.3-0.1-0.6,0.1-0.8,0.5c-0.3,0.5-0.3,0.8-0.1,1.1
		s0.5,0.6,0.8,1c0.3,0.3,0.6,0.4,0.8,0.3c0.2-0.1,0.5-0.2,0.9-0.4s0.6-0.3,0.8-0.5C42.6,40,42.7,39.7,42.6,39.3z M41.3,21
		c-0.1-0.4-0.4-0.7-0.8-0.7c-0.3-0.1-0.5-0.1-0.6,0c-0.2,0-0.3,0.2-0.5,0.4c-0.2,0.5-0.1,0.9,0.2,1.2c0.2,0.2,0.4,0.3,0.5,0.2
		c0.2-0.1,0.4-0.2,0.6-0.3C41.1,21.6,41.3,21.3,41.3,21z M42.7,17.1l-0.8-0.7L41,16.6l0.3,0.8l0.8,0.5L42.7,17.1z M48.7,50
		c-1.2-0.6-2.1-0.6-2.7-0.2c-0.6,0.4-1.3,1.2-2.2,2.2c-0.8,0.9-1.4,1.7-1.6,2.3c-0.3,0.6-0.1,1.4,0.5,2.5c0.7,1.3,1.4,2.2,2,2.7
		s1.6,0.6,3,0.3s2.3-0.7,2.6-1.5c0.3-0.7,0.5-1.8,0.7-3.3c0.2-1.4,0.1-2.4-0.1-3.1C50.8,51.2,50,50.5,48.7,50z M47.8,14.3
		C47.3,14,47,13.9,46.7,14s-0.6,0.3-1,0.6c-0.4,0.4-0.7,0.7-0.8,0.9c-0.1,0.3-0.1,0.7,0.1,1.2c0.2,0.5,0.4,0.8,0.7,0.9
		s0.7,0.1,1.2,0.1c0.5-0.1,0.9-0.2,1-0.3c0.2-0.2,0.3-0.5,0.4-1c0.2-0.5,0.2-0.9,0.2-1.2C48.5,14.8,48.2,14.5,47.8,14.3z M47.5,44.1
		c-0.3-0.2-0.6-0.3-0.8-0.2s-0.5,0.2-0.8,0.4s-0.5,0.4-0.6,0.6s-0.1,0.4,0,0.7c0.2,0.5,0.3,0.8,0.4,1.1c0.1,0.3,0.4,0.4,0.8,0.4
		c0.5,0,0.8-0.1,1-0.3c0.1-0.2,0.3-0.6,0.4-1c0.2-0.4,0.2-0.7,0.1-0.9C48.1,44.6,47.9,44.3,47.5,44.1z M47.1,37.6l-0.9-0.3l-0.5,0.6
		l0.5,0.5l0.7-0.1L47.1,37.6z M47.6,19.6L47.4,19l-0.5,0.4l-0.2,0.7l0.8,0.1L47.6,19.6z M52.9,35.1c-0.1-0.6-0.4-0.9-1-1.1
		c-0.5-0.1-0.8-0.2-1.1-0.3s-0.6,0-0.8,0.5c-0.3,0.5-0.4,0.8-0.4,1.2c0.1,0.3,0.3,0.7,0.6,1.1c0.4,0.4,0.7,0.6,1,0.6
		s0.7-0.1,1.2-0.3c0.4-0.2,0.6-0.4,0.6-0.6C53,35.8,52.9,35.5,52.9,35.1z M52,62c-0.1-0.3-0.2-0.5-0.3-0.5s-0.4-0.1-0.8-0.2
		c-0.4-0.1-0.7,0.1-0.9,0.5c-0.3,0.5-0.3,0.8,0,1.2c0.2,0.2,0.3,0.3,0.5,0.2c0.2-0.1,0.4-0.2,0.6-0.3c0.3-0.1,0.5-0.2,0.7-0.2
		C51.9,62.5,52,62.3,52,62z M58.3,58c-0.2-0.6-0.4-0.9-0.7-1.1c-0.2-0.2-0.6-0.2-1.2-0.2s-0.9,0.2-1.1,0.5c-0.2,0.3-0.3,0.7-0.4,1.2
		c-0.2,0.6-0.3,1.1-0.4,1.5c-0.1,0.4,0.1,0.7,0.7,1c0.6,0.4,1,0.5,1.4,0.3c0.4-0.2,0.8-0.5,1.3-0.9c0.4-0.4,0.6-0.7,0.6-1
		S58.5,58.6,58.3,58z M57.7,34.8L56.9,35l0.2,0.8l0.8,0.2l0.2-0.7L57.7,34.8z M59,64l-0.8,0.2l0.2,0.8l0.7-0.1l0.5-0.5L59,64z
		 M61.1,56.1l-0.5-0.5L60,56.1l0.1,0.8l0.8-0.1L61.1,56.1z"/>
	<path class="st0" d="M71.2,35.5c-0.5,0-0.9-0.2-1.2-0.5c-0.4-0.3-0.5-0.8-0.5-1.4L72.4,15c0.1-0.7,0.4-1.4,1-2.1s1.3-1,2.4-1h12.4
		c0.5,0,0.9,0.2,1.2,0.5c0.3,0.3,0.5,0.7,0.5,1.2c0,0.2,0,0.4-0.1,0.5l-7.4,18.8c-0.2,0.5-0.6,1.1-1,1.6c-0.5,0.6-1.3,0.8-2.3,0.8
		L71.2,35.5L71.2,35.5z M76.3,27.8c-0.3-0.5-0.5-0.9-0.7-1.1s-0.6-0.3-1.2-0.2c-0.7,0.2-1.2,0.3-1.6,0.5s-0.6,0.6-0.7,1.2
		C72,29,72,29.6,72.2,30c0.2,0.4,0.6,0.7,1.4,1c0.7,0.4,1.3,0.5,1.7,0.4s0.9-0.4,1.4-1c0.5-0.5,0.6-0.9,0.4-1.2
		C76.9,29,76.6,28.5,76.3,27.8z M75.5,17.8l-0.7-0.2l-0.4,0.7l0.6,0.6l0.6-0.5L75.5,17.8z M78,19.7c-0.3-0.2-0.5-0.3-0.7-0.4
		s-0.4,0-0.7,0.1c-0.3,0.2-0.5,0.4-0.5,0.6s0,0.5,0.1,0.8c0.1,0.4,0.2,0.6,0.3,0.8c0.1,0.2,0.3,0.3,0.7,0.3c0.4,0.1,0.6,0,0.6-0.3
		c0.1-0.2,0.2-0.5,0.3-0.8c0.1-0.3,0.2-0.5,0.2-0.6S78.2,19.9,78,19.7z M79.4,14.6l-0.8,0.6v0.9l0.8-0.1l0.5-0.5L79.4,14.6z
		 M82,23.5c-0.2-0.4-0.4-0.7-0.6-0.8c-0.2-0.1-0.5-0.1-0.9-0.1c-0.4,0.1-0.6,0.2-0.7,0.4c0,0.2-0.1,0.5-0.2,0.9s-0.1,0.7-0.2,1
		c-0.1,0.2,0,0.5,0.4,0.7c0.5,0.3,0.8,0.4,1.1,0.4s0.6-0.2,1-0.5c0.4-0.4,0.6-0.7,0.5-1C82.3,24.3,82.2,23.9,82,23.5z M84,19.2
		l-0.8-0.3l-0.5,0.5l0.2,0.8l0.9-0.2L84,19.2z M84.8,15l-0.5-0.1l-0.2,0.5l0.3,0.5l0.5-0.5L84.8,15z"/>
	<path class="st0" d="M110.4,67.9c-3.7,0-6.9-0.4-9.5-1.1s-4.7-1.7-6.4-2.9c-1.6-1.2-2.8-2.4-3.6-3.7c-0.8-1.3-1.2-2.4-1.2-3.5
		c-0.1-0.6,0.1-1.1,0.5-1.5s0.8-0.6,1.4-0.6h13.8c0.7,0.1,1.3,0.3,1.8,0.7s1.1,0.8,1.7,1.1c0.6,0.4,1.3,0.5,2.1,0.5
		c0.4,0,0.8-0.1,1.2-0.3c0.4-0.2,0.6-0.5,0.6-0.8c0-0.5-0.1-0.9-0.4-1.2c-0.3-0.4-1-0.7-2.1-1.1c-1.1-0.4-3-0.8-5.5-1.3
		c-2.4-0.5-4.7-1.2-6.8-2.2c-2.2-1-3.9-2.3-5.3-4.1s-2.1-4-2.1-6.7c0-2.2,0.7-4.3,2.3-6.4c1.5-2,3.7-3.7,6.6-5s6.5-1.9,10.8-1.9
		s7.9,0.6,10.9,1.9c3,1.2,5.3,2.7,6.9,4.4s2.4,3.3,2.5,4.8c0.1,0.6-0.1,1.1-0.5,1.5s-0.8,0.6-1.2,0.6h-13c-0.7,0-1.4-0.2-1.9-0.6
		c-0.6-0.4-1.1-0.8-1.7-1.2s-1.2-0.6-2-0.6c-0.4,0-0.7,0.1-1,0.3s-0.5,0.5-0.5,0.9s0.2,0.8,0.5,1.2s1.1,0.8,2.3,1.1
		c1.2,0.3,3.1,0.7,5.8,1.1c3.7,0.5,6.7,1.5,8.9,2.9c2.2,1.4,3.8,3,4.8,4.8s1.4,3.6,1.4,5.4c0,4.1-1.9,7.4-5.6,9.8
		C122.8,66.7,117.4,67.9,110.4,67.9z M97.4,37.5c-0.2-0.2-0.4-0.4-0.5-0.5c-0.1-0.2-0.3-0.2-0.5,0c-0.5,0.3-0.7,0.7-0.6,1.2
		s0.4,0.8,1,0.9c0.5,0.1,0.8-0.2,1.1-0.6c0.1-0.3,0.1-0.4,0-0.5C97.7,37.8,97.6,37.7,97.4,37.5z M97.3,43.9l-0.4-0.5l-0.5,0.4
		l-0.1,0.7h0.8L97.3,43.9z M99.6,60.9c-0.4-0.1-0.7-0.1-0.9,0c-0.2,0-0.4,0.2-0.6,0.6s-0.2,0.6,0,0.8c0.2,0.2,0.4,0.4,0.6,0.7
		c0.4,0.3,0.6,0.6,0.8,0.8c0.2,0.2,0.4,0.2,0.8,0s0.6-0.5,0.5-0.7c-0.1-0.3-0.1-0.7-0.2-1.1C100.6,61.4,100.3,61,99.6,60.9z
		 M106.1,32.1c-0.7-0.5-1.3-0.6-1.8-0.4c-0.4,0.2-1,0.6-1.7,1.1c-0.7,0.6-1.1,1-1.3,1.4c-0.2,0.4-0.1,1,0.2,1.8
		c0.3,0.7,0.6,1,1.1,0.9s1.1-0.1,1.9-0.2c0.8,0,1.4-0.1,1.9,0s0.8-0.3,1-1.1c0.2-0.9,0.2-1.6,0.1-2.1
		C107.5,33.1,107,32.6,106.1,32.1z M106.4,44.6c-0.3-0.6-0.6-1.1-0.8-1.5c-0.2-0.4-0.7-0.5-1.3-0.4c-0.8,0.1-1.3,0.3-1.5,0.7
		c-0.2,0.3-0.4,0.9-0.6,1.6c-0.1,0.7,0,1.1,0.3,1.4c0.3,0.2,0.7,0.5,1.3,0.8c0.6,0.3,1,0.5,1.4,0.6s0.8-0.1,1.2-0.6
		c0.4-0.4,0.6-0.8,0.5-1.1C106.8,45.7,106.6,45.2,106.4,44.6z M103,29.9l-0.5-0.2l-0.2,0.5l0.2,0.5l0.7-0.2L103,29.9z M107.1,57.6
		c-0.4-0.3-0.7-0.5-0.9-0.7c-0.3-0.1-0.6-0.1-1,0.2s-0.6,0.5-0.4,0.8c0.1,0.3,0.2,0.6,0.3,1.1c0.2,0.5,0.2,0.8,0.2,1.1
		s0.2,0.5,0.7,0.5c0.6,0.1,1,0,1.2-0.2c0.3-0.2,0.5-0.5,0.7-1s0.2-0.8,0-1C107.8,58.2,107.5,57.9,107.1,57.6z M108.2,28.5l-0.8,0.4
		l-0.1,0.7l0.8,0.7l0.5-0.9L108.2,28.5z M114.5,51.8c-0.1-0.4-0.3-0.7-0.8-0.8c-0.3-0.1-0.6-0.1-0.7-0.1s-0.3,0.1-0.5,0.4
		c-0.3,0.4-0.2,0.8,0.2,1.3c0.3,0.4,0.7,0.4,1.2,0.2C114.3,52.6,114.5,52.2,114.5,51.8z M115.3,29.7c-0.4-0.1-0.7-0.1-0.8,0.2
		c-0.1,0.2-0.3,0.5-0.5,0.8c-0.2,0.4-0.4,0.7-0.5,0.8c-0.2,0.2-0.1,0.5,0.2,0.8c0.3,0.4,0.6,0.5,0.8,0.4c0.2-0.1,0.6-0.2,1-0.4
		s0.7-0.3,0.9-0.4c0.2-0.1,0.3-0.4,0.3-0.8C116.5,30.3,116.1,29.9,115.3,29.7z M121.7,50.4c-1.4-0.4-2.5-0.5-3.2-0.5
		c-0.8,0.1-1.5,0.7-2.4,1.9c-0.8,1.2-1.1,2.2-0.9,2.9c0.2,0.8,0.7,1.7,1.6,2.9c0.7,0.9,1.4,1.2,2.1,0.9s1.5-0.7,2.7-1.1
		c1.1-0.4,2.1-0.7,2.8-0.9c0.7-0.2,1.1-0.9,1-2.1c-0.1-1.4-0.3-2.3-0.9-2.8C124,51.3,123,50.8,121.7,50.4z M116.6,44.1
		c-0.3-0.1-0.5,0-0.5,0.2s-0.1,0.4-0.3,0.7c-0.2,0.3-0.1,0.5,0.1,0.8c0.3,0.3,0.6,0.3,0.8,0.2c0.5-0.2,0.7-0.5,0.6-0.8
		s-0.1-0.5-0.2-0.7C117,44.3,116.9,44.2,116.6,44.1z M116.9,63.3l-0.6-0.1v0.6l0.5,0.6l0.3-0.7L116.9,63.3z M118.9,61.4l-0.8-0.4
		l-0.5,0.5l0.3,0.6h0.7L118.9,61.4z M119.8,35.4H119l-0.2,0.8l0.8,0.2l0.4-0.5L119.8,35.4z M122.4,30.8c-0.5-0.1-0.8-0.1-1,0
		s-0.4,0.4-0.6,0.8c-0.4,0.6-0.3,1.2,0.2,1.7c0.3,0.3,0.5,0.5,0.7,0.4s0.5-0.1,0.8-0.3c0.6-0.3,0.8-0.7,0.8-1.2
		c-0.1-0.5-0.1-0.8-0.2-1.1C123.1,31,122.9,30.9,122.4,30.8z M125.6,36.1l-0.8,0.5l0.2,0.9l0.8-0.2l0.2-0.6L125.6,36.1z"/>
	<path class="st0" d="M175.3,67.1c-3.7,0-7-0.5-10-1.5s-5.2-2.7-6.9-5.2c-1.7-2.4-2.5-5.8-2.5-10V40.3h-6.1c-0.6,0-1.1-0.2-1.5-0.6
		c-0.4-0.4-0.6-0.9-0.6-1.5v-9.4c0-0.6,0.2-1.1,0.6-1.5c0.4-0.4,0.9-0.6,1.5-0.6h6.1V14.1c0-0.6,0.2-1.1,0.6-1.5
		c0.4-0.4,0.9-0.6,1.5-0.6h13.6c0.6,0,1.1,0.2,1.5,0.6c0.4,0.4,0.6,0.9,0.6,1.5v12.7h9.8c0.6,0,1.1,0.2,1.5,0.6s0.6,0.9,0.6,1.5v9.3
		c0,0.6-0.2,1.1-0.6,1.5c-0.4,0.4-0.9,0.6-1.5,0.6h-9.8v8.5c0,1.2,0.3,2.1,0.8,2.8s1.4,1,2.5,1h7.1c0.6,0,1.1,0.2,1.5,0.6
		c0.4,0.4,0.6,0.9,0.6,1.5v10.2c0,0.6-0.2,1.1-0.6,1.5c-0.4,0.4-0.9,0.6-1.5,0.6C184.1,67.1,175.3,67.1,175.3,67.1z M154.5,30.9
		c-0.1-0.4-0.2-0.6-0.3-0.7s-0.5-0.1-0.8-0.2c-0.4,0-0.6,0-0.8,0.1s-0.3,0.3-0.5,0.6c-0.2,0.4-0.2,0.7-0.2,0.9s0.2,0.5,0.5,0.7
		c0.4,0.3,0.7,0.5,0.9,0.5c0.2,0.1,0.6-0.1,1-0.3c0.4-0.3,0.6-0.5,0.6-0.7C154.7,31.6,154.7,31.3,154.5,30.9z M153.8,37l-0.8-0.4
		l-0.2,0.8l0.4,0.5l0.8-0.2L153.8,37z M157,33.8c-0.2-0.1-0.4-0.1-0.5-0.1c-0.2,0-0.3,0.1-0.5,0.3c-0.3,0.5-0.3,0.9,0,1.2
		c0.2,0.2,0.4,0.3,0.5,0.3c0.2,0,0.4-0.1,0.6-0.2c0.3-0.1,0.5-0.4,0.5-0.8S157.4,33.9,157,33.8z M164.7,25.8c-1.2-0.6-2.2-1.1-3-1.4
		s-1.6,0-2.6,1s-1.3,1.8-1,2.6c0.3,0.8,0.8,1.8,1.5,3c0.6,1.2,1.2,2,1.6,2.5c0.5,0.5,1.3,0.6,2.6,0.4c1.3-0.2,2.1-0.6,2.5-1.2
		c0.4-0.6,0.6-1.6,0.8-2.9c0.2-1.2,0.1-2-0.3-2.5C166.5,26.8,165.8,26.3,164.7,25.8z M160.9,43.7c-0.1-0.4-0.2-0.7-0.4-0.8
		c-0.2-0.2-0.4-0.2-0.8-0.2c-0.7,0-1.2,0.3-1.4,1c-0.2,0.4-0.2,0.7-0.1,0.9c0.1,0.2,0.3,0.4,0.6,0.7c0.6,0.4,1.1,0.4,1.7,0
		C161,44.8,161.2,44.3,160.9,43.7z M159.5,53.8l-0.7,0.1l-0.4,0.7l1.1-0.2L159.5,53.8L159.5,53.8z M163.4,39.3
		c-0.1-0.4-0.2-0.7-0.4-0.8s-0.5-0.2-0.8-0.2c-0.5-0.1-0.9-0.1-1.2-0.2c-0.3-0.1-0.6,0.1-0.8,0.5c-0.3,0.5-0.3,0.8-0.1,1.1
		s0.5,0.6,0.8,1c0.3,0.3,0.6,0.4,0.8,0.3c0.2-0.1,0.5-0.2,0.9-0.4s0.6-0.3,0.8-0.5C163.4,40,163.5,39.7,163.4,39.3z M162,21
		c-0.1-0.4-0.4-0.7-0.8-0.7c-0.3-0.1-0.5-0.1-0.6,0c-0.2,0-0.3,0.2-0.5,0.4c-0.2,0.5-0.1,0.9,0.2,1.2c0.2,0.2,0.4,0.3,0.5,0.2
		s0.4-0.2,0.6-0.3C161.9,21.6,162.1,21.3,162,21z M163.5,17.1l-0.8-0.7l-0.9,0.2l0.3,0.8l0.8,0.5L163.5,17.1z M169.5,50
		c-1.2-0.6-2.1-0.6-2.7-0.2c-0.6,0.4-1.3,1.2-2.2,2.2c-0.8,0.9-1.4,1.7-1.6,2.3c-0.3,0.6-0.1,1.4,0.5,2.5c0.7,1.3,1.4,2.2,2,2.7
		s1.6,0.6,3,0.3s2.3-0.7,2.6-1.5c0.3-0.7,0.5-1.8,0.7-3.3c0.2-1.4,0.1-2.4-0.1-3.1C171.6,51.2,170.8,50.5,169.5,50z M168.6,14.3
		c-0.5-0.3-0.8-0.4-1.1-0.3s-0.6,0.3-1,0.6c-0.4,0.4-0.7,0.7-0.8,0.9c-0.1,0.3-0.1,0.7,0.1,1.2c0.2,0.5,0.4,0.8,0.7,0.9
		s0.7,0.1,1.2,0.1c0.5-0.1,0.9-0.2,1-0.3c0.2-0.2,0.3-0.5,0.4-1c0.2-0.5,0.2-0.9,0.2-1.2C169.3,14.8,169,14.5,168.6,14.3z
		 M168.3,44.1c-0.3-0.2-0.6-0.3-0.8-0.2s-0.5,0.2-0.8,0.4s-0.5,0.4-0.6,0.6s-0.1,0.4,0,0.7c0.2,0.5,0.3,0.8,0.4,1.1
		c0.1,0.3,0.4,0.4,0.8,0.4c0.5,0,0.8-0.1,1-0.3c0.1-0.2,0.3-0.6,0.4-1c0.2-0.4,0.2-0.7,0.1-0.9C168.8,44.6,168.6,44.3,168.3,44.1z
		 M167.9,37.6l-0.9-0.3l-0.5,0.6l0.5,0.5l0.7-0.1L167.9,37.6z M168.4,19.6l-0.2-0.6l-0.5,0.4l-0.2,0.7l0.8,0.1L168.4,19.6z
		 M173.7,35.1c-0.1-0.6-0.4-0.9-1-1.1c-0.5-0.1-0.8-0.2-1.1-0.3s-0.6,0-0.8,0.5c-0.3,0.5-0.4,0.8-0.4,1.2c0.1,0.3,0.3,0.7,0.6,1.1
		c0.4,0.4,0.7,0.6,1,0.6s0.7-0.1,1.2-0.3c0.4-0.2,0.6-0.4,0.6-0.6C173.7,35.8,173.7,35.5,173.7,35.1z M172.8,62
		c-0.1-0.3-0.2-0.5-0.3-0.5c-0.2-0.1-0.4-0.1-0.8-0.2c-0.4-0.1-0.7,0.1-0.9,0.5c-0.3,0.5-0.3,0.8,0,1.2c0.2,0.2,0.3,0.3,0.5,0.2
		c0.2-0.1,0.4-0.2,0.6-0.3c0.3-0.1,0.5-0.2,0.7-0.2C172.7,62.5,172.8,62.3,172.8,62z M179.1,58c-0.2-0.6-0.4-0.9-0.7-1.1
		c-0.2-0.2-0.6-0.2-1.2-0.2c-0.6,0.1-0.9,0.2-1.1,0.5c-0.2,0.3-0.3,0.7-0.4,1.2c-0.2,0.6-0.3,1.1-0.4,1.5c-0.1,0.4,0.1,0.7,0.7,1
		c0.6,0.4,1,0.5,1.4,0.3c0.4-0.2,0.8-0.5,1.3-0.9c0.4-0.4,0.6-0.7,0.6-1S179.3,58.6,179.1,58z M178.5,34.8l-0.8,0.2l0.2,0.8l0.8,0.2
		l0.2-0.7L178.5,34.8z M179.8,64l-0.8,0.2l0.2,0.8l0.7-0.1l0.5-0.5L179.8,64z M181.9,56.1l-0.5-0.5l-0.5,0.5l0.1,0.8l0.8-0.1
		L181.9,56.1z"/>
	<path class="st0" d="M193.7,67.1c-0.6,0-1.1-0.2-1.5-0.6s-0.6-0.9-0.6-1.5V28.9c0-0.6,0.2-1.1,0.6-1.5c0.4-0.4,0.9-0.6,1.5-0.6
		h13.9c0.6,0,1.1,0.2,1.5,0.6s0.6,0.9,0.6,1.5v36.2c0,0.6-0.2,1.1-0.6,1.5c-0.4,0.4-0.9,0.6-1.5,0.6
		C207.6,67.1,193.7,67.1,193.7,67.1z M194.1,22.5c-0.6,0-1.1-0.2-1.5-0.6S192,21,192,20.4V11c0-0.6,0.2-1.1,0.6-1.5
		c0.4-0.4,0.9-0.6,1.5-0.6h13.1c0.6,0,1.1,0.2,1.5,0.6c0.4,0.4,0.6,0.9,0.6,1.5v9.4c0,0.6-0.2,1.1-0.6,1.5c-0.4,0.4-0.9,0.6-1.5,0.6
		H194.1z M194.5,47.6l-0.7-0.5l-0.6,0.8l0.6,0.6l0.7-0.2V47.6z M195,51.5c-0.3-0.2-0.5-0.4-0.6-0.5c-0.2-0.1-0.4-0.1-0.7,0.1
		c-0.3,0.2-0.4,0.4-0.3,0.6c0.1,0.2,0.2,0.5,0.3,0.8s0.2,0.5,0.3,0.7s0.3,0.2,0.6,0.2c0.5,0,0.8,0,1-0.1s0.4-0.3,0.5-0.7
		s0-0.6-0.2-0.7C195.7,51.9,195.4,51.7,195,51.5z M194.2,55.2l-0.5,0.6v0.6l0.7,0.2l0.5-0.8L194.2,55.2z M196.7,40.6
		c-0.1-0.7-0.4-1.1-1-1.2c-0.4-0.1-0.6,0-0.7,0.1c-0.1,0.1-0.3,0.3-0.4,0.7c-0.2,0.3-0.2,0.5-0.1,0.6c0.1,0.1,0.3,0.3,0.5,0.5
		s0.3,0.3,0.4,0.4c0.1,0.1,0.3,0.1,0.5,0c0.3-0.2,0.5-0.3,0.7-0.4C196.7,41.2,196.8,41,196.7,40.6z M196.1,16.7l-0.9,0.2v0.7
		l0.5,0.5l0.7-0.5L196.1,16.7z M196.7,33.6l-0.5-0.2l-0.7,0.4l0.5,0.7l0.8-0.2L196.7,33.6z M200.8,58.6c-0.3-0.5-0.6-0.9-0.8-1.1
		c-0.3-0.2-0.7-0.2-1.3-0.1c-0.6,0.1-0.9,0.3-1,0.6s-0.2,0.8-0.2,1.4c-0.1,0.5,0,0.9,0.2,1.1c0.2,0.2,0.5,0.4,1,0.5
		c0.5,0.3,0.9,0.4,1.2,0.5s0.7-0.1,1.1-0.5c0.4-0.5,0.6-0.9,0.5-1.2C201.3,59.5,201.1,59.1,200.8,58.6z M198,13.6l-0.6,0.4l0.2,0.8
		l1,0.2l0.3-1L198,13.6z M198.4,54.9l-0.8-0.1v0.8l0.4,0.6l0.5-0.6L198.4,54.9z M200.1,50.3c-0.2-0.5-0.5-0.7-0.8-0.7
		c-0.6,0.1-0.9,0.3-1,0.8c-0.1,0.4,0.2,0.8,0.6,1c0.4,0.3,0.8,0.3,1.2,0C200.3,51.1,200.3,50.7,200.1,50.3z M199.7,31l-0.8-0.2
		l-0.3,0.8l0.8,0.7l0.8-0.6L199.7,31z M201.8,45.5c-0.2-0.3-0.4-0.4-0.6-0.4c-0.2,0.1-0.5,0.2-0.8,0.3c-0.4,0.1-0.7,0.2-1,0.2
		c-0.2,0.1-0.3,0.3-0.3,0.7c0,0.5,0.1,0.8,0.2,1c0.2,0.2,0.5,0.3,0.9,0.5c0.4,0.1,0.6,0.1,0.7-0.1c0.1-0.2,0.3-0.4,0.6-0.7
		c0.2-0.3,0.4-0.6,0.5-0.7C202.1,46.1,202.1,45.9,201.8,45.5z M203.6,35.3c-0.5-0.5-1-0.7-1.4-0.5s-0.9,0.4-1.5,0.6
		c-0.6,0.3-1,0.5-1.2,0.7c-0.3,0.2-0.4,0.7-0.3,1.3c0.1,0.7,0.3,1.2,0.5,1.5s0.7,0.5,1.4,0.6c0.7,0.2,1.3,0.2,1.6,0.1
		c0.4-0.1,0.7-0.5,1.1-1.1c0.4-0.7,0.6-1.2,0.6-1.7C204.3,36.4,204.1,35.9,203.6,35.3z M200.9,15.7l-0.5-0.2l-0.8,0.3l0.5,0.8
		l0.7-0.4L200.9,15.7z M206.5,52.5c-0.2-0.6-0.4-1-0.6-1.2c-0.3-0.2-0.7-0.3-1.3-0.4c-0.6-0.1-1,0-1.2,0.3s-0.4,0.6-0.6,1.1
		c-0.3,0.6-0.4,1.1-0.4,1.4c0,0.3,0.2,0.7,0.7,1c0.5,0.5,1,0.7,1.3,0.7c0.4,0,0.8-0.2,1.4-0.5c0.6-0.4,0.9-0.7,0.9-1
		C206.7,53.6,206.7,53.2,206.5,52.5z M203.7,42.1l-0.5-0.4l-0.6,0.2l0.1,0.8l0.8,0.2L203.7,42.1z M204.3,17.1c-0.3,0-0.5,0-0.7,0
		s-0.3,0.1-0.4,0.4s-0.1,0.5,0,0.6s0.3,0.3,0.5,0.4c0.2,0.2,0.4,0.4,0.5,0.5c0.2,0.1,0.4,0.1,0.6,0c0.5-0.3,0.7-0.7,0.5-1.3
		c-0.1-0.3-0.2-0.5-0.4-0.5C204.8,17.1,204.6,17.1,204.3,17.1z M204.5,60.1c-0.4-0.1-0.6,0-0.7,0.2c-0.1,0.2-0.3,0.5-0.4,0.8
		c-0.2,0.3-0.2,0.5-0.1,0.6c0.1,0.2,0.2,0.3,0.4,0.5c0.3,0.2,0.5,0.4,0.6,0.5c0.1,0.2,0.3,0.2,0.6,0c0.6-0.3,0.8-0.7,0.7-1.3
		c-0.1-0.4-0.1-0.7-0.2-0.9C205.2,60.3,204.9,60.2,204.5,60.1z M205,57.9l-0.5-0.8l-0.7,0.7l0.2,0.8l0.8-0.1L205,57.9z M206.8,32.9
		c-0.1-0.7-0.4-1.1-1-1.2c-0.3-0.1-0.5,0-0.6,0.2s-0.2,0.4-0.4,0.7c-0.3,0.5-0.3,0.8,0,1.2c0.4,0.4,0.8,0.5,1.2,0.3
		c0.3-0.2,0.5-0.3,0.7-0.4C206.8,33.5,206.9,33.3,206.8,32.9z M207.9,46.6c-0.2-0.4-0.4-0.7-0.7-0.7c-0.2-0.1-0.6-0.1-1,0
		s-0.7,0.2-0.8,0.3c-0.2,0.2-0.3,0.4-0.4,0.8c-0.1,0.4,0,0.7,0.1,0.9s0.4,0.4,0.7,0.6c0.6,0.3,1.1,0.2,1.6-0.2
		c0.3-0.3,0.5-0.6,0.6-0.8C208.2,47.3,208.1,47,207.9,46.6z M207.4,39.2c-0.2-0.2-0.4-0.2-0.5-0.1c-0.1,0.1-0.2,0.2-0.4,0.4
		s-0.4,0.3-0.5,0.4c-0.1,0.1-0.1,0.3,0,0.5c0.3,0.5,0.6,0.8,1,0.7s0.7-0.4,0.8-0.9C207.9,39.7,207.7,39.4,207.4,39.2z M207.8,57.7
		l-0.5-0.3l-0.7,0.4l0.5,0.5l0.7,0.2V57.7z"/>
	<path class="st0" d="M222.7,67.1c-0.6,0-1.1-0.2-1.5-0.6s-0.6-0.9-0.6-1.5V28.9c0-0.6,0.2-1.1,0.6-1.5c0.4-0.4,0.9-0.6,1.5-0.6
		h12.8c0.6,0,1.1,0.2,1.5,0.6s0.6,0.9,0.6,1.5v2.6c0.9-1.2,2.3-2.4,4.2-3.5s4.1-1.8,6.6-1.9c6.1-0.2,10.2,1.9,12.3,6.4
		c1.2-1.8,2.9-3.3,5-4.5c2.2-1.2,4.4-1.8,6.8-1.8c2.6,0,5,0.6,7.2,1.8c2.2,1.2,3.9,3.1,5.2,5.6c1.3,2.5,1.9,5.9,1.9,9.9v21.7
		c0,0.6-0.2,1.1-0.6,1.5s-0.9,0.6-1.5,0.6H271c-0.6,0-1.1-0.2-1.5-0.6s-0.6-0.9-0.6-1.5V43.7c0-2.5-1-3.8-3.1-3.8c-2,0-3,1.3-3,3.8
		V65c0,0.6-0.2,1.1-0.6,1.5s-0.9,0.6-1.5,0.6H247c-0.6,0-1.1-0.2-1.5-0.6s-0.6-0.9-0.6-1.5V43.7c0-2.5-1-3.8-3.1-3.8
		s-3.1,1.3-3.1,3.8V65c0,0.6-0.2,1.1-0.6,1.5c-0.4,0.4-0.9,0.6-1.5,0.6H222.7L222.7,67.1z M225.2,38.1c-0.2-0.3-0.5-0.4-0.8-0.4
		c-0.3,0.1-0.5,0.3-0.5,0.7c0,0.3,0,0.5,0,0.6c0,0.2,0.1,0.3,0.3,0.4c0.3,0.1,0.5,0.2,0.7,0.2s0.4-0.1,0.6-0.3
		c0.2-0.2,0.3-0.4,0.2-0.5C225.5,38.6,225.4,38.4,225.2,38.1z M228.7,61.5c-0.2-0.6-0.4-0.8-0.8-0.8c-0.4,0.1-0.9,0.1-1.5,0.1
		c-0.5,0-0.8,0.1-1,0.2c-0.2,0.1-0.4,0.4-0.6,0.8c-0.2,0.5-0.2,0.8,0,1c0.1,0.2,0.4,0.5,0.7,0.7c0.5,0.3,0.8,0.5,1.1,0.7
		c0.3,0.1,0.6,0,1-0.3c0.6-0.4,1-0.8,1.2-1C228.9,62.5,228.9,62.1,228.7,61.5z M226.2,41.9l-0.7,0.1l0.1,0.8l0.7,0.3l0.6-0.7
		L226.2,41.9z M234.2,54.9c0-0.7-0.1-1.2-0.4-1.5c-0.3-0.3-0.8-0.6-1.5-0.8s-1.3-0.3-1.6-0.2c-0.4,0.1-0.8,0.4-1.2,1s-0.5,1-0.3,1.4
		c0.2,0.3,0.5,0.8,0.9,1.4c0.4,0.5,0.7,0.9,1,1c0.3,0.2,0.7,0.2,1.4,0s1.1-0.5,1.4-0.7C234.1,56.2,234.2,55.7,234.2,54.9z
		 M231.4,29.9h-1.2l-0.5,1l0.9,0.4l1-0.2L231.4,29.9z M231.4,39.3l-0.7-0.2l-0.7,0.6l0.5,0.8l0.8-0.3L231.4,39.3L231.4,39.3z
		 M232.7,32.6l-0.7,0.2l0.2,0.9h0.9l0.3-0.8L232.7,32.6z M234.9,60.1c-0.3-0.2-0.5-0.1-0.7,0c-0.1,0.2-0.3,0.4-0.5,0.7
		c-0.2,0.2-0.4,0.4-0.5,0.5c-0.1,0.2-0.1,0.4,0,0.6c0.2,0.4,0.4,0.6,0.5,0.7c0.2,0.1,0.4,0.1,0.8,0.1c0.3-0.1,0.5-0.3,0.4-0.5
		c0-0.2,0-0.5,0-0.8c0.1-0.4,0.1-0.7,0.2-0.8C235.4,60.4,235.2,60.2,234.9,60.1z M235.8,32.4l-0.9,0.3l0.4,0.9l1,0.3l0.4-1.2
		L235.8,32.4z M235.5,47.8l-0.6,0.2v0.5l0.5,0.3l0.4-0.5L235.5,47.8z M236.9,44.2l-0.5-0.5l-0.6,0.5l0.3,0.7l0.5-0.1L236.9,44.2z
		 M240.4,35l-0.8-0.5l-0.6,0.6l0.4,0.6l0.7-0.1L240.4,35z M243.8,28.5l-0.7,0.5l0.2,0.9l1-0.1l0.3-0.8L243.8,28.5z M248.6,49.3
		c-0.3-0.2-0.5-0.3-0.7-0.2s-0.4,0.2-0.7,0.4c-0.3,0.3-0.4,0.7-0.2,1.2c0.1,0.3,0.2,0.5,0.3,0.7c0.1,0.1,0.3,0.2,0.6,0.2
		s0.5-0.1,0.6-0.2s0.2-0.4,0.3-0.7s0.1-0.6,0.2-0.8C249,49.7,248.9,49.5,248.6,49.3z M257,35.8c-0.3-1.5-0.7-2.6-1.2-3.3
		s-1.4-1.1-2.9-1.2c-1.5-0.2-2.5,0-3,0.6s-1.1,1.6-1.7,2.9c-0.5,1.1-0.7,2-0.5,2.7s0.7,1.4,1.6,2.3c1.1,1,2.1,1.8,2.8,2.3
		s1.7,0.4,3.1-0.4c1.4-0.8,2.2-1.6,2.3-2.4C257.4,38.5,257.3,37.3,257,35.8z M249.1,63l-0.7-0.7l-0.6,0.6l0.2,0.7h0.7L249.1,63z
		 M252.2,56.9c-0.5-0.4-0.9-0.7-1.3-0.7s-0.8,0.1-1.4,0.4c-0.6,0.5-1.1,0.8-1.4,1.2c-0.3,0.3-0.4,0.8-0.2,1.6c0.2,0.7,0.5,1.1,1,1.1
		s1.1,0,1.8,0.1c0.6,0,1-0.1,1.2-0.2c0.3-0.2,0.5-0.5,0.6-1c0.2-0.6,0.3-1,0.3-1.3C253,57.6,252.7,57.2,252.2,56.9z M253.4,46.2
		c-0.4,0-0.6,0-0.8,0.1s-0.3,0.3-0.5,0.6c-0.2,0.6-0.1,1.1,0.4,1.5c0.3,0.2,0.5,0.3,0.6,0.2s0.4-0.3,0.7-0.5
		c0.4-0.3,0.6-0.6,0.5-0.9c-0.1-0.3-0.2-0.5-0.3-0.7C253.9,46.2,253.7,46.2,253.4,46.2z M257.5,54.7c-0.1-0.5-0.3-0.8-0.8-0.9
		c-0.4-0.1-0.7,0.1-0.9,0.5c-0.2,0.3-0.3,0.5-0.3,0.6c-0.1,0.2,0,0.3,0.2,0.5c0.4,0.5,0.8,0.6,1.3,0.4c0.3-0.2,0.5-0.3,0.5-0.5
		C257.4,55.3,257.5,55,257.5,54.7z M259.1,45.2c-0.3-0.3-0.6-0.4-0.8-0.4c-0.2,0-0.5,0.1-0.9,0.3c-0.5,0.3-0.8,0.6-1.1,0.8
		c-0.3,0.2-0.3,0.6-0.2,1.1c0.2,0.5,0.4,0.8,0.7,0.8s0.8,0,1.4,0c0.5,0,0.8,0,1.1,0c0.3,0,0.5-0.3,0.7-0.7c0.2-0.5,0.1-0.8,0-1
		C259.8,45.7,259.5,45.5,259.1,45.2z M259.5,57.3c-0.4-0.4-0.8-0.5-1.2-0.3c-0.5,0.2-0.7,0.5-0.6,1.1c0.1,0.4,0.3,0.7,0.8,0.8
		c0.3,0.1,0.6,0.1,0.7,0.1s0.3-0.1,0.5-0.4C260,58.3,259.9,57.8,259.5,57.3z M267.6,31.6c-0.3-0.5-0.6-0.7-1-0.6
		c-0.3,0.1-0.8,0.2-1.4,0.4c-0.5,0.1-0.8,0.2-0.9,0.4c-0.2,0.2-0.3,0.5-0.3,1c-0.1,0.5,0,0.8,0.1,1.1s0.4,0.5,0.8,0.7
		c0.6,0.3,1,0.4,1.4,0.4c0.3,0,0.7-0.2,1-0.7c0.5-0.5,0.7-1,0.7-1.3C268.2,32.7,268,32.2,267.6,31.6z M271.3,35.5l-0.5,0.1l-0.1,0.6
		l0.7,0.4L271.3,35.5z M273.6,32.6c-0.2-0.3-0.3-0.6-0.3-0.8c-0.1-0.2-0.3-0.3-0.6-0.2c-0.3,0.1-0.5,0.2-0.6,0.3
		c-0.1,0.2-0.2,0.4-0.3,0.7c-0.1,0.4-0.1,0.7-0.2,0.9s0.1,0.4,0.5,0.6c0.3,0.2,0.6,0.3,0.8,0.2c0.2-0.1,0.5-0.2,0.8-0.5
		c0.2-0.2,0.3-0.4,0.2-0.6C273.8,33.1,273.8,32.8,273.6,32.6z M273.3,43.1l-0.8-0.5l-0.7,0.3v0.8l0.8,0.4L273.3,43.1z M275.4,38
		c-0.3-0.4-0.5-0.7-0.6-0.9c-0.1-0.3-0.4-0.3-0.9-0.2s-0.7,0.3-0.8,0.6c-0.1,0.3-0.1,0.7-0.2,1.1c0,0.5,0,0.8,0,1.1s0.3,0.5,0.7,0.6
		c0.5,0.2,0.8,0.3,1,0.1c0.2-0.1,0.5-0.4,0.8-0.7c0.3-0.4,0.3-0.7,0.3-0.8C275.8,38.7,275.6,38.4,275.4,38z M283.1,47.9
		c-0.4-1.2-0.9-1.9-1.6-2.1s-1.7-0.2-3-0.2c-1.1,0-2,0.1-2.5,0.4c-0.5,0.3-1,0.9-1.4,2c-0.5,1.3-0.8,2.3-0.8,3.1
		c-0.1,0.8,0.4,1.6,1.5,2.4c1.4,1.1,2.5,1.8,3.4,2.1s2,0,3.5-1c1.4-1,2-2,1.9-2.9S283.7,49.5,283.1,47.9z M275,29.7l-0.7-0.2
		l-0.5,0.4l0.3,0.8l0.8-0.2L275,29.7z M279,57.2l-0.9,0.5l-0.5,0.8l0.8,0.2l0.9-0.2L279,57.2z M282.2,62c-0.4-0.5-0.8-0.6-1.4-0.4
		c-0.3,0.1-0.5,0.2-0.5,0.4c0,0.2,0,0.4,0,0.7c0,0.5,0.2,0.8,0.5,0.9c0.4,0.1,0.6,0.2,0.8,0.2c0.2,0,0.4-0.1,0.6-0.3
		C282.6,63,282.6,62.5,282.2,62z M283.4,36.4l-0.8,0.1v1l1,0.3l0.6-0.8L283.4,36.4z"/>
	<path class="st0" d="M314.3,67.9c-6.8,0-12.2-1.7-16.2-5s-6-8.6-6-15.9v-0.5c0.1-6.7,2.2-11.8,6.2-15.3s9.3-5.2,16-5.2
		c5.1,0,9.2,1,12.5,2.9s5.7,4.5,7.3,7.7c1.6,3.2,2.4,6.7,2.4,10.5v2.3c0,0.6-0.2,1.1-0.6,1.5s-0.9,0.6-1.5,0.6h-23.1v0.4
		c0,1.6,0.2,2.7,0.7,3.5c0.4,0.8,1.2,1.2,2.4,1.2c0.5,0,0.8-0.1,1.2-0.4c0.3-0.3,0.7-0.6,1.1-1c0.5-0.5,0.8-0.8,1.2-0.9
		c0.3-0.1,0.8-0.2,1.4-0.2H334c0.5,0,0.9,0.2,1.3,0.5c0.3,0.3,0.5,0.7,0.4,1.2c-0.1,1-0.5,2.2-1.4,3.5c-0.8,1.4-2.1,2.7-3.8,4
		c-1.7,1.3-3.9,2.4-6.5,3.2C320.9,67.5,317.8,67.9,314.3,67.9z M299.5,48c-0.6-0.2-1.1-0.2-1.4,0s-0.6,0.5-1,1
		c-0.3,0.5-0.3,0.8-0.1,1c0.2,0.2,0.4,0.6,0.7,1c0.3,0.4,0.5,0.6,0.7,0.7c0.2,0.1,0.5,0,0.8-0.1c0.7-0.3,1-0.7,1-1.5
		c0-0.6,0-1,0-1.4C300.4,48.4,300.1,48.2,299.5,48z M299.9,36.9c-0.3-0.1-0.6-0.1-0.7,0s-0.4,0.3-0.6,0.5c-0.3,0.3-0.6,0.6-0.8,0.7
		c-0.2,0.2-0.2,0.5,0,0.9c0.3,0.4,0.5,0.6,0.8,0.4c0.3-0.1,0.6-0.2,1.1-0.3s0.7-0.4,0.8-0.9c0.1-0.3,0.1-0.6,0-0.8
		C300.4,37.2,300.2,37,299.9,36.9z M302.6,44.2c-0.3-0.4-0.5-0.5-0.8-0.5s-0.6,0.1-1,0.2c-0.5,0.2-0.8,0.3-0.9,0.5s-0.2,0.5-0.2,1
		c0,0.6,0,1,0.1,1.3s0.4,0.5,0.9,0.7c0.6,0.2,1,0.1,1.2,0c0.3-0.2,0.6-0.5,0.9-1c0.3-0.4,0.4-0.8,0.4-1
		C303.2,45,303,44.6,302.6,44.2z M302.2,54.5c0-0.4,0-0.7,0-0.8c0-0.2-0.1-0.3-0.4-0.4c-0.4-0.1-0.6-0.1-0.7,0s-0.3,0.3-0.5,0.7
		c-0.2,0.2-0.2,0.4-0.1,0.5s0.2,0.3,0.3,0.5c0.2,0.3,0.4,0.5,0.5,0.7s0.3,0.2,0.6,0.1c0.3-0.1,0.4-0.3,0.4-0.5
		C302.2,55,302.2,54.8,302.2,54.5z M303.1,32.2c-0.5,0-0.8,0.1-0.8,0.3c-0.1,0.2-0.2,0.6-0.4,1c-0.1,0.3-0.1,0.5,0,0.6
		c0.1,0.2,0.3,0.3,0.6,0.5c0.3,0.3,0.5,0.5,0.7,0.6c0.2,0.2,0.4,0.1,0.7-0.1c0.4-0.3,0.6-0.5,0.7-0.7s0.1-0.5-0.1-1
		c-0.1-0.5-0.2-0.8-0.4-1C303.9,32.3,303.6,32.2,303.1,32.2z M306,37.7c-0.6-0.3-1.1-0.4-1.4-0.4c-0.3,0.1-0.7,0.3-1.1,0.8
		c-0.5,0.5-0.7,0.9-0.8,1.3c-0.1,0.3,0.1,0.8,0.5,1.4c0.3,0.5,0.6,0.7,0.9,0.7s0.8-0.2,1.4-0.3c0.5-0.1,0.9-0.2,1.2-0.3
		c0.3-0.1,0.5-0.4,0.5-1c0.1-0.6,0-1.1-0.1-1.4C306.9,38.2,306.5,38,306,37.7z M307.4,54.4c-0.5-0.5-1-0.5-1.6-0.2
		c-0.4,0.3-0.7,0.5-0.9,0.6c-0.2,0.2-0.3,0.5-0.2,0.9c0.1,0.5,0.3,0.7,0.5,0.8c0.3,0.1,0.6,0.1,1.1,0.2c0.5,0.1,0.8,0.1,1.1,0.1
		c0.3,0,0.5-0.2,0.7-0.6c0.2-0.4,0.2-0.7,0-1C308.1,55,307.8,54.7,307.4,54.4z M306.4,60.9c-0.4-0.1-0.6,0-0.7,0.1s-0.3,0.3-0.4,0.7
		c-0.2,0.3-0.3,0.6-0.4,0.8c-0.1,0.2,0.1,0.4,0.3,0.7c0.4,0.3,0.7,0.5,0.8,0.7c0.2,0.1,0.5,0.1,0.9-0.1s0.5-0.4,0.4-0.7
		c-0.1-0.3-0.1-0.6-0.2-1c-0.1-0.3-0.1-0.6-0.2-0.7C306.9,61.1,306.7,61,306.4,60.9z M306.6,45c-0.4-0.1-0.7,0-0.8,0.2
		c-0.1,0.2-0.3,0.5-0.5,0.9s-0.3,0.7-0.4,1c-0.1,0.2,0,0.5,0.3,0.7c0.4,0.4,0.7,0.5,0.9,0.5s0.6-0.1,1.1-0.4
		c0.4-0.3,0.7-0.5,0.9-0.7c0.2-0.2,0.2-0.6,0.1-1.1s-0.3-0.8-0.5-1C307.5,45.1,307.1,45.1,306.6,45z M309.2,59.3l-0.8-0.5l-0.5,0.8
		l0.5,0.5l0.8,0.1V59.3z M311.1,41.8h2.3c-0.1-0.1-0.1-0.2-0.2-0.4c-0.3-0.9-0.4-1.7-0.5-2.4s-0.1-1.3,0.1-1.9
		c0.4-0.2,0.8-0.3,1.4-0.3c2.1,0,3.1,1.6,3.1,4.9l-3.9,0.1c0.4,1.4,0.7,2.7,0.9,3.9c0.2,1.1,0.6,2,1.2,2.7s1.7,1,3.2,1
		c1.9,0.1,3.5-0.1,4.6-0.4c1.2-0.3,2.1-1,2.8-1.9c0.7-1,1.4-2.3,2-4.2c0.5-1.6,0.6-2.7,0.2-3.5s-1.2-1.5-2.2-2.1
		c-1.1-0.6-2.2-1.4-3.5-2.4c-1.5-1.1-2.7-1.8-3.7-1.8c-1-0.1-2.2,0.4-3.8,1.4c-1.3,0.9-2.1,1.8-2.3,2.7
		C311.7,37.8,311.1,39.3,311.1,41.8z M318.6,60c-0.1-0.6-0.1-1.1-0.1-1.5s-0.3-0.6-1-0.8c-0.8-0.2-1.4-0.3-1.8-0.3s-0.8,0.4-1.2,1
		c-0.4,0.6-0.5,1.1-0.2,1.4c0.3,0.3,0.7,0.8,1.1,1.3s0.7,0.8,1,0.8c0.3,0.1,0.7,0.1,1.2-0.2c0.5-0.2,0.8-0.5,0.9-0.7
		C318.6,60.9,318.7,60.5,318.6,60z M322,56.5c-0.1-0.3-0.2-0.4-0.3-0.5c-0.1-0.1-0.3-0.1-0.6-0.1c-0.5,0-0.8,0.2-0.8,0.5
		c-0.2,0.4-0.1,0.8,0.2,1c0.3,0.2,0.5,0.3,0.6,0.4c0.1,0.1,0.3,0.1,0.6-0.1c0.3-0.2,0.4-0.4,0.4-0.5C322.1,57,322.1,56.8,322,56.5z
		 M327.5,59.4c-0.3-0.6-0.5-1.1-0.7-1.4c-0.2-0.3-0.6-0.5-1.4-0.4s-1.4,0.3-1.9,0.5c-0.4,0.2-0.7,0.7-0.8,1.6
		c-0.2,0.8-0.1,1.3,0.3,1.6c0.3,0.3,0.9,0.7,1.6,1.1s1.2,0.7,1.7,0.8c0.4,0.2,1-0.1,1.6-0.6s0.8-1,0.5-1.4
		C328.2,60.7,327.9,60.2,327.5,59.4z"/>
</g>
<g>
	<path class="st0" d="M381.2,67.1c-3.7,0-7-0.5-10-1.5s-5.2-2.7-6.9-5.2c-1.7-2.4-2.5-5.8-2.5-10V40.3h-6.1c-0.6,0-1.1-0.2-1.5-0.6
		c-0.4-0.4-0.6-0.9-0.6-1.5v-9.4c0-0.6,0.2-1.1,0.6-1.5s0.9-0.6,1.5-0.6h6.1V14.1c0-0.6,0.2-1.1,0.6-1.5s0.9-0.6,1.5-0.6h13.6
		c0.6,0,1.1,0.2,1.5,0.6c0.4,0.4,0.6,0.9,0.6,1.5v12.7h9.8c0.6,0,1.1,0.2,1.5,0.6s0.6,0.9,0.6,1.5v9.3c0,0.6-0.2,1.1-0.6,1.5
		s-0.9,0.6-1.5,0.6h-9.8v8.5c0,1.2,0.3,2.1,0.8,2.8s1.4,1,2.5,1h7.1c0.6,0,1.1,0.2,1.5,0.6c0.4,0.4,0.6,0.9,0.6,1.5v10.2
		c0,0.6-0.2,1.1-0.6,1.5S390.6,67,390,67L381.2,67.1L381.2,67.1z M360.4,30.9c-0.1-0.4-0.2-0.6-0.3-0.7s-0.5-0.1-0.8-0.2
		c-0.4,0-0.6,0-0.8,0.1c-0.2,0.1-0.3,0.3-0.5,0.6c-0.2,0.4-0.2,0.7-0.2,0.9s0.2,0.5,0.5,0.7c0.4,0.3,0.7,0.5,0.9,0.5
		c0.2,0.1,0.6-0.1,1-0.3c0.4-0.3,0.6-0.5,0.6-0.7C360.6,31.6,360.6,31.3,360.4,30.9z M359.7,37l-0.8-0.4l-0.2,0.8l0.4,0.5l0.8-0.2
		L359.7,37z M362.9,33.8c-0.2-0.1-0.4-0.1-0.5-0.1c-0.2,0-0.3,0.1-0.5,0.3c-0.3,0.5-0.3,0.9,0,1.2c0.2,0.2,0.4,0.3,0.5,0.3
		s0.4-0.1,0.6-0.2c0.3-0.1,0.5-0.4,0.5-0.8S363.3,33.9,362.9,33.8z M370.6,25.8c-1.2-0.6-2.2-1.1-3-1.4s-1.6,0-2.6,1s-1.3,1.8-1,2.6
		c0.3,0.8,0.8,1.8,1.5,3c0.6,1.2,1.2,2,1.6,2.5s1.3,0.6,2.6,0.4c1.3-0.2,2.1-0.6,2.5-1.2c0.4-0.6,0.6-1.6,0.8-2.9
		c0.2-1.2,0.1-2-0.3-2.5C372.4,26.8,371.7,26.3,370.6,25.8z M366.9,43.7c-0.1-0.4-0.2-0.7-0.4-0.8c-0.2-0.2-0.4-0.2-0.8-0.2
		c-0.7,0-1.2,0.3-1.4,1c-0.2,0.4-0.2,0.7-0.1,0.9s0.3,0.4,0.6,0.7c0.6,0.4,1.1,0.4,1.7,0C366.9,44.8,367.1,44.3,366.9,43.7z
		 M365.4,53.8l-0.7,0.1l-0.4,0.7l1.1-0.2V53.8z M369.3,39.3c-0.1-0.4-0.2-0.7-0.4-0.8s-0.5-0.2-0.8-0.2c-0.5-0.1-0.9-0.1-1.2-0.2
		c-0.3-0.1-0.6,0.1-0.8,0.5c-0.3,0.5-0.3,0.8-0.1,1.1c0.2,0.3,0.5,0.6,0.8,1c0.3,0.3,0.6,0.4,0.8,0.3c0.2-0.1,0.5-0.2,0.9-0.4
		s0.6-0.3,0.8-0.5C369.3,40,369.4,39.7,369.3,39.3z M367.9,21c-0.1-0.4-0.4-0.7-0.8-0.7c-0.3-0.1-0.5-0.1-0.6,0
		c-0.2,0-0.3,0.2-0.5,0.4c-0.2,0.5-0.1,0.9,0.2,1.2c0.2,0.2,0.4,0.3,0.5,0.2c0.2-0.1,0.4-0.2,0.6-0.3C367.8,21.6,368,21.3,367.9,21z
		 M369.4,17.1l-0.8-0.7l-0.9,0.2l0.3,0.8l0.8,0.5L369.4,17.1z M375.4,50c-1.2-0.6-2.1-0.6-2.7-0.2c-0.6,0.4-1.3,1.2-2.2,2.2
		c-0.8,0.9-1.4,1.7-1.6,2.3c-0.3,0.6-0.1,1.4,0.5,2.5c0.7,1.3,1.4,2.2,2,2.7s1.6,0.6,3,0.3s2.3-0.7,2.6-1.5c0.3-0.7,0.5-1.8,0.7-3.3
		c0.2-1.4,0.1-2.4-0.1-3.1C377.5,51.2,376.7,50.5,375.4,50z M374.5,14.3c-0.5-0.3-0.8-0.4-1.1-0.3c-0.3,0.1-0.6,0.3-1,0.6
		c-0.4,0.4-0.7,0.7-0.8,0.9c-0.1,0.3-0.1,0.7,0.1,1.2s0.4,0.8,0.7,0.9c0.3,0.1,0.7,0.1,1.2,0.1c0.5-0.1,0.9-0.2,1-0.3
		c0.2-0.2,0.3-0.5,0.4-1c0.2-0.5,0.2-0.9,0.2-1.2C375.2,14.8,374.9,14.5,374.5,14.3z M374.2,44.1c-0.3-0.2-0.6-0.3-0.8-0.2
		c-0.2,0.1-0.5,0.2-0.8,0.4s-0.5,0.4-0.6,0.6c-0.1,0.2-0.1,0.4,0,0.7c0.2,0.5,0.3,0.8,0.4,1.1s0.4,0.4,0.8,0.4c0.5,0,0.8-0.1,1-0.3
		c0.1-0.2,0.3-0.6,0.4-1c0.2-0.4,0.2-0.7,0.1-0.9C374.7,44.6,374.5,44.3,374.2,44.1z M373.8,37.6l-0.9-0.3l-0.5,0.6l0.5,0.5l0.7-0.1
		L373.8,37.6z M374.3,19.6l-0.2-0.6l-0.5,0.4l-0.2,0.7l0.8,0.1L374.3,19.6z M379.6,35.1c-0.1-0.6-0.4-0.9-1-1.1
		c-0.5-0.1-0.8-0.2-1.1-0.3c-0.3-0.1-0.6,0-0.8,0.5c-0.3,0.5-0.4,0.8-0.4,1.2c0.1,0.3,0.3,0.7,0.6,1.1c0.4,0.4,0.7,0.6,1,0.6
		s0.7-0.1,1.2-0.3c0.4-0.2,0.6-0.4,0.6-0.6C379.6,35.8,379.6,35.5,379.6,35.1z M378.6,62c-0.1-0.3-0.2-0.5-0.3-0.5s-0.4-0.1-0.8-0.2
		s-0.7,0.1-0.9,0.5c-0.3,0.5-0.3,0.8,0,1.2c0.2,0.2,0.3,0.3,0.5,0.2c0.2-0.1,0.4-0.2,0.6-0.3c0.3-0.1,0.5-0.2,0.7-0.2
		C378.6,62.5,378.7,62.3,378.6,62z M385,58c-0.2-0.6-0.4-0.9-0.7-1.1c-0.2-0.2-0.6-0.2-1.2-0.2s-0.9,0.2-1.1,0.5s-0.3,0.7-0.4,1.2
		c-0.2,0.6-0.3,1.1-0.4,1.5s0.1,0.7,0.7,1c0.6,0.4,1,0.5,1.4,0.3c0.4-0.2,0.8-0.5,1.3-0.9c0.4-0.4,0.6-0.7,0.6-1S385.2,58.6,385,58z
		 M384.4,34.8l-0.8,0.2l0.2,0.8l0.8,0.2l0.2-0.7L384.4,34.8z M385.7,64l-0.8,0.2l0.2,0.8l0.7-0.1l0.5-0.5L385.7,64z M387.8,56.1
		l-0.5-0.5l-0.5,0.5l0.1,0.8l0.8-0.1L387.8,56.1z"/>
	<path class="st0" d="M418.9,67.9c-14.2,0-21.7-5.8-22.5-17.3c-0.2-2.4-0.2-4.9,0-7.3c0.4-5.7,2.6-10,6.5-12.9s9.3-4.4,16-4.4
		s12.1,1.5,16,4.4s6.1,7.2,6.5,12.9c0.2,2.4,0.2,4.9,0,7.3C440.7,62.1,433.2,67.9,418.9,67.9z M401.9,51.9c-0.4-0.3-0.7-0.4-0.9-0.3
		c-0.2,0.1-0.5,0.2-0.9,0.5c-0.5,0.4-0.7,0.9-0.5,1.6c0.2,0.5,0.3,0.8,0.5,1s0.5,0.3,0.9,0.3s0.6-0.1,0.7-0.4c0-0.3,0.1-0.6,0.2-1
		c0.2-0.4,0.3-0.7,0.3-1C402.4,52.3,402.3,52.1,401.9,51.9z M405.2,41c-0.6-1-1-1.7-1.4-2.3c-0.4-0.5-1.1-0.7-2.2-0.5
		c-1,0.3-1.5,0.7-1.5,1.4s0,1.6-0.1,2.6s-0.2,1.8-0.2,2.4c-0.1,0.6,0.4,1.1,1.3,1.5c1.1,0.5,2,0.7,2.6,0.6c0.6-0.1,1.3-0.5,2.2-1.5
		c0.7-0.8,0.9-1.5,0.6-2.1C406.2,42.7,405.8,42,405.2,41z M404,58.9c-0.3-0.6-0.8-0.8-1.6-0.7c-0.4,0.1-0.6,0.3-0.6,0.5
		c-0.1,0.2-0.1,0.5-0.2,0.9s-0.1,0.7-0.1,0.8c0,0.2,0.2,0.4,0.5,0.5c0.4,0.2,0.6,0.2,0.8,0c0.2-0.2,0.4-0.4,0.6-0.6
		c0.3-0.3,0.5-0.5,0.6-0.7C404.2,59.5,404.2,59.3,404,58.9z M405.1,53.2l-0.8-0.5l-0.7,0.6l0.6,0.6l0.6-0.1L405.1,53.2z M408.8,59.9
		c-0.3-0.2-0.6-0.2-0.7-0.1c-0.2,0.1-0.4,0.2-0.7,0.4c-0.3,0.3-0.4,0.5-0.5,0.6c-0.1,0.2-0.1,0.4,0,0.8c0.2,0.3,0.3,0.5,0.5,0.6
		s0.5,0.1,0.8,0s0.5-0.1,0.6-0.3c0.1-0.1,0.2-0.3,0.3-0.7c0.1-0.4,0.1-0.6,0.1-0.8C409.3,60.3,409.2,60.1,408.8,59.9z M409.2,38.9
		l-0.8-0.2l-0.3,0.8l0.6,0.3l0.4-0.2L409.2,38.9z M409.3,49.8l-0.7-0.2l-0.2,0.7l0.6,0.5l0.6-0.5L409.3,49.8z M409.7,45.6
		c-0.4,0-0.7,0.2-0.8,0.7c-0.2,0.5-0.1,0.9,0.2,1.2c0.4,0.3,0.8,0.3,1.2,0c0.5-0.3,0.6-0.7,0.5-1.2c-0.1-0.3-0.2-0.5-0.3-0.6
		C410.3,45.7,410,45.6,409.7,45.6z M413.4,29.9c-0.3-0.5-0.5-0.7-0.8-0.6s-0.7,0.1-1.2,0.2c-0.5,0.1-0.8,0.1-1.1,0.2
		c-0.3,0.1-0.5,0.3-0.6,0.8c-0.1,0.6-0.1,1,0,1.2c0.1,0.3,0.4,0.5,0.9,0.8c0.6,0.3,1,0.5,1.3,0.5c0.3,0.1,0.7-0.1,1.2-0.5
		s0.7-0.8,0.7-1.1C413.7,31,413.6,30.5,413.4,29.9z M412.6,53.7l-0.8-0.5l-0.8,0.6l0.5,0.7l0.8,0.2L412.6,53.7z M413.9,39.3
		c-0.1-0.4-0.3-0.5-0.5-0.5s-0.5,0-0.9-0.1c-0.6-0.1-0.9,0.1-1.1,0.5c-0.1,0.3-0.1,0.5,0,0.6s0.2,0.3,0.5,0.5
		c0.2,0.2,0.4,0.4,0.5,0.5s0.3,0.1,0.7-0.1c0.3-0.2,0.5-0.4,0.7-0.5C413.9,40,413.9,39.7,413.9,39.3z M415.6,33.8
		c-0.3-0.3-0.5-0.5-0.6-0.6s-0.4-0.1-0.6,0c-0.3,0.1-0.4,0.3-0.3,0.5s0.1,0.5,0.2,0.8c0.1,0.4,0.2,0.7,0.5,0.7
		c0.3,0.1,0.6,0.1,0.7,0.2c0.2,0.1,0.3-0.1,0.5-0.3c0.2-0.3,0.2-0.5,0.1-0.7C416,34.2,415.8,34,415.6,33.8z M419.1,60.4
		c0-0.7-0.1-1.2-0.3-1.5c-0.2-0.3-0.7-0.5-1.4-0.7c-0.7-0.3-1.3-0.3-1.6-0.3c-0.4,0.1-0.8,0.4-1.2,1c-0.4,0.5-0.4,0.8-0.1,1.1
		s0.6,0.7,1,1.2c0.3,0.4,0.5,0.6,0.7,0.7s0.5,0.1,0.9-0.1c0.6-0.2,1.1-0.3,1.5-0.4C418.9,61.3,419.1,61,419.1,60.4z M418.9,55.5
		c1.5,0,2.4-0.4,2.8-1.3c0.4-0.8,0.6-2.2,0.7-4c0.1-0.8,0.1-1.9,0.1-3.3s0-2.5-0.1-3.3c-0.1-1.7-0.3-3-0.7-3.9
		c-0.4-0.9-1.3-1.4-2.8-1.4c-1.4,0-2.4,0.5-2.8,1.4s-0.6,2.2-0.7,3.9c-0.1,0.8-0.1,1.9-0.1,3.3s0,2.5,0.1,3.3c0.1,1.8,0.3,3.1,0.7,4
		S417.5,55.5,418.9,55.5z M417.9,31.7l-0.6-0.5l-0.6,0.5l0.2,0.8l0.6-0.3L417.9,31.7z M422.8,59.1c-0.4-0.2-0.8-0.4-1-0.5
		c-0.3-0.1-0.5,0-0.8,0.3s-0.4,0.6-0.2,0.8c0.2,0.2,0.3,0.6,0.5,1c0.2,0.3,0.3,0.5,0.4,0.7s0.3,0.2,0.7,0.2c0.5-0.1,0.9-0.1,1.2-0.2
		c0.3-0.1,0.5-0.3,0.6-0.8s-0.1-0.8-0.3-0.9C423.6,59.5,423.2,59.3,422.8,59.1z M424.4,63.4l-1.1-0.2l-0.5,1l0.8,0.4l0.7-0.2v-1
		H424.4z M425.7,33.5c-0.2-0.4-0.3-0.6-0.5-0.6c-0.2-0.1-0.5-0.1-0.9,0c-0.3,0.1-0.5,0.2-0.5,0.3c0,0.2-0.1,0.4-0.1,0.7
		c-0.1,0.4-0.1,0.7-0.2,0.9s0,0.4,0.3,0.6c0.4,0.2,0.7,0.3,1,0.3s0.5-0.2,0.8-0.5s0.5-0.6,0.4-0.8C426,34.3,425.9,33.9,425.7,33.5z
		 M426.9,29c-0.2-0.4-0.4-0.5-0.6-0.4c-0.3,0.1-0.6,0.2-1,0.2c-0.3,0-0.5,0-0.7,0.1s-0.3,0.2-0.3,0.5c-0.2,0.4-0.3,0.8-0.3,1
		c-0.1,0.3,0.1,0.5,0.4,0.7c0.4,0.3,0.7,0.4,0.9,0.3c0.3-0.1,0.6-0.2,0.9-0.5c0.4-0.3,0.6-0.6,0.7-0.8
		C427.1,29.8,427.1,29.5,426.9,29z M434.4,37.2c-0.9-1.2-1.8-2.1-2.5-2.5c-0.8-0.4-1.8-0.4-3.3,0.1c-1.4,0.5-2.1,1.2-2.2,2.1
		c-0.1,0.8-0.1,2,0,3.5c0.1,1.1,0.3,1.8,0.8,2.1s1.3,0.6,2.4,0.8c1,0.3,1.8,0.5,2.4,0.5s1.2-0.4,1.8-1.3c0.8-1.1,1.3-2,1.5-2.7
		C435.5,39.1,435.2,38.3,434.4,37.2z M431,59.7c-0.4-0.4-0.7-0.6-1-0.5s-0.7,0.2-1.2,0.4c-0.5,0.3-0.8,0.5-1.1,0.7
		c-0.3,0.2-0.4,0.6-0.3,1.1c0.2,0.8,0.3,1.4,0.4,1.8s0.5,0.7,1.3,0.8c0.7,0.1,1.2-0.1,1.3-0.5s0.4-1,0.7-1.7
		c0.3-0.5,0.4-0.8,0.4-1.2C431.6,60.4,431.4,60,431,59.7z M438.7,50.1c-0.4-1.1-1-1.6-1.7-1.5s-1.6,0.2-2.8,0.3
		c-0.9,0.1-1.6,0.3-2,0.5c-0.4,0.3-0.7,0.8-0.9,1.7c-0.2,0.9-0.2,1.6-0.1,2.1c0.2,0.5,0.7,1,1.5,1.5c1,0.6,1.8,1.1,2.4,1.4
		c0.6,0.3,1.4,0,2.3-0.7c1-0.9,1.6-1.7,1.7-2.4C439.4,52.3,439.3,51.4,438.7,50.1z"/>
</g>
</svg>
