<?xml version="1.0" encoding="utf-8"?>
<!-- Generator: Adobe Illustrator 23.0.2, SVG Export Plug-In . SVG Version: 6.00 Build 0)  -->
<svg version="1.1" id="Layer_1" xmlns="http://www.w3.org/2000/svg" xmlns:xlink="http://www.w3.org/1999/xlink" x="0px" y="0px"
	 viewBox="0 0 447.9 127.2" style="enable-background:new 0 0 447.9 127.2;" xml:space="preserve">
<style type="text/css">
	.st0{fill:#FFFFFF;}
	.st1{fill:#FDC300;}
	.st2{fill:none;}
</style>
<g>
	<path class="st0" d="M3.8,104c-0.8,0-1.4-0.3-1.9-0.8C1.3,102.7,1,102,1,101.3V35.4c0-0.8,0.3-1.4,0.8-1.9c0.5-0.5,1.2-0.8,1.9-0.8
		h16.1c1.4,0,2.4,0.4,3.1,1.1s1.1,1.3,1.3,1.6l14.8,24.5l14.8-24.5c0.2-0.3,0.6-0.9,1.3-1.6s1.7-1.1,3.1-1.1h16.1
		c0.8,0,1.4,0.3,1.9,0.8c0.5,0.5,0.8,1.2,0.8,1.9v65.9c0,0.8-0.3,1.4-0.8,1.9c-0.5,0.5-1.2,0.8-1.9,0.8H55.9c-0.8,0-1.4-0.3-1.9-0.8
		c-0.5-0.5-0.8-1.2-0.8-1.9V73.3l-6.7,11c-0.3,0.5-0.8,1.1-1.4,1.7c-0.6,0.6-1.4,0.9-2.4,0.9h-7.1c-1,0-1.8-0.3-2.4-0.9
		s-1-1.1-1.4-1.7l-6.7-11v27.9c0,0.8-0.3,1.4-0.8,1.9c-0.5,0.5-1.2,0.8-1.9,0.8H3.8L3.8,104z M5.7,37.6L4.4,38l-1,1l1.3,0.8l1.3-0.6
		L5.7,37.6z M6.2,68l-0.7-0.6l-0.3,0.9l0.3,0.6l0.8-0.1L6.2,68z M10.5,73.4c-0.8-0.5-1.5-1-1.9-1.3c-0.5-0.3-1.1-0.2-1.8,0.4
		c-0.8,0.6-1.2,1.2-1.1,1.7c0.1,0.6,0.3,1.3,0.6,2.2c0.3,0.9,0.6,1.6,0.9,2c0.3,0.4,1,0.6,1.9,0.6c1.2,0,2.2-0.1,2.9-0.2
		c0.7-0.1,1.2-0.7,1.6-1.9s0.1-1.9-0.6-2.1S11.5,74.1,10.5,73.4z M9.5,46.9c-0.1-0.6-0.3-1-0.4-1.3C9,45.3,8.6,45.2,8,45.2
		s-1,0.1-1.3,0.2c-0.2,0.2-0.5,0.6-0.8,1.2c-0.2,0.5-0.2,0.8,0,1.1c0.2,0.2,0.5,0.5,0.9,0.9c0.6,0.5,1.3,0.6,1.9,0.1
		C9.5,48.2,9.7,47.6,9.5,46.9z M16.6,53.4c-1.8-0.7-3.2-0.8-4.2-0.5c-1,0.4-2,1.3-3.3,2.8c-0.6,0.9-0.9,1.6-0.7,2.1s0.5,1.1,1,1.7
		c0.5,0.6,1.1,1.4,1.6,2.2c0.8,1.2,1.5,2.1,1.9,2.8c0.5,0.7,1.4,0.9,2.8,0.5c1.4-0.4,2.2-1,2.3-1.8s0.2-2,0.3-3.5
		c0.1-1.1,0.2-2,0.3-2.9c0.1-0.8,0.1-1.5-0.1-2.1C18.2,54.3,17.6,53.8,16.6,53.4z M14.2,86.1c0-0.5,0-0.9,0-1.2s-0.2-0.5-0.7-0.6
		c-0.5-0.1-0.8-0.1-1,0.2c-0.2,0.2-0.4,0.6-0.7,1c-0.3,0.5-0.2,0.9,0.2,1.4c0.4,0.6,0.9,0.8,1.4,0.6C14,87.2,14.2,86.7,14.2,86.1z
		 M15.7,93.3l-1-0.6l-1.4-0.1l0.1,1.7h1.5L15.7,93.3z M20.3,46.6c-0.1-0.5-0.5-0.7-1.2-0.6c-0.3,0-0.6,0-0.9,0s-0.4,0.2-0.6,0.6
		c-0.1,0.4,0,0.7,0.3,0.7c0.2,0.1,0.5,0.2,0.9,0.4c0.3,0.2,0.5,0.4,0.7,0.6c0.2,0.2,0.4,0.1,0.8-0.2c0.3-0.2,0.4-0.4,0.4-0.7
		C20.6,47.2,20.5,46.9,20.3,46.6z M21.4,73.6l-1.1-0.7L19.7,74l0.3,0.8l1.3,0.1L21.4,73.6L21.4,73.6z M22.3,69.6l-0.5,0.4l-0.1,0.7
		l0.8,0.1l0.2-0.7L22.3,69.6z M27.2,53.2c-0.5-0.5-1-0.9-1.4-1.1c-0.4-0.2-0.9-0.1-1.5,0.3c-0.8,0.4-1.2,0.8-1.5,1.2s-0.3,1,0,1.9
		c0.1,0.8,0.4,1.2,0.8,1.4c0.4,0.2,1,0.3,1.8,0.5c0.6,0.1,1-0.1,1.2-0.4s0.4-0.7,0.7-1.3c0.3-0.5,0.4-1,0.5-1.3
		C27.8,54,27.6,53.6,27.2,53.2z M28.5,63.2c-0.2-0.3-0.5-0.3-1,0c-0.3,0.1-0.6,0.2-0.8,0.3c-0.2,0.1-0.3,0.2-0.3,0.5
		c0.1,0.5,0.4,0.9,1.1,1s1.1,0,1.3-0.5c0.2-0.3,0.2-0.5,0.1-0.7C28.9,63.7,28.8,63.5,28.5,63.2z M36.4,67c-0.8-0.3-1.4-0.3-1.8,0
		s-0.9,0.9-1.4,1.6c-0.6,0.8-1.1,1.3-1.4,1.8c-0.3,0.4-0.2,1.1,0.3,1.9c0.6,0.9,1.2,1.5,1.7,1.7s1.3,0.1,2.4-0.2
		c1-0.3,1.4-0.7,1.5-1.2c0-0.5,0.1-1.3,0.1-2.2c0.1-0.9,0.1-1.6,0-2.1C37.8,67.8,37.3,67.3,36.4,67z M41.4,74.9
		c-0.5-0.3-1-0.3-1.2-0.1c-0.3,0.2-0.6,0.5-1,0.9c-0.5,0.5-0.6,1.2-0.2,1.9c0.2,0.4,0.4,0.7,0.6,0.9c0.2,0.2,0.5,0.3,1.1,0.2
		s1-0.2,1.2-0.4s0.5-0.5,0.6-1.1c0.1-0.7,0-1.2,0-1.5C42.3,75.5,42,75.2,41.4,74.9z M48.3,61.5c-0.9-0.5-1.6-0.8-2.1-0.7
		s-1.2,0.5-2,1.2c-1.1,0.9-2,1.6-2.8,2s-0.9,1.3-0.5,2.6c0.5,1.4,1.2,2.2,2,2.4c0.8,0.2,2,0.3,3.5,0.2c1.2-0.1,2-0.4,2.4-0.9
		c0.4-0.5,0.8-1.4,1.2-2.7c0.3-1,0.3-1.8,0-2.3C49.7,62.8,49.2,62.2,48.3,61.5z M57.8,36.8c-0.5-0.2-0.8-0.2-1.1,0
		c-0.2,0.2-0.5,0.5-0.9,0.9c-0.3,0.3-0.4,0.6-0.3,0.9c0.1,0.2,0.2,0.5,0.4,0.9c0.3,0.5,0.8,0.8,1.4,0.6c0.6-0.2,1-0.6,1-1.2
		c0-0.5,0-1,0-1.3C58.5,37.3,58.2,37,57.8,36.8z M58.1,48.9c-0.5,0-1,0-1.3,0c-0.3,0-0.6,0.2-0.8,0.8c-0.2,0.6-0.3,1.1-0.2,1.4
		s0.3,0.7,0.8,1.1c0.5,0.4,0.9,0.5,1.1,0.3s0.6-0.5,1.1-0.8c0.5-0.3,0.8-0.5,1-0.7c0.2-0.2,0.2-0.6,0.1-1.1
		c-0.1-0.5-0.4-0.7-0.7-0.8C59,49,58.6,48.9,58.1,48.9z M58.4,63.2c-0.5-0.5-0.9-0.6-1.3-0.4c-0.5,0.3-0.7,0.7-0.6,1.3
		c0.1,0.4,0.1,0.7,0.2,1s0.4,0.4,0.8,0.5s0.7,0,0.8-0.2c0.1-0.2,0.3-0.5,0.5-0.9C58.9,64,58.8,63.6,58.4,63.2z M57.9,94.8l-1,0.5
		v1.2l1.2,0.4l0.7-1.2L57.9,94.8z M64.7,81.6c-0.8-0.7-1.5-0.8-1.9-0.5s-1.2,0.8-2,1.4c-1,0.6-1.8,1.1-2.5,1.3
		c-0.7,0.3-0.9,1-0.6,2.1c0.3,1.2,0.7,2,1.4,2.2c0.6,0.2,1.6,0.4,2.9,0.5c1,0.1,1.7-0.2,2-0.7s0.6-1.2,1-2.2
		c0.4-0.9,0.7-1.7,0.8-2.3C65.9,82.9,65.5,82.3,64.7,81.6z M65.8,44c-0.8-0.2-1.3-0.1-1.5,0.4s-0.5,1-0.9,1.6
		c-0.4,0.7-0.8,1.2-1,1.5s-0.2,0.8,0.3,1.4c0.5,0.6,1,0.9,1.4,1c0.4,0,1-0.1,1.8-0.5c0.7-0.3,1.1-0.6,1.3-1c0.2-0.4,0.2-0.9,0.1-1.7
		c-0.1-0.8-0.2-1.4-0.3-1.9C67,44.6,66.6,44.2,65.8,44z M65.9,60.3c-0.3-0.4-0.7-0.6-1-0.6s-0.8,0.2-1.3,0.4
		c-0.4,0.1-0.6,0.3-0.6,0.6s0,0.6,0,1c0,0.7,0.3,1.1,0.8,1.2c0.6,0.2,1.1,0.4,1.4,0.6s0.7,0,1-0.5c0.4-0.5,0.6-1,0.5-1.4
		C66.7,61.3,66.4,60.8,65.9,60.3z M65.7,67.3c0-0.5,0-0.8,0.1-1.1c0.1-0.3,0-0.5-0.5-0.6c-0.5-0.1-0.8-0.1-1,0.1s-0.4,0.5-0.8,0.8
		c-0.3,0.5-0.2,1,0.1,1.5c0.3,0.3,0.5,0.6,0.7,0.7c0.2,0.1,0.5,0.1,0.9,0c0.3-0.1,0.5-0.2,0.5-0.5C65.7,68,65.7,67.7,65.7,67.3z
		 M73.3,72.7c-0.4-1.3-0.9-2.1-1.5-2.5c-0.6-0.4-1.6-0.6-3-0.6c-1.3,0-2.2,0.2-2.7,0.7s-1,1.3-1.4,2.5c-0.3,1.2-0.4,2-0.1,2.6
		c0.3,0.6,0.9,1.2,1.9,1.9c0.8,0.6,1.5,0.8,2,0.6c0.5-0.2,1.2-0.6,2-1.2c1-0.7,1.7-1.2,2.3-1.7C73.5,74.6,73.6,73.8,73.3,72.7z
		 M70.8,94.7c-0.5-0.8-0.9-1.4-1.2-1.8c-0.3-0.4-0.9-0.5-1.9-0.3c-1,0.2-1.6,0.5-1.9,0.9s-0.6,1.1-0.7,2.1c-0.1,0.9,0,1.6,0.3,2
		c0.3,0.4,0.9,0.8,1.7,1.2c1,0.5,1.8,0.8,2.5,1.1c0.6,0.2,1.3-0.1,2-1c0.8-0.8,0.9-1.4,0.6-2C71.8,96.5,71.4,95.7,70.8,94.7z
		 M69.3,53.6c-0.5-0.1-0.9-0.1-1.1-0.1s-0.5,0.2-0.7,0.7c-0.2,0.4-0.2,0.7,0.1,0.8c0.3,0.1,0.6,0.3,0.9,0.6c0.3,0.3,0.5,0.7,0.6,0.9
		c0.1,0.3,0.4,0.3,0.8,0.1c0.8-0.3,1-1,0.9-1.9c-0.1-0.4-0.2-0.7-0.5-0.8C70.1,53.8,69.8,53.7,69.3,53.6z M70.8,82l-1.3,0.3
		l-0.4,1.4l1.3,0.2l1-0.6L70.8,82z M72.9,35.5c-0.7-0.4-1.4-0.3-2,0.4c-0.3,0.3-0.4,0.5-0.2,0.8c0.1,0.2,0.2,0.6,0.5,1
		c0.2,0.3,0.4,0.6,0.5,0.8s0.4,0.3,0.8,0.2c0.5-0.1,0.8-0.2,1.1-0.3c0.2-0.1,0.4-0.4,0.5-0.9C73.9,36.5,73.6,35.9,72.9,35.5z"/>
	<path class="st0" d="M196.3,105c-6.7,0-12.5-1-17.5-3.1s-8.9-5.1-11.8-9.2s-4.5-9.2-4.7-15.2c-0.2-5.8-0.2-11.8,0-17.9
		c0.3-6,1.8-11,4.7-15.2c2.9-4.2,6.8-7.3,11.8-9.5s10.9-3.3,17.5-3.3s12.5,1.1,17.5,3.3c5,2.2,9,5.3,11.9,9.5s4.4,9.2,4.6,15.2
		c0.2,6.1,0.2,12.1,0,18c-0.3,6.1-1.8,11.1-4.7,15.2c-2.9,4.1-6.8,7.2-11.8,9.2C208.8,104,202.9,105,196.3,105z M172.6,74.3
		c-0.4-0.6-0.8-0.8-1.2-0.6c-0.4,0.2-1,0.4-1.7,0.6c-0.6,0.2-1.1,0.4-1.4,0.5c-0.3,0.1-0.5,0.5-0.5,1.2c0,0.8,0.1,1.4,0.2,1.9
		c0.1,0.4,0.6,0.8,1.4,1.1c0.8,0.2,1.4,0.2,1.8-0.1c0.4-0.2,0.8-0.7,1.3-1.4c0.5-0.7,0.8-1.2,0.9-1.6
		C173.4,75.6,173.2,75,172.6,74.3z M170.2,86.5c-0.3-0.3-0.8-0.4-1.3-0.2c-0.3,0.1-0.5,0.2-0.7,0.4c-0.2,0.1-0.3,0.3-0.3,0.7
		c0,0.4,0,0.7,0.2,0.9c0.1,0.2,0.4,0.3,0.8,0.4c0.5,0.1,0.8,0.2,1.1,0.2s0.5-0.2,0.8-0.6c0.3-0.4,0.3-0.7,0.1-0.9
		C170.7,87.1,170.4,86.8,170.2,86.5z M174,58.7c-0.1-0.5-0.5-0.7-1-0.7c-0.3,0-0.6,0-0.8,0.1c-0.2,0-0.3,0.2-0.4,0.6
		c-0.2,0.6-0.1,1.1,0.4,1.5c0.5,0.3,1,0.2,1.5-0.1C174.1,59.7,174.2,59.3,174,58.7z M176.9,47.1c-0.6,0-1.1,0-1.3,0.1
		c-0.3,0.1-0.5,0.4-0.7,0.9c-0.2,0.5-0.2,0.9,0,1.2c0.2,0.2,0.5,0.5,1,0.9c0.5,0.5,1,0.9,1.3,1.2c0.3,0.3,0.8,0.2,1.4-0.2
		c0.6-0.4,0.9-0.8,0.8-1.2c-0.1-0.4-0.2-1-0.4-1.7c-0.1-0.5-0.4-0.9-0.7-1C177.9,47.1,177.4,47.1,176.9,47.1z M179.5,91.5
		c-0.9-0.4-1.6-0.7-2.1-0.7c-0.5-0.1-1.1,0.3-1.8,1c-0.7,0.7-1,1.3-0.9,1.8s0.3,1.2,0.8,2.1c0.4,0.8,0.8,1.3,1.2,1.6
		c0.4,0.2,1,0.3,1.9,0.2c1-0.2,1.6-0.5,2-0.8c0.4-0.3,0.6-1,0.8-1.9c0.1-0.9,0-1.5-0.2-1.9C180.9,92.3,180.4,91.9,179.5,91.5z
		 M175.7,80.7l-0.7-0.4l-0.2,0.7l0.3,0.8l0.8-0.4L175.7,80.7z M182.9,64.6c-0.3-0.8-0.6-1.3-1.1-1.3s-1.1-0.1-2-0.1
		c-0.6,0-1,0.1-1.2,0.4c-0.2,0.3-0.4,0.7-0.6,1.3c-0.2,0.6-0.4,1.1-0.5,1.5c-0.1,0.4,0.1,0.8,0.7,1.2c0.5,0.4,1,0.5,1.3,0.4
		c0.3-0.1,0.8-0.4,1.3-0.8c0.7-0.4,1.2-0.8,1.6-1C183,65.9,183.1,65.4,182.9,64.6z M181.1,57.2c-0.5-0.1-0.8-0.2-1.1-0.4
		s-0.5-0.1-0.8,0.4c-0.3,0.4-0.3,0.7-0.2,1s0.4,0.6,0.7,1c0.3,0.3,0.6,0.6,0.8,0.8c0.2,0.2,0.5,0.2,0.9,0.1c0.5-0.2,0.7-0.4,0.7-0.7
		c0-0.3,0-0.7,0-1.1C182,57.7,181.7,57.4,181.1,57.2z M182.2,85.6c-0.3-0.5-0.8-0.7-1.4-0.5c-0.5,0.1-0.9,0.2-1.2,0.3
		c-0.3,0.1-0.5,0.3-0.5,0.8c0,0.5,0.1,0.9,0.3,1.2c0.2,0.2,0.6,0.5,1.1,0.7c0.4,0.1,0.7,0.1,0.8-0.2s0.4-0.5,0.7-0.9
		C182.4,86.4,182.5,86,182.2,85.6z M186.8,42.3c-0.1-1-0.5-1.5-1.1-1.5s-1.4-0.2-2.3-0.3c-1-0.1-1.7-0.2-2.3-0.3s-1.1,0.3-1.5,1.2
		c-0.5,0.9-0.5,1.5,0,1.9c0.4,0.4,1,0.9,1.8,1.6c0.6,0.6,1.1,1,1.5,1.2c0.4,0.2,1,0.1,1.7-0.3c0.9-0.5,1.5-0.9,1.9-1.3
		C186.9,44,187,43.3,186.8,42.3z M185.1,79.3c-0.1-0.5-0.4-0.8-0.7-0.9c-0.3-0.1-0.7-0.1-1.3-0.1c-0.8-0.1-1.3,0.3-1.5,1
		c-0.2,0.4-0.3,0.8-0.2,1c0,0.3,0.2,0.5,0.6,0.8c0.4,0.3,0.7,0.5,1,0.4s0.6-0.2,1-0.5c0.4-0.3,0.8-0.6,1-0.8
		C185.1,80.1,185.2,79.8,185.1,79.3z M185.4,97.8c-0.5-0.1-0.8-0.1-1.1-0.1c-0.2,0-0.5,0.2-0.7,0.6c-0.4,0.6-0.4,1.2,0.1,1.8
		c0.5,0.6,1,0.8,1.7,0.5c0.8-0.3,1.2-0.8,1.1-1.5c0-0.4-0.1-0.7-0.3-0.9C186.1,98.1,185.8,97.9,185.4,97.8z M187.3,88.9l-0.6,0.2
		l0.1,0.7l0.7,0.2L187.3,88.9z M196.3,85.1c2.2,0,4-0.7,5.4-2c1.4-1.3,2.1-3.4,2.1-6.3c0.2-5.8,0.2-11.6,0-17.1
		c-0.1-2.9-0.8-4.9-2.2-6.3c-1.4-1.3-3.2-2-5.3-2c-2.2,0-3.9,0.7-5.3,2c-1.4,1.3-2.1,3.4-2.2,6.3c-0.2,5.6-0.2,11.3,0,17.1
		c0.1,2.9,0.9,4.9,2.2,6.3C192.2,84.5,194,85.1,196.3,85.1z M192.1,89.5c-0.6-0.1-1.1,0-1.4,0.5c-0.3,0.4-0.5,0.8-0.7,1
		s-0.1,0.6,0.2,1c0.3,0.4,0.7,0.6,1,0.5s0.7-0.2,1.2-0.5c0.5-0.2,0.8-0.4,1.1-0.5s0.4-0.4,0.4-1c0-0.5-0.2-0.8-0.5-0.8
		C193,89.8,192.6,89.7,192.1,89.5z M201.4,38.3c-1.4-0.6-2.5-1.2-3.4-1.6c-0.8-0.5-1.7-0.1-2.7,1c-1,1.2-1.2,2.1-0.7,2.9
		s1.2,1.8,2,3.1c0.7,1.1,1.3,1.8,1.7,2.3c0.5,0.4,1.3,0.5,2.5,0.2c1.2-0.3,1.9-0.7,2.1-1.4c0.2-0.7,0.3-1.6,0.5-2.8
		c0.1-1.1,0-1.9-0.3-2.3C202.9,39.2,202.3,38.7,201.4,38.3z M199.2,93.7c-1.2-0.1-2,0-2.5,0.3s-1.1,1.1-1.6,2.1
		c-0.5,1.1-0.7,2-0.6,2.6c0.1,0.7,0.6,1.3,1.6,2.1c0.9,0.8,1.7,1.3,2.3,1.3c0.7,0.1,1.5-0.2,2.5-0.8c1-0.6,1.7-1.2,1.9-1.8
		s0.2-1.4,0-2.6c-0.2-1.2-0.5-1.9-1-2.4C201.3,94.1,200.5,93.8,199.2,93.7z M196.7,90.1l-1.2-0.2l0.1,1.2l0.8,0.5l0.5-0.7
		L196.7,90.1z M201.5,89l-0.6-0.7l-1,0.1l0.2,1l0.8,0.4L201.5,89z M209.7,87c0-0.9-0.4-1.4-1.1-1.6c-0.4-0.1-0.7-0.1-0.8,0.2
		c-0.1,0.2-0.3,0.5-0.6,0.9c-0.3,0.3-0.5,0.6-0.7,0.8s-0.2,0.5,0,0.9c0.3,0.3,0.6,0.5,0.9,0.5s0.6-0.2,1.1-0.4
		c0.4-0.1,0.7-0.3,0.9-0.4C209.6,87.7,209.7,87.4,209.7,87z M209.9,80.7l-1-1L208,81l0.8,0.9h1.3L209.9,80.7z M211.3,72
		c-1-0.4-1.7-0.2-2.3,0.5c-0.7,0.8-0.8,1.5-0.2,2.3c0.3,0.5,0.6,0.8,0.9,0.9s0.7,0.1,1.3,0c0.5-0.1,0.9-0.3,1-0.6
		c0.1-0.3,0.2-0.7,0.3-1.2s0-0.9,0-1.2C212,72.4,211.7,72.2,211.3,72z M211.2,63.5c-0.9-0.3-1.6-0.2-2,0.5c-0.5,0.7-0.6,1.4-0.1,2.1
		c0.3,0.4,0.5,0.6,0.8,0.6c0.3,0,0.7-0.1,1.1-0.2c0.4-0.1,0.7-0.2,0.7-0.5c0.1-0.2,0.1-0.6,0.1-1s0-0.8,0-1
		C211.8,63.9,211.6,63.7,211.2,63.5z M210.8,93.6l-1,0.5l-0.7,1l1.3,0.2l0.9-0.5L210.8,93.6z M214.3,55.2c-0.8-0.3-1.4-0.2-1.8,0.1
		c-0.4,0.3-0.8,0.8-1.4,1.5c-0.5,0.7-0.9,1.2-1.1,1.6c-0.2,0.4-0.1,1,0.4,1.7c0.5,0.8,1,1.2,1.4,1.3c0.5,0.1,1.2,0.1,2-0.2
		c1-0.3,1.7-0.5,2.2-0.8s0.8-0.9,0.9-1.9c0.1-1.1-0.1-1.8-0.5-2.2C216.1,56,215.4,55.6,214.3,55.2z M211,48.4l-0.9,0.2l0.1,0.9
		l0.8,0.3l0.6-0.7L211,48.4z M213.5,38.9c-0.6-0.3-1.1-0.3-1.5,0c-0.3,0.3-0.6,0.5-0.8,0.7c-0.2,0.2-0.2,0.5,0,0.9
		c0.2,0.5,0.4,0.7,0.7,0.8c0.2,0,0.6,0,1.1,0c0.3,0,0.5-0.1,0.6-0.3c0.1-0.2,0.2-0.5,0.3-0.8C214,39.7,213.9,39.2,213.5,38.9z
		 M212.7,43.9l-1-0.4l-0.4,0.9l0.3,0.8l1-0.2L212.7,43.9z M216.2,86.3c-0.5-0.4-1-0.6-1.3-0.5s-0.8,0.3-1.3,0.6
		c-0.5,0.3-0.8,0.7-0.9,1s0,0.8,0.2,1.4c0.2,0.9,0.8,1.4,1.7,1.4c1,0.1,1.6-0.3,1.9-1.2c0.2-0.6,0.3-1.1,0.4-1.5
		C216.9,87.1,216.7,86.7,216.2,86.3z M218.8,45.5c-0.6-0.2-1.1-0.4-1.4-0.5s-0.7,0-1.1,0.5c-0.4,0.5-0.6,0.9-0.5,1.2
		c0.1,0.3,0.3,0.7,0.6,1.3c0.2,0.5,0.5,0.7,0.8,0.8s0.7,0,1.2,0c0.5-0.1,0.8-0.3,0.8-0.5s0.1-0.5,0.2-1c0.1-0.4,0.1-0.7,0-1
		C219.4,45.9,219.2,45.7,218.8,45.5z M219.1,55l-0.8,0.4l0.1,0.9l0.9,0.3l0.2-0.9L219.1,55z M220.2,70.8c-0.5-0.1-0.8,0-1,0.1
		c-0.2,0.1-0.3,0.4-0.5,0.8c-0.2,0.3-0.3,0.6-0.4,0.9s0.1,0.5,0.4,0.8c0.3,0.3,0.5,0.5,0.8,0.4s0.5-0.2,0.9-0.4
		c0.6-0.3,0.9-0.8,0.8-1.2c-0.1-0.4-0.2-0.7-0.2-0.9C220.9,71,220.7,70.8,220.2,70.8z M224.3,78.2c-1-0.3-1.7-0.4-2.1-0.1
		c-0.5,0.3-1,0.8-1.6,1.6c-0.6,0.8-1,1.5-1.1,2c-0.1,0.5,0.2,1.2,0.8,2c0.5,0.8,1.1,1.2,1.6,1.1s1.3-0.2,2.2-0.5
		c0.7-0.3,1-0.6,1.1-1s0.1-1,0.1-1.7c0-0.9,0-1.6,0.2-2.2C225.6,78.9,225.2,78.5,224.3,78.2z M222.5,63.9c-0.5-0.1-0.9-0.1-1.1,0.2
		c-0.2,0.2-0.4,0.6-0.7,1.1c-0.3,0.5-0.3,1.1,0.1,1.6c0.4,0.4,0.7,0.8,0.9,1.1c0.2,0.3,0.5,0.3,1,0.1c0.6-0.2,1-0.5,1.1-0.8
		c0.1-0.3,0.2-0.8,0.1-1.4C224,64.7,223.4,64.1,222.5,63.9z"/>
	<path class="st0" d="M242.5,104c-0.8,0-1.4-0.3-1.9-0.8c-0.5-0.5-0.8-1.2-0.8-1.9V35.4c0-0.8,0.3-1.4,0.8-1.9
		c0.5-0.5,1.2-0.8,1.9-0.8h16.1c1.4,0,2.3,0.3,3,0.9s1,1.1,1.2,1.4L280,63.2V35.4c0-0.8,0.3-1.4,0.8-1.9c0.5-0.5,1.2-0.8,1.9-0.8
		h18.5c0.8,0,1.4,0.3,1.9,0.8c0.5,0.5,0.8,1.2,0.8,1.9v65.9c0,0.8-0.3,1.4-0.8,1.9c-0.5,0.5-1.2,0.8-1.9,0.8h-16.1
		c-1.4,0-2.3-0.3-3-1s-1-1.1-1.2-1.4l-17.2-26v25.6c0,0.8-0.3,1.4-0.8,1.9c-0.5,0.5-1.2,0.8-1.9,0.8L242.5,104L242.5,104z
		 M246.6,86.4c-0.1-0.5-0.2-0.9-0.5-1s-0.7-0.2-1.2-0.4c-0.5-0.1-0.9-0.1-1.2-0.1c-0.3,0-0.6,0.2-0.8,0.6c-0.5,0.8-0.4,1.6,0.2,2.3
		c0.4,0.4,0.8,0.7,1,0.8c0.3,0.1,0.7,0,1.2-0.2C246.2,88,246.6,87.3,246.6,86.4z M246,71.2c0-0.4-0.3-0.7-0.9-0.9
		c-0.5-0.1-0.9,0-1.1,0.3c-0.3,0.3-0.5,0.6-0.6,0.8s0,0.5,0.2,0.8c0.5,0.6,1.1,0.7,1.8,0.4c0.4-0.1,0.6-0.3,0.6-0.6
		C246,71.8,246,71.5,246,71.2z M247.2,46.3c-0.1-0.5-0.3-0.9-0.6-1.1c-0.3-0.2-0.7-0.3-1.2-0.4c-0.5-0.1-0.9,0-1.1,0.3
		c-0.2,0.2-0.4,0.6-0.6,1.1c-0.3,0.8-0.1,1.4,0.4,1.8c0.4,0.4,0.8,0.7,1,0.9c0.3,0.2,0.7,0.2,1.2-0.1c0.5-0.3,0.9-0.7,1-1
		C247.4,47.5,247.4,47,247.2,46.3z M245.3,92.7l-0.9-0.5l-0.6,0.8l0.4,0.6h0.8L245.3,92.7z M248,64.8c-0.1-0.7-0.2-1.2-0.3-1.6
		s-0.5-0.7-1.2-0.7c-0.7-0.1-1.2,0.1-1.4,0.4c-0.3,0.3-0.5,0.8-0.8,1.5c-0.2,0.6-0.2,0.9,0,1.2c0.2,0.2,0.6,0.5,1.1,0.9
		c0.4,0.3,0.8,0.6,1,0.7c0.3,0.1,0.7,0.1,1.1-0.2c0.5-0.3,0.7-0.7,0.8-0.9C248.3,65.8,248.2,65.4,248,64.8z M247.5,76.5
		c-0.7-0.2-1.2-0.4-1.5-0.5s-0.7,0.1-1.1,0.7c-0.3,0.5-0.4,1-0.2,1.3c0.2,0.3,0.5,0.7,0.9,1.3c0.3,0.5,0.7,0.8,0.9,1.1
		s0.7,0.2,1.3,0.1c0.6-0.3,1-0.6,1.2-0.9c0.2-0.3,0.3-0.8,0.3-1.5c0-0.5-0.2-0.9-0.5-1.1C248.4,76.8,248,76.6,247.5,76.5z
		 M248.3,94.5c-0.3-0.3-0.7-0.4-1.1-0.2c-0.3,0.2-0.6,0.4-0.8,0.5s-0.2,0.4-0.2,0.8c0.1,0.3,0.2,0.5,0.5,0.5s0.5,0,0.9,0.1
		c0.3,0.1,0.6,0.1,0.8,0.1c0.2,0,0.4-0.2,0.5-0.5c0.1-0.3,0.1-0.5,0-0.6S248.6,94.8,248.3,94.5z M252.1,84c-0.1-0.4-0.3-0.6-0.6-0.7
		c-0.3,0-0.7-0.1-1.1-0.1c-0.5,0-0.9,0-1.2,0s-0.5,0.2-0.7,0.7c-0.1,0.5-0.1,0.8,0.2,0.9s0.6,0.3,1,0.6c0.3,0.2,0.5,0.4,0.7,0.5
		s0.4,0,0.7-0.2c0.4-0.3,0.7-0.5,0.9-0.7C252.2,84.8,252.2,84.5,252.1,84z M251.1,38c-0.4-0.1-0.7-0.1-0.9,0
		c-0.2,0.2-0.4,0.5-0.7,0.9c-0.5,0.5-0.5,1.1-0.2,1.6c0.4,0.5,1,0.7,1.6,0.5c0.4-0.1,0.7-0.2,0.9-0.4c0.2-0.2,0.3-0.5,0.3-0.9
		c0-0.5,0-0.9-0.2-1.2C251.8,38.4,251.5,38.2,251.1,38z M253.6,60.8c-0.3-0.3-0.6-0.5-0.8-0.6c-0.2-0.1-0.5-0.1-0.9,0.2
		c-0.4,0.2-0.6,0.4-0.6,0.7s0,0.6,0.1,1c0.1,0.5,0.3,0.8,0.4,1s0.4,0.3,0.9,0.4c0.4,0,0.7-0.1,0.9-0.2s0.3-0.5,0.5-0.9
		C254.3,61.7,254.1,61.2,253.6,60.8z M257.1,95.3c-0.5-0.7-0.9-1-1.4-1.1s-1.1,0.1-1.9,0.4c-0.8,0.3-1.2,0.6-1.5,0.9
		s-0.4,0.9-0.4,1.6c0,0.8,0.1,1.4,0.3,1.8c0.2,0.4,0.7,0.7,1.4,1c1,0.3,1.7,0.5,2.2,0.6s1.1-0.2,1.7-1.1s0.8-1.5,0.6-2
		C258.1,96.8,257.7,96.2,257.1,95.3z M260.5,45.7c-1.2-0.2-2.3-0.4-3.2-0.7s-1.7-0.3-2.3-0.1c-0.7,0.2-1.3,0.8-1.8,1.9
		s-0.7,2-0.5,2.6c0.2,0.7,0.7,1.2,1.5,1.8c0.8,0.5,1.6,1.3,2.5,2.1c1.1,1.1,2,1.9,2.7,2.5c0.7,0.5,1.8,0.5,3.2-0.2
		c1.6-0.9,2.7-1.7,3.2-2.5s0.6-2.1,0.4-3.9c-0.3-1.6-0.9-2.6-1.8-2.8C263.4,46.1,262.2,45.9,260.5,45.7z M256.9,75.6
		c-0.3-0.5-0.7-0.6-1-0.5s-0.7,0.4-1.3,0.6c-0.4,0.1-0.7,0.3-0.9,0.4c-0.2,0.1-0.3,0.4-0.3,0.8s0.1,0.7,0.3,0.8
		c0.2,0.1,0.5,0.3,0.9,0.4c0.5,0.2,0.8,0.3,1.1,0.4c0.2,0,0.5-0.1,0.9-0.5c0.3-0.5,0.6-1,0.7-1.3S257.2,76,256.9,75.6z M259.8,68.4
		c-0.5-0.5-1-0.9-1.3-1.2s-0.8-0.2-1.5,0.1c-0.9,0.3-1.5,0.7-1.8,1s-0.4,0.9-0.4,1.8c0.1,0.8,0.3,1.3,0.8,1.5c0.4,0.2,1,0.4,1.8,0.6
		c0.8,0.2,1.4,0.3,1.9,0.4c0.4,0,0.9-0.3,1.3-1c0.5-0.7,0.6-1.2,0.4-1.6C260.7,69.5,260.3,69,259.8,68.4z M257.5,87.4
		c-0.8-0.1-1.3,0.1-1.6,0.6c-0.3,0.5-0.4,0.8-0.5,1.1s0.1,0.6,0.4,1c0.3,0.3,0.7,0.5,0.9,0.5c0.3,0,0.7-0.2,1.1-0.4
		c0.5-0.2,0.8-0.4,1-0.6s0.2-0.5,0.2-1c-0.1-0.5-0.2-0.8-0.4-0.9C258.3,87.6,258,87.5,257.5,87.4z M261.3,38.3l-0.4-0.8l-0.7,0.4
		l-0.5,1.1l1.3,0.3L261.3,38.3z M267.4,62.1c-0.5-0.7-0.9-1.1-1.3-1.1c-0.4-0.1-1,0-1.8,0.2s-1.4,0.5-1.7,0.8
		c-0.3,0.3-0.5,0.9-0.5,1.7c0,0.8,0.2,1.3,0.5,1.5s0.8,0.5,1.6,0.8c0.6,0.2,1.1,0.2,1.4,0.1s0.7-0.5,1.1-1.1c0.5-0.5,0.8-1,1.1-1.4
		C267.9,63.2,267.8,62.7,267.4,62.1z M272.3,62.3c-0.7,0-1.1,0.1-1.3,0.4c-0.2,0.3-0.4,0.7-0.7,1.3c-0.3,0.8-0.5,1.3-0.6,1.8
		c-0.1,0.4,0.1,0.9,0.7,1.4c0.5,0.4,1,0.4,1.3,0.1c0.3-0.4,0.8-0.8,1.4-1.3c0.6-0.3,1.2-0.6,1.6-0.8c0.5-0.2,0.6-0.6,0.4-1.3
		c-0.2-0.8-0.5-1.2-0.9-1.4C273.7,62.4,273.1,62.3,272.3,62.3z M292.8,67.8c-2-0.9-3.8-1.4-5.2-1.5s-2.7,0.2-3.9,0.9
		c-1.2,0.7-2.5,1.9-4,3.6c-1.2,1.4-1.7,2.6-1.4,3.6s0.9,2.1,1.9,3.1c1,1.1,2,2.4,2.9,3.9c1,1.7,2,2.9,2.8,3.5
		c0.8,0.6,2.2,0.7,4.1,0.2c2.3-0.5,4.1-1.1,5.2-1.6s1.9-2,2.1-4.4c0.1-2,0.2-3.7,0.2-5.1s-0.3-2.5-1-3.5
		C295.9,69.4,294.7,68.6,292.8,67.8z M281.1,89.4L280,90l0.1,1.1l1.1,0.3l0.6-1L281.1,89.4z M285.5,96l-1-0.3l-0.8,0.7l0.7,0.9
		l0.9-0.3L285.5,96z M288.2,40.4c-0.1-0.5-0.3-0.8-0.5-1s-0.5-0.3-1-0.3c-0.5,0-1,0.1-1.2,0.2c-0.3,0.2-0.5,0.5-0.6,1
		c-0.2,0.5-0.2,1-0.1,1.2s0.4,0.6,0.9,0.9c0.4,0.3,0.8,0.4,1,0.3c0.3-0.1,0.6-0.2,1-0.5C288.3,41.7,288.4,41.1,288.2,40.4z
		 M287.4,47.7c-0.4-0.2-0.7-0.2-0.9,0s-0.4,0.4-0.7,0.7c-0.3,0.4-0.6,0.7-0.9,0.9s-0.3,0.5,0,0.9c0.3,0.5,0.6,0.9,0.9,1.1
		s0.7,0.2,1.3,0.2c0.6-0.1,1-0.3,1.2-0.6s0.3-0.7,0.4-1.3c0.1-0.5,0-0.9-0.2-1.1C288.3,48.1,287.9,47.9,287.4,47.7z M290,57
		c-0.6-0.5-1.2-0.5-1.8-0.1c-0.7,0.5-0.9,1.1-0.7,1.8c0.1,0.4,0.2,0.6,0.5,0.7c0.3,0,0.7,0.1,1.1,0.1c0.5,0,0.9-0.3,1.1-0.8
		c0.1-0.4,0.2-0.7,0.2-0.9C290.5,57.5,290.4,57.3,290,57z M291.4,44.9h-1.2l-0.5,0.7l0.6,0.8l0.9-0.4L291.4,44.9z M291.6,38.1
		l-0.9,0.4l0.1,1.1l1-0.3l0.5-0.6L291.6,38.1z M293.3,47.3l-1.2,0.2l-0.3,1.2l1.2,0.6l0.4-1L293.3,47.3z M297.1,99l-0.7-0.7
		l-0.8,0.6l0.2,0.9l0.9,0.1L297.1,99z M301.4,52.6c-0.1-0.7-0.4-1.1-0.7-1.3c-0.3-0.2-0.8-0.3-1.5-0.4s-1.1,0-1.4,0.2
		c-0.2,0.2-0.5,0.7-0.8,1.3c-0.2,0.5-0.2,0.8,0,1.1s0.5,0.6,0.9,0.9c0.5,0.4,0.9,0.7,1.2,0.9c0.3,0.2,0.7,0.1,1.2-0.2
		c0.6-0.4,1-0.8,1.2-1.1C301.6,53.8,301.6,53.3,301.4,52.6z"/>
	<path class="st1" d="M333.5,105c-3.4,0-6.6-0.8-9.6-2.4s-5.5-4.2-7.3-7.6c-1.9-3.4-2.8-7.8-2.8-13.2V53.7c0-0.8,0.3-1.4,0.8-1.9
		c0.5-0.5,1.2-0.8,1.9-0.8h19.5c0.8,0,1.4,0.3,1.9,0.8c0.5,0.5,0.8,1.2,0.8,1.9v27.4c0,3.7,1.7,5.6,5.1,5.6c3.4,0,5.1-1.9,5.1-5.6
		V53.7c0-0.8,0.3-1.4,0.8-1.9c0.5-0.5,1.2-0.8,1.9-0.8H371c0.8,0,1.4,0.3,1.9,0.8c0.5,0.5,0.8,1.2,0.8,1.9v47.5
		c0,0.8-0.3,1.4-0.8,1.9c-0.5,0.5-1.2,0.8-1.9,0.8h-17.8c-0.8,0-1.4-0.3-1.9-0.8c-0.5-0.5-0.8-1.2-0.8-1.9v-3.4
		c-1.7,2.5-4,4.3-7,5.5C340.4,104.5,337.1,105,333.5,105z M320.8,71.7c-0.3-0.3-0.5-0.5-0.8-0.6s-0.6,0-1.1,0.1
		c-0.5,0.1-0.8,0.6-0.9,1.3c-0.1,0.4,0.2,0.8,0.8,1c0.5,0.2,0.8,0.1,1.1-0.2c0.3-0.3,0.6-0.6,0.8-0.8C321,72.4,321,72.1,320.8,71.7z
		 M327,58.8c-0.8-0.8-1.5-1.2-2.1-1.2s-1.4,0.2-2.4,0.7c-1,0.5-1.7,0.9-2.1,1.4s-0.5,1.3-0.4,2.3c0.1,1.1,0.4,1.8,0.9,2.2
		s1.3,0.7,2.3,0.9c1,0.2,1.6,0.1,2-0.3c0.4-0.4,0.8-1,1.3-1.9c0.5-0.9,0.9-1.6,1.1-2.1C328,60.3,327.7,59.6,327,58.8z M325.6,78
		c-0.1-0.8-0.3-1.2-0.8-1.2c-0.5-0.1-1.1-0.2-1.8-0.3c-0.5-0.2-1-0.3-1.3-0.2c-0.3,0.1-0.6,0.3-1,0.8c-0.3,0.6-0.5,1-0.6,1.4
		c-0.1,0.4,0.1,0.8,0.6,1.3c0.4,0.5,0.8,0.8,1.2,0.9s0.9,0,1.6-0.3c0.8-0.3,1.3-0.5,1.7-0.8C325.5,79.3,325.7,78.8,325.6,78z
		 M322.8,86.1c-0.4-0.6-0.9-0.8-1.5-0.6c-0.8,0.2-1.1,0.6-1.1,1.2c0,0.8,0.3,1.3,1,1.5c0.3,0.1,0.6,0.1,0.7-0.1
		c0.1-0.2,0.3-0.4,0.5-0.7s0.4-0.5,0.5-0.7C323,86.6,323,86.3,322.8,86.1z M331.3,89.7c-0.3-0.9-0.6-1.7-0.7-2.3s-0.7-0.9-1.7-0.9
		c-1,0-1.5,0.3-1.6,0.9c-0.1,0.6-0.3,1.3-0.6,2.3c-0.2,0.7-0.2,1.2,0,1.5c0.2,0.3,0.5,0.7,1.1,1.1c0.5,0.4,1,0.6,1.3,0.6
		c0.3,0,0.8-0.2,1.3-0.6c0.5-0.4,0.9-0.8,1-1.1C331.6,90.8,331.5,90.3,331.3,89.7z M330.2,98.7c-0.3-0.5-0.8-0.8-1.4-0.6
		c-0.5,0.1-0.8,0.2-1,0.3s-0.3,0.4-0.4,0.8s0,0.7,0.3,0.7c0.3,0.1,0.6,0.2,0.9,0.3c0.3,0.1,0.5,0.2,0.7,0.3s0.4,0,0.6-0.3
		C330.4,99.7,330.5,99.2,330.2,98.7z M331.8,81.3c-0.1-0.3-0.3-0.6-0.4-0.8c-0.1-0.2-0.4-0.3-0.7-0.2c-0.5,0.1-1,0.1-1.2,0.2
		c-0.3,0.1-0.5,0.4-0.6,0.9c-0.1,0.5,0,0.9,0.2,1.2c0.2,0.2,0.5,0.5,1.1,0.8c0.4,0.2,0.7,0.2,0.9,0s0.4-0.4,0.8-0.7
		C332.1,82.3,332.1,81.8,331.8,81.3z M333.3,53.4c-0.7-0.1-1.1,0-1.4,0.3c-0.2,0.3-0.5,0.7-0.7,1.3c-0.3,0.5-0.3,0.9-0.2,1.2
		c0.1,0.3,0.4,0.6,0.8,1c0.5,0.4,0.9,0.7,1.2,0.9c0.3,0.2,0.7,0.1,1.3-0.2c0.6-0.3,0.9-0.7,1-1.1c0-0.4,0-0.9-0.2-1.5
		c-0.1-0.7-0.3-1.2-0.5-1.5C334.4,53.7,333.9,53.5,333.3,53.4z M334,68.6c-0.3-0.5-0.6-0.7-1-0.6c-0.5,0.1-0.7,0.5-0.7,1.1
		c0,0.3,0,0.6,0,0.9c0,0.2,0.2,0.4,0.6,0.6c0.5,0.2,0.8,0.3,1.1,0.2c0.2,0,0.5-0.2,0.8-0.7c0.3-0.3,0.3-0.5,0.1-0.7
		C334.5,69.2,334.2,69,334,68.6z M336.9,98c-0.3-0.3-0.5-0.5-0.8-0.4s-0.6,0.2-1,0.3c-0.5,0.1-0.8,0.2-1.1,0.4
		c-0.2,0.1-0.4,0.4-0.4,0.9s0.1,0.8,0.4,0.9c0.3,0.1,0.6,0.2,1,0.2c0.5,0.2,1,0.3,1.2,0.4c0.3,0.1,0.6-0.1,0.9-0.5
		c0.3-0.4,0.4-0.8,0.2-1.1C337.5,98.8,337.3,98.4,336.9,98z M336,74.8l-1-0.4l-0.8,0.6l0.6,0.7l1.1,0.4L336,74.8z M340.3,94.9
		c-0.3-0.1-0.5-0.2-0.7-0.1s-0.4,0.3-0.6,0.6c-0.3,0.3-0.5,0.5-0.6,0.7c-0.1,0.2-0.1,0.4,0.1,0.8c0.2,0.4,0.4,0.7,0.6,0.8
		s0.5,0.2,0.9,0.1s0.7-0.2,0.7-0.5c0.1-0.2,0.1-0.6,0.2-1.1C341.1,95.7,340.8,95.2,340.3,94.9z M342.2,91.2l-0.9-0.6l-0.6,0.9
		l0.3,1.1l1-0.5L342.2,91.2z M348.1,96.3c-0.1-0.5-0.4-0.8-0.8-0.9c-0.4,0-0.9-0.1-1.5-0.2s-1.1-0.2-1.5-0.2c-0.4-0.1-0.8,0.1-1,0.7
		c-0.3,0.7-0.3,1.2-0.2,1.6s0.4,0.8,0.9,1.3c0.5,0.4,0.8,0.5,1.1,0.2s0.7-0.5,1.2-0.8c0.5-0.3,1-0.5,1.3-0.6
		C348,97.2,348.1,96.9,348.1,96.3z M353.3,58.3l-1-0.3l-0.8,0.4l0.3,0.8l1.1,0.3L353.3,58.3z M355,54.3l-1-0.4l-0.8,0.6l0.5,0.7
		l0.7,0.1L355,54.3z M354.7,70.3c-0.5-0.3-1-0.2-1.2,0.2c-0.2,0.2-0.3,0.4-0.2,0.5s0.2,0.3,0.3,0.6c0.2,0.3,0.3,0.7,0.4,0.9
		s0.3,0.4,0.6,0.3c0.4-0.1,0.6-0.3,0.5-0.6s-0.1-0.6,0-1C355.2,70.7,355,70.4,354.7,70.3z M359.9,89c-0.5-1-0.9-1.8-1.2-2.4
		c-0.3-0.6-1.1-0.8-2.2-0.7c-1.2,0.1-1.8,0.6-1.8,1.3s-0.2,1.7-0.4,2.8c-0.2,1-0.4,1.8-0.5,2.4c-0.1,0.6,0.3,1.2,1.2,1.7
		c1,0.5,1.8,0.7,2.4,0.5s1.3-0.7,2.2-1.5c0.8-0.7,1.1-1.3,1.1-1.8C360.5,90.7,360.3,90,359.9,89z M365.2,57.8
		c-0.9-1-1.7-1.5-2.3-1.5c-0.7,0-1.6,0.3-2.9,0.8c-1.6,0.5-2.8,1-3.7,1.3c-0.9,0.3-1.3,1.2-1.3,2.8c0.1,1.8,0.5,2.9,1.3,3.5
		c0.8,0.5,2,1.1,3.7,1.5c1.4,0.4,2.4,0.3,3-0.2s1.3-1.5,2.1-2.8c0.8-1.1,1.2-2,1.2-2.7C366.4,59.8,366,58.9,365.2,57.8z M357.5,101
		l-0.7-1l-0.8,0.7l-0.1,0.7l0.8,0.2L357.5,101z M359,82.4l-1.1,0.5l0.3,1.2l1.2,0.2l0.1-1L359,82.4z M361.1,74.8
		c-0.2-0.3-0.4-0.6-0.5-0.8c-0.1-0.2-0.4-0.2-0.8-0.1c-0.6,0.2-0.9,0.7-0.9,1.4c0,0.5,0.3,0.9,1,1.1c0.5,0.1,0.9,0,1.2-0.5
		C361.4,75.7,361.4,75.3,361.1,74.8z M366.2,86.2c-0.5-0.1-1-0.1-1.2,0.1c-0.3,0.1-0.5,0.4-0.7,0.9c-0.2,0.4-0.2,0.7,0,1
		s0.4,0.5,0.8,0.9c0.4,0.3,0.7,0.6,1,0.8c0.2,0.2,0.6,0.2,1,0c0.6-0.3,1-0.7,1.2-0.9s0.3-0.7,0.2-1.3c-0.1-0.6-0.4-1-0.7-1.1
		C367.3,86.3,366.8,86.2,366.2,86.2z M368.6,78c-0.5-0.3-0.9-0.5-1.2-0.4c-0.3,0.1-0.7,0.3-1.2,0.6c-0.4,0.3-0.6,0.6-0.7,0.8
		c0,0.3,0,0.7,0.2,1.1c0.1,0.6,0.3,0.9,0.5,1.1c0.2,0.2,0.5,0.3,1,0.3c0.8,0,1.4-0.4,1.7-1.2c0.2-0.5,0.3-1,0.4-1.3
		C369.2,78.8,369,78.4,368.6,78z M369.1,71.7c0-0.5,0-0.8,0-1.1c0-0.2-0.2-0.4-0.7-0.5c-0.5-0.1-0.8-0.2-1.1-0.2s-0.5,0.2-0.8,0.7
		c-0.3,0.4-0.3,0.7-0.2,1c0.1,0.2,0.3,0.6,0.6,1c0.3,0.3,0.5,0.6,0.7,0.7c0.2,0.1,0.5,0.1,0.9-0.1s0.6-0.3,0.6-0.6
		C369.1,72.4,369.1,72.1,369.1,71.7z M367.7,67l-0.7-0.3l-0.3,0.8l0.4,0.8l0.6-0.7L367.7,67L367.7,67z"/>
	<path class="st1" d="M385.7,123.4c-0.8,0-1.4-0.3-1.9-0.8c-0.5-0.5-0.8-1.2-0.8-1.9V53.7c0-0.8,0.3-1.4,0.8-1.9
		c0.5-0.5,1.2-0.8,1.9-0.8H403c0.8,0,1.4,0.3,1.9,0.8c0.5,0.5,0.8,1.2,0.8,1.9v3.1c1.6-2,3.6-3.6,6.1-4.9c2.5-1.3,5.5-1.9,9-1.9
		c3.9,0,7.5,0.8,10.7,2.3c3.2,1.6,5.7,4.1,7.7,7.5c2,3.4,3.1,8,3.3,13.7c0.1,1.5,0.1,2.8,0.1,4s0,2.5-0.1,4.1
		c-0.2,5.3-1.3,9.7-3.2,13.2c-1.9,3.5-4.5,6.1-7.7,7.8c-3.2,1.7-6.8,2.6-10.7,2.6c-2.9,0-5.4-0.5-7.8-1.4s-4.2-2.5-5.8-4.7v21.7
		c0,0.8-0.3,1.4-0.8,1.9c-0.5,0.5-1.2,0.8-1.9,0.8L385.7,123.4L385.7,123.4L385.7,123.4z M387,56.2l-1-0.4l-0.6,1.2l1,0.7l1.1-0.4
		L387,56.2z M387.5,82.1l-1.4-0.1l-0.1,1.5l1.3,0.6l0.8-1.1L387.5,82.1z M390.6,75.4c-0.1-0.5-0.2-1-0.2-1.3c-0.1-0.3-0.4-0.5-1-0.7
		c-0.7-0.1-1.2-0.2-1.7-0.2s-0.8,0.3-1.2,1c-0.4,0.6-0.5,1.1-0.2,1.4s0.7,0.8,1.2,1.3c0.4,0.5,0.8,0.8,1.1,1.1
		c0.3,0.2,0.8,0.2,1.4-0.1c0.6-0.3,0.9-0.6,0.8-1C390.7,76.6,390.7,76,390.6,75.4z M389.1,110.7l-1-0.6l-0.9,0.6l0.4,0.8l0.8,0.1
		L389.1,110.7z M389.8,115.7l-1.2-0.7l-0.8,1l0.6,0.8l1.2,0.4L389.8,115.7z M392.8,55.4c-0.6-0.2-1.1-0.2-1.4-0.1
		c-0.3,0.1-0.7,0.5-1,1c-0.4,0.5-0.6,1-0.5,1.3c0.1,0.3,0.3,0.7,0.6,1.3c0.4,0.5,0.8,0.9,1.1,1c0.3,0.1,0.8,0.1,1.4-0.1
		c0.8-0.3,1.3-0.5,1.6-0.8c0.3-0.3,0.5-0.8,0.5-1.5s-0.2-1.2-0.6-1.4C394.1,55.8,393.6,55.6,392.8,55.4z M394.6,93.9
		c-0.1-0.5-0.2-0.8-0.5-1c-0.2-0.2-0.6-0.3-1.1-0.5c-0.8-0.1-1.3,0.1-1.7,0.8c-0.3,0.7-0.3,1.3,0.2,1.8c0.5,0.5,1,0.7,1.7,0.4
		c0.5-0.2,0.8-0.4,1.1-0.6C394.5,94.8,394.6,94.5,394.6,93.9z M395.2,81.8c-1-0.2-1.6-0.2-2,0.1s-0.8,0.8-1.3,1.6
		c-0.5,0.7-0.7,1.2-0.7,1.7c0,0.4,0.3,1,0.9,1.6c0.6,0.8,1.1,1.3,1.5,1.8c0.4,0.4,1.1,0.5,2,0.1c1-0.3,1.5-0.8,1.7-1.3
		c0.2-0.5,0.3-1.4,0.2-2.4c-0.1-0.9-0.2-1.6-0.6-2C396.8,82.4,396.1,82.1,395.2,81.8z M395.4,117.1c-0.4-0.4-0.8-0.6-1.1-0.4
		c-0.3,0.1-0.7,0.3-1.2,0.6c-0.5,0.3-0.8,0.5-1.1,0.7s-0.4,0.5-0.3,1.1c0.1,0.5,0.4,0.9,0.7,0.9c0.3,0.1,0.7,0.1,1.3,0.2
		c0.5,0.1,0.8,0.1,1.1,0s0.5-0.3,0.7-0.8c0.3-0.5,0.4-0.9,0.5-1.2C396,117.8,395.8,117.5,395.4,117.1z M394.4,110.5
		c-0.5-0.4-1-0.4-1.5,0c-0.4,0.3-0.7,0.5-0.9,0.7s-0.2,0.5,0,0.9c0.1,0.4,0.3,0.6,0.6,0.6s0.6,0,1.1,0c0.5,0,0.8,0,1.1,0.1
		s0.5-0.2,0.6-0.6c0.1-0.5,0.1-0.8,0-1C395.1,111.1,394.8,110.8,394.4,110.5z M398.6,65.7c-1-0.2-1.7-0.2-2.1,0.1s-0.9,0.8-1.4,1.6
		c-0.5,0.9-0.8,1.7-0.8,2.2s0.3,1.2,1,1.9c0.7,0.8,1.3,1.2,1.9,1.3s1.3-0.1,2.3-0.5c0.9-0.4,1.3-0.9,1.3-1.4c0-0.5-0.1-1.3-0.2-2.2
		c-0.1-0.9-0.3-1.7-0.4-2.1S399.6,65.8,398.6,65.7z M401.9,99.5c-1-0.5-1.7-0.6-2.2-0.4c-0.5,0.2-1.1,0.7-1.9,1.5
		c-0.8,0.7-1.2,1.3-1.3,1.8c-0.1,0.5,0,1.2,0.5,2c0.5,1,0.9,1.8,1.3,2.2c0.4,0.4,1.2,0.6,2.3,0.5c1-0.2,1.7-0.6,1.9-1.1
		s0.5-1.3,0.7-2.3c0.1-1.1,0.2-1.9,0.1-2.4C403.4,100.6,402.9,100.1,401.9,99.5z M401.7,74.3c-0.7-0.2-1.2-0.1-1.4,0.2
		s-0.6,0.8-1,1.4c-0.4,0.7-0.7,1.2-1,1.6s-0.1,0.9,0.5,1.5c0.5,0.6,0.9,0.8,1.3,0.5c0.4-0.3,1-0.5,1.7-0.8c0.5-0.3,0.9-0.5,1.1-0.8
		s0.2-0.6,0.2-1.2c-0.1-0.7-0.1-1.2-0.2-1.7S402.5,74.5,401.7,74.3z M401.8,55.2c-0.8-0.1-1.3,0.1-1.5,0.6c-0.2,0.5-0.4,1.1-0.8,1.8
		c-0.3,0.7-0.7,1.2-0.9,1.7c-0.3,0.4-0.1,0.9,0.5,1.5c0.7,0.6,1.3,0.9,1.7,0.9s1.1-0.3,1.9-0.8c0.7-0.3,1.1-0.7,1.2-1.1s0.1-1,0-1.8
		c-0.2-0.8-0.4-1.4-0.6-1.9C403.2,55.6,402.7,55.3,401.8,55.2z M402.3,118.4l-0.8,0.2l-0.3,0.6l0.6,0.5l0.5-0.5L402.3,118.4
		L402.3,118.4z M410.8,92.4c-0.1-1.2-0.5-2-1.1-2.2s-1.5-0.5-2.7-0.8c-1.2-0.3-2.2-0.4-2.8-0.5c-0.7,0-1.3,0.5-2,1.6
		c-0.5,0.9-0.5,1.7,0,2.1c0.5,0.5,1.2,1.2,1.9,2s1.3,1.7,1.7,2.3s1.1,0.8,2.3,0.3c1.3-0.5,2.1-1.1,2.4-1.8
		C410.8,94.9,410.9,93.8,410.8,92.4z M412.4,86.8c1.9,0,3.2-0.5,3.8-1.6c0.7-1.1,1.1-2.5,1.3-4.3c0.2-2.2,0.2-4.5,0-6.7
		c-0.2-1.8-0.6-3.3-1.3-4.3s-1.9-1.6-3.8-1.6c-1.9,0-3.2,0.5-3.9,1.6c-0.7,1.1-1.1,2.5-1.2,4.3c-0.1,1.5-0.1,2.7-0.1,3.7
		c0,1,0,2.3,0.1,3.8c0.1,1.6,0.6,2.9,1.4,3.8C409.5,86.3,410.7,86.8,412.4,86.8z M414.1,58.1c-0.3-0.4-0.5-0.7-0.7-0.9
		s-0.5-0.2-1-0.2c-0.5,0.1-0.7,0.3-0.8,0.6c0,0.3-0.1,0.7-0.2,1.1c-0.1,0.4-0.1,0.7,0,0.9c0.1,0.2,0.3,0.4,0.7,0.6
		c0.5,0.2,0.8,0.3,1.1,0.4c0.3,0,0.6-0.1,0.9-0.5c0.3-0.4,0.5-0.8,0.4-1C414.6,59,414.4,58.6,414.1,58.1z M421.8,92
		c-1-1-1.7-1.8-2.3-2.3c-0.6-0.5-1.5-0.5-2.8,0.2s-1.7,1.3-1.5,2.1c0.2,0.8,0.4,1.9,0.6,3.2c0.2,1.2,0.4,2.2,0.6,2.9
		s0.9,1.1,2.1,1.2c1.4,0.3,2.5,0.3,3.2,0s1.4-1.1,2-2.3c0.5-1.2,0.6-2,0.2-2.7S422.7,92.9,421.8,92z M432.8,66.3
		c-1.5-1.4-2.8-2-3.8-1.8c-1,0.2-2.5,0.9-4.2,1.9c-1.5,0.8-2.4,1.7-2.7,2.6s-0.2,2.1,0.1,3.8c0.3,1.6,0.8,2.6,1.5,3.1
		c0.7,0.5,1.8,0.8,3.4,1c1.8,0.2,3.3,0.3,4.3,0.4s2-0.8,2.7-2.4c1-2,1.4-3.5,1.2-4.6C435.2,69,434.4,67.7,432.8,66.3z M425.2,56.3
		c-0.4-0.3-0.7-0.4-1-0.1s-0.6,0.5-1.1,0.8c-0.3,0.2-0.6,0.4-0.8,0.5c-0.2,0.1-0.3,0.4-0.2,0.8c0.1,0.4,0.3,0.7,0.5,0.8
		s0.5,0.2,1,0.3c0.5,0.1,0.8,0.1,1.1,0.1c0.3,0,0.5-0.3,0.7-0.8c0.2-0.5,0.3-1,0.3-1.3S425.6,56.7,425.2,56.3z M424.1,86.9l-1.2-0.6
		l-0.2,1.4l0.7,1.2l1.1-1L424.1,86.9z M427.9,97.9c-0.6-0.1-1.1-0.1-1.3,0.1s-0.5,0.4-0.8,0.9c-0.2,0.5-0.2,0.8,0,1.1
		s0.5,0.5,0.8,0.9s0.6,0.6,0.9,0.7s0.6,0.1,1-0.2c0.5-0.3,0.8-0.5,1-0.7s0.2-0.6,0.2-1.1c-0.1-0.5-0.3-0.9-0.5-1.1
		S428.5,98,427.9,97.9z M429.1,54.7c-0.3-0.3-0.5-0.6-0.7-0.8s-0.5-0.2-0.9-0.1c-0.4,0.2-0.6,0.4-0.6,0.7s0,0.7,0.1,1.1
		c0.1,0.6,0.4,0.9,1,1c0.3,0.1,0.6,0.1,0.9,0.2s0.5-0.1,0.7-0.5c0.2-0.3,0.2-0.6,0.2-0.8C429.6,55.4,429.4,55.1,429.1,54.7z
		 M432,92.1c-0.6-0.6-1.1-1.1-1.5-1.3c-0.4-0.3-1-0.2-1.6,0.3c-0.8,0.4-1.1,0.8-1,1.3s0.2,1.1,0.4,1.9c0.1,0.6,0.4,1,0.7,1.1
		s0.8,0.2,1.4,0.3c0.7,0.1,1.2,0.1,1.6,0.1s0.8-0.3,1-0.9c0.3-0.7,0.3-1.2,0.2-1.5C432.9,93,432.5,92.6,432,92.1z M435.4,59
		c-0.5-0.2-0.8-0.3-1.1-0.4c-0.2,0-0.5,0.1-0.9,0.5c-0.3,0.4-0.3,0.7-0.1,0.9c0.2,0.2,0.4,0.5,0.7,0.8c0.3,0.5,0.6,0.9,0.7,1.2
		c0.1,0.3,0.4,0.4,0.9,0.3c0.5-0.2,0.8-0.5,0.9-0.8c0-0.3,0-0.7,0-1.3c0-0.4-0.1-0.7-0.2-0.8C436.1,59.3,435.8,59.2,435.4,59z
		 M436.9,85c-0.1-0.5-0.3-0.8-0.4-1c-0.1-0.2-0.4-0.3-0.8-0.3s-0.7,0.1-0.8,0.3c-0.1,0.2-0.2,0.5-0.4,0.9c-0.2,0.5-0.1,0.9,0.4,1.2
		c0.3,0.2,0.5,0.4,0.7,0.5s0.4,0.1,0.7-0.2C436.8,86.1,437,85.7,436.9,85z"/>
	<g>
		<path class="st2" d="M95.3,60.4C95,60,94.6,59.9,94,60.2c-0.3,0.1-0.5,0.2-0.7,0.4c-0.2,0.1-0.3,0.3-0.3,0.7c0,0.4,0,0.7,0.2,0.9
			c0.1,0.2,0.4,0.3,0.8,0.4c0.5,0.1,0.8,0.2,1.1,0.2s0.5-0.2,0.8-0.6c0.3-0.4,0.3-0.7,0.1-0.9C95.8,61,95.6,60.7,95.3,60.4z"/>
		<path class="st2" d="M110,54.2c0.3-0.2,0.3-0.5,0.2-1c-0.1-0.5-0.4-0.8-0.7-0.9c-0.3-0.1-0.7-0.1-1.3-0.1c-0.8-0.1-1.3,0.3-1.5,1
			c-0.2,0.4-0.3,0.8-0.2,1c0,0.3,0.2,0.5,0.6,0.8c0.4,0.3,0.7,0.5,1,0.4s0.6-0.2,1-0.5C109.4,54.6,109.7,54.4,110,54.2z"/>
		<path class="st2" d="M105.6,33.8c0.2,0.2,0.5,0.2,0.9,0c0.5-0.2,0.7-0.4,0.7-0.7c0-0.3,0-0.7,0-1.1c0-0.4-0.3-0.7-0.9-0.9
			c-0.5-0.1-0.8-0.2-1.1-0.4c-0.3-0.2-0.5,0-0.8,0.4c-0.3,0.4-0.3,0.7-0.2,1s0.4,0.6,0.7,1C105.2,33.4,105.4,33.6,105.6,33.8z"/>
		<path class="st2" d="M103.8,37.5c-0.2,0.3-0.4,0.7-0.6,1.3c-0.2,0.6-0.4,1.1-0.5,1.5c-0.1,0.4,0.1,0.8,0.7,1.2
			c0.5,0.4,1,0.5,1.3,0.4c0.3-0.1,0.8-0.4,1.3-0.8c0.7-0.4,1.2-0.8,1.6-1c0.4-0.3,0.5-0.8,0.3-1.5c-0.3-0.8-0.6-1.3-1.1-1.3
			s-1.1-0.1-2-0.1C104.4,37.1,104,37.2,103.8,37.5z"/>
		<path class="st2" d="M98.2,31.9c-0.3,0-0.6,0-0.8,0c-0.2,0-0.3,0.2-0.4,0.6c-0.2,0.6-0.1,1.1,0.4,1.5c0.5,0.3,1,0.2,1.5-0.1
			c0.4-0.3,0.5-0.8,0.3-1.3C99.1,32.1,98.7,31.9,98.2,31.9z"/>
		<path class="st2" d="M105.9,58.9c-0.5,0.1-0.9,0.2-1.2,0.3c-0.3,0.1-0.5,0.3-0.5,0.8c0,0.5,0.1,0.9,0.3,1.2
			c0.2,0.2,0.6,0.5,1.1,0.7c0.4,0.1,0.7,0.1,0.8-0.2s0.4-0.5,0.7-0.9c0.4-0.5,0.5-1,0.2-1.4C107,59,106.6,58.8,105.9,58.9z"/>
		<path class="st2" d="M104.7,65.4c-0.9-0.4-1.6-0.7-2.1-0.7c-0.5-0.1-1.1,0.3-1.8,1c-0.7,0.7-1,1.3-0.9,1.8s0.3,1.2,0.8,2.1
			c0.4,0.8,0.8,1.3,1.2,1.6c0.4,0.2,1,0.3,1.9,0.2c1-0.2,1.6-0.5,2-0.8c0.4-0.3,0.6-1,0.8-1.9c0.1-0.9,0-1.5-0.2-1.9
			C106.1,66.2,105.5,65.8,104.7,65.4z"/>
		<path class="st2" d="M100.9,24c0.5,0.5,1,0.9,1.3,1.2c0.3,0.3,0.8,0.2,1.4-0.2c0.6-0.4,0.9-0.8,0.8-1.2c-0.1-0.4-0.2-1-0.4-1.7
			c-0.1-0.5-0.4-0.9-0.7-1c-0.3-0.1-0.7-0.1-1.3-0.1c-0.6,0-1.1,0-1.3,0.1c-0.3,0.1-0.5,0.4-0.7,0.9c-0.2,0.5-0.2,0.9,0,1.2
			C100.1,23.4,100.5,23.7,100.9,24z"/>
		<polygon class="st2" points="100.1,54.1 99.9,54.9 100.2,55.7 101,55.3 100.8,54.5 		"/>
		<path class="st2" d="M96.6,47.6c-0.4,0.2-1,0.4-1.7,0.6c-0.6,0.2-1.1,0.4-1.4,0.5c-0.3,0.1-0.5,0.5-0.5,1.2c0,0.8,0.1,1.5,0.2,1.9
			c0.1,0.4,0.6,0.8,1.4,1.1c0.8,0.2,1.4,0.2,1.8,0c0.4-0.2,0.8-0.7,1.3-1.4c0.5-0.7,0.8-1.2,0.9-1.6c0.1-0.4-0.1-1-0.7-1.6
			C97.4,47.6,97,47.4,96.6,47.6z"/>
		<path class="st2" d="M137,15.2c0.2,0,0.6,0,1.1,0c0.3,0,0.5-0.1,0.6-0.3c0.1-0.2,0.2-0.5,0.3-0.8c0.1-0.6,0-1-0.3-1.3
			c-0.6-0.3-1.1-0.3-1.5,0c-0.3,0.3-0.6,0.5-0.8,0.7c-0.2,0.2-0.2,0.5,0,0.9C136.5,14.9,136.8,15.2,137,15.2z"/>
		<polygon class="st2" points="136.4,18.3 136.7,19.2 137.8,18.9 137.9,17.8 136.8,17.4 		"/>
		<path class="st2" d="M146.9,41.7c0.2,0.3,0.5,0.3,1,0c0.6-0.2,1-0.5,1.1-0.8c0.1-0.3,0.2-0.8,0.1-1.4c-0.1-1-0.6-1.6-1.5-1.8
			c-0.5-0.1-0.9-0.1-1.1,0.2c-0.2,0.2-0.4,0.6-0.7,1.1c-0.3,0.5-0.3,1.1,0.1,1.6C146.4,41.1,146.7,41.4,146.9,41.7z"/>
		<path class="st2" d="M106.4,18.7c0.6,0.6,1.1,1,1.5,1.2c0.4,0.2,1,0.1,1.7-0.3c0.9-0.5,1.5-0.9,1.9-1.3s0.5-1.1,0.3-2.1
			c-0.1-1-0.5-1.5-1.1-1.5s-1.4-0.2-2.3-0.3c-1-0.1-1.7-0.2-2.3-0.3s-1.1,0.3-1.5,1.2c-0.5,0.9-0.5,1.5,0,1.9
			C105.1,17.5,105.7,18.1,106.4,18.7z"/>
		<polygon class="st2" points="136.1,23.7 136.7,23 136.1,22.3 135.2,22.5 135.3,23.4 		"/>
		<polygon class="st2" points="125.2,63.3 126,63.7 126.6,62.9 126,62.2 125,62.3 		"/>
		<path class="st2" d="M121.9,17.5c0.7,1.1,1.3,1.9,1.7,2.3c0.5,0.4,1.3,0.5,2.5,0.2c1.2-0.3,1.9-0.7,2.1-1.4
			c0.2-0.6,0.3-1.6,0.5-2.8c0.1-1.1,0-1.9-0.3-2.4s-0.9-0.9-1.8-1.3c-1.4-0.6-2.5-1.2-3.4-1.6c-0.8-0.5-1.7-0.1-2.7,1
			c-1,1.2-1.2,2.1-0.7,2.9C120.4,15.2,121.1,16.2,121.9,17.5z"/>
		<path class="st2" d="M135,40.7c0.3,0,0.7-0.1,1.1-0.2c0.4-0.1,0.7-0.2,0.7-0.5c0.1-0.2,0.1-0.6,0.1-1s0-0.8,0-1s-0.2-0.5-0.6-0.6
			c-0.9-0.3-1.6-0.2-2,0.5c-0.5,0.7-0.6,1.4-0.1,2.1C134.5,40.5,134.7,40.7,135,40.7z"/>
		<path class="st2" d="M110.5,71.7c-0.5-0.1-0.8-0.1-1.1-0.1c-0.2,0-0.5,0.2-0.7,0.6c-0.4,0.6-0.4,1.2,0.1,1.8
			c0.5,0.6,1,0.8,1.7,0.5c0.8-0.3,1.2-0.8,1.1-1.5c0-0.4-0.1-0.7-0.3-0.9C111.2,72,110.9,71.8,110.5,71.7z"/>
		<path class="st2" d="M141.3,60.2c-0.5-0.4-1-0.6-1.3-0.5s-0.8,0.3-1.3,0.6c-0.5,0.3-0.8,0.7-0.9,1s0,0.8,0.2,1.4
			c0.2,0.9,0.8,1.4,1.7,1.4c1,0.1,1.6-0.3,1.9-1.2c0.2-0.6,0.3-1.1,0.4-1.5C142.1,61,141.9,60.6,141.3,60.2z"/>
		<path class="st2" d="M139.5,29c-0.8-0.3-1.4-0.2-1.8,0c-0.4,0.3-0.8,0.8-1.4,1.5c-0.5,0.7-0.9,1.2-1.1,1.6s-0.1,1,0.4,1.7
			c0.5,0.8,1,1.2,1.4,1.3c0.5,0.1,1.2,0,2-0.2c1-0.3,1.7-0.5,2.2-0.8s0.8-0.9,0.9-1.9c0.1-1.1-0.1-1.8-0.5-2.2
			C141.2,29.8,140.5,29.5,139.5,29z"/>
		<path class="st2" d="M136.4,45.9c-1-0.4-1.7-0.2-2.3,0.5c-0.7,0.8-0.8,1.5-0.2,2.3c0.3,0.5,0.6,0.8,0.9,0.9s0.7,0.1,1.3,0
			c0.5-0.1,0.9-0.3,1-0.6s0.2-0.7,0.3-1.2s0-1,0-1.2C137.2,46.3,136.9,46.1,136.4,45.9z"/>
		<path class="st2" d="M149.5,52.1c-1-0.3-1.7-0.4-2.1-0.1c-0.5,0.3-1,0.8-1.6,1.6c-0.6,0.8-1,1.5-1.1,2c-0.1,0.5,0.2,1.2,0.8,2
			c0.5,0.8,1.1,1.2,1.6,1.1s1.3-0.2,2.2-0.5c0.7-0.3,1-0.6,1.1-1s0.1-1,0.1-1.7c0-0.9,0-1.6,0.2-2.2
			C150.8,52.8,150.4,52.4,149.5,52.1z"/>
		<polygon class="st2" points="134.9,68 134.2,69 135.5,69.2 136.4,68.7 135.9,67.5 		"/>
		<path class="st2" d="M145.6,47.2c0.6-0.3,0.9-0.8,0.8-1.2c-0.1-0.4-0.2-0.7-0.2-0.9c-0.1-0.2-0.4-0.3-0.8-0.4
			c-0.5-0.1-0.8,0-1,0.1c-0.2,0.1-0.3,0.4-0.5,0.8c-0.2,0.3-0.3,0.6-0.4,0.9s0.1,0.5,0.4,0.8c0.3,0.3,0.5,0.5,0.8,0.4
			C145,47.5,145.3,47.3,145.6,47.2z"/>
		<polygon class="st2" points="144.7,29.6 144.3,28.8 143.5,29.3 143.6,30.2 144.5,30.5 		"/>
		<path class="st2" d="M144.4,22c0.1-0.2,0.1-0.5,0.2-1c0.1-0.4,0.1-0.7,0-1s-0.3-0.5-0.6-0.7c-0.6-0.2-1.1-0.4-1.4-0.5
			s-0.7,0-1.1,0.5c-0.4,0.5-0.6,0.9-0.5,1.2c0.1,0.3,0.3,0.7,0.6,1.3c0.2,0.5,0.5,0.7,0.8,0.8c0.3,0,0.7,0,1.2,0
			C144.1,22.4,144.3,22.2,144.4,22z"/>
		<polygon class="st2" points="120.7,65.1 121.5,65.6 122.1,64.8 121.9,64 120.6,63.8 		"/>
		<path class="st2" d="M126.9,68.5c-0.4-0.4-1.3-0.7-2.5-0.9c-1.2-0.1-2,0-2.5,0.3s-1.1,1.1-1.6,2.1c-0.5,1.1-0.7,2-0.6,2.6
			c0.1,0.7,0.6,1.3,1.6,2.1c0.9,0.8,1.7,1.3,2.3,1.3c0.7,0.1,1.5-0.2,2.5-0.8c1-0.6,1.7-1.2,1.9-1.8c0.2-0.6,0.2-1.4,0-2.6
			C127.7,69.7,127.3,68.9,126.9,68.5z"/>
		<path class="st2" d="M118.5,63.7c-0.3-0.1-0.8-0.2-1.2-0.3c-0.6-0.1-1.1,0-1.4,0.5c-0.3,0.4-0.5,0.8-0.7,1s-0.1,0.6,0.2,1
			c0.3,0.4,0.7,0.6,1,0.5s0.7-0.2,1.2-0.5c0.5-0.2,0.8-0.4,1.1-0.5s0.4-0.4,0.4-1C119,64.1,118.8,63.8,118.5,63.7z"/>
		<polygon class="st2" points="111.9,63 112,63.7 112.7,63.9 112.5,62.8 		"/>
		<polygon class="st2" points="135.3,55.8 135.1,54.5 134.1,53.5 133.2,54.9 134,55.8 		"/>
		<path class="st2" d="M134.9,60.9c0-0.9-0.4-1.4-1.1-1.6c-0.4-0.1-0.7-0.1-0.8,0.2c-0.1,0.2-0.3,0.5-0.6,0.9
			c-0.3,0.3-0.5,0.6-0.7,0.8s-0.2,0.5,0,0.9c0.3,0.3,0.6,0.5,0.9,0.5s0.6-0.2,1.1-0.4c0.4-0.1,0.7-0.3,0.9-0.4
			C134.8,61.6,134.9,61.3,134.9,60.9z"/>
		<path class="st0" d="M155.5,33.4c-0.2-6-1.8-11-4.6-15.2S144,10.9,139,8.7s-10.9-3.3-17.5-3.3c-6.7,0-12.5,1.1-17.5,3.3
			c-5,2.2-9,5.3-11.8,9.5c-2.9,4.2-4.4,9.2-4.7,15.2c-0.2,6.1-0.2,12.1,0,18c0.3,6.1,1.8,11.1,4.7,15.2c2.9,4.1,6.8,7.2,11.8,9.2
			s10.8,3.1,17.5,3.1c6.7,0,12.5-1,17.5-3.1s8.9-5.1,11.8-9.2c2.9-4.1,4.5-9.2,4.7-15.2C155.7,45.5,155.7,39.6,155.5,33.4z
			 M145.9,39c0.3-0.5,0.5-0.8,0.7-1.1c0.2-0.2,0.5-0.3,1.1-0.2c1,0.2,1.5,0.8,1.5,1.8c0.1,0.6,0,1.1-0.1,1.4
			c-0.1,0.3-0.5,0.6-1.1,0.8c-0.5,0.3-0.8,0.2-1,0c-0.2-0.3-0.5-0.7-0.9-1.1C145.6,40.1,145.6,39.6,145.9,39z M136.4,13.5
			c0.2-0.2,0.4-0.4,0.8-0.7c0.4-0.3,0.9-0.3,1.5,0c0.3,0.3,0.4,0.7,0.3,1.3c-0.1,0.3-0.2,0.6-0.3,0.8c-0.1,0.2-0.3,0.3-0.6,0.3
			c-0.5,0-0.8,0-1.1,0c-0.2,0-0.5-0.3-0.7-0.8C136.2,14.1,136.2,13.7,136.4,13.5z M137.9,17.8l-0.1,1.1l-1,0.2l-0.3-0.8l0.4-0.9
			L137.9,17.8z M136.1,22.3l0.6,0.7l-0.6,0.7l-0.8-0.3l-0.1-0.9L136.1,22.3z M134.3,37.9c0.5-0.7,1.2-0.8,2-0.5
			c0.4,0.1,0.6,0.3,0.6,0.6s0,0.6,0,1s0,0.7-0.1,1c-0.1,0.2-0.3,0.4-0.7,0.5c-0.5,0.1-0.8,0.2-1.1,0.2s-0.5-0.2-0.8-0.6
			C133.7,39.3,133.8,38.6,134.3,37.9z M120.5,11.6c1-1.2,1.8-1.5,2.7-1c0.8,0.5,1.9,1,3.4,1.6c1,0.4,1.6,0.9,1.8,1.3
			c0.3,0.5,0.4,1.3,0.3,2.4c-0.1,1.2-0.3,2.2-0.5,2.8c-0.2,0.6-0.9,1.1-2.1,1.4c-1.2,0.3-2.1,0.2-2.5-0.2c-0.5-0.4-1.1-1.2-1.7-2.3
			c-0.8-1.3-1.4-2.3-2-3.1C119.3,13.7,119.5,12.8,120.5,11.6z M126.6,62.9l-0.6,0.8l-0.8-0.4l-0.2-1l1-0.1L126.6,62.9z M115.6,31.6
			c0.1-1.2,0.4-2.1,0.9-2.5s1.2-0.8,2.4-1c1.2-0.3,2-0.3,2.6,0c0.6,0.2,1.2,0.9,1.8,1.9c0.6,1,0.9,1.8,0.8,2.5
			c-0.1,0.7-0.5,1.4-1.3,2.3c-0.8,1-1.4,1.5-2.1,1.6c-0.7,0.1-1.5-0.1-2.6-0.6c-1.1-0.5-1.8-1.1-2.1-1.6
			C115.6,33.6,115.5,32.8,115.6,31.6z M104.7,15.3c0.4-0.9,0.9-1.3,1.5-1.2c0.6,0.1,1.3,0.2,2.3,0.3c1,0.1,1.7,0.2,2.3,0.3
			c0.6,0.1,1,0.6,1.1,1.5c0.2,1,0.1,1.7-0.3,2.1s-1,0.9-1.9,1.3c-0.8,0.4-1.3,0.5-1.7,0.3c-0.4-0.2-0.9-0.6-1.5-1.2
			c-0.8-0.7-1.3-1.2-1.8-1.6C104.2,16.8,104.2,16.2,104.7,15.3z M105,37.1c0.9,0,1.5,0,2,0.1s0.8,0.5,1.1,1.3
			c0.2,0.8,0.1,1.3-0.3,1.5s-1,0.6-1.6,1c-0.5,0.4-1,0.7-1.3,0.8s-0.8,0-1.3-0.4s-0.8-0.8-0.7-1.2c0.1-0.4,0.2-0.9,0.5-1.5
			c0.2-0.6,0.4-1,0.6-1.3C104,37.2,104.4,37.1,105,37.1z M104.3,31.1c0.3-0.4,0.5-0.5,0.8-0.4c0.3,0.2,0.7,0.3,1.1,0.4
			c0.6,0.2,0.9,0.5,0.9,0.9c0,0.5,0,0.8,0,1.1c0,0.3-0.2,0.5-0.7,0.7c-0.4,0.1-0.7,0.1-0.9,0c-0.2-0.2-0.5-0.4-0.8-0.8
			c-0.3-0.4-0.6-0.7-0.7-1C104,31.8,104,31.5,104.3,31.1z M95.9,62.1c-0.3,0.4-0.5,0.6-0.8,0.6c-0.3,0-0.7-0.1-1.1-0.2
			c-0.4-0.1-0.7-0.2-0.8-0.4c-0.1-0.2-0.2-0.5-0.2-0.9c0-0.3,0.1-0.6,0.3-0.7c0.2-0.1,0.4-0.2,0.7-0.4c0.5-0.2,1-0.1,1.3,0.2
			c0.3,0.3,0.5,0.6,0.7,0.8C96.2,61.4,96.2,61.7,95.9,62.1z M98.4,49.9c-0.1,0.4-0.4,1-0.9,1.6s-0.9,1.1-1.3,1.4s-1,0.2-1.8,0
			c-0.8-0.3-1.3-0.6-1.4-1.1s-0.2-1.1-0.2-1.9c0-0.7,0.2-1.1,0.5-1.2c0.3-0.1,0.8-0.3,1.4-0.5c0.8-0.2,1.3-0.4,1.7-0.6
			c0.4-0.2,0.8,0,1.2,0.6C98.3,48.9,98.5,49.4,98.4,49.9z M98.9,33.9c-0.5,0.3-1,0.4-1.5,0.1c-0.5-0.4-0.6-0.9-0.4-1.5
			c0.1-0.3,0.2-0.5,0.4-0.6c0.2,0,0.5,0,0.8,0c0.5,0,0.9,0.2,1,0.7C99.4,33.2,99.3,33.6,98.9,33.9z M100,22c0.2-0.5,0.4-0.9,0.7-0.9
			s0.7-0.1,1.3-0.1c0.5,0,1,0,1.3,0.1c0.3,0.1,0.5,0.4,0.7,1c0.2,0.8,0.3,1.3,0.4,1.7c0.1,0.4-0.2,0.8-0.8,1.2
			c-0.6,0.4-1.1,0.5-1.4,0.2s-0.7-0.7-1.3-1.2c-0.5-0.3-0.8-0.6-1-0.9C99.8,22.9,99.8,22.6,100,22z M101,55.3l-0.8,0.4l-0.3-0.8
			l0.2-0.7l0.7,0.4L101,55.3z M106.7,68.5c-0.1,0.9-0.4,1.6-0.8,1.9s-1,0.6-2,0.8c-0.9,0.1-1.5,0.1-1.9-0.2s-0.8-0.8-1.2-1.6
			c-0.5-0.9-0.8-1.6-0.8-2.1s0.2-1.1,0.9-1.8c0.7-0.8,1.3-1.1,1.8-1c0.5,0.1,1.2,0.3,2.1,0.7c0.8,0.4,1.4,0.8,1.7,1.2
			C106.7,67,106.8,67.6,106.7,68.5z M107.2,60.9c-0.3,0.3-0.6,0.6-0.7,0.9c-0.1,0.2-0.4,0.3-0.8,0.2c-0.5-0.2-0.9-0.4-1.1-0.7
			s-0.3-0.6-0.3-1.2c0-0.5,0.2-0.8,0.5-0.8s0.8-0.2,1.2-0.3c0.6-0.1,1.1,0,1.4,0.5C107.6,59.8,107.6,60.3,107.2,60.9z M107.1,55.1
			c-0.3-0.3-0.5-0.5-0.6-0.8c0-0.3,0-0.6,0.2-1c0.3-0.8,0.8-1.1,1.5-1c0.5,0,1,0,1.3,0.1c0.3,0.1,0.5,0.4,0.7,0.9
			c0.1,0.5,0.1,0.8-0.2,1c-0.3,0.2-0.6,0.4-1,0.8c-0.4,0.2-0.7,0.4-1,0.5C107.8,55.5,107.5,55.4,107.1,55.1z M110.6,74.5
			c-0.7,0.3-1.3,0.1-1.7-0.5c-0.5-0.6-0.5-1.2-0.1-1.8c0.2-0.3,0.4-0.5,0.7-0.6s0.6,0,1.1,0.1c0.4,0.1,0.7,0.3,0.9,0.5
			c0.2,0.2,0.3,0.5,0.3,0.9C111.8,73.8,111.4,74.3,110.6,74.5z M112,63.7l-0.1-0.7l0.6-0.2l0.2,1.1L112,63.7z M114.8,55.3
			c0.5-0.8,1-1.9,1.6-3.4c0.4-1,0.8-1.6,1.3-1.8c0.5-0.3,1.3-0.4,2.3-0.3c1.2,0.1,2.2,0.3,2.8,0.5s1.1,0.9,1.4,2.1s0.2,2.1-0.2,2.6
			c-0.4,0.5-1.2,1.1-2.3,1.7c-1.3,0.8-2.3,1.4-3.1,2S117,59,115.8,58C114.6,57,114.3,56.1,114.8,55.3z M122.1,64.8l-0.5,0.7
			l-0.8-0.5l-0.1-1.2l1.2,0.2L122.1,64.8z M118.6,65.5c-0.3,0.1-0.7,0.2-1.1,0.5c-0.5,0.2-0.9,0.4-1.2,0.5s-0.6-0.1-1-0.5
			c-0.3-0.4-0.3-0.8-0.2-1s0.4-0.6,0.7-1c0.3-0.5,0.8-0.7,1.4-0.5c0.5,0.1,0.9,0.2,1.2,0.3c0.3,0.1,0.5,0.3,0.5,0.8
			C119,65.1,118.9,65.4,118.6,65.5z M127.9,73.5c-0.2,0.6-0.9,1.2-1.9,1.8c-1,0.6-1.8,0.9-2.5,0.8c-0.7-0.1-1.4-0.5-2.3-1.3
			c-1-0.8-1.5-1.4-1.6-2.1c-0.1-0.7,0.1-1.5,0.6-2.6c0.5-1.1,1.1-1.8,1.6-2.1s1.4-0.4,2.5-0.3c1.2,0.1,2.1,0.4,2.5,0.9
			s0.8,1.2,1,2.4C128.1,72,128.2,72.9,127.9,73.5z M129.9,42c0,0.3-0.3,0.6-0.8,0.8c-0.5,0.3-1,0.5-1.3,0.6
			c-0.3,0.1-0.7-0.1-1.2-0.5c-0.5-0.4-0.7-0.8-0.5-1.1c0.1-0.3,0.3-0.8,0.5-1.4c0.2-0.3,0.4-0.5,0.7-0.6c0.2-0.1,0.6-0.1,1,0
			c0.5,0.1,0.8,0.1,1,0.2c0.2,0.1,0.4,0.3,0.5,0.8C130,41.3,130,41.7,129.9,42z M132.6,62.5c-0.2,0-0.5-0.1-0.9-0.5
			c-0.2-0.4-0.2-0.7,0-0.9s0.4-0.5,0.7-0.8s0.5-0.6,0.6-0.9c0.1-0.2,0.4-0.3,0.8-0.2c0.8,0.2,1.1,0.8,1.1,1.6c0,0.4-0.1,0.7-0.3,0.8
			c-0.2,0.1-0.5,0.3-0.9,0.4C133.2,62.3,132.8,62.4,132.6,62.5z M133.2,54.9l0.9-1.3l1,1l0.2,1.2H134L133.2,54.9z M135.5,69.2
			l-1.3-0.2l0.7-1l1-0.5l0.5,1.2L135.5,69.2z M137.4,47.8c-0.1,0.5-0.2,1-0.3,1.2s-0.5,0.5-1,0.6c-0.5,0.1-1,0.1-1.3,0
			s-0.6-0.4-0.9-0.9c-0.5-0.8-0.5-1.6,0.2-2.3c0.6-0.8,1.4-0.9,2.3-0.5c0.5,0.2,0.8,0.4,0.9,0.7C137.4,46.9,137.4,47.3,137.4,47.8z
			 M141.6,62.8c-0.3,0.9-1,1.3-1.9,1.2s-1.5-0.5-1.7-1.4c-0.2-0.6-0.3-1.1-0.2-1.4s0.4-0.6,0.9-1c0.5-0.3,1-0.5,1.3-0.6
			c0.3-0.1,0.8,0.1,1.3,0.5c0.5,0.4,0.8,0.8,0.7,1.2C142,61.7,141.8,62.2,141.6,62.8z M142.1,32.4c-0.1,1-0.4,1.7-0.9,1.9
			s-1.2,0.5-2.2,0.8c-0.9,0.2-1.6,0.2-2,0.2s-1-0.5-1.4-1.3c-0.5-0.8-0.6-1.3-0.4-1.7c0.2-0.4,0.6-1,1.1-1.6s1-1.2,1.4-1.5
			c0.4-0.3,1-0.3,1.8,0c1,0.4,1.7,0.8,2.1,1.2C142,30.6,142.2,31.3,142.1,32.4z M142.4,22.6c-0.3,0-0.6-0.3-0.8-0.8
			c-0.3-0.5-0.5-1-0.6-1.3c-0.1-0.3,0.1-0.7,0.5-1.2c0.4-0.5,0.8-0.6,1.1-0.5c0.3,0.1,0.8,0.3,1.4,0.5c0.3,0.2,0.5,0.4,0.6,0.7
			c0.1,0.2,0.1,0.6,0,1c-0.1,0.5-0.1,0.8-0.2,1c-0.1,0.2-0.3,0.4-0.8,0.5C143.1,22.6,142.7,22.6,142.4,22.6z M143.5,29.3l0.8-0.4
			l0.4,0.7l-0.2,0.9l-0.9-0.3L143.5,29.3z M144,47.2c-0.3-0.3-0.4-0.5-0.4-0.8c0-0.2,0.2-0.5,0.4-0.9c0.1-0.4,0.3-0.7,0.5-0.8
			c0.2-0.1,0.5-0.2,1-0.1c0.4,0.1,0.7,0.2,0.8,0.4c0.1,0.2,0.2,0.5,0.2,0.9c0.1,0.5-0.2,0.9-0.8,1.2c-0.3,0.1-0.6,0.3-0.9,0.4
			C144.5,47.7,144.3,47.5,144,47.2z M150.5,55.6c0,0.8,0,1.3-0.1,1.7c-0.1,0.4-0.4,0.8-1.1,1c-1,0.3-1.7,0.4-2.2,0.5
			s-1.1-0.3-1.6-1.1c-0.6-0.8-0.9-1.5-0.8-2s0.5-1.2,1.1-2s1.2-1.4,1.6-1.6c0.5-0.3,1.2-0.2,2.1,0.1c0.9,0.3,1.3,0.7,1.2,1.3
			C150.6,54,150.5,54.7,150.5,55.6z"/>
	</g>
</g>
</svg>
