<?xml version="1.0" encoding="utf-8"?>
<!-- Generator: Adobe Illustrator 25.4.1, SVG Export Plug-In . SVG Version: 6.00 Build 0)  -->
<svg version="1.1" id="Layer_1" xmlns="http://www.w3.org/2000/svg" xmlns:xlink="http://www.w3.org/1999/xlink" x="0px" y="0px"
	 viewBox="0 0 46.34 14.21" style="enable-background:new 0 0 46.34 14.21;" xml:space="preserve">
<style type="text/css">
	.st0{fill:#A8A8A7;}
	.st1{fill:#FDC300;}
	.st2{fill:none;}
	.st3{fill:#FFFFFF;}
</style>
<path class="st0" d="M1.4,10.99c-0.07,0-0.14-0.03-0.19-0.08s-0.08-0.12-0.08-0.19v-6.6c0-0.07,0.03-0.14,0.08-0.19
	C1.26,3.88,1.32,3.85,1.4,3.85h1.61c0.14,0,0.24,0.04,0.31,0.11s0.11,0.13,0.13,0.16l1.48,2.45L6.4,4.12
	c0.02-0.03,0.07-0.09,0.13-0.16C6.6,3.88,6.7,3.85,6.84,3.85h1.61c0.07,0,0.14,0.03,0.19,0.08c0.06,0.06,0.09,0.12,0.09,0.2v6.59
	c0,0.07-0.03,0.14-0.08,0.19c-0.06,0.05-0.12,0.08-0.19,0.08H6.61c-0.08,0-0.14-0.03-0.19-0.08s-0.08-0.12-0.08-0.19v-2.8l-0.67,1.1
	C5.63,9.08,5.58,9.13,5.52,9.19C5.46,9.25,5.38,9.28,5.28,9.28H4.57c-0.1,0-0.18-0.03-0.24-0.09s-0.1-0.11-0.14-0.17l-0.67-1.1v2.8
	c0,0.07-0.03,0.14-0.08,0.19c-0.05,0.05-0.12,0.08-0.19,0.08L1.4,10.99L1.4,10.99z M1.59,4.35L1.46,4.39l-0.1,0.1l0.13,0.08
	l0.13-0.06L1.59,4.35z M1.63,7.39L1.56,7.33L1.53,7.42l0.03,0.06l0.08-0.01L1.63,7.39z M2.07,7.93C1.99,7.88,1.92,7.83,1.88,7.8
	C1.83,7.77,1.77,7.78,1.69,7.84C1.61,7.9,1.57,7.96,1.58,8.01c0.01,0.06,0.03,0.13,0.06,0.22c0.03,0.1,0.06,0.16,0.09,0.2
	c0.03,0.04,0.1,0.06,0.19,0.06c0.12,0,0.22-0.01,0.29-0.02c0.08,0,0.13-0.07,0.17-0.18C2.41,8.17,2.39,8.1,2.32,8.07
	C2.25,8.05,2.16,8,2.07,7.93z M1.97,5.28C1.95,5.22,1.94,5.17,1.93,5.14C1.91,5.12,1.88,5.1,1.81,5.1c-0.06,0-0.1,0.01-0.13,0.03
	C1.66,5.15,1.64,5.18,1.61,5.25c-0.02,0.05-0.02,0.08,0,0.11C1.63,5.38,1.66,5.41,1.7,5.44C1.76,5.49,1.83,5.5,1.9,5.45
	C1.96,5.41,1.99,5.35,1.97,5.28z M2.67,5.93C2.49,5.86,2.35,5.85,2.25,5.88c-0.1,0.04-0.2,0.13-0.33,0.28
	C1.87,6.25,1.84,6.32,1.86,6.38c0.01,0.05,0.05,0.11,0.1,0.17c0.05,0.06,0.11,0.14,0.16,0.22c0.08,0.12,0.15,0.21,0.2,0.29
	C2.36,7.13,2.45,7.14,2.59,7.1C2.73,7.06,2.81,7,2.82,6.92s0.02-0.2,0.03-0.35c0.01-0.11,0.02-0.2,0.03-0.29
	c0.01-0.08,0-0.15-0.02-0.2C2.84,6.02,2.77,5.97,2.67,5.93z M2.44,9.19c0-0.05,0-0.09,0-0.12S2.42,9.02,2.37,9.01
	C2.32,9,2.29,9,2.27,9.03C2.25,9.05,2.23,9.08,2.2,9.12c-0.02,0.05-0.02,0.1,0.02,0.15c0.04,0.06,0.09,0.08,0.14,0.06
	C2.41,9.31,2.44,9.26,2.44,9.19z M2.59,9.92l-0.1-0.06L2.34,9.85l0.01,0.17H2.5L2.59,9.92z M3.05,5.25C3.03,5.2,2.99,5.18,2.93,5.19
	c-0.03,0-0.06,0-0.09,0.01c-0.02,0-0.04,0.02-0.06,0.06c-0.01,0.04,0,0.07,0.03,0.07c0.02,0,0.05,0.01,0.09,0.03
	C2.92,5.38,2.95,5.4,2.96,5.42C2.98,5.43,3,5.43,3.04,5.4c0.03-0.02,0.04-0.04,0.04-0.07C3.07,5.31,3.06,5.28,3.05,5.25z M3.15,7.95
	L3.04,7.88L2.99,7.99l0.03,0.08l0.13,0.01V7.95L3.15,7.95z M3.24,7.55L3.19,7.59L3.18,7.66l0.08,0.01L3.28,7.6L3.24,7.55z
	 M3.73,5.91C3.68,5.86,3.63,5.82,3.59,5.8C3.56,5.79,3.51,5.79,3.45,5.83C3.37,5.87,3.32,5.91,3.3,5.95s-0.03,0.1,0,0.19
	c0.01,0.08,0.04,0.12,0.08,0.14s0.1,0.03,0.18,0.05c0.06,0.01,0.1-0.01,0.12-0.04C3.7,6.26,3.72,6.22,3.75,6.16
	c0.03-0.05,0.04-0.1,0.05-0.13C3.8,5.99,3.78,5.95,3.73,5.91z M3.86,6.91c-0.02-0.03-0.05-0.03-0.1,0C3.73,6.92,3.7,6.93,3.69,6.94
	C3.67,6.95,3.66,6.96,3.66,6.99c0.01,0.05,0.04,0.09,0.11,0.1s0.11,0,0.13-0.05c0.02-0.03,0.03-0.05,0.02-0.07
	C3.91,6.96,3.89,6.94,3.86,6.91z M4.66,7.29c-0.08-0.03-0.14-0.03-0.18,0S4.39,7.37,4.33,7.45C4.27,7.52,4.22,7.58,4.19,7.63
	C4.16,7.67,4.17,7.74,4.22,7.82c0.06,0.09,0.12,0.15,0.17,0.17C4.45,8,4.53,8,4.63,7.97C4.72,7.94,4.77,7.9,4.78,7.85
	c0-0.05,0.01-0.13,0.01-0.22C4.8,7.54,4.8,7.47,4.8,7.42C4.79,7.36,4.75,7.32,4.66,7.29z M5.16,8.08C5.11,8.06,5.07,8.05,5.04,8.07
	c-0.03,0.02-0.06,0.05-0.1,0.09c-0.06,0.06-0.06,0.12-0.02,0.2C4.94,8.4,4.96,8.43,4.97,8.45c0.02,0.02,0.05,0.03,0.11,0.02
	C5.13,8.46,5.17,8.45,5.2,8.43c0.03-0.02,0.05-0.05,0.06-0.11C5.27,8.25,5.27,8.2,5.25,8.17C5.25,8.14,5.21,8.11,5.16,8.08z
	 M5.84,6.74C5.76,6.68,5.68,6.66,5.63,6.67c-0.05,0.01-0.12,0.05-0.2,0.12c-0.11,0.09-0.2,0.16-0.28,0.2
	C5.07,7.03,5.05,7.12,5.1,7.25c0.05,0.14,0.12,0.22,0.2,0.24s0.19,0.03,0.35,0.02c0.12-0.01,0.2-0.04,0.24-0.09s0.08-0.14,0.12-0.27
	c0.03-0.1,0.03-0.18,0.01-0.23C5.99,6.87,5.93,6.8,5.84,6.74z M6.79,4.27c-0.05-0.02-0.08-0.02-0.11,0C6.66,4.29,6.63,4.32,6.6,4.36
	C6.57,4.39,6.56,4.42,6.57,4.45c0,0.02,0.02,0.05,0.04,0.08c0.03,0.05,0.08,0.08,0.14,0.06s0.09-0.06,0.1-0.12
	c0-0.05,0-0.1,0.01-0.13C6.86,4.31,6.84,4.29,6.79,4.27z M6.82,5.48c-0.05,0-0.1,0-0.13-0.01c-0.03,0-0.06,0.02-0.08,0.08
	C6.6,5.61,6.59,5.66,6.6,5.69S6.63,5.76,6.68,5.8c0.05,0.04,0.08,0.05,0.11,0.03C6.82,5.81,6.86,5.78,6.9,5.75
	C6.95,5.72,6.98,5.7,7,5.68s0.02-0.06,0.01-0.11C7,5.52,6.98,5.49,6.95,5.49C6.92,5.48,6.88,5.48,6.82,5.48z M6.85,6.91
	C6.81,6.86,6.76,6.85,6.72,6.87C6.67,6.9,6.65,6.94,6.66,7c0.01,0.04,0.02,0.07,0.03,0.1C6.7,7.12,6.73,7.14,6.77,7.15
	s0.07,0,0.08-0.03c0-0.02,0.01-0.05,0.03-0.09C6.9,6.99,6.89,6.95,6.85,6.91z M6.8,10.07l-0.1,0.05v0.12l0.12,0.04l0.07-0.12
	L6.8,10.07z M7.49,8.75C7.4,8.68,7.34,8.66,7.29,8.7s-0.12,0.08-0.2,0.14c-0.1,0.06-0.18,0.1-0.25,0.13C6.77,9,6.75,9.07,6.78,9.18
	C6.81,9.3,6.85,9.38,6.92,9.4c0.07,0.02,0.16,0.04,0.29,0.05c0.1,0.01,0.17-0.02,0.2-0.07c0.03-0.05,0.06-0.12,0.1-0.22
	s0.07-0.17,0.08-0.23C7.6,8.88,7.57,8.81,7.49,8.75z M7.6,4.99C7.52,4.97,7.47,4.98,7.45,5.03C7.43,5.08,7.4,5.13,7.36,5.2
	c-0.04,0.07-0.07,0.12-0.1,0.15C7.23,5.38,7.24,5.43,7.29,5.49s0.1,0.09,0.14,0.1c0.04,0,0.1-0.01,0.18-0.05
	c0.07-0.03,0.11-0.06,0.13-0.1s0.02-0.09,0.02-0.17C7.75,5.2,7.74,5.13,7.73,5.09C7.72,5.04,7.67,5.01,7.6,4.99z M7.61,6.61
	c-0.03-0.04-0.07-0.06-0.1-0.06S7.43,6.57,7.37,6.59C7.33,6.61,7.31,6.63,7.31,6.65c0,0.03,0,0.06,0,0.1c0,0.07,0.03,0.11,0.08,0.12
	C7.46,6.9,7.5,6.92,7.54,6.94c0.03,0.02,0.07,0,0.1-0.05c0.04-0.05,0.06-0.1,0.05-0.14C7.68,6.71,7.66,6.67,7.61,6.61z M7.59,7.32
	c0-0.05,0.01-0.08,0.01-0.11c0.01-0.03,0-0.05-0.04-0.07c-0.05-0.01-0.08-0.01-0.1,0.01C7.44,7.17,7.42,7.2,7.38,7.24
	c-0.03,0.05-0.02,0.1,0.01,0.15c0.03,0.03,0.05,0.06,0.07,0.07s0.05,0.01,0.09,0C7.58,7.45,7.6,7.44,7.6,7.41
	C7.59,7.39,7.59,7.36,7.59,7.32z M8.34,7.86C8.3,7.73,8.25,7.65,8.19,7.61s-0.16-0.06-0.3-0.06c-0.13,0-0.22,0.02-0.27,0.07
	c-0.05,0.04-0.1,0.13-0.14,0.25c-0.03,0.12-0.04,0.2-0.01,0.26c0.03,0.05,0.1,0.11,0.2,0.19c0.08,0.06,0.15,0.08,0.2,0.06
	C7.93,8.36,8,8.32,8.08,8.26c0.1-0.07,0.17-0.12,0.23-0.17C8.36,8.04,8.38,7.97,8.34,7.86z M8.1,10.06
	C8.05,9.98,8.01,9.92,7.98,9.88S7.89,9.83,7.79,9.85S7.63,9.9,7.6,9.94s-0.06,0.11-0.07,0.21s0,0.16,0.03,0.2s0.08,0.08,0.17,0.12
	c0.1,0.05,0.18,0.08,0.24,0.11c0.06,0.02,0.13-0.01,0.2-0.1c0.07-0.07,0.09-0.14,0.06-0.2C8.2,10.23,8.15,10.16,8.1,10.06z
	 M7.94,5.95C7.9,5.94,7.86,5.94,7.83,5.94S7.78,5.96,7.76,6.01C7.74,6.05,7.74,6.08,7.77,6.09s0.06,0.03,0.09,0.06
	c0.03,0.03,0.05,0.07,0.06,0.09S7.96,6.27,8,6.25c0.07-0.03,0.11-0.1,0.09-0.19c0-0.04-0.01-0.07-0.04-0.08
	C8.03,5.97,7.99,5.96,7.94,5.95z M8.1,8.79L7.96,8.82L7.92,8.96l0.13,0.02l0.1-0.06L8.1,8.79z M8.3,4.14
	C8.23,4.09,8.17,4.11,8.1,4.18C8.07,4.2,8.06,4.23,8.07,4.25c0.01,0.02,0.02,0.06,0.05,0.1c0.02,0.03,0.04,0.06,0.05,0.08
	c0,0.02,0.03,0.03,0.07,0.02c0.05-0.01,0.08-0.02,0.11-0.03C8.37,4.41,8.39,4.38,8.4,4.33C8.41,4.24,8.38,4.18,8.3,4.14z"/>
<path class="st0" d="M20.64,11.09c-0.67,0-1.25-0.1-1.75-0.31c-0.5-0.2-0.89-0.51-1.18-0.92s-0.45-0.92-0.47-1.52
	c-0.02-0.59-0.02-1.18,0-1.8c0.03-0.6,0.18-1.1,0.47-1.52c0.29-0.41,0.68-0.73,1.18-0.95c0.5-0.22,1.09-0.33,1.75-0.33
	c0.67,0,1.25,0.11,1.75,0.33c0.5,0.22,0.9,0.53,1.19,0.95c0.29,0.42,0.44,0.92,0.46,1.52c0.02,0.61,0.02,1.21,0,1.8
	c-0.03,0.61-0.18,1.11-0.47,1.52c-0.29,0.41-0.68,0.72-1.18,0.92C21.89,10.99,21.31,11.09,20.64,11.09z M18.28,8.02
	c-0.04-0.06-0.08-0.08-0.12-0.06S18.06,8,17.99,8.02c-0.06,0.02-0.11,0.04-0.14,0.05c-0.03,0.01-0.05,0.05-0.05,0.12
	c0,0.08,0.01,0.14,0.02,0.19c0.01,0.04,0.06,0.08,0.14,0.11c0.08,0.02,0.14,0.02,0.18-0.01c0.04-0.02,0.08-0.07,0.13-0.14
	c0.05-0.07,0.08-0.12,0.09-0.16C18.35,8.14,18.33,8.09,18.28,8.02z M18.03,9.24C18,9.2,17.95,9.19,17.9,9.22
	c-0.03,0.01-0.05,0.03-0.07,0.04S17.8,9.29,17.8,9.33s0.01,0.07,0.01,0.09s0.04,0.03,0.08,0.04c0.05,0.01,0.08,0.02,0.11,0.02
	s0.05-0.02,0.08-0.06s0.03-0.07,0.01-0.09C18.08,9.3,18.06,9.27,18.03,9.24z M18.42,6.46c-0.01-0.05-0.05-0.07-0.1-0.07
	c-0.03,0-0.06,0-0.08,0.01c-0.02,0-0.03,0.02-0.04,0.06c-0.02,0.06-0.01,0.11,0.04,0.15c0.05,0.03,0.1,0.02,0.15-0.01
	C18.43,6.56,18.44,6.52,18.42,6.46z M18.71,5.3c-0.06,0-0.11,0-0.13,0.01c-0.03,0.01-0.05,0.04-0.07,0.09s-0.02,0.09-0.01,0.12
	c0.02,0.02,0.05,0.05,0.1,0.09c0.05,0.05,0.1,0.09,0.13,0.12c0.03,0.03,0.08,0.02,0.14-0.02s0.09-0.08,0.08-0.12
	s-0.02-0.1-0.04-0.17c-0.01-0.05-0.04-0.09-0.07-0.1C18.8,5.3,18.76,5.3,18.71,5.3z M18.97,9.73c-0.09-0.04-0.16-0.07-0.21-0.07
	c-0.05-0.01-0.11,0.03-0.18,0.1c-0.07,0.07-0.1,0.13-0.09,0.18s0.03,0.12,0.08,0.21c0.04,0.08,0.08,0.13,0.12,0.16
	c0.04,0.02,0.1,0.03,0.19,0.01c0.09-0.02,0.16-0.05,0.2-0.08s0.06-0.1,0.08-0.19c0.01-0.09,0.01-0.15-0.02-0.19
	C19.11,9.82,19.05,9.78,18.97,9.73z M18.58,8.65l-0.07-0.04l-0.02,0.07l0.03,0.08l0.08-0.04L18.58,8.65z M19.31,7.05
	c-0.03-0.08-0.06-0.13-0.11-0.13S19.09,6.91,19,6.91c-0.06,0-0.1,0.01-0.12,0.04c-0.02,0.03-0.04,0.07-0.06,0.13
	c-0.02,0.06-0.04,0.11-0.05,0.15c-0.01,0.04,0.01,0.08,0.07,0.12c0.05,0.04,0.1,0.05,0.13,0.04C19,7.38,19.05,7.35,19.1,7.31
	c0.07-0.04,0.12-0.08,0.16-0.1C19.32,7.18,19.33,7.13,19.31,7.05z M19.12,6.31c-0.05-0.01-0.09-0.02-0.11-0.04
	c-0.03-0.02-0.05-0.01-0.08,0.04c-0.03,0.04-0.03,0.07-0.02,0.1c0.01,0.02,0.04,0.06,0.07,0.1c0.03,0.03,0.06,0.06,0.08,0.08
	s0.05,0.02,0.09,0.01c0.05-0.02,0.07-0.04,0.07-0.07s-0.01-0.07-0.01-0.11C19.22,6.36,19.18,6.33,19.12,6.31z M19.24,9.14
	c-0.03-0.05-0.08-0.07-0.14-0.05S19,9.12,18.97,9.12c-0.03,0.01-0.05,0.03-0.05,0.08s0.01,0.09,0.03,0.12
	c0.02,0.02,0.06,0.05,0.11,0.07c0.04,0.01,0.07,0.01,0.08-0.02c0.01-0.02,0.04-0.05,0.07-0.09C19.26,9.23,19.26,9.18,19.24,9.14z
	 M19.69,4.82c-0.01-0.1-0.05-0.15-0.11-0.15s-0.14-0.02-0.24-0.03c-0.09-0.01-0.17-0.02-0.23-0.03S19,4.64,18.96,4.73
	c-0.05,0.09-0.05,0.15,0,0.19c0.04,0.04,0.1,0.09,0.18,0.16c0.06,0.06,0.11,0.1,0.15,0.12c0.04,0.02,0.1,0.01,0.17-0.03
	c0.09-0.05,0.15-0.09,0.19-0.13C19.71,4.99,19.72,4.92,19.69,4.82z M19.52,8.52c-0.01-0.05-0.04-0.09-0.07-0.09
	c-0.03-0.01-0.07-0.01-0.13-0.01c-0.08-0.01-0.13,0.03-0.15,0.1c-0.02,0.04-0.03,0.07-0.03,0.1c0,0.03,0.02,0.05,0.06,0.08
	c0.04,0.03,0.07,0.05,0.1,0.04c0.02-0.01,0.06-0.03,0.1-0.05c0.04-0.03,0.08-0.06,0.1-0.08C19.53,8.6,19.54,8.57,19.52,8.52z
	 M19.55,10.37c-0.05-0.01-0.08-0.01-0.11-0.01c-0.02,0-0.05,0.02-0.07,0.06c-0.04,0.06-0.04,0.12,0.01,0.18
	c0.05,0.06,0.1,0.08,0.17,0.05c0.08-0.03,0.12-0.08,0.11-0.15c0-0.04-0.01-0.07-0.03-0.09C19.62,10.4,19.59,10.38,19.55,10.37z
	 M19.75,9.48L19.68,9.5l0.01,0.07l0.07,0.02L19.75,9.48z M20.64,9.1c0.22,0,0.4-0.07,0.54-0.2c0.14-0.13,0.21-0.34,0.21-0.63
	c0.02-0.58,0.02-1.16,0-1.71c-0.01-0.29-0.08-0.49-0.22-0.63c-0.14-0.13-0.32-0.2-0.53-0.2c-0.22,0-0.39,0.07-0.53,0.2
	s-0.21,0.34-0.22,0.63c-0.02,0.56-0.02,1.13,0,1.71c0.01,0.29,0.09,0.49,0.22,0.63C20.24,9.04,20.42,9.1,20.64,9.1z M20.23,9.54
	c-0.06-0.01-0.11,0-0.14,0.05c-0.03,0.04-0.05,0.07-0.07,0.1C20,9.72,20,9.76,20.03,9.8s0.07,0.06,0.1,0.05s0.07-0.02,0.12-0.05
	c0.05-0.02,0.09-0.04,0.11-0.05c0.03-0.01,0.04-0.04,0.04-0.1c0-0.05-0.02-0.07-0.05-0.08C20.31,9.57,20.27,9.55,20.23,9.54z
	 M21.15,4.42c-0.14-0.06-0.26-0.12-0.34-0.16c-0.08-0.05-0.17-0.01-0.26,0.1c-0.1,0.12-0.12,0.21-0.07,0.29
	c0.06,0.07,0.12,0.18,0.2,0.31c0.07,0.11,0.13,0.18,0.17,0.23c0.05,0.04,0.13,0.05,0.26,0.02c0.12-0.03,0.19-0.07,0.21-0.14
	s0.03-0.16,0.05-0.28c0.01-0.11,0-0.19-0.03-0.23C21.31,4.51,21.25,4.46,21.15,4.42z M20.94,9.96c-0.12-0.01-0.2,0-0.25,0.03
	s-0.11,0.11-0.16,0.21c-0.05,0.11-0.07,0.2-0.06,0.26s0.06,0.13,0.16,0.21c0.09,0.08,0.16,0.13,0.23,0.13
	c0.06,0.01,0.15-0.02,0.25-0.08c0.1-0.06,0.16-0.12,0.19-0.18s0.02-0.14,0-0.26s-0.05-0.19-0.1-0.24C21.14,10,21.06,9.97,20.94,9.96
	z M20.68,9.6l-0.12-0.02l0.01,0.12l0.08,0.05l0.05-0.07L20.68,9.6z M21.16,9.49L21.1,9.42L21,9.43l0.02,0.1l0.08,0.04L21.16,9.49z
	 M21.99,9.29c0-0.09-0.04-0.14-0.11-0.16c-0.04-0.01-0.07-0.01-0.08,0.01s-0.03,0.05-0.06,0.09c-0.03,0.03-0.05,0.06-0.07,0.08
	c-0.02,0.02-0.02,0.05,0,0.09c0.03,0.03,0.06,0.05,0.09,0.05c0.02,0,0.06-0.02,0.11-0.04c0.04-0.01,0.07-0.03,0.09-0.04
	C21.98,9.35,21.99,9.33,21.99,9.29z M22.01,8.65l-0.1-0.1l-0.09,0.13l0.08,0.09h0.13L22.01,8.65z M22.14,7.79
	c-0.09-0.04-0.17-0.02-0.24,0.05s-0.08,0.15-0.02,0.23c0.03,0.05,0.06,0.09,0.09,0.09s0.07,0.01,0.13,0
	c0.05-0.01,0.09-0.03,0.1-0.06s0.02-0.07,0.03-0.12s0.01-0.09,0-0.12S22.19,7.81,22.14,7.79z M22.13,6.94
	c-0.09-0.03-0.16-0.02-0.2,0.05c-0.05,0.07-0.06,0.14-0.01,0.21c0.03,0.04,0.05,0.06,0.08,0.06s0.06-0.01,0.11-0.02
	c0.04-0.01,0.06-0.02,0.07-0.05c0.01-0.02,0.01-0.06,0.01-0.1s0-0.08,0-0.1C22.19,6.97,22.17,6.95,22.13,6.94z M22.09,9.95L21.99,10
	l-0.07,0.1l0.13,0.02l0.09-0.05L22.09,9.95z M22.45,6.1c-0.08-0.03-0.14-0.03-0.18,0.01c-0.04,0.03-0.08,0.08-0.14,0.15
	c-0.05,0.07-0.09,0.12-0.11,0.16s-0.01,0.1,0.04,0.17c0.05,0.07,0.09,0.12,0.14,0.13s0.12,0.01,0.2-0.02
	c0.09-0.03,0.17-0.05,0.22-0.08c0.05-0.02,0.08-0.09,0.09-0.19c0.01-0.11-0.01-0.18-0.05-0.22C22.62,6.18,22.55,6.14,22.45,6.1z
	 M22.11,5.43l-0.09,0.02l0.01,0.09l0.08,0.03l0.06-0.07L22.11,5.43z M22.37,4.48c-0.06-0.03-0.11-0.03-0.15,0
	c-0.03,0.03-0.06,0.05-0.08,0.07s-0.02,0.05-0.01,0.09c0.02,0.05,0.04,0.07,0.07,0.08c0.02,0,0.06,0.01,0.11,0.01
	c0.03,0,0.05-0.01,0.06-0.03s0.02-0.05,0.03-0.08C22.41,4.55,22.4,4.51,22.37,4.48z M22.29,4.98l-0.1-0.04l-0.04,0.09l0.03,0.08
	l0.1-0.02L22.29,4.98z M22.63,9.21c-0.05-0.04-0.1-0.06-0.13-0.05c-0.03,0.01-0.08,0.03-0.13,0.06c-0.05,0.03-0.09,0.07-0.09,0.1
	s0,0.08,0.02,0.14c0.02,0.09,0.08,0.14,0.17,0.14c0.09,0.01,0.16-0.03,0.19-0.12c0.02-0.06,0.03-0.11,0.04-0.15
	C22.71,9.29,22.69,9.26,22.63,9.21z M22.9,5.13c-0.06-0.02-0.11-0.04-0.14-0.05c-0.03-0.01-0.07,0-0.11,0.05s-0.06,0.09-0.05,0.12
	c0.01,0.03,0.03,0.07,0.06,0.13c0.02,0.05,0.05,0.07,0.08,0.08c0.03,0,0.07,0,0.12-0.01c0.05-0.01,0.08-0.03,0.08-0.05
	c0.01-0.02,0.01-0.05,0.02-0.1c0.01-0.04,0.01-0.07,0-0.1C22.95,5.18,22.93,5.16,22.9,5.13z M22.93,6.08l-0.08,0.04l0.01,0.09
	l0.09,0.03l0.02-0.09L22.93,6.08z M23.04,7.66c-0.05-0.01-0.08,0-0.1,0.01s-0.03,0.04-0.05,0.08c-0.02,0.03-0.03,0.06-0.04,0.09
	c0,0.02,0.01,0.05,0.04,0.08c0.03,0.03,0.05,0.05,0.08,0.04s0.05-0.02,0.09-0.04c0.06-0.03,0.09-0.08,0.08-0.12
	s-0.01-0.07-0.02-0.09C23.11,7.68,23.08,7.67,23.04,7.66z M23.45,8.41c-0.09-0.03-0.17-0.04-0.21-0.01
	c-0.05,0.03-0.1,0.08-0.16,0.16s-0.1,0.15-0.11,0.2s0.01,0.12,0.08,0.2c0.05,0.08,0.11,0.12,0.16,0.11s0.13-0.02,0.22-0.05
	c0.07-0.03,0.11-0.06,0.11-0.1c0.01-0.04,0.01-0.1,0.01-0.17c0-0.09,0.01-0.16,0.01-0.22C23.58,8.48,23.54,8.44,23.45,8.41z
	 M23.26,6.98c-0.05-0.01-0.09-0.01-0.1,0.02c-0.02,0.02-0.04,0.06-0.07,0.11c-0.03,0.05-0.03,0.11,0.01,0.16
	c0.04,0.04,0.07,0.08,0.09,0.11s0.05,0.03,0.1,0.01c0.06-0.02,0.1-0.05,0.11-0.08c0.01-0.03,0.02-0.08,0.01-0.14
	C23.41,7.06,23.36,7,23.26,6.98z"/>
<path class="st0" d="M25.26,10.99c-0.07,0-0.14-0.03-0.19-0.08c-0.05-0.05-0.08-0.12-0.08-0.19v-6.6c0-0.07,0.03-0.14,0.08-0.19
	s0.12-0.08,0.19-0.08h1.61c0.14,0,0.24,0.03,0.3,0.09s0.1,0.11,0.12,0.14l1.72,2.82V4.12c0-0.07,0.03-0.14,0.08-0.19
	s0.12-0.08,0.19-0.08h1.85c0.08,0,0.14,0.03,0.19,0.08c0.05,0.05,0.08,0.12,0.08,0.19v6.59c0,0.07-0.03,0.14-0.08,0.19
	c-0.05,0.05-0.12,0.08-0.19,0.08h-1.61c-0.14,0-0.24-0.03-0.3-0.1c-0.06-0.07-0.1-0.11-0.12-0.14l-1.72-2.6v2.56
	c0,0.07-0.03,0.14-0.08,0.19c-0.05,0.05-0.12,0.08-0.19,0.08h-1.85V10.99z M25.67,9.22c-0.01-0.05-0.02-0.09-0.05-0.1
	c-0.03-0.01-0.07-0.02-0.12-0.04c-0.05-0.01-0.09-0.01-0.12-0.01s-0.06,0.02-0.08,0.06c-0.05,0.08-0.04,0.16,0.02,0.23
	c0.04,0.04,0.07,0.07,0.1,0.08s0.07,0,0.12-0.02C25.64,9.39,25.68,9.32,25.67,9.22z M25.61,7.71c0-0.04-0.03-0.07-0.09-0.09
	c-0.05-0.01-0.09,0-0.11,0.03c-0.03,0.03-0.05,0.06-0.06,0.08s0,0.05,0.01,0.08c0.05,0.06,0.11,0.07,0.18,0.04
	c0.04-0.01,0.06-0.03,0.06-0.06C25.61,7.77,25.61,7.74,25.61,7.71z M25.73,5.22c-0.01-0.05-0.03-0.09-0.06-0.11
	c-0.03-0.02-0.07-0.03-0.12-0.04c-0.05-0.01-0.09,0-0.11,0.03c-0.02,0.02-0.04,0.06-0.06,0.11c-0.03,0.08-0.01,0.14,0.04,0.18
	c0.04,0.04,0.08,0.07,0.1,0.09c0.03,0.02,0.07,0.02,0.12-0.01c0.05-0.03,0.09-0.07,0.1-0.1C25.76,5.34,25.75,5.28,25.73,5.22z
	 M25.55,9.86l-0.09-0.05L25.4,9.89l0.04,0.06h0.08L25.55,9.86z M25.81,7.07C25.8,7,25.79,6.95,25.78,6.91s-0.05-0.07-0.12-0.07
	c-0.07-0.01-0.12,0.01-0.14,0.04c-0.03,0.03-0.05,0.09-0.08,0.15c-0.02,0.06-0.02,0.09,0,0.12c0.02,0.02,0.06,0.05,0.11,0.09
	c0.04,0.03,0.07,0.06,0.1,0.07s0.07,0.01,0.11-0.02c0.05-0.03,0.07-0.07,0.08-0.09C25.84,7.17,25.84,7.13,25.81,7.07z M25.76,8.24
	c-0.07-0.02-0.12-0.04-0.15-0.05c-0.03-0.01-0.07,0.01-0.11,0.07c-0.03,0.05-0.04,0.1-0.02,0.13s0.05,0.07,0.09,0.13
	c0.03,0.05,0.06,0.08,0.09,0.11c0.03,0.02,0.07,0.02,0.13,0.01c0.06-0.03,0.1-0.06,0.12-0.09s0.03-0.08,0.03-0.15
	c0-0.05-0.01-0.09-0.05-0.11C25.86,8.26,25.82,8.25,25.76,8.24z M25.85,10.04c-0.03-0.03-0.07-0.04-0.11-0.02
	c-0.03,0.02-0.06,0.04-0.08,0.05s-0.02,0.04-0.01,0.08c0.01,0.03,0.02,0.05,0.05,0.05c0.02,0,0.05,0,0.09,0.01
	c0.03,0.01,0.06,0.01,0.08,0.01s0.04-0.02,0.05-0.05c0.01-0.03,0.01-0.05,0-0.06C25.89,10.09,25.87,10.07,25.85,10.04z M26.22,8.99
	c-0.01-0.04-0.03-0.06-0.06-0.07c-0.03,0-0.06-0.01-0.11-0.01c-0.05,0-0.09,0-0.12,0s-0.05,0.02-0.07,0.07
	c-0.01,0.05-0.01,0.08,0.02,0.09s0.06,0.03,0.1,0.06c0.03,0.02,0.05,0.04,0.07,0.05s0.04,0,0.07-0.02c0.04-0.03,0.07-0.05,0.09-0.07
	C26.23,9.07,26.24,9.04,26.22,8.99z M26.12,4.39c-0.04-0.01-0.07-0.01-0.09,0.01c-0.02,0.02-0.04,0.05-0.07,0.09
	c-0.05,0.05-0.05,0.11-0.02,0.16c0.04,0.05,0.1,0.07,0.16,0.05c0.04-0.01,0.07-0.02,0.09-0.04s0.03-0.05,0.03-0.09
	c0-0.05,0-0.09-0.01-0.12C26.2,4.43,26.17,4.41,26.12,4.39z M26.38,6.66c-0.03-0.03-0.06-0.05-0.08-0.06
	c-0.02-0.01-0.05-0.01-0.09,0.02c-0.04,0.02-0.06,0.04-0.06,0.07s0,0.06,0.01,0.1c0.01,0.05,0.03,0.08,0.04,0.1s0.04,0.03,0.09,0.04
	c0.04,0,0.07-0.01,0.09-0.03s0.03-0.05,0.05-0.09C26.44,6.76,26.43,6.71,26.38,6.66z M26.72,10.12c-0.05-0.07-0.09-0.1-0.14-0.11
	c-0.04,0-0.11,0.01-0.19,0.04s-0.12,0.06-0.15,0.09c-0.02,0.03-0.04,0.09-0.04,0.16c0,0.08,0.01,0.14,0.03,0.18s0.07,0.07,0.14,0.1
	c0.1,0.03,0.17,0.05,0.22,0.06s0.11-0.03,0.17-0.11s0.08-0.15,0.06-0.2C26.82,10.27,26.78,10.2,26.72,10.12z M27.07,5.16
	c-0.12-0.02-0.23-0.04-0.32-0.07s-0.17-0.03-0.24-0.01s-0.13,0.09-0.18,0.19c-0.05,0.11-0.07,0.2-0.05,0.26
	c0.02,0.07,0.07,0.12,0.15,0.18c0.07,0.05,0.16,0.13,0.25,0.21c0.11,0.11,0.2,0.19,0.27,0.25c0.07,0.05,0.18,0.05,0.32-0.02
	c0.16-0.09,0.27-0.17,0.32-0.25s0.06-0.21,0.04-0.39c-0.03-0.16-0.09-0.26-0.18-0.28C27.36,5.2,27.23,5.18,27.07,5.16z M26.7,8.14
	c-0.03-0.05-0.07-0.06-0.1-0.05c-0.03,0.02-0.07,0.04-0.13,0.06c-0.04,0.01-0.07,0.03-0.09,0.04s-0.03,0.04-0.03,0.08
	s0.01,0.07,0.03,0.08s0.05,0.03,0.09,0.04c0.05,0.02,0.08,0.03,0.11,0.04c0.02,0,0.05-0.01,0.09-0.05c0.03-0.05,0.06-0.1,0.07-0.13
	C26.75,8.23,26.74,8.19,26.7,8.14z M27,7.43c-0.05-0.05-0.1-0.09-0.13-0.12c-0.03-0.02-0.09-0.02-0.15,0.01
	c-0.09,0.03-0.15,0.07-0.18,0.1S26.49,7.51,26.5,7.6c0.01,0.08,0.03,0.13,0.08,0.15c0.04,0.02,0.1,0.04,0.18,0.06
	s0.14,0.03,0.19,0.04c0.04,0,0.09-0.03,0.13-0.1c0.05-0.07,0.06-0.12,0.04-0.16C27.08,7.54,27.05,7.49,27,7.43z M26.76,9.33
	c-0.07-0.01-0.13,0.01-0.16,0.06s-0.04,0.08-0.05,0.11c-0.01,0.03,0.01,0.06,0.04,0.1c0.03,0.03,0.06,0.05,0.09,0.05
	s0.06-0.02,0.11-0.04c0.05-0.02,0.08-0.04,0.1-0.06s0.02-0.05,0.01-0.1s-0.02-0.08-0.04-0.09C26.84,9.35,26.81,9.34,26.76,9.33z
	 M27.14,4.42L27.1,4.34l-0.07,0.04l-0.05,0.11l0.13,0.03L27.14,4.42z M27.75,6.8c-0.05-0.07-0.09-0.11-0.13-0.11
	c-0.04-0.01-0.1,0-0.18,0.02s-0.14,0.05-0.17,0.08c-0.03,0.03-0.05,0.09-0.05,0.17c0,0.07,0.01,0.13,0.05,0.15
	c0.03,0.03,0.08,0.05,0.16,0.08c0.06,0.02,0.11,0.02,0.14,0.01c0.03-0.02,0.07-0.05,0.11-0.11c0.05-0.05,0.08-0.1,0.11-0.14
	C27.8,6.91,27.79,6.86,27.75,6.8z M28.24,6.82c-0.07,0-0.11,0.01-0.13,0.04c-0.02,0.03-0.04,0.07-0.07,0.13
	c-0.03,0.07-0.05,0.13-0.06,0.18c-0.01,0.04,0.01,0.09,0.07,0.14c0.05,0.04,0.1,0.04,0.13,0.01c0.03-0.04,0.08-0.08,0.14-0.13
	c0.06-0.03,0.12-0.06,0.16-0.08c0.05-0.02,0.06-0.06,0.04-0.13c-0.02-0.07-0.05-0.12-0.09-0.14C28.39,6.83,28.32,6.82,28.24,6.82z
	 M30.29,7.37c-0.2-0.09-0.38-0.14-0.51-0.15c-0.14-0.01-0.27,0.01-0.39,0.09c-0.12,0.07-0.25,0.19-0.4,0.36
	c-0.12,0.14-0.17,0.26-0.14,0.36c0.03,0.1,0.09,0.21,0.19,0.31c0.1,0.11,0.2,0.24,0.29,0.39c0.1,0.17,0.2,0.29,0.28,0.35
	c0.09,0.06,0.22,0.07,0.41,0.02c0.23-0.05,0.41-0.11,0.53-0.16s0.19-0.2,0.21-0.44c0.01-0.2,0.02-0.37,0.02-0.51
	c0-0.14-0.03-0.25-0.1-0.35C30.61,7.53,30.48,7.44,30.29,7.37z M29.13,9.53l-0.11,0.06l0.01,0.11l0.11,0.03l0.06-0.1L29.13,9.53z
	 M29.57,10.18l-0.1-0.03l-0.08,0.07l0.07,0.09l0.09-0.03L29.57,10.18z M29.83,4.62c-0.01-0.05-0.03-0.08-0.05-0.1
	c-0.02-0.02-0.05-0.03-0.1-0.03c-0.05,0-0.1,0.01-0.12,0.03c-0.03,0.02-0.05,0.05-0.06,0.1c-0.02,0.05-0.02,0.1-0.01,0.12
	c0.01,0.03,0.04,0.06,0.09,0.09c0.04,0.03,0.08,0.04,0.1,0.03c0.03-0.01,0.06-0.02,0.1-0.05C29.85,4.76,29.86,4.7,29.83,4.62z
	 M29.75,5.36c-0.04-0.02-0.07-0.02-0.09,0s-0.04,0.04-0.07,0.07c-0.03,0.04-0.06,0.07-0.09,0.09c-0.02,0.02-0.03,0.05,0,0.09
	c0.03,0.05,0.06,0.09,0.09,0.11c0.02,0.02,0.07,0.02,0.13,0.02c0.06-0.01,0.1-0.03,0.12-0.06c0.02-0.03,0.03-0.07,0.04-0.13
	c0.01-0.05,0-0.09-0.02-0.11C29.84,5.4,29.81,5.38,29.75,5.36z M30.02,6.29c-0.06-0.05-0.12-0.05-0.18-0.01
	c-0.07,0.05-0.09,0.11-0.07,0.18c0.01,0.04,0.02,0.06,0.05,0.07c0.03,0,0.07,0.01,0.11,0.01c0.05,0,0.09-0.03,0.11-0.08
	c0.01-0.04,0.02-0.07,0.02-0.09C30.07,6.34,30.05,6.31,30.02,6.29z M30.16,5.07h-0.12l-0.05,0.07l0.06,0.08l0.09-0.04L30.16,5.07z
	 M30.18,4.4l-0.09,0.04l0.01,0.11l0.1-0.03l0.05-0.06L30.18,4.4z M30.34,5.32l-0.12,0.02l-0.03,0.12l0.12,0.06l0.04-0.1L30.34,5.32z
	 M30.72,10.49l-0.07-0.07l-0.08,0.06l0.02,0.09l0.09,0.01L30.72,10.49z M31.16,5.85c-0.01-0.07-0.04-0.11-0.07-0.13
	C31.05,5.7,31,5.69,30.94,5.69c-0.07-0.01-0.11,0-0.14,0.03c-0.02,0.02-0.05,0.07-0.08,0.13c-0.02,0.05-0.02,0.09,0,0.11
	s0.05,0.06,0.09,0.09c0.05,0.04,0.09,0.07,0.12,0.09S31,6.15,31.05,6.12c0.06-0.04,0.1-0.08,0.12-0.11
	C31.18,5.97,31.18,5.92,31.16,5.85z"/>
<path class="st1" d="M34.36,11.09c-0.34,0-0.66-0.08-0.96-0.24s-0.55-0.41-0.73-0.76c-0.19-0.34-0.28-0.78-0.28-1.32V5.96
	c0-0.07,0.03-0.14,0.08-0.19c0.05-0.05,0.12-0.08,0.19-0.08h1.95c0.08,0,0.14,0.03,0.19,0.08c0.05,0.05,0.08,0.12,0.08,0.19V8.7
	c0,0.37,0.17,0.56,0.51,0.56S35.9,9.08,35.9,8.7V5.96c0-0.07,0.03-0.14,0.08-0.19c0.05-0.05,0.12-0.08,0.19-0.08h1.94
	c0.08,0,0.14,0.03,0.19,0.08c0.05,0.05,0.08,0.12,0.08,0.19v4.75c0,0.07-0.03,0.14-0.08,0.19c-0.05,0.05-0.12,0.08-0.19,0.08h-1.78
	c-0.08,0-0.14-0.03-0.19-0.08s-0.08-0.12-0.08-0.19v-0.34c-0.17,0.25-0.4,0.43-0.7,0.55C35.05,11.04,34.72,11.09,34.36,11.09z
	 M33.1,7.76c-0.03-0.03-0.05-0.05-0.08-0.06s-0.06,0-0.11,0.01s-0.08,0.06-0.09,0.13c-0.01,0.04,0.02,0.07,0.08,0.1
	c0.05,0.02,0.08,0.01,0.11-0.02s0.06-0.06,0.08-0.08C33.12,7.83,33.12,7.8,33.1,7.76z M33.72,6.47c-0.08-0.08-0.15-0.12-0.21-0.12
	s-0.14,0.02-0.24,0.07c-0.1,0.05-0.17,0.09-0.21,0.14s-0.05,0.13-0.04,0.23c0.01,0.11,0.04,0.18,0.09,0.22s0.13,0.07,0.24,0.09
	c0.1,0.02,0.16,0.01,0.2-0.03c0.04-0.04,0.08-0.1,0.13-0.19s0.09-0.16,0.11-0.21C33.81,6.62,33.79,6.55,33.72,6.47z M33.58,8.39
	c-0.01-0.07-0.03-0.12-0.08-0.12c-0.05-0.01-0.11-0.02-0.18-0.03c-0.05-0.02-0.1-0.03-0.13-0.02c-0.03,0.01-0.06,0.03-0.1,0.08
	c-0.03,0.06-0.05,0.1-0.06,0.14c-0.01,0.04,0.01,0.08,0.06,0.13c0.04,0.05,0.08,0.09,0.12,0.09c0.04,0.01,0.09,0,0.16-0.03
	c0.08-0.03,0.13-0.05,0.17-0.08C33.57,8.52,33.58,8.47,33.58,8.39z M33.29,9.19c-0.04-0.06-0.09-0.08-0.15-0.06
	c-0.08,0.02-0.11,0.06-0.11,0.12c0,0.07,0.03,0.13,0.1,0.15c0.03,0.01,0.06,0.01,0.07-0.01s0.03-0.04,0.05-0.07s0.04-0.05,0.05-0.07
	C33.32,9.24,33.31,9.22,33.29,9.19z M34.15,9.56c-0.03-0.1-0.06-0.17-0.07-0.23c-0.01-0.06-0.07-0.09-0.17-0.09
	s-0.15,0.03-0.16,0.09s-0.03,0.13-0.06,0.23c-0.02,0.07-0.02,0.12-0.01,0.15s0.05,0.07,0.11,0.11c0.05,0.04,0.1,0.06,0.13,0.06
	c0.03,0,0.08-0.02,0.13-0.06s0.09-0.08,0.1-0.11C34.17,9.67,34.17,9.62,34.15,9.56z M34.04,10.46c-0.03-0.05-0.08-0.07-0.14-0.06
	c-0.05,0.01-0.08,0.02-0.1,0.03c-0.02,0.01-0.03,0.04-0.04,0.08c-0.01,0.04,0,0.06,0.03,0.07c0.03,0.01,0.06,0.02,0.09,0.03
	c0.03,0.01,0.05,0.02,0.07,0.03c0.02,0.01,0.04,0,0.06-0.03C34.05,10.56,34.06,10.51,34.04,10.46z M34.2,8.71
	c-0.01-0.03-0.03-0.06-0.04-0.08c-0.01-0.02-0.04-0.03-0.07-0.02c-0.05,0.01-0.1,0.01-0.12,0.02c-0.03,0.01-0.05,0.04-0.06,0.09
	c-0.01,0.05,0,0.09,0.01,0.12c0.02,0.02,0.05,0.05,0.11,0.08c0.04,0.02,0.07,0.02,0.09,0s0.04-0.04,0.08-0.07
	C34.22,8.81,34.23,8.77,34.2,8.71z M34.34,5.93c-0.07-0.01-0.11,0-0.14,0.03c-0.02,0.03-0.05,0.07-0.07,0.13
	c-0.03,0.05-0.03,0.1-0.02,0.12s0.04,0.06,0.08,0.1c0.05,0.04,0.09,0.07,0.12,0.09s0.07,0.01,0.13-0.02s0.09-0.07,0.1-0.11
	c0-0.04,0-0.09-0.02-0.15C34.51,6.05,34.49,6,34.47,5.97C34.45,5.96,34.41,5.94,34.34,5.93z M34.41,7.45
	c-0.03-0.05-0.06-0.07-0.1-0.06c-0.05,0.01-0.07,0.05-0.07,0.11c0,0.03,0,0.06-0.01,0.09c0,0.02,0.01,0.04,0.06,0.06
	c0.05,0.02,0.08,0.03,0.11,0.03c0.02,0,0.05-0.03,0.08-0.07c0.03-0.03,0.03-0.05,0.01-0.07C34.46,7.51,34.44,7.48,34.41,7.45z
	 M34.71,10.39c-0.03-0.03-0.05-0.05-0.08-0.04c-0.02,0.01-0.06,0.02-0.1,0.03c-0.05,0.01-0.08,0.03-0.11,0.04
	c-0.02,0.01-0.04,0.04-0.04,0.09s0.01,0.08,0.04,0.09c0.03,0.01,0.06,0.02,0.1,0.02c0.05,0.02,0.1,0.03,0.12,0.04
	c0.03,0.01,0.06-0.01,0.09-0.05s0.04-0.08,0.02-0.11C34.77,10.46,34.74,10.43,34.71,10.39z M34.62,8.07l-0.1-0.04l-0.08,0.06
	l0.06,0.07l0.11,0.04L34.62,8.07z M35.05,10.08c-0.03-0.01-0.05-0.02-0.07-0.01s-0.04,0.03-0.06,0.06
	c-0.03,0.03-0.05,0.05-0.06,0.07c-0.01,0.02-0.01,0.04,0.01,0.08c0.02,0.04,0.04,0.07,0.06,0.08s0.05,0.02,0.09,0.01
	s0.06-0.02,0.07-0.05c0.01-0.02,0.01-0.06,0.02-0.11C35.12,10.15,35.1,10.11,35.05,10.08z M35.24,9.7l-0.09-0.06l-0.06,0.09
	l0.03,0.11l0.1-0.05L35.24,9.7z M35.82,10.21c-0.01-0.05-0.04-0.08-0.08-0.09c-0.04,0-0.09-0.01-0.15-0.02s-0.11-0.02-0.15-0.02
	c-0.04-0.01-0.08,0.01-0.1,0.07c-0.03,0.07-0.03,0.12-0.02,0.16s0.04,0.08,0.09,0.13c0.05,0.04,0.09,0.05,0.11,0.02
	c0.03-0.02,0.07-0.05,0.12-0.08s0.1-0.05,0.13-0.06C35.81,10.31,35.83,10.28,35.82,10.21z M36.34,6.42l-0.1-0.03l-0.08,0.04
	l0.03,0.08l0.11,0.03L36.34,6.42z M36.51,6.02l-0.1-0.04l-0.08,0.06l0.05,0.07l0.07,0.01L36.51,6.02z M36.48,7.61
	c-0.05-0.03-0.1-0.02-0.12,0.02c-0.02,0.02-0.03,0.04-0.02,0.05s0.02,0.03,0.03,0.06c0.02,0.03,0.03,0.07,0.04,0.09
	c0.01,0.03,0.03,0.04,0.06,0.03c0.04-0.01,0.06-0.03,0.05-0.06s-0.01-0.06,0-0.1C36.53,7.66,36.52,7.63,36.48,7.61z M37,9.49
	c-0.05-0.1-0.09-0.18-0.12-0.24s-0.11-0.09-0.22-0.07c-0.12,0.01-0.18,0.06-0.18,0.13c-0.01,0.07-0.02,0.16-0.04,0.28
	c-0.02,0.1-0.04,0.18-0.05,0.24C36.37,9.89,36.41,9.95,36.5,10c0.1,0.05,0.18,0.07,0.24,0.05s0.13-0.07,0.22-0.15
	c0.08-0.07,0.11-0.13,0.11-0.18C37.07,9.66,37.04,9.59,37,9.49z M37.53,6.37c-0.09-0.1-0.17-0.15-0.24-0.15
	c-0.07,0-0.16,0.03-0.29,0.08c-0.16,0.05-0.28,0.1-0.37,0.13S36.5,6.55,36.5,6.71c0.01,0.18,0.05,0.29,0.13,0.35
	c0.08,0.05,0.2,0.11,0.37,0.15c0.14,0.04,0.24,0.03,0.3-0.02c0.06-0.05,0.13-0.15,0.21-0.28c0.08-0.11,0.12-0.2,0.12-0.27
	C37.65,6.57,37.62,6.48,37.53,6.37z M36.77,10.68l-0.07-0.1l-0.08,0.07l-0.01,0.07l0.08,0.02L36.77,10.68z M36.91,8.83L36.8,8.88
	L36.83,9l0.12,0.02l0.01-0.1L36.91,8.83z M37.13,8.07C37.11,8.04,37.09,8.01,37.08,8C37.07,7.98,37.04,7.98,37,7.99
	c-0.06,0.02-0.09,0.07-0.09,0.14c0,0.05,0.03,0.09,0.1,0.11c0.05,0.01,0.09,0,0.12-0.05C37.15,8.15,37.15,8.11,37.13,8.07z
	 M37.64,9.2c-0.06-0.01-0.1-0.01-0.12,0.01s-0.05,0.04-0.07,0.09c-0.02,0.04-0.02,0.07,0,0.1c0.02,0.02,0.04,0.05,0.08,0.09
	c0.04,0.03,0.07,0.06,0.1,0.08c0.02,0.02,0.06,0.02,0.1,0c0.06-0.03,0.1-0.06,0.12-0.09s0.03-0.07,0.02-0.13s-0.04-0.1-0.07-0.11
	C37.75,9.22,37.7,9.21,37.64,9.2z M37.87,8.39c-0.05-0.03-0.09-0.05-0.12-0.04s-0.07,0.03-0.12,0.06c-0.04,0.03-0.06,0.06-0.07,0.08
	c0,0.03,0,0.06,0.01,0.11c0.01,0.06,0.03,0.09,0.05,0.11c0.02,0.02,0.05,0.03,0.1,0.03c0.08,0,0.14-0.04,0.17-0.12
	c0.02-0.05,0.03-0.1,0.04-0.13C37.94,8.47,37.92,8.43,37.87,8.39z M37.92,7.76c0-0.05,0-0.08,0-0.11c0-0.02-0.03-0.04-0.07-0.05
	c-0.05-0.01-0.08-0.02-0.11-0.02s-0.05,0.03-0.08,0.07c-0.03,0.04-0.03,0.07-0.02,0.1c0.01,0.02,0.03,0.06,0.06,0.1
	c0.03,0.03,0.05,0.06,0.07,0.07s0.05,0.01,0.09-0.01s0.06-0.03,0.06-0.06C37.92,7.83,37.92,7.8,37.92,7.76z M37.79,7.29l-0.07-0.03
	l-0.03,0.08l0.04,0.08l0.06-0.07C37.79,7.35,37.79,7.29,37.79,7.29z"/>
<path class="st1" d="M39.58,12.93c-0.07,0-0.14-0.03-0.19-0.08s-0.08-0.12-0.08-0.19v-6.7c0-0.07,0.03-0.14,0.08-0.19
	c0.05-0.05,0.12-0.08,0.19-0.08h1.73c0.08,0,0.14,0.03,0.19,0.08c0.05,0.05,0.08,0.12,0.08,0.19v0.31c0.16-0.2,0.36-0.36,0.61-0.49
	s0.55-0.19,0.9-0.19c0.39,0,0.75,0.08,1.07,0.23c0.32,0.16,0.57,0.41,0.77,0.75s0.31,0.8,0.33,1.37c0.01,0.15,0.01,0.28,0.01,0.4
	s0,0.25-0.01,0.41c-0.02,0.53-0.13,0.97-0.32,1.32c-0.19,0.35-0.45,0.61-0.77,0.78s-0.68,0.26-1.07,0.26
	c-0.29,0-0.54-0.05-0.77-0.14c-0.23-0.1-0.42-0.25-0.58-0.47v2.17c0,0.07-0.03,0.14-0.08,0.19c-0.05,0.05-0.12,0.08-0.19,0.08
	L39.58,12.93L39.58,12.93z M39.72,6.21l-0.1-0.04l-0.06,0.12l0.1,0.07l0.11-0.04L39.72,6.21z M39.77,8.8l-0.14-0.01l-0.01,0.15
	L39.75,9l0.08-0.11L39.77,8.8z M40.07,8.12c-0.01-0.05-0.01-0.1-0.03-0.13c-0.01-0.03-0.04-0.05-0.1-0.07
	c-0.07-0.01-0.12-0.02-0.17-0.03c-0.04,0-0.08,0.03-0.12,0.1c-0.04,0.06-0.05,0.11-0.01,0.14s0.07,0.08,0.12,0.13
	c0.04,0.05,0.08,0.08,0.11,0.11c0.03,0.02,0.08,0.02,0.14-0.01c0.06-0.03,0.09-0.06,0.08-0.1C40.09,8.24,40.08,8.19,40.07,8.12z
	 M39.92,11.66l-0.1-0.06l-0.09,0.06l0.04,0.08l0.08,0.01L39.92,11.66z M39.99,12.16l-0.12-0.07l-0.08,0.1l0.06,0.08l0.12,0.04
	L39.99,12.16z M40.3,6.12c-0.06-0.02-0.11-0.02-0.14-0.01c-0.03,0.01-0.07,0.05-0.1,0.1C40.01,6.27,40,6.31,40,6.34
	c0.01,0.03,0.03,0.07,0.06,0.13c0.04,0.05,0.08,0.09,0.11,0.1s0.08,0.01,0.14-0.01c0.08-0.03,0.13-0.05,0.16-0.08
	c0.03-0.03,0.05-0.08,0.05-0.15c0-0.08-0.02-0.12-0.06-0.14C40.43,6.16,40.37,6.14,40.3,6.12z M40.47,9.98
	c-0.01-0.05-0.02-0.08-0.05-0.1c-0.02-0.02-0.06-0.03-0.11-0.05c-0.08-0.01-0.13,0.01-0.17,0.08c-0.03,0.07-0.03,0.13,0.02,0.18
	s0.1,0.07,0.17,0.04c0.05-0.02,0.08-0.04,0.11-0.06C40.47,10.07,40.48,10.03,40.47,9.98z M40.53,8.77c-0.1-0.02-0.16-0.02-0.2,0.01
	c-0.04,0.03-0.08,0.08-0.13,0.16c-0.05,0.07-0.07,0.12-0.07,0.17c0,0.04,0.03,0.1,0.09,0.16c0.06,0.07,0.11,0.13,0.15,0.18
	c0.04,0.04,0.11,0.05,0.2,0.01c0.1-0.03,0.15-0.08,0.17-0.13c0.02-0.05,0.03-0.14,0.02-0.24C40.75,9,40.74,8.93,40.7,8.89
	C40.69,8.83,40.63,8.79,40.53,8.77z M40.55,12.3c-0.04-0.04-0.08-0.06-0.11-0.04c-0.03,0.01-0.07,0.03-0.12,0.06
	c-0.05,0.03-0.08,0.05-0.11,0.07c-0.03,0.02-0.04,0.05-0.03,0.11c0.01,0.05,0.04,0.09,0.07,0.09c0.03,0.01,0.07,0.01,0.13,0.02
	c0.05,0.01,0.08,0.01,0.11,0c0.02-0.01,0.05-0.03,0.07-0.08c0.03-0.05,0.04-0.09,0.05-0.12C40.61,12.37,40.59,12.34,40.55,12.3z
	 M40.45,11.64c-0.05-0.04-0.1-0.04-0.15,0c-0.04,0.03-0.07,0.05-0.09,0.07c-0.02,0.02-0.02,0.05,0,0.09
	c0.01,0.04,0.03,0.06,0.06,0.06s0.06,0,0.11,0s0.08,0,0.11,0.01c0.03,0,0.05-0.02,0.06-0.06c0.01-0.05,0.01-0.08,0-0.1
	C40.52,11.69,40.49,11.67,40.45,11.64z M40.88,7.15c-0.1-0.02-0.17-0.02-0.21,0.01s-0.09,0.08-0.14,0.16
	c-0.05,0.09-0.08,0.17-0.08,0.22c-0.01,0.05,0.03,0.12,0.1,0.19c0.07,0.08,0.13,0.12,0.19,0.13c0.06,0.01,0.13-0.01,0.23-0.05
	c0.09-0.04,0.13-0.09,0.13-0.14c0-0.05-0.01-0.13-0.02-0.22c-0.01-0.09-0.03-0.17-0.04-0.21C41.03,7.2,40.98,7.17,40.88,7.15z
	 M41.21,10.54c-0.1-0.05-0.17-0.06-0.22-0.04c-0.05,0.02-0.11,0.07-0.19,0.15c-0.08,0.07-0.12,0.13-0.13,0.18
	c-0.01,0.05,0,0.12,0.05,0.2c0.05,0.1,0.09,0.18,0.13,0.22s0.12,0.06,0.24,0.05c0.1-0.02,0.17-0.06,0.19-0.11
	c0.03-0.05,0.05-0.13,0.07-0.23c0.01-0.11,0.02-0.19,0.01-0.24C41.35,10.65,41.3,10.6,41.21,10.54z M41.19,8.02
	C41.12,8,41.07,8.01,41.04,8.04s-0.06,0.08-0.1,0.14c-0.04,0.07-0.07,0.12-0.1,0.16c-0.02,0.04-0.01,0.09,0.05,0.15
	c0.05,0.06,0.09,0.08,0.13,0.05s0.1-0.05,0.17-0.08c0.05-0.03,0.09-0.05,0.11-0.08c0.02-0.02,0.02-0.06,0.01-0.12
	C41.3,8.19,41.3,8.14,41.3,8.09C41.3,8.06,41.26,8.04,41.19,8.02z M41.2,6.1c-0.08-0.01-0.13,0.01-0.15,0.06
	c-0.02,0.05-0.04,0.11-0.08,0.18c-0.03,0.07-0.06,0.12-0.09,0.17c-0.03,0.04-0.01,0.09,0.05,0.15C41,6.73,41.06,6.75,41.1,6.75
	s0.11-0.03,0.19-0.08c0.07-0.03,0.11-0.07,0.12-0.11s0.01-0.1,0-0.18c-0.02-0.08-0.04-0.14-0.06-0.19
	C41.34,6.15,41.28,6.12,41.2,6.1z M41.25,12.43l-0.08,0.02l-0.03,0.06l0.06,0.05l0.05-0.05V12.43L41.25,12.43z M42.09,9.83
	c-0.01-0.12-0.05-0.2-0.11-0.22c-0.06-0.03-0.15-0.05-0.26-0.08C41.6,9.5,41.5,9.49,41.44,9.48c-0.07,0-0.13,0.05-0.2,0.16
	c-0.05,0.1-0.05,0.17,0,0.21c0.05,0.05,0.12,0.12,0.19,0.2s0.13,0.17,0.17,0.23s0.11,0.08,0.23,0.03c0.13-0.05,0.21-0.11,0.24-0.18
	C42.1,10.07,42.11,9.97,42.09,9.83z M42.26,9.27c0.19,0,0.32-0.05,0.38-0.16C42.7,9,42.75,8.86,42.77,8.67
	c0.02-0.22,0.02-0.45,0-0.67c-0.02-0.18-0.06-0.33-0.13-0.43c-0.06-0.11-0.19-0.16-0.38-0.16c-0.19,0-0.32,0.05-0.39,0.16
	C41.8,7.67,41.76,7.82,41.75,8c-0.01,0.15-0.01,0.27-0.01,0.37c0,0.1,0,0.23,0.01,0.38c0.01,0.16,0.06,0.29,0.14,0.38
	C41.96,9.22,42.09,9.27,42.26,9.27z M42.43,6.4c-0.03-0.04-0.05-0.07-0.07-0.09s-0.05-0.02-0.1-0.02c-0.05,0.01-0.07,0.03-0.08,0.06
	c0,0.03-0.01,0.07-0.01,0.11c-0.01,0.04-0.01,0.07,0,0.09s0.03,0.04,0.07,0.06c0.05,0.02,0.08,0.03,0.11,0.04
	c0.03,0,0.06-0.01,0.09-0.05s0.05-0.07,0.04-0.1C42.47,6.48,42.46,6.45,42.43,6.4z M43.2,9.79c-0.1-0.1-0.17-0.18-0.24-0.23
	c-0.06-0.05-0.15-0.05-0.28,0.02c-0.12,0.06-0.17,0.13-0.15,0.21c0.02,0.08,0.04,0.19,0.06,0.32c0.02,0.12,0.04,0.22,0.06,0.29
	s0.09,0.11,0.21,0.12c0.14,0.03,0.25,0.03,0.32,0s0.14-0.11,0.2-0.23c0.05-0.12,0.06-0.2,0.02-0.27S43.29,9.87,43.2,9.79z
	 M44.3,7.22c-0.15-0.14-0.28-0.2-0.38-0.18c-0.1,0.02-0.25,0.09-0.42,0.19c-0.15,0.08-0.24,0.17-0.26,0.26
	c-0.04,0.08-0.04,0.21,0,0.37c0.03,0.16,0.08,0.26,0.15,0.31s0.18,0.08,0.34,0.1c0.18,0.02,0.33,0.03,0.43,0.04s0.2-0.08,0.27-0.24
	c0.1-0.2,0.14-0.35,0.12-0.46C44.54,7.49,44.45,7.36,44.3,7.22z M43.53,6.22c-0.04-0.03-0.07-0.04-0.1-0.01
	c-0.02,0.03-0.06,0.05-0.11,0.08c-0.03,0.02-0.06,0.04-0.08,0.05s-0.03,0.04-0.02,0.08s0.03,0.07,0.05,0.08s0.05,0.02,0.1,0.03
	s0.08,0.01,0.11,0.01s0.05-0.03,0.07-0.08c0.02-0.05,0.03-0.1,0.03-0.13C43.59,6.29,43.57,6.26,43.53,6.22z M43.43,9.28l-0.12-0.06
	l-0.02,0.14l0.07,0.12l0.11-0.1L43.43,9.28z M43.81,10.38c-0.06-0.01-0.11-0.01-0.13,0.01c-0.03,0.01-0.05,0.04-0.08,0.09
	c-0.02,0.05-0.02,0.08,0,0.11c0.02,0.02,0.05,0.05,0.08,0.09c0.03,0.03,0.06,0.06,0.09,0.07c0.02,0.01,0.06,0.01,0.1-0.02
	c0.05-0.03,0.08-0.05,0.1-0.07c0.02-0.02,0.02-0.06,0.01-0.11c-0.01-0.05-0.03-0.09-0.05-0.11S43.86,10.38,43.81,10.38z M43.93,6.06
	C43.9,6.03,43.88,6,43.86,5.98s-0.05-0.02-0.09-0.01c-0.04,0.02-0.06,0.04-0.06,0.07s0,0.07,0.01,0.11c0.01,0.05,0.04,0.09,0.1,0.1
	c0.03,0.01,0.06,0.01,0.09,0.02s0.05-0.01,0.07-0.05C44,6.19,44,6.16,43.99,6.14C43.98,6.12,43.96,6.1,43.93,6.06z M44.22,9.8
	c-0.06-0.06-0.11-0.11-0.15-0.13c-0.04-0.03-0.1-0.02-0.16,0.03c-0.08,0.04-0.11,0.09-0.1,0.13s0.02,0.11,0.04,0.19
	c0.01,0.06,0.04,0.1,0.07,0.11c0.03,0.01,0.08,0.02,0.14,0.03c0.07,0.01,0.12,0.01,0.16,0.01s0.08-0.03,0.1-0.09
	c0.03-0.07,0.03-0.12,0.01-0.15C44.31,9.88,44.27,9.84,44.22,9.8z M44.55,6.49c-0.05-0.02-0.08-0.03-0.11-0.04
	c-0.02,0-0.05,0.01-0.09,0.05c-0.03,0.04-0.03,0.07-0.01,0.09s0.04,0.05,0.07,0.08c0.03,0.05,0.06,0.09,0.07,0.12
	c0.01,0.03,0.04,0.04,0.09,0.03c0.05-0.02,0.08-0.05,0.09-0.08c0-0.03,0.01-0.07,0.01-0.13c0-0.04-0.01-0.07-0.03-0.08
	C44.62,6.52,44.59,6.51,44.55,6.49z M44.71,9.09c-0.01-0.05-0.03-0.08-0.04-0.1c-0.01-0.02-0.04-0.03-0.08-0.03
	s-0.07,0.01-0.08,0.03c-0.01,0.02-0.02,0.05-0.04,0.09c-0.02,0.05-0.01,0.09,0.04,0.12c0.03,0.02,0.05,0.04,0.07,0.05
	s0.04,0.01,0.07-0.02C44.7,9.2,44.72,9.15,44.71,9.09z"/>
<g>
	<path class="st2" d="M10.55,6.62c-0.03-0.03-0.08-0.04-0.13-0.02c-0.03,0.01-0.05,0.03-0.07,0.04c-0.02,0.01-0.03,0.03-0.03,0.07
		s0.01,0.07,0.01,0.09c0.01,0.02,0.04,0.03,0.08,0.04c0.05,0.01,0.09,0.02,0.11,0.02c0.03,0,0.05-0.02,0.08-0.06
		s0.03-0.07,0.01-0.09C10.6,6.69,10.58,6.66,10.55,6.62z"/>
	<path class="st2" d="M10.83,3.78c-0.03,0-0.06,0-0.08,0.01c-0.02,0-0.03,0.02-0.04,0.06C10.69,3.91,10.7,3.96,10.75,4
		c0.05,0.03,0.1,0.02,0.15-0.01c0.04-0.03,0.05-0.08,0.03-0.13C10.92,3.8,10.89,3.78,10.83,3.78z"/>
	<path class="st2" d="M11.11,2.99c0.05,0.05,0.1,0.09,0.13,0.12s0.08,0.02,0.14-0.02s0.09-0.08,0.08-0.12s-0.02-0.1-0.04-0.17
		c-0.01-0.05-0.04-0.09-0.07-0.1s-0.07-0.01-0.13-0.01s-0.11,0-0.13,0.01c-0.03,0.01-0.05,0.04-0.07,0.09
		C11,2.84,11,2.88,11.01,2.91C11.03,2.93,11.06,2.96,11.11,2.99z"/>
	<path class="st2" d="M10.67,5.35c-0.04,0.02-0.1,0.04-0.17,0.06c-0.06,0.02-0.11,0.04-0.14,0.05c-0.03,0.01-0.05,0.05-0.05,0.12
		c0,0.08,0.01,0.14,0.02,0.19c0.01,0.04,0.06,0.08,0.14,0.11c0.08,0.02,0.14,0.02,0.18-0.01c0.04-0.02,0.08-0.07,0.13-0.14
		c0.05-0.07,0.08-0.12,0.09-0.16s-0.01-0.1-0.07-0.16C10.75,5.35,10.71,5.33,10.67,5.35z"/>
	<polygon class="st2" points="11.03,6 11.01,6.07 11.04,6.15 11.12,6.11 11.1,6.04 	"/>
	<path class="st2" d="M11.49,7.12c-0.09-0.04-0.16-0.07-0.21-0.07c-0.05-0.01-0.11,0.03-0.18,0.1c-0.07,0.07-0.1,0.13-0.09,0.18
		c0.01,0.05,0.03,0.12,0.08,0.21c0.04,0.08,0.08,0.13,0.12,0.16c0.04,0.02,0.11,0.03,0.19,0.02c0.09-0.02,0.16-0.05,0.2-0.08
		c0.04-0.03,0.06-0.1,0.08-0.19c0.01-0.09,0.01-0.15-0.02-0.19C11.62,7.21,11.57,7.16,11.49,7.12z"/>
	<path class="st2" d="M12.02,6.01c0.03-0.02,0.03-0.05,0.02-0.1C12.02,5.86,12,5.82,11.97,5.82c-0.03-0.01-0.07-0.01-0.13-0.01
		c-0.08-0.01-0.13,0.03-0.15,0.1c-0.02,0.04-0.03,0.07-0.03,0.1c0,0.03,0.02,0.05,0.06,0.08c0.04,0.03,0.07,0.05,0.1,0.04
		c0.02-0.01,0.06-0.03,0.1-0.05C11.96,6.05,11.99,6.02,12.02,6.01z"/>
	<path class="st2" d="M11.61,6.48c-0.05,0.01-0.09,0.02-0.12,0.03s-0.05,0.03-0.05,0.08c0,0.05,0.01,0.09,0.03,0.12
		c0.02,0.02,0.06,0.05,0.11,0.07c0.04,0.01,0.07,0.01,0.08-0.02c0.01-0.02,0.04-0.05,0.07-0.09c0.04-0.05,0.05-0.1,0.02-0.14
		C11.72,6.48,11.67,6.47,11.61,6.48z"/>
	<path class="st2" d="M11.4,4.34c-0.02,0.03-0.04,0.07-0.06,0.13s-0.04,0.11-0.05,0.15s0.01,0.08,0.07,0.12
		c0.05,0.04,0.1,0.05,0.13,0.04s0.08-0.04,0.13-0.08c0.07-0.04,0.12-0.07,0.16-0.1c0.04-0.03,0.05-0.08,0.03-0.15
		c-0.03-0.08-0.06-0.13-0.11-0.13c-0.04-0.01-0.11-0.01-0.2-0.01C11.46,4.3,11.42,4.31,11.4,4.34z"/>
	<polygon class="st2" points="14.63,2.96 14.69,2.89 14.63,2.82 14.54,2.84 14.55,2.93 	"/>
	<polygon class="st2" points="14.66,2.42 14.69,2.5 14.79,2.48 14.8,2.37 14.7,2.33 	"/>
	<path class="st2" d="M14.52,4.66c0.03,0,0.06-0.01,0.11-0.02c0.04-0.01,0.06-0.02,0.07-0.05c0.01-0.02,0.01-0.06,0.01-0.1
		s0-0.07,0-0.1c0-0.03-0.02-0.05-0.06-0.06c-0.09-0.03-0.16-0.02-0.2,0.05c-0.05,0.07-0.06,0.14-0.01,0.21
		C14.46,4.64,14.49,4.66,14.52,4.66z"/>
	<path class="st2" d="M14.72,2.11c0.02,0,0.06,0,0.11,0c0.03,0,0.05-0.01,0.06-0.03c0-0.02,0.01-0.04,0.02-0.08
		c0.01-0.06,0-0.1-0.03-0.13c-0.06-0.03-0.11-0.03-0.15,0c-0.03,0.03-0.06,0.05-0.08,0.07c-0.02,0.02-0.02,0.05-0.01,0.09
		C14.67,2.08,14.69,2.11,14.72,2.11z"/>
	<path class="st2" d="M11.58,3.97c0.02,0.02,0.05,0.02,0.09,0c0.05-0.02,0.07-0.04,0.07-0.07s-0.01-0.07-0.01-0.11
		S11.7,3.72,11.64,3.7c-0.05-0.01-0.09-0.02-0.11-0.04c-0.03-0.02-0.05,0-0.08,0.04s-0.03,0.07-0.02,0.1s0.04,0.06,0.07,0.1
		C11.53,3.92,11.56,3.95,11.58,3.97z"/>
	<path class="st2" d="M12.07,7.76c-0.05-0.01-0.08-0.01-0.11-0.01c-0.02,0-0.05,0.02-0.07,0.06c-0.04,0.06-0.04,0.12,0.01,0.18
		c0.05,0.06,0.11,0.08,0.17,0.05c0.08-0.03,0.12-0.08,0.11-0.15c0-0.04-0.01-0.07-0.03-0.09C12.14,7.79,12.11,7.77,12.07,7.76z"/>
	<path class="st2" d="M13.2,2.34c0.07,0.11,0.13,0.18,0.17,0.23c0.05,0.04,0.13,0.05,0.26,0.02c0.12-0.03,0.19-0.07,0.21-0.14
		c0.02-0.07,0.03-0.16,0.05-0.28c0.01-0.11,0-0.19-0.03-0.24s-0.09-0.09-0.18-0.13c-0.14-0.06-0.26-0.12-0.34-0.16
		c-0.08-0.05-0.17-0.01-0.26,0.1c-0.1,0.12-0.12,0.21-0.07,0.29C13.06,2.11,13.13,2.21,13.2,2.34z"/>
	<path class="st2" d="M15.71,4.76c0.02,0.03,0.05,0.03,0.1,0.01c0.06-0.02,0.1-0.05,0.11-0.08c0.01-0.03,0.02-0.08,0.01-0.14
		c-0.01-0.1-0.06-0.16-0.15-0.18c-0.06-0.01-0.09-0.01-0.11,0.01c-0.02,0.02-0.04,0.06-0.07,0.11s-0.03,0.11,0.01,0.16
		C15.66,4.7,15.69,4.73,15.71,4.76z"/>
	<polygon class="st2" points="13.54,6.92 13.62,6.96 13.68,6.88 13.62,6.81 13.52,6.82 	"/>
	<path class="st2" d="M11.66,2.46c0.06,0.06,0.11,0.1,0.15,0.12s0.1,0.01,0.17-0.03c0.09-0.05,0.15-0.09,0.19-0.13
		s0.05-0.11,0.03-0.21c-0.01-0.1-0.05-0.15-0.11-0.15s-0.14-0.02-0.24-0.03c-0.1-0.01-0.17-0.02-0.23-0.03s-0.11,0.03-0.15,0.12
		c-0.05,0.09-0.05,0.15-0.01,0.19C11.53,2.34,11.59,2.39,11.66,2.46z"/>
	<path class="st2" d="M15.46,2.79c0.01-0.02,0.01-0.05,0.02-0.1c0.01-0.04,0.01-0.07,0-0.1c-0.01-0.02-0.03-0.05-0.06-0.07
		c-0.06-0.02-0.11-0.04-0.14-0.05c-0.03-0.01-0.07,0-0.11,0.05s-0.06,0.09-0.05,0.12s0.03,0.07,0.06,0.13
		c0.02,0.05,0.05,0.07,0.08,0.08c0.03,0,0.07,0,0.12,0C15.42,2.83,15.45,2.81,15.46,2.79z"/>
	<polygon class="st2" points="15.49,3.54 15.44,3.47 15.36,3.51 15.37,3.6 15.47,3.64 	"/>
	<path class="st2" d="M14.97,3.49c-0.08-0.03-0.14-0.02-0.18,0c-0.04,0.03-0.08,0.08-0.14,0.15c-0.05,0.07-0.09,0.12-0.11,0.16
		c-0.02,0.04-0.01,0.1,0.04,0.17c0.05,0.08,0.09,0.12,0.14,0.13s0.12,0,0.2-0.02c0.09-0.03,0.17-0.05,0.22-0.08
		c0.05-0.02,0.08-0.09,0.09-0.19c0.01-0.11-0.01-0.18-0.05-0.22C15.14,3.57,15.07,3.53,14.97,3.49z"/>
	<path class="st2" d="M15.15,6.6c-0.05-0.04-0.1-0.06-0.13-0.05s-0.08,0.03-0.13,0.06c-0.05,0.03-0.09,0.07-0.09,0.1
		c-0.01,0.03,0,0.08,0.02,0.14c0.02,0.09,0.08,0.14,0.17,0.14c0.09,0.01,0.16-0.03,0.19-0.12c0.02-0.06,0.03-0.11,0.04-0.15
		C15.23,6.68,15.2,6.64,15.15,6.6z"/>
	<path class="st2" d="M15.97,5.8c-0.09-0.03-0.17-0.04-0.21-0.01c-0.05,0.03-0.1,0.08-0.16,0.16c-0.06,0.08-0.1,0.15-0.11,0.2
		s0.01,0.12,0.08,0.2c0.05,0.08,0.11,0.12,0.16,0.11c0.05-0.01,0.13-0.02,0.22-0.05c0.07-0.03,0.1-0.06,0.11-0.1s0.01-0.1,0.01-0.17
		c0-0.09,0.01-0.16,0.01-0.22C16.09,5.87,16.05,5.83,15.97,5.8z"/>
	<polygon class="st2" points="12.2,6.89 12.21,6.96 12.28,6.98 12.26,6.87 	"/>
	<path class="st2" d="M14.66,5.18c-0.09-0.04-0.17-0.02-0.24,0.05s-0.07,0.15-0.02,0.23c0.03,0.05,0.06,0.09,0.09,0.09
		c0.03,0.01,0.07,0.01,0.13,0c0.05-0.01,0.09-0.03,0.1-0.06s0.02-0.07,0.03-0.12c0.01-0.05,0.01-0.09-0.01-0.12
		C14.74,5.22,14.71,5.2,14.66,5.18z"/>
	<path class="st2" d="M15.58,5.31c0.06-0.03,0.09-0.07,0.08-0.12c-0.01-0.04-0.01-0.07-0.03-0.09c-0.01-0.02-0.04-0.03-0.08-0.04
		c-0.05-0.01-0.08,0-0.1,0.01s-0.03,0.04-0.05,0.08c-0.02,0.03-0.03,0.06-0.04,0.09c0,0.02,0.01,0.05,0.04,0.08
		c0.03,0.03,0.05,0.05,0.08,0.04C15.51,5.33,15.54,5.32,15.58,5.31z"/>
	<polygon class="st2" points="14.51,7.39 14.44,7.49 14.57,7.51 14.66,7.46 14.61,7.34 	"/>
	<path class="st2" d="M13.71,7.43c-0.04-0.04-0.13-0.07-0.25-0.09c-0.12-0.01-0.2,0-0.26,0.03c-0.05,0.03-0.11,0.11-0.16,0.21
		c-0.05,0.11-0.07,0.2-0.06,0.26c0.01,0.07,0.06,0.13,0.16,0.21c0.09,0.08,0.16,0.13,0.23,0.13c0.06,0.01,0.15-0.02,0.25-0.08
		c0.1-0.06,0.16-0.12,0.19-0.18c0.02-0.06,0.02-0.14-0.01-0.26C13.78,7.56,13.75,7.48,13.71,7.43z"/>
	<path class="st2" d="M14.51,6.68c0-0.09-0.04-0.14-0.11-0.16c-0.04-0.01-0.07-0.01-0.08,0.02c-0.01,0.02-0.03,0.05-0.06,0.09
		c-0.03,0.03-0.05,0.06-0.07,0.08c-0.02,0.02-0.02,0.05,0,0.09c0.03,0.03,0.06,0.05,0.09,0.05c0.02,0,0.06-0.01,0.11-0.04
		c0.04-0.01,0.07-0.03,0.09-0.04C14.5,6.74,14.51,6.72,14.51,6.68z"/>
	<polygon class="st2" points="13.09,7.09 13.17,7.14 13.22,7.07 13.2,6.99 13.08,6.97 	"/>
	<polygon class="st2" points="14.55,6.17 14.53,6.04 14.42,5.94 14.33,6.07 14.41,6.17 	"/>
	<path class="st2" d="M12.86,6.96c-0.03-0.01-0.07-0.02-0.12-0.03c-0.06-0.01-0.11,0-0.14,0.05c-0.03,0.04-0.05,0.07-0.07,0.1
		c-0.02,0.03-0.01,0.06,0.01,0.1c0.03,0.04,0.07,0.06,0.1,0.05c0.03-0.01,0.07-0.02,0.12-0.05c0.05-0.02,0.09-0.04,0.11-0.05
		c0.03-0.01,0.04-0.04,0.04-0.1C12.92,6.99,12.9,6.97,12.86,6.96z"/>
	<path class="st3" d="M16.57,3.93c-0.02-0.6-0.17-1.11-0.46-1.52c-0.3-0.41-0.69-0.73-1.2-0.95c-0.5-0.22-1.09-0.33-1.75-0.33
		c-0.67,0-1.25,0.11-1.75,0.33s-0.9,0.53-1.18,0.95C9.94,2.83,9.78,3.33,9.75,3.93c-0.02,0.61-0.02,1.21,0,1.79
		c0.03,0.61,0.18,1.11,0.47,1.52s0.68,0.72,1.18,0.92s1.08,0.31,1.75,0.31s1.25-0.1,1.75-0.31c0.5-0.2,0.89-0.51,1.18-0.92
		c0.29-0.41,0.45-0.92,0.47-1.52C16.59,5.14,16.59,4.54,16.57,3.93z M15.61,4.49c0.03-0.05,0.05-0.08,0.07-0.11
		c0.02-0.02,0.05-0.03,0.11-0.02c0.09,0.02,0.15,0.08,0.15,0.18c0.01,0.06,0,0.11-0.01,0.14c-0.01,0.03-0.05,0.06-0.11,0.08
		c-0.05,0.03-0.08,0.03-0.1,0s-0.05-0.07-0.09-0.11C15.58,4.6,15.57,4.55,15.61,4.49z M14.65,1.94c0.02-0.02,0.04-0.04,0.08-0.07
		c0.04-0.03,0.09-0.03,0.15,0C14.92,1.9,14.93,1.94,14.91,2c-0.01,0.03-0.02,0.06-0.03,0.08c-0.01,0.02-0.03,0.03-0.06,0.03
		c-0.05,0-0.08,0-0.11,0c-0.02,0-0.05-0.03-0.07-0.08C14.64,1.99,14.64,1.96,14.65,1.94z M14.8,2.37l-0.01,0.11l-0.1,0.02
		l-0.03-0.08l0.04-0.09L14.8,2.37z M14.63,2.82l0.06,0.07l-0.06,0.07l-0.08-0.03l-0.01-0.09L14.63,2.82z M14.45,4.38
		c0.05-0.07,0.12-0.08,0.2-0.05c0.04,0.01,0.06,0.03,0.06,0.06s0,0.06,0,0.1s0,0.07-0.01,0.1c-0.01,0.02-0.03,0.04-0.07,0.05
		c-0.05,0.01-0.09,0.02-0.11,0.02c-0.03,0-0.06-0.02-0.08-0.06C14.39,4.52,14.39,4.45,14.45,4.38z M13.07,1.75
		c0.1-0.12,0.18-0.15,0.26-0.1s0.19,0.1,0.34,0.16c0.09,0.04,0.16,0.09,0.18,0.13c0.03,0.05,0.04,0.13,0.03,0.24
		c-0.01,0.12-0.03,0.22-0.05,0.28s-0.09,0.11-0.21,0.14c-0.12,0.03-0.21,0.02-0.26-0.02s-0.11-0.12-0.17-0.23
		c-0.07-0.13-0.14-0.23-0.2-0.31C12.94,1.96,12.97,1.86,13.07,1.75z M13.68,6.88l-0.06,0.08l-0.08-0.04l-0.02-0.1l0.1-0.01
		L13.68,6.88z M12.58,3.85c0.01-0.12,0.04-0.21,0.09-0.25c0.04-0.04,0.12-0.08,0.24-0.1c0.12-0.03,0.2-0.03,0.26,0
		c0.06,0.02,0.12,0.09,0.18,0.19c0.06,0.1,0.09,0.18,0.08,0.25C13.42,4,13.38,4.07,13.3,4.16c-0.07,0.1-0.14,0.15-0.21,0.16
		c-0.06,0.01-0.15-0.01-0.26-0.06c-0.11-0.05-0.18-0.11-0.21-0.16C12.58,4.05,12.57,3.96,12.58,3.85z M11.49,2.12
		c0.04-0.09,0.09-0.13,0.15-0.12c0.06,0.01,0.13,0.02,0.23,0.03c0.1,0.01,0.17,0.02,0.24,0.03c0.06,0.01,0.1,0.06,0.11,0.15
		c0.02,0.1,0.01,0.17-0.03,0.21S12.08,2.51,12,2.55c-0.07,0.04-0.13,0.05-0.17,0.03s-0.09-0.06-0.15-0.12
		C11.6,2.39,11.55,2.34,11.5,2.3C11.44,2.27,11.44,2.2,11.49,2.12z M11.52,4.3c0.09,0,0.16,0,0.2,0.01s0.08,0.05,0.11,0.13
		c0.02,0.07,0.01,0.13-0.03,0.15c-0.04,0.03-0.09,0.06-0.16,0.1c-0.05,0.04-0.1,0.07-0.13,0.08s-0.08,0-0.13-0.04
		c-0.06-0.04-0.08-0.08-0.07-0.12s0.02-0.09,0.05-0.15c0.02-0.06,0.04-0.11,0.06-0.13C11.42,4.31,11.46,4.3,11.52,4.3z M11.45,3.7
		c0.03-0.04,0.05-0.05,0.08-0.04c0.03,0.02,0.06,0.03,0.11,0.04c0.06,0.02,0.09,0.05,0.09,0.09c0,0.05,0,0.08,0.01,0.11
		c0,0.03-0.02,0.05-0.07,0.07c-0.04,0.01-0.07,0.01-0.09-0.01s-0.05-0.04-0.08-0.08s-0.06-0.07-0.07-0.1
		C11.41,3.77,11.42,3.74,11.45,3.7z M10.61,6.8c-0.03,0.04-0.05,0.06-0.08,0.06s-0.07-0.01-0.11-0.02
		c-0.04-0.01-0.07-0.02-0.08-0.04s-0.02-0.05-0.02-0.09c0-0.03,0.01-0.06,0.03-0.07c0.02-0.01,0.04-0.02,0.07-0.04
		c0.05-0.02,0.1-0.01,0.13,0.02s0.05,0.06,0.07,0.08C10.64,6.73,10.64,6.76,10.61,6.8z M10.86,5.57c-0.01,0.04-0.04,0.09-0.09,0.16
		c-0.05,0.07-0.09,0.11-0.13,0.14c-0.04,0.02-0.1,0.03-0.18,0s-0.13-0.06-0.14-0.11c-0.01-0.04-0.02-0.11-0.02-0.19
		c0-0.07,0.02-0.11,0.05-0.12c0.03-0.01,0.08-0.03,0.14-0.05c0.07-0.02,0.13-0.04,0.17-0.06s0.08,0,0.12,0.06
		C10.85,5.48,10.87,5.53,10.86,5.57z M10.91,3.98c-0.05,0.03-0.11,0.04-0.15,0.01c-0.05-0.04-0.06-0.09-0.04-0.15
		c0.01-0.03,0.02-0.05,0.04-0.06c0.02,0,0.05-0.01,0.08-0.01c0.05,0,0.09,0.02,0.1,0.07C10.96,3.9,10.95,3.95,10.91,3.98z
		 M11.02,2.79c0.02-0.05,0.04-0.09,0.07-0.09s0.07-0.01,0.13-0.01c0.05,0,0.1,0.01,0.13,0.02s0.05,0.04,0.07,0.1
		c0.02,0.08,0.03,0.13,0.04,0.17s-0.02,0.08-0.08,0.12c-0.06,0.04-0.11,0.05-0.14,0.02C11.21,3.09,11.17,3.05,11.11,3
		c-0.05-0.03-0.08-0.06-0.1-0.09C11,2.88,11,2.84,11.02,2.79z M11.12,6.11l-0.08,0.04l-0.03-0.08L11.03,6l0.07,0.04L11.12,6.11z
		 M11.68,7.44c-0.01,0.09-0.04,0.16-0.08,0.19s-0.1,0.06-0.2,0.08c-0.09,0.01-0.15,0.01-0.19-0.01s-0.08-0.08-0.12-0.16
		c-0.05-0.09-0.07-0.16-0.08-0.21C11,7.28,11.03,7.22,11.1,7.16c0.07-0.07,0.13-0.11,0.18-0.1s0.12,0.03,0.21,0.07
		c0.08,0.04,0.14,0.08,0.17,0.12C11.69,7.29,11.69,7.35,11.68,7.44z M11.73,6.68c-0.03,0.03-0.06,0.06-0.07,0.09
		c-0.01,0.02-0.04,0.03-0.08,0.02c-0.06-0.02-0.09-0.04-0.11-0.07c-0.02-0.02-0.03-0.06-0.03-0.12c0-0.05,0.02-0.08,0.05-0.08
		s0.07-0.02,0.12-0.03c0.06-0.01,0.11,0,0.14,0.05C11.78,6.57,11.77,6.62,11.73,6.68z M11.72,6.09c-0.03-0.03-0.05-0.05-0.06-0.08
		c0-0.03,0.01-0.06,0.03-0.1c0.03-0.08,0.08-0.11,0.15-0.1c0.05,0,0.1,0,0.13,0.01s0.05,0.04,0.07,0.09
		c0.01,0.05,0.01,0.08-0.02,0.1c-0.03,0.02-0.06,0.04-0.1,0.08c-0.04,0.02-0.07,0.04-0.1,0.05C11.79,6.14,11.76,6.13,11.72,6.09z
		 M12.08,8.04c-0.07,0.03-0.13,0.01-0.17-0.05c-0.05-0.06-0.05-0.12-0.01-0.18c0.02-0.03,0.04-0.05,0.07-0.06
		c0.02,0,0.06,0,0.11,0.01c0.04,0.01,0.07,0.03,0.09,0.05S12.2,7.86,12.2,7.9C12.2,7.96,12.16,8.01,12.08,8.04z M12.21,6.96
		L12.2,6.89l0.06-0.02l0.02,0.11L12.21,6.96z M12.49,6.21c0.05-0.08,0.1-0.19,0.16-0.34c0.04-0.1,0.09-0.16,0.13-0.18
		c0.05-0.03,0.13-0.04,0.24-0.03c0.12,0.01,0.22,0.03,0.28,0.05s0.11,0.09,0.14,0.21c0.03,0.12,0.02,0.21-0.03,0.25
		c-0.04,0.05-0.12,0.11-0.23,0.17c-0.13,0.08-0.23,0.14-0.31,0.2C12.8,6.6,12.7,6.58,12.58,6.47C12.48,6.39,12.45,6.3,12.49,6.21z
		 M13.22,7.07l-0.05,0.07l-0.08-0.05l-0.01-0.12l0.12,0.02L13.22,7.07z M12.87,7.14c-0.03,0.01-0.06,0.03-0.11,0.05
		c-0.05,0.02-0.09,0.04-0.12,0.05s-0.06-0.01-0.1-0.05c-0.03-0.04-0.03-0.07-0.01-0.1c0.02-0.03,0.04-0.06,0.07-0.1
		c0.03-0.05,0.08-0.07,0.14-0.05c0.05,0.01,0.09,0.02,0.12,0.03c0.04,0,0.06,0.03,0.06,0.07C12.92,7.1,12.9,7.13,12.87,7.14z
		 M13.81,7.93c-0.02,0.06-0.09,0.12-0.19,0.18c-0.1,0.06-0.19,0.09-0.25,0.08s-0.14-0.05-0.23-0.13c-0.1-0.07-0.15-0.14-0.16-0.21
		s0.01-0.15,0.06-0.26s0.11-0.18,0.16-0.21s0.14-0.04,0.26-0.03c0.12,0.01,0.21,0.04,0.25,0.09c0.04,0.04,0.08,0.12,0.1,0.24
		C13.83,7.79,13.83,7.88,13.81,7.93z M14.01,4.88c0,0.03-0.03,0.06-0.08,0.08c-0.05,0.03-0.1,0.05-0.13,0.06
		c-0.03,0.01-0.07-0.01-0.12-0.05s-0.06-0.08-0.05-0.11s0.03-0.08,0.05-0.14c0.02-0.03,0.04-0.05,0.07-0.06
		c0.02-0.01,0.06-0.01,0.1,0c0.05,0.01,0.08,0.01,0.1,0.02c0.02,0.01,0.04,0.03,0.05,0.08C14.01,4.81,14.01,4.85,14.01,4.88z
		 M14.28,6.83c-0.02,0-0.05-0.01-0.09-0.05c-0.02-0.04-0.02-0.07,0-0.09s0.04-0.05,0.07-0.08s0.05-0.06,0.06-0.09
		c0.01-0.02,0.04-0.03,0.08-0.01c0.07,0.02,0.11,0.07,0.11,0.16c0,0.04-0.01,0.07-0.03,0.08c-0.02,0.01-0.05,0.03-0.09,0.04
		C14.34,6.82,14.3,6.83,14.28,6.83z M14.33,6.07l0.09-0.13l0.1,0.1l0.02,0.12h-0.13L14.33,6.07z M14.57,7.51l-0.13-0.02l0.07-0.1
		l0.1-0.05l0.05,0.12L14.57,7.51z M14.75,5.37c-0.01,0.05-0.02,0.1-0.03,0.12s-0.05,0.05-0.1,0.06c-0.06,0.01-0.1,0.01-0.13,0
		s-0.06-0.04-0.09-0.09c-0.06-0.08-0.05-0.16,0.02-0.23c0.06-0.08,0.14-0.09,0.24-0.05c0.05,0.02,0.08,0.04,0.09,0.07
		C14.76,5.27,14.76,5.32,14.75,5.37z M15.18,6.87c-0.03,0.09-0.1,0.13-0.19,0.12c-0.09-0.01-0.15-0.05-0.17-0.14
		c-0.02-0.06-0.03-0.11-0.02-0.14c0.01-0.03,0.04-0.06,0.09-0.1c0.05-0.03,0.1-0.05,0.13-0.06c0.03-0.01,0.08,0.01,0.13,0.05
		s0.08,0.08,0.07,0.12S15.2,6.81,15.18,6.87z M15.23,3.83c-0.01,0.1-0.04,0.17-0.09,0.19s-0.12,0.05-0.22,0.08
		c-0.09,0.02-0.16,0.03-0.2,0.02s-0.1-0.05-0.14-0.13c-0.05-0.08-0.06-0.13-0.04-0.17s0.06-0.1,0.11-0.16
		c0.05-0.07,0.1-0.12,0.14-0.15c0.04-0.03,0.1-0.03,0.18,0c0.1,0.04,0.17,0.08,0.21,0.12C15.22,3.65,15.24,3.72,15.23,3.83z
		 M15.26,2.84c-0.03,0-0.06-0.03-0.08-0.08c-0.03-0.05-0.05-0.1-0.06-0.13s0.01-0.07,0.05-0.12s0.08-0.06,0.11-0.05
		s0.08,0.03,0.14,0.05c0.03,0.02,0.05,0.04,0.06,0.07c0.01,0.02,0.01,0.06,0,0.1c-0.01,0.05-0.01,0.08-0.02,0.1
		s-0.03,0.04-0.08,0.05C15.33,2.85,15.29,2.85,15.26,2.84z M15.36,3.51l0.08-0.04l0.04,0.07l-0.02,0.09L15.37,3.6L15.36,3.51z
		 M15.41,5.31c-0.03-0.03-0.04-0.05-0.04-0.08c0-0.02,0.01-0.05,0.04-0.09c0.01-0.04,0.03-0.07,0.05-0.08
		c0.02-0.01,0.05-0.02,0.1-0.01c0.04,0.01,0.07,0.02,0.08,0.04s0.02,0.05,0.03,0.09c0.01,0.05-0.02,0.09-0.08,0.12
		c-0.03,0.01-0.06,0.03-0.09,0.04C15.47,5.35,15.44,5.34,15.41,5.31z M16.07,6.14c0,0.08,0,0.13-0.01,0.17s-0.04,0.08-0.11,0.1
		c-0.1,0.03-0.17,0.04-0.22,0.05s-0.11-0.03-0.16-0.11c-0.06-0.08-0.09-0.15-0.08-0.2c0.01-0.05,0.05-0.12,0.11-0.2
		c0.06-0.08,0.12-0.14,0.16-0.16c0.05-0.03,0.12-0.02,0.21,0.01s0.13,0.07,0.12,0.13C16.07,5.98,16.07,6.06,16.07,6.14z"/>
</g>
</svg>
