<?xml version="1.0" encoding="utf-8"?>
<!-- Generator: Adobe Illustrator 25.4.1, SVG Export Plug-In . SVG Version: 6.00 Build 0)  -->
<svg version="1.1" id="Layer_1" xmlns="http://www.w3.org/2000/svg" xmlns:xlink="http://www.w3.org/1999/xlink" x="0px" y="0px"
	 viewBox="0 0 500 150" style="enable-background:new 0 0 500 150;" xml:space="preserve">
<style type="text/css">
	.st0{fill:#A8A8A7;}
	.st1{fill:#FDC300;}
	.st2{fill:none;}
	.st3{fill:#FFFFFF;}
</style>
<path class="st0" d="M32.51,111.41c-0.75,0-1.39-0.27-1.94-0.82c-0.54-0.54-0.82-1.19-0.82-1.94V42.76c0-0.75,0.27-1.39,0.82-1.94
	c0.54-0.54,1.19-0.82,1.94-0.82h16.12c1.36,0,2.38,0.37,3.06,1.12c0.68,0.75,1.12,1.29,1.33,1.63L67.8,67.24l14.79-24.48
	c0.2-0.34,0.65-0.88,1.33-1.63c0.68-0.75,1.7-1.12,3.06-1.12h16.12c0.75,0,1.39,0.27,1.94,0.82c0.54,0.54,0.82,1.19,0.82,1.94v65.89
	c0,0.75-0.27,1.39-0.82,1.94c-0.55,0.54-1.19,0.82-1.94,0.82H84.63c-0.75,0-1.39-0.27-1.94-0.82c-0.54-0.54-0.82-1.19-0.82-1.94
	V80.71l-6.73,11.02c-0.34,0.54-0.8,1.11-1.38,1.68c-0.58,0.58-1.38,0.87-2.4,0.87h-7.14c-1.02,0-1.82-0.29-2.4-0.87
	c-0.58-0.58-1.04-1.14-1.38-1.68l-6.73-11.02v27.95c0,0.75-0.27,1.39-0.82,1.94c-0.55,0.54-1.19,0.82-1.94,0.82H32.51z M34.45,45.01
	l-1.33,0.41l-1.02,1.02l1.33,0.82l1.33-0.61L34.45,45.01z M34.85,75.41l-0.71-0.61l-0.31,0.92l0.31,0.61l0.82-0.1L34.85,75.41z
	 M39.24,80.81c-0.82-0.54-1.46-0.97-1.94-1.27c-0.48-0.31-1.09-0.19-1.84,0.36c-0.82,0.61-1.19,1.19-1.12,1.73
	c0.07,0.55,0.27,1.29,0.61,2.24c0.27,0.95,0.58,1.62,0.92,1.99c0.34,0.37,0.98,0.56,1.94,0.56c1.22,0,2.19-0.05,2.91-0.15
	c0.71-0.1,1.24-0.73,1.58-1.89c0.34-1.16,0.15-1.87-0.56-2.14C41.03,81.97,40.19,81.49,39.24,80.81z M38.22,54.29
	c-0.14-0.61-0.27-1.05-0.41-1.33c-0.14-0.27-0.51-0.41-1.12-0.41c-0.61,0-1.04,0.09-1.27,0.25c-0.24,0.17-0.49,0.56-0.77,1.17
	c-0.2,0.48-0.2,0.83,0,1.07c0.2,0.24,0.51,0.53,0.92,0.87c0.61,0.54,1.26,0.58,1.94,0.1C38.19,55.62,38.42,55.04,38.22,54.29z
	 M45.26,60.82c-1.84-0.68-3.23-0.83-4.18-0.46c-0.95,0.37-2.04,1.31-3.26,2.8c-0.61,0.88-0.85,1.6-0.71,2.14
	c0.14,0.54,0.47,1.12,1.02,1.73c0.54,0.61,1.09,1.36,1.63,2.24c0.82,1.16,1.46,2.09,1.94,2.81c0.48,0.71,1.39,0.87,2.75,0.46
	c1.43-0.41,2.19-1.02,2.29-1.84c0.1-0.82,0.19-1.97,0.26-3.47c0.07-1.09,0.17-2.04,0.31-2.86c0.14-0.82,0.08-1.51-0.15-2.09
	C46.91,61.72,46.28,61.23,45.26,60.82z M42.91,93.46c0-0.54,0-0.95,0-1.22c0-0.27-0.24-0.48-0.71-0.61
	c-0.48-0.14-0.8-0.08-0.97,0.15c-0.17,0.24-0.39,0.56-0.66,0.97c-0.27,0.48-0.2,0.95,0.2,1.43c0.41,0.61,0.88,0.82,1.43,0.61
	C42.67,94.58,42.91,94.14,42.91,93.46z M44.44,100.7l-1.02-0.61l-1.43-0.1l0.1,1.73h1.53L44.44,100.7z M49.03,53.99
	c-0.14-0.48-0.55-0.68-1.22-0.61c-0.34,0-0.63,0.02-0.87,0.05c-0.24,0.03-0.43,0.22-0.56,0.56c-0.07,0.41,0.02,0.65,0.26,0.71
	c0.24,0.07,0.53,0.2,0.87,0.41c0.27,0.2,0.49,0.39,0.66,0.56c0.17,0.17,0.42,0.12,0.77-0.15c0.27-0.2,0.39-0.42,0.36-0.66
	C49.25,54.61,49.17,54.33,49.03,53.99z M50.05,81.01l-1.12-0.71l-0.51,1.12l0.31,0.82l1.33,0.1V81.01z M50.97,77.04l-0.51,0.41
	l-0.1,0.71l0.82,0.1l0.2-0.71L50.97,77.04z M55.87,60.61c-0.55-0.54-1-0.9-1.38-1.07c-0.37-0.17-0.87-0.08-1.48,0.26
	c-0.75,0.41-1.24,0.8-1.48,1.17c-0.24,0.37-0.26,1-0.05,1.89c0.14,0.75,0.39,1.21,0.77,1.38c0.37,0.17,0.97,0.32,1.79,0.46
	c0.61,0.07,1.02-0.05,1.22-0.36c0.2-0.31,0.44-0.73,0.71-1.27c0.27-0.54,0.44-0.98,0.51-1.33C56.55,61.4,56.34,61.02,55.87,60.61z
	 M57.19,70.61c-0.2-0.27-0.54-0.27-1.02,0c-0.34,0.14-0.6,0.24-0.76,0.31c-0.17,0.07-0.26,0.24-0.26,0.51
	c0.07,0.54,0.44,0.88,1.12,1.02c0.68,0.14,1.12-0.03,1.33-0.51c0.2-0.27,0.25-0.49,0.15-0.66C57.65,71.1,57.46,70.88,57.19,70.61z
	 M65.15,74.38c-0.82-0.34-1.43-0.34-1.84,0c-0.41,0.34-0.88,0.88-1.43,1.63c-0.61,0.75-1.09,1.34-1.43,1.79
	c-0.34,0.44-0.24,1.07,0.31,1.89c0.61,0.95,1.19,1.51,1.73,1.68c0.54,0.17,1.33,0.12,2.35-0.15c0.95-0.27,1.44-0.68,1.48-1.22
	c0.03-0.54,0.08-1.29,0.15-2.24c0.07-0.88,0.08-1.58,0.05-2.09C66.49,75.15,66.03,74.73,65.15,74.38z M70.15,82.34
	c-0.54-0.27-0.95-0.31-1.22-0.1c-0.27,0.2-0.61,0.51-1.02,0.92c-0.54,0.54-0.61,1.19-0.2,1.94c0.2,0.41,0.39,0.71,0.56,0.92
	c0.17,0.2,0.53,0.27,1.07,0.2c0.54-0.07,0.95-0.19,1.22-0.36c0.27-0.17,0.47-0.53,0.61-1.07c0.07-0.68,0.05-1.19-0.05-1.53
	C71.01,82.92,70.69,82.61,70.15,82.34z M76.98,68.88c-0.88-0.54-1.6-0.76-2.14-0.66c-0.54,0.1-1.22,0.49-2.04,1.17
	c-1.09,0.88-2.02,1.55-2.8,1.99c-0.78,0.44-0.94,1.31-0.46,2.6c0.54,1.43,1.21,2.24,1.99,2.45c0.78,0.2,1.95,0.27,3.52,0.2
	c1.22-0.07,2.02-0.37,2.4-0.92c0.37-0.54,0.77-1.43,1.17-2.65c0.27-1.02,0.29-1.8,0.05-2.35C78.42,70.17,77.86,69.56,76.98,68.88z
	 M86.47,44.19c-0.48-0.2-0.83-0.2-1.07,0c-0.24,0.2-0.53,0.51-0.87,0.92c-0.27,0.34-0.37,0.63-0.31,0.87
	c0.07,0.24,0.2,0.53,0.41,0.87c0.34,0.54,0.82,0.75,1.43,0.61c0.61-0.2,0.95-0.61,1.02-1.22c0-0.54,0.02-0.97,0.05-1.27
	C87.16,44.65,86.94,44.4,86.47,44.19z M86.77,56.33c-0.54,0-0.97-0.02-1.27-0.05c-0.31-0.03-0.56,0.22-0.77,0.76
	c-0.2,0.61-0.27,1.07-0.2,1.38c0.07,0.31,0.34,0.66,0.82,1.07c0.47,0.41,0.85,0.51,1.12,0.31c0.27-0.2,0.65-0.48,1.12-0.82
	c0.48-0.27,0.82-0.51,1.02-0.71c0.2-0.2,0.24-0.58,0.1-1.12c-0.14-0.47-0.36-0.73-0.66-0.76C87.74,56.35,87.32,56.33,86.77,56.33z
	 M87.08,70.61c-0.48-0.48-0.92-0.61-1.33-0.41c-0.48,0.27-0.68,0.71-0.61,1.33c0.07,0.41,0.15,0.73,0.25,0.97
	c0.1,0.24,0.36,0.39,0.77,0.46c0.41,0.07,0.66-0.02,0.76-0.25c0.1-0.24,0.26-0.53,0.46-0.87C87.59,71.43,87.49,71.02,87.08,70.61z
	 M86.57,102.23l-1.02,0.51v1.22l1.22,0.41l0.71-1.22L86.57,102.23z M93.4,88.97c-0.82-0.68-1.46-0.83-1.94-0.46
	c-0.48,0.37-1.16,0.83-2.04,1.38c-0.95,0.61-1.78,1.06-2.5,1.33c-0.71,0.27-0.9,0.99-0.56,2.14c0.27,1.22,0.73,1.96,1.38,2.19
	c0.65,0.24,1.61,0.39,2.91,0.46c1.02,0.07,1.68-0.15,1.99-0.66c0.31-0.51,0.63-1.24,0.97-2.19c0.41-0.95,0.68-1.72,0.82-2.3
	C94.56,90.28,94.22,89.65,93.4,88.97z M94.52,51.43c-0.82-0.2-1.31-0.07-1.48,0.41c-0.17,0.48-0.46,1.02-0.87,1.63
	c-0.41,0.68-0.75,1.19-1.02,1.53c-0.27,0.34-0.17,0.82,0.31,1.43c0.54,0.61,1.02,0.94,1.43,0.97c0.41,0.03,1.02-0.12,1.84-0.46
	c0.68-0.27,1.1-0.59,1.27-0.97c0.17-0.37,0.22-0.93,0.15-1.68c-0.07-0.82-0.17-1.44-0.31-1.89C95.71,51.96,95.27,51.64,94.52,51.43z
	 M94.63,67.65c-0.34-0.41-0.68-0.59-1.02-0.56c-0.34,0.03-0.78,0.15-1.33,0.36c-0.41,0.14-0.61,0.34-0.61,0.61c0,0.27,0,0.61,0,1.02
	c0,0.68,0.27,1.09,0.82,1.22c0.61,0.2,1.09,0.41,1.43,0.61c0.34,0.2,0.68,0.04,1.02-0.51c0.41-0.54,0.58-1,0.51-1.38
	C95.37,68.66,95.1,68.2,94.63,67.65z M94.42,74.69c0-0.47,0.05-0.85,0.15-1.12c0.1-0.27-0.05-0.48-0.46-0.61
	c-0.48-0.14-0.8-0.1-0.97,0.1c-0.17,0.2-0.43,0.48-0.77,0.82c-0.27,0.48-0.24,0.99,0.1,1.53c0.27,0.34,0.49,0.58,0.66,0.71
	c0.17,0.14,0.46,0.14,0.87,0c0.34-0.07,0.49-0.22,0.46-0.46C94.44,75.42,94.42,75.1,94.42,74.69z M101.97,80.1
	c-0.41-1.29-0.92-2.12-1.53-2.5c-0.61-0.37-1.6-0.56-2.96-0.56c-1.29,0-2.19,0.22-2.7,0.66c-0.51,0.44-0.97,1.27-1.38,2.5
	c-0.34,1.16-0.37,2.01-0.1,2.55c0.27,0.55,0.92,1.19,1.94,1.94c0.82,0.61,1.49,0.82,2.04,0.61c0.54-0.2,1.22-0.61,2.04-1.22
	c0.95-0.68,1.72-1.24,2.3-1.68C102.19,81.95,102.31,81.19,101.97,80.1z M99.52,102.13c-0.48-0.82-0.87-1.43-1.17-1.84
	c-0.31-0.41-0.94-0.51-1.89-0.31c-0.95,0.2-1.6,0.51-1.94,0.92c-0.34,0.41-0.58,1.12-0.71,2.14c-0.07,0.95,0.03,1.63,0.31,2.04
	c0.27,0.41,0.85,0.82,1.73,1.22c1.02,0.48,1.84,0.83,2.45,1.07c0.61,0.24,1.29-0.08,2.04-0.97c0.75-0.75,0.93-1.41,0.56-1.99
	C100.52,103.85,100.07,103.08,99.52,102.13z M97.99,61.02c-0.48-0.07-0.85-0.1-1.12-0.1c-0.27,0-0.51,0.24-0.71,0.71
	c-0.2,0.41-0.17,0.68,0.1,0.82c0.27,0.14,0.58,0.34,0.92,0.61c0.27,0.34,0.47,0.65,0.61,0.92c0.14,0.27,0.41,0.31,0.82,0.1
	c0.75-0.34,1.05-0.98,0.92-1.94c-0.07-0.41-0.22-0.68-0.46-0.82C98.82,61.19,98.47,61.09,97.99,61.02z M99.52,89.38l-1.33,0.31
	l-0.41,1.43l1.33,0.2l1.02-0.61L99.52,89.38z M101.56,42.87c-0.68-0.41-1.36-0.27-2.04,0.41c-0.27,0.27-0.36,0.53-0.25,0.77
	c0.1,0.24,0.25,0.56,0.46,0.97c0.2,0.34,0.36,0.61,0.46,0.82s0.36,0.27,0.77,0.2c0.47-0.07,0.83-0.17,1.07-0.31
	c0.24-0.14,0.39-0.44,0.46-0.92C102.62,43.92,102.31,43.27,101.56,42.87z"/>
<path class="st0" d="M224.98,112.43c-6.67,0-12.49-1.02-17.49-3.06c-5-2.04-8.94-5.12-11.83-9.23c-2.89-4.11-4.47-9.2-4.74-15.25
	c-0.2-5.85-0.2-11.83,0-17.95c0.27-5.98,1.84-11.05,4.69-15.2c2.86-4.15,6.8-7.31,11.83-9.49c5.03-2.18,10.88-3.26,17.54-3.26
	c6.66,0,12.51,1.09,17.54,3.26c5.03,2.18,8.99,5.34,11.88,9.49c2.89,4.15,4.44,9.21,4.64,15.2c0.2,6.12,0.2,12.1,0,17.95
	c-0.27,6.05-1.85,11.14-4.74,15.25c-2.89,4.12-6.83,7.19-11.83,9.23C237.47,111.41,231.64,112.43,224.98,112.43z M201.32,81.73
	c-0.41-0.61-0.82-0.82-1.22-0.61c-0.41,0.2-0.99,0.41-1.73,0.61c-0.61,0.2-1.09,0.37-1.43,0.51c-0.34,0.14-0.51,0.54-0.51,1.22
	c0,0.82,0.07,1.45,0.2,1.89c0.14,0.44,0.61,0.8,1.43,1.07c0.82,0.2,1.41,0.19,1.79-0.05c0.37-0.24,0.8-0.7,1.27-1.38
	c0.47-0.68,0.76-1.22,0.87-1.63C202.08,82.95,201.86,82.41,201.32,81.73z M198.87,93.87c-0.34-0.34-0.78-0.41-1.33-0.2
	c-0.27,0.14-0.49,0.25-0.66,0.36c-0.17,0.1-0.26,0.32-0.26,0.66c0,0.41,0.05,0.71,0.15,0.92s0.36,0.34,0.76,0.41
	c0.48,0.14,0.85,0.2,1.12,0.2c0.27,0,0.54-0.2,0.82-0.61c0.27-0.41,0.31-0.71,0.1-0.92C199.38,94.48,199.14,94.21,198.87,93.87z
	 M202.74,66.12c-0.14-0.47-0.48-0.71-1.02-0.71c-0.34,0-0.61,0.02-0.82,0.05c-0.2,0.04-0.34,0.22-0.41,0.56
	c-0.2,0.61-0.07,1.12,0.41,1.53c0.48,0.27,0.98,0.24,1.53-0.1C202.85,67.11,202.95,66.67,202.74,66.12z M205.6,54.49
	c-0.61,0-1.06,0.04-1.33,0.1c-0.27,0.07-0.51,0.37-0.71,0.92c-0.2,0.54-0.22,0.94-0.05,1.17c0.17,0.24,0.49,0.53,0.97,0.87
	c0.54,0.48,0.97,0.87,1.28,1.17c0.31,0.31,0.76,0.25,1.38-0.15c0.61-0.41,0.88-0.82,0.82-1.22c-0.07-0.41-0.2-0.98-0.41-1.73
	c-0.14-0.54-0.36-0.87-0.66-0.97C206.57,54.55,206.14,54.49,205.6,54.49z M208.25,98.86c-0.88-0.41-1.58-0.65-2.09-0.71
	c-0.51-0.07-1.11,0.27-1.79,1.02c-0.68,0.68-0.99,1.28-0.92,1.79c0.07,0.51,0.34,1.21,0.82,2.09c0.41,0.82,0.82,1.34,1.22,1.58
	c0.41,0.24,1.05,0.29,1.94,0.15c0.95-0.2,1.61-0.48,1.99-0.82c0.37-0.34,0.63-0.99,0.76-1.94c0.14-0.88,0.05-1.53-0.25-1.94
	C209.63,99.68,209.07,99.27,208.25,98.86z M204.38,88.05l-0.71-0.41l-0.2,0.71l0.31,0.82l0.82-0.41L204.38,88.05z M211.62,72.04
	c-0.27-0.82-0.63-1.26-1.07-1.33c-0.44-0.07-1.11-0.1-1.99-0.1c-0.61,0-1,0.14-1.17,0.41c-0.17,0.27-0.36,0.71-0.56,1.33
	c-0.2,0.61-0.36,1.11-0.46,1.48c-0.1,0.37,0.12,0.77,0.66,1.17c0.54,0.41,0.98,0.54,1.33,0.41c0.34-0.14,0.78-0.41,1.33-0.82
	c0.68-0.41,1.22-0.75,1.63-1.02C211.72,73.3,211.82,72.79,211.62,72.04z M209.78,64.59c-0.48-0.07-0.85-0.19-1.12-0.36
	c-0.27-0.17-0.54-0.05-0.82,0.36c-0.27,0.41-0.34,0.73-0.2,0.97c0.14,0.24,0.37,0.56,0.71,0.97c0.34,0.34,0.61,0.6,0.82,0.76
	c0.2,0.17,0.51,0.19,0.92,0.05c0.47-0.2,0.7-0.44,0.66-0.71c-0.03-0.27-0.05-0.65-0.05-1.12C210.7,65.1,210.39,64.8,209.78,64.59z
	 M210.9,92.95c-0.34-0.48-0.82-0.65-1.43-0.51c-0.48,0.14-0.88,0.24-1.22,0.31c-0.34,0.07-0.51,0.34-0.51,0.82
	c0,0.54,0.1,0.94,0.31,1.17c0.2,0.24,0.58,0.46,1.12,0.66c0.41,0.14,0.68,0.09,0.82-0.15c0.14-0.24,0.37-0.53,0.71-0.87
	C211.11,93.83,211.17,93.36,210.9,92.95z M215.49,49.7c-0.14-0.95-0.51-1.46-1.12-1.53c-0.61-0.07-1.39-0.17-2.35-0.31
	c-0.95-0.14-1.72-0.24-2.3-0.31c-0.58-0.07-1.07,0.34-1.48,1.22c-0.48,0.88-0.49,1.51-0.05,1.89c0.44,0.37,1.04,0.9,1.79,1.58
	c0.61,0.61,1.12,1.02,1.53,1.22c0.41,0.2,0.98,0.1,1.73-0.31c0.88-0.47,1.53-0.92,1.94-1.33C215.6,51.43,215.7,50.72,215.49,49.7z
	 M213.76,86.73c-0.14-0.54-0.36-0.85-0.66-0.92c-0.31-0.07-0.73-0.1-1.27-0.1c-0.75-0.07-1.26,0.27-1.53,1.02
	c-0.2,0.41-0.29,0.75-0.25,1.02c0.03,0.27,0.22,0.54,0.56,0.82c0.41,0.34,0.73,0.46,0.97,0.36c0.24-0.1,0.56-0.25,0.97-0.46
	c0.41-0.34,0.75-0.59,1.02-0.76C213.83,87.53,213.9,87.2,213.76,86.73z M214.07,105.19c-0.48-0.07-0.83-0.08-1.07-0.05
	c-0.24,0.04-0.46,0.22-0.66,0.56c-0.41,0.61-0.37,1.22,0.1,1.84c0.48,0.61,1.05,0.78,1.73,0.51c0.82-0.27,1.19-0.78,1.12-1.53
	c0-0.41-0.1-0.7-0.31-0.87C214.78,105.48,214.47,105.33,214.07,105.19z M216,96.31l-0.61,0.2l0.1,0.71l0.71,0.2L216,96.31z
	 M224.98,92.54c2.24,0,4.04-0.66,5.41-1.99c1.36-1.33,2.07-3.42,2.14-6.27c0.2-5.85,0.2-11.56,0-17.14
	c-0.07-2.86-0.8-4.95-2.19-6.27c-1.39-1.33-3.18-1.99-5.35-1.99c-2.18,0-3.94,0.66-5.3,1.99c-1.36,1.33-2.11,3.42-2.24,6.27
	c-0.2,5.58-0.2,11.29,0,17.14c0.14,2.86,0.87,4.95,2.19,6.27C220.95,91.88,222.74,92.54,224.98,92.54z M220.8,96.93
	c-0.61-0.14-1.09,0.04-1.43,0.51c-0.27,0.41-0.49,0.75-0.66,1.02c-0.17,0.27-0.12,0.61,0.15,1.02c0.34,0.41,0.66,0.56,0.97,0.46
	s0.7-0.25,1.17-0.46c0.48-0.2,0.85-0.36,1.12-0.46c0.27-0.1,0.41-0.42,0.41-0.97c0-0.48-0.17-0.75-0.51-0.82
	C221.68,97.17,221.27,97.06,220.8,96.93z M230.08,45.72c-1.43-0.61-2.55-1.16-3.37-1.63c-0.82-0.48-1.7-0.14-2.65,1.02
	c-1.02,1.16-1.24,2.11-0.66,2.86c0.58,0.75,1.24,1.77,1.99,3.06c0.68,1.09,1.26,1.85,1.73,2.29c0.48,0.44,1.33,0.53,2.55,0.25
	c1.22-0.27,1.92-0.73,2.09-1.38c0.17-0.65,0.32-1.58,0.46-2.81c0.07-1.09-0.04-1.87-0.31-2.35
	C231.64,46.57,231.03,46.13,230.08,45.72z M227.94,101.11c-1.16-0.14-2.01-0.03-2.55,0.31c-0.54,0.34-1.09,1.06-1.63,2.14
	c-0.48,1.09-0.66,1.96-0.56,2.6c0.1,0.65,0.63,1.34,1.58,2.09c0.88,0.82,1.65,1.26,2.29,1.33c0.65,0.07,1.48-0.2,2.5-0.82
	c1.02-0.61,1.65-1.21,1.89-1.79c0.24-0.58,0.22-1.44-0.05-2.6c-0.2-1.16-0.53-1.95-0.97-2.4
	C229.99,101.53,229.16,101.25,227.94,101.11z M225.39,97.54l-1.22-0.2l0.1,1.22l0.82,0.51l0.51-0.71L225.39,97.54z M230.18,96.42
	l-0.61-0.71l-1.02,0.1l0.2,1.02l0.82,0.41L230.18,96.42z M238.44,94.38c0-0.88-0.37-1.43-1.12-1.63c-0.41-0.14-0.66-0.08-0.77,0.15
	c-0.1,0.24-0.29,0.53-0.56,0.87c-0.27,0.34-0.51,0.61-0.71,0.82s-0.2,0.51,0,0.92c0.34,0.34,0.63,0.49,0.87,0.46
	c0.24-0.03,0.59-0.15,1.07-0.36c0.41-0.14,0.71-0.27,0.92-0.41C238.34,95.06,238.44,94.78,238.44,94.38z M238.65,88.05l-1.02-1.02
	l-0.92,1.33l0.82,0.92h1.33L238.65,88.05z M239.97,79.38c-0.95-0.41-1.73-0.24-2.35,0.51c-0.68,0.75-0.75,1.53-0.2,2.35
	c0.27,0.54,0.56,0.85,0.87,0.92c0.31,0.07,0.73,0.07,1.28,0c0.54-0.14,0.88-0.34,1.02-0.61c0.14-0.27,0.24-0.68,0.31-1.22
	c0.07-0.54,0.05-0.95-0.05-1.22C240.74,79.83,240.45,79.59,239.97,79.38z M239.87,70.92c-0.88-0.34-1.56-0.17-2.04,0.51
	c-0.54,0.68-0.58,1.39-0.1,2.14c0.27,0.41,0.54,0.61,0.82,0.61c0.27,0,0.65-0.07,1.12-0.2c0.41-0.07,0.65-0.22,0.71-0.46
	c0.07-0.24,0.1-0.56,0.1-0.97c0-0.41,0-0.75,0-1.02C240.48,71.26,240.28,71.05,239.87,70.92z M239.46,101.01l-1.02,0.51l-0.71,1.02
	l1.33,0.2l0.92-0.51L239.46,101.01z M243.03,62.55c-0.82-0.27-1.41-0.25-1.79,0.05c-0.37,0.31-0.83,0.8-1.38,1.48
	c-0.54,0.68-0.92,1.22-1.12,1.63c-0.2,0.41-0.07,0.99,0.41,1.73c0.48,0.75,0.95,1.17,1.43,1.27c0.47,0.1,1.16,0.05,2.04-0.15
	c0.95-0.27,1.68-0.53,2.19-0.77c0.51-0.24,0.8-0.87,0.87-1.89c0.07-1.09-0.1-1.82-0.51-2.19C244.77,63.35,244.05,62.96,243.03,62.55
	z M239.67,55.82l-0.92,0.2l0.1,0.92l0.82,0.31l0.61-0.71L239.67,55.82z M242.22,46.33c-0.61-0.34-1.12-0.34-1.53,0
	c-0.34,0.27-0.6,0.51-0.76,0.71c-0.17,0.2-0.19,0.51-0.05,0.92c0.2,0.48,0.42,0.73,0.66,0.76c0.24,0.04,0.59,0.05,1.07,0.05
	c0.34,0,0.54-0.1,0.61-0.31c0.07-0.2,0.17-0.48,0.31-0.82C242.66,47.05,242.56,46.61,242.22,46.33z M241.4,51.33l-1.02-0.41
	l-0.41,0.92l0.31,0.82l1.02-0.2L241.4,51.33z M244.87,93.66c-0.54-0.41-0.99-0.58-1.33-0.51c-0.34,0.07-0.78,0.27-1.33,0.61
	c-0.54,0.34-0.85,0.66-0.92,0.97c-0.07,0.31,0,0.76,0.2,1.38c0.2,0.88,0.78,1.36,1.73,1.43c0.95,0.07,1.6-0.34,1.94-1.22
	c0.2-0.61,0.34-1.1,0.41-1.48C245.65,94.46,245.41,94.07,244.87,93.66z M247.52,52.86c-0.61-0.2-1.07-0.37-1.38-0.51
	c-0.31-0.14-0.66,0.04-1.07,0.51c-0.41,0.48-0.58,0.87-0.51,1.17c0.07,0.31,0.27,0.73,0.61,1.27c0.2,0.48,0.46,0.73,0.77,0.77
	c0.31,0.04,0.7,0.02,1.17-0.05c0.48-0.14,0.75-0.31,0.82-0.51c0.07-0.2,0.14-0.54,0.2-1.02c0.07-0.41,0.07-0.73,0-0.97
	C248.07,53.29,247.86,53.07,247.52,52.86z M247.83,62.35l-0.82,0.41l0.1,0.92l0.92,0.31l0.2-0.92L247.83,62.35z M248.95,78.16
	c-0.48-0.07-0.8-0.03-0.97,0.1c-0.17,0.14-0.32,0.41-0.46,0.82c-0.2,0.34-0.32,0.63-0.36,0.87c-0.04,0.24,0.08,0.49,0.36,0.76
	c0.27,0.34,0.53,0.46,0.77,0.36c0.24-0.1,0.53-0.22,0.87-0.36c0.61-0.34,0.88-0.75,0.82-1.22c-0.07-0.41-0.15-0.71-0.25-0.92
	C249.61,78.36,249.36,78.23,248.95,78.16z M253.03,85.6c-0.95-0.34-1.67-0.37-2.14-0.1c-0.48,0.27-1.02,0.82-1.63,1.63
	c-0.61,0.82-0.97,1.5-1.07,2.04c-0.1,0.54,0.15,1.22,0.77,2.04c0.54,0.82,1.09,1.19,1.63,1.12c0.54-0.07,1.29-0.24,2.24-0.51
	c0.68-0.27,1.05-0.61,1.12-1.02c0.07-0.41,0.1-0.98,0.1-1.73c0-0.88,0.05-1.61,0.15-2.19C254.3,86.3,253.91,85.88,253.03,85.6z
	 M251.19,71.32c-0.55-0.14-0.9-0.08-1.07,0.15c-0.17,0.24-0.39,0.6-0.66,1.07c-0.34,0.54-0.31,1.09,0.1,1.63
	c0.41,0.41,0.71,0.77,0.92,1.07c0.2,0.31,0.54,0.32,1.02,0.05c0.61-0.2,0.99-0.46,1.12-0.77c0.14-0.31,0.17-0.77,0.1-1.38
	C252.66,72.14,252.15,71.53,251.19,71.32z"/>
<path class="st0" d="M271.18,111.41c-0.75,0-1.39-0.27-1.94-0.82c-0.54-0.54-0.82-1.19-0.82-1.94V42.76c0-0.75,0.27-1.39,0.82-1.94
	c0.54-0.54,1.19-0.82,1.94-0.82h16.12c1.36,0,2.35,0.31,2.96,0.92c0.61,0.61,1.02,1.09,1.22,1.43l17.24,28.25V42.76
	c0-0.75,0.27-1.39,0.82-1.94c0.54-0.54,1.19-0.82,1.94-0.82h18.46c0.75,0,1.39,0.27,1.94,0.82c0.54,0.54,0.82,1.19,0.82,1.94v65.89
	c0,0.75-0.27,1.39-0.82,1.94c-0.55,0.54-1.19,0.82-1.94,0.82h-16.12c-1.36,0-2.35-0.32-2.96-0.97c-0.61-0.65-1.02-1.1-1.22-1.38
	L292.4,83.05v25.6c0,0.75-0.27,1.39-0.82,1.94c-0.55,0.54-1.19,0.82-1.94,0.82H271.18z M275.26,93.76
	c-0.07-0.54-0.24-0.87-0.51-0.97c-0.27-0.1-0.68-0.22-1.22-0.36c-0.48-0.07-0.87-0.1-1.17-0.1c-0.31,0-0.56,0.2-0.77,0.61
	c-0.48,0.82-0.41,1.6,0.2,2.35c0.41,0.41,0.75,0.66,1.02,0.77c0.27,0.1,0.68,0.02,1.22-0.25C274.92,95.4,275.33,94.72,275.26,93.76z
	 M274.65,78.57c0-0.41-0.31-0.71-0.92-0.92c-0.54-0.14-0.92-0.03-1.12,0.31c-0.27,0.34-0.46,0.61-0.56,0.82s-0.05,0.48,0.15,0.82
	c0.48,0.55,1.09,0.68,1.84,0.41c0.41-0.14,0.61-0.32,0.61-0.56C274.65,79.2,274.65,78.91,274.65,78.57z M275.88,53.68
	c-0.14-0.54-0.34-0.9-0.61-1.07c-0.27-0.17-0.68-0.29-1.22-0.36c-0.55-0.07-0.9,0.02-1.07,0.26c-0.17,0.24-0.36,0.6-0.56,1.07
	c-0.27,0.75-0.14,1.36,0.41,1.84c0.41,0.41,0.75,0.71,1.02,0.92c0.27,0.2,0.68,0.17,1.22-0.1c0.54-0.34,0.87-0.68,0.97-1.02
	C276.13,54.87,276.08,54.36,275.88,53.68z M274.04,100.09l-0.92-0.51l-0.61,0.82l0.41,0.61h0.82L274.04,100.09z M276.69,72.24
	c-0.14-0.68-0.24-1.22-0.31-1.63c-0.07-0.41-0.48-0.65-1.22-0.71c-0.68-0.07-1.16,0.07-1.43,0.41c-0.27,0.34-0.54,0.85-0.82,1.53
	c-0.2,0.55-0.19,0.94,0.05,1.17c0.24,0.24,0.59,0.53,1.07,0.87c0.41,0.34,0.75,0.58,1.02,0.71c0.27,0.14,0.65,0.07,1.12-0.2
	c0.48-0.34,0.73-0.65,0.77-0.92C276.98,73.2,276.9,72.79,276.69,72.24z M276.18,83.87c-0.68-0.2-1.19-0.36-1.53-0.46
	c-0.34-0.1-0.71,0.12-1.12,0.66c-0.34,0.54-0.41,0.97-0.2,1.27s0.51,0.73,0.92,1.27c0.34,0.48,0.65,0.83,0.92,1.07
	c0.27,0.24,0.71,0.25,1.33,0.05c0.61-0.27,1-0.56,1.17-0.87c0.17-0.31,0.26-0.8,0.26-1.48c0-0.54-0.15-0.9-0.46-1.07
	C277.15,84.16,276.73,84.01,276.18,83.87z M277,101.93c-0.34-0.34-0.71-0.41-1.12-0.2c-0.34,0.2-0.6,0.36-0.77,0.46
	c-0.17,0.1-0.22,0.36-0.15,0.77c0.07,0.34,0.22,0.51,0.46,0.51c0.24,0,0.53,0.04,0.87,0.1c0.34,0.07,0.61,0.1,0.82,0.1
	c0.2,0,0.37-0.17,0.51-0.51c0.14-0.27,0.14-0.47,0-0.61C277.47,102.4,277.27,102.2,277,101.93z M280.77,91.42
	c-0.14-0.41-0.34-0.63-0.61-0.66c-0.27-0.03-0.65-0.05-1.12-0.05c-0.48,0-0.87,0-1.17,0s-0.53,0.24-0.66,0.71
	c-0.14,0.48-0.07,0.78,0.2,0.92c0.27,0.14,0.61,0.34,1.02,0.61c0.27,0.2,0.51,0.36,0.71,0.46c0.2,0.1,0.44,0.02,0.71-0.25
	c0.41-0.27,0.7-0.51,0.87-0.71C280.89,92.24,280.91,91.9,280.77,91.42z M279.75,45.42c-0.41-0.14-0.71-0.12-0.92,0.05
	c-0.2,0.17-0.44,0.46-0.71,0.87c-0.48,0.55-0.54,1.09-0.2,1.63c0.41,0.54,0.95,0.71,1.63,0.51c0.41-0.07,0.71-0.19,0.92-0.36
	c0.2-0.17,0.31-0.46,0.31-0.87c0-0.54-0.05-0.93-0.15-1.17C280.52,45.84,280.23,45.62,279.75,45.42z M282.3,68.16
	c-0.34-0.27-0.61-0.48-0.82-0.61c-0.2-0.14-0.51-0.07-0.92,0.2c-0.41,0.2-0.61,0.44-0.61,0.71c0,0.27,0.03,0.61,0.1,1.02
	c0.14,0.48,0.27,0.8,0.41,0.97c0.14,0.17,0.44,0.29,0.92,0.36c0.41,0,0.7-0.08,0.87-0.25c0.17-0.17,0.32-0.46,0.46-0.87
	C282.98,69.08,282.85,68.57,282.3,68.16z M285.77,102.74c-0.48-0.68-0.94-1.04-1.38-1.07c-0.44-0.03-1.07,0.09-1.89,0.36
	c-0.75,0.27-1.24,0.58-1.48,0.92c-0.24,0.34-0.36,0.88-0.36,1.63c0,0.82,0.1,1.41,0.31,1.79c0.2,0.37,0.68,0.7,1.43,0.97
	c0.95,0.27,1.7,0.46,2.24,0.56c0.54,0.1,1.12-0.25,1.73-1.07s0.82-1.5,0.61-2.04C286.79,104.24,286.38,103.56,285.77,102.74z
	 M289.24,53.07c-1.22-0.2-2.28-0.44-3.16-0.71c-0.88-0.27-1.67-0.31-2.35-0.1c-0.68,0.2-1.29,0.85-1.84,1.94
	c-0.55,1.09-0.7,1.96-0.46,2.6c0.24,0.65,0.73,1.24,1.48,1.79c0.75,0.54,1.56,1.26,2.45,2.14c1.09,1.09,1.99,1.9,2.7,2.45
	c0.71,0.54,1.78,0.48,3.21-0.2c1.63-0.88,2.7-1.72,3.21-2.5c0.51-0.78,0.63-2.09,0.36-3.93c-0.27-1.63-0.87-2.57-1.78-2.81
	C292.15,53.49,290.87,53.27,289.24,53.07z M285.57,82.95c-0.34-0.48-0.66-0.63-0.97-0.46c-0.31,0.17-0.73,0.36-1.27,0.56
	c-0.41,0.14-0.71,0.27-0.92,0.41c-0.2,0.14-0.31,0.41-0.31,0.82c0,0.41,0.1,0.68,0.31,0.82c0.2,0.14,0.51,0.27,0.92,0.41
	c0.48,0.2,0.83,0.32,1.07,0.36c0.24,0.03,0.53-0.12,0.87-0.46c0.34-0.54,0.56-0.97,0.66-1.28
	C286.03,83.82,285.91,83.43,285.57,82.95z M288.52,75.81c-0.54-0.54-0.99-0.93-1.33-1.17c-0.34-0.24-0.85-0.22-1.53,0.05
	c-0.88,0.34-1.48,0.68-1.79,1.02c-0.31,0.34-0.43,0.95-0.36,1.84c0.07,0.82,0.32,1.31,0.77,1.48c0.44,0.17,1.04,0.36,1.78,0.56
	c0.82,0.2,1.44,0.32,1.89,0.36c0.44,0.03,0.87-0.29,1.27-0.97c0.48-0.68,0.59-1.22,0.36-1.63C289.36,76.93,289,76.43,288.52,75.81z
	 M286.18,94.78c-0.75-0.14-1.29,0.07-1.63,0.61c-0.27,0.48-0.44,0.85-0.51,1.12c-0.07,0.27,0.07,0.61,0.41,1.02
	c0.34,0.34,0.65,0.49,0.92,0.46c0.27-0.03,0.65-0.15,1.12-0.36c0.48-0.2,0.8-0.41,0.97-0.61c0.17-0.2,0.22-0.54,0.15-1.02
	c-0.07-0.48-0.2-0.77-0.41-0.87S286.65,94.92,286.18,94.78z M289.95,45.72l-0.41-0.82l-0.71,0.41l-0.51,1.12l1.33,0.31L289.95,45.72
	z M296.07,69.49c-0.48-0.68-0.92-1.05-1.33-1.12c-0.41-0.07-1.02,0-1.84,0.2c-0.82,0.2-1.38,0.46-1.68,0.76
	c-0.31,0.31-0.46,0.87-0.46,1.68c0,0.75,0.15,1.26,0.46,1.53c0.31,0.27,0.83,0.54,1.58,0.82c0.61,0.2,1.07,0.22,1.38,0.05
	c0.31-0.17,0.66-0.53,1.07-1.07c0.48-0.54,0.83-1,1.07-1.38C296.57,70.59,296.48,70.1,296.07,69.49z M300.97,69.69
	c-0.68,0-1.12,0.14-1.33,0.41c-0.2,0.27-0.44,0.71-0.71,1.33c-0.27,0.75-0.48,1.34-0.61,1.78c-0.14,0.44,0.1,0.9,0.71,1.38
	c0.54,0.41,0.97,0.43,1.27,0.05c0.31-0.37,0.77-0.8,1.38-1.27c0.61-0.34,1.16-0.59,1.63-0.77c0.47-0.17,0.61-0.59,0.41-1.27
	c-0.2-0.75-0.51-1.21-0.92-1.38C302.4,69.78,301.78,69.69,300.97,69.69z M321.47,75.2c-2.04-0.88-3.76-1.39-5.15-1.53
	c-1.39-0.14-2.69,0.15-3.88,0.87c-1.19,0.71-2.53,1.92-4.03,3.62c-1.22,1.36-1.7,2.55-1.43,3.57c0.27,1.02,0.9,2.06,1.89,3.11
	c0.98,1.05,1.95,2.36,2.91,3.93c1.02,1.7,1.95,2.86,2.81,3.47c0.85,0.61,2.23,0.68,4.13,0.2c2.31-0.54,4.06-1.09,5.25-1.63
	c1.19-0.54,1.89-2,2.09-4.39c0.14-2.04,0.2-3.74,0.2-5.1c0-1.36-0.32-2.53-0.97-3.52C324.65,76.82,323.37,75.95,321.47,75.2z
	 M309.84,96.82l-1.12,0.61l0.1,1.12l1.12,0.31l0.61-1.02L309.84,96.82z M314.23,103.35l-1.02-0.31l-0.82,0.71l0.71,0.92l0.92-0.31
	L314.23,103.35z M316.88,47.76c-0.14-0.48-0.29-0.82-0.46-1.02c-0.17-0.2-0.49-0.31-0.97-0.31c-0.54,0-0.95,0.09-1.22,0.25
	c-0.27,0.17-0.48,0.49-0.61,0.97c-0.2,0.54-0.24,0.95-0.1,1.22c0.14,0.27,0.44,0.58,0.92,0.92c0.41,0.27,0.75,0.37,1.02,0.31
	c0.27-0.07,0.61-0.24,1.02-0.51C317.02,49.12,317.15,48.51,316.88,47.76z M316.06,55.11c-0.41-0.2-0.7-0.2-0.87,0
	c-0.17,0.2-0.39,0.44-0.66,0.71c-0.34,0.41-0.63,0.7-0.87,0.87c-0.24,0.17-0.26,0.46-0.05,0.87c0.34,0.54,0.63,0.9,0.87,1.07
	c0.24,0.17,0.66,0.22,1.27,0.15c0.61-0.14,1.02-0.34,1.22-0.61c0.2-0.27,0.34-0.71,0.41-1.33c0.07-0.54,0-0.92-0.2-1.12
	C316.98,55.51,316.61,55.31,316.06,55.11z M318.72,64.39c-0.61-0.48-1.22-0.51-1.84-0.1c-0.68,0.48-0.92,1.09-0.71,1.84
	c0.07,0.41,0.24,0.63,0.51,0.66c0.27,0.04,0.65,0.05,1.12,0.05c0.54,0,0.92-0.27,1.12-0.82c0.14-0.41,0.22-0.71,0.25-0.92
	C319.21,64.9,319.06,64.66,318.72,64.39z M320.14,52.25h-1.22l-0.51,0.71l0.61,0.82l0.92-0.41L320.14,52.25z M320.35,45.52
	l-0.92,0.41l0.1,1.12l1.02-0.31l0.51-0.61L320.35,45.52z M321.98,54.7l-1.22,0.2l-0.31,1.22l1.22,0.61l0.41-1.02L321.98,54.7z
	 M325.75,106.41l-0.71-0.71l-0.82,0.61l0.2,0.92l0.92,0.1L325.75,106.41z M330.14,60c-0.14-0.68-0.37-1.1-0.71-1.27
	c-0.34-0.17-0.85-0.29-1.53-0.36c-0.68-0.07-1.14,0.02-1.38,0.25c-0.24,0.24-0.49,0.66-0.77,1.28c-0.2,0.48-0.22,0.85-0.05,1.12
	c0.17,0.27,0.46,0.58,0.87,0.92c0.48,0.41,0.87,0.7,1.17,0.87c0.31,0.17,0.7,0.12,1.17-0.15c0.61-0.41,1.02-0.78,1.22-1.12
	C330.34,61.19,330.34,60.68,330.14,60z"/>
<path class="st1" d="M362.17,112.43c-3.4,0-6.61-0.82-9.64-2.45c-3.03-1.63-5.47-4.15-7.34-7.55c-1.87-3.4-2.8-7.79-2.8-13.16V61.12
	c0-0.75,0.27-1.39,0.82-1.94c0.54-0.54,1.19-0.82,1.94-0.82h19.48c0.75,0,1.39,0.27,1.94,0.82c0.54,0.55,0.82,1.19,0.82,1.94v27.44
	c0,3.74,1.7,5.61,5.1,5.61c3.4,0,5.1-1.87,5.1-5.61V61.12c0-0.75,0.27-1.39,0.82-1.94c0.54-0.54,1.19-0.82,1.94-0.82h19.38
	c0.75,0,1.39,0.27,1.94,0.82c0.54,0.55,0.82,1.19,0.82,1.94v47.53c0,0.75-0.27,1.39-0.82,1.94c-0.54,0.54-1.19,0.82-1.94,0.82
	h-17.85c-0.75,0-1.39-0.27-1.94-0.82c-0.54-0.54-0.82-1.19-0.82-1.94v-3.37c-1.7,2.52-4.05,4.33-7.04,5.46
	C369.07,111.87,365.77,112.43,362.17,112.43z M349.52,79.08c-0.27-0.34-0.53-0.53-0.77-0.56c-0.24-0.03-0.6-0.02-1.07,0.05
	c-0.54,0.14-0.85,0.58-0.92,1.33c-0.07,0.41,0.2,0.75,0.82,1.02c0.47,0.2,0.85,0.14,1.12-0.2c0.34-0.34,0.61-0.59,0.82-0.76
	C349.72,79.78,349.72,79.49,349.52,79.08z M355.74,66.22c-0.82-0.82-1.51-1.22-2.09-1.22c-0.58,0-1.38,0.24-2.4,0.71
	c-1.02,0.48-1.72,0.95-2.09,1.43c-0.37,0.48-0.49,1.26-0.36,2.35c0.14,1.09,0.44,1.82,0.92,2.19c0.48,0.37,1.26,0.66,2.35,0.87
	c0.95,0.2,1.61,0.12,1.99-0.26c0.37-0.37,0.8-1,1.28-1.89c0.54-0.88,0.92-1.6,1.12-2.14C356.66,67.72,356.42,67.04,355.74,66.22z
	 M354.31,85.4c-0.07-0.75-0.34-1.16-0.82-1.22c-0.48-0.07-1.09-0.17-1.84-0.31c-0.54-0.2-0.97-0.27-1.27-0.2
	c-0.31,0.07-0.63,0.34-0.97,0.82c-0.34,0.55-0.55,1-0.61,1.38c-0.07,0.37,0.14,0.8,0.61,1.27c0.41,0.54,0.8,0.85,1.17,0.92
	c0.37,0.07,0.9-0.03,1.58-0.31c0.75-0.27,1.31-0.53,1.68-0.77C354.23,86.74,354.38,86.22,354.31,85.4z M351.46,93.46
	c-0.41-0.61-0.92-0.82-1.53-0.61c-0.75,0.2-1.12,0.61-1.12,1.22c0,0.75,0.34,1.26,1.02,1.53c0.34,0.14,0.58,0.1,0.71-0.1
	c0.14-0.2,0.31-0.44,0.51-0.71c0.2-0.27,0.37-0.49,0.51-0.66C351.7,93.95,351.66,93.73,351.46,93.46z M360.03,97.13
	c-0.34-0.95-0.56-1.72-0.66-2.3c-0.1-0.58-0.66-0.87-1.68-0.87c-0.95,0-1.5,0.29-1.63,0.87c-0.14,0.58-0.34,1.34-0.61,2.3
	c-0.2,0.68-0.22,1.17-0.05,1.48c0.17,0.31,0.53,0.66,1.07,1.07c0.54,0.41,0.99,0.6,1.33,0.56c0.34-0.03,0.78-0.22,1.33-0.56
	c0.54-0.41,0.88-0.78,1.02-1.12C360.26,98.22,360.23,97.74,360.03,97.13z M358.9,106.11c-0.27-0.54-0.75-0.75-1.43-0.61
	c-0.48,0.07-0.82,0.17-1.02,0.31c-0.2,0.14-0.34,0.41-0.41,0.82c-0.07,0.41,0.03,0.65,0.31,0.71c0.27,0.07,0.58,0.17,0.92,0.31
	c0.27,0.14,0.51,0.24,0.71,0.31c0.2,0.07,0.41-0.03,0.61-0.31C359.07,107.09,359.17,106.58,358.9,106.11z M360.54,88.66
	c-0.14-0.34-0.27-0.61-0.41-0.82c-0.14-0.2-0.37-0.27-0.71-0.2c-0.54,0.07-0.95,0.14-1.22,0.2c-0.27,0.07-0.48,0.37-0.61,0.92
	c-0.07,0.54-0.02,0.94,0.15,1.17c0.17,0.24,0.53,0.49,1.07,0.77c0.41,0.2,0.7,0.2,0.87,0c0.17-0.2,0.42-0.44,0.76-0.71
	C360.77,89.65,360.81,89.21,360.54,88.66z M361.96,60.82c-0.68-0.07-1.14,0.03-1.38,0.31c-0.24,0.27-0.46,0.71-0.66,1.33
	c-0.27,0.54-0.34,0.95-0.2,1.22c0.14,0.27,0.41,0.61,0.82,1.02c0.48,0.41,0.87,0.7,1.17,0.87c0.31,0.17,0.73,0.12,1.27-0.15
	c0.61-0.34,0.93-0.7,0.97-1.07c0.03-0.37-0.05-0.87-0.25-1.48c-0.14-0.68-0.29-1.17-0.46-1.48
	C363.07,61.07,362.64,60.89,361.96,60.82z M362.68,76.02c-0.27-0.48-0.61-0.68-1.02-0.61c-0.48,0.14-0.71,0.51-0.71,1.12
	c0,0.34-0.02,0.63-0.05,0.87c-0.03,0.24,0.15,0.43,0.56,0.56c0.48,0.2,0.83,0.29,1.07,0.25c0.24-0.03,0.49-0.25,0.77-0.66
	c0.27-0.27,0.31-0.51,0.1-0.71C363.19,76.63,362.95,76.36,362.68,76.02z M365.64,105.39c-0.27-0.34-0.53-0.48-0.77-0.41
	c-0.24,0.07-0.56,0.17-0.97,0.31c-0.48,0.14-0.83,0.25-1.07,0.36c-0.24,0.1-0.36,0.39-0.36,0.87c0,0.48,0.14,0.77,0.41,0.87
	c0.27,0.1,0.61,0.19,1.02,0.25c0.54,0.2,0.95,0.34,1.22,0.41c0.27,0.07,0.58-0.1,0.92-0.51c0.27-0.41,0.36-0.77,0.25-1.07
	C366.2,106.16,365.97,105.8,365.64,105.39z M364.72,82.24l-1.02-0.41l-0.82,0.61l0.61,0.71l1.12,0.41L364.72,82.24z M369,102.33
	c-0.27-0.14-0.49-0.15-0.66-0.05c-0.17,0.1-0.36,0.29-0.56,0.56c-0.27,0.27-0.48,0.49-0.61,0.66c-0.14,0.17-0.1,0.43,0.1,0.76
	c0.2,0.41,0.41,0.68,0.61,0.82c0.2,0.14,0.51,0.17,0.92,0.1c0.41-0.07,0.65-0.22,0.71-0.46c0.07-0.24,0.14-0.59,0.2-1.07
	C369.78,103.05,369.55,102.61,369,102.33z M370.94,98.56l-0.92-0.61l-0.61,0.92l0.31,1.12l1.02-0.51L370.94,98.56z M376.75,103.66
	c-0.14-0.54-0.39-0.83-0.76-0.87c-0.38-0.03-0.87-0.08-1.48-0.15c-0.61-0.07-1.12-0.15-1.53-0.25c-0.41-0.1-0.75,0.12-1.02,0.66
	c-0.27,0.68-0.34,1.21-0.2,1.58c0.14,0.37,0.44,0.8,0.92,1.28c0.47,0.41,0.85,0.49,1.12,0.25c0.27-0.24,0.68-0.49,1.22-0.77
	c0.54-0.27,0.99-0.48,1.33-0.61C376.69,104.65,376.82,104.27,376.75,103.66z M381.96,65.72l-1.02-0.31l-0.82,0.41l0.31,0.82
	l1.12,0.31L381.96,65.72z M383.69,61.74l-1.02-0.41l-0.82,0.61l0.51,0.71l0.71,0.1L383.69,61.74z M383.38,77.65
	c-0.54-0.27-0.95-0.2-1.22,0.2c-0.2,0.2-0.27,0.37-0.2,0.51c0.07,0.14,0.17,0.34,0.31,0.61c0.2,0.34,0.34,0.65,0.41,0.92
	c0.07,0.27,0.27,0.37,0.61,0.31c0.41-0.14,0.58-0.32,0.51-0.56c-0.07-0.24-0.07-0.56,0-0.97C383.86,78.13,383.72,77.79,383.38,77.65
	z M388.59,96.42c-0.48-1.02-0.88-1.84-1.22-2.45c-0.34-0.61-1.09-0.85-2.24-0.71c-1.16,0.14-1.77,0.56-1.84,1.27
	c-0.07,0.71-0.2,1.65-0.41,2.8c-0.2,1.02-0.38,1.84-0.51,2.45c-0.14,0.61,0.27,1.19,1.22,1.73c1.02,0.54,1.82,0.71,2.4,0.51
	c0.58-0.2,1.31-0.71,2.19-1.53c0.75-0.68,1.1-1.29,1.07-1.84C389.21,98.12,388.99,97.37,388.59,96.42z M393.89,65.2
	c-0.88-1.02-1.67-1.51-2.35-1.48c-0.68,0.04-1.63,0.29-2.86,0.77c-1.56,0.54-2.8,0.97-3.72,1.27s-1.34,1.24-1.28,2.81
	c0.07,1.77,0.49,2.92,1.28,3.47c0.78,0.54,2.02,1.06,3.72,1.53c1.43,0.41,2.43,0.34,3.01-0.2c0.58-0.54,1.27-1.46,2.09-2.75
	c0.75-1.09,1.16-1.99,1.22-2.7C395.08,67.19,394.71,66.29,393.89,65.2z M386.24,108.35l-0.71-1.02l-0.82,0.71l-0.1,0.71l0.82,0.2
	L386.24,108.35z M387.67,89.79l-1.12,0.51l0.31,1.22l1.22,0.2l0.1-1.02L387.67,89.79z M389.81,82.24c-0.2-0.34-0.37-0.59-0.51-0.77
	c-0.14-0.17-0.41-0.19-0.82-0.05c-0.61,0.2-0.92,0.68-0.92,1.43c0,0.54,0.34,0.92,1.02,1.12c0.47,0.14,0.88-0.03,1.22-0.51
	C390.08,83.05,390.08,82.65,389.81,82.24z M394.91,93.56c-0.55-0.07-0.95-0.05-1.22,0.05c-0.27,0.1-0.51,0.39-0.71,0.87
	c-0.2,0.41-0.22,0.73-0.05,0.97c0.17,0.24,0.42,0.53,0.76,0.87c0.41,0.34,0.73,0.61,0.97,0.82c0.24,0.2,0.56,0.2,0.97,0
	c0.61-0.34,1.02-0.65,1.22-0.92c0.2-0.27,0.27-0.71,0.2-1.33c-0.14-0.61-0.37-0.97-0.71-1.07C396,93.71,395.52,93.63,394.91,93.56z
	 M397.26,85.4c-0.48-0.34-0.87-0.48-1.17-0.41c-0.31,0.07-0.7,0.27-1.17,0.61c-0.41,0.27-0.63,0.55-0.66,0.82
	c-0.04,0.27,0.02,0.65,0.15,1.12c0.14,0.55,0.29,0.92,0.46,1.12c0.17,0.2,0.49,0.31,0.97,0.31c0.82,0,1.39-0.41,1.73-1.22
	c0.2-0.54,0.32-0.97,0.36-1.27C397.95,86.17,397.73,85.81,397.26,85.4z M397.77,79.08c0-0.48-0.02-0.83-0.05-1.07
	c-0.04-0.24-0.25-0.39-0.66-0.46c-0.48-0.14-0.85-0.19-1.12-0.15c-0.27,0.04-0.54,0.25-0.82,0.66c-0.27,0.41-0.34,0.73-0.2,0.97
	c0.13,0.24,0.34,0.56,0.61,0.97c0.27,0.34,0.51,0.56,0.71,0.66c0.2,0.1,0.51,0.09,0.92-0.05c0.41-0.14,0.61-0.32,0.61-0.56
	C397.77,79.81,397.77,79.49,397.77,79.08z M396.44,74.38l-0.71-0.31l-0.31,0.82l0.41,0.82l0.61-0.71V74.38z"/>
<path class="st1" d="M414.39,130.79c-0.75,0-1.39-0.27-1.94-0.82c-0.54-0.54-0.82-1.19-0.82-1.94V61.12c0-0.75,0.27-1.39,0.82-1.94
	c0.54-0.54,1.19-0.82,1.94-0.82h17.34c0.75,0,1.39,0.27,1.94,0.82c0.54,0.55,0.82,1.19,0.82,1.94v3.06c1.56-1.97,3.59-3.6,6.07-4.9
	c2.48-1.29,5.49-1.94,9.03-1.94c3.94,0,7.5,0.78,10.66,2.35c3.16,1.56,5.73,4.06,7.7,7.5c1.97,3.43,3.06,8.01,3.26,13.72
	c0.07,1.5,0.1,2.82,0.1,3.98c0,1.16-0.04,2.52-0.1,4.08c-0.2,5.3-1.28,9.69-3.21,13.16c-1.94,3.47-4.51,6.05-7.7,7.75
	c-3.2,1.7-6.77,2.55-10.71,2.55c-2.86,0-5.44-0.48-7.75-1.43c-2.31-0.95-4.25-2.51-5.81-4.69v21.73c0,0.75-0.27,1.39-0.82,1.94
	c-0.54,0.54-1.19,0.82-1.94,0.82H414.39z M415.72,63.57l-1.02-0.41l-0.61,1.22l1.02,0.71l1.12-0.41L415.72,63.57z M416.23,89.48
	l-1.43-0.1l-0.1,1.53l1.33,0.61l0.82-1.12L416.23,89.48z M419.29,82.75c-0.07-0.54-0.15-0.97-0.25-1.27
	c-0.1-0.31-0.43-0.53-0.97-0.66c-0.68-0.14-1.24-0.22-1.68-0.25c-0.44-0.03-0.83,0.29-1.17,0.97c-0.41,0.61-0.46,1.09-0.15,1.43
	c0.31,0.34,0.7,0.78,1.17,1.33c0.41,0.48,0.77,0.83,1.07,1.07c0.31,0.24,0.76,0.22,1.38-0.05c0.61-0.27,0.88-0.59,0.82-0.97
	C419.42,83.96,419.35,83.43,419.29,82.75z M417.76,118.14l-1.02-0.61l-0.92,0.61l0.41,0.82l0.82,0.1L417.76,118.14z M418.47,123.14
	l-1.22-0.71l-0.82,1.02l0.61,0.82l1.22,0.41L418.47,123.14z M421.53,62.76c-0.61-0.2-1.09-0.24-1.43-0.1
	c-0.34,0.14-0.68,0.48-1.02,1.02c-0.41,0.54-0.58,0.97-0.51,1.27c0.07,0.31,0.27,0.73,0.61,1.27c0.41,0.54,0.78,0.88,1.12,1.02
	c0.34,0.14,0.82,0.1,1.43-0.1c0.75-0.27,1.27-0.54,1.58-0.82c0.31-0.27,0.46-0.78,0.46-1.53c0-0.75-0.19-1.22-0.56-1.43
	C422.84,63.16,422.28,62.96,421.53,62.76z M423.27,101.31c-0.07-0.47-0.22-0.8-0.46-0.97c-0.24-0.17-0.6-0.32-1.07-0.46
	c-0.75-0.14-1.33,0.14-1.73,0.82c-0.34,0.68-0.27,1.29,0.2,1.84c0.47,0.54,1.05,0.68,1.73,0.41c0.48-0.2,0.83-0.39,1.07-0.56
	C423.25,102.22,423.33,101.86,423.27,101.31z M423.88,89.18c-0.95-0.2-1.62-0.17-1.99,0.1c-0.37,0.27-0.8,0.82-1.27,1.63
	c-0.48,0.68-0.7,1.24-0.66,1.68c0.03,0.44,0.32,0.97,0.87,1.58c0.61,0.75,1.12,1.34,1.53,1.78c0.41,0.44,1.09,0.46,2.04,0.05
	c0.95-0.34,1.53-0.78,1.73-1.33c0.2-0.54,0.27-1.36,0.2-2.45c-0.07-0.95-0.25-1.63-0.56-2.04
	C425.46,89.79,424.83,89.45,423.88,89.18z M424.08,124.47c-0.41-0.41-0.77-0.55-1.07-0.41c-0.31,0.14-0.7,0.34-1.17,0.61
	c-0.48,0.27-0.85,0.49-1.12,0.66c-0.27,0.17-0.37,0.53-0.31,1.07c0.13,0.54,0.36,0.85,0.66,0.92c0.31,0.07,0.73,0.14,1.27,0.2
	c0.48,0.07,0.83,0.07,1.07,0c0.24-0.07,0.46-0.34,0.66-0.82c0.27-0.48,0.44-0.87,0.51-1.17
	C424.66,125.23,424.49,124.87,424.08,124.47z M423.06,117.94c-0.48-0.41-0.99-0.41-1.53,0c-0.41,0.27-0.7,0.51-0.87,0.71
	c-0.17,0.2-0.19,0.51-0.05,0.92c0.13,0.41,0.32,0.61,0.56,0.61c0.24,0,0.59,0,1.07,0c0.47,0,0.85,0.02,1.12,0.05
	c0.27,0.03,0.47-0.15,0.61-0.56c0.14-0.48,0.12-0.82-0.05-1.02C423.76,118.45,423.47,118.21,423.06,117.94z M427.35,73.06
	c-0.95-0.2-1.65-0.17-2.09,0.1c-0.44,0.27-0.9,0.82-1.38,1.63c-0.48,0.95-0.75,1.7-0.82,2.24c-0.07,0.54,0.27,1.19,1.02,1.94
	c0.68,0.75,1.31,1.17,1.89,1.27c0.58,0.1,1.34-0.05,2.29-0.46c0.88-0.41,1.33-0.88,1.33-1.43c0-0.54-0.07-1.29-0.2-2.24
	c-0.14-0.95-0.27-1.67-0.41-2.14C428.84,73.5,428.3,73.2,427.35,73.06z M430.61,106.92c-0.95-0.48-1.68-0.59-2.19-0.36
	c-0.51,0.24-1.14,0.73-1.89,1.48c-0.75,0.68-1.17,1.28-1.28,1.79c-0.1,0.51,0.05,1.17,0.46,1.99c0.47,1.02,0.92,1.75,1.33,2.19
	c0.41,0.44,1.19,0.59,2.35,0.46c1.02-0.2,1.67-0.58,1.94-1.12c0.27-0.54,0.51-1.33,0.71-2.35c0.13-1.09,0.17-1.9,0.1-2.45
	C432.07,108.01,431.56,107.47,430.61,106.92z M430.41,81.73c-0.68-0.2-1.16-0.14-1.43,0.2c-0.27,0.34-0.61,0.82-1.02,1.43
	c-0.41,0.68-0.73,1.22-0.97,1.63c-0.24,0.41-0.09,0.92,0.46,1.53c0.47,0.61,0.92,0.78,1.33,0.51c0.41-0.27,0.99-0.54,1.73-0.82
	c0.54-0.27,0.9-0.53,1.07-0.77c0.17-0.24,0.22-0.63,0.15-1.17c-0.07-0.68-0.12-1.24-0.15-1.68
	C431.54,82.15,431.15,81.87,430.41,81.73z M430.51,62.55c-0.82-0.07-1.31,0.14-1.48,0.61c-0.17,0.48-0.43,1.09-0.77,1.84
	c-0.34,0.68-0.65,1.24-0.92,1.68c-0.27,0.44-0.1,0.94,0.51,1.48c0.68,0.61,1.26,0.9,1.73,0.87c0.47-0.03,1.12-0.29,1.94-0.77
	c0.68-0.34,1.07-0.71,1.17-1.12c0.1-0.41,0.08-1.02-0.05-1.84c-0.2-0.82-0.39-1.44-0.56-1.89
	C431.92,62.98,431.39,62.69,430.51,62.55z M431.02,125.79l-0.82,0.2l-0.31,0.61l0.61,0.51l0.51-0.51V125.79z M439.48,99.78
	c-0.14-1.22-0.51-1.97-1.12-2.24c-0.61-0.27-1.5-0.54-2.65-0.82c-1.22-0.27-2.16-0.42-2.8-0.46c-0.65-0.03-1.31,0.49-1.99,1.58
	c-0.54,0.95-0.54,1.67,0,2.14c0.54,0.48,1.19,1.16,1.94,2.04c0.75,0.88,1.31,1.67,1.68,2.35c0.37,0.68,1.14,0.78,2.29,0.31
	c1.29-0.54,2.09-1.14,2.4-1.79C439.53,102.25,439.62,101.21,439.48,99.78z M441.12,94.17c1.9,0,3.18-0.53,3.82-1.58
	c0.65-1.05,1.07-2.5,1.28-4.33c0.2-2.24,0.2-4.49,0-6.73c-0.2-1.84-0.63-3.28-1.28-4.33c-0.65-1.05-1.92-1.58-3.82-1.58
	c-1.91,0-3.2,0.53-3.88,1.58c-0.68,1.06-1.09,2.5-1.22,4.33c-0.07,1.5-0.1,2.74-0.1,3.72c0,0.99,0.03,2.26,0.1,3.83
	c0.14,1.63,0.59,2.89,1.38,3.77C438.17,93.73,439.41,94.17,441.12,94.17z M442.85,65.51c-0.27-0.41-0.51-0.7-0.71-0.87
	c-0.2-0.17-0.54-0.22-1.02-0.15c-0.48,0.14-0.73,0.34-0.77,0.61c-0.04,0.27-0.09,0.65-0.15,1.12c-0.07,0.41-0.07,0.71,0,0.92
	c0.07,0.2,0.31,0.41,0.71,0.61c0.47,0.2,0.85,0.32,1.12,0.36c0.27,0.03,0.58-0.12,0.92-0.46c0.34-0.41,0.47-0.75,0.41-1.02
	C443.29,66.36,443.12,65.99,442.85,65.51z M450.5,99.37c-0.95-1.02-1.73-1.78-2.35-2.29c-0.61-0.51-1.53-0.46-2.75,0.15
	c-1.22,0.61-1.73,1.33-1.53,2.14s0.41,1.87,0.61,3.16c0.2,1.22,0.39,2.18,0.56,2.86c0.17,0.68,0.87,1.09,2.09,1.22
	c1.43,0.27,2.48,0.27,3.16,0c0.68-0.27,1.36-1.05,2.04-2.35c0.54-1.16,0.61-2.04,0.2-2.65S451.45,100.26,450.5,99.37z M461.52,73.67
	c-1.5-1.43-2.77-2.02-3.83-1.78c-1.05,0.24-2.46,0.87-4.23,1.89c-1.5,0.82-2.38,1.67-2.65,2.55c-0.27,0.88-0.24,2.14,0.1,3.77
	c0.27,1.56,0.76,2.58,1.48,3.06c0.71,0.48,1.85,0.82,3.42,1.02c1.84,0.2,3.28,0.32,4.33,0.36c1.05,0.04,1.95-0.77,2.7-2.4
	c0.95-1.97,1.36-3.52,1.22-4.64C463.93,76.37,463.08,75.1,461.52,73.67z M453.87,63.68c-0.41-0.34-0.73-0.37-0.97-0.1
	c-0.24,0.27-0.6,0.54-1.07,0.82c-0.34,0.2-0.61,0.37-0.82,0.51c-0.2,0.14-0.27,0.41-0.2,0.82c0.14,0.41,0.31,0.66,0.51,0.76
	c0.2,0.1,0.54,0.19,1.02,0.26c0.47,0.07,0.85,0.09,1.12,0.05c0.27-0.03,0.51-0.29,0.71-0.77c0.2-0.54,0.31-0.97,0.31-1.27
	S454.27,64.08,453.87,63.68z M452.85,94.27l-1.22-0.61l-0.2,1.43l0.71,1.22l1.12-1.02L452.85,94.27z M456.62,105.29
	c-0.61-0.07-1.06-0.05-1.33,0.05c-0.27,0.1-0.54,0.39-0.82,0.87c-0.2,0.48-0.2,0.83,0,1.07c0.2,0.24,0.48,0.53,0.82,0.87
	c0.34,0.34,0.63,0.56,0.87,0.66c0.24,0.1,0.56,0.05,0.97-0.15c0.47-0.27,0.8-0.51,0.97-0.71c0.17-0.2,0.22-0.58,0.15-1.12
	c-0.14-0.54-0.31-0.92-0.51-1.12S457.16,105.36,456.62,105.29z M457.84,62.14c-0.27-0.34-0.51-0.61-0.71-0.82s-0.51-0.24-0.92-0.1
	c-0.41,0.2-0.61,0.44-0.61,0.71c0,0.27,0.03,0.65,0.1,1.12c0.07,0.55,0.41,0.88,1.02,1.02c0.34,0.07,0.63,0.12,0.87,0.15
	c0.24,0.03,0.46-0.12,0.66-0.46c0.2-0.34,0.25-0.61,0.15-0.82C458.3,62.76,458.11,62.49,457.84,62.14z M460.7,99.48
	c-0.61-0.61-1.12-1.05-1.53-1.33c-0.41-0.27-0.95-0.17-1.63,0.31c-0.75,0.41-1.09,0.85-1.02,1.33c0.07,0.48,0.2,1.12,0.41,1.94
	c0.14,0.61,0.36,0.97,0.66,1.07s0.76,0.19,1.38,0.26c0.68,0.07,1.22,0.1,1.63,0.1s0.75-0.31,1.02-0.92
	c0.27-0.68,0.32-1.19,0.15-1.53C461.6,100.36,461.24,99.95,460.7,99.48z M464.07,66.43c-0.48-0.2-0.83-0.32-1.07-0.36
	c-0.24-0.03-0.53,0.12-0.87,0.46c-0.27,0.41-0.31,0.71-0.1,0.92c0.2,0.2,0.44,0.48,0.71,0.82c0.34,0.48,0.56,0.87,0.66,1.17
	c0.1,0.31,0.39,0.39,0.87,0.26c0.54-0.2,0.83-0.46,0.87-0.77c0.03-0.31,0.05-0.73,0.05-1.27c0-0.41-0.09-0.68-0.25-0.82
	C464.76,66.7,464.47,66.57,464.07,66.43z M465.6,92.44c-0.14-0.47-0.27-0.82-0.41-1.02c-0.14-0.2-0.41-0.31-0.82-0.31
	c-0.41,0-0.66,0.1-0.77,0.31c-0.1,0.2-0.22,0.51-0.36,0.92c-0.2,0.48-0.07,0.88,0.41,1.22c0.27,0.2,0.49,0.36,0.66,0.46
	c0.17,0.1,0.39,0.05,0.66-0.15C465.53,93.53,465.73,93.05,465.6,92.44z"/>
<g>
	<path class="st2" d="M124.03,67.76c-0.34-0.34-0.78-0.41-1.33-0.2c-0.27,0.14-0.49,0.25-0.66,0.36c-0.17,0.1-0.26,0.32-0.26,0.66
		c0,0.41,0.05,0.71,0.15,0.92s0.36,0.34,0.76,0.41c0.48,0.14,0.85,0.2,1.12,0.2c0.27,0,0.54-0.2,0.82-0.61
		c0.27-0.41,0.31-0.71,0.1-0.92C124.54,68.37,124.3,68.1,124.03,67.76z"/>
	<path class="st2" d="M126.89,39.3c-0.34,0-0.61,0.02-0.82,0.05c-0.2,0.04-0.34,0.22-0.41,0.56c-0.2,0.61-0.07,1.12,0.41,1.53
		c0.48,0.27,0.98,0.24,1.53-0.1c0.41-0.34,0.51-0.78,0.31-1.33C127.77,39.54,127.43,39.3,126.89,39.3z"/>
	<path class="st2" d="M129.64,31.44c0.54,0.48,0.97,0.87,1.28,1.17c0.31,0.31,0.76,0.25,1.38-0.15c0.61-0.41,0.88-0.82,0.82-1.22
		c-0.07-0.41-0.2-0.98-0.41-1.73c-0.14-0.54-0.36-0.87-0.66-0.97c-0.31-0.1-0.73-0.15-1.27-0.15c-0.61,0-1.06,0.04-1.33,0.1
		c-0.27,0.07-0.51,0.37-0.71,0.92c-0.2,0.54-0.22,0.94-0.05,1.17C128.84,30.82,129.17,31.1,129.64,31.44z"/>
	<path class="st2" d="M125.26,55.01c-0.41,0.2-0.99,0.41-1.73,0.61c-0.61,0.2-1.09,0.37-1.43,0.51c-0.34,0.14-0.51,0.54-0.51,1.22
		c0,0.82,0.07,1.45,0.2,1.89c0.14,0.44,0.61,0.8,1.43,1.07c0.82,0.2,1.41,0.19,1.79-0.05c0.37-0.24,0.8-0.7,1.27-1.38
		c0.47-0.68,0.76-1.22,0.87-1.63c0.1-0.41-0.12-0.95-0.66-1.63C126.07,55.01,125.67,54.8,125.26,55.01z"/>
	<polygon class="st2" points="128.83,61.53 128.62,62.25 128.93,63.06 129.75,62.66 129.54,61.94 	"/>
	<path class="st2" d="M133.42,72.75c-0.88-0.41-1.58-0.65-2.09-0.71c-0.51-0.07-1.11,0.27-1.79,1.02c-0.68,0.68-0.99,1.28-0.92,1.79
		c0.07,0.51,0.34,1.21,0.82,2.09c0.41,0.82,0.82,1.34,1.22,1.58c0.41,0.24,1.05,0.29,1.94,0.15c0.95-0.2,1.61-0.48,1.99-0.82
		c0.37-0.34,0.63-0.99,0.76-1.94c0.14-0.88,0.05-1.53-0.25-1.94C134.79,73.57,134.23,73.16,133.42,72.75z"/>
	<path class="st2" d="M138.72,61.58c0.27-0.17,0.34-0.49,0.2-0.97c-0.14-0.54-0.36-0.85-0.66-0.92c-0.31-0.07-0.73-0.1-1.27-0.1
		c-0.75-0.07-1.26,0.27-1.53,1.02c-0.2,0.41-0.29,0.75-0.25,1.02c0.03,0.27,0.22,0.54,0.56,0.82c0.41,0.34,0.73,0.46,0.97,0.36
		c0.24-0.1,0.56-0.25,0.97-0.46C138.11,62.01,138.45,61.76,138.72,61.58z"/>
	<path class="st2" d="M134.64,66.33c-0.48,0.14-0.88,0.24-1.22,0.31c-0.34,0.07-0.51,0.34-0.51,0.82c0,0.54,0.1,0.94,0.31,1.17
		c0.2,0.24,0.58,0.46,1.12,0.66c0.41,0.14,0.68,0.09,0.82-0.15c0.14-0.24,0.37-0.53,0.71-0.87c0.41-0.54,0.48-1.02,0.2-1.43
		C135.73,66.36,135.25,66.19,134.64,66.33z"/>
	<path class="st2" d="M132.55,44.91c-0.17,0.27-0.36,0.71-0.56,1.33c-0.2,0.61-0.36,1.11-0.46,1.48c-0.1,0.37,0.12,0.77,0.66,1.17
		c0.54,0.41,0.98,0.54,1.33,0.41c0.34-0.14,0.78-0.41,1.33-0.82c0.68-0.41,1.22-0.75,1.63-1.02c0.41-0.27,0.51-0.78,0.31-1.53
		c-0.27-0.82-0.63-1.26-1.07-1.33c-0.44-0.07-1.11-0.1-1.99-0.1C133.11,44.5,132.72,44.64,132.55,44.91z"/>
	<polygon class="st2" points="164.83,31.14 165.45,30.42 164.83,29.71 163.92,29.91 164.02,30.83 	"/>
	<polygon class="st2" points="165.14,25.73 165.45,26.55 166.47,26.34 166.57,25.22 165.55,24.81 	"/>
	<path class="st2" d="M163.71,48.07c0.27,0,0.65-0.07,1.12-0.2c0.41-0.07,0.65-0.22,0.71-0.46c0.07-0.24,0.1-0.56,0.1-0.97
		c0-0.41,0-0.75,0-1.02c0-0.27-0.2-0.48-0.61-0.61c-0.88-0.34-1.56-0.17-2.04,0.51c-0.54,0.68-0.58,1.39-0.1,2.14
		C163.17,47.87,163.44,48.07,163.71,48.07z"/>
	<path class="st2" d="M165.7,22.62c0.24,0.04,0.59,0.05,1.07,0.05c0.34,0,0.54-0.1,0.61-0.31c0.07-0.2,0.17-0.48,0.31-0.82
		c0.14-0.61,0.03-1.05-0.31-1.33c-0.61-0.34-1.12-0.34-1.53,0c-0.34,0.27-0.6,0.51-0.76,0.71c-0.17,0.2-0.19,0.51-0.05,0.92
		C165.24,22.33,165.46,22.59,165.7,22.62z"/>
	<path class="st2" d="M134.34,41.18c0.2,0.17,0.51,0.19,0.92,0.05c0.47-0.2,0.7-0.44,0.66-0.71c-0.03-0.27-0.05-0.65-0.05-1.12
		c0-0.41-0.31-0.71-0.92-0.92c-0.48-0.07-0.85-0.19-1.12-0.36c-0.27-0.17-0.54-0.05-0.82,0.36c-0.27,0.41-0.34,0.73-0.2,0.97
		c0.14,0.24,0.37,0.56,0.71,0.97C133.86,40.76,134.13,41.02,134.34,41.18z"/>
	<path class="st2" d="M139.23,79.08c-0.48-0.07-0.83-0.08-1.07-0.05c-0.24,0.04-0.46,0.22-0.66,0.56c-0.41,0.61-0.37,1.22,0.1,1.84
		c0.48,0.61,1.05,0.78,1.73,0.51c0.82-0.27,1.19-0.78,1.12-1.53c0-0.41-0.1-0.7-0.31-0.87C139.95,79.37,139.64,79.21,139.23,79.08z"
		/>
	<path class="st2" d="M150.55,24.92c0.68,1.09,1.26,1.85,1.73,2.29c0.48,0.44,1.33,0.53,2.55,0.25c1.22-0.27,1.92-0.73,2.09-1.38
		c0.17-0.65,0.32-1.58,0.46-2.81c0.07-1.09-0.04-1.87-0.31-2.35c-0.27-0.48-0.88-0.92-1.84-1.33c-1.43-0.61-2.55-1.16-3.37-1.63
		c-0.82-0.48-1.7-0.14-2.65,1.02c-1.02,1.16-1.24,2.11-0.66,2.86C149.14,22.6,149.8,23.62,150.55,24.92z"/>
	<path class="st2" d="M175.65,49.14c0.2,0.31,0.54,0.32,1.02,0.05c0.61-0.2,0.99-0.46,1.12-0.77c0.14-0.31,0.17-0.77,0.1-1.38
		c-0.07-1.02-0.58-1.63-1.53-1.84c-0.55-0.14-0.9-0.08-1.07,0.15c-0.17,0.24-0.39,0.6-0.66,1.07c-0.34,0.54-0.31,1.09,0.1,1.63
		C175.14,48.48,175.44,48.83,175.65,49.14z"/>
	<polygon class="st2" points="153.92,70.71 154.74,71.12 155.35,70.31 154.74,69.59 153.72,69.69 	"/>
	<path class="st2" d="M135.15,26.14c0.61,0.61,1.12,1.02,1.53,1.22c0.41,0.2,0.98,0.1,1.73-0.31c0.88-0.47,1.53-0.92,1.94-1.33
		c0.41-0.41,0.51-1.12,0.31-2.14c-0.14-0.95-0.51-1.46-1.12-1.53c-0.61-0.07-1.39-0.17-2.35-0.31c-0.95-0.14-1.72-0.24-2.3-0.31
		c-0.58-0.07-1.07,0.34-1.48,1.22c-0.48,0.88-0.49,1.51-0.05,1.89C133.81,24.93,134.4,25.46,135.15,26.14z"/>
	<path class="st2" d="M173.1,29.4c0.07-0.2,0.14-0.54,0.2-1.02c0.07-0.41,0.07-0.73,0-0.97c-0.07-0.24-0.27-0.46-0.61-0.66
		c-0.61-0.2-1.07-0.37-1.38-0.51c-0.31-0.14-0.66,0.04-1.07,0.51c-0.41,0.48-0.58,0.87-0.51,1.17c0.07,0.31,0.27,0.73,0.61,1.27
		c0.2,0.48,0.46,0.73,0.77,0.77c0.31,0.04,0.7,0.02,1.17-0.05C172.75,29.78,173.03,29.61,173.1,29.4z"/>
	<polygon class="st2" points="173.4,36.95 172.99,36.24 172.18,36.65 172.28,37.56 173.2,37.87 	"/>
	<path class="st2" d="M168.2,36.44c-0.82-0.27-1.41-0.25-1.79,0.05c-0.37,0.31-0.83,0.8-1.38,1.48c-0.54,0.68-0.92,1.22-1.12,1.63
		c-0.2,0.41-0.07,0.99,0.41,1.73c0.48,0.75,0.95,1.17,1.43,1.27c0.47,0.1,1.16,0.05,2.04-0.15c0.95-0.27,1.68-0.53,2.19-0.77
		c0.51-0.24,0.8-0.87,0.87-1.89c0.07-1.09-0.1-1.82-0.51-2.19C169.93,37.24,169.22,36.85,168.2,36.44z"/>
	<path class="st2" d="M170.04,67.55c-0.54-0.41-0.99-0.58-1.33-0.51c-0.34,0.07-0.78,0.27-1.33,0.61c-0.54,0.34-0.85,0.66-0.92,0.97
		c-0.07,0.31,0,0.76,0.2,1.38c0.2,0.88,0.78,1.36,1.73,1.43c0.95,0.07,1.6-0.34,1.94-1.22c0.2-0.61,0.34-1.1,0.41-1.48
		C170.82,68.35,170.58,67.96,170.04,67.55z"/>
	<path class="st2" d="M178.2,59.49c-0.95-0.34-1.67-0.37-2.14-0.1c-0.48,0.27-1.02,0.82-1.63,1.63c-0.61,0.82-0.97,1.5-1.07,2.04
		c-0.1,0.54,0.15,1.22,0.77,2.04c0.54,0.82,1.09,1.19,1.63,1.12c0.54-0.07,1.29-0.24,2.24-0.51c0.68-0.27,1.05-0.61,1.12-1.02
		c0.07-0.41,0.1-0.98,0.1-1.73c0-0.88,0.05-1.61,0.15-2.19C179.47,60.19,179.08,59.77,178.2,59.49z"/>
	<polygon class="st2" points="140.56,70.41 140.66,71.12 141.37,71.33 141.17,70.2 	"/>
	<path class="st2" d="M165.14,53.27c-0.95-0.41-1.73-0.24-2.35,0.51c-0.68,0.75-0.75,1.53-0.2,2.35c0.27,0.54,0.56,0.85,0.87,0.92
		c0.31,0.07,0.73,0.07,1.28,0c0.54-0.14,0.88-0.34,1.02-0.61c0.14-0.27,0.24-0.68,0.31-1.22c0.07-0.54,0.05-0.95-0.05-1.22
		C165.9,53.71,165.61,53.48,165.14,53.27z"/>
	<path class="st2" d="M174.32,54.6c0.61-0.34,0.88-0.75,0.82-1.22c-0.07-0.41-0.15-0.71-0.25-0.92c-0.1-0.2-0.36-0.34-0.77-0.41
		c-0.48-0.07-0.8-0.03-0.97,0.1c-0.17,0.14-0.32,0.41-0.46,0.82c-0.2,0.34-0.32,0.63-0.36,0.87c-0.04,0.24,0.08,0.49,0.36,0.76
		c0.27,0.34,0.53,0.46,0.77,0.36C173.69,54.85,173.98,54.73,174.32,54.6z"/>
	<polygon class="st2" points="163.61,75.41 162.9,76.43 164.22,76.63 165.14,76.12 164.63,74.9 	"/>
	<path class="st2" d="M155.6,75.86c-0.44-0.44-1.27-0.73-2.5-0.87c-1.16-0.14-2.01-0.03-2.55,0.31c-0.54,0.34-1.09,1.06-1.63,2.14
		c-0.48,1.09-0.66,1.96-0.56,2.6c0.1,0.65,0.63,1.34,1.58,2.09c0.88,0.82,1.65,1.26,2.29,1.33c0.65,0.07,1.48-0.2,2.5-0.82
		c1.02-0.61,1.65-1.21,1.89-1.79c0.24-0.58,0.22-1.44-0.05-2.6C156.37,77.11,156.04,76.31,155.6,75.86z"/>
	<path class="st2" d="M163.61,68.27c0-0.88-0.37-1.43-1.12-1.63c-0.41-0.14-0.66-0.08-0.77,0.15c-0.1,0.24-0.29,0.53-0.56,0.87
		c-0.27,0.34-0.51,0.61-0.71,0.82s-0.2,0.51,0,0.92c0.34,0.34,0.63,0.49,0.87,0.46c0.24-0.03,0.59-0.15,1.07-0.36
		c0.41-0.14,0.71-0.27,0.92-0.41C163.51,68.95,163.61,68.67,163.61,68.27z"/>
	<polygon class="st2" points="149.43,72.45 150.25,72.96 150.76,72.24 150.55,71.43 149.33,71.22 	"/>
	<polygon class="st2" points="164.02,63.17 163.81,61.94 162.79,60.92 161.88,62.25 162.69,63.17 	"/>
	<path class="st2" d="M147.19,71.12c-0.34-0.07-0.75-0.17-1.22-0.31c-0.61-0.14-1.09,0.04-1.43,0.51c-0.27,0.41-0.49,0.75-0.66,1.02
		c-0.17,0.27-0.12,0.61,0.15,1.02c0.34,0.41,0.66,0.56,0.97,0.46s0.7-0.25,1.17-0.46c0.48-0.2,0.85-0.36,1.12-0.46
		c0.27-0.1,0.41-0.42,0.41-0.97C147.7,71.46,147.53,71.19,147.19,71.12z"/>
	<path class="st3" d="M184.21,40.83c-0.2-5.98-1.75-11.05-4.64-15.2c-2.89-4.15-6.85-7.31-11.88-9.49
		c-5.03-2.18-10.88-3.26-17.54-3.26c-6.67,0-12.51,1.09-17.54,3.26c-5.03,2.18-8.98,5.34-11.83,9.49c-2.86,4.15-4.42,9.21-4.69,15.2
		c-0.2,6.12-0.2,12.1,0,17.95c0.27,6.05,1.85,11.14,4.74,15.25c2.89,4.12,6.83,7.19,11.83,9.23c5,2.04,10.83,3.06,17.49,3.06
		c6.66,0,12.5-1.02,17.49-3.06s8.94-5.12,11.83-9.23c2.89-4.11,4.47-9.2,4.74-15.25C184.42,52.93,184.42,46.95,184.21,40.83z
		 M174.63,46.44c0.27-0.48,0.49-0.83,0.66-1.07c0.17-0.24,0.53-0.29,1.07-0.15c0.95,0.2,1.46,0.82,1.53,1.84
		c0.07,0.61,0.03,1.07-0.1,1.38c-0.14,0.31-0.51,0.56-1.12,0.77c-0.48,0.27-0.82,0.25-1.02-0.05c-0.2-0.31-0.51-0.66-0.92-1.07
		C174.32,47.53,174.28,46.98,174.63,46.44z M165.09,20.94c0.17-0.2,0.42-0.44,0.76-0.71c0.41-0.34,0.92-0.34,1.53,0
		c0.34,0.27,0.44,0.71,0.31,1.33c-0.14,0.34-0.24,0.61-0.31,0.82c-0.07,0.2-0.27,0.31-0.61,0.31c-0.48,0-0.83-0.02-1.07-0.05
		c-0.24-0.03-0.46-0.29-0.66-0.76C164.9,21.45,164.92,21.14,165.09,20.94z M166.57,25.22l-0.1,1.12l-1.02,0.2l-0.31-0.82l0.41-0.92
		L166.57,25.22z M164.83,29.71l0.61,0.71l-0.61,0.71l-0.82-0.31l-0.1-0.92L164.83,29.71z M163,45.32c0.48-0.68,1.16-0.85,2.04-0.51
		c0.41,0.14,0.61,0.34,0.61,0.61c0,0.27,0,0.61,0,1.02c0,0.41-0.04,0.73-0.1,0.97c-0.07,0.24-0.31,0.39-0.71,0.46
		c-0.48,0.14-0.85,0.2-1.12,0.2c-0.27,0-0.55-0.2-0.82-0.61C162.42,46.71,162.45,46,163,45.32z M149.23,19
		c0.95-1.16,1.84-1.5,2.65-1.02c0.82,0.48,1.94,1.02,3.37,1.63c0.95,0.41,1.56,0.85,1.84,1.33c0.27,0.48,0.37,1.26,0.31,2.35
		c-0.14,1.22-0.29,2.16-0.46,2.81c-0.17,0.65-0.87,1.11-2.09,1.38c-1.22,0.27-2.08,0.19-2.55-0.25c-0.48-0.44-1.06-1.21-1.73-2.29
		c-0.75-1.29-1.41-2.31-1.99-3.06C147.99,21.11,148.21,20.16,149.23,19z M155.35,70.31l-0.61,0.82l-0.82-0.41l-0.2-1.02l1.02-0.1
		L155.35,70.31z M144.35,39.98c0.14-1.22,0.43-2.06,0.87-2.5c0.44-0.44,1.24-0.77,2.4-0.97c1.16-0.27,2.02-0.29,2.6-0.05
		c0.58,0.24,1.17,0.87,1.79,1.89c0.61,1.02,0.88,1.85,0.82,2.5c-0.07,0.65-0.51,1.41-1.33,2.29c-0.75,0.95-1.44,1.48-2.09,1.58
		c-0.65,0.1-1.51-0.08-2.6-0.56c-1.09-0.54-1.8-1.09-2.14-1.63C144.31,41.99,144.21,41.14,144.35,39.98z M133.42,22.67
		c0.41-0.88,0.9-1.29,1.48-1.22c0.58,0.07,1.34,0.17,2.3,0.31c0.95,0.14,1.73,0.24,2.35,0.31c0.61,0.07,0.98,0.58,1.12,1.53
		c0.2,1.02,0.1,1.73-0.31,2.14c-0.41,0.41-1.05,0.85-1.94,1.33c-0.75,0.41-1.33,0.51-1.73,0.31c-0.41-0.2-0.92-0.61-1.53-1.22
		c-0.75-0.68-1.34-1.21-1.79-1.58C132.92,24.19,132.94,23.56,133.42,22.67z M133.72,44.5c0.88,0,1.55,0.03,1.99,0.1
		c0.44,0.07,0.8,0.51,1.07,1.33c0.2,0.75,0.1,1.26-0.31,1.53c-0.41,0.27-0.95,0.61-1.63,1.02c-0.54,0.41-0.99,0.68-1.33,0.82
		c-0.34,0.14-0.78,0-1.33-0.41c-0.55-0.41-0.77-0.8-0.66-1.17c0.1-0.37,0.25-0.87,0.46-1.48c0.2-0.61,0.39-1.05,0.56-1.33
		C132.72,44.64,133.11,44.5,133.72,44.5z M133.01,38.48c0.27-0.41,0.54-0.53,0.82-0.36c0.27,0.17,0.65,0.29,1.12,0.36
		c0.61,0.2,0.92,0.51,0.92,0.92c0,0.48,0.02,0.85,0.05,1.12c0.03,0.27-0.19,0.51-0.66,0.71c-0.41,0.14-0.71,0.12-0.92-0.05
		c-0.2-0.17-0.48-0.42-0.82-0.76c-0.34-0.41-0.58-0.73-0.71-0.97C132.67,39.21,132.74,38.89,133.01,38.48z M124.65,69.49
		c-0.27,0.41-0.54,0.61-0.82,0.61c-0.27,0-0.65-0.07-1.12-0.2c-0.41-0.07-0.66-0.2-0.76-0.41s-0.15-0.51-0.15-0.92
		c0-0.34,0.08-0.56,0.26-0.66c0.17-0.1,0.39-0.22,0.66-0.36c0.54-0.2,0.99-0.14,1.33,0.2c0.27,0.34,0.51,0.61,0.71,0.82
		C124.95,68.78,124.92,69.08,124.65,69.49z M127.14,57.25c-0.1,0.41-0.39,0.95-0.87,1.63c-0.48,0.68-0.9,1.14-1.27,1.38
		c-0.37,0.24-0.97,0.25-1.79,0.05c-0.82-0.27-1.29-0.63-1.43-1.07c-0.14-0.44-0.2-1.07-0.2-1.89c0-0.68,0.17-1.09,0.51-1.22
		c0.34-0.14,0.82-0.31,1.43-0.51c0.75-0.2,1.33-0.41,1.73-0.61c0.41-0.2,0.82,0,1.22,0.61C127.03,56.3,127.25,56.84,127.14,57.25z
		 M127.6,41.34c-0.54,0.34-1.05,0.37-1.53,0.1c-0.48-0.41-0.61-0.92-0.41-1.53c0.07-0.34,0.2-0.53,0.41-0.56
		c0.2-0.03,0.48-0.05,0.82-0.05c0.54,0,0.88,0.24,1.02,0.71C128.11,40.56,128.01,41,127.6,41.34z M128.73,29.4
		c0.2-0.54,0.44-0.85,0.71-0.92c0.27-0.07,0.71-0.1,1.33-0.1c0.54,0,0.97,0.05,1.27,0.15c0.31,0.1,0.53,0.43,0.66,0.97
		c0.2,0.75,0.34,1.33,0.41,1.73c0.07,0.41-0.2,0.82-0.82,1.22c-0.61,0.41-1.07,0.46-1.38,0.15c-0.31-0.31-0.73-0.7-1.28-1.17
		c-0.48-0.34-0.8-0.63-0.97-0.87C128.5,30.34,128.52,29.95,128.73,29.4z M129.75,62.66l-0.82,0.41l-0.31-0.82l0.2-0.71l0.71,0.41
		L129.75,62.66z M135.36,75.92c-0.14,0.95-0.39,1.6-0.76,1.94c-0.37,0.34-1.04,0.61-1.99,0.82c-0.88,0.14-1.53,0.09-1.94-0.15
		c-0.41-0.24-0.82-0.76-1.22-1.58c-0.48-0.88-0.75-1.58-0.82-2.09c-0.07-0.51,0.24-1.1,0.92-1.79c0.68-0.75,1.28-1.09,1.79-1.02
		c0.51,0.07,1.21,0.31,2.09,0.71c0.82,0.41,1.38,0.82,1.68,1.22C135.41,74.39,135.49,75.03,135.36,75.92z M135.87,68.27
		c-0.34,0.34-0.58,0.63-0.71,0.87c-0.14,0.24-0.41,0.29-0.82,0.15c-0.55-0.2-0.92-0.42-1.12-0.66c-0.2-0.24-0.31-0.63-0.31-1.17
		c0-0.47,0.17-0.75,0.51-0.82c0.34-0.07,0.75-0.17,1.22-0.31c0.61-0.14,1.09,0.04,1.43,0.51C136.34,67.25,136.27,67.72,135.87,68.27
		z M135.76,62.45c-0.34-0.27-0.53-0.54-0.56-0.82c-0.04-0.27,0.05-0.61,0.25-1.02c0.27-0.75,0.78-1.09,1.53-1.02
		c0.54,0,0.97,0.04,1.27,0.1c0.31,0.07,0.53,0.37,0.66,0.92c0.14,0.48,0.07,0.8-0.2,0.97c-0.27,0.17-0.61,0.43-1.02,0.76
		c-0.41,0.2-0.73,0.36-0.97,0.46C136.49,62.91,136.17,62.79,135.76,62.45z M139.33,81.93c-0.68,0.27-1.26,0.1-1.73-0.51
		c-0.48-0.61-0.51-1.22-0.1-1.84c0.2-0.34,0.42-0.53,0.66-0.56c0.24-0.03,0.59-0.02,1.07,0.05c0.41,0.14,0.71,0.29,0.92,0.46
		c0.2,0.17,0.31,0.46,0.31,0.87C140.52,81.15,140.15,81.66,139.33,81.93z M140.66,71.12l-0.1-0.71l0.61-0.2l0.2,1.12L140.66,71.12z
		 M143.48,63.66c0.48-0.82,1.02-1.94,1.63-3.37c0.41-0.95,0.85-1.56,1.33-1.84c0.48-0.27,1.26-0.37,2.35-0.31
		c1.22,0.14,2.16,0.29,2.81,0.46c0.65,0.17,1.11,0.87,1.38,2.09c0.27,1.22,0.19,2.08-0.25,2.55c-0.44,0.48-1.21,1.06-2.29,1.73
		c-1.29,0.75-2.31,1.41-3.06,1.99c-0.75,0.58-1.7,0.36-2.86-0.66C143.34,65.37,143,64.48,143.48,63.66z M150.76,72.24l-0.51,0.71
		l-0.82-0.51l-0.1-1.22l1.22,0.2L150.76,72.24z M147.29,72.91c-0.27,0.1-0.65,0.25-1.12,0.46c-0.48,0.2-0.87,0.36-1.17,0.46
		s-0.63-0.05-0.97-0.46c-0.27-0.41-0.32-0.75-0.15-1.02c0.17-0.27,0.39-0.61,0.66-1.02c0.34-0.47,0.82-0.65,1.43-0.51
		c0.47,0.14,0.88,0.24,1.22,0.31c0.34,0.07,0.51,0.34,0.51,0.82C147.7,72.48,147.56,72.8,147.29,72.91z M156.62,80.86
		c-0.24,0.58-0.87,1.17-1.89,1.79c-1.02,0.61-1.85,0.88-2.5,0.82c-0.65-0.07-1.41-0.51-2.29-1.33c-0.95-0.75-1.48-1.44-1.58-2.09
		c-0.1-0.65,0.08-1.51,0.56-2.6c0.54-1.09,1.09-1.8,1.63-2.14c0.54-0.34,1.39-0.44,2.55-0.31c1.22,0.14,2.06,0.43,2.5,0.87
		c0.44,0.44,0.77,1.24,0.97,2.4C156.84,79.42,156.86,80.29,156.62,80.86z M158.65,50.32c-0.03,0.31-0.29,0.56-0.77,0.77
		c-0.54,0.34-0.97,0.54-1.27,0.61c-0.31,0.07-0.7-0.1-1.17-0.51c-0.48-0.41-0.65-0.77-0.51-1.07c0.14-0.31,0.31-0.77,0.51-1.38
		c0.2-0.34,0.43-0.54,0.66-0.61c0.24-0.07,0.56-0.07,0.97,0c0.48,0.07,0.82,0.14,1.02,0.2c0.2,0.07,0.37,0.34,0.51,0.82
		C158.67,49.62,158.68,50.01,158.65,50.32z M161.31,69.85c-0.24,0.04-0.53-0.12-0.87-0.46c-0.2-0.41-0.2-0.71,0-0.92
		s0.44-0.48,0.71-0.82c0.27-0.34,0.46-0.63,0.56-0.87c0.1-0.24,0.36-0.29,0.77-0.15c0.75,0.2,1.12,0.75,1.12,1.63
		c0,0.41-0.1,0.68-0.31,0.82c-0.2,0.14-0.51,0.27-0.92,0.41C161.91,69.69,161.55,69.81,161.31,69.85z M161.88,62.25l0.92-1.33
		l1.02,1.02l0.2,1.22h-1.33L161.88,62.25z M164.22,76.63l-1.33-0.2l0.71-1.02l1.02-0.51l0.51,1.22L164.22,76.63z M166.06,55.21
		c-0.07,0.54-0.17,0.95-0.31,1.22c-0.14,0.27-0.48,0.48-1.02,0.61c-0.55,0.07-0.97,0.07-1.28,0c-0.31-0.07-0.6-0.37-0.87-0.92
		c-0.55-0.82-0.48-1.6,0.2-2.35c0.61-0.75,1.39-0.92,2.35-0.51c0.48,0.2,0.77,0.44,0.87,0.71
		C166.11,54.26,166.12,54.67,166.06,55.21z M170.34,70.2c-0.34,0.88-0.99,1.29-1.94,1.22c-0.95-0.07-1.53-0.54-1.73-1.43
		c-0.2-0.61-0.27-1.07-0.2-1.38c0.07-0.31,0.37-0.63,0.92-0.97c0.54-0.34,0.98-0.54,1.33-0.61c0.34-0.07,0.78,0.1,1.33,0.51
		c0.54,0.41,0.78,0.8,0.71,1.17C170.68,69.1,170.55,69.59,170.34,70.2z M170.85,39.81c-0.07,1.02-0.36,1.65-0.87,1.89
		c-0.51,0.24-1.24,0.49-2.19,0.77c-0.88,0.2-1.56,0.25-2.04,0.15c-0.48-0.1-0.95-0.53-1.43-1.27c-0.48-0.75-0.61-1.33-0.41-1.73
		c0.2-0.41,0.58-0.95,1.12-1.63c0.54-0.68,1-1.17,1.38-1.48c0.37-0.31,0.97-0.32,1.79-0.05c1.02,0.41,1.73,0.8,2.14,1.17
		C170.75,37.99,170.92,38.72,170.85,39.81z M171.11,29.96c-0.31-0.03-0.56-0.29-0.77-0.77c-0.34-0.54-0.54-0.97-0.61-1.27
		c-0.07-0.31,0.1-0.7,0.51-1.17c0.41-0.48,0.77-0.65,1.07-0.51c0.31,0.14,0.77,0.31,1.38,0.51c0.34,0.2,0.54,0.43,0.61,0.66
		c0.07,0.24,0.07,0.56,0,0.97c-0.07,0.48-0.14,0.82-0.2,1.02c-0.07,0.2-0.34,0.37-0.82,0.51C171.8,29.98,171.41,30,171.11,29.96z
		 M172.18,36.65l0.82-0.41l0.41,0.71l-0.2,0.92l-0.92-0.31L172.18,36.65z M172.69,54.6c-0.27-0.27-0.39-0.53-0.36-0.76
		c0.03-0.24,0.15-0.53,0.36-0.87c0.14-0.41,0.29-0.68,0.46-0.82c0.17-0.14,0.49-0.17,0.97-0.1c0.41,0.07,0.66,0.2,0.77,0.41
		c0.1,0.2,0.19,0.51,0.25,0.92c0.07,0.48-0.2,0.88-0.82,1.22c-0.34,0.14-0.63,0.26-0.87,0.36C173.21,55.06,172.96,54.94,172.69,54.6
		z M179.22,62.96c0,0.75-0.04,1.33-0.1,1.73c-0.07,0.41-0.44,0.75-1.12,1.02c-0.95,0.27-1.7,0.44-2.24,0.51
		c-0.54,0.07-1.09-0.31-1.63-1.12c-0.61-0.82-0.87-1.5-0.77-2.04c0.1-0.54,0.46-1.22,1.07-2.04c0.61-0.82,1.16-1.36,1.63-1.63
		c0.48-0.27,1.19-0.24,2.14,0.1c0.88,0.27,1.27,0.7,1.17,1.28C179.27,61.35,179.22,62.08,179.22,62.96z"/>
</g>
</svg>
