<?xml version="1.0" encoding="utf-8"?>
<!-- Generator: Adobe Illustrator 23.0.2, SVG Export Plug-In . SVG Version: 6.00 Build 0)  -->
<svg version="1.1" id="Layer_1" xmlns="http://www.w3.org/2000/svg" xmlns:xlink="http://www.w3.org/1999/xlink" x="0px" y="0px"
	 viewBox="0 0 500 150" style="enable-background:new 0 0 500 150;" xml:space="preserve">
<style type="text/css">
	.st0{fill:#3A3A3A;}
	.st1{fill:#FFFFFF;}
	.st2{fill:none;}
</style>
<path class="st0" d="M32.5,111.4c-0.8,0-1.4-0.3-1.9-0.8s-0.8-1.2-0.8-1.9V42.8c0-0.8,0.3-1.4,0.8-1.9s1.2-0.8,1.9-0.8h16.1
	c1.4,0,2.4,0.4,3.1,1.1s1.1,1.3,1.3,1.6l14.8,24.5l14.8-24.5c0.2-0.3,0.7-0.9,1.3-1.6S85.6,40,87,40h16.1c0.8,0,1.4,0.3,1.9,0.8
	s0.8,1.2,0.8,1.9v65.9c0,0.8-0.3,1.4-0.8,1.9c-0.6,0.5-1.2,0.8-1.9,0.8H84.6c-0.8,0-1.4-0.3-1.9-0.8s-0.8-1.2-0.8-1.9V80.7l-6.7,11
	c-0.3,0.5-0.8,1.1-1.4,1.7s-1.4,0.9-2.4,0.9h-7.1c-1,0-1.8-0.3-2.4-0.9s-1-1.1-1.4-1.7l-6.7-11v27.9c0,0.8-0.3,1.4-0.8,1.9
	s-1.2,0.8-1.9,0.8L32.5,111.4L32.5,111.4z M34.5,45l-1.3,0.4l-1,1l1.3,0.8l1.3-0.6L34.5,45z M34.8,75.4l-0.7-0.6l-0.3,0.9l0.3,0.6
	l0.8-0.1L34.8,75.4z M39.2,80.8c-0.8-0.5-1.5-1-1.9-1.3c-0.5-0.3-1.1-0.2-1.8,0.4c-0.8,0.6-1.2,1.2-1.1,1.7c0.1,0.6,0.3,1.3,0.6,2.2
	c0.3,0.9,0.6,1.6,0.9,2c0.3,0.4,1,0.6,1.9,0.6c1.2,0,2.2-0.1,2.9-0.2s1.2-0.7,1.6-1.9c0.3-1.2,0.2-1.9-0.6-2.1S40.2,81.5,39.2,80.8z
	 M38.2,54.3c-0.1-0.6-0.3-1-0.4-1.3c-0.1-0.3-0.5-0.4-1.1-0.4s-1,0.1-1.3,0.2c-0.2,0.2-0.5,0.6-0.8,1.2c-0.2,0.5-0.2,0.8,0,1.1
	c0.2,0.2,0.5,0.5,0.9,0.9c0.6,0.5,1.3,0.6,1.9,0.1C38.2,55.6,38.4,55,38.2,54.3z M45.3,60.8c-1.8-0.7-3.2-0.8-4.2-0.5
	c-1,0.4-2,1.3-3.3,2.8c-0.6,0.9-0.8,1.6-0.7,2.1s0.5,1.1,1,1.7s1.1,1.4,1.6,2.2c0.8,1.2,1.5,2.1,1.9,2.8c0.5,0.7,1.4,0.9,2.8,0.5
	c1.4-0.4,2.2-1,2.3-1.8s0.2-2,0.3-3.5c0.1-1.1,0.2-2,0.3-2.9c0.1-0.8,0.1-1.5-0.2-2.1C46.9,61.7,46.3,61.2,45.3,60.8z M42.9,93.5
	c0-0.5,0-0.9,0-1.2c0-0.3-0.2-0.5-0.7-0.6s-0.8-0.1-1,0.2c-0.2,0.2-0.4,0.6-0.7,1c-0.3,0.5-0.2,0.9,0.2,1.4c0.4,0.6,0.9,0.8,1.4,0.6
	C42.7,94.6,42.9,94.1,42.9,93.5z M44.4,100.7l-1-0.6L42,100l0.1,1.7h1.5L44.4,100.7z M49,54c-0.1-0.5-0.5-0.7-1.2-0.6
	c-0.3,0-0.6,0-0.9,0c-0.2,0-0.4,0.2-0.6,0.6c-0.1,0.4,0,0.7,0.3,0.7c0.2,0.1,0.5,0.2,0.9,0.4c0.3,0.2,0.5,0.4,0.7,0.6
	c0.2,0.2,0.4,0.1,0.8-0.2c0.3-0.2,0.4-0.4,0.4-0.7C49.2,54.6,49.2,54.3,49,54z M50,81l-1.1-0.7l-0.5,1.1l0.3,0.8l1.3,0.1V81L50,81z
	 M51,77l-0.5,0.4l-0.1,0.7l0.8,0.1l0.2-0.7L51,77z M55.9,60.6c-0.5-0.5-1-0.9-1.4-1.1c-0.4-0.2-0.9-0.1-1.5,0.3
	c-0.8,0.4-1.2,0.8-1.5,1.2c-0.2,0.4-0.3,1,0,1.9c0.1,0.8,0.4,1.2,0.8,1.4c0.4,0.2,1,0.3,1.8,0.5c0.6,0.1,1-0.1,1.2-0.4
	s0.4-0.7,0.7-1.3s0.4-1,0.5-1.3C56.5,61.4,56.3,61,55.9,60.6z M57.2,70.6c-0.2-0.3-0.5-0.3-1,0c-0.3,0.1-0.6,0.2-0.8,0.3
	c-0.2,0.1-0.3,0.2-0.3,0.5c0.1,0.5,0.4,0.9,1.1,1s1.1,0,1.3-0.5c0.2-0.3,0.2-0.5,0.2-0.7C57.7,71.1,57.5,70.9,57.2,70.6z M65.2,74.4
	c-0.8-0.3-1.4-0.3-1.8,0S62.5,75.3,62,76c-0.6,0.8-1.1,1.3-1.4,1.8c-0.3,0.4-0.2,1.1,0.3,1.9c0.6,0.9,1.2,1.5,1.7,1.7
	s1.3,0.1,2.4-0.2c0.9-0.3,1.4-0.7,1.5-1.2c0-0.5,0.1-1.3,0.2-2.2c0.1-0.9,0.1-1.6,0.1-2.1C66.5,75.1,66,74.7,65.2,74.4z M70.2,82.3
	C69.7,82,69.3,82,69,82.2c-0.3,0.2-0.6,0.5-1,0.9c-0.5,0.5-0.6,1.2-0.2,1.9c0.2,0.4,0.4,0.7,0.6,0.9c0.2,0.2,0.5,0.3,1.1,0.2
	s0.9-0.2,1.2-0.4c0.3-0.2,0.5-0.5,0.6-1.1c0.1-0.7,0.1-1.2-0.1-1.5C71,82.9,70.7,82.6,70.2,82.3z M77,68.9c-0.9-0.5-1.6-0.8-2.1-0.7
	s-1.2,0.5-2,1.2c-1.1,0.9-2,1.6-2.8,2s-0.9,1.3-0.5,2.6c0.5,1.4,1.2,2.2,2,2.4c0.8,0.2,1.9,0.3,3.5,0.2c1.2-0.1,2-0.4,2.4-0.9
	s0.8-1.4,1.2-2.7c0.3-1,0.3-1.8,0.1-2.3C78.4,70.2,77.9,69.6,77,68.9z M86.5,44.2c-0.5-0.2-0.8-0.2-1.1,0s-0.5,0.5-0.9,0.9
	c-0.3,0.3-0.4,0.6-0.3,0.9c0.1,0.2,0.2,0.5,0.4,0.9c0.3,0.5,0.8,0.8,1.4,0.6s0.9-0.6,1-1.2c0-0.5,0-1,0.1-1.3
	C87.2,44.6,86.9,44.4,86.5,44.2z M86.8,56.3c-0.5,0-1,0-1.3,0s-0.6,0.2-0.8,0.8c-0.2,0.6-0.3,1.1-0.2,1.4s0.3,0.7,0.8,1.1
	c0.5,0.4,0.8,0.5,1.1,0.3c0.3-0.2,0.7-0.5,1.1-0.8c0.5-0.3,0.8-0.5,1-0.7s0.2-0.6,0.1-1.1s-0.4-0.7-0.7-0.8
	C87.7,56.3,87.3,56.3,86.8,56.3z M87.1,70.6c-0.5-0.5-0.9-0.6-1.3-0.4c-0.5,0.3-0.7,0.7-0.6,1.3c0.1,0.4,0.2,0.7,0.2,1
	s0.4,0.4,0.8,0.5s0.7,0,0.8-0.2c0.1-0.2,0.3-0.5,0.5-0.9C87.6,71.4,87.5,71,87.1,70.6z M86.6,102.2l-1,0.5v1.2l1.2,0.4l0.7-1.2
	L86.6,102.2z M93.4,89c-0.8-0.7-1.5-0.8-1.9-0.5s-1.2,0.8-2,1.4c-0.9,0.6-1.8,1.1-2.5,1.3c-0.7,0.3-0.9,1-0.6,2.1
	c0.3,1.2,0.7,2,1.4,2.2c0.7,0.2,1.6,0.4,2.9,0.5c1,0.1,1.7-0.2,2-0.7s0.6-1.2,1-2.2c0.4-0.9,0.7-1.7,0.8-2.3
	C94.6,90.3,94.2,89.6,93.4,89z M94.5,51.4c-0.8-0.2-1.3-0.1-1.5,0.4s-0.5,1-0.9,1.6c-0.4,0.7-0.8,1.2-1,1.5s-0.2,0.8,0.3,1.4
	c0.5,0.6,1,0.9,1.4,1c0.4,0,1-0.1,1.8-0.5c0.7-0.3,1.1-0.6,1.3-1c0.2-0.4,0.2-0.9,0.2-1.7c-0.1-0.8-0.2-1.4-0.3-1.9
	C95.7,52,95.3,51.6,94.5,51.4z M94.6,67.6c-0.3-0.4-0.7-0.6-1-0.6s-0.8,0.2-1.3,0.4c-0.4,0.1-0.6,0.3-0.6,0.6c0,0.3,0,0.6,0,1
	c0,0.7,0.3,1.1,0.8,1.2c0.6,0.2,1.1,0.4,1.4,0.6s0.7,0,1-0.5c0.4-0.5,0.6-1,0.5-1.4C95.4,68.7,95.1,68.2,94.6,67.6z M94.4,74.7
	c0-0.5,0.1-0.8,0.2-1.1c0.1-0.3-0.1-0.5-0.5-0.6c-0.5-0.1-0.8-0.1-1,0.1s-0.4,0.5-0.8,0.8c-0.3,0.5-0.2,1,0.1,1.5
	c0.3,0.3,0.5,0.6,0.7,0.7s0.5,0.1,0.9,0c0.3-0.1,0.5-0.2,0.5-0.5C94.4,75.4,94.4,75.1,94.4,74.7z M102,80.1
	c-0.4-1.3-0.9-2.1-1.5-2.5s-1.6-0.6-3-0.6c-1.3,0-2.2,0.2-2.7,0.7c-0.5,0.4-1,1.3-1.4,2.5c-0.3,1.2-0.4,2-0.1,2.6s0.9,1.2,1.9,1.9
	c0.8,0.6,1.5,0.8,2,0.6c0.5-0.2,1.2-0.6,2-1.2c0.9-0.7,1.7-1.2,2.3-1.7C102.2,81.9,102.3,81.2,102,80.1z M99.5,102.1
	c-0.5-0.8-0.9-1.4-1.2-1.8c-0.3-0.4-0.9-0.5-1.9-0.3c-0.9,0.2-1.6,0.5-1.9,0.9s-0.6,1.1-0.7,2.1c-0.1,0.9,0,1.6,0.3,2
	s0.8,0.8,1.7,1.2c1,0.5,1.8,0.8,2.4,1.1s1.3-0.1,2-1c0.8-0.8,0.9-1.4,0.6-2C100.5,103.8,100.1,103.1,99.5,102.1z M98,61
	c-0.5-0.1-0.8-0.1-1.1-0.1c-0.3,0-0.5,0.2-0.7,0.7C96,62,96,62.3,96.3,62.4s0.6,0.3,0.9,0.6s0.5,0.7,0.6,0.9
	c0.1,0.3,0.4,0.3,0.8,0.1c0.8-0.3,1.1-1,0.9-1.9c-0.1-0.4-0.2-0.7-0.5-0.8C98.8,61.2,98.5,61.1,98,61z M99.5,89.4l-1.3,0.3l-0.4,1.4
	l1.3,0.2l1-0.6L99.5,89.4z M101.6,42.9c-0.7-0.4-1.4-0.3-2,0.4c-0.3,0.3-0.4,0.5-0.2,0.8c0.1,0.2,0.2,0.6,0.5,1
	c0.2,0.3,0.4,0.6,0.5,0.8s0.4,0.3,0.8,0.2c0.5-0.1,0.8-0.2,1.1-0.3c0.2-0.1,0.4-0.4,0.5-0.9C102.6,43.9,102.3,43.3,101.6,42.9z"/>
<path class="st0" d="M225,112.4c-6.7,0-12.5-1-17.5-3.1s-8.9-5.1-11.8-9.2s-4.5-9.2-4.7-15.2c-0.2-5.8-0.2-11.8,0-17.9
	c0.3-6,1.8-11.1,4.7-15.2c2.9-4.2,6.8-7.3,11.8-9.5S218.3,39,225,39s12.5,1.1,17.5,3.3s9,5.3,11.9,9.5S258.8,61,259,67
	c0.2,6.1,0.2,12.1,0,18c-0.3,6.1-1.9,11.1-4.7,15.2c-2.9,4.1-6.8,7.2-11.8,9.2C237.5,111.4,231.6,112.4,225,112.4z M201.3,81.7
	c-0.4-0.6-0.8-0.8-1.2-0.6c-0.4,0.2-1,0.4-1.7,0.6c-0.6,0.2-1.1,0.4-1.4,0.5s-0.5,0.5-0.5,1.2c0,0.8,0.1,1.4,0.2,1.9
	c0.1,0.4,0.6,0.8,1.4,1.1c0.8,0.2,1.4,0.2,1.8-0.1c0.4-0.2,0.8-0.7,1.3-1.4s0.8-1.2,0.9-1.6C202.1,82.9,201.9,82.4,201.3,81.7z
	 M198.9,93.9c-0.3-0.3-0.8-0.4-1.3-0.2c-0.3,0.1-0.5,0.2-0.7,0.4c-0.2,0.1-0.3,0.3-0.3,0.7c0,0.4,0.1,0.7,0.1,0.9s0.4,0.3,0.8,0.4
	c0.5,0.1,0.9,0.2,1.1,0.2c0.3,0,0.5-0.2,0.8-0.6s0.3-0.7,0.1-0.9C199.4,94.5,199.1,94.2,198.9,93.9z M202.7,66.1
	c-0.1-0.5-0.5-0.7-1-0.7c-0.3,0-0.6,0-0.8,0.1c-0.2,0-0.3,0.2-0.4,0.6c-0.2,0.6-0.1,1.1,0.4,1.5c0.5,0.3,1,0.2,1.5-0.1
	C202.9,67.1,202.9,66.7,202.7,66.1z M205.6,54.5c-0.6,0-1.1,0-1.3,0.1c-0.3,0.1-0.5,0.4-0.7,0.9s-0.2,0.9-0.1,1.2
	c0.2,0.2,0.5,0.5,1,0.9c0.5,0.5,1,0.9,1.3,1.2s0.8,0.2,1.4-0.2c0.6-0.4,0.9-0.8,0.8-1.2c-0.1-0.4-0.2-1-0.4-1.7
	c-0.1-0.5-0.4-0.9-0.7-1C206.6,54.5,206.1,54.5,205.6,54.5z M208.2,98.9c-0.9-0.4-1.6-0.7-2.1-0.7c-0.5-0.1-1.1,0.3-1.8,1
	s-1,1.3-0.9,1.8s0.3,1.2,0.8,2.1c0.4,0.8,0.8,1.3,1.2,1.6c0.4,0.2,1.1,0.3,1.9,0.2c0.9-0.2,1.6-0.5,2-0.8s0.6-1,0.8-1.9
	c0.1-0.9,0.1-1.5-0.2-1.9C209.6,99.7,209.1,99.3,208.2,98.9z M204.4,88l-0.7-0.4l-0.2,0.7l0.3,0.8l0.8-0.4L204.4,88z M211.6,72
	c-0.3-0.8-0.6-1.3-1.1-1.3s-1.1-0.1-2-0.1c-0.6,0-1,0.1-1.2,0.4s-0.4,0.7-0.6,1.3c-0.2,0.6-0.4,1.1-0.5,1.5s0.1,0.8,0.7,1.2
	c0.5,0.4,1,0.5,1.3,0.4s0.8-0.4,1.3-0.8c0.7-0.4,1.2-0.8,1.6-1C211.7,73.3,211.8,72.8,211.6,72z M209.8,64.6
	c-0.5-0.1-0.9-0.2-1.1-0.4c-0.3-0.2-0.5-0.1-0.8,0.4c-0.3,0.4-0.3,0.7-0.2,1s0.4,0.6,0.7,1c0.3,0.3,0.6,0.6,0.8,0.8
	c0.2,0.2,0.5,0.2,0.9,0.1c0.5-0.2,0.7-0.4,0.7-0.7c0-0.3-0.1-0.7-0.1-1.1C210.7,65.1,210.4,64.8,209.8,64.6z M210.9,92.9
	c-0.3-0.5-0.8-0.7-1.4-0.5c-0.5,0.1-0.9,0.2-1.2,0.3s-0.5,0.3-0.5,0.8s0.1,0.9,0.3,1.2c0.2,0.2,0.6,0.5,1.1,0.7
	c0.4,0.1,0.7,0.1,0.8-0.2c0.1-0.2,0.4-0.5,0.7-0.9C211.1,93.8,211.2,93.4,210.9,92.9z M215.5,49.7c-0.1-1-0.5-1.5-1.1-1.5
	S213,48,212,47.9c-0.9-0.1-1.7-0.2-2.3-0.3s-1.1,0.3-1.5,1.2c-0.5,0.9-0.5,1.5-0.1,1.9s1,0.9,1.8,1.6c0.6,0.6,1.1,1,1.5,1.2
	s1,0.1,1.7-0.3c0.9-0.5,1.5-0.9,1.9-1.3C215.6,51.4,215.7,50.7,215.5,49.7z M213.8,86.7c-0.1-0.5-0.4-0.8-0.7-0.9s-0.7-0.1-1.3-0.1
	c-0.8-0.1-1.3,0.3-1.5,1c-0.2,0.4-0.3,0.8-0.2,1c0,0.3,0.2,0.5,0.6,0.8c0.4,0.3,0.7,0.5,1,0.4s0.6-0.2,1-0.5s0.8-0.6,1-0.8
	C213.8,87.5,213.9,87.2,213.8,86.7z M214.1,105.2c-0.5-0.1-0.8-0.1-1.1-0.1c-0.2,0-0.5,0.2-0.7,0.6c-0.4,0.6-0.4,1.2,0.1,1.8
	c0.5,0.6,1.1,0.8,1.7,0.5c0.8-0.3,1.2-0.8,1.1-1.5c0-0.4-0.1-0.7-0.3-0.9C214.8,105.5,214.5,105.3,214.1,105.2z M216,96.3l-0.6,0.2
	l0.1,0.7l0.7,0.2L216,96.3z M225,92.5c2.2,0,4-0.7,5.4-2s2.1-3.4,2.1-6.3c0.2-5.8,0.2-11.6,0-17.1c-0.1-2.9-0.8-5-2.2-6.3
	s-3.2-2-5.4-2s-3.9,0.7-5.3,2s-2.1,3.4-2.2,6.3c-0.2,5.6-0.2,11.3,0,17.1c0.1,2.9,0.9,4.9,2.2,6.3C220.9,91.9,222.7,92.5,225,92.5z
	 M220.8,96.9c-0.6-0.1-1.1,0-1.4,0.5c-0.3,0.4-0.5,0.8-0.7,1s-0.1,0.6,0.1,1c0.3,0.4,0.7,0.6,1,0.5s0.7-0.2,1.2-0.5
	c0.5-0.2,0.9-0.4,1.1-0.5c0.3-0.1,0.4-0.4,0.4-1c0-0.5-0.2-0.8-0.5-0.8C221.7,97.2,221.3,97.1,220.8,96.9z M230.1,45.7
	c-1.4-0.6-2.6-1.2-3.4-1.6c-0.8-0.5-1.7-0.1-2.6,1c-1,1.2-1.2,2.1-0.7,2.9s1.2,1.8,2,3.1c0.7,1.1,1.3,1.8,1.7,2.3
	c0.5,0.4,1.3,0.5,2.6,0.2c1.2-0.3,1.9-0.7,2.1-1.4s0.3-1.6,0.5-2.8c0.1-1.1,0-1.9-0.3-2.3C231.6,46.6,231,46.1,230.1,45.7z
	 M227.9,101.1c-1.2-0.1-2,0-2.6,0.3c-0.5,0.3-1.1,1.1-1.6,2.1c-0.5,1.1-0.7,2-0.6,2.6c0.1,0.7,0.6,1.3,1.6,2.1
	c0.9,0.8,1.6,1.3,2.3,1.3c0.6,0.1,1.5-0.2,2.5-0.8c1-0.6,1.6-1.2,1.9-1.8s0.2-1.4-0.1-2.6c-0.2-1.2-0.5-1.9-1-2.4
	C230,101.5,229.2,101.2,227.9,101.1z M225.4,97.5l-1.2-0.2l0.1,1.2l0.8,0.5l0.5-0.7L225.4,97.5z M230.2,96.4l-0.6-0.7l-1,0.1l0.2,1
	l0.8,0.4L230.2,96.4z M238.4,94.4c0-0.9-0.4-1.4-1.1-1.6c-0.4-0.1-0.7-0.1-0.8,0.2c-0.1,0.2-0.3,0.5-0.6,0.9
	c-0.3,0.3-0.5,0.6-0.7,0.8s-0.2,0.5,0,0.9c0.3,0.3,0.6,0.5,0.9,0.5c0.2,0,0.6-0.2,1.1-0.4c0.4-0.1,0.7-0.3,0.9-0.4
	C238.3,95.1,238.4,94.8,238.4,94.4z M238.6,88l-1-1l-0.9,1.3l0.8,0.9h1.3L238.6,88z M240,79.4c-0.9-0.4-1.7-0.2-2.4,0.5
	c-0.7,0.8-0.8,1.5-0.2,2.3c0.3,0.5,0.6,0.8,0.9,0.9s0.7,0.1,1.3,0c0.5-0.1,0.9-0.3,1-0.6c0.1-0.3,0.2-0.7,0.3-1.2s0.1-0.9-0.1-1.2
	C240.7,79.8,240.4,79.6,240,79.4z M239.9,70.9c-0.9-0.3-1.6-0.2-2,0.5c-0.5,0.7-0.6,1.4-0.1,2.1c0.3,0.4,0.5,0.6,0.8,0.6
	s0.6-0.1,1.1-0.2c0.4-0.1,0.6-0.2,0.7-0.5c0.1-0.2,0.1-0.6,0.1-1s0-0.8,0-1C240.5,71.3,240.3,71,239.9,70.9z M239.5,101l-1,0.5
	l-0.7,1l1.3,0.2l0.9-0.5L239.5,101z M243,62.5c-0.8-0.3-1.4-0.2-1.8,0c-0.4,0.3-0.8,0.8-1.4,1.5c-0.5,0.7-0.9,1.2-1.1,1.6
	c-0.2,0.4-0.1,1,0.4,1.7c0.5,0.8,0.9,1.2,1.4,1.3c0.5,0.1,1.2,0.1,2-0.2c0.9-0.3,1.7-0.5,2.2-0.8c0.5-0.2,0.8-0.9,0.9-1.9
	c0.1-1.1-0.1-1.8-0.5-2.2C244.8,63.3,244.1,63,243,62.5z M239.7,55.8l-0.9,0.2l0.1,0.9l0.8,0.3l0.6-0.7L239.7,55.8z M242.2,46.3
	c-0.6-0.3-1.1-0.3-1.5,0c-0.3,0.3-0.6,0.5-0.8,0.7s-0.2,0.5-0.1,0.9c0.2,0.5,0.4,0.7,0.7,0.8c0.2,0,0.6,0,1.1,0
	c0.3,0,0.5-0.1,0.6-0.3s0.2-0.5,0.3-0.8C242.7,47,242.6,46.6,242.2,46.3z M241.4,51.3l-1-0.4l-0.4,0.9l0.3,0.8l1-0.2L241.4,51.3z
	 M244.9,93.7c-0.5-0.4-1-0.6-1.3-0.5s-0.8,0.3-1.3,0.6c-0.5,0.3-0.9,0.7-0.9,1c-0.1,0.3,0,0.8,0.2,1.4c0.2,0.9,0.8,1.4,1.7,1.4
	s1.6-0.3,1.9-1.2c0.2-0.6,0.3-1.1,0.4-1.5C245.6,94.5,245.4,94.1,244.9,93.7z M247.5,52.9c-0.6-0.2-1.1-0.4-1.4-0.5s-0.7,0-1.1,0.5
	c-0.4,0.5-0.6,0.9-0.5,1.2s0.3,0.7,0.6,1.3c0.2,0.5,0.5,0.7,0.8,0.8s0.7,0,1.2,0c0.5-0.1,0.8-0.3,0.8-0.5c0.1-0.2,0.1-0.5,0.2-1
	c0.1-0.4,0.1-0.7,0-1C248.1,53.3,247.9,53.1,247.5,52.9z M247.8,62.3l-0.8,0.4l0.1,0.9L248,64l0.2-0.9L247.8,62.3z M248.9,78.2
	c-0.5-0.1-0.8,0-1,0.1s-0.3,0.4-0.5,0.8c-0.2,0.3-0.3,0.6-0.4,0.9c0,0.2,0.1,0.5,0.4,0.8c0.3,0.3,0.5,0.5,0.8,0.4s0.5-0.2,0.9-0.4
	c0.6-0.3,0.9-0.8,0.8-1.2c-0.1-0.4-0.1-0.7-0.2-0.9C249.6,78.4,249.4,78.2,248.9,78.2z M253,85.6c-0.9-0.3-1.7-0.4-2.1-0.1
	c-0.5,0.3-1,0.8-1.6,1.6c-0.6,0.8-1,1.5-1.1,2s0.1,1.2,0.8,2c0.5,0.8,1.1,1.2,1.6,1.1s1.3-0.2,2.2-0.5c0.7-0.3,1.1-0.6,1.1-1
	c0.1-0.4,0.1-1,0.1-1.7c0-0.9,0.1-1.6,0.1-2.2C254.3,86.3,253.9,85.9,253,85.6z M251.2,71.3c-0.6-0.1-0.9-0.1-1.1,0.2
	c-0.2,0.2-0.4,0.6-0.7,1.1s-0.3,1.1,0.1,1.6c0.4,0.4,0.7,0.8,0.9,1.1c0.2,0.3,0.5,0.3,1,0.1c0.6-0.2,1-0.5,1.1-0.8s0.2-0.8,0.1-1.4
	C252.7,72.1,252.1,71.5,251.2,71.3z"/>
<path class="st0" d="M271.2,111.4c-0.8,0-1.4-0.3-1.9-0.8s-0.8-1.2-0.8-1.9V42.8c0-0.8,0.3-1.4,0.8-1.9s1.2-0.8,1.9-0.8h16.1
	c1.4,0,2.4,0.3,3,0.9c0.6,0.6,1,1.1,1.2,1.4l17.2,28.3V42.8c0-0.8,0.3-1.4,0.8-1.9s1.2-0.8,1.9-0.8h18.5c0.8,0,1.4,0.3,1.9,0.8
	s0.8,1.2,0.8,1.9v65.9c0,0.8-0.3,1.4-0.8,1.9s-1.2,0.8-1.9,0.8h-16.1c-1.4,0-2.4-0.3-3-1s-1-1.1-1.2-1.4l-17.2-26v25.6
	c0,0.8-0.3,1.4-0.8,1.9s-1.2,0.8-1.9,0.8L271.2,111.4L271.2,111.4z M275.3,93.8c-0.1-0.5-0.2-0.9-0.5-1s-0.7-0.2-1.2-0.4
	c-0.5-0.1-0.9-0.1-1.2-0.1c-0.3,0-0.6,0.2-0.8,0.6c-0.5,0.8-0.4,1.6,0.2,2.3c0.4,0.4,0.8,0.7,1,0.8c0.3,0.1,0.7,0,1.2-0.2
	C274.9,95.4,275.3,94.7,275.3,93.8z M274.6,78.6c0-0.4-0.3-0.7-0.9-0.9c-0.5-0.1-0.9,0-1.1,0.3c-0.3,0.3-0.5,0.6-0.6,0.8
	s0,0.5,0.1,0.8c0.5,0.6,1.1,0.7,1.8,0.4c0.4-0.1,0.6-0.3,0.6-0.6C274.6,79.2,274.6,78.9,274.6,78.6z M275.9,53.7
	c-0.1-0.5-0.3-0.9-0.6-1.1s-0.7-0.3-1.2-0.4c-0.5-0.1-0.9,0-1.1,0.3c-0.2,0.2-0.4,0.6-0.6,1.1c-0.3,0.8-0.1,1.4,0.4,1.8
	c0.4,0.4,0.8,0.7,1,0.9c0.3,0.2,0.7,0.2,1.2-0.1s0.9-0.7,1-1C276.1,54.9,276.1,54.4,275.9,53.7z M274,100.1l-0.9-0.5l-0.6,0.8
	l0.4,0.6h0.8L274,100.1z M276.7,72.2c-0.1-0.7-0.2-1.2-0.3-1.6c-0.1-0.4-0.5-0.7-1.2-0.7c-0.7-0.1-1.2,0.1-1.4,0.4
	c-0.3,0.3-0.5,0.8-0.8,1.5c-0.2,0.6-0.2,0.9,0,1.2c0.2,0.2,0.6,0.5,1.1,0.9c0.4,0.3,0.8,0.6,1,0.7c0.3,0.1,0.6,0.1,1.1-0.2
	c0.5-0.3,0.7-0.7,0.8-0.9C277,73.2,276.9,72.8,276.7,72.2z M276.2,83.9c-0.7-0.2-1.2-0.4-1.5-0.5s-0.7,0.1-1.1,0.7
	c-0.3,0.5-0.4,1-0.2,1.3s0.5,0.7,0.9,1.3c0.3,0.5,0.6,0.8,0.9,1.1c0.3,0.2,0.7,0.2,1.3,0.1c0.6-0.3,1-0.6,1.2-0.9s0.3-0.8,0.3-1.5
	c0-0.5-0.1-0.9-0.5-1.1C277.1,84.2,276.7,84,276.2,83.9z M277,101.9c-0.3-0.3-0.7-0.4-1.1-0.2c-0.3,0.2-0.6,0.4-0.8,0.5
	c-0.2,0.1-0.2,0.4-0.1,0.8c0.1,0.3,0.2,0.5,0.5,0.5s0.5,0,0.9,0.1c0.3,0.1,0.6,0.1,0.8,0.1c0.2,0,0.4-0.2,0.5-0.5s0.1-0.5,0-0.6
	C277.5,102.4,277.3,102.2,277,101.9z M280.8,91.4c-0.1-0.4-0.3-0.6-0.6-0.7c-0.3,0-0.6-0.1-1.1-0.1s-0.9,0-1.2,0s-0.5,0.2-0.7,0.7
	c-0.1,0.5-0.1,0.8,0.2,0.9c0.3,0.1,0.6,0.3,1,0.6c0.3,0.2,0.5,0.4,0.7,0.5s0.4,0,0.7-0.2c0.4-0.3,0.7-0.5,0.9-0.7
	C280.9,92.2,280.9,91.9,280.8,91.4z M279.8,45.4c-0.4-0.1-0.7-0.1-0.9,0c-0.2,0.2-0.4,0.5-0.7,0.9c-0.5,0.5-0.5,1.1-0.2,1.6
	c0.4,0.5,1,0.7,1.6,0.5c0.4-0.1,0.7-0.2,0.9-0.4c0.2-0.2,0.3-0.5,0.3-0.9c0-0.5,0-0.9-0.1-1.2C280.5,45.8,280.2,45.6,279.8,45.4z
	 M282.3,68.2c-0.3-0.3-0.6-0.5-0.8-0.6c-0.2-0.1-0.5-0.1-0.9,0.2c-0.4,0.2-0.6,0.4-0.6,0.7s0,0.6,0.1,1c0.1,0.5,0.3,0.8,0.4,1
	s0.4,0.3,0.9,0.4c0.4,0,0.7-0.1,0.9-0.2c0.2-0.2,0.3-0.5,0.5-0.9C283,69.1,282.9,68.6,282.3,68.2z M285.8,102.7
	c-0.5-0.7-0.9-1-1.4-1.1s-1.1,0.1-1.9,0.4s-1.2,0.6-1.5,0.9c-0.2,0.3-0.4,0.9-0.4,1.6c0,0.8,0.1,1.4,0.3,1.8c0.2,0.4,0.7,0.7,1.4,1
	c1,0.3,1.7,0.5,2.2,0.6s1.1-0.2,1.7-1.1s0.8-1.5,0.6-2C286.8,104.2,286.4,103.6,285.8,102.7z M289.2,53.1c-1.2-0.2-2.3-0.4-3.2-0.7
	s-1.7-0.3-2.4-0.1c-0.7,0.2-1.3,0.8-1.8,1.9s-0.7,2-0.5,2.6c0.2,0.7,0.7,1.2,1.5,1.8c0.8,0.5,1.6,1.3,2.5,2.1c1.1,1.1,2,1.9,2.7,2.5
	c0.7,0.5,1.8,0.5,3.2-0.2c1.6-0.9,2.7-1.7,3.2-2.5s0.6-2.1,0.4-3.9c-0.3-1.6-0.9-2.6-1.8-2.8C292.1,53.5,290.9,53.3,289.2,53.1z
	 M285.6,82.9c-0.3-0.5-0.7-0.6-1-0.5s-0.7,0.4-1.3,0.6c-0.4,0.1-0.7,0.3-0.9,0.4c-0.2,0.1-0.3,0.4-0.3,0.8s0.1,0.7,0.3,0.8
	c0.2,0.1,0.5,0.3,0.9,0.4c0.5,0.2,0.8,0.3,1.1,0.4c0.2,0,0.5-0.1,0.9-0.5c0.3-0.5,0.6-1,0.7-1.3C286,83.8,285.9,83.4,285.6,82.9z
	 M288.5,75.8c-0.5-0.5-1-0.9-1.3-1.2s-0.9-0.2-1.5,0.1c-0.9,0.3-1.5,0.7-1.8,1s-0.4,0.9-0.4,1.8c0.1,0.8,0.3,1.3,0.8,1.5
	c0.4,0.2,1,0.4,1.8,0.6s1.4,0.3,1.9,0.4c0.4,0,0.9-0.3,1.3-1c0.5-0.7,0.6-1.2,0.4-1.6C289.4,76.9,289,76.4,288.5,75.8z M286.2,94.8
	c-0.8-0.1-1.3,0.1-1.6,0.6c-0.3,0.5-0.4,0.8-0.5,1.1c-0.1,0.3,0.1,0.6,0.4,1c0.3,0.3,0.6,0.5,0.9,0.5s0.6-0.2,1.1-0.4
	c0.5-0.2,0.8-0.4,1-0.6s0.2-0.5,0.1-1s-0.2-0.8-0.4-0.9S286.6,94.9,286.2,94.8z M290,45.7l-0.4-0.8l-0.7,0.4l-0.5,1.1l1.3,0.3
	L290,45.7z M296.1,69.5c-0.5-0.7-0.9-1.1-1.3-1.1c-0.4-0.1-1,0-1.8,0.2s-1.4,0.5-1.7,0.8c-0.3,0.3-0.5,0.9-0.5,1.7
	c0,0.8,0.1,1.3,0.5,1.5s0.8,0.5,1.6,0.8c0.6,0.2,1.1,0.2,1.4,0.1s0.7-0.5,1.1-1.1c0.5-0.5,0.8-1,1.1-1.4
	C296.6,70.6,296.5,70.1,296.1,69.5z M301,69.7c-0.7,0-1.1,0.1-1.3,0.4c-0.2,0.3-0.4,0.7-0.7,1.3c-0.3,0.8-0.5,1.3-0.6,1.8
	c-0.1,0.4,0.1,0.9,0.7,1.4c0.5,0.4,1,0.4,1.3,0.1c0.3-0.4,0.8-0.8,1.4-1.3c0.6-0.3,1.2-0.6,1.6-0.8c0.5-0.2,0.6-0.6,0.4-1.3
	c-0.2-0.8-0.5-1.2-0.9-1.4C302.4,69.8,301.8,69.7,301,69.7z M321.5,75.2c-2-0.9-3.8-1.4-5.1-1.5c-1.4-0.1-2.7,0.2-3.9,0.9
	c-1.2,0.7-2.5,1.9-4,3.6c-1.2,1.4-1.7,2.6-1.4,3.6c0.3,1,0.9,2.1,1.9,3.1c1,1.1,2,2.4,2.9,3.9c1,1.7,2,2.9,2.8,3.5
	c0.9,0.6,2.2,0.7,4.1,0.2c2.3-0.5,4.1-1.1,5.2-1.6s1.9-2,2.1-4.4c0.1-2,0.2-3.7,0.2-5.1s-0.3-2.5-1-3.5
	C324.6,76.8,323.4,75.9,321.5,75.2z M309.8,96.8l-1.1,0.6l0.1,1.1l1.1,0.3l0.6-1L309.8,96.8z M314.2,103.3l-1-0.3l-0.8,0.7l0.7,0.9
	l0.9-0.3L314.2,103.3z M316.9,47.8c-0.1-0.5-0.3-0.8-0.5-1s-0.5-0.3-1-0.3s-1,0.1-1.2,0.2c-0.3,0.2-0.5,0.5-0.6,1
	c-0.2,0.5-0.2,1-0.1,1.2c0.1,0.3,0.4,0.6,0.9,0.9c0.4,0.3,0.8,0.4,1,0.3c0.3-0.1,0.6-0.2,1-0.5C317,49.1,317.1,48.5,316.9,47.8z
	 M316.1,55.1c-0.4-0.2-0.7-0.2-0.9,0c-0.2,0.2-0.4,0.4-0.7,0.7c-0.3,0.4-0.6,0.7-0.9,0.9s-0.3,0.5,0,0.9c0.3,0.5,0.6,0.9,0.9,1.1
	s0.7,0.2,1.3,0.2c0.6-0.1,1-0.3,1.2-0.6s0.3-0.7,0.4-1.3c0.1-0.5,0-0.9-0.2-1.1C317,55.5,316.6,55.3,316.1,55.1z M318.7,64.4
	c-0.6-0.5-1.2-0.5-1.8-0.1c-0.7,0.5-0.9,1.1-0.7,1.8c0.1,0.4,0.2,0.6,0.5,0.7c0.3,0,0.6,0.1,1.1,0.1s0.9-0.3,1.1-0.8
	c0.1-0.4,0.2-0.7,0.2-0.9C319.2,64.9,319.1,64.7,318.7,64.4z M320.1,52.2h-1.2l-0.5,0.7l0.6,0.8l0.9-0.4L320.1,52.2z M320.4,45.5
	l-0.9,0.4l0.1,1.1l1-0.3l0.5-0.6L320.4,45.5z M322,54.7l-1.2,0.2l-0.3,1.2l1.2,0.6l0.4-1L322,54.7z M325.8,106.4l-0.7-0.7l-0.8,0.6
	l0.2,0.9l0.9,0.1L325.8,106.4z M330.1,60c-0.1-0.7-0.4-1.1-0.7-1.3c-0.3-0.2-0.9-0.3-1.5-0.4s-1.1,0-1.4,0.2
	c-0.2,0.2-0.5,0.7-0.8,1.3c-0.2,0.5-0.2,0.8,0,1.1s0.5,0.6,0.9,0.9c0.5,0.4,0.9,0.7,1.2,0.9c0.3,0.2,0.7,0.1,1.2-0.2
	c0.6-0.4,1-0.8,1.2-1.1C330.3,61.2,330.3,60.7,330.1,60z"/>
<path class="st1" d="M362.2,112.4c-3.4,0-6.6-0.8-9.6-2.4s-5.5-4.2-7.3-7.6s-2.8-7.8-2.8-13.2V61.1c0-0.8,0.3-1.4,0.8-1.9
	s1.2-0.8,1.9-0.8h19.5c0.8,0,1.4,0.3,1.9,0.8s0.8,1.2,0.8,1.9v27.4c0,3.7,1.7,5.6,5.1,5.6s5.1-1.9,5.1-5.6V61.1
	c0-0.8,0.3-1.4,0.8-1.9s1.2-0.8,1.9-0.8h19.4c0.8,0,1.4,0.3,1.9,0.8s0.8,1.2,0.8,1.9v47.5c0,0.8-0.3,1.4-0.8,1.9s-1.2,0.8-1.9,0.8
	h-17.9c-0.8,0-1.4-0.3-1.9-0.8s-0.8-1.2-0.8-1.9v-3.4c-1.7,2.5-4,4.3-7,5.5C369.1,111.9,365.8,112.4,362.2,112.4z M349.5,79.1
	c-0.3-0.3-0.5-0.5-0.8-0.6s-0.6,0-1.1,0.1s-0.9,0.6-0.9,1.3c-0.1,0.4,0.2,0.8,0.8,1c0.5,0.2,0.9,0.1,1.1-0.2
	c0.3-0.3,0.6-0.6,0.8-0.8C349.7,79.8,349.7,79.5,349.5,79.1z M355.7,66.2c-0.8-0.8-1.5-1.2-2.1-1.2s-1.4,0.2-2.4,0.7
	s-1.7,0.9-2.1,1.4s-0.5,1.3-0.4,2.3c0.1,1.1,0.4,1.8,0.9,2.2s1.3,0.7,2.4,0.9c1,0.2,1.6,0.1,2-0.3s0.8-1,1.3-1.9s0.9-1.6,1.1-2.1
	S356.4,67,355.7,66.2z M354.3,85.4c-0.1-0.8-0.3-1.2-0.8-1.2c-0.5-0.1-1.1-0.2-1.8-0.3c-0.5-0.2-1-0.3-1.3-0.2
	c-0.3,0.1-0.6,0.3-1,0.8c-0.3,0.6-0.5,1-0.6,1.4s0.1,0.8,0.6,1.3c0.4,0.5,0.8,0.8,1.2,0.9c0.4,0.1,0.9,0,1.6-0.3
	c0.8-0.3,1.3-0.5,1.7-0.8C354.2,86.7,354.4,86.2,354.3,85.4z M351.5,93.5c-0.4-0.6-0.9-0.8-1.5-0.6c-0.8,0.2-1.1,0.6-1.1,1.2
	c0,0.8,0.3,1.3,1,1.5c0.3,0.1,0.6,0.1,0.7-0.1s0.3-0.4,0.5-0.7s0.4-0.5,0.5-0.7C351.7,93.9,351.7,93.7,351.5,93.5z M360,97.1
	c-0.3-0.9-0.6-1.7-0.7-2.3s-0.7-0.9-1.7-0.9s-1.5,0.3-1.6,0.9s-0.3,1.3-0.6,2.3c-0.2,0.7-0.2,1.2,0,1.5s0.5,0.7,1.1,1.1
	c0.5,0.4,1,0.6,1.3,0.6s0.8-0.2,1.3-0.6s0.9-0.8,1-1.1C360.3,98.2,360.2,97.7,360,97.1z M358.9,106.1c-0.3-0.5-0.8-0.8-1.4-0.6
	c-0.5,0.1-0.8,0.2-1,0.3c-0.2,0.1-0.3,0.4-0.4,0.8s0,0.7,0.3,0.7c0.3,0.1,0.6,0.2,0.9,0.3c0.3,0.1,0.5,0.2,0.7,0.3
	c0.2,0.1,0.4,0,0.6-0.3C359.1,107.1,359.2,106.6,358.9,106.1z M360.5,88.7c-0.1-0.3-0.3-0.6-0.4-0.8c-0.1-0.2-0.4-0.3-0.7-0.2
	c-0.5,0.1-1,0.1-1.2,0.2c-0.3,0.1-0.5,0.4-0.6,0.9s0,0.9,0.1,1.2c0.2,0.2,0.5,0.5,1.1,0.8c0.4,0.2,0.7,0.2,0.9,0
	c0.2-0.2,0.4-0.4,0.8-0.7C360.8,89.6,360.8,89.2,360.5,88.7z M362,60.8c-0.7-0.1-1.1,0-1.4,0.3c-0.2,0.3-0.5,0.7-0.7,1.3
	c-0.3,0.5-0.3,1-0.2,1.2c0.1,0.3,0.4,0.6,0.8,1c0.5,0.4,0.9,0.7,1.2,0.9c0.3,0.2,0.7,0.1,1.3-0.2c0.6-0.3,0.9-0.7,1-1.1
	c0-0.4,0-0.9-0.2-1.5c-0.1-0.7-0.3-1.2-0.5-1.5C363.1,61.1,362.6,60.9,362,60.8z M362.7,76c-0.3-0.5-0.6-0.7-1-0.6
	c-0.5,0.1-0.7,0.5-0.7,1.1c0,0.3,0,0.6,0,0.9c0,0.2,0.1,0.4,0.6,0.6s0.8,0.3,1.1,0.2c0.2,0,0.5-0.2,0.8-0.7c0.3-0.3,0.3-0.5,0.1-0.7
	C363.2,76.6,363,76.4,362.7,76z M365.6,105.4c-0.3-0.3-0.5-0.5-0.8-0.4s-0.6,0.2-1,0.3c-0.5,0.1-0.8,0.2-1.1,0.4
	c-0.2,0.1-0.4,0.4-0.4,0.9s0.1,0.8,0.4,0.9s0.6,0.2,1,0.2c0.5,0.2,1,0.3,1.2,0.4c0.3,0.1,0.6-0.1,0.9-0.5s0.4-0.8,0.2-1.1
	C366.2,106.2,366,105.8,365.6,105.4z M364.7,82.2l-1-0.4l-0.8,0.6l0.6,0.7l1.1,0.4L364.7,82.2z M369,102.3c-0.3-0.1-0.5-0.2-0.7-0.1
	s-0.4,0.3-0.6,0.6c-0.3,0.3-0.5,0.5-0.6,0.7s-0.1,0.4,0.1,0.8s0.4,0.7,0.6,0.8c0.2,0.1,0.5,0.2,0.9,0.1s0.6-0.2,0.7-0.5
	c0.1-0.2,0.1-0.6,0.2-1.1C369.8,103,369.5,102.6,369,102.3z M370.9,98.6L370,98l-0.6,0.9l0.3,1.1l1-0.5L370.9,98.6z M376.8,103.7
	c-0.1-0.5-0.4-0.8-0.8-0.9c-0.4,0-0.9-0.1-1.5-0.2s-1.1-0.2-1.5-0.2s-0.8,0.1-1,0.7c-0.3,0.7-0.3,1.2-0.2,1.6
	c0.1,0.4,0.4,0.8,0.9,1.3c0.5,0.4,0.9,0.5,1.1,0.2s0.7-0.5,1.2-0.8s1-0.5,1.3-0.6C376.7,104.6,376.8,104.3,376.8,103.7z M382,65.7
	l-1-0.3l-0.8,0.4l0.3,0.8l1.1,0.3L382,65.7z M383.7,61.7l-1-0.4l-0.8,0.6l0.5,0.7l0.7,0.1L383.7,61.7z M383.4,77.6
	c-0.5-0.3-1-0.2-1.2,0.2c-0.2,0.2-0.3,0.4-0.2,0.5c0.1,0.1,0.2,0.3,0.3,0.6c0.2,0.3,0.3,0.7,0.4,0.9s0.3,0.4,0.6,0.3
	c0.4-0.1,0.6-0.3,0.5-0.6c-0.1-0.2-0.1-0.6,0-1C383.9,78.1,383.7,77.8,383.4,77.6z M388.6,96.4c-0.5-1-0.9-1.8-1.2-2.4
	s-1.1-0.8-2.2-0.7c-1.2,0.1-1.8,0.6-1.8,1.3s-0.2,1.7-0.4,2.8c-0.2,1-0.4,1.8-0.5,2.4s0.3,1.2,1.2,1.7c1,0.5,1.8,0.7,2.4,0.5
	s1.3-0.7,2.2-1.5c0.8-0.7,1.1-1.3,1.1-1.8C389.2,98.1,389,97.4,388.6,96.4z M393.9,65.2c-0.9-1-1.7-1.5-2.4-1.5
	c-0.7,0-1.6,0.3-2.9,0.8c-1.6,0.5-2.8,1-3.7,1.3s-1.3,1.2-1.3,2.8c0.1,1.8,0.5,2.9,1.3,3.5c0.8,0.5,2,1.1,3.7,1.5
	c1.4,0.4,2.4,0.3,3-0.2s1.3-1.5,2.1-2.8c0.8-1.1,1.2-2,1.2-2.7C395.1,67.2,394.7,66.3,393.9,65.2z M386.2,108.3l-0.7-1l-0.8,0.7
	l-0.1,0.7l0.8,0.2L386.2,108.3z M387.7,89.8l-1.1,0.5l0.3,1.2l1.2,0.2l0.1-1L387.7,89.8z M389.8,82.2c-0.2-0.3-0.4-0.6-0.5-0.8
	c-0.1-0.2-0.4-0.2-0.8-0.1c-0.6,0.2-0.9,0.7-0.9,1.4c0,0.5,0.3,0.9,1,1.1c0.5,0.1,0.9,0,1.2-0.5C390.1,83,390.1,82.6,389.8,82.2z
	 M394.9,93.6c-0.5-0.1-1-0.1-1.2,0.1c-0.3,0.1-0.5,0.4-0.7,0.9c-0.2,0.4-0.2,0.7,0,1s0.4,0.5,0.8,0.9c0.4,0.3,0.7,0.6,1,0.8
	c0.2,0.2,0.6,0.2,1,0c0.6-0.3,1-0.7,1.2-0.9s0.3-0.7,0.2-1.3c-0.1-0.6-0.4-1-0.7-1.1C396,93.7,395.5,93.6,394.9,93.6z M397.3,85.4
	c-0.5-0.3-0.9-0.5-1.2-0.4c-0.3,0.1-0.7,0.3-1.2,0.6c-0.4,0.3-0.6,0.6-0.7,0.8c0,0.3,0,0.7,0.1,1.1c0.1,0.6,0.3,0.9,0.5,1.1
	s0.5,0.3,1,0.3c0.8,0,1.4-0.4,1.7-1.2c0.2-0.5,0.3-1,0.4-1.3C398,86.2,397.7,85.8,397.3,85.4z M397.8,79.1c0-0.5,0-0.8,0-1.1
	c0-0.2-0.2-0.4-0.7-0.5s-0.9-0.2-1.1-0.2s-0.5,0.2-0.8,0.7c-0.3,0.4-0.3,0.7-0.2,1c0.1,0.2,0.3,0.6,0.6,1c0.3,0.3,0.5,0.6,0.7,0.7
	s0.5,0.1,0.9-0.1s0.6-0.3,0.6-0.6C397.8,79.8,397.8,79.5,397.8,79.1z M396.4,74.4l-0.7-0.3l-0.3,0.8l0.4,0.8l0.6-0.7V74.4z"/>
<path class="st1" d="M414.4,130.8c-0.8,0-1.4-0.3-1.9-0.8s-0.8-1.2-0.8-1.9v-67c0-0.8,0.3-1.4,0.8-1.9s1.2-0.8,1.9-0.8h17.3
	c0.8,0,1.4,0.3,1.9,0.8s0.8,1.2,0.8,1.9v3.1c1.6-2,3.6-3.6,6.1-4.9c2.5-1.3,5.5-1.9,9-1.9c3.9,0,7.5,0.8,10.7,2.3
	c3.2,1.6,5.7,4.1,7.7,7.5c2,3.4,3.1,8,3.3,13.7c0.1,1.5,0.1,2.8,0.1,4s0,2.5-0.1,4.1c-0.2,5.3-1.3,9.7-3.2,13.2
	c-1.9,3.5-4.5,6.1-7.7,7.8c-3.2,1.7-6.8,2.6-10.7,2.6c-2.9,0-5.4-0.5-7.8-1.4s-4.2-2.5-5.8-4.7V128c0,0.8-0.3,1.4-0.8,1.9
	s-1.2,0.8-1.9,0.8L414.4,130.8L414.4,130.8z M415.7,63.6l-1-0.4l-0.6,1.2l1,0.7l1.1-0.4L415.7,63.6z M416.2,89.5l-1.4-0.1l-0.1,1.5
	l1.3,0.6l0.8-1.1L416.2,89.5z M419.3,82.7c-0.1-0.5-0.1-1-0.2-1.3s-0.4-0.5-1-0.7c-0.7-0.1-1.2-0.2-1.7-0.2s-0.8,0.3-1.2,1
	c-0.4,0.6-0.5,1.1-0.1,1.4c0.3,0.3,0.7,0.8,1.2,1.3c0.4,0.5,0.8,0.8,1.1,1.1c0.3,0.2,0.8,0.2,1.4-0.1c0.6-0.3,0.9-0.6,0.8-1
	C419.4,84,419.4,83.4,419.3,82.7z M417.8,118.1l-1-0.6l-0.9,0.6l0.4,0.8l0.8,0.1L417.8,118.1z M418.5,123.1l-1.2-0.7l-0.8,1l0.6,0.8
	l1.2,0.4L418.5,123.1z M421.5,62.8c-0.6-0.2-1.1-0.2-1.4-0.1c-0.3,0.1-0.7,0.5-1,1c-0.4,0.5-0.6,1-0.5,1.3s0.3,0.7,0.6,1.3
	c0.4,0.5,0.8,0.9,1.1,1s0.8,0.1,1.4-0.1c0.8-0.3,1.3-0.5,1.6-0.8c0.3-0.3,0.5-0.8,0.5-1.5s-0.2-1.2-0.6-1.4
	C422.8,63.2,422.3,63,421.5,62.8z M423.3,101.3c-0.1-0.5-0.2-0.8-0.5-1s-0.6-0.3-1.1-0.5c-0.8-0.1-1.3,0.1-1.7,0.8
	c-0.3,0.7-0.3,1.3,0.2,1.8s1,0.7,1.7,0.4c0.5-0.2,0.8-0.4,1.1-0.6C423.2,102.2,423.3,101.9,423.3,101.3z M423.9,89.2
	c-1-0.2-1.6-0.2-2,0.1s-0.8,0.8-1.3,1.6c-0.5,0.7-0.7,1.2-0.7,1.7c0,0.4,0.3,1,0.9,1.6c0.6,0.8,1.1,1.3,1.5,1.8s1.1,0.5,2,0.1
	c1-0.3,1.5-0.8,1.7-1.3s0.3-1.4,0.2-2.4c-0.1-0.9-0.2-1.6-0.6-2C425.5,89.8,424.8,89.4,423.9,89.2z M424.1,124.5
	c-0.4-0.4-0.8-0.6-1.1-0.4c-0.3,0.1-0.7,0.3-1.2,0.6c-0.5,0.3-0.9,0.5-1.1,0.7c-0.3,0.2-0.4,0.5-0.3,1.1c0.1,0.5,0.4,0.8,0.7,0.9
	c0.3,0.1,0.7,0.1,1.3,0.2c0.5,0.1,0.8,0.1,1.1,0c0.2-0.1,0.5-0.3,0.7-0.8c0.3-0.5,0.4-0.9,0.5-1.2
	C424.7,125.2,424.5,124.9,424.1,124.5z M423.1,117.9c-0.5-0.4-1-0.4-1.5,0c-0.4,0.3-0.7,0.5-0.9,0.7c-0.2,0.2-0.2,0.5,0,0.9
	c0.1,0.4,0.3,0.6,0.6,0.6s0.6,0,1.1,0s0.9,0,1.1,0.1c0.3,0,0.5-0.2,0.6-0.6c0.1-0.5,0.1-0.8,0-1
	C423.8,118.4,423.5,118.2,423.1,117.9z M427.4,73.1c-1-0.2-1.6-0.2-2.1,0.1s-0.9,0.8-1.4,1.6c-0.5,0.9-0.8,1.7-0.8,2.2
	s0.3,1.2,1,1.9c0.7,0.8,1.3,1.2,1.9,1.3c0.6,0.1,1.3-0.1,2.3-0.5c0.9-0.4,1.3-0.9,1.3-1.4s-0.1-1.3-0.2-2.2
	c-0.1-0.9-0.3-1.7-0.4-2.1C428.8,73.5,428.3,73.2,427.4,73.1z M430.6,106.9c-1-0.5-1.7-0.6-2.2-0.4s-1.1,0.7-1.9,1.5
	c-0.8,0.7-1.2,1.3-1.3,1.8c-0.1,0.5,0,1.2,0.5,2c0.5,1,0.9,1.8,1.3,2.2c0.4,0.4,1.2,0.6,2.4,0.5c1-0.2,1.7-0.6,1.9-1.1
	s0.5-1.3,0.7-2.3c0.1-1.1,0.2-1.9,0.1-2.4C432.1,108,431.6,107.5,430.6,106.9z M430.4,81.7c-0.7-0.2-1.2-0.1-1.4,0.2s-0.6,0.8-1,1.4
	c-0.4,0.7-0.7,1.2-1,1.6c-0.2,0.4-0.1,0.9,0.5,1.5c0.5,0.6,0.9,0.8,1.3,0.5s1-0.5,1.7-0.8c0.5-0.3,0.9-0.5,1.1-0.8s0.2-0.6,0.1-1.2
	c-0.1-0.7-0.1-1.2-0.1-1.7C431.5,82.1,431.1,81.9,430.4,81.7z M430.5,62.5c-0.8-0.1-1.3,0.1-1.5,0.6s-0.4,1.1-0.8,1.8
	c-0.3,0.7-0.6,1.2-0.9,1.7c-0.3,0.4-0.1,0.9,0.5,1.5c0.7,0.6,1.3,0.9,1.7,0.9s1.1-0.3,1.9-0.8c0.7-0.3,1.1-0.7,1.2-1.1s0.1-1,0-1.8
	c-0.2-0.8-0.4-1.4-0.6-1.9C431.9,63,431.4,62.7,430.5,62.5z M431,125.8l-0.8,0.2l-0.3,0.6l0.6,0.5l0.5-0.5L431,125.8L431,125.8z
	 M439.5,99.8c-0.1-1.2-0.5-2-1.1-2.2s-1.5-0.5-2.6-0.8c-1.2-0.3-2.2-0.4-2.8-0.5c-0.6,0-1.3,0.5-2,1.6c-0.5,0.9-0.5,1.7,0,2.1
	c0.5,0.5,1.2,1.2,1.9,2s1.3,1.7,1.7,2.3s1.1,0.8,2.3,0.3c1.3-0.5,2.1-1.1,2.4-1.8C439.5,102.2,439.6,101.2,439.5,99.8z M441.1,94.2
	c1.9,0,3.2-0.5,3.8-1.6c0.6-1.1,1.1-2.5,1.3-4.3c0.2-2.2,0.2-4.5,0-6.7c-0.2-1.8-0.6-3.3-1.3-4.3s-1.9-1.6-3.8-1.6s-3.2,0.5-3.9,1.6
	c-0.7,1.1-1.1,2.5-1.2,4.3c-0.1,1.5-0.1,2.7-0.1,3.7s0,2.3,0.1,3.8c0.1,1.6,0.6,2.9,1.4,3.8C438.2,93.7,439.4,94.2,441.1,94.2z
	 M442.9,65.5c-0.3-0.4-0.5-0.7-0.7-0.9c-0.2-0.2-0.5-0.2-1-0.2c-0.5,0.1-0.7,0.3-0.8,0.6c0,0.3-0.1,0.7-0.1,1.1
	c-0.1,0.4-0.1,0.7,0,0.9c0.1,0.2,0.3,0.4,0.7,0.6c0.5,0.2,0.9,0.3,1.1,0.4c0.3,0,0.6-0.1,0.9-0.5s0.5-0.8,0.4-1
	C443.3,66.4,443.1,66,442.9,65.5z M450.5,99.4c-1-1-1.7-1.8-2.4-2.3c-0.6-0.5-1.5-0.5-2.8,0.2s-1.7,1.3-1.5,2.1s0.4,1.9,0.6,3.2
	c0.2,1.2,0.4,2.2,0.6,2.9c0.2,0.7,0.9,1.1,2.1,1.2c1.4,0.3,2.5,0.3,3.2,0s1.4-1.1,2-2.3c0.5-1.2,0.6-2,0.2-2.7
	S451.5,100.3,450.5,99.4z M461.5,73.7c-1.5-1.4-2.8-2-3.8-1.8s-2.5,0.9-4.2,1.9c-1.5,0.8-2.4,1.7-2.6,2.6c-0.3,0.9-0.2,2.1,0.1,3.8
	c0.3,1.6,0.8,2.6,1.5,3.1s1.9,0.8,3.4,1c1.8,0.2,3.3,0.3,4.3,0.4s2-0.8,2.7-2.4c1-2,1.4-3.5,1.2-4.6
	C463.9,76.4,463.1,75.1,461.5,73.7z M453.9,63.7c-0.4-0.3-0.7-0.4-1-0.1s-0.6,0.5-1.1,0.8c-0.3,0.2-0.6,0.4-0.8,0.5
	c-0.2,0.1-0.3,0.4-0.2,0.8c0.1,0.4,0.3,0.7,0.5,0.8s0.5,0.2,1,0.3c0.5,0.1,0.9,0.1,1.1,0.1c0.3,0,0.5-0.3,0.7-0.8s0.3-1,0.3-1.3
	S454.3,64.1,453.9,63.7z M452.9,94.3l-1.2-0.6l-0.2,1.4l0.7,1.2l1.1-1L452.9,94.3z M456.6,105.3c-0.6-0.1-1.1-0.1-1.3,0.1
	c-0.3,0.1-0.5,0.4-0.8,0.9c-0.2,0.5-0.2,0.8,0,1.1s0.5,0.5,0.8,0.9c0.3,0.3,0.6,0.6,0.9,0.7c0.2,0.1,0.6,0.1,1-0.2
	c0.5-0.3,0.8-0.5,1-0.7s0.2-0.6,0.1-1.1s-0.3-0.9-0.5-1.1S457.2,105.4,456.6,105.3z M457.8,62.1c-0.3-0.3-0.5-0.6-0.7-0.8
	s-0.5-0.2-0.9-0.1c-0.4,0.2-0.6,0.4-0.6,0.7s0,0.7,0.1,1.1c0.1,0.5,0.4,0.9,1,1c0.3,0.1,0.6,0.1,0.9,0.2s0.5-0.1,0.7-0.5
	c0.2-0.4,0.2-0.6,0.1-0.8C458.3,62.8,458.1,62.5,457.8,62.1z M460.7,99.5c-0.6-0.6-1.1-1.1-1.5-1.3c-0.4-0.3-1-0.2-1.6,0.3
	c-0.8,0.4-1.1,0.8-1,1.3s0.2,1.1,0.4,1.9c0.1,0.6,0.4,1,0.7,1.1s0.8,0.2,1.4,0.3c0.7,0.1,1.2,0.1,1.6,0.1s0.8-0.3,1-0.9
	c0.3-0.7,0.3-1.2,0.1-1.5C461.6,100.4,461.2,99.9,460.7,99.5z M464.1,66.4c-0.5-0.2-0.8-0.3-1.1-0.4c-0.2,0-0.5,0.1-0.9,0.5
	c-0.3,0.4-0.3,0.7-0.1,0.9c0.2,0.2,0.4,0.5,0.7,0.8c0.3,0.5,0.6,0.9,0.7,1.2c0.1,0.3,0.4,0.4,0.9,0.3c0.5-0.2,0.8-0.5,0.9-0.8
	c0-0.3,0-0.7,0-1.3c0-0.4-0.1-0.7-0.2-0.8C464.8,66.7,464.5,66.6,464.1,66.4z M465.6,92.4c-0.1-0.5-0.3-0.8-0.4-1s-0.4-0.3-0.8-0.3
	s-0.7,0.1-0.8,0.3c-0.1,0.2-0.2,0.5-0.4,0.9c-0.2,0.5-0.1,0.9,0.4,1.2c0.3,0.2,0.5,0.4,0.7,0.5s0.4,0.1,0.7-0.2
	C465.5,93.5,465.7,93,465.6,92.4z"/>
<g>
	<path class="st2" d="M124,67.8c-0.3-0.3-0.8-0.4-1.3-0.2c-0.3,0.1-0.5,0.2-0.7,0.4c-0.2,0.1-0.3,0.3-0.3,0.7c0,0.4,0.1,0.7,0.2,0.9
		s0.4,0.3,0.8,0.4c0.5,0.1,0.8,0.2,1.1,0.2c0.3,0,0.5-0.2,0.8-0.6s0.3-0.7,0.1-0.9C124.5,68.4,124.3,68.1,124,67.8z"/>
	<path class="st2" d="M126.9,39.3c-0.3,0-0.6,0-0.8,0c-0.2,0-0.3,0.2-0.4,0.6c-0.2,0.6-0.1,1.1,0.4,1.5c0.5,0.3,1,0.2,1.5-0.1
		c0.4-0.3,0.5-0.8,0.3-1.3C127.8,39.5,127.4,39.3,126.9,39.3z"/>
	<path class="st2" d="M129.6,31.4c0.5,0.5,1,0.9,1.3,1.2s0.8,0.2,1.4-0.2c0.6-0.4,0.9-0.8,0.8-1.2c-0.1-0.4-0.2-1-0.4-1.7
		c-0.1-0.5-0.4-0.9-0.7-1s-0.7-0.1-1.3-0.1s-1.1,0-1.3,0.1c-0.3,0.1-0.5,0.4-0.7,0.9s-0.2,0.9-0.1,1.2
		C128.8,30.8,129.2,31.1,129.6,31.4z"/>
	<path class="st2" d="M125.3,55c-0.4,0.2-1,0.4-1.7,0.6c-0.6,0.2-1.1,0.4-1.4,0.5s-0.5,0.5-0.5,1.2c0,0.8,0.1,1.5,0.2,1.9
		s0.6,0.8,1.4,1.1c0.8,0.2,1.4,0.2,1.8,0s0.8-0.7,1.3-1.4s0.8-1.2,0.9-1.6c0.1-0.4-0.1-1-0.7-1.6C126.1,55,125.7,54.8,125.3,55z"/>
	<polygon class="st2" points="128.8,61.5 128.6,62.2 128.9,63.1 129.8,62.7 129.5,61.9 	"/>
	<path class="st2" d="M133.4,72.7c-0.9-0.4-1.6-0.7-2.1-0.7c-0.5-0.1-1.1,0.3-1.8,1s-1,1.3-0.9,1.8s0.3,1.2,0.8,2.1
		c0.4,0.8,0.8,1.3,1.2,1.6c0.4,0.2,1.1,0.3,1.9,0.2c0.9-0.2,1.6-0.5,2-0.8s0.6-1,0.8-1.9c0.1-0.9,0.1-1.5-0.2-1.9
		C134.8,73.6,134.2,73.2,133.4,72.7z"/>
	<path class="st2" d="M138.7,61.6c0.3-0.2,0.3-0.5,0.2-1s-0.4-0.8-0.7-0.9c-0.3-0.1-0.7-0.1-1.3-0.1c-0.8-0.1-1.3,0.3-1.5,1
		c-0.2,0.4-0.3,0.8-0.2,1c0,0.3,0.2,0.5,0.6,0.8c0.4,0.3,0.7,0.5,1,0.4s0.6-0.2,1-0.5C138.1,62,138.4,61.8,138.7,61.6z"/>
	<path class="st2" d="M134.6,66.3c-0.5,0.1-0.9,0.2-1.2,0.3s-0.5,0.3-0.5,0.8s0.1,0.9,0.3,1.2c0.2,0.2,0.6,0.5,1.1,0.7
		c0.4,0.1,0.7,0.1,0.8-0.2c0.1-0.2,0.4-0.5,0.7-0.9c0.4-0.5,0.5-1,0.2-1.4C135.7,66.4,135.2,66.2,134.6,66.3z"/>
	<path class="st2" d="M132.6,44.9c-0.2,0.3-0.4,0.7-0.6,1.3c-0.2,0.6-0.4,1.1-0.5,1.5s0.1,0.8,0.7,1.2c0.5,0.4,1,0.5,1.3,0.4
		s0.8-0.4,1.3-0.8c0.7-0.4,1.2-0.8,1.6-1s0.5-0.8,0.3-1.5c-0.3-0.8-0.6-1.3-1.1-1.3c-0.4-0.1-1.1-0.1-2-0.1
		C133.1,44.5,132.7,44.6,132.6,44.9z"/>
	<polygon class="st2" points="164.8,31.1 165.4,30.4 164.8,29.7 163.9,29.9 164,30.8 	"/>
	<polygon class="st2" points="165.1,25.7 165.4,26.5 166.5,26.3 166.6,25.2 165.6,24.8 	"/>
	<path class="st2" d="M163.7,48.1c0.3,0,0.6-0.1,1.1-0.2c0.4-0.1,0.6-0.2,0.7-0.5c0.1-0.2,0.1-0.6,0.1-1s0-0.8,0-1s-0.2-0.5-0.6-0.6
		c-0.9-0.3-1.6-0.2-2,0.5c-0.5,0.7-0.6,1.4-0.1,2.1C163.2,47.9,163.4,48.1,163.7,48.1z"/>
	<path class="st2" d="M165.7,22.6c0.2,0,0.6,0,1.1,0c0.3,0,0.5-0.1,0.6-0.3c0.1-0.2,0.2-0.5,0.3-0.8c0.1-0.6,0-1-0.3-1.3
		c-0.6-0.3-1.1-0.3-1.5,0c-0.3,0.3-0.6,0.5-0.8,0.7s-0.2,0.5-0.1,0.9C165.2,22.3,165.5,22.6,165.7,22.6z"/>
	<path class="st2" d="M134.3,41.2c0.2,0.2,0.5,0.2,0.9,0c0.5-0.2,0.7-0.4,0.7-0.7s-0.1-0.7-0.1-1.1c0-0.4-0.3-0.7-0.9-0.9
		c-0.5-0.1-0.9-0.2-1.1-0.4c-0.3-0.2-0.5,0-0.8,0.4s-0.3,0.7-0.2,1s0.4,0.6,0.7,1C133.9,40.8,134.1,41,134.3,41.2z"/>
	<path class="st2" d="M139.2,79.1c-0.5-0.1-0.8-0.1-1.1-0.1c-0.2,0-0.5,0.2-0.7,0.6c-0.4,0.6-0.4,1.2,0.1,1.8
		c0.5,0.6,1.1,0.8,1.7,0.5c0.8-0.3,1.2-0.8,1.1-1.5c0-0.4-0.1-0.7-0.3-0.9C139.9,79.4,139.6,79.2,139.2,79.1z"/>
	<path class="st2" d="M150.6,24.9c0.7,1.1,1.3,1.9,1.7,2.3c0.5,0.4,1.3,0.5,2.6,0.2c1.2-0.3,1.9-0.7,2.1-1.4s0.3-1.6,0.5-2.8
		c0.1-1.1,0-1.9-0.3-2.4s-0.9-0.9-1.8-1.3c-1.4-0.6-2.6-1.2-3.4-1.6c-0.8-0.5-1.7-0.1-2.6,1c-1,1.2-1.2,2.1-0.7,2.9
		C149.1,22.6,149.8,23.6,150.6,24.9z"/>
	<path class="st2" d="M175.6,49.1c0.2,0.3,0.5,0.3,1,0c0.6-0.2,1-0.5,1.1-0.8s0.2-0.8,0.1-1.4c-0.1-1-0.6-1.6-1.5-1.8
		c-0.6-0.1-0.9-0.1-1.1,0.2c-0.2,0.2-0.4,0.6-0.7,1.1s-0.3,1.1,0.1,1.6C175.1,48.5,175.4,48.8,175.6,49.1z"/>
	<polygon class="st2" points="153.9,70.7 154.7,71.1 155.4,70.3 154.7,69.6 153.7,69.7 	"/>
	<path class="st2" d="M135.1,26.1c0.6,0.6,1.1,1,1.5,1.2s1,0.1,1.7-0.3c0.9-0.5,1.5-0.9,1.9-1.3s0.5-1.1,0.3-2.1
		c-0.1-1-0.5-1.5-1.1-1.5s-1.4-0.2-2.4-0.3c-0.9-0.1-1.7-0.2-2.3-0.3s-1.1,0.3-1.5,1.2c-0.5,0.9-0.5,1.5-0.1,1.9
		C133.8,24.9,134.4,25.5,135.1,26.1z"/>
	<path class="st2" d="M173.1,29.4c0.1-0.2,0.1-0.5,0.2-1c0.1-0.4,0.1-0.7,0-1s-0.3-0.5-0.6-0.7c-0.6-0.2-1.1-0.4-1.4-0.5
		s-0.7,0-1.1,0.5c-0.4,0.5-0.6,0.9-0.5,1.2c0.1,0.3,0.3,0.7,0.6,1.3c0.2,0.5,0.5,0.7,0.8,0.8s0.7,0,1.2,0
		C172.8,29.8,173,29.6,173.1,29.4z"/>
	<polygon class="st2" points="173.4,36.9 173,36.2 172.2,36.6 172.3,37.6 173.2,37.9 	"/>
	<path class="st2" d="M168.2,36.4c-0.8-0.3-1.4-0.2-1.8,0c-0.4,0.3-0.8,0.8-1.4,1.5c-0.5,0.7-0.9,1.2-1.1,1.6s-0.1,1,0.4,1.7
		c0.5,0.8,0.9,1.2,1.4,1.3s1.2,0,2-0.2c0.9-0.3,1.7-0.5,2.2-0.8c0.5-0.2,0.8-0.9,0.9-1.9c0.1-1.1-0.1-1.8-0.5-2.2
		C169.9,37.2,169.2,36.8,168.2,36.4z"/>
	<path class="st2" d="M170,67.5c-0.5-0.4-1-0.6-1.3-0.5s-0.8,0.3-1.3,0.6c-0.5,0.3-0.9,0.7-0.9,1c-0.1,0.3,0,0.8,0.2,1.4
		c0.2,0.9,0.8,1.4,1.7,1.4s1.6-0.3,1.9-1.2c0.2-0.6,0.3-1.1,0.4-1.5C170.8,68.3,170.6,68,170,67.5z"/>
	<path class="st2" d="M178.2,59.5c-0.9-0.3-1.7-0.4-2.1-0.1c-0.5,0.3-1,0.8-1.6,1.6s-1,1.5-1.1,2s0.1,1.2,0.8,2
		c0.5,0.8,1.1,1.2,1.6,1.1s1.3-0.2,2.2-0.5c0.7-0.3,1.1-0.6,1.1-1c0.1-0.4,0.1-1,0.1-1.7c0-0.9,0.1-1.6,0.1-2.2
		C179.5,60.2,179.1,59.8,178.2,59.5z"/>
	<polygon class="st2" points="140.6,70.4 140.7,71.1 141.4,71.3 141.2,70.2 	"/>
	<path class="st2" d="M165.1,53.3c-0.9-0.4-1.7-0.2-2.4,0.5c-0.7,0.8-0.8,1.5-0.2,2.3c0.3,0.5,0.6,0.8,0.9,0.9s0.7,0.1,1.3,0
		c0.5-0.1,0.9-0.3,1-0.6s0.2-0.7,0.3-1.2s0.1-1-0.1-1.2C165.9,53.7,165.6,53.5,165.1,53.3z"/>
	<path class="st2" d="M174.3,54.6c0.6-0.3,0.9-0.8,0.8-1.2c-0.1-0.4-0.1-0.7-0.2-0.9c-0.1-0.2-0.4-0.3-0.8-0.4c-0.5-0.1-0.8,0-1,0.1
		s-0.3,0.4-0.5,0.8c-0.2,0.3-0.3,0.6-0.4,0.9c0,0.2,0.1,0.5,0.4,0.8c0.3,0.3,0.5,0.5,0.8,0.4C173.7,54.8,174,54.7,174.3,54.6z"/>
	<polygon class="st2" points="163.6,75.4 162.9,76.4 164.2,76.6 165.1,76.1 164.6,74.9 	"/>
	<path class="st2" d="M155.6,75.9c-0.4-0.4-1.3-0.7-2.5-0.9c-1.2-0.1-2,0-2.6,0.3c-0.5,0.3-1.1,1.1-1.6,2.1c-0.5,1.1-0.7,2-0.6,2.6
		c0.1,0.7,0.6,1.3,1.6,2.1c0.9,0.8,1.6,1.3,2.3,1.3c0.6,0.1,1.5-0.2,2.5-0.8c1-0.6,1.6-1.2,1.9-1.8s0.2-1.4-0.1-2.6
		C156.4,77.1,156,76.3,155.6,75.9z"/>
	<path class="st2" d="M163.6,68.3c0-0.9-0.4-1.4-1.1-1.6c-0.4-0.1-0.7-0.1-0.8,0.2c-0.1,0.2-0.3,0.5-0.6,0.9
		c-0.3,0.3-0.5,0.6-0.7,0.8s-0.2,0.5,0,0.9c0.3,0.3,0.6,0.5,0.9,0.5c0.2,0,0.6-0.2,1.1-0.4c0.4-0.1,0.7-0.3,0.9-0.4
		C163.5,68.9,163.6,68.7,163.6,68.3z"/>
	<polygon class="st2" points="149.4,72.4 150.2,73 150.8,72.2 150.6,71.4 149.3,71.2 	"/>
	<polygon class="st2" points="164,63.2 163.8,61.9 162.8,60.9 161.9,62.2 162.7,63.2 	"/>
	<path class="st2" d="M147.2,71.1c-0.3-0.1-0.8-0.2-1.2-0.3c-0.6-0.1-1.1,0-1.4,0.5c-0.3,0.4-0.5,0.8-0.7,1s-0.1,0.6,0.1,1
		c0.3,0.4,0.7,0.6,1,0.5s0.7-0.2,1.2-0.5c0.5-0.2,0.9-0.4,1.1-0.5c0.3-0.1,0.4-0.4,0.4-1C147.7,71.5,147.5,71.2,147.2,71.1z"/>
	<path class="st1" d="M184.2,40.8c-0.2-6-1.8-11-4.6-15.2s-6.9-7.3-11.9-9.5s-10.9-3.3-17.5-3.3c-6.7,0-12.5,1.1-17.5,3.3
		s-9,5.3-11.8,9.5c-2.9,4.1-4.4,9.2-4.7,15.2c-0.2,6.1-0.2,12.1,0,18c0.3,6.1,1.8,11.1,4.7,15.2c2.9,4.1,6.8,7.2,11.8,9.2
		s10.8,3.1,17.5,3.1s12.5-1,17.5-3.1s8.9-5.1,11.8-9.2c2.9-4.1,4.5-9.2,4.7-15.3C184.4,52.9,184.4,46.9,184.2,40.8z M174.6,46.4
		c0.3-0.5,0.5-0.8,0.7-1.1c0.2-0.2,0.5-0.3,1.1-0.2c0.9,0.2,1.5,0.8,1.5,1.8c0.1,0.6,0,1.1-0.1,1.4c-0.1,0.3-0.5,0.6-1.1,0.8
		c-0.5,0.3-0.8,0.2-1,0c-0.2-0.3-0.5-0.7-0.9-1.1C174.3,47.5,174.3,47,174.6,46.4z M165.1,20.9c0.2-0.2,0.4-0.4,0.8-0.7
		c0.4-0.3,0.9-0.3,1.5,0c0.3,0.3,0.4,0.7,0.3,1.3c-0.1,0.3-0.2,0.6-0.3,0.8c-0.1,0.2-0.3,0.3-0.6,0.3c-0.5,0-0.8,0-1.1,0
		c-0.2,0-0.5-0.3-0.7-0.8C164.9,21.4,164.9,21.1,165.1,20.9z M166.6,25.2l-0.1,1.1l-1,0.2l-0.3-0.8l0.4-0.9L166.6,25.2z M164.8,29.7
		l0.6,0.7l-0.6,0.7l-0.8-0.3l-0.1-0.9L164.8,29.7z M163,45.3c0.5-0.7,1.2-0.8,2-0.5c0.4,0.1,0.6,0.3,0.6,0.6s0,0.6,0,1s0,0.7-0.1,1
		c-0.1,0.2-0.3,0.4-0.7,0.5c-0.5,0.1-0.9,0.2-1.1,0.2c-0.3,0-0.6-0.2-0.8-0.6C162.4,46.7,162.4,46,163,45.3z M149.2,19
		c0.9-1.2,1.8-1.5,2.6-1s1.9,1,3.4,1.6c0.9,0.4,1.6,0.9,1.8,1.3c0.3,0.5,0.4,1.3,0.3,2.4c-0.1,1.2-0.3,2.2-0.5,2.8
		c-0.2,0.6-0.9,1.1-2.1,1.4c-1.2,0.3-2.1,0.2-2.6-0.2c-0.5-0.4-1.1-1.2-1.7-2.3c-0.8-1.3-1.4-2.3-2-3.1
		C148,21.1,148.2,20.2,149.2,19z M155.4,70.3l-0.6,0.8l-0.8-0.4l-0.2-1l1-0.1L155.4,70.3z M144.4,40c0.1-1.2,0.4-2.1,0.9-2.5
		s1.2-0.8,2.4-1c1.2-0.3,2-0.3,2.6,0s1.2,0.9,1.8,1.9s0.9,1.8,0.8,2.5c-0.1,0.7-0.5,1.4-1.3,2.3c-0.8,1-1.4,1.5-2.1,1.6
		c-0.6,0.1-1.5-0.1-2.6-0.6s-1.8-1.1-2.1-1.6C144.3,42,144.2,41.1,144.4,40z M133.4,22.7c0.4-0.9,0.9-1.3,1.5-1.2s1.3,0.2,2.3,0.3
		c0.9,0.1,1.7,0.2,2.4,0.3c0.6,0.1,1,0.6,1.1,1.5c0.2,1,0.1,1.7-0.3,2.1s-1.1,0.9-1.9,1.3c-0.8,0.4-1.3,0.5-1.7,0.3
		s-0.9-0.6-1.5-1.2c-0.8-0.7-1.3-1.2-1.8-1.6C132.9,24.2,132.9,23.6,133.4,22.7z M133.7,44.5c0.9,0,1.6,0,2,0.1s0.8,0.5,1.1,1.3
		c0.2,0.8,0.1,1.3-0.3,1.5s-0.9,0.6-1.6,1c-0.5,0.4-1,0.7-1.3,0.8s-0.8,0-1.3-0.4s-0.8-0.8-0.7-1.2s0.2-0.9,0.5-1.5
		c0.2-0.6,0.4-1,0.6-1.3C132.7,44.6,133.1,44.5,133.7,44.5z M133,38.5c0.3-0.4,0.5-0.5,0.8-0.4c0.3,0.2,0.6,0.3,1.1,0.4
		c0.6,0.2,0.9,0.5,0.9,0.9c0,0.5,0,0.8,0.1,1.1s-0.2,0.5-0.7,0.7c-0.4,0.1-0.7,0.1-0.9,0c-0.2-0.2-0.5-0.4-0.8-0.8
		c-0.3-0.4-0.6-0.7-0.7-1C132.7,39.2,132.7,38.9,133,38.5z M124.7,69.5c-0.3,0.4-0.5,0.6-0.8,0.6s-0.7-0.1-1.1-0.2s-0.7-0.2-0.8-0.4
		s-0.2-0.5-0.2-0.9c0-0.3,0.1-0.6,0.3-0.7c0.2-0.1,0.4-0.2,0.7-0.4c0.5-0.2,1-0.1,1.3,0.2c0.3,0.3,0.5,0.6,0.7,0.8
		C124.9,68.8,124.9,69.1,124.7,69.5z M127.1,57.2c-0.1,0.4-0.4,1-0.9,1.6s-0.9,1.1-1.3,1.4c-0.4,0.2-1,0.2-1.8,0
		c-0.8-0.3-1.3-0.6-1.4-1.1s-0.2-1.1-0.2-1.9c0-0.7,0.2-1.1,0.5-1.2c0.3-0.1,0.8-0.3,1.4-0.5c0.8-0.2,1.3-0.4,1.7-0.6
		c0.4-0.2,0.8,0,1.2,0.6C127,56.3,127.2,56.8,127.1,57.2z M127.6,41.3c-0.5,0.3-1.1,0.4-1.5,0.1c-0.5-0.4-0.6-0.9-0.4-1.5
		c0.1-0.3,0.2-0.5,0.4-0.6c0.2,0,0.5,0,0.8,0c0.5,0,0.9,0.2,1,0.7C128.1,40.6,128,41,127.6,41.3z M128.7,29.4
		c0.2-0.5,0.4-0.9,0.7-0.9s0.7-0.1,1.3-0.1c0.5,0,1,0,1.3,0.1s0.5,0.4,0.7,1c0.2,0.8,0.3,1.3,0.4,1.7c0.1,0.4-0.2,0.8-0.8,1.2
		c-0.6,0.4-1.1,0.5-1.4,0.2c-0.3-0.3-0.7-0.7-1.3-1.2c-0.5-0.3-0.8-0.6-1-0.9C128.5,30.3,128.5,29.9,128.7,29.4z M129.8,62.7
		l-0.8,0.4l-0.3-0.8l0.2-0.7l0.7,0.4L129.8,62.7z M135.4,75.9c-0.1,0.9-0.4,1.6-0.8,1.9c-0.4,0.3-1,0.6-2,0.8
		c-0.9,0.1-1.5,0.1-1.9-0.2s-0.8-0.8-1.2-1.6c-0.5-0.9-0.8-1.6-0.8-2.1c-0.1-0.5,0.2-1.1,0.9-1.8c0.7-0.8,1.3-1.1,1.8-1
		s1.2,0.3,2.1,0.7c0.8,0.4,1.4,0.8,1.7,1.2C135.4,74.4,135.5,75,135.4,75.9z M135.9,68.3c-0.3,0.3-0.6,0.6-0.7,0.9
		c-0.1,0.2-0.4,0.3-0.8,0.2c-0.6-0.2-0.9-0.4-1.1-0.7c-0.2-0.2-0.3-0.6-0.3-1.2c0-0.5,0.2-0.8,0.5-0.8s0.8-0.2,1.2-0.3
		c0.6-0.1,1.1,0,1.4,0.5C136.3,67.2,136.3,67.7,135.9,68.3z M135.8,62.4c-0.3-0.3-0.5-0.5-0.6-0.8c0-0.3,0.1-0.6,0.2-1
		c0.3-0.8,0.8-1.1,1.5-1c0.5,0,1,0,1.3,0.1s0.5,0.4,0.7,0.9c0.1,0.5,0.1,0.8-0.2,1s-0.6,0.4-1,0.8c-0.4,0.2-0.7,0.4-1,0.5
		C136.5,62.9,136.2,62.8,135.8,62.4z M139.3,81.9c-0.7,0.3-1.3,0.1-1.7-0.5c-0.5-0.6-0.5-1.2-0.1-1.8c0.2-0.3,0.4-0.5,0.7-0.6
		s0.6,0,1.1,0.1c0.4,0.1,0.7,0.3,0.9,0.5s0.3,0.5,0.3,0.9C140.5,81.1,140.1,81.7,139.3,81.9z M140.7,71.1l-0.1-0.7l0.6-0.2l0.2,1.1
		L140.7,71.1z M143.5,63.7c0.5-0.8,1-1.9,1.6-3.4c0.4-1,0.9-1.6,1.3-1.8c0.5-0.3,1.3-0.4,2.4-0.3c1.2,0.1,2.2,0.3,2.8,0.5
		s1.1,0.9,1.4,2.1s0.2,2.1-0.2,2.5c-0.4,0.5-1.2,1.1-2.3,1.7c-1.3,0.8-2.3,1.4-3.1,2s-1.7,0.4-2.9-0.7
		C143.3,65.4,143,64.5,143.5,63.7z M150.8,72.2l-0.5,0.7l-0.8-0.5l-0.1-1.2l1.2,0.2L150.8,72.2z M147.3,72.9
		c-0.3,0.1-0.6,0.2-1.1,0.5c-0.5,0.2-0.9,0.4-1.2,0.5s-0.6-0.1-1-0.5c-0.3-0.4-0.3-0.8-0.1-1c0.2-0.3,0.4-0.6,0.7-1
		c0.3-0.5,0.8-0.7,1.4-0.5c0.5,0.1,0.9,0.2,1.2,0.3s0.5,0.3,0.5,0.8C147.7,72.5,147.6,72.8,147.3,72.9z M156.6,80.9
		c-0.2,0.6-0.9,1.2-1.9,1.8c-1,0.6-1.9,0.9-2.5,0.8s-1.4-0.5-2.3-1.3c-0.9-0.8-1.5-1.4-1.6-2.1s0.1-1.5,0.6-2.6s1.1-1.8,1.6-2.1
		c0.5-0.3,1.4-0.4,2.6-0.3c1.2,0.1,2.1,0.4,2.5,0.9s0.8,1.2,1,2.4C156.8,79.4,156.9,80.3,156.6,80.9z M158.6,50.3
		c0,0.3-0.3,0.6-0.8,0.8c-0.5,0.3-1,0.5-1.3,0.6s-0.7-0.1-1.2-0.5s-0.6-0.8-0.5-1.1s0.3-0.8,0.5-1.4c0.2-0.3,0.4-0.5,0.7-0.6
		c0.2-0.1,0.6-0.1,1,0c0.5,0.1,0.8,0.1,1,0.2c0.2,0.1,0.4,0.3,0.5,0.8C158.7,49.6,158.7,50,158.6,50.3z M161.3,69.8
		c-0.2,0-0.5-0.1-0.9-0.5c-0.2-0.4-0.2-0.7,0-0.9s0.4-0.5,0.7-0.8s0.5-0.6,0.6-0.9c0.1-0.2,0.4-0.3,0.8-0.2c0.8,0.2,1.1,0.8,1.1,1.6
		c0,0.4-0.1,0.7-0.3,0.8c-0.2,0.1-0.5,0.3-0.9,0.4C161.9,69.7,161.6,69.8,161.3,69.8z M161.9,62.2l0.9-1.3l1,1l0.2,1.2h-1.3
		L161.9,62.2z M164.2,76.6l-1.3-0.2l0.7-1l1-0.5l0.5,1.2L164.2,76.6z M166.1,55.2c-0.1,0.5-0.2,1-0.3,1.2s-0.5,0.5-1,0.6
		c-0.6,0.1-1,0.1-1.3,0s-0.6-0.4-0.9-0.9c-0.6-0.8-0.5-1.6,0.2-2.3c0.6-0.8,1.4-0.9,2.4-0.5c0.5,0.2,0.8,0.4,0.9,0.7
		C166.1,54.3,166.1,54.7,166.1,55.2z M170.3,70.2c-0.3,0.9-1,1.3-1.9,1.2s-1.5-0.5-1.7-1.4c-0.2-0.6-0.3-1.1-0.2-1.4s0.4-0.6,0.9-1
		c0.5-0.3,1-0.5,1.3-0.6s0.8,0.1,1.3,0.5s0.8,0.8,0.7,1.2C170.7,69.1,170.6,69.6,170.3,70.2z M170.9,39.8c-0.1,1-0.4,1.7-0.9,1.9
		s-1.2,0.5-2.2,0.8c-0.9,0.2-1.6,0.2-2,0.2s-0.9-0.5-1.4-1.3s-0.6-1.3-0.4-1.7c0.2-0.4,0.6-1,1.1-1.6s1-1.2,1.4-1.5s1-0.3,1.8,0
		c1,0.4,1.7,0.8,2.1,1.2C170.8,38,170.9,38.7,170.9,39.8z M171.1,30c-0.3,0-0.6-0.3-0.8-0.8c-0.3-0.5-0.5-1-0.6-1.3s0.1-0.7,0.5-1.2
		s0.8-0.6,1.1-0.5s0.8,0.3,1.4,0.5c0.3,0.2,0.5,0.4,0.6,0.7c0.1,0.2,0.1,0.6,0,1c-0.1,0.5-0.1,0.8-0.2,1c-0.1,0.2-0.3,0.4-0.8,0.5
		C171.8,30,171.4,30,171.1,30z M172.2,36.6l0.8-0.4l0.4,0.7l-0.2,0.9l-0.9-0.3L172.2,36.6z M172.7,54.6c-0.3-0.3-0.4-0.5-0.4-0.8
		c0-0.2,0.1-0.5,0.4-0.9c0.1-0.4,0.3-0.7,0.5-0.8s0.5-0.2,1-0.1c0.4,0.1,0.7,0.2,0.8,0.4s0.2,0.5,0.2,0.9c0.1,0.5-0.2,0.9-0.8,1.2
		c-0.3,0.1-0.6,0.3-0.9,0.4C173.2,55.1,173,54.9,172.7,54.6z M179.2,63c0,0.8,0,1.3-0.1,1.7c-0.1,0.4-0.4,0.8-1.1,1
		c-0.9,0.3-1.7,0.4-2.2,0.5s-1.1-0.3-1.6-1.1c-0.6-0.8-0.9-1.5-0.8-2c0.1-0.5,0.5-1.2,1.1-2s1.2-1.4,1.6-1.6
		c0.5-0.3,1.2-0.2,2.1,0.1c0.9,0.3,1.3,0.7,1.2,1.3C179.3,61.3,179.2,62.1,179.2,63z"/>
</g>
</svg>
