<?xml version="1.0" encoding="utf-8"?>
<!-- Generator: Adobe Illustrator 23.0.2, SVG Export Plug-In . SVG Version: 6.00 Build 0)  -->
<svg version="1.1" id="Layer_1" xmlns="http://www.w3.org/2000/svg" xmlns:xlink="http://www.w3.org/1999/xlink" x="0px" y="0px"
	 viewBox="0 0 500 216" style="enable-background:new 0 0 500 216;" xml:space="preserve">
<style type="text/css">
	.st0{fill:#FAC805;}
	.st1{fill:none;}
	.st2{fill:#FFFFFF;}
</style>
<path class="st0" d="M92.1,111.4c-0.8,0-1.4-0.3-1.9-0.8s-0.8-1.2-0.8-1.9V42.8c0-0.8,0.3-1.4,0.8-1.9s1.2-0.8,1.9-0.8h16.1
	c1.4,0,2.4,0.4,3.1,1.1s1.1,1.3,1.3,1.6l14.8,24.5l14.8-24.5c0.2-0.3,0.7-0.9,1.3-1.6s1.7-1.2,3.1-1.2h16.1c0.8,0,1.4,0.3,1.9,0.8
	s0.8,1.2,0.8,1.9v65.9c0,0.8-0.3,1.4-0.8,1.9c-0.6,0.5-1.2,0.8-1.9,0.8h-18.5c-0.8,0-1.4-0.3-1.9-0.8s-0.8-1.2-0.8-1.9V80.7l-6.7,11
	c-0.3,0.5-0.8,1.1-1.4,1.7c-0.6,0.6-1.4,0.9-2.4,0.9h-7.1c-1,0-1.8-0.3-2.4-0.9s-1-1.1-1.4-1.7l-6.7-11v27.9c0,0.8-0.3,1.4-0.8,1.9
	s-1.2,0.8-1.9,0.8L92.1,111.4L92.1,111.4z M94.1,45l-1.3,0.4l-1,1l1.3,0.8l1.3-0.6L94.1,45z M94.4,75.4l-0.7-0.6l-0.3,0.9l0.3,0.6
	l0.8-0.1L94.4,75.4z M98.8,80.8c-0.8-0.5-1.5-1-1.9-1.3c-0.5-0.3-1.1-0.2-1.8,0.4c-0.8,0.6-1.2,1.2-1.1,1.7c0.1,0.6,0.3,1.3,0.6,2.2
	c0.3,0.9,0.6,1.6,0.9,2c0.3,0.4,1,0.6,1.9,0.6c1.2,0,2.2-0.1,2.9-0.2s1.2-0.7,1.6-1.9c0.3-1.2,0.2-1.9-0.6-2.1S99.8,81.5,98.8,80.8z
	 M97.8,54.3c-0.1-0.6-0.3-1-0.4-1.3c-0.1-0.3-0.5-0.4-1.1-0.4c-0.6,0-1,0.1-1.3,0.2c-0.2,0.2-0.5,0.6-0.8,1.2
	c-0.2,0.5-0.2,0.8,0,1.1c0.2,0.2,0.5,0.5,0.9,0.9c0.6,0.5,1.3,0.6,1.9,0.1C97.8,55.6,98,55,97.8,54.3z M104.9,60.8
	c-1.8-0.7-3.2-0.8-4.2-0.5c-1,0.4-2,1.3-3.3,2.8c-0.6,0.9-0.8,1.6-0.7,2.1s0.5,1.1,1,1.7s1.1,1.4,1.6,2.2c0.8,1.2,1.5,2.1,1.9,2.8
	c0.5,0.7,1.4,0.9,2.8,0.5c1.4-0.4,2.2-1,2.3-1.8s0.2-2,0.3-3.5c0.1-1.1,0.2-2,0.3-2.9c0.1-0.8,0.1-1.5-0.2-2.1
	C106.5,61.7,105.9,61.2,104.9,60.8z M102.5,93.5c0-0.5,0-0.9,0-1.2c0-0.3-0.2-0.5-0.7-0.6s-0.8-0.1-1,0.2c-0.2,0.2-0.4,0.6-0.7,1
	c-0.3,0.5-0.2,0.9,0.2,1.4c0.4,0.6,0.9,0.8,1.4,0.6C102.3,94.6,102.5,94.1,102.5,93.5z M104,100.7l-1-0.6l-1.4-0.1l0.1,1.7h1.5
	L104,100.7z M108.6,54c-0.1-0.5-0.5-0.7-1.2-0.6c-0.3,0-0.6,0-0.9,0c-0.2,0-0.4,0.2-0.6,0.6c-0.1,0.4,0,0.7,0.3,0.7
	c0.2,0.1,0.5,0.2,0.9,0.4c0.3,0.2,0.5,0.4,0.7,0.6c0.2,0.2,0.4,0.1,0.8-0.2c0.3-0.2,0.4-0.4,0.4-0.7C108.8,54.6,108.8,54.3,108.6,54
	z M109.6,81l-1.1-0.7l-0.5,1.1l0.3,0.8l1.3,0.1V81L109.6,81z M110.6,77l-0.5,0.4l-0.1,0.7l0.8,0.1l0.2-0.7L110.6,77z M115.5,60.6
	c-0.5-0.5-1-0.9-1.4-1.1c-0.4-0.2-0.9-0.1-1.5,0.3c-0.8,0.4-1.2,0.8-1.5,1.2c-0.2,0.4-0.3,1,0,1.9c0.1,0.8,0.4,1.2,0.8,1.4
	c0.4,0.2,1,0.3,1.8,0.5c0.6,0.1,1-0.1,1.2-0.4c0.2-0.3,0.4-0.7,0.7-1.3s0.4-1,0.5-1.3C116.1,61.4,115.9,61,115.5,60.6z M116.8,70.6
	c-0.2-0.3-0.5-0.3-1,0c-0.3,0.1-0.6,0.2-0.8,0.3c-0.2,0.1-0.3,0.2-0.3,0.5c0.1,0.5,0.4,0.9,1.1,1s1.1,0,1.3-0.5
	c0.2-0.3,0.2-0.5,0.2-0.7C117.3,71.1,117.1,70.9,116.8,70.6z M124.8,74.4c-0.8-0.3-1.4-0.3-1.8,0c-0.4,0.3-0.9,0.9-1.4,1.6
	c-0.6,0.8-1.1,1.3-1.4,1.8c-0.3,0.4-0.2,1.1,0.3,1.9c0.6,0.9,1.2,1.5,1.7,1.7s1.3,0.1,2.4-0.2c0.9-0.3,1.4-0.7,1.5-1.2
	c0-0.5,0.1-1.3,0.2-2.2c0.1-0.9,0.1-1.6,0.1-2.1C126.1,75.1,125.6,74.7,124.8,74.4z M129.8,82.3c-0.5-0.3-0.9-0.3-1.2-0.1
	s-0.6,0.5-1,0.9c-0.5,0.5-0.6,1.2-0.2,1.9c0.2,0.4,0.4,0.7,0.6,0.9c0.2,0.2,0.5,0.3,1.1,0.2s0.9-0.2,1.2-0.4
	c0.3-0.2,0.5-0.5,0.6-1.1c0.1-0.7,0.1-1.2-0.1-1.5C130.6,82.9,130.3,82.6,129.8,82.3z M136.6,68.9c-0.9-0.5-1.6-0.8-2.1-0.7
	s-1.2,0.5-2,1.2c-1.1,0.9-2,1.6-2.8,2c-0.8,0.4-0.9,1.3-0.5,2.6c0.5,1.4,1.2,2.2,2,2.4c0.8,0.2,1.9,0.3,3.5,0.2
	c1.2-0.1,2-0.4,2.4-0.9s0.8-1.4,1.2-2.7c0.3-1,0.3-1.8,0.1-2.3C138,70.2,137.5,69.6,136.6,68.9z M146.1,44.2c-0.5-0.2-0.8-0.2-1.1,0
	c-0.3,0.2-0.5,0.5-0.9,0.9c-0.3,0.3-0.4,0.6-0.3,0.9c0.1,0.2,0.2,0.5,0.4,0.9c0.3,0.5,0.8,0.8,1.4,0.6s0.9-0.6,1-1.2
	c0-0.5,0-1,0.1-1.3C146.8,44.6,146.5,44.4,146.1,44.2z M146.4,56.3c-0.5,0-1,0-1.3,0s-0.6,0.2-0.8,0.8c-0.2,0.6-0.3,1.1-0.2,1.4
	s0.3,0.7,0.8,1.1c0.5,0.4,0.8,0.5,1.1,0.3c0.3-0.2,0.7-0.5,1.1-0.8c0.5-0.3,0.8-0.5,1-0.7s0.2-0.6,0.1-1.1c-0.1-0.5-0.4-0.7-0.7-0.8
	C147.3,56.3,146.9,56.3,146.4,56.3z M146.7,70.6c-0.5-0.5-0.9-0.6-1.3-0.4c-0.5,0.3-0.7,0.7-0.6,1.3c0.1,0.4,0.2,0.7,0.2,1
	s0.4,0.4,0.8,0.5s0.7,0,0.8-0.2c0.1-0.2,0.3-0.5,0.5-0.9C147.2,71.4,147.1,71,146.7,70.6z M146.2,102.2l-1,0.5v1.2l1.2,0.4l0.7-1.2
	L146.2,102.2z M153,89c-0.8-0.7-1.5-0.8-1.9-0.5s-1.2,0.8-2,1.4c-0.9,0.6-1.8,1.1-2.5,1.3c-0.7,0.3-0.9,1-0.6,2.1
	c0.3,1.2,0.7,2,1.4,2.2c0.7,0.2,1.6,0.4,2.9,0.5c1,0.1,1.7-0.2,2-0.7c0.3-0.5,0.6-1.2,1-2.2c0.4-0.9,0.7-1.7,0.8-2.3
	C154.2,90.3,153.8,89.6,153,89z M154.1,51.4c-0.8-0.2-1.3-0.1-1.5,0.4s-0.5,1-0.9,1.6c-0.4,0.7-0.8,1.2-1,1.5
	c-0.2,0.3-0.2,0.8,0.3,1.4c0.5,0.6,1,0.9,1.4,1c0.4,0,1-0.1,1.8-0.5c0.7-0.3,1.1-0.6,1.3-1c0.2-0.4,0.2-0.9,0.2-1.7
	c-0.1-0.8-0.2-1.4-0.3-1.9C155.3,52,154.9,51.6,154.1,51.4z M154.2,67.6c-0.3-0.4-0.7-0.6-1-0.6c-0.3,0-0.8,0.2-1.3,0.4
	c-0.4,0.1-0.6,0.3-0.6,0.6c0,0.3,0,0.6,0,1c0,0.7,0.3,1.1,0.8,1.2c0.6,0.2,1.1,0.4,1.4,0.6c0.3,0.2,0.7,0,1-0.5
	c0.4-0.5,0.6-1,0.5-1.4C155,68.7,154.7,68.2,154.2,67.6z M154,74.7c0-0.5,0.1-0.8,0.2-1.1c0.1-0.3-0.1-0.5-0.5-0.6
	c-0.5-0.1-0.8-0.1-1,0.1c-0.2,0.2-0.4,0.5-0.8,0.8c-0.3,0.5-0.2,1,0.1,1.5c0.3,0.3,0.5,0.6,0.7,0.7s0.5,0.1,0.9,0
	c0.3-0.1,0.5-0.2,0.5-0.5C154,75.4,154,75.1,154,74.7z M161.6,80.1c-0.4-1.3-0.9-2.1-1.5-2.5s-1.6-0.6-3-0.6c-1.3,0-2.2,0.2-2.7,0.7
	c-0.5,0.4-1,1.3-1.4,2.5c-0.3,1.2-0.4,2-0.1,2.6s0.9,1.2,1.9,1.9c0.8,0.6,1.5,0.8,2,0.6c0.5-0.2,1.2-0.6,2-1.2
	c0.9-0.7,1.7-1.2,2.3-1.7C161.8,81.9,161.9,81.2,161.6,80.1z M159.1,102.1c-0.5-0.8-0.9-1.4-1.2-1.8c-0.3-0.4-0.9-0.5-1.9-0.3
	c-0.9,0.2-1.6,0.5-1.9,0.9s-0.6,1.1-0.7,2.1c-0.1,0.9,0,1.6,0.3,2s0.8,0.8,1.7,1.2c1,0.5,1.8,0.8,2.4,1.1c0.6,0.3,1.3-0.1,2-1
	c0.8-0.8,0.9-1.4,0.6-2C160.1,103.8,159.7,103.1,159.1,102.1z M157.6,61c-0.5-0.1-0.8-0.1-1.1-0.1c-0.3,0-0.5,0.2-0.7,0.7
	c-0.2,0.4-0.2,0.7,0.1,0.8s0.6,0.3,0.9,0.6c0.3,0.3,0.5,0.7,0.6,0.9c0.1,0.3,0.4,0.3,0.8,0.1c0.8-0.3,1.1-1,0.9-1.9
	c-0.1-0.4-0.2-0.7-0.5-0.8C158.4,61.2,158.1,61.1,157.6,61z M159.1,89.4l-1.3,0.3l-0.4,1.4l1.3,0.2l1-0.6L159.1,89.4z M161.2,42.9
	c-0.7-0.4-1.4-0.3-2,0.4c-0.3,0.3-0.4,0.5-0.2,0.8c0.1,0.2,0.2,0.6,0.5,1c0.2,0.3,0.4,0.6,0.5,0.8c0.1,0.2,0.4,0.3,0.8,0.2
	c0.5-0.1,0.8-0.2,1.1-0.3c0.2-0.1,0.4-0.4,0.5-0.9C162.2,43.9,161.9,43.3,161.2,42.9z"/>
<path class="st0" d="M284.6,112.4c-6.7,0-12.5-1-17.5-3.1s-8.9-5.1-11.8-9.2c-2.9-4.1-4.5-9.2-4.7-15.2c-0.2-5.8-0.2-11.8,0-17.9
	c0.3-6,1.8-11.1,4.7-15.2c2.9-4.2,6.8-7.3,11.8-9.5s10.8-3.3,17.5-3.3c6.7,0,12.5,1.1,17.5,3.3s9,5.3,11.9,9.5
	c2.9,4.2,4.4,9.2,4.6,15.2c0.2,6.1,0.2,12.1,0,18c-0.3,6.1-1.9,11.1-4.7,15.2c-2.9,4.1-6.8,7.2-11.8,9.2
	C297.1,111.4,291.2,112.4,284.6,112.4z M260.9,81.7c-0.4-0.6-0.8-0.8-1.2-0.6c-0.4,0.2-1,0.4-1.7,0.6c-0.6,0.2-1.1,0.4-1.4,0.5
	s-0.5,0.5-0.5,1.2c0,0.8,0.1,1.4,0.2,1.9c0.1,0.4,0.6,0.8,1.4,1.1c0.8,0.2,1.4,0.2,1.8-0.1c0.4-0.2,0.8-0.7,1.3-1.4s0.8-1.2,0.9-1.6
	C261.7,82.9,261.5,82.4,260.9,81.7z M258.5,93.9c-0.3-0.3-0.8-0.4-1.3-0.2c-0.3,0.1-0.5,0.2-0.7,0.4c-0.2,0.1-0.3,0.3-0.3,0.7
	c0,0.4,0.1,0.7,0.1,0.9s0.4,0.3,0.8,0.4c0.5,0.1,0.9,0.2,1.1,0.2c0.3,0,0.5-0.2,0.8-0.6s0.3-0.7,0.1-0.9
	C259,94.5,258.7,94.2,258.5,93.9z M262.3,66.1c-0.1-0.5-0.5-0.7-1-0.7c-0.3,0-0.6,0-0.8,0.1c-0.2,0-0.3,0.2-0.4,0.6
	c-0.2,0.6-0.1,1.1,0.4,1.5c0.5,0.3,1,0.2,1.5-0.1C262.5,67.1,262.5,66.7,262.3,66.1z M265.2,54.5c-0.6,0-1.1,0-1.3,0.1
	c-0.3,0.1-0.5,0.4-0.7,0.9c-0.2,0.5-0.2,0.9-0.1,1.2c0.2,0.2,0.5,0.5,1,0.9c0.5,0.5,1,0.9,1.3,1.2s0.8,0.2,1.4-0.2
	c0.6-0.4,0.9-0.8,0.8-1.2c-0.1-0.4-0.2-1-0.4-1.7c-0.1-0.5-0.4-0.9-0.7-1C266.2,54.5,265.7,54.5,265.2,54.5z M267.8,98.9
	c-0.9-0.4-1.6-0.7-2.1-0.7c-0.5-0.1-1.1,0.3-1.8,1c-0.7,0.7-1,1.3-0.9,1.8c0.1,0.5,0.3,1.2,0.8,2.1c0.4,0.8,0.8,1.3,1.2,1.6
	c0.4,0.2,1.1,0.3,1.9,0.2c0.9-0.2,1.6-0.5,2-0.8c0.4-0.3,0.6-1,0.8-1.9c0.1-0.9,0.1-1.5-0.2-1.9C269.2,99.7,268.7,99.3,267.8,98.9z
	 M264,88l-0.7-0.4l-0.2,0.7l0.3,0.8l0.8-0.4L264,88z M271.2,72c-0.3-0.8-0.6-1.3-1.1-1.3s-1.1-0.1-2-0.1c-0.6,0-1,0.1-1.2,0.4
	s-0.4,0.7-0.6,1.3c-0.2,0.6-0.4,1.1-0.5,1.5s0.1,0.8,0.7,1.2c0.5,0.4,1,0.5,1.3,0.4s0.8-0.4,1.3-0.8c0.7-0.4,1.2-0.8,1.6-1
	C271.3,73.3,271.4,72.8,271.2,72z M269.4,64.6c-0.5-0.1-0.9-0.2-1.1-0.4c-0.3-0.2-0.5-0.1-0.8,0.4c-0.3,0.4-0.3,0.7-0.2,1
	s0.4,0.6,0.7,1c0.3,0.3,0.6,0.6,0.8,0.8c0.2,0.2,0.5,0.2,0.9,0.1c0.5-0.2,0.7-0.4,0.7-0.7c0-0.3-0.1-0.7-0.1-1.1
	C270.3,65.1,270,64.8,269.4,64.6z M270.5,92.9c-0.3-0.5-0.8-0.7-1.4-0.5c-0.5,0.1-0.9,0.2-1.2,0.3s-0.5,0.3-0.5,0.8s0.1,0.9,0.3,1.2
	c0.2,0.2,0.6,0.5,1.1,0.7c0.4,0.1,0.7,0.1,0.8-0.2c0.1-0.2,0.4-0.5,0.7-0.9C270.7,93.8,270.8,93.4,270.5,92.9z M275.1,49.7
	c-0.1-1-0.5-1.5-1.1-1.5c-0.6,0-1.4-0.2-2.4-0.3c-0.9-0.1-1.7-0.2-2.3-0.3s-1.1,0.3-1.5,1.2c-0.5,0.9-0.5,1.5-0.1,1.9s1,0.9,1.8,1.6
	c0.6,0.6,1.1,1,1.5,1.2c0.4,0.2,1,0.1,1.7-0.3c0.9-0.5,1.5-0.9,1.9-1.3C275.2,51.4,275.3,50.7,275.1,49.7z M273.4,86.7
	c-0.1-0.5-0.4-0.8-0.7-0.9c-0.3-0.1-0.7-0.1-1.3-0.1c-0.8-0.1-1.3,0.3-1.5,1c-0.2,0.4-0.3,0.8-0.2,1c0,0.3,0.2,0.5,0.6,0.8
	c0.4,0.3,0.7,0.5,1,0.4c0.3-0.1,0.6-0.2,1-0.5c0.4-0.3,0.8-0.6,1-0.8C273.4,87.5,273.5,87.2,273.4,86.7z M273.7,105.2
	c-0.5-0.1-0.8-0.1-1.1-0.1c-0.2,0-0.5,0.2-0.7,0.6c-0.4,0.6-0.4,1.2,0.1,1.8c0.5,0.6,1.1,0.8,1.7,0.5c0.8-0.3,1.2-0.8,1.1-1.5
	c0-0.4-0.1-0.7-0.3-0.9C274.4,105.5,274.1,105.3,273.7,105.2z M275.6,96.3l-0.6,0.2l0.1,0.7l0.7,0.2L275.6,96.3z M284.6,92.5
	c2.2,0,4-0.7,5.4-2c1.4-1.3,2.1-3.4,2.1-6.3c0.2-5.8,0.2-11.6,0-17.1c-0.1-2.9-0.8-5-2.2-6.3s-3.2-2-5.4-2s-3.9,0.7-5.3,2
	c-1.4,1.3-2.1,3.4-2.2,6.3c-0.2,5.6-0.2,11.3,0,17.1c0.1,2.9,0.9,4.9,2.2,6.3C280.5,91.9,282.3,92.5,284.6,92.5z M280.4,96.9
	c-0.6-0.1-1.1,0-1.4,0.5c-0.3,0.4-0.5,0.8-0.7,1c-0.2,0.2-0.1,0.6,0.1,1c0.3,0.4,0.7,0.6,1,0.5c0.3-0.1,0.7-0.2,1.2-0.5
	c0.5-0.2,0.9-0.4,1.1-0.5c0.3-0.1,0.4-0.4,0.4-1c0-0.5-0.2-0.8-0.5-0.8C281.3,97.2,280.9,97.1,280.4,96.9z M289.7,45.7
	c-1.4-0.6-2.6-1.2-3.4-1.6c-0.8-0.5-1.7-0.1-2.6,1c-1,1.2-1.2,2.1-0.7,2.9s1.2,1.8,2,3.1c0.7,1.1,1.3,1.8,1.7,2.3
	c0.5,0.4,1.3,0.5,2.6,0.2c1.2-0.3,1.9-0.7,2.1-1.4s0.3-1.6,0.5-2.8c0.1-1.1,0-1.9-0.3-2.3C291.2,46.6,290.6,46.1,289.7,45.7z
	 M287.5,101.1c-1.2-0.1-2,0-2.6,0.3c-0.5,0.3-1.1,1.1-1.6,2.1c-0.5,1.1-0.7,2-0.6,2.6c0.1,0.7,0.6,1.3,1.6,2.1
	c0.9,0.8,1.6,1.3,2.3,1.3c0.6,0.1,1.5-0.2,2.5-0.8c1-0.6,1.6-1.2,1.9-1.8s0.2-1.4-0.1-2.6c-0.2-1.2-0.5-1.9-1-2.4
	C289.6,101.5,288.8,101.2,287.5,101.1z M285,97.5l-1.2-0.2l0.1,1.2l0.8,0.5l0.5-0.7L285,97.5z M289.8,96.4l-0.6-0.7l-1,0.1l0.2,1
	l0.8,0.4L289.8,96.4z M298,94.4c0-0.9-0.4-1.4-1.1-1.6c-0.4-0.1-0.7-0.1-0.8,0.2c-0.1,0.2-0.3,0.5-0.6,0.9c-0.3,0.3-0.5,0.6-0.7,0.8
	c-0.2,0.2-0.2,0.5,0,0.9c0.3,0.3,0.6,0.5,0.9,0.5c0.2,0,0.6-0.2,1.1-0.4c0.4-0.1,0.7-0.3,0.9-0.4C297.9,95.1,298,94.8,298,94.4z
	 M298.2,88l-1-1l-0.9,1.3l0.8,0.9h1.3L298.2,88z M299.6,79.4c-0.9-0.4-1.7-0.2-2.4,0.5c-0.7,0.8-0.8,1.5-0.2,2.3
	c0.3,0.5,0.6,0.8,0.9,0.9s0.7,0.1,1.3,0c0.5-0.1,0.9-0.3,1-0.6c0.1-0.3,0.2-0.7,0.3-1.2s0.1-0.9-0.1-1.2
	C300.3,79.8,300,79.6,299.6,79.4z M299.5,70.9c-0.9-0.3-1.6-0.2-2,0.5c-0.5,0.7-0.6,1.4-0.1,2.1c0.3,0.4,0.5,0.6,0.8,0.6
	s0.6-0.1,1.1-0.2c0.4-0.1,0.6-0.2,0.7-0.5c0.1-0.2,0.1-0.6,0.1-1s0-0.8,0-1C300.1,71.3,299.9,71,299.5,70.9z M299.1,101l-1,0.5
	l-0.7,1l1.3,0.2l0.9-0.5L299.1,101z M302.6,62.5c-0.8-0.3-1.4-0.2-1.8,0c-0.4,0.3-0.8,0.8-1.4,1.5c-0.5,0.7-0.9,1.2-1.1,1.6
	s-0.1,1,0.4,1.7c0.5,0.8,0.9,1.2,1.4,1.3c0.5,0.1,1.2,0.1,2-0.2c0.9-0.3,1.7-0.5,2.2-0.8c0.5-0.2,0.8-0.9,0.9-1.9
	c0.1-1.1-0.1-1.8-0.5-2.2C304.4,63.3,303.7,63,302.6,62.5z M299.3,55.8l-0.9,0.2l0.1,0.9l0.8,0.3l0.6-0.7L299.3,55.8z M301.8,46.3
	c-0.6-0.3-1.1-0.3-1.5,0c-0.3,0.3-0.6,0.5-0.8,0.7c-0.2,0.2-0.2,0.5-0.1,0.9c0.2,0.5,0.4,0.7,0.7,0.8c0.2,0,0.6,0,1.1,0
	c0.3,0,0.5-0.1,0.6-0.3s0.2-0.5,0.3-0.8C302.3,47,302.2,46.6,301.8,46.3z M301,51.3l-1-0.4l-0.4,0.9l0.3,0.8l1-0.2L301,51.3z
	 M304.5,93.7c-0.5-0.4-1-0.6-1.3-0.5s-0.8,0.3-1.3,0.6c-0.5,0.3-0.9,0.7-0.9,1c-0.1,0.3,0,0.8,0.2,1.4c0.2,0.9,0.8,1.4,1.7,1.4
	c0.9,0,1.6-0.3,1.9-1.2c0.2-0.6,0.3-1.1,0.4-1.5C305.2,94.5,305,94.1,304.5,93.7z M307.1,52.9c-0.6-0.2-1.1-0.4-1.4-0.5
	s-0.7,0-1.1,0.5c-0.4,0.5-0.6,0.9-0.5,1.2c0.1,0.3,0.3,0.7,0.6,1.3c0.2,0.5,0.5,0.7,0.8,0.8s0.7,0,1.2,0c0.5-0.1,0.8-0.3,0.8-0.5
	c0.1-0.2,0.1-0.5,0.2-1c0.1-0.4,0.1-0.7,0-1C307.7,53.3,307.5,53.1,307.1,52.9z M307.4,62.3l-0.8,0.4l0.1,0.9l0.9,0.4l0.2-0.9
	L307.4,62.3z M308.5,78.2c-0.5-0.1-0.8,0-1,0.1c-0.2,0.1-0.3,0.4-0.5,0.8c-0.2,0.3-0.3,0.6-0.4,0.9c0,0.2,0.1,0.5,0.4,0.8
	s0.5,0.5,0.8,0.4s0.5-0.2,0.9-0.4c0.6-0.3,0.9-0.8,0.8-1.2c-0.1-0.4-0.1-0.7-0.2-0.9C309.2,78.4,309,78.2,308.5,78.2z M312.6,85.6
	c-0.9-0.3-1.7-0.4-2.1-0.1c-0.5,0.3-1,0.8-1.6,1.6c-0.6,0.8-1,1.5-1.1,2c-0.1,0.5,0.1,1.2,0.8,2c0.5,0.8,1.1,1.2,1.6,1.1
	s1.3-0.2,2.2-0.5c0.7-0.3,1.1-0.6,1.1-1c0.1-0.4,0.1-1,0.1-1.7c0-0.9,0.1-1.6,0.1-2.2C313.9,86.3,313.5,85.9,312.6,85.6z
	 M310.8,71.3c-0.6-0.1-0.9-0.1-1.1,0.2c-0.2,0.2-0.4,0.6-0.7,1.1c-0.3,0.5-0.3,1.1,0.1,1.6c0.4,0.4,0.7,0.8,0.9,1.1
	c0.2,0.3,0.5,0.3,1,0.1c0.6-0.2,1-0.5,1.1-0.8c0.1-0.3,0.2-0.8,0.1-1.4C312.3,72.1,311.7,71.5,310.8,71.3z"/>
<path class="st0" d="M330.8,111.4c-0.8,0-1.4-0.3-1.9-0.8s-0.8-1.2-0.8-1.9V42.8c0-0.8,0.3-1.4,0.8-1.9s1.2-0.8,1.9-0.8h16.1
	c1.4,0,2.4,0.3,3,0.9c0.6,0.6,1,1.1,1.2,1.4l17.2,28.3V42.8c0-0.8,0.3-1.4,0.8-1.9s1.2-0.8,1.9-0.8h18.5c0.8,0,1.4,0.3,1.9,0.8
	s0.8,1.2,0.8,1.9v65.9c0,0.8-0.3,1.4-0.8,1.9s-1.2,0.8-1.9,0.8h-16.1c-1.4,0-2.4-0.3-3-1c-0.6-0.7-1-1.1-1.2-1.4L352,83v25.6
	c0,0.8-0.3,1.4-0.8,1.9s-1.2,0.8-1.9,0.8L330.8,111.4L330.8,111.4z M334.9,93.8c-0.1-0.5-0.2-0.9-0.5-1s-0.7-0.2-1.2-0.4
	c-0.5-0.1-0.9-0.1-1.2-0.1c-0.3,0-0.6,0.2-0.8,0.6c-0.5,0.8-0.4,1.6,0.2,2.3c0.4,0.4,0.8,0.7,1,0.8c0.3,0.1,0.7,0,1.2-0.2
	C334.5,95.4,334.9,94.7,334.9,93.8z M334.2,78.6c0-0.4-0.3-0.7-0.9-0.9c-0.5-0.1-0.9,0-1.1,0.3c-0.3,0.3-0.5,0.6-0.6,0.8
	c-0.1,0.2,0,0.5,0.1,0.8c0.5,0.6,1.1,0.7,1.8,0.4c0.4-0.1,0.6-0.3,0.6-0.6C334.2,79.2,334.2,78.9,334.2,78.6z M335.5,53.7
	c-0.1-0.5-0.3-0.9-0.6-1.1c-0.3-0.2-0.7-0.3-1.2-0.4c-0.5-0.1-0.9,0-1.1,0.3c-0.2,0.2-0.4,0.6-0.6,1.1c-0.3,0.8-0.1,1.4,0.4,1.8
	c0.4,0.4,0.8,0.7,1,0.9c0.3,0.2,0.7,0.2,1.2-0.1s0.9-0.7,1-1S335.7,54.4,335.5,53.7z M333.6,100.1l-0.9-0.5l-0.6,0.8l0.4,0.6h0.8
	L333.6,100.1z M336.3,72.2c-0.1-0.7-0.2-1.2-0.3-1.6s-0.5-0.7-1.2-0.7c-0.7-0.1-1.2,0.1-1.4,0.4c-0.3,0.3-0.5,0.8-0.8,1.5
	c-0.2,0.6-0.2,0.9,0,1.2c0.2,0.2,0.6,0.5,1.1,0.9c0.4,0.3,0.8,0.6,1,0.7c0.3,0.1,0.6,0.1,1.1-0.2c0.5-0.3,0.7-0.7,0.8-0.9
	C336.6,73.2,336.5,72.8,336.3,72.2z M335.8,83.9c-0.7-0.2-1.2-0.4-1.5-0.5s-0.7,0.1-1.1,0.7c-0.3,0.5-0.4,1-0.2,1.3
	c0.2,0.3,0.5,0.7,0.9,1.3c0.3,0.5,0.6,0.8,0.9,1.1c0.3,0.2,0.7,0.2,1.3,0.1c0.6-0.3,1-0.6,1.2-0.9s0.3-0.8,0.3-1.5
	c0-0.5-0.1-0.9-0.5-1.1C336.7,84.2,336.3,84,335.8,83.9z M336.6,101.9c-0.3-0.3-0.7-0.4-1.1-0.2c-0.3,0.2-0.6,0.4-0.8,0.5
	c-0.2,0.1-0.2,0.4-0.1,0.8c0.1,0.3,0.2,0.5,0.5,0.5s0.5,0,0.9,0.1c0.3,0.1,0.6,0.1,0.8,0.1s0.4-0.2,0.5-0.5c0.1-0.3,0.1-0.5,0-0.6
	C337.1,102.4,336.9,102.2,336.6,101.9z M340.4,91.4c-0.1-0.4-0.3-0.6-0.6-0.7c-0.3,0-0.6-0.1-1.1-0.1s-0.9,0-1.2,0
	c-0.3,0-0.5,0.2-0.7,0.7c-0.1,0.5-0.1,0.8,0.2,0.9s0.6,0.3,1,0.6c0.3,0.2,0.5,0.4,0.7,0.5s0.4,0,0.7-0.2c0.4-0.3,0.7-0.5,0.9-0.7
	C340.5,92.2,340.5,91.9,340.4,91.4z M339.4,45.4c-0.4-0.1-0.7-0.1-0.9,0c-0.2,0.2-0.4,0.5-0.7,0.9c-0.5,0.5-0.5,1.1-0.2,1.6
	c0.4,0.5,1,0.7,1.6,0.5c0.4-0.1,0.7-0.2,0.9-0.4s0.3-0.5,0.3-0.9c0-0.5,0-0.9-0.1-1.2C340.1,45.8,339.8,45.6,339.4,45.4z
	 M341.9,68.2c-0.3-0.3-0.6-0.5-0.8-0.6s-0.5-0.1-0.9,0.2c-0.4,0.2-0.6,0.4-0.6,0.7s0,0.6,0.1,1c0.1,0.5,0.3,0.8,0.4,1
	c0.1,0.2,0.4,0.3,0.9,0.4c0.4,0,0.7-0.1,0.9-0.2c0.2-0.2,0.3-0.5,0.5-0.9C342.6,69.1,342.5,68.6,341.9,68.2z M345.4,102.7
	c-0.5-0.7-0.9-1-1.4-1.1s-1.1,0.1-1.9,0.4s-1.2,0.6-1.5,0.9c-0.2,0.3-0.4,0.9-0.4,1.6c0,0.8,0.1,1.4,0.3,1.8s0.7,0.7,1.4,1
	c1,0.3,1.7,0.5,2.2,0.6s1.1-0.2,1.7-1.1c0.6-0.9,0.8-1.5,0.6-2C346.4,104.2,346,103.6,345.4,102.7z M348.8,53.1
	c-1.2-0.2-2.3-0.4-3.2-0.7s-1.7-0.3-2.4-0.1c-0.7,0.2-1.3,0.8-1.8,1.9s-0.7,2-0.5,2.6c0.2,0.7,0.7,1.2,1.5,1.8
	c0.8,0.5,1.6,1.3,2.5,2.1c1.1,1.1,2,1.9,2.7,2.5c0.7,0.5,1.8,0.5,3.2-0.2c1.6-0.9,2.7-1.7,3.2-2.5s0.6-2.1,0.4-3.9
	c-0.3-1.6-0.9-2.6-1.8-2.8C351.7,53.5,350.5,53.3,348.8,53.1z M345.2,82.9c-0.3-0.5-0.7-0.6-1-0.5s-0.7,0.4-1.3,0.6
	c-0.4,0.1-0.7,0.3-0.9,0.4s-0.3,0.4-0.3,0.8s0.1,0.7,0.3,0.8c0.2,0.1,0.5,0.3,0.9,0.4c0.5,0.2,0.8,0.3,1.1,0.4
	c0.2,0,0.5-0.1,0.9-0.5c0.3-0.5,0.6-1,0.7-1.3C345.6,83.8,345.5,83.4,345.2,82.9z M348.1,75.8c-0.5-0.5-1-0.9-1.3-1.2
	s-0.9-0.2-1.5,0.1c-0.9,0.3-1.5,0.7-1.8,1s-0.4,0.9-0.4,1.8c0.1,0.8,0.3,1.3,0.8,1.5c0.4,0.2,1,0.4,1.8,0.6s1.4,0.3,1.9,0.4
	c0.4,0,0.9-0.3,1.3-1c0.5-0.7,0.6-1.2,0.4-1.6C349,76.9,348.6,76.4,348.1,75.8z M345.8,94.8c-0.8-0.1-1.3,0.1-1.6,0.6
	s-0.4,0.8-0.5,1.1c-0.1,0.3,0.1,0.6,0.4,1c0.3,0.3,0.6,0.5,0.9,0.5s0.6-0.2,1.1-0.4c0.5-0.2,0.8-0.4,1-0.6s0.2-0.5,0.1-1
	c-0.1-0.5-0.2-0.8-0.4-0.9C346.6,95,346.2,94.9,345.8,94.8z M349.6,45.7l-0.4-0.8l-0.7,0.4l-0.5,1.1l1.3,0.3L349.6,45.7z
	 M355.7,69.5c-0.5-0.7-0.9-1.1-1.3-1.1c-0.4-0.1-1,0-1.8,0.2s-1.4,0.5-1.7,0.8s-0.5,0.9-0.5,1.7c0,0.8,0.1,1.3,0.5,1.5
	c0.4,0.2,0.8,0.5,1.6,0.8c0.6,0.2,1.1,0.2,1.4,0.1s0.7-0.5,1.1-1.1c0.5-0.5,0.8-1,1.1-1.4C356.2,70.6,356.1,70.1,355.7,69.5z
	 M360.6,69.7c-0.7,0-1.1,0.1-1.3,0.4s-0.4,0.7-0.7,1.3c-0.3,0.8-0.5,1.3-0.6,1.8c-0.1,0.4,0.1,0.9,0.7,1.4c0.5,0.4,1,0.4,1.3,0.1
	c0.3-0.4,0.8-0.8,1.4-1.3c0.6-0.3,1.2-0.6,1.6-0.8c0.5-0.2,0.6-0.6,0.4-1.3c-0.2-0.8-0.5-1.2-0.9-1.4
	C362,69.8,361.4,69.7,360.6,69.7z M381.1,75.2c-2-0.9-3.8-1.4-5.1-1.5c-1.4-0.1-2.7,0.2-3.9,0.9c-1.2,0.7-2.5,1.9-4,3.6
	c-1.2,1.4-1.7,2.6-1.4,3.6c0.3,1,0.9,2.1,1.9,3.1c1,1.1,2,2.4,2.9,3.9c1,1.7,2,2.9,2.8,3.5c0.9,0.6,2.2,0.7,4.1,0.2
	c2.3-0.5,4.1-1.1,5.2-1.6c1.1-0.5,1.9-2,2.1-4.4c0.1-2,0.2-3.7,0.2-5.1s-0.3-2.5-1-3.5C384.2,76.8,383,75.9,381.1,75.2z M369.4,96.8
	l-1.1,0.6l0.1,1.1l1.1,0.3l0.6-1L369.4,96.8z M373.8,103.3l-1-0.3l-0.8,0.7l0.7,0.9l0.9-0.3L373.8,103.3z M376.5,47.8
	c-0.1-0.5-0.3-0.8-0.5-1s-0.5-0.3-1-0.3s-1,0.1-1.2,0.2c-0.3,0.2-0.5,0.5-0.6,1c-0.2,0.5-0.2,1-0.1,1.2c0.1,0.3,0.4,0.6,0.9,0.9
	c0.4,0.3,0.8,0.4,1,0.3c0.3-0.1,0.6-0.2,1-0.5C376.6,49.1,376.7,48.5,376.5,47.8z M375.7,55.1c-0.4-0.2-0.7-0.2-0.9,0
	s-0.4,0.4-0.7,0.7c-0.3,0.4-0.6,0.7-0.9,0.9s-0.3,0.5,0,0.9c0.3,0.5,0.6,0.9,0.9,1.1s0.7,0.2,1.3,0.2c0.6-0.1,1-0.3,1.2-0.6
	s0.3-0.7,0.4-1.3c0.1-0.5,0-0.9-0.2-1.1C376.6,55.5,376.2,55.3,375.7,55.1z M378.3,64.4c-0.6-0.5-1.2-0.5-1.8-0.1
	c-0.7,0.5-0.9,1.1-0.7,1.8c0.1,0.4,0.2,0.6,0.5,0.7c0.3,0,0.6,0.1,1.1,0.1s0.9-0.3,1.1-0.8c0.1-0.4,0.2-0.7,0.2-0.9
	C378.8,64.9,378.7,64.7,378.3,64.4z M379.7,52.2h-1.2l-0.5,0.7l0.6,0.8l0.9-0.4L379.7,52.2z M380,45.5l-0.9,0.4l0.1,1.1l1-0.3
	l0.5-0.6L380,45.5z M381.6,54.7l-1.2,0.2l-0.3,1.2l1.2,0.6l0.4-1L381.6,54.7z M385.4,106.4l-0.7-0.7l-0.8,0.6l0.2,0.9l0.9,0.1
	L385.4,106.4z M389.7,60c-0.1-0.7-0.4-1.1-0.7-1.3s-0.9-0.3-1.5-0.4c-0.6-0.1-1.1,0-1.4,0.2c-0.2,0.2-0.5,0.7-0.8,1.3
	c-0.2,0.5-0.2,0.8,0,1.1s0.5,0.6,0.9,0.9c0.5,0.4,0.9,0.7,1.2,0.9c0.3,0.2,0.7,0.1,1.2-0.2c0.6-0.4,1-0.8,1.2-1.1
	C389.9,61.2,389.9,60.7,389.7,60z"/>
<g>
	<path class="st1" d="M183.6,67.8c-0.3-0.3-0.8-0.4-1.3-0.2c-0.3,0.1-0.5,0.2-0.7,0.4c-0.2,0.1-0.3,0.3-0.3,0.7
		c0,0.4,0.1,0.7,0.2,0.9s0.4,0.3,0.8,0.4c0.5,0.1,0.8,0.2,1.1,0.2c0.3,0,0.5-0.2,0.8-0.6c0.3-0.4,0.3-0.7,0.1-0.9
		C184.1,68.4,183.9,68.1,183.6,67.8z"/>
	<path class="st1" d="M186.5,39.3c-0.3,0-0.6,0-0.8,0c-0.2,0-0.3,0.2-0.4,0.6c-0.2,0.6-0.1,1.1,0.4,1.5c0.5,0.3,1,0.2,1.5-0.1
		c0.4-0.3,0.5-0.8,0.3-1.3C187.4,39.5,187,39.3,186.5,39.3z"/>
	<path class="st1" d="M189.2,31.4c0.5,0.5,1,0.9,1.3,1.2s0.8,0.2,1.4-0.2c0.6-0.4,0.9-0.8,0.8-1.2c-0.1-0.4-0.2-1-0.4-1.7
		c-0.1-0.5-0.4-0.9-0.7-1s-0.7-0.1-1.3-0.1s-1.1,0-1.3,0.1c-0.3,0.1-0.5,0.4-0.7,0.9s-0.2,0.9-0.1,1.2
		C188.4,30.8,188.8,31.1,189.2,31.4z"/>
	<path class="st1" d="M184.9,55c-0.4,0.2-1,0.4-1.7,0.6c-0.6,0.2-1.1,0.4-1.4,0.5c-0.3,0.1-0.5,0.5-0.5,1.2c0,0.8,0.1,1.5,0.2,1.9
		c0.1,0.4,0.6,0.8,1.4,1.1c0.8,0.2,1.4,0.2,1.8,0s0.8-0.7,1.3-1.4s0.8-1.2,0.9-1.6c0.1-0.4-0.1-1-0.7-1.6
		C185.7,55,185.3,54.8,184.9,55z"/>
	<polygon class="st1" points="188.4,61.5 188.2,62.2 188.5,63.1 189.4,62.7 189.1,61.9 	"/>
	<path class="st1" d="M193,72.7c-0.9-0.4-1.6-0.7-2.1-0.7c-0.5-0.1-1.1,0.3-1.8,1s-1,1.3-0.9,1.8s0.3,1.2,0.8,2.1
		c0.4,0.8,0.8,1.3,1.2,1.6c0.4,0.2,1.1,0.3,1.9,0.2c0.9-0.2,1.6-0.5,2-0.8s0.6-1,0.8-1.9c0.1-0.9,0.1-1.5-0.2-1.9
		C194.4,73.6,193.8,73.2,193,72.7z"/>
	<path class="st1" d="M198.3,61.6c0.3-0.2,0.3-0.5,0.2-1s-0.4-0.8-0.7-0.9c-0.3-0.1-0.7-0.1-1.3-0.1c-0.8-0.1-1.3,0.3-1.5,1
		c-0.2,0.4-0.3,0.8-0.2,1c0,0.3,0.2,0.5,0.6,0.8c0.4,0.3,0.7,0.5,1,0.4s0.6-0.2,1-0.5C197.7,62,198,61.8,198.3,61.6z"/>
	<path class="st1" d="M194.2,66.3c-0.5,0.1-0.9,0.2-1.2,0.3s-0.5,0.3-0.5,0.8s0.1,0.9,0.3,1.2c0.2,0.2,0.6,0.5,1.1,0.7
		c0.4,0.1,0.7,0.1,0.8-0.2c0.1-0.2,0.4-0.5,0.7-0.9c0.4-0.5,0.5-1,0.2-1.4C195.3,66.4,194.8,66.2,194.2,66.3z"/>
	<path class="st1" d="M192.2,44.9c-0.2,0.3-0.4,0.7-0.6,1.3c-0.2,0.6-0.4,1.1-0.5,1.5s0.1,0.8,0.7,1.2c0.5,0.4,1,0.5,1.3,0.4
		s0.8-0.4,1.3-0.8c0.7-0.4,1.2-0.8,1.6-1s0.5-0.8,0.3-1.5c-0.3-0.8-0.6-1.3-1.1-1.3c-0.4-0.1-1.1-0.1-2-0.1
		C192.7,44.5,192.3,44.6,192.2,44.9z"/>
	<polygon class="st1" points="224.4,31.1 225,30.4 224.4,29.7 223.5,29.9 223.6,30.8 	"/>
	<polygon class="st1" points="224.7,25.7 225,26.5 226.1,26.3 226.2,25.2 225.2,24.8 	"/>
	<path class="st1" d="M223.3,48.1c0.3,0,0.6-0.1,1.1-0.2c0.4-0.1,0.6-0.2,0.7-0.5c0.1-0.2,0.1-0.6,0.1-1s0-0.8,0-1s-0.2-0.5-0.6-0.6
		c-0.9-0.3-1.6-0.2-2,0.5c-0.5,0.7-0.6,1.4-0.1,2.1C222.8,47.9,223,48.1,223.3,48.1z"/>
	<path class="st1" d="M225.3,22.6c0.2,0,0.6,0,1.1,0c0.3,0,0.5-0.1,0.6-0.3c0.1-0.2,0.2-0.5,0.3-0.8c0.1-0.6,0-1-0.3-1.3
		c-0.6-0.3-1.1-0.3-1.5,0c-0.3,0.3-0.6,0.5-0.8,0.7s-0.2,0.5-0.1,0.9C224.8,22.3,225.1,22.6,225.3,22.6z"/>
	<path class="st1" d="M193.9,41.2c0.2,0.2,0.5,0.2,0.9,0c0.5-0.2,0.7-0.4,0.7-0.7s-0.1-0.7-0.1-1.1c0-0.4-0.3-0.7-0.9-0.9
		c-0.5-0.1-0.9-0.2-1.1-0.4c-0.3-0.2-0.5,0-0.8,0.4s-0.3,0.7-0.2,1s0.4,0.6,0.7,1C193.5,40.8,193.7,41,193.9,41.2z"/>
	<path class="st1" d="M198.8,79.1c-0.5-0.1-0.8-0.1-1.1-0.1c-0.2,0-0.5,0.2-0.7,0.6c-0.4,0.6-0.4,1.2,0.1,1.8
		c0.5,0.6,1.1,0.8,1.7,0.5c0.8-0.3,1.2-0.8,1.1-1.5c0-0.4-0.1-0.7-0.3-0.9C199.5,79.4,199.2,79.2,198.8,79.1z"/>
	<path class="st1" d="M210.2,24.9c0.7,1.1,1.3,1.9,1.7,2.3c0.5,0.4,1.3,0.5,2.6,0.2c1.2-0.3,1.9-0.7,2.1-1.4s0.3-1.6,0.5-2.8
		c0.1-1.1,0-1.9-0.3-2.4s-0.9-0.9-1.8-1.3c-1.4-0.6-2.6-1.2-3.4-1.6c-0.8-0.5-1.7-0.1-2.6,1c-1,1.2-1.2,2.1-0.7,2.9
		C208.7,22.6,209.4,23.6,210.2,24.9z"/>
	<path class="st1" d="M235.2,49.1c0.2,0.3,0.5,0.3,1,0c0.6-0.2,1-0.5,1.1-0.8s0.2-0.8,0.1-1.4c-0.1-1-0.6-1.6-1.5-1.8
		c-0.6-0.1-0.9-0.1-1.1,0.2c-0.2,0.2-0.4,0.6-0.7,1.1s-0.3,1.1,0.1,1.6C234.7,48.5,235,48.8,235.2,49.1z"/>
	<polygon class="st1" points="213.5,70.7 214.3,71.1 215,70.3 214.3,69.6 213.3,69.7 	"/>
	<path class="st1" d="M194.7,26.1c0.6,0.6,1.1,1,1.5,1.2s1,0.1,1.7-0.3c0.9-0.5,1.5-0.9,1.9-1.3s0.5-1.1,0.3-2.1
		c-0.1-1-0.5-1.5-1.1-1.5s-1.4-0.2-2.4-0.3c-0.9-0.1-1.7-0.2-2.3-0.3s-1.1,0.3-1.5,1.2c-0.5,0.9-0.5,1.5-0.1,1.9
		C193.4,24.9,194,25.5,194.7,26.1z"/>
	<path class="st1" d="M232.7,29.4c0.1-0.2,0.1-0.5,0.2-1c0.1-0.4,0.1-0.7,0-1s-0.3-0.5-0.6-0.7c-0.6-0.2-1.1-0.4-1.4-0.5
		s-0.7,0-1.1,0.5c-0.4,0.5-0.6,0.9-0.5,1.2c0.1,0.3,0.3,0.7,0.6,1.3c0.2,0.5,0.5,0.7,0.8,0.8s0.7,0,1.2,0
		C232.4,29.8,232.6,29.6,232.7,29.4z"/>
	<polygon class="st1" points="233,36.9 232.6,36.2 231.8,36.6 231.9,37.6 232.8,37.9 	"/>
	<path class="st1" d="M227.8,36.4c-0.8-0.3-1.4-0.2-1.8,0c-0.4,0.3-0.8,0.8-1.4,1.5c-0.5,0.7-0.9,1.2-1.1,1.6s-0.1,1,0.4,1.7
		c0.5,0.8,0.9,1.2,1.4,1.3s1.2,0,2-0.2c0.9-0.3,1.7-0.5,2.2-0.8c0.5-0.2,0.8-0.9,0.9-1.9c0.1-1.1-0.1-1.8-0.5-2.2
		C229.5,37.2,228.8,36.8,227.8,36.4z"/>
	<path class="st1" d="M229.6,67.5c-0.5-0.4-1-0.6-1.3-0.5s-0.8,0.3-1.3,0.6c-0.5,0.3-0.9,0.7-0.9,1c-0.1,0.3,0,0.8,0.2,1.4
		c0.2,0.9,0.8,1.4,1.7,1.4s1.6-0.3,1.9-1.2c0.2-0.6,0.3-1.1,0.4-1.5C230.4,68.3,230.2,68,229.6,67.5z"/>
	<path class="st1" d="M237.8,59.5c-0.9-0.3-1.7-0.4-2.1-0.1c-0.5,0.3-1,0.8-1.6,1.6s-1,1.5-1.1,2s0.1,1.2,0.8,2
		c0.5,0.8,1.1,1.2,1.6,1.1s1.3-0.2,2.2-0.5c0.7-0.3,1.1-0.6,1.1-1c0.1-0.4,0.1-1,0.1-1.7c0-0.9,0.1-1.6,0.1-2.2
		C239.1,60.2,238.7,59.8,237.8,59.5z"/>
	<polygon class="st1" points="200.2,70.4 200.3,71.1 201,71.3 200.8,70.2 	"/>
	<path class="st1" d="M224.7,53.3c-0.9-0.4-1.7-0.2-2.4,0.5c-0.7,0.8-0.8,1.5-0.2,2.3c0.3,0.5,0.6,0.8,0.9,0.9s0.7,0.1,1.3,0
		c0.5-0.1,0.9-0.3,1-0.6s0.2-0.7,0.3-1.2s0.1-1-0.1-1.2C225.5,53.7,225.2,53.5,224.7,53.3z"/>
	<path class="st1" d="M233.9,54.6c0.6-0.3,0.9-0.8,0.8-1.2c-0.1-0.4-0.1-0.7-0.2-0.9c-0.1-0.2-0.4-0.3-0.8-0.4c-0.5-0.1-0.8,0-1,0.1
		s-0.3,0.4-0.5,0.8c-0.2,0.3-0.3,0.6-0.4,0.9c0,0.2,0.1,0.5,0.4,0.8c0.3,0.3,0.5,0.5,0.8,0.4C233.3,54.8,233.6,54.7,233.9,54.6z"/>
	<polygon class="st1" points="223.2,75.4 222.5,76.4 223.8,76.6 224.7,76.1 224.2,74.9 	"/>
	<path class="st1" d="M215.2,75.9c-0.4-0.4-1.3-0.7-2.5-0.9c-1.2-0.1-2,0-2.6,0.3c-0.5,0.3-1.1,1.1-1.6,2.1c-0.5,1.1-0.7,2-0.6,2.6
		c0.1,0.7,0.6,1.3,1.6,2.1c0.9,0.8,1.6,1.3,2.3,1.3c0.6,0.1,1.5-0.2,2.5-0.8c1-0.6,1.6-1.2,1.9-1.8s0.2-1.4-0.1-2.6
		C216,77.1,215.6,76.3,215.2,75.9z"/>
	<path class="st1" d="M223.2,68.3c0-0.9-0.4-1.4-1.1-1.6c-0.4-0.1-0.7-0.1-0.8,0.2c-0.1,0.2-0.3,0.5-0.6,0.9
		c-0.3,0.3-0.5,0.6-0.7,0.8s-0.2,0.5,0,0.9c0.3,0.3,0.6,0.5,0.9,0.5c0.2,0,0.6-0.2,1.1-0.4c0.4-0.1,0.7-0.3,0.9-0.4
		C223.1,68.9,223.2,68.7,223.2,68.3z"/>
	<polygon class="st1" points="209,72.4 209.8,73 210.4,72.2 210.2,71.4 208.9,71.2 	"/>
	<polygon class="st1" points="223.6,63.2 223.4,61.9 222.4,60.9 221.5,62.2 222.3,63.2 	"/>
	<path class="st1" d="M206.8,71.1c-0.3-0.1-0.8-0.2-1.2-0.3c-0.6-0.1-1.1,0-1.4,0.5c-0.3,0.4-0.5,0.8-0.7,1s-0.1,0.6,0.1,1
		c0.3,0.4,0.7,0.6,1,0.5s0.7-0.2,1.2-0.5c0.5-0.2,0.9-0.4,1.1-0.5c0.3-0.1,0.4-0.4,0.4-1C207.3,71.5,207.1,71.2,206.8,71.1z"/>
	<path class="st2" d="M243.8,40.8c-0.2-6-1.8-11-4.6-15.2s-6.9-7.3-11.9-9.5s-10.9-3.3-17.5-3.3c-6.7,0-12.5,1.1-17.5,3.3
		s-9,5.3-11.8,9.5c-2.9,4.1-4.4,9.2-4.7,15.2c-0.2,6.1-0.2,12.1,0,18c0.3,6.1,1.8,11.1,4.7,15.2c2.9,4.1,6.8,7.2,11.8,9.2
		s10.8,3.1,17.5,3.1s12.5-1,17.5-3.1s8.9-5.1,11.8-9.2c2.9-4.1,4.5-9.2,4.7-15.3C244,52.9,244,46.9,243.8,40.8z M234.2,46.4
		c0.3-0.5,0.5-0.8,0.7-1.1c0.2-0.2,0.5-0.3,1.1-0.2c0.9,0.2,1.5,0.8,1.5,1.8c0.1,0.6,0,1.1-0.1,1.4c-0.1,0.3-0.5,0.6-1.1,0.8
		c-0.5,0.3-0.8,0.2-1,0c-0.2-0.3-0.5-0.7-0.9-1.1C233.9,47.5,233.9,47,234.2,46.4z M224.7,20.9c0.2-0.2,0.4-0.4,0.8-0.7
		c0.4-0.3,0.9-0.3,1.5,0c0.3,0.3,0.4,0.7,0.3,1.3c-0.1,0.3-0.2,0.6-0.3,0.8c-0.1,0.2-0.3,0.3-0.6,0.3c-0.5,0-0.8,0-1.1,0
		c-0.2,0-0.5-0.3-0.7-0.8C224.5,21.4,224.5,21.1,224.7,20.9z M226.2,25.2l-0.1,1.1l-1,0.2l-0.3-0.8l0.4-0.9L226.2,25.2z M224.4,29.7
		l0.6,0.7l-0.6,0.7l-0.8-0.3l-0.1-0.9L224.4,29.7z M222.6,45.3c0.5-0.7,1.2-0.8,2-0.5c0.4,0.1,0.6,0.3,0.6,0.6s0,0.6,0,1
		s0,0.7-0.1,1c-0.1,0.2-0.3,0.4-0.7,0.5c-0.5,0.1-0.9,0.2-1.1,0.2c-0.3,0-0.6-0.2-0.8-0.6C222,46.7,222,46,222.6,45.3z M208.8,19
		c0.9-1.2,1.8-1.5,2.6-1s1.9,1,3.4,1.6c0.9,0.4,1.6,0.9,1.8,1.3c0.3,0.5,0.4,1.3,0.3,2.4c-0.1,1.2-0.3,2.2-0.5,2.8
		c-0.2,0.6-0.9,1.1-2.1,1.4c-1.2,0.3-2.1,0.2-2.6-0.2c-0.5-0.4-1.1-1.2-1.7-2.3c-0.8-1.3-1.4-2.3-2-3.1
		C207.6,21.1,207.8,20.2,208.8,19z M215,70.3l-0.6,0.8l-0.8-0.4l-0.2-1l1-0.1L215,70.3z M204,40c0.1-1.2,0.4-2.1,0.9-2.5
		s1.2-0.8,2.4-1c1.2-0.3,2-0.3,2.6,0s1.2,0.9,1.8,1.9s0.9,1.8,0.8,2.5c-0.1,0.7-0.5,1.4-1.3,2.3c-0.8,1-1.4,1.5-2.1,1.6
		c-0.6,0.1-1.5-0.1-2.6-0.6s-1.8-1.1-2.1-1.6C203.9,42,203.8,41.1,204,40z M193,22.7c0.4-0.9,0.9-1.3,1.5-1.2s1.3,0.2,2.3,0.3
		c0.9,0.1,1.7,0.2,2.4,0.3c0.6,0.1,1,0.6,1.1,1.5c0.2,1,0.1,1.7-0.3,2.1s-1.1,0.9-1.9,1.3c-0.8,0.4-1.3,0.5-1.7,0.3
		s-0.9-0.6-1.5-1.2c-0.8-0.7-1.3-1.2-1.8-1.6C192.5,24.2,192.5,23.6,193,22.7z M193.3,44.5c0.9,0,1.6,0,2,0.1s0.8,0.5,1.1,1.3
		c0.2,0.8,0.1,1.3-0.3,1.5s-0.9,0.6-1.6,1c-0.5,0.4-1,0.7-1.3,0.8s-0.8,0-1.3-0.4s-0.8-0.8-0.7-1.2s0.2-0.9,0.5-1.5
		c0.2-0.6,0.4-1,0.6-1.3C192.3,44.6,192.7,44.5,193.3,44.5z M192.6,38.5c0.3-0.4,0.5-0.5,0.8-0.4c0.3,0.2,0.6,0.3,1.1,0.4
		c0.6,0.2,0.9,0.5,0.9,0.9c0,0.5,0,0.8,0.1,1.1s-0.2,0.5-0.7,0.7c-0.4,0.1-0.7,0.1-0.9,0c-0.2-0.2-0.5-0.4-0.8-0.8
		c-0.3-0.4-0.6-0.7-0.7-1C192.3,39.2,192.3,38.9,192.6,38.5z M184.3,69.5c-0.3,0.4-0.5,0.6-0.8,0.6s-0.7-0.1-1.1-0.2
		c-0.4-0.1-0.7-0.2-0.8-0.4s-0.2-0.5-0.2-0.9c0-0.3,0.1-0.6,0.3-0.7c0.2-0.1,0.4-0.2,0.7-0.4c0.5-0.2,1-0.1,1.3,0.2
		c0.3,0.3,0.5,0.6,0.7,0.8C184.5,68.8,184.5,69.1,184.3,69.5z M186.7,57.2c-0.1,0.4-0.4,1-0.9,1.6s-0.9,1.1-1.3,1.4
		c-0.4,0.2-1,0.2-1.8,0c-0.8-0.3-1.3-0.6-1.4-1.1c-0.1-0.5-0.2-1.1-0.2-1.9c0-0.7,0.2-1.1,0.5-1.2c0.3-0.1,0.8-0.3,1.4-0.5
		c0.8-0.2,1.3-0.4,1.7-0.6c0.4-0.2,0.8,0,1.2,0.6C186.6,56.3,186.8,56.8,186.7,57.2z M187.2,41.3c-0.5,0.3-1.1,0.4-1.5,0.1
		c-0.5-0.4-0.6-0.9-0.4-1.5c0.1-0.3,0.2-0.5,0.4-0.6c0.2,0,0.5,0,0.8,0c0.5,0,0.9,0.2,1,0.7C187.7,40.6,187.6,41,187.2,41.3z
		 M188.3,29.4c0.2-0.5,0.4-0.9,0.7-0.9s0.7-0.1,1.3-0.1c0.5,0,1,0,1.3,0.1s0.5,0.4,0.7,1c0.2,0.8,0.3,1.3,0.4,1.7
		c0.1,0.4-0.2,0.8-0.8,1.2c-0.6,0.4-1.1,0.5-1.4,0.2c-0.3-0.3-0.7-0.7-1.3-1.2c-0.5-0.3-0.8-0.6-1-0.9
		C188.1,30.3,188.1,29.9,188.3,29.4z M189.4,62.7l-0.8,0.4l-0.3-0.8l0.2-0.7l0.7,0.4L189.4,62.7z M195,75.9
		c-0.1,0.9-0.4,1.6-0.8,1.9c-0.4,0.3-1,0.6-2,0.8c-0.9,0.1-1.5,0.1-1.9-0.2s-0.8-0.8-1.2-1.6c-0.5-0.9-0.8-1.6-0.8-2.1
		c-0.1-0.5,0.2-1.1,0.9-1.8c0.7-0.8,1.3-1.1,1.8-1s1.2,0.3,2.1,0.7c0.8,0.4,1.4,0.8,1.7,1.2C195,74.4,195.1,75,195,75.9z
		 M195.5,68.3c-0.3,0.3-0.6,0.6-0.7,0.9c-0.1,0.2-0.4,0.3-0.8,0.2c-0.6-0.2-0.9-0.4-1.1-0.7c-0.2-0.2-0.3-0.6-0.3-1.2
		c0-0.5,0.2-0.8,0.5-0.8s0.8-0.2,1.2-0.3c0.6-0.1,1.1,0,1.4,0.5C195.9,67.2,195.9,67.7,195.5,68.3z M195.4,62.4
		c-0.3-0.3-0.5-0.5-0.6-0.8c0-0.3,0.1-0.6,0.2-1c0.3-0.8,0.8-1.1,1.5-1c0.5,0,1,0,1.3,0.1s0.5,0.4,0.7,0.9c0.1,0.5,0.1,0.8-0.2,1
		s-0.6,0.4-1,0.8c-0.4,0.2-0.7,0.4-1,0.5C196.1,62.9,195.8,62.8,195.4,62.4z M198.9,81.9c-0.7,0.3-1.3,0.1-1.7-0.5
		c-0.5-0.6-0.5-1.2-0.1-1.8c0.2-0.3,0.4-0.5,0.7-0.6s0.6,0,1.1,0.1c0.4,0.1,0.7,0.3,0.9,0.5s0.3,0.5,0.3,0.9
		C200.1,81.1,199.7,81.7,198.9,81.9z M200.3,71.1l-0.1-0.7l0.6-0.2l0.2,1.1L200.3,71.1z M203.1,63.7c0.5-0.8,1-1.9,1.6-3.4
		c0.4-1,0.9-1.6,1.3-1.8c0.5-0.3,1.3-0.4,2.4-0.3c1.2,0.1,2.2,0.3,2.8,0.5s1.1,0.9,1.4,2.1s0.2,2.1-0.2,2.5
		c-0.4,0.5-1.2,1.1-2.3,1.7c-1.3,0.8-2.3,1.4-3.1,2s-1.7,0.4-2.9-0.7C202.9,65.4,202.6,64.5,203.1,63.7z M210.4,72.2l-0.5,0.7
		l-0.8-0.5l-0.1-1.2l1.2,0.2L210.4,72.2z M206.9,72.9c-0.3,0.1-0.6,0.2-1.1,0.5c-0.5,0.2-0.9,0.4-1.2,0.5s-0.6-0.1-1-0.5
		c-0.3-0.4-0.3-0.8-0.1-1c0.2-0.3,0.4-0.6,0.7-1c0.3-0.5,0.8-0.7,1.4-0.5c0.5,0.1,0.9,0.2,1.2,0.3s0.5,0.3,0.5,0.8
		C207.3,72.5,207.2,72.8,206.9,72.9z M216.2,80.9c-0.2,0.6-0.9,1.2-1.9,1.8c-1,0.6-1.9,0.9-2.5,0.8s-1.4-0.5-2.3-1.3
		c-0.9-0.8-1.5-1.4-1.6-2.1s0.1-1.5,0.6-2.6s1.1-1.8,1.6-2.1c0.5-0.3,1.4-0.4,2.6-0.3c1.2,0.1,2.1,0.4,2.5,0.9s0.8,1.2,1,2.4
		C216.4,79.4,216.5,80.3,216.2,80.9z M218.2,50.3c0,0.3-0.3,0.6-0.8,0.8c-0.5,0.3-1,0.5-1.3,0.6s-0.7-0.1-1.2-0.5s-0.6-0.8-0.5-1.1
		s0.3-0.8,0.5-1.4c0.2-0.3,0.4-0.5,0.7-0.6c0.2-0.1,0.6-0.1,1,0c0.5,0.1,0.8,0.1,1,0.2c0.2,0.1,0.4,0.3,0.5,0.8
		C218.3,49.6,218.3,50,218.2,50.3z M220.9,69.8c-0.2,0-0.5-0.1-0.9-0.5c-0.2-0.4-0.2-0.7,0-0.9s0.4-0.5,0.7-0.8s0.5-0.6,0.6-0.9
		c0.1-0.2,0.4-0.3,0.8-0.2c0.8,0.2,1.1,0.8,1.1,1.6c0,0.4-0.1,0.7-0.3,0.8c-0.2,0.1-0.5,0.3-0.9,0.4
		C221.5,69.7,221.2,69.8,220.9,69.8z M221.5,62.2l0.9-1.3l1,1l0.2,1.2h-1.3L221.5,62.2z M223.8,76.6l-1.3-0.2l0.7-1l1-0.5l0.5,1.2
		L223.8,76.6z M225.7,55.2c-0.1,0.5-0.2,1-0.3,1.2s-0.5,0.5-1,0.6c-0.6,0.1-1,0.1-1.3,0s-0.6-0.4-0.9-0.9c-0.6-0.8-0.5-1.6,0.2-2.3
		c0.6-0.8,1.4-0.9,2.4-0.5c0.5,0.2,0.8,0.4,0.9,0.7C225.7,54.3,225.7,54.7,225.7,55.2z M229.9,70.2c-0.3,0.9-1,1.3-1.9,1.2
		s-1.5-0.5-1.7-1.4c-0.2-0.6-0.3-1.1-0.2-1.4s0.4-0.6,0.9-1c0.5-0.3,1-0.5,1.3-0.6s0.8,0.1,1.3,0.5s0.8,0.8,0.7,1.2
		C230.3,69.1,230.2,69.6,229.9,70.2z M230.5,39.8c-0.1,1-0.4,1.7-0.9,1.9s-1.2,0.5-2.2,0.8c-0.9,0.2-1.6,0.2-2,0.2s-0.9-0.5-1.4-1.3
		s-0.6-1.3-0.4-1.7c0.2-0.4,0.6-1,1.1-1.6s1-1.2,1.4-1.5s1-0.3,1.8,0c1,0.4,1.7,0.8,2.1,1.2C230.4,38,230.5,38.7,230.5,39.8z
		 M230.7,30c-0.3,0-0.6-0.3-0.8-0.8c-0.3-0.5-0.5-1-0.6-1.3s0.1-0.7,0.5-1.2s0.8-0.6,1.1-0.5s0.8,0.3,1.4,0.5
		c0.3,0.2,0.5,0.4,0.6,0.7c0.1,0.2,0.1,0.6,0,1c-0.1,0.5-0.1,0.8-0.2,1c-0.1,0.2-0.3,0.4-0.8,0.5C231.4,30,231,30,230.7,30z
		 M231.8,36.6l0.8-0.4l0.4,0.7l-0.2,0.9l-0.9-0.3L231.8,36.6z M232.3,54.6c-0.3-0.3-0.4-0.5-0.4-0.8c0-0.2,0.1-0.5,0.4-0.9
		c0.1-0.4,0.3-0.7,0.5-0.8s0.5-0.2,1-0.1c0.4,0.1,0.7,0.2,0.8,0.4s0.2,0.5,0.2,0.9c0.1,0.5-0.2,0.9-0.8,1.2
		c-0.3,0.1-0.6,0.3-0.9,0.4C232.8,55.1,232.6,54.9,232.3,54.6z M238.8,63c0,0.8,0,1.3-0.1,1.7c-0.1,0.4-0.4,0.8-1.1,1
		c-0.9,0.3-1.7,0.4-2.2,0.5s-1.1-0.3-1.6-1.1c-0.6-0.8-0.9-1.5-0.8-2c0.1-0.5,0.5-1.2,1.1-2s1.2-1.4,1.6-1.6
		c0.5-0.3,1.2-0.2,2.1,0.1c0.9,0.3,1.3,0.7,1.2,1.3C238.9,61.3,238.8,62.1,238.8,63z"/>
</g>
<g>
	<path class="st0" d="M36.5,199.4c-1.4,0-2.4-0.4-3.3-1.3c-0.8-0.8-1.3-1.7-1.4-2.6l-9.4-65v-0.3c0-0.6,0.2-1.1,0.7-1.6
		c0.4-0.4,1-0.7,1.6-0.7h19c2.2,0,3.5,0.9,3.7,2.8l3.5,28.8l4.2-12.8c0.1-0.5,0.4-1.1,0.9-1.8c0.5-0.7,1.3-1.1,2.6-1.1h10.4
		c1.2,0,2.1,0.4,2.6,1.1c0.5,0.7,0.8,1.4,0.9,1.8l4.2,12.6l3.5-28.7c0.2-1.8,1.4-2.8,3.7-2.8h19c0.6,0,1.1,0.2,1.6,0.7
		c0.4,0.4,0.7,1,0.7,1.6v0.3l-9.4,65c-0.1,0.9-0.5,1.8-1.4,2.6c-0.9,0.9-2,1.3-3.3,1.3H76.2c-1.4,0-2.4-0.4-3-1.1
		c-0.6-0.7-1-1.3-1.2-1.7l-8.4-20.9l-8.4,20.9c-0.1,0.4-0.5,1-1.2,1.7c-0.6,0.7-1.6,1.1-3,1.1H36.5z M35.2,139.4
		c-0.1-1.2-0.3-2.1-0.8-2.6c-0.4-0.5-1.2-0.9-2.4-1.2c-1.2-0.3-2-0.3-2.6,0.1c-0.5,0.3-1.1,1-1.7,2c-0.7,1.1-1.2,2-1.5,2.7
		c-0.2,0.7,0.1,1.5,0.9,2.5s1.5,1.2,2.2,0.7c0.6-0.5,1.5-1,2.6-1.5c1-0.4,1.8-0.7,2.4-0.9C35,141.1,35.3,140.5,35.2,139.4z
		 M37.4,161.7c-0.8-0.7-1.5-1.1-2.1-1.1c-0.6,0-1.3,0.3-2.3,0.9c-0.8,0.4-1.2,0.9-1.2,1.4s0.1,1.2,0.2,2.2c0.2,0.8,0.4,1.4,0.6,1.9
		c0.2,0.4,0.7,0.7,1.6,0.9c1,0.1,1.7,0.1,2.2-0.1c0.5-0.2,1-0.7,1.4-1.6c0.5-1,0.8-1.8,0.8-2.4C38.7,163.1,38.3,162.4,37.4,161.7z
		 M38.8,146.1c-1.4-0.4-2.4-0.6-3.2-0.5c-0.7,0.1-1.5,0.7-2.3,1.8c-0.8,1-1,1.9-0.6,2.5c0.4,0.6,1,1.5,1.8,2.6
		c0.7,1,1.4,1.8,1.8,2.4c0.5,0.6,1.3,0.7,2.6,0.3c1.4-0.5,2.4-1,2.9-1.7c0.5-0.6,0.7-1.7,0.7-3.2c0-1.4-0.3-2.4-0.9-2.9
		C41,147,40.1,146.5,38.8,146.1z M46.9,181c-0.9-0.8-1.6-1.3-2.2-1.3c-0.6-0.1-1.4,0.2-2.4,0.8c-1.1,0.5-1.8,1.1-2,1.6
		c-0.3,0.5-0.3,1.4-0.1,2.5c0.1,1,0.5,1.6,1.1,1.8c0.6,0.2,1.4,0.3,2.4,0.5c0.9,0.1,1.5,0,1.9-0.2c0.4-0.2,0.8-0.7,1.2-1.4
		c0.5-1,0.8-1.7,1-2.3C47.9,182.4,47.7,181.7,46.9,181z M43.1,195.1l-1-1.2l-1.4,0.6l0.5,1.2l1.1,0.8L43.1,195.1z M44.2,160.7
		c-1,0-1.6,0.2-1.8,0.7c-0.3,0.4-0.5,1.1-0.8,2.1c-0.3,0.7-0.3,1.2,0,1.5c0.3,0.3,0.7,0.7,1.2,1.2c0.5,0.3,0.9,0.5,1.2,0.5
		c0.3,0,0.7-0.2,1.2-0.5c0.6-0.4,1.1-0.7,1.4-1c0.3-0.3,0.4-0.7,0.2-1.4c-0.3-1-0.5-1.7-0.8-2.1C45.7,161,45.1,160.7,44.2,160.7z
		 M45.3,155.9l-0.6-0.2l-0.5,0.5l0.5,0.6l0.8-0.2L45.3,155.9z M49,193.5c-0.3-0.3-0.5-0.5-0.8-0.4c-0.3,0.1-0.6,0.3-1.1,0.5
		c-0.4,0.1-0.6,0.5-0.6,1.1c0,0.5,0,0.9-0.1,1.2c-0.1,0.3,0.1,0.5,0.6,0.7c0.5,0.1,0.8,0.1,1-0.2c0.2-0.2,0.4-0.6,0.7-1
		c0.3-0.4,0.5-0.7,0.6-1C49.3,194.2,49.2,193.9,49,193.5z M54.2,169.9c-0.6-0.3-1.1-0.4-1.4-0.1c-0.3,0.3-0.7,0.7-1.3,1.2
		c-0.5,0.5-1,0.8-1.3,1.1c-0.3,0.2-0.4,0.7-0.1,1.3c0.3,0.7,0.7,1.3,1,1.5c0.3,0.3,0.9,0.4,1.7,0.3c0.9-0.1,1.5-0.2,1.9-0.5
		c0.4-0.2,0.7-0.8,0.9-1.7c0.2-0.8,0.2-1.4,0-1.8C55.4,170.9,54.9,170.4,54.2,169.9z M54.3,192.6l-0.9-0.5l-0.9,0.3l0.2,1.3l1.2-0.1
		L54.3,192.6z M59.1,159.4c-0.1-0.4-0.3-0.7-0.5-0.9c-0.2-0.2-0.5-0.3-0.9-0.3c-0.5,0-0.8,0.1-0.9,0.3c-0.1,0.2-0.3,0.5-0.4,0.9
		c-0.2,0.5,0,1,0.5,1.4c0.3,0.2,0.6,0.4,0.8,0.6c0.2,0.2,0.5,0.1,0.8-0.2c0.3-0.2,0.5-0.4,0.6-0.7C59.2,160.3,59.1,159.9,59.1,159.4
		z M58.8,152.4c-0.5-0.1-0.9,0-1.1,0.4c-0.2,0.3-0.3,0.5-0.4,0.7c-0.1,0.2,0,0.4,0.2,0.7c0.3,0.5,0.8,0.6,1.4,0.4
		c0.6-0.2,0.9-0.6,0.9-1.2c0-0.3-0.1-0.6-0.3-0.7C59.4,152.7,59.1,152.5,58.8,152.4z M59.6,176.4l-1-0.5l-0.8,0.8l0.6,1l1.3-0.1
		L59.6,176.4z M60.3,166l-0.9-0.1l-0.6,0.9l1,0.4l0.8-0.3L60.3,166z M71.8,164.3c-0.5-0.8-1.1-1.1-1.6-0.8c-0.5,0.3-1.3,0.5-2.2,0.8
		c-0.8,0.2-1.5,0.4-1.9,0.5c-0.5,0.1-0.7,0.6-0.8,1.4c-0.1,1.1,0,1.9,0.2,2.4c0.2,0.5,0.8,1,1.7,1.3c1.1,0.5,1.9,0.7,2.5,0.6
		c0.6-0.1,1.3-0.6,2-1.6c0.7-0.9,1.1-1.6,1.1-2.2C72.8,166.2,72.4,165.4,71.8,164.3z M67,147.7l-0.5,0.2l-0.1,0.7l0.7,0.1l0.6-0.6
		L67,147.7z M80.1,173.7c-0.7-0.7-1.3-1-1.8-0.8c-0.5,0.2-1.3,0.6-2.3,1c-1,0.3-1.9,0.6-2.5,0.7c-0.7,0.1-1,0.7-0.9,1.8
		c0.1,1.2,0.3,2,0.8,2.4c0.5,0.4,1.3,0.8,2.5,1.2c1,0.3,1.8,0.2,2.2-0.1c0.5-0.3,1-1,1.5-1.8c0.6-0.9,1-1.6,1.2-2.2
		C81,175.3,80.8,174.6,80.1,173.7z M80.7,185.1c-0.7-0.1-1.1,0.1-1.3,0.5c-0.2,0.4-0.5,0.9-0.8,1.5c-0.4,0.8-0.8,1.4-1.2,1.9
		c-0.4,0.4-0.3,1,0.4,1.6c0.7,0.7,1.3,1,1.8,0.9c0.5-0.1,1.2-0.4,2.1-0.8c0.8-0.4,1.3-0.8,1.6-1.2c0.2-0.4,0.3-1.1,0.2-1.9
		c-0.1-0.8-0.4-1.4-0.8-1.7C82.2,185.5,81.6,185.3,80.7,185.1z M81.7,162.1c-0.7-0.3-1.2-0.5-1.6-0.6c-0.4-0.1-0.9,0.2-1.4,0.8
		c-0.5,0.5-0.8,1-0.7,1.4c0.1,0.4,0.4,0.9,0.8,1.6c0.4,0.8,0.7,1.5,0.9,2s0.7,0.7,1.6,0.5c1-0.1,1.7-0.4,2-0.9
		c0.3-0.4,0.6-1.1,0.7-2.1c0.1-0.9-0.1-1.4-0.5-1.7C83.1,162.8,82.5,162.5,81.7,162.1z M83,154.2l-1.2,0.4v1.1l1.1,0.5l0.3-1
		L83,154.2z M85,138.4c-0.3-0.3-0.5-0.5-0.7-0.4c-0.2,0.1-0.5,0.2-0.9,0.3c-0.3,0.1-0.6,0.3-0.8,0.5c-0.2,0.2-0.3,0.5-0.2,0.9
		c0.1,0.4,0.2,0.6,0.4,0.7c0.2,0.1,0.5,0.2,0.9,0.3c0.5,0.1,0.9-0.2,1.2-0.7c0.1-0.3,0.3-0.6,0.4-0.8
		C85.3,138.9,85.2,138.7,85,138.4z M88.7,137.5l-0.9-0.6l-0.9,0.7l0.6,0.7l0.9,0.3L88.7,137.5z M89.7,174.2
		c-0.3-0.6-0.9-0.9-1.6-0.8c-0.5,0.1-0.9,0.5-1,1.2c-0.1,0.5,0.1,1,0.6,1.2c0.4,0.3,0.7,0.5,1,0.6c0.2,0.1,0.5,0,0.9-0.3
		c0.4-0.3,0.6-0.6,0.6-0.9C90,175,89.9,174.6,89.7,174.2z M89.9,143.1c-0.6-0.1-1-0.1-1.3,0.1c-0.2,0.2-0.5,0.5-0.8,1.1
		c-0.3,0.5-0.5,0.9-0.6,1.2c0,0.3,0.2,0.7,0.6,1.1c0.4,0.5,0.8,0.8,1.1,0.9c0.3,0.1,0.8,0.1,1.4-0.2c0.5-0.2,0.9-0.5,1-0.8
		c0.1-0.3,0.2-0.8,0.1-1.4c-0.1-0.6-0.2-1-0.4-1.3C90.9,143.4,90.5,143.3,89.9,143.1z M90.6,164.8l-1-0.7l-0.7,1l0.6,0.7l1,0.1
		L90.6,164.8z M91.4,133.1c-0.3-0.4-0.5-0.7-0.7-0.9c-0.2-0.2-0.5-0.2-1-0.1c-0.5,0.1-0.7,0.3-0.7,0.6c0,0.3,0.1,0.7,0.1,1.2
		c0,0.5,0,0.9-0.1,1.1c-0.1,0.3,0.1,0.5,0.6,0.7c0.4,0.1,0.7,0.1,0.8-0.2c0.1-0.2,0.4-0.5,0.7-0.9c0.2-0.3,0.4-0.5,0.5-0.7
		C91.7,133.7,91.6,133.5,91.4,133.1z M96.4,155.5c-0.5-0.7-1.1-1-1.6-0.8c-0.5,0.2-1.2,0.5-2.1,0.8c-1,0.3-1.7,0.4-2.3,0.4
		c-0.6,0-1,0.5-1,1.5c-0.1,1.2,0.1,2,0.5,2.5c0.4,0.5,1.1,1,2.2,1.4c1,0.3,1.6,0.3,1.9-0.2c0.3-0.5,0.8-1.1,1.4-1.9
		c0.6-0.7,1.1-1.4,1.4-1.8C97.1,156.8,96.9,156.2,96.4,155.5z M95.5,145.4h-1.3l0.1,1.2l0.8,0.7l1-0.8L95.5,145.4z"/>
	<path class="st0" d="M127,200.4c-3.9,0-7.3-0.7-10.3-2.1c-3-1.4-5.3-3.4-7-5.8c-1.7-2.4-2.5-5.2-2.5-8.3c0-5,2-8.9,6.1-11.7
		c4-2.8,9.5-4.8,16.3-6l10.8-1.8c0-1.8-0.2-3.1-0.5-3.9c-0.3-0.8-1.2-1.2-2.6-1.2c-1,0-1.7,0.2-2.3,0.6c-0.6,0.4-1.2,0.9-1.9,1.6
		c-0.7,0.7-1.7,1.1-2.9,1.1h-17.3c-0.7,0-1.2-0.2-1.7-0.6c-0.4-0.4-0.6-1-0.6-1.6c0.1-1.3,0.6-2.8,1.6-4.5c1-1.7,2.6-3.4,4.7-5
		c2.1-1.6,4.9-3,8.3-4.1c3.4-1.1,7.4-1.6,12.2-1.6c9.2,0,16.1,1.9,20.6,5.8c4.5,3.8,6.7,9.3,6.7,16.3v29.3c0,0.7-0.3,1.4-0.8,1.9
		c-0.5,0.5-1.2,0.8-1.9,0.8h-17.9c-0.7,0-1.4-0.3-1.9-0.8c-0.5-0.5-0.8-1.2-0.8-1.9v-2.9c-1.5,2-3.5,3.7-6,4.8
		C133,199.8,130.2,200.4,127,200.4z M115.6,181.6c-1.2-0.3-2-0.3-2.7-0.1c-0.6,0.2-1.2,0.8-1.8,1.8c-0.5,0.9-0.5,1.5,0.1,1.9
		c0.6,0.4,1.2,1,1.9,1.7c0.5,0.5,0.9,0.9,1.3,1.1c0.4,0.2,0.9,0.1,1.6-0.2c1-0.5,1.9-0.8,2.5-1c0.6-0.2,0.9-0.8,0.9-2
		c-0.1-1.2-0.5-2-1-2.4C117.7,182.2,116.8,181.8,115.6,181.6z M115.4,175c-0.5,0-0.8,0-1,0.1c-0.2,0.1-0.4,0.3-0.6,0.7
		c-0.2,0.5-0.4,1-0.5,1.4c-0.1,0.4,0,0.7,0.5,1.1c0.5,0.5,1,0.8,1.4,0.8c0.4,0.1,0.9-0.1,1.5-0.5c0.6-0.3,0.9-0.7,0.9-1.1
		c0-0.4-0.1-0.9-0.3-1.6c-0.1-0.5-0.3-0.7-0.6-0.8C116.3,175.2,115.9,175.1,115.4,175z M120.4,153.6c-0.4-0.3-0.7-0.3-1-0.2
		c-0.2,0.1-0.6,0.4-1,0.7c-0.3,0.3-0.6,0.6-0.8,0.8c-0.2,0.2-0.2,0.5-0.1,1c0.2,0.5,0.4,0.8,0.7,1c0.2,0.2,0.6,0.3,1.2,0.2
		c0.5-0.1,0.9-0.2,1.1-0.4c0.2-0.2,0.3-0.6,0.4-1.1c0.1-0.5,0.2-1,0.2-1.2C121.1,154.2,120.8,153.9,120.4,153.6z M120.3,193
		c-0.5-0.2-0.9-0.2-1.1,0.1c-0.2,0.3-0.4,0.6-0.8,1c-0.3,0.3-0.5,0.6-0.6,0.8c-0.1,0.2-0.1,0.5,0.1,0.8c0.3,0.6,0.9,0.9,1.7,0.7
		c0.5-0.1,1-0.3,1.2-0.4c0.3-0.1,0.4-0.4,0.5-1c0.1-0.6,0-1.1-0.1-1.4C121.1,193.5,120.8,193.2,120.3,193z M122.6,170.9
		c-0.5-0.1-0.9-0.1-1.2,0.1c-0.2,0.2-0.5,0.5-0.8,1c-0.3,0.4-0.6,0.8-0.7,1.1c-0.1,0.3,0,0.7,0.4,1.1c0.3,0.4,0.6,0.6,0.9,0.6
		c0.3,0,0.7-0.2,1.2-0.4c0.7-0.3,1.1-0.7,1.1-1.4c0-0.5,0-1-0.1-1.3C123.5,171.2,123.2,171,122.6,170.9z M123,159.3l-1.1-0.9l-1,0.8
		l0.3,1.3l1.1-0.3L123,159.3z M126.4,183.9c-0.3-0.5-0.7-0.6-1-0.5c-0.4,0.1-0.7,0.2-0.9,0.3c-0.2,0.1-0.3,0.4-0.3,0.8
		c0,0.3,0.1,0.5,0.4,0.6c0.2,0,0.5,0.1,0.9,0.3c0.4,0.1,0.7,0,0.9-0.3C126.7,184.6,126.7,184.3,126.4,183.9z M130.1,190.5
		c-0.3-0.7-0.6-1.2-1-1.4c-0.4-0.2-1-0.3-1.8-0.3c-0.7,0-1.1,0.2-1.3,0.5c-0.2,0.3-0.4,0.9-0.6,1.5c-0.2,0.8-0.4,1.4-0.5,1.9
		c-0.1,0.4,0.1,0.9,0.8,1.4c0.6,0.4,1.1,0.4,1.4,0.1c0.3-0.4,0.8-0.8,1.4-1.3c0.6-0.5,1.1-0.8,1.5-1.1
		C130.3,191.7,130.3,191.2,130.1,190.5z M128.2,176.9c-0.7-0.3-1.2-0.2-1.6,0.2c-0.4,0.4-0.4,1-0.1,1.6c0.3,0.5,0.8,0.8,1.3,0.7
		c0.5-0.1,0.8-0.2,1-0.3s0.3-0.4,0.4-0.9c0.1-0.4,0-0.7-0.2-0.9C128.9,177.3,128.6,177.1,128.2,176.9z M130.2,169.5
		c-0.5-0.5-1.1-0.7-1.8-0.4c-0.5,0.1-0.8,0.3-1,0.5c-0.2,0.2-0.3,0.5-0.3,1c0,0.5,0.1,0.8,0.3,0.9c0.2,0.1,0.5,0.3,1,0.4
		c0.5,0.2,0.9,0.3,1.2,0.4c0.3,0.1,0.6-0.1,0.9-0.6c0.3-0.4,0.5-0.7,0.4-1C130.7,170.4,130.5,170,130.2,169.5z M131.1,149.9
		c-0.6-0.2-1.1-0.4-1.5-0.5c-0.4-0.1-0.7,0.1-1.1,0.6c-0.4,0.6-0.6,1.1-0.5,1.4c0.1,0.3,0.4,0.8,0.8,1.3c0.3,0.5,0.7,0.7,1,0.7
		c0.3,0,0.7-0.2,1.3-0.4c0.7-0.2,1.1-0.7,1.1-1.5C132.2,150.7,131.8,150.2,131.1,149.9z M134,185.3c2,0,3.6-0.6,4.8-1.9
		c1.2-1.3,1.8-3.3,1.8-6l-6,1.3c-1.8,0.4-3,1-3.6,1.6c-0.6,0.7-0.9,1.4-0.9,2.1c0,0.8,0.3,1.4,1,2
		C131.8,185.1,132.7,185.3,134,185.3z M134.3,193.5l-1.1-0.8l-0.8,0.7l-0.3,1.1l1.3-0.1L134.3,193.5z M135.4,148h-1l-0.5,0.6
		l0.4,0.9l1-0.4L135.4,148z M142.1,153.2c-0.8,0-1.4,0.4-1.6,1.2c-0.1,0.4-0.1,0.7,0,0.9c0.1,0.2,0.4,0.4,0.7,0.7
		c0.5,0.4,1,0.4,1.5,0.1c0.4-0.3,0.5-0.7,0.4-1.4c-0.1-0.4-0.2-0.7-0.3-1C142.7,153.3,142.5,153.2,142.1,153.2z M145.5,187.4
		c-0.2-0.4-0.4-0.6-0.7-0.6c-0.3,0-0.6,0-1.1,0.1c-0.6,0.1-1,0.5-1.1,1.1c-0.1,0.5,0.2,1,0.8,1.3c0.4,0.2,0.8,0.1,1.3-0.3
		c0.3-0.3,0.6-0.6,0.8-0.8C145.7,188.1,145.7,187.8,145.5,187.4z M145.2,161.4l-0.9-1.2l-0.9,1.1l0.1,1l1.1,0.3L145.2,161.4z
		 M145.7,169.6l-0.9,0.1l-0.5,0.6l0.6,0.8l0.8-0.6V169.6z M148.2,150.8c-0.3-0.6-0.8-0.9-1.5-0.8c-0.7,0.1-1.2,0.4-1.3,1.1
		c-0.1,0.5-0.1,0.9-0.1,1.1s0.2,0.5,0.6,0.8c0.5,0.2,0.8,0.3,1.1,0.2c0.2-0.1,0.6-0.3,1-0.6C148.5,152.1,148.6,151.5,148.2,150.8z
		 M148.9,195.7l-0.6-1l-1,1l0.6,1.1l0.9-0.5L148.9,195.7z M149.4,168.3l-0.7-0.7l-0.9,0.9l0.7,1.1l1.1-0.4L149.4,168.3z M159.3,175
		c-0.4-1.4-1-2.3-1.8-2.5c-0.8-0.2-1.9-0.4-3.4-0.5c-1.5-0.1-2.6,0-3.4,0.3c-0.7,0.2-1.4,1-1.8,2.4c-0.6,1.6-1,2.9-1,3.9
		c-0.1,1,0.6,2,2,3c1.3,1,2.3,1.2,3.1,0.6c0.7-0.6,1.8-1.4,3.2-2.3c1.2-0.8,2.2-1.5,2.8-2C159.6,177.4,159.7,176.4,159.3,175z
		 M151.4,189.7c-0.4-0.3-0.8-0.5-1.1-0.6c-0.3,0-0.7,0.1-1.1,0.5c-0.7,0.6-1,1.4-0.6,2.2c0.2,0.5,0.4,0.7,0.7,0.8
		c0.3,0,0.7,0.1,1.2,0.1c0.7-0.1,1.1-0.4,1.3-1.1c0.1-0.5,0.1-0.8,0.1-1.1S151.8,189.9,151.4,189.7z M150.3,184.3l-1-0.7l-0.7,0.8
		l0.2,0.9h1L150.3,184.3z M151.3,159.1c-0.4-0.3-0.7-0.6-1-0.8c-0.2-0.2-0.6-0.1-1.1,0.2c-0.4,0.3-0.6,0.6-0.5,0.9s0.2,0.7,0.4,1.2
		c0.1,0.5,0.2,0.9,0.3,1.2c0.1,0.3,0.3,0.5,0.8,0.5c0.6,0,1.1-0.1,1.3-0.2c0.3-0.1,0.5-0.5,0.8-1c0.1-0.5,0.1-0.9-0.2-1.1
		C152,159.7,151.7,159.5,151.3,159.1z M155.6,157.2l-0.9,0.3l-0.8,0.6l0.9,0.3l0.9-0.1L155.6,157.2z M158.4,188.5
		c-0.1-0.5-0.4-0.9-1-1c-0.3-0.1-0.6-0.1-0.8-0.1s-0.4,0.2-0.6,0.5c-0.4,0.7-0.4,1.3,0.1,1.7c0.3,0.3,0.5,0.3,0.7,0.2
		c0.2-0.1,0.5-0.3,0.8-0.4c0.3-0.1,0.5-0.3,0.6-0.4C158.3,189,158.4,188.8,158.4,188.5z M157.9,195.5l-0.9,0.3l-0.5,0.6l0.7,0.5
		l0.7-0.5V195.5z M160.4,164.8c-0.4-0.4-0.7-0.7-1-0.8c-0.3-0.1-0.6-0.1-1.1,0.2c-0.5,0.3-0.9,0.6-1,0.9c-0.1,0.3-0.1,0.7-0.1,1.3
		c0.1,0.5,0.3,0.9,0.6,1c0.2,0.1,0.6,0.2,1.2,0.3c0.5,0.1,0.8,0.1,1.1,0c0.2-0.1,0.5-0.3,0.7-0.8C161.1,166,161,165.4,160.4,164.8z"
		/>
	<path class="st0" d="M205.9,199.4c-4.9,0-9.3-0.7-13.1-2c-3.8-1.3-6.9-3.6-9.1-6.8c-2.2-3.2-3.3-7.6-3.3-13.2v-13.3h-8.1
		c-0.7,0-1.4-0.3-1.9-0.8c-0.5-0.5-0.8-1.2-0.8-1.9v-12.3c0-0.7,0.3-1.4,0.8-1.9c0.5-0.5,1.2-0.8,1.9-0.8h8.1v-16.6
		c0-0.7,0.3-1.4,0.8-1.9c0.5-0.5,1.2-0.8,1.9-0.8H201c0.7,0,1.4,0.3,1.9,0.8c0.5,0.5,0.8,1.2,0.8,1.9v16.6h12.9
		c0.7,0,1.4,0.3,1.9,0.8c0.5,0.5,0.8,1.2,0.8,1.9v12.3c0,0.8-0.3,1.4-0.8,1.9c-0.5,0.5-1.2,0.8-1.9,0.8h-12.9v11.2
		c0,1.6,0.4,2.8,1.1,3.7c0.7,0.9,1.8,1.4,3.3,1.4h9.3c0.7,0,1.4,0.3,1.9,0.8c0.5,0.5,0.8,1.2,0.8,1.9v13.4c0,0.7-0.3,1.4-0.8,1.9
		c-0.5,0.5-1.2,0.8-1.9,0.8H205.9z M178.6,151.8c-0.1-0.5-0.2-0.8-0.5-0.9c-0.2-0.1-0.6-0.2-1.1-0.3c-0.5,0-0.8,0-1.1,0.1
		c-0.2,0.1-0.5,0.3-0.7,0.8c-0.2,0.5-0.3,0.9-0.3,1.2s0.2,0.6,0.6,1c0.5,0.4,0.9,0.6,1.2,0.7c0.3,0.1,0.7-0.1,1.3-0.4
		c0.5-0.3,0.7-0.7,0.8-1C178.9,152.8,178.8,152.3,178.6,151.8z M177.7,159.8l-1-0.5l-0.3,1.1l0.5,0.6l1-0.2L177.7,159.8z
		 M181.9,155.7c-0.3-0.1-0.5-0.1-0.7-0.2c-0.2,0-0.4,0.1-0.6,0.4c-0.4,0.6-0.4,1.2,0,1.6c0.3,0.3,0.5,0.4,0.7,0.4
		c0.2,0,0.5-0.1,0.8-0.3c0.4-0.1,0.6-0.5,0.6-1.1C182.7,156.1,182.4,155.8,181.9,155.7z M192,145.2c-1.6-0.8-2.9-1.4-3.9-1.9
		c-1-0.4-2.1,0-3.4,1.4c-1.3,1.3-1.7,2.4-1.3,3.4c0.4,1,1.1,2.3,2,3.9c0.8,1.6,1.5,2.7,2.1,3.3c0.6,0.6,1.8,0.8,3.5,0.6
		c1.7-0.3,2.8-0.8,3.3-1.6c0.5-0.8,0.8-2.1,1-3.8c0.3-1.6,0.2-2.7-0.4-3.3C194.4,146.5,193.4,145.8,192,145.2z M187.1,168.6
		c-0.1-0.5-0.3-0.9-0.5-1.1c-0.2-0.2-0.6-0.3-1.1-0.3c-1,0-1.6,0.4-1.8,1.3c-0.2,0.5-0.2,1-0.1,1.2c0.1,0.3,0.4,0.6,0.8,0.9
		c0.7,0.5,1.5,0.5,2.2,0C187.2,170.1,187.3,169.4,187.1,168.6z M185.1,182l-0.9,0.1l-0.5,0.9l1.4-0.2V182z M190.3,162.9
		c-0.1-0.5-0.2-0.9-0.5-1c-0.3-0.1-0.6-0.2-1.1-0.3c-0.7-0.1-1.2-0.2-1.6-0.3s-0.8,0.1-1.1,0.7c-0.3,0.6-0.4,1.1-0.2,1.4
		c0.2,0.3,0.6,0.8,1.1,1.3c0.4,0.4,0.8,0.6,1.1,0.5c0.3-0.1,0.7-0.3,1.2-0.6c0.5-0.2,0.8-0.4,1-0.6
		C190.3,163.8,190.4,163.4,190.3,162.9z M188.5,138.8c-0.1-0.5-0.5-0.8-1.1-0.9c-0.3-0.1-0.6-0.1-0.8-0.1c-0.2,0-0.4,0.2-0.6,0.6
		c-0.3,0.6-0.2,1.2,0.3,1.6c0.3,0.3,0.5,0.4,0.7,0.3c0.2-0.1,0.5-0.2,0.8-0.4C188.3,139.6,188.6,139.2,188.5,138.8z M190.4,133.7
		l-1-0.9l-1.2,0.2l0.4,1.1l1,0.7L190.4,133.7z M198.3,176.9c-1.6-0.7-2.7-0.8-3.5-0.3c-0.8,0.6-1.8,1.5-2.9,2.9
		c-1.1,1.2-1.8,2.2-2.1,3.1c-0.3,0.8-0.1,1.9,0.7,3.3c1,1.7,1.8,2.9,2.7,3.5c0.8,0.6,2.1,0.8,4,0.4c1.9-0.3,3.1-1,3.5-1.9
		c0.4-1,0.7-2.4,0.9-4.3c0.2-1.8,0.2-3.2-0.2-4.1S200,177.6,198.3,176.9z M197.1,130c-0.6-0.4-1.1-0.5-1.5-0.4
		c-0.4,0.1-0.8,0.4-1.3,0.8c-0.5,0.5-0.9,0.9-1.1,1.2c-0.2,0.3-0.1,0.9,0.2,1.5c0.3,0.7,0.6,1.1,0.9,1.2c0.3,0.1,0.9,0.2,1.6,0.1
		c0.7-0.1,1.1-0.2,1.4-0.5c0.2-0.2,0.4-0.7,0.6-1.4c0.2-0.7,0.3-1.2,0.2-1.6C198,130.7,197.7,130.3,197.1,130z M196.8,169.1
		c-0.4-0.3-0.7-0.4-1-0.3c-0.3,0.1-0.6,0.3-1,0.6c-0.4,0.3-0.7,0.5-0.8,0.8c-0.1,0.2-0.1,0.6,0.1,1c0.2,0.6,0.4,1.1,0.5,1.4
		c0.1,0.3,0.5,0.5,1.1,0.5c0.7,0,1.1-0.2,1.3-0.5c0.2-0.3,0.4-0.8,0.6-1.4c0.2-0.5,0.2-1,0.1-1.2
		C197.4,169.8,197.2,169.5,196.8,169.1z M196.3,160.7l-1.2-0.4l-0.7,0.8l0.6,0.7l0.9-0.1L196.3,160.7z M196.9,137l-0.3-0.8l-0.6,0.5
		l-0.3,0.9l1,0.1L196.9,137z M203.8,157.3c-0.1-0.7-0.5-1.2-1.3-1.4c-0.6-0.1-1.1-0.3-1.5-0.5c-0.4-0.2-0.7,0.1-1.1,0.7
		c-0.4,0.6-0.6,1.1-0.5,1.5c0.1,0.4,0.3,0.9,0.8,1.4c0.5,0.5,0.9,0.8,1.3,0.8c0.4,0,0.9-0.1,1.6-0.4c0.5-0.2,0.7-0.5,0.8-0.8
		C203.9,158.3,203.9,157.8,203.8,157.3z M202.6,192.7c-0.1-0.4-0.2-0.6-0.4-0.7c-0.2-0.1-0.5-0.2-1-0.3c-0.5-0.1-1,0.1-1.2,0.6
		c-0.4,0.6-0.4,1.1,0,1.5c0.2,0.3,0.4,0.4,0.6,0.3c0.2-0.1,0.5-0.2,0.8-0.4c0.3-0.1,0.6-0.2,0.9-0.3
		C202.5,193.3,202.6,193.1,202.6,192.7z M210.9,187.5c-0.3-0.7-0.6-1.2-0.9-1.5c-0.3-0.2-0.8-0.3-1.6-0.3c-0.7,0.1-1.2,0.3-1.4,0.6
		c-0.2,0.3-0.4,0.9-0.5,1.5c-0.2,0.8-0.4,1.5-0.5,2c-0.1,0.5,0.2,1,0.9,1.4c0.7,0.5,1.4,0.6,1.8,0.4c0.5-0.2,1.1-0.6,1.7-1.2
		c0.5-0.5,0.8-0.9,0.8-1.3S211.2,188.2,210.9,187.5z M210.1,156.9l-1,0.2l0.3,1l1,0.2l0.2-0.9L210.1,156.9z M211.9,195.3l-1,0.3
		l0.3,1.1l0.9-0.1l0.7-0.7L211.9,195.3z M214.6,184.9l-0.7-0.6l-0.7,0.6l0.1,1l1.1-0.1L214.6,184.9z"/>
	<path class="st0" d="M254.4,200.4c-5.2,0-9.9-0.9-14.1-2.7c-4.2-1.8-7.6-4.4-10.2-7.9c-2.6-3.5-4-7.7-4.3-12.8
		c-0.1-1.1-0.1-2.4-0.1-4.1s0-3,0.1-4.2c0.3-5,1.7-9.3,4.2-12.8c2.5-3.5,5.9-6.2,10.2-8c4.2-1.8,9-2.7,14.1-2.7
		c5.4,0,9.9,0.8,13.7,2.3c3.8,1.5,6.8,3.4,9.2,5.6c2.3,2.2,4.1,4.4,5.2,6.6c1.1,2.2,1.7,3.9,1.8,5.3c0.1,0.8-0.2,1.4-0.8,1.9
		c-0.6,0.5-1.2,0.8-2,0.8h-19.9c-0.7,0-1.3-0.2-1.8-0.6c-0.4-0.4-0.8-0.9-1.2-1.5c-0.5-1-1-1.7-1.5-2.2c-0.5-0.5-1.3-0.8-2.3-0.8
		c-1.6,0-2.6,0.6-3.2,1.7s-0.8,2.8-0.9,4.8c-0.1,2.9-0.1,5.3,0,7.2c0.1,2.2,0.5,3.8,1,4.8c0.5,1.1,1.5,1.6,3.1,1.6
		c1.2,0,2.1-0.3,2.5-0.8c0.4-0.5,0.9-1.3,1.3-2.2c0.5-1.4,1.5-2,3-2h19.9c0.7,0,1.4,0.3,2,0.8c0.6,0.5,0.8,1.2,0.8,1.9
		c-0.1,0.9-0.4,2.1-1.1,3.7c-0.6,1.6-1.7,3.3-3.1,5.2c-1.4,1.8-3.2,3.6-5.6,5.3c-2.3,1.7-5.1,3-8.5,4.1
		C262.8,199.9,258.9,200.4,254.4,200.4z M231.1,180c-0.1-0.3-0.2-0.6-0.3-0.8c-0.1-0.2-0.3-0.3-0.6-0.3c-0.6,0-1,0.3-1.2,1
		c-0.1,0.3-0.1,0.6,0,0.7c0.1,0.1,0.3,0.3,0.6,0.5c0.5,0.4,1,0.5,1.3,0.2c0.3-0.2,0.4-0.4,0.4-0.6
		C231.3,180.6,231.2,180.4,231.1,180z M240.8,167.1c-0.3-1.5-0.5-2.7-0.6-3.7c-0.1-1-0.9-1.5-2.4-1.7c-1.7-0.1-2.9,0.1-3.6,0.7
		c-0.7,0.6-1.4,1.7-2,3.3c-0.7,1.5-0.9,2.7-0.7,3.5s0.9,1.7,2.1,2.8c1,1,1.9,1.4,2.7,1.2c0.8-0.2,1.8-0.7,3.1-1.4
		c1-0.6,1.6-1.2,1.7-1.8S241.1,168.3,240.8,167.1z M232.8,157.5c-0.3,0-0.6,0.1-0.7,0.3c-0.1,0.2-0.2,0.4-0.4,0.8
		c-0.1,0.3-0.2,0.6-0.3,0.8c-0.1,0.2,0,0.4,0.3,0.7c0.3,0.3,0.6,0.4,0.9,0.5c0.2,0.1,0.5,0,0.9-0.2c0.5-0.3,0.8-0.5,0.9-0.8
		c0.1-0.2,0.1-0.6,0-1.1c-0.1-0.5-0.2-0.7-0.5-0.8C233.6,157.6,233.2,157.6,232.8,157.5z M233.9,177.9h-0.7l-0.4,0.8l0.8,0.4
		l0.9-0.5L233.9,177.9z M235.9,188c-0.3-0.4-0.6-0.6-0.9-0.7c-0.3,0-0.7,0.1-1.2,0.3c-0.4,0.1-0.7,0.3-0.8,0.5
		c-0.1,0.2-0.2,0.5-0.2,1c0,0.6,0.3,1,1,1.2c0.3,0.1,0.6,0.1,0.7,0c0.1-0.1,0.3-0.3,0.5-0.6c0.3-0.4,0.5-0.7,0.8-0.9
		C236.2,188.6,236.2,188.3,235.9,188z M238.2,153.1c-0.5-0.6-1.2-0.8-1.8-0.5c-0.3,0.2-0.5,0.4-0.5,0.7c0,0.2,0,0.6,0.1,1
		c0.1,0.4,0.1,0.7,0.2,0.9c0,0.2,0.3,0.4,0.7,0.5c0.8,0.1,1.4-0.1,1.7-0.7C238.8,154.3,238.7,153.7,238.2,153.1z M237.1,183.5
		l-0.6-0.6l-0.5,0.7l0.3,0.9l1.1-0.2L237.1,183.5z M242.3,189.7l-1.2-0.4l-0.7,1l0.7,0.9l0.9-0.4L242.3,189.7z M243.9,178.2
		c-0.3-0.3-0.5-0.5-0.7-0.4c-0.2,0.1-0.5,0.1-0.9,0.2c-0.3,0.1-0.6,0.2-0.9,0.3c-0.2,0.1-0.4,0.3-0.4,0.6c0,0.4,0.1,0.6,0.3,0.7
		c0.2,0.1,0.5,0.2,0.8,0.3c0.4,0.1,0.7,0.3,0.9,0.4c0.2,0.1,0.4,0,0.7-0.4C244.3,179.4,244.3,178.8,243.9,178.2z M243.8,153
		c-0.3-0.3-0.6-0.4-0.9-0.3c-0.2,0.1-0.5,0.3-0.9,0.6c-0.5,0.3-0.6,0.8-0.3,1.4c0.1,0.4,0.3,0.7,0.4,0.9c0.1,0.2,0.4,0.3,0.8,0.3
		c0.5,0,0.8-0.1,1.1-0.2s0.4-0.4,0.6-0.9C244.8,154.1,244.5,153.5,243.8,153z M250.3,183.3c-0.5-0.9-1.1-1.2-1.7-1.1
		c-0.6,0.2-1.4,0.4-2.4,0.7c-1.1,0.2-2,0.3-2.7,0.4c-0.7,0.1-1.1,0.6-1.2,1.7c-0.1,1.4,0,2.3,0.3,3c0.3,0.6,1.1,1.2,2.3,1.6
		c1.2,0.5,2.2,0.7,2.9,0.5c0.7-0.2,1.4-0.8,2.2-1.8c0.8-1,1.2-1.8,1.2-2.4S251,184.4,250.3,183.3z M251.7,194.4
		c-0.3-0.5-0.5-1-0.7-1.2c-0.2-0.3-0.6-0.4-1.2-0.3c-0.5,0.1-0.8,0.3-0.8,0.6c0,0.3-0.1,0.8-0.2,1.3c-0.1,0.5-0.2,0.9-0.3,1.1
		c-0.1,0.3,0.1,0.5,0.5,0.8c0.5,0.3,0.8,0.4,1.1,0.3c0.2-0.1,0.6-0.3,1-0.7c0.4-0.3,0.7-0.6,0.8-0.9
		C252,195.3,251.9,194.9,251.7,194.4z M250.9,153.7l-1.3,0.3l0.1,1.3l1.1,0.5l0.4-1L250.9,153.7z M253,148.8c-0.4-0.5-0.7-1-1-1.2
		c-0.3-0.3-0.7-0.3-1.3,0c-0.6,0.2-0.9,0.5-0.9,0.9c0,0.4,0,0.9,0,1.6c0,0.5,0.1,0.8,0.4,1c0.2,0.2,0.6,0.3,1.1,0.4
		c0.6,0.2,1.1,0.4,1.4,0.5s0.6-0.1,0.9-0.6c0.3-0.5,0.4-1,0.3-1.3C253.6,149.7,253.4,149.3,253,148.8z M256.6,157.6l-1.3-0.2
		l0.1,1.3l1,0.9l0.7-1.2L256.6,157.6z M259.8,147.8c-0.5-0.4-1-0.5-1.4-0.4c-0.4,0.2-0.9,0.5-1.5,0.9c-0.4,0.3-0.6,0.7-0.6,1
		c0,0.3,0.2,0.7,0.4,1.3c0.1,0.5,0.3,0.8,0.5,1c0.2,0.2,0.5,0.3,1,0.3c0.7,0,1.2,0,1.5-0.1c0.3-0.1,0.6-0.4,0.8-1
		c0.2-0.7,0.3-1.3,0.3-1.7S260.5,148.2,259.8,147.8z M260,192.1l-1-0.4l-0.8,1.1l1.2,0.7l1-0.5L260,192.1z M261.6,196.4l-0.8-0.5
		l-0.6,0.3l-0.1,0.9l0.9-0.1L261.6,196.4z M263.5,181.9c-0.5-0.3-0.8-0.4-1.1-0.2c-0.2,0.2-0.6,0.5-1.1,0.8
		c-0.4,0.3-0.7,0.5-0.9,0.7c-0.2,0.2-0.2,0.5-0.1,1.1c0.1,0.5,0.3,0.7,0.6,0.8c0.3,0,0.7,0.1,1.2,0.1c0.7,0,1.1-0.3,1.3-0.9
		c0.2-0.5,0.4-1,0.5-1.3C264,182.5,263.9,182.2,263.5,181.9z M262.1,163.6l-0.8-0.4l-0.9,0.1l0.2,1l1,0.3L262.1,163.6z M265.4,192.9
		c-0.6-0.4-1.2-0.4-1.7,0c-0.4,0.3-0.7,0.6-0.8,0.8s-0.1,0.5,0.1,1c0.2,0.5,0.4,0.8,0.6,1c0.2,0.2,0.6,0.3,1.1,0.3
		c0.5,0,0.8-0.1,0.9-0.4c0.1-0.3,0.3-0.6,0.4-1.1C266.2,193.9,266,193.4,265.4,192.9z M265.6,156c-0.5-0.1-0.8,0-0.8,0.3
		c-0.1,0.3-0.2,0.6-0.4,1c-0.2,0.4-0.1,0.8,0.3,1.1c0.3,0.3,0.6,0.6,0.8,0.9c0.2,0.2,0.5,0.3,0.9,0.1c0.4-0.3,0.6-0.5,0.5-0.8
		c-0.1-0.3-0.2-0.6-0.3-1c-0.1-0.5-0.2-0.8-0.3-1.1C266.2,156.2,266,156,265.6,156z M267.7,186.1c-0.3-0.2-0.5-0.3-0.7-0.2
		c-0.2,0.1-0.5,0.2-0.8,0.4c-0.4,0.2-0.5,0.6-0.4,1.1c0.1,0.3,0.2,0.6,0.3,0.8c0.1,0.2,0.3,0.3,0.7,0.3c0.6,0.1,1.1-0.2,1.3-0.8
		C268.2,187,268.1,186.5,267.7,186.1z M267.1,164l-1.1-0.2l0.1,1l0.6,0.5l1.2-0.4L267.1,164z M273.6,155.4c-0.2-0.6-0.4-1.1-0.7-1.3
		c-0.2-0.3-0.7-0.4-1.4-0.5c-0.5-0.1-0.9,0.1-0.9,0.5c-0.1,0.4-0.2,0.8-0.5,1.4c-0.3,0.6-0.2,1.1,0.3,1.5c0.4,0.4,0.9,0.4,1.5,0
		c0.5-0.3,0.9-0.5,1.2-0.6S273.6,155.9,273.6,155.4z M273.3,182.9c-0.7-0.5-1.3-0.6-1.9-0.3c-0.8,0.5-1.2,1.1-1,1.9
		c0.1,0.7,0.3,1.2,0.4,1.6c0.1,0.4,0.5,0.6,1.2,0.7c0.7,0.1,1.1-0.1,1.3-0.4c0.2-0.3,0.4-0.8,0.7-1.4c0.3-0.5,0.3-0.8,0.2-1.1
		C273.9,183.5,273.6,183.2,273.3,182.9z M273.9,163.8H273l-0.6,1l1.1,0.4l1-0.5L273.9,163.8z"/>
	<path class="st0" d="M293.6,199.4c-0.7,0-1.4-0.3-1.9-0.8c-0.5-0.5-0.8-1.2-0.8-1.9v-66.9c0-0.7,0.3-1.4,0.8-1.9
		c0.5-0.5,1.2-0.8,1.9-0.8h19.9c0.7,0,1.4,0.3,1.9,0.8c0.5,0.5,0.8,1.2,0.8,1.9v21.9c1.8-2,4-3.5,6.7-4.6c2.7-1.1,5.6-1.7,8.8-1.7
		c3.5,0,6.7,0.8,9.8,2.4c3.1,1.6,5.6,4.1,7.5,7.5c1.9,3.4,2.9,7.8,2.9,13.2v28.2c0,0.7-0.3,1.4-0.8,1.9c-0.5,0.5-1.2,0.8-1.9,0.8
		h-20c-0.7,0-1.4-0.3-1.9-0.8c-0.5-0.5-0.8-1.2-0.8-1.9v-27.4c0-3.7-1.7-5.6-5.1-5.6c-3.5,0-5.2,1.9-5.2,5.6v27.4
		c0,0.7-0.3,1.4-0.8,1.9c-0.5,0.5-1.2,0.8-1.9,0.8H293.6z M296.7,180.3c-0.2-0.4-0.4-0.7-0.6-0.9c-0.2-0.2-0.5-0.2-1-0.2
		c-0.6,0.1-1.1,0.2-1.5,0.3c-0.4,0-0.6,0.4-0.8,1c-0.1,0.6,0.1,1,0.4,1.2c0.3,0.2,0.8,0.4,1.4,0.7c0.5,0.3,1,0.6,1.3,0.8
		c0.3,0.2,0.7,0.1,1.2-0.4c0.4-0.5,0.5-0.9,0.3-1.2C297.4,181.3,297.1,180.9,296.7,180.3z M295.2,158l-1.1-0.9l-0.8,0.9l0.3,0.8
		l0.8,0.1L295.2,158z M300,187.9c-1.2-0.5-2.1-0.5-2.7,0.1c-0.5,0.5-1.2,1.3-2,2.3c-0.8,1-1.4,1.9-1.7,2.5c-0.3,0.6-0.1,1.5,0.6,2.6
		c0.7,1.1,1.5,1.6,2.2,1.7c0.7,0,1.7-0.2,3-0.6c1.1-0.3,1.8-0.7,2-1.2c0.2-0.5,0.4-1.4,0.5-2.5c0.1-1.3,0.1-2.3,0.1-3.1
		C301.8,188.9,301.2,188.3,300,187.9z M295.2,175.6l-1-0.7l-0.6,0.8l0.1,0.8l1.1,0.3L295.2,175.6z M295,145.1l-0.7,0.3l-0.3,0.7
		l0.9,0.5l0.4-0.8L295,145.1z M298.2,154c-0.3-0.5-0.5-0.8-0.6-1.1c-0.1-0.3-0.5-0.4-1-0.3c-1,0.2-1.6,0.8-1.7,1.8
		c-0.1,0.6,0,1,0.3,1.1c0.3,0.1,0.7,0.3,1.2,0.6c0.3,0.1,0.6,0.2,0.8,0.1c0.2-0.1,0.4-0.3,0.7-0.7C298.3,155,298.4,154.5,298.2,154z
		 M301.6,144.6c-0.5-0.3-1-0.4-1.3-0.2s-0.7,0.6-1.3,1c-0.4,0.3-0.7,0.6-1,0.9c-0.2,0.3-0.3,0.7-0.1,1.2c0.3,0.7,0.5,1.2,0.8,1.6
		c0.2,0.4,0.7,0.5,1.5,0.5c0.7-0.1,1.2-0.3,1.4-0.7c0.2-0.4,0.4-0.9,0.6-1.7c0.2-0.6,0.3-1.1,0.3-1.5
		C302.5,145.4,302.2,145.1,301.6,144.6z M308.2,172.5c-0.8-0.7-1.5-1-2.1-0.9c-0.6,0.1-1.3,0.4-2.2,1c-0.8,0.5-1.3,1-1.5,1.4
		c-0.2,0.5-0.2,1.2,0.1,2.1c0.3,1.1,0.5,1.9,0.8,2.5c0.2,0.6,0.9,0.9,2,1.1c1.2,0.1,1.9-0.2,2.2-0.7c0.3-0.5,0.7-1.3,1.1-2.3
		c0.5-1,0.7-1.8,0.8-2.3C309.5,173.9,309.1,173.2,308.2,172.5z M309.8,159.4c-0.7-1-1.3-1.3-1.9-1.2c-0.6,0.2-1.5,0.4-2.5,0.7
		c-0.9,0.3-1.5,0.6-1.8,1c-0.3,0.4-0.5,1-0.5,1.9c0,0.9,0.1,1.5,0.4,2c0.2,0.4,0.8,0.8,1.6,1.1c1,0.3,1.7,0.5,2.2,0.5
		c0.5,0,1.1-0.4,1.7-1.2c0.7-1,1.1-1.7,1.4-2.3C310.6,161.2,310.4,160.4,309.8,159.4z M306.5,137c-0.2-0.7-0.6-1.2-1.1-1.2
		c-0.5-0.1-1,0.2-1.2,0.9c-0.3,0.6-0.2,1.1,0.2,1.5c0.3,0.2,0.5,0.2,0.7,0.1c0.2-0.1,0.4-0.3,0.7-0.4c0.3-0.1,0.5-0.3,0.7-0.4
		C306.5,137.5,306.6,137.3,306.5,137z M306.9,145.8l-0.4-0.8l-0.8,0.6l0.4,0.7l0.7,0.4L306.9,145.8z M311.9,185
		c-0.5-0.5-1-0.7-1.4-0.6c-0.4,0.1-0.9,0.3-1.5,0.6c-0.7,0.4-1.2,0.8-1.5,1.1c-0.3,0.3-0.4,0.9-0.2,1.7c0.2,1,0.4,1.7,0.7,2.2
		c0.2,0.5,0.9,0.9,1.9,0.9c1,0.1,1.5-0.2,1.7-0.7c0.2-0.5,0.5-1.3,0.8-2.2c0.3-0.7,0.4-1.2,0.4-1.6C312.8,186,312.5,185.6,311.9,185
		z M311.3,133.7c-0.6-0.3-1.1-0.5-1.5-0.4c-0.4,0.1-0.8,0.4-1.3,0.9c-0.5,0.5-0.7,0.9-0.8,1.2c-0.1,0.3,0.1,0.8,0.4,1.4
		c0.3,0.6,0.6,0.9,0.9,0.9c0.3,0,0.8,0,1.4-0.1c0.5-0.1,1-0.3,1.2-0.4c0.3-0.1,0.5-0.5,0.6-1.1c0.1-0.7,0.1-1.2,0-1.5
		C312.3,134.3,311.9,134,311.3,133.7z M312.3,148.2l-1-0.4l-0.6,0.8l0.5,0.7l0.8-0.2L312.3,148.2z M313.6,163.6l-0.8-0.2l-0.1,1
		l0.8,0.1l0.5-0.4L313.6,163.6z M320.7,155.8c-0.5-0.1-0.8,0-0.9,0.3c-0.1,0.2-0.3,0.6-0.6,1c-0.1,0.3-0.2,0.6-0.1,0.7
		c0.1,0.1,0.3,0.3,0.6,0.6c0.3,0.3,0.6,0.6,0.7,0.9c0.1,0.2,0.4,0.3,0.8,0.1c0.4-0.2,0.6-0.4,0.5-0.7c-0.1-0.3-0.1-0.6-0.2-1.1
		c-0.1-0.4-0.1-0.8-0.2-1.1C321.3,156,321.1,155.8,320.7,155.8z M334,164.4c-0.1-0.7-0.3-1.1-0.6-1.4c-0.3-0.2-0.8-0.4-1.5-0.6
		c-0.5-0.2-1-0.2-1.2,0c-0.3,0.2-0.6,0.6-0.9,1.1c-0.5,0.8-0.4,1.6,0.1,2.2c0.6,0.7,1.4,1,2.2,0.6c0.6-0.3,1.1-0.5,1.4-0.7
		C333.9,165.6,334,165.1,334,164.4z M332.5,154l-1.3,0.3l-0.5,0.9l0.8,1l1.1-0.7L332.5,154z M335.2,179l-0.4-0.8l-1,0.4l0.1,1.1h0.9
		L335.2,179z M335.7,171.5l-0.8,0.6l-0.2,1.3l1.3-0.2l0.9-0.9L335.7,171.5z M337.2,187.2l-1-0.1l-0.4,0.8l0.6,0.8l0.7-0.6
		L337.2,187.2z M337.4,193.6h-1.1v1.1l1,0.3l0.4-0.8L337.4,193.6z M341.7,154.6c-0.7-0.6-1.3-1-1.7-1.1c-0.5-0.1-1.1,0.1-1.8,0.6
		c-0.8,0.5-1.3,0.9-1.5,1.4c-0.2,0.4-0.2,1.1,0.1,2.1c0.3,1.2,0.5,2.1,0.6,2.8c0.1,0.7,0.8,1.1,2,1.2c1.2,0.1,2-0.2,2.3-0.8
		c0.3-0.6,0.7-1.5,1.2-2.5c0.4-0.9,0.5-1.5,0.3-2C342.8,155.8,342.4,155.3,341.7,154.6z M347.1,169.4c-1.2-0.7-2-0.8-2.6-0.1
		c-0.6,0.7-1.4,1.5-2.4,2.3c-1.1,0.9-2,1.6-2.8,2c-0.8,0.5-0.9,1.4-0.4,2.7c0.6,1.4,1.3,2.1,2.2,2.2c0.8,0.1,2,0.1,3.5,0
		c1.4-0.1,2.3-0.4,2.9-0.8c0.5-0.4,1-1.3,1.3-2.7c0.3-1.4,0.5-2.5,0.4-3.4C349.1,171,348.4,170.2,347.1,169.4z M343.4,192.7
		c-0.5-0.7-1.2-0.9-2-0.6c-0.4,0.1-0.6,0.2-0.7,0.5c0,0.3-0.1,0.6-0.1,1.1c0,0.5-0.1,1-0.2,1.3c-0.1,0.3,0.1,0.6,0.6,0.8
		c0.5,0.2,0.9,0.2,1.2-0.1c0.2-0.3,0.5-0.6,0.9-1.1c0.3-0.4,0.5-0.7,0.6-1C343.8,193.4,343.7,193.1,343.4,192.7z M342.8,164.8
		l-0.8-0.2l-0.4,0.8l0.5,1l0.8-0.7L342.8,164.8z M346.5,184.3c-0.4-0.3-0.7-0.5-1-0.4c-0.3,0.1-0.6,0.3-1.1,0.7
		c-0.5,0.3-0.9,0.6-1.2,0.8c-0.3,0.2-0.4,0.6-0.2,1.1c0.1,0.6,0.4,1,0.7,1.1c0.3,0.1,0.8,0.2,1.4,0.2s1.1-0.1,1.3-0.2
		c0.3-0.1,0.5-0.4,0.7-1C347.6,185.7,347.3,184.9,346.5,184.3z"/>
	<path class="st0" d="M388.1,200.4c-8.9,0-16-2.2-21.3-6.6c-5.3-4.4-7.9-11.3-7.9-20.9v-0.7c0.1-8.8,2.8-15.5,8.1-20
		c5.3-4.6,12.3-6.9,21-6.9c6.7,0,12.1,1.3,16.4,3.8c4.3,2.6,7.5,5.9,9.5,10.1c2.1,4.2,3.1,8.8,3.1,13.8v3.1c0,0.7-0.3,1.4-0.8,1.9
		c-0.5,0.5-1.2,0.8-1.9,0.8h-30.4v0.5c0,2,0.3,3.6,0.9,4.6c0.6,1.1,1.6,1.6,3.1,1.6c0.6,0,1.1-0.2,1.5-0.5c0.4-0.3,0.9-0.8,1.4-1.3
		c0.6-0.6,1.1-1,1.5-1.2c0.4-0.2,1-0.3,1.8-0.3h19.3c0.7,0,1.2,0.2,1.7,0.6c0.4,0.4,0.6,1,0.6,1.6c-0.1,1.3-0.7,2.8-1.8,4.6
		c-1.1,1.8-2.8,3.6-5,5.3c-2.2,1.7-5.1,3.1-8.6,4.2C396.9,199.9,392.8,200.4,388.1,200.4z M368.7,174.3c-0.8-0.2-1.4-0.2-1.8,0
		c-0.4,0.2-0.8,0.6-1.3,1.3c-0.3,0.6-0.4,1.1-0.2,1.4c0.2,0.3,0.6,0.7,1,1.3c0.3,0.5,0.6,0.8,0.9,0.9c0.3,0.1,0.6,0.1,1.1-0.2
		c0.9-0.3,1.3-1,1.3-1.9c0-0.7,0-1.3,0-1.8C369.9,174.9,369.5,174.5,368.7,174.3z M369.2,159.6c-0.4-0.1-0.7-0.1-1,0
		c-0.2,0.1-0.5,0.4-0.8,0.7c-0.4,0.4-0.8,0.7-1.1,1c-0.3,0.2-0.3,0.6-0.1,1.2c0.3,0.5,0.7,0.7,1,0.6c0.3-0.2,0.8-0.3,1.4-0.5
		s1-0.5,1-1.2c0.1-0.4,0.1-0.7,0.1-1C369.9,160.1,369.7,159.8,369.2,159.6z M372.8,169.3c-0.3-0.5-0.7-0.7-1-0.7
		c-0.3,0-0.8,0.1-1.3,0.3c-0.6,0.2-1,0.4-1.2,0.7c-0.2,0.2-0.3,0.7-0.3,1.3c0,0.7,0.1,1.3,0.2,1.7c0.1,0.4,0.5,0.7,1.2,0.9
		c0.7,0.2,1.3,0.2,1.6-0.1c0.3-0.2,0.7-0.7,1.2-1.4c0.4-0.5,0.6-1,0.5-1.4C373.6,170.3,373.3,169.9,372.8,169.3z M372.2,182.8
		c0-0.5,0-0.8,0.1-1.1c0-0.3-0.2-0.4-0.6-0.5c-0.5-0.1-0.8-0.1-1,0.1c-0.2,0.2-0.4,0.5-0.7,0.9c-0.2,0.3-0.3,0.5-0.2,0.7
		c0.1,0.2,0.3,0.4,0.5,0.7c0.3,0.3,0.5,0.6,0.6,0.9c0.1,0.2,0.4,0.3,0.8,0.2c0.4-0.1,0.6-0.3,0.5-0.6
		C372.2,183.5,372.2,183.2,372.2,182.8z M373.4,153.5c-0.6,0-1,0.2-1.1,0.5c-0.1,0.3-0.3,0.8-0.5,1.4c-0.1,0.3-0.1,0.6,0.1,0.8
		c0.2,0.2,0.4,0.4,0.8,0.6c0.3,0.3,0.6,0.6,0.9,0.8c0.2,0.2,0.6,0.2,1-0.1c0.5-0.3,0.8-0.6,0.9-0.9c0.1-0.3,0.1-0.7-0.1-1.3
		c-0.1-0.6-0.3-1.1-0.6-1.3C374.5,153.7,374,153.5,373.4,153.5z M377.2,160.8c-0.8-0.4-1.4-0.6-1.9-0.5c-0.4,0.1-0.9,0.4-1.5,1
		c-0.6,0.7-1,1.2-1,1.7c-0.1,0.4,0.1,1,0.6,1.8c0.3,0.7,0.7,1,1.2,0.9c0.4-0.1,1-0.2,1.8-0.4c0.7-0.1,1.2-0.3,1.6-0.4
		c0.4-0.1,0.6-0.5,0.7-1.3c0.1-0.8,0-1.4-0.2-1.8C378.4,161.5,377.9,161.1,377.2,160.8z M379.1,182.7c-0.6-0.6-1.3-0.7-2.1-0.3
		c-0.5,0.3-0.9,0.6-1.2,0.8c-0.2,0.2-0.3,0.6-0.3,1.2c0.1,0.6,0.4,1,0.7,1c0.3,0.1,0.8,0.1,1.4,0.2c0.6,0.1,1.1,0.1,1.5,0.2
		c0.4,0,0.7-0.2,1-0.8c0.3-0.5,0.3-1,0.1-1.3C380,183.5,379.6,183.1,379.1,182.7z M377.8,191.3c-0.5-0.1-0.8,0-1,0.2
		c-0.2,0.2-0.4,0.5-0.6,0.9c-0.3,0.4-0.4,0.7-0.5,1c-0.1,0.3,0.1,0.6,0.4,0.9c0.5,0.4,0.8,0.7,1.1,0.9c0.3,0.2,0.7,0.1,1.2-0.2
		c0.5-0.3,0.7-0.6,0.6-0.9s-0.2-0.8-0.3-1.3c-0.1-0.4-0.2-0.7-0.3-1C378.5,191.5,378.2,191.3,377.8,191.3z M378,170.3
		c-0.5-0.1-0.9,0-1,0.3c-0.1,0.3-0.3,0.7-0.6,1.2c-0.2,0.5-0.4,1-0.5,1.3c-0.1,0.3,0,0.6,0.4,1c0.5,0.5,0.9,0.7,1.2,0.7
		c0.3,0,0.8-0.2,1.4-0.5c0.5-0.3,1-0.6,1.2-0.9c0.3-0.3,0.3-0.7,0.1-1.4c-0.1-0.7-0.4-1.1-0.7-1.3
		C379.2,170.5,378.7,170.4,378,170.3z M381.5,189.1l-1-0.6l-0.7,1l0.7,0.7l1,0.1V189.1z M383.9,166.2h3.1c-0.1-0.1-0.1-0.3-0.2-0.5
		c-0.3-1.2-0.6-2.3-0.7-3.2c-0.1-0.9-0.1-1.7,0.1-2.4c0.5-0.3,1.1-0.4,1.8-0.4c2.7,0,4.1,2.1,4.1,6.4l-5.1,0.1
		c0.5,1.9,0.9,3.6,1.2,5.1c0.2,1.5,0.7,2.7,1.5,3.5c0.8,0.9,2.2,1.3,4.2,1.4c2.5,0.1,4.5-0.1,6.1-0.6c1.5-0.4,2.8-1.3,3.7-2.5
		c1-1.3,1.8-3.1,2.7-5.5c0.7-2,0.7-3.6,0.2-4.6c-0.5-1.1-1.5-2-2.9-2.8c-1.4-0.8-2.9-1.9-4.6-3.2c-2-1.5-3.6-2.3-4.8-2.4
		c-1.3-0.1-2.9,0.5-4.9,1.9c-1.7,1.2-2.7,2.4-3.1,3.6C384.7,160.9,383.9,162.9,383.9,166.2z M393.8,190c-0.1-0.8-0.1-1.5-0.2-1.9
		c0-0.5-0.5-0.8-1.3-1c-1-0.3-1.8-0.4-2.3-0.4c-0.5,0-1.1,0.5-1.6,1.4c-0.5,0.8-0.6,1.4-0.2,1.8c0.4,0.4,0.9,1,1.4,1.7
		c0.5,0.6,0.9,1,1.3,1.1c0.4,0.1,0.9,0.1,1.6-0.2c0.7-0.3,1.1-0.6,1.2-1C393.9,191.2,393.9,190.7,393.8,190z M398.3,185.4
		c-0.1-0.3-0.3-0.5-0.5-0.6c-0.2-0.1-0.4-0.1-0.8-0.1c-0.6,0-1,0.2-1.1,0.6c-0.2,0.5-0.1,1,0.3,1.3c0.3,0.2,0.6,0.4,0.8,0.5
		c0.2,0.1,0.4,0.1,0.8-0.1c0.3-0.3,0.5-0.5,0.6-0.7C398.4,186.2,398.4,185.9,398.3,185.4z M405.6,189.3c-0.3-0.8-0.6-1.4-0.9-1.9
		c-0.2-0.4-0.8-0.6-1.8-0.6c-1.1,0.1-1.9,0.3-2.4,0.6c-0.5,0.3-0.9,1-1.1,2c-0.2,1-0.1,1.7,0.4,2.1c0.4,0.4,1.1,0.9,2.1,1.4
		c0.9,0.5,1.6,0.9,2.2,1.1c0.6,0.2,1.3-0.1,2.1-0.8c0.8-0.7,1-1.3,0.7-1.8C406.4,191,406,190.3,405.6,189.3z"/>
	<path class="st0" d="M449.1,200.4c-4.9,0-9.1-0.5-12.5-1.5c-3.4-1-6.2-2.2-8.4-3.8c-2.1-1.5-3.7-3.1-4.7-4.8
		c-1-1.7-1.6-3.2-1.6-4.5c-0.1-0.7,0.2-1.4,0.7-1.9c0.5-0.5,1.1-0.8,1.8-0.8h18.2c0.9,0.1,1.7,0.4,2.4,0.9c0.7,0.5,1.5,1,2.2,1.5
		c0.8,0.5,1.7,0.7,2.7,0.7c0.5,0,1.1-0.1,1.6-0.4c0.5-0.3,0.8-0.6,0.8-1.1c0-0.6-0.2-1.2-0.6-1.6c-0.4-0.5-1.3-1-2.8-1.5
		c-1.5-0.5-3.9-1.1-7.3-1.7c-3.1-0.6-6.1-1.6-9-2.9c-2.9-1.3-5.2-3.1-7-5.4c-1.8-2.3-2.7-5.2-2.7-8.8c0-2.9,1-5.7,3-8.4
		c2-2.7,4.9-4.8,8.7-6.5c3.8-1.7,8.5-2.5,14.1-2.5c5.6,0,10.4,0.8,14.4,2.4c3.9,1.6,7,3.6,9.1,5.8c2.1,2.2,3.2,4.4,3.3,6.3
		c0.1,0.7-0.1,1.4-0.6,1.9c-0.5,0.5-1,0.8-1.6,0.8H456c-1,0-1.8-0.3-2.5-0.8c-0.7-0.5-1.5-1-2.2-1.5c-0.7-0.5-1.6-0.8-2.7-0.8
		c-0.5,0-0.9,0.2-1.4,0.5c-0.4,0.3-0.7,0.7-0.7,1.2c0,0.5,0.2,1.1,0.6,1.6s1.4,1,3,1.4c1.6,0.4,4.1,0.9,7.7,1.5
		c4.9,0.7,8.8,1.9,11.7,3.8c2.9,1.8,5,3.9,6.3,6.3c1.3,2.4,1.9,4.7,1.9,7c0,5.4-2.5,9.7-7.4,12.9
		C465.3,198.9,458.3,200.4,449.1,200.4z M432,160.6c-0.3-0.3-0.5-0.5-0.6-0.7c-0.1-0.2-0.4-0.2-0.7,0c-0.7,0.3-1,0.9-0.8,1.5
		c0.1,0.7,0.6,1.1,1.3,1.2c0.6,0.1,1.1-0.2,1.4-0.8c0.1-0.3,0.1-0.6,0-0.7C432.5,160.9,432.2,160.8,432,160.6z M431.9,168.9
		l-0.5-0.6l-0.6,0.5l-0.1,0.9h1L431.9,168.9z M434.9,191.3c-0.5-0.1-1-0.1-1.2-0.1c-0.3,0-0.5,0.3-0.8,0.8c-0.2,0.5-0.2,0.8,0,1.1
		c0.2,0.2,0.5,0.5,0.8,0.9c0.5,0.4,0.8,0.8,1,1.1c0.2,0.3,0.6,0.3,1.1,0.1c0.5-0.3,0.8-0.6,0.7-1c-0.1-0.4-0.1-0.9-0.2-1.5
		C436.2,191.8,435.7,191.4,434.9,191.3z M443.5,153.4c-1-0.6-1.7-0.8-2.3-0.6c-0.6,0.2-1.3,0.7-2.2,1.5c-0.9,0.7-1.4,1.4-1.7,1.9
		c-0.2,0.5-0.2,1.3,0.3,2.4c0.3,0.9,0.8,1.3,1.4,1.2s1.4-0.2,2.4-0.3c1-0.1,1.9-0.1,2.5,0c0.6,0.1,1.1-0.4,1.4-1.4
		c0.3-1.2,0.3-2.1,0.1-2.8C445.2,154.7,444.6,154.1,443.5,153.4z M443.8,169.8c-0.4-0.8-0.7-1.5-1-1.9c-0.3-0.5-0.9-0.6-1.7-0.5
		c-1,0.1-1.7,0.4-2,0.9c-0.3,0.4-0.6,1.1-0.8,2.1c-0.1,0.9,0,1.5,0.4,1.8c0.4,0.3,0.9,0.7,1.7,1.1c0.7,0.4,1.4,0.7,1.8,0.8
		c0.5,0.1,1-0.2,1.6-0.8c0.5-0.5,0.8-1,0.7-1.5C444.4,171.3,444.1,170.7,443.8,169.8z M439.3,150.6l-0.6-0.3l-0.3,0.6l0.3,0.7
		l0.9-0.2L439.3,150.6z M444.7,186.9c-0.5-0.4-0.9-0.7-1.2-0.9c-0.3-0.2-0.8-0.1-1.3,0.3c-0.5,0.3-0.7,0.7-0.6,1
		c0.2,0.3,0.3,0.8,0.5,1.4c0.2,0.6,0.3,1.1,0.3,1.5c0,0.4,0.3,0.6,0.9,0.7c0.7,0.1,1.3,0,1.6-0.2c0.3-0.2,0.6-0.6,0.9-1.3
		c0.3-0.6,0.3-1.1,0.1-1.3C445.7,187.7,445.3,187.3,444.7,186.9z M446.3,148.6l-1,0.5l-0.1,0.9l1,0.9l0.7-1.2L446.3,148.6z
		 M454.4,179.2c-0.1-0.5-0.4-0.9-1.1-1.1c-0.4-0.1-0.7-0.1-1-0.1c-0.2,0-0.5,0.2-0.7,0.5c-0.3,0.5-0.3,1.1,0.2,1.7
		c0.4,0.5,1,0.6,1.6,0.3C454.2,180.3,454.5,179.8,454.4,179.2z M455.5,150.3c-0.5-0.1-0.9-0.1-1.1,0.2c-0.2,0.3-0.4,0.6-0.7,1.1
		c-0.3,0.5-0.5,0.9-0.7,1.1c-0.2,0.3-0.1,0.6,0.2,1c0.4,0.5,0.8,0.6,1.1,0.5c0.3-0.1,0.7-0.3,1.3-0.5c0.5-0.2,0.9-0.4,1.2-0.6
		c0.3-0.2,0.4-0.5,0.4-1.1C457.1,151.1,456.6,150.5,455.5,150.3z M464,177.5c-1.8-0.5-3.2-0.7-4.2-0.6c-1,0.1-2,0.9-3.1,2.4
		c-1,1.6-1.4,2.8-1.2,3.8c0.2,1,0.9,2.3,2,3.8c1,1.2,1.9,1.6,2.7,1.2c0.8-0.4,2-0.9,3.5-1.4c1.5-0.5,2.7-0.9,3.7-1.2
		c1-0.2,1.4-1.1,1.4-2.7c-0.1-1.8-0.5-3.1-1.2-3.7C466.9,178.6,465.7,178,464,177.5z M457.2,169.2c-0.4-0.1-0.6,0-0.7,0.3
		c0,0.2-0.2,0.5-0.4,0.9s-0.2,0.7,0.1,1c0.4,0.3,0.7,0.4,1,0.3c0.6-0.3,0.9-0.6,0.8-1.1c-0.1-0.4-0.1-0.7-0.2-0.9
		C457.8,169.4,457.6,169.3,457.2,169.2z M457.7,194.4l-0.8-0.1v0.8l0.6,0.8l0.4-0.9L457.7,194.4z M460.2,191.9l-1-0.5l-0.7,0.7
		l0.4,0.8h0.9L460.2,191.9z M461.5,157.7h-1l-0.3,1.1l1,0.3l0.5-0.6L461.5,157.7z M464.9,151.7c-0.6-0.1-1.1-0.1-1.3,0.1
		c-0.3,0.2-0.5,0.5-0.8,1.1c-0.5,0.8-0.4,1.6,0.2,2.2c0.3,0.4,0.6,0.6,0.9,0.6c0.3,0,0.6-0.2,1.1-0.4c0.7-0.3,1.1-0.8,1-1.5
		c-0.1-0.6-0.1-1.1-0.2-1.4C465.8,152,465.5,151.8,464.9,151.7z M469,158.6l-1,0.6l0.2,1.2l1.1-0.2l0.3-0.8L469,158.6z"/>
</g>
</svg>
