<?xml version="1.0" encoding="utf-8"?>
<!-- Generator: Adobe Illustrator 23.0.2, SVG Export Plug-In . SVG Version: 6.00 Build 0)  -->
<svg version="1.1" id="Layer_1" xmlns="http://www.w3.org/2000/svg" xmlns:xlink="http://www.w3.org/1999/xlink" x="0px" y="0px"
	 viewBox="0 0 500 150" style="enable-background:new 0 0 500 150;" xml:space="preserve">
<style type="text/css">
	.st0{fill:#FFFFFF;}
	.st1{fill:#FAC805;}
</style>
<g>
	<path class="st0" d="M32.6,105.7c-4.3,0-8.2-0.6-11.6-1.8s-6.1-3.1-8-5.9c-2-2.9-2.9-6.7-2.9-11.6V74.7H3c-0.6,0-1.2-0.2-1.6-0.8
		c-0.4-0.4-0.8-1-0.8-1.6V61.6c0-0.6,0.2-1.2,0.8-1.6c0.4-0.4,1-0.8,1.6-0.8h7.1V44.5c0-0.6,0.2-1.2,0.8-1.6c0.4-0.4,1-0.8,1.6-0.8
		h15.7c0.6,0,1.2,0.2,1.6,0.8c0.4,0.4,0.8,1,0.8,1.6v14.7H42c0.6,0,1.2,0.2,1.6,0.8c0.4,0.4,0.8,1,0.8,1.6v10.8
		c0,0.6-0.2,1.2-0.8,1.6c-0.4,0.4-1,0.8-1.6,0.8H30.7v9.8c0,1.4,0.4,2.4,1,3.3c0.6,0.8,1.6,1.2,2.9,1.2h8.2c0.6,0,1.2,0.2,1.6,0.8
		c0.4,0.4,0.8,1,0.8,1.6v11.8c0,0.6-0.2,1.2-0.8,1.6c-0.4,0.4-1,0.8-1.6,0.8H32.6V105.7z M8.7,63.9c0-0.4-0.2-0.6-0.4-0.8
		c-0.2,0-0.6-0.2-1-0.2s-0.8,0-1,0c-0.2,0-0.4,0.2-0.6,0.8c-0.2,0.4-0.2,0.8-0.2,1s0.2,0.6,0.6,0.8c0.4,0.4,0.8,0.6,1,0.6
		c0.2,0,0.6,0,1.2-0.4c0.4-0.2,0.6-0.6,0.6-0.8C8.9,64.7,8.7,64.3,8.7,63.9z M7.9,71l-0.8-0.4l-0.2,1l0.4,0.6L8.1,72L7.9,71z
		 M11.5,67.3c-0.2,0-0.4-0.2-0.6-0.2s-0.4,0-0.6,0.4c-0.4,0.6-0.4,1,0,1.4c0.2,0.2,0.4,0.4,0.6,0.4s0.4-0.2,0.8-0.2
		c0.4-0.2,0.6-0.4,0.6-1C12.2,67.5,12,67.3,11.5,67.3z M20.3,58c-1.4-0.8-2.7-1.2-3.5-1.6c-0.8-0.4-1.8,0-3.1,1.2
		c-1.2,1.2-1.4,2-1.2,3.1c0.4,0.8,1,2,1.8,3.5s1.4,2.4,1.8,2.9s1.6,0.8,3.1,0.4c1.4-0.2,2.4-0.8,2.9-1.4c0.4-0.8,0.8-1.8,0.8-3.3
		c0.2-1.4,0.2-2.4-0.4-2.9S21.5,58.6,20.3,58z M16,78.8c-0.2-0.4-0.2-0.8-0.4-1c-0.2-0.2-0.4-0.2-1-0.2c-0.8,0-1.4,0.4-1.6,1.2
		c-0.2,0.4-0.2,0.8,0,1c0.2,0.2,0.4,0.4,0.8,0.8c0.6,0.4,1.2,0.4,2,0C16,80,16.2,79.4,16,78.8z M14.4,90.4h-0.8l-0.4,0.8l1.2-0.2
		L14.4,90.4L14.4,90.4z M18.9,73.7c0-0.4-0.2-0.8-0.4-0.8c-0.2-0.2-0.6-0.2-1-0.2c-0.6,0-1-0.2-1.4-0.2c-0.4-0.2-0.6,0-1,0.6
		c-0.2,0.6-0.4,1-0.2,1.2c0.2,0.2,0.6,0.6,1,1.2c0.4,0.4,0.6,0.4,1,0.4c0.2,0,0.6-0.2,1-0.4s0.8-0.4,0.8-0.6S18.9,74.1,18.9,73.7z
		 M17.3,52.4c-0.2-0.4-0.4-0.8-1-0.8c-0.2,0-0.6,0-0.8,0c-0.2,0-0.4,0.2-0.6,0.4c-0.2,0.6-0.2,1,0.2,1.4c0.2,0.2,0.4,0.4,0.6,0.2
		s0.4-0.2,0.8-0.4C17.1,53.1,17.3,52.9,17.3,52.4z M19.1,48l-0.8-0.8l-1,0.2l0.4,1l0.8,0.6L19.1,48z M25.8,85.9
		c-1.4-0.6-2.4-0.8-3.1-0.2c-0.6,0.4-1.6,1.4-2.7,2.7c-1,1-1.6,2-1.8,2.7c-0.2,0.8,0,1.6,0.6,2.9c0.8,1.4,1.6,2.4,2.2,3.1
		c0.8,0.6,1.8,0.6,3.5,0.4c1.6-0.2,2.7-0.8,3.1-1.6s0.6-2,0.8-3.7c0.2-1.6,0.2-2.9-0.2-3.7S27.5,86.5,25.8,85.9z M24.8,44.7
		c-0.6-0.4-1-0.4-1.2-0.4c-0.4,0.2-0.6,0.4-1.2,0.8c-0.4,0.4-0.8,0.8-1,1s-0.2,0.8,0.2,1.4c0.2,0.6,0.4,1,0.8,1
		c0.2,0.2,0.8,0.2,1.4,0c0.6,0,1-0.2,1.2-0.4c0.2-0.2,0.4-0.6,0.4-1.2c0.2-0.6,0.2-1,0.2-1.4C25.6,45.3,25.4,44.9,24.8,44.7z
		 M24.6,79.2C24.2,79,24,78.8,23.8,79c-0.2,0-0.6,0.2-0.8,0.4c-0.4,0.2-0.6,0.4-0.6,0.6c0,0.2,0,0.4,0,0.8c0.2,0.6,0.4,1,0.4,1.2
		c0.2,0.2,0.4,0.4,1,0.4s1-0.2,1-0.4c0.2-0.2,0.4-0.6,0.4-1.2c0.2-0.4,0.2-0.8,0-1C25.2,79.8,25,79.4,24.6,79.2z M24.2,71.6l-1-0.4
		L22.6,72l0.6,0.6H24L24.2,71.6z M24.6,50.8L24.4,50l-0.6,0.4l-0.2,0.8h0.8L24.6,50.8z M30.7,68.8c0-0.6-0.4-1-1.2-1.2
		c-0.6-0.2-1-0.2-1.2-0.4c-0.4-0.2-0.6,0-1,0.6s-0.4,1-0.4,1.4s0.2,0.8,0.8,1.2c0.4,0.4,0.8,0.8,1,0.8c0.4,0,0.8-0.2,1.4-0.4
		c0.4-0.2,0.6-0.4,0.6-0.8C30.9,69.6,30.7,69.2,30.7,68.8z M29.7,99.8c0-0.4-0.2-0.6-0.4-0.6c-0.2,0-0.4-0.2-0.8-0.2
		c-0.4-0.2-0.8,0-1,0.6c-0.4,0.6-0.4,1,0,1.4c0.2,0.2,0.4,0.4,0.6,0.2c0.2,0,0.4-0.2,0.8-0.4c0.2-0.2,0.6-0.2,0.8-0.2
		C29.7,100.4,29.7,100.2,29.7,99.8z M37.1,95.3c-0.2-0.6-0.4-1-0.8-1.2c-0.2-0.2-0.8-0.2-1.4-0.2c-0.6,0-1,0.2-1.2,0.6
		c-0.2,0.2-0.4,0.8-0.4,1.4c-0.2,0.8-0.4,1.2-0.4,1.8c-0.2,0.4,0.2,0.8,0.8,1.2c0.6,0.4,1.2,0.6,1.6,0.4c0.4-0.2,1-0.6,1.4-1
		s0.8-0.8,0.8-1.2C37.5,96.3,37.3,95.9,37.1,95.3z M36.2,68.4l-0.8,0.2l0.2,0.8l0.8,0.2l0.2-0.8L36.2,68.4z M37.9,102.3l-0.8,0.2
		l0.2,1h0.8l0.6-0.6L37.9,102.3z M40.3,93.1l-0.6-0.6l-0.6,0.6v0.8h1L40.3,93.1z"/>
	<path class="st0" d="M54,105.7c-0.6,0-1.2-0.2-1.6-0.8c-0.4-0.4-0.8-1-0.8-1.6V44.5c0-0.6,0.2-1.2,0.8-1.6c0.4-0.4,1-0.8,1.6-0.8
		h17.6c0.6,0,1.2,0.2,1.6,0.8c0.4,0.4,0.8,1,0.8,1.6v19.4c1.6-1.8,3.5-3.1,5.9-4.1c2.4-1,4.9-1.4,7.8-1.4c3.1,0,5.9,0.8,8.6,2.2
		c2.7,1.4,4.9,3.7,6.7,6.7s2.7,6.9,2.7,11.6v24.7c0,0.6-0.2,1.2-0.8,1.6c-0.4,0.4-1,0.8-1.6,0.8H85.6c-0.6,0-1.2-0.2-1.6-0.8
		c-0.4-0.4-0.8-1-0.8-1.6V79.2c0-3.3-1.4-4.9-4.5-4.9c-3.1,0-4.5,1.6-4.5,4.9v24.1c0,0.6-0.2,1.2-0.8,1.6c-0.4,0.4-1,0.8-1.6,0.8
		C71.8,105.7,54,105.7,54,105.7z M56.7,89c-0.2-0.4-0.4-0.6-0.4-0.8C56,88,55.8,88,55.4,88c-0.6,0.2-1,0.2-1.2,0.2
		c-0.4,0-0.6,0.4-0.6,0.8c0,0.6,0,0.8,0.4,1c0.2,0.2,0.8,0.4,1.2,0.6c0.4,0.2,0.8,0.6,1.2,0.6c0.2,0.2,0.6,0,1-0.4s0.4-0.8,0.2-1
		C57.3,89.8,57.1,89.6,56.7,89z M55.4,69.4l-1-0.8l-0.8,0.8l0.2,0.8h0.8L55.4,69.4z M59.5,95.7c-1-0.4-1.8-0.4-2.2,0
		c-0.4,0.4-1,1-1.8,2s-1.2,1.6-1.4,2.2s-0.2,1.4,0.4,2.2c0.6,1,1.2,1.4,1.8,1.4s1.4-0.2,2.7-0.4c1-0.2,1.6-0.6,1.8-1
		c0.2-0.4,0.4-1.2,0.4-2.2c0-1.2,0-2,0-2.7C61.2,96.5,60.7,95.9,59.5,95.7z M55.4,84.7l-0.8-0.6L54,84.9v0.8l1,0.2L55.4,84.7z
		 M55.2,58l-0.6,0.2l-0.2,0.6l0.8,0.4l0.4-0.8L55.2,58z M58.1,65.9c-0.2-0.4-0.4-0.8-0.6-1s-0.4-0.4-0.8-0.2
		c-0.8,0.2-1.4,0.8-1.4,1.6c0,0.6,0,0.8,0.2,1s0.6,0.2,1,0.6c0.2,0.2,0.6,0.2,0.8,0c0.2,0,0.4-0.2,0.6-0.6
		C58.1,66.7,58.3,66.3,58.1,65.9z M60.9,57.5c-0.4-0.2-0.8-0.4-1-0.2s-0.6,0.4-1.2,0.8c-0.4,0.2-0.6,0.6-0.8,0.8
		c-0.2,0.2-0.2,0.6,0,1c0.2,0.6,0.4,1,0.6,1.4s0.6,0.4,1.2,0.4s1-0.2,1.2-0.6c0.2-0.4,0.4-0.8,0.4-1.4c0.2-0.6,0.2-1,0.2-1.2
		C61.8,58.4,61.6,58,60.9,57.5z M66.9,82c-0.8-0.6-1.4-0.8-1.8-0.8s-1.2,0.4-1.8,0.8c-0.8,0.4-1.2,0.8-1.2,1.2c-0.2,0.4-0.2,1,0,1.8
		c0.2,1,0.4,1.6,0.6,2.2c0.2,0.4,0.8,0.8,1.8,1c1,0,1.6-0.2,2-0.6c0.2-0.4,0.6-1.2,1-2c0.4-0.8,0.6-1.6,0.6-2S67.7,82.9,66.9,82z
		 M68.3,70.6c-0.6-0.8-1.2-1.2-1.6-1c-0.6,0.2-1.2,0.4-2.2,0.6c-0.8,0.2-1.2,0.6-1.6,0.8s-0.4,0.8-0.4,1.6s0.2,1.4,0.4,1.8
		c0.2,0.4,0.6,0.6,1.4,1c0.8,0.2,1.4,0.4,2,0.4c0.4,0,1-0.4,1.4-1c0.6-0.8,1-1.4,1.2-2C68.9,72,68.7,71.4,68.3,70.6z M65.4,50.8
		c-0.2-0.6-0.4-1-1-1c-0.4,0-0.8,0.2-1,0.8c-0.2,0.6-0.2,1,0.2,1.4c0.2,0.2,0.4,0.2,0.6,0s0.4-0.2,0.6-0.4s0.4-0.2,0.6-0.4
		C65.4,51.2,65.4,51,65.4,50.8z M65.6,58.6l-0.4-0.8l-0.8,0.6l0.4,0.6l0.6,0.4L65.6,58.6z M70.1,93.1c-0.4-0.4-0.8-0.6-1.2-0.6
		c-0.4,0-0.8,0.2-1.4,0.6c-0.6,0.4-1,0.6-1.2,1c-0.2,0.2-0.4,0.8-0.2,1.4c0.2,0.8,0.4,1.4,0.6,2c0.2,0.4,0.8,0.8,1.6,0.8
		s1.4-0.2,1.4-0.6c0.2-0.4,0.4-1.2,0.8-2c0.2-0.6,0.4-1,0.4-1.4C71,94.1,70.5,93.7,70.1,93.1z M69.5,48c-0.6-0.2-1-0.4-1.2-0.4
		c-0.4,0-0.6,0.4-1,0.8c-0.4,0.4-0.6,0.8-0.8,1c0,0.2,0,0.8,0.4,1.2c0.2,0.6,0.4,0.8,0.8,0.8c0.2,0,0.8,0,1.2,0
		c0.4-0.2,0.8-0.2,1-0.4c0.2-0.2,0.4-0.4,0.6-1c0-0.6,0-1,0-1.4C70.3,48.6,70.1,48.2,69.5,48z M70.5,60.8l-0.8-0.4l-0.6,0.8l0.4,0.6
		l0.8-0.2L70.5,60.8z M71.6,74.3l-0.8-0.2v0.8h0.8l0.4-0.4L71.6,74.3z M77.9,67.3c-0.4,0-0.6,0-0.8,0.2s-0.2,0.4-0.6,0.8
		c-0.2,0.2-0.2,0.4,0,0.6c0,0.2,0.2,0.2,0.4,0.6c0.2,0.2,0.4,0.6,0.6,0.8c0.2,0.2,0.4,0.2,0.8,0c0.4-0.2,0.4-0.4,0.4-0.6
		c0-0.2-0.2-0.6-0.2-1s-0.2-0.6-0.2-1C78.3,67.5,78.3,67.3,77.9,67.3z M89.5,75.1c0-0.6-0.2-1-0.4-1.2s-0.6-0.4-1.2-0.4
		c-0.4-0.2-0.8-0.2-1,0s-0.4,0.4-0.8,1c-0.4,0.8-0.4,1.4,0,2c0.6,0.6,1.2,0.8,2,0.6c0.6-0.2,1-0.4,1.2-0.6
		C89.5,75.9,89.5,75.5,89.5,75.1z M88.3,65.9l-1.2,0.2l-0.4,0.8l0.6,0.8l1-0.6V65.9z M90.5,87.8l-0.4-0.8l-0.8,0.4v1h0.8L90.5,87.8z
		 M91,81.2l-0.8,0.6l-0.2,1.2l1.2-0.2L92,82L91,81.2z M92.4,95.1h-0.8l-0.4,0.8l0.6,0.8l0.6-0.6L92.4,95.1z M92.6,100.6h-1v1
		l0.8,0.2l0.4-0.8L92.6,100.6z M96.3,66.3c-0.6-0.6-1-0.8-1.4-1s-1,0-1.6,0.4c-0.8,0.4-1.2,0.8-1.2,1.2c-0.2,0.4-0.2,1,0,1.8
		c0.2,1,0.4,1.8,0.6,2.4c0.2,0.6,0.8,1,1.8,1s1.8-0.2,2-0.8s0.6-1.2,1-2.2c0.4-0.8,0.4-1.4,0.2-1.8C97.3,67.3,96.9,66.9,96.3,66.3z
		 M101.2,79.4c-1-0.6-1.8-0.6-2.2,0s-1.2,1.2-2,2c-1,0.8-1.8,1.4-2.4,1.8c-0.6,0.4-0.8,1.2-0.4,2.2c0.6,1.2,1.2,1.8,1.8,2
		c0.8,0.2,1.8,0.2,3.1,0s2-0.4,2.4-0.8c0.4-0.4,0.8-1.2,1.2-2.2c0.2-1.2,0.4-2.2,0.4-3.1S102.2,80,101.2,79.4z M97.9,99.8
		c-0.4-0.6-1-0.8-1.8-0.6c-0.4,0-0.6,0.2-0.6,0.4s0,0.6,0,1s0,0.8-0.2,1.2c0,0.2,0,0.6,0.4,0.8c0.4,0.2,0.8,0.2,1,0s0.4-0.6,0.8-1
		c0.2-0.4,0.4-0.6,0.4-0.8C98.1,100.6,98.1,100.2,97.9,99.8z M97.3,75.3l-0.8-0.2l-0.4,0.8l0.4,0.8l0.8-0.6V75.3z M100.6,92.5
		c-0.4-0.2-0.6-0.4-0.8-0.4s-0.6,0.2-1,0.6c-0.4,0.2-0.8,0.6-1,0.8c-0.2,0.2-0.4,0.4-0.2,1s0.4,0.8,0.6,1c0.2,0,0.8,0.2,1.2,0.2
		c0.6,0,1,0,1.2-0.2s0.4-0.4,0.6-0.8C101.6,93.7,101.4,93.1,100.6,92.5z"/>
	<path class="st0" d="M137.3,106.7c-7.8,0-14.1-1.8-18.8-5.7c-4.7-3.9-6.9-10-6.9-18.4V82c0.2-7.8,2.4-13.7,7.1-17.6
		c4.7-4.1,10.8-6.1,18.4-6.1c5.9,0,10.6,1,14.5,3.3c3.7,2.2,6.5,5.3,8.4,9c1.8,3.7,2.7,7.8,2.7,12.2v2.7c0,0.6-0.2,1.2-0.8,1.6
		c-0.4,0.4-1,0.8-1.6,0.8h-26.7v0.2c0,1.8,0.2,3.1,0.8,4.1c0.4,1,1.4,1.4,2.7,1.4c0.6,0,1-0.2,1.4-0.4s0.8-0.6,1.2-1.2
		c0.6-0.6,1-0.8,1.4-1c0.4-0.2,0.8-0.2,1.6-0.2h16.9c0.6,0,1,0.2,1.4,0.6c0.4,0.4,0.6,0.8,0.4,1.4c0,1.2-0.6,2.4-1.6,4.1
		c-1,1.6-2.4,3.1-4.5,4.7c-2,1.4-4.5,2.7-7.6,3.7C144.9,106.1,141.4,106.7,137.3,106.7z M120.1,83.7c-0.8-0.2-1.2-0.2-1.6,0
		c-0.4,0.2-0.6,0.6-1,1.2c-0.2,0.6-0.4,1-0.2,1.2s0.4,0.6,0.8,1.2c0.2,0.4,0.6,0.6,0.8,0.8s0.6,0,1-0.2c0.8-0.2,1.2-0.8,1.2-1.6
		c0-0.6,0-1.2,0-1.6S120.8,83.9,120.1,83.7z M120.6,70.8c-0.4-0.2-0.6-0.2-0.8,0s-0.4,0.4-0.6,0.6c-0.4,0.4-0.6,0.6-1,0.8
		c-0.2,0.2-0.2,0.6,0,1s0.6,0.6,0.8,0.4c0.2-0.2,0.8-0.2,1.2-0.4c0.6-0.2,0.8-0.4,0.8-1c0-0.4,0-0.6,0-0.8
		C121.2,71.2,121,71,120.6,70.8z M123.8,79.4c-0.2-0.4-0.6-0.6-0.8-0.6s-0.6,0-1.2,0.2c-0.6,0.2-0.8,0.4-1,0.6
		c-0.2,0.2-0.2,0.6-0.2,1.2c0,0.6,0,1.2,0.2,1.4c0,0.4,0.4,0.6,1,0.8s1.2,0.2,1.4,0s0.6-0.6,1-1.2c0.4-0.4,0.4-0.8,0.4-1.2
		C124.4,80.2,124.2,79.8,123.8,79.4z M123.2,91.2c0-0.4,0-0.8,0-1s-0.2-0.4-0.4-0.4c-0.4-0.2-0.6-0.2-0.8,0s-0.4,0.4-0.6,0.8
		c-0.2,0.2-0.2,0.4-0.2,0.6s0.2,0.4,0.4,0.6c0.2,0.2,0.4,0.6,0.6,0.8c0.2,0.2,0.4,0.2,0.8,0.2c0.4-0.2,0.4-0.2,0.4-0.6
		C123.2,91.8,123.2,91.4,123.2,91.2z M124.2,65.3c-0.6,0-0.8,0.2-1,0.4s-0.2,0.6-0.4,1.2c-0.2,0.2-0.2,0.6,0,0.8s0.4,0.4,0.6,0.6
		c0.2,0.2,0.6,0.6,0.8,0.8s0.4,0.2,0.8,0c0.4-0.2,0.6-0.6,0.8-0.8s0-0.6,0-1.2c-0.2-0.6-0.2-1-0.4-1.2
		C125.3,65.5,124.8,65.3,124.2,65.3z M127.7,71.8c-0.8-0.4-1.2-0.4-1.6-0.4c-0.4,0-0.8,0.4-1.2,0.8c-0.6,0.6-0.8,1-0.8,1.4
		s0.2,0.8,0.6,1.6c0.2,0.6,0.6,0.8,1,0.8s0.8-0.2,1.6-0.4c0.6-0.2,1-0.2,1.4-0.4s0.6-0.4,0.6-1c0-0.8,0-1.2-0.2-1.6
		C128.7,72.4,128.3,72,127.7,71.8z M129.3,91c-0.6-0.6-1.2-0.6-1.8-0.2c-0.4,0.2-0.8,0.6-1,0.8c-0.2,0.2-0.2,0.6-0.2,1
		c0.2,0.6,0.4,0.8,0.6,0.8c0.2,0,0.8,0.2,1.2,0.2c0.4,0,1,0.2,1.2,0.2c0.2,0,0.6-0.2,0.8-0.6c0.2-0.4,0.2-0.8,0-1
		C129.9,91.8,129.7,91.4,129.3,91z M128.1,98.6c-0.4,0-0.6,0-0.8,0.2c-0.2,0.2-0.4,0.4-0.4,0.8c-0.2,0.4-0.4,0.6-0.4,0.8
		s0,0.4,0.4,0.8c0.4,0.4,0.8,0.6,1,0.8c0.2,0.2,0.6,0.2,1-0.2c0.4-0.2,0.6-0.4,0.4-0.8c-0.2-0.4-0.2-0.6-0.2-1.2
		c0-0.4-0.2-0.6-0.2-0.8C128.7,98.8,128.5,98.8,128.1,98.6z M128.3,80.2c-0.4,0-0.8,0-0.8,0.2c-0.2,0.2-0.2,0.6-0.6,1
		c-0.2,0.4-0.4,0.8-0.4,1c-0.2,0.2,0,0.6,0.4,0.8c0.4,0.4,0.8,0.6,1,0.6s0.8-0.2,1.2-0.4s0.8-0.6,1-0.8c0.2-0.2,0.2-0.6,0-1.2
		c-0.2-0.6-0.4-1-0.6-1.2C129.3,80.4,128.9,80.2,128.3,80.2z M131.4,96.7l-0.8-0.6l-0.6,0.8l0.6,0.6h0.8V96.7z M133.6,76.5h2.7
		c0-0.2-0.2-0.2-0.2-0.4c-0.2-1-0.4-2-0.6-2.9c-0.2-0.8,0-1.4,0-2.2c0.4-0.2,1-0.4,1.6-0.4c2.4,0,3.7,1.8,3.7,5.7h-4.5
		c0.4,1.6,0.8,3.3,1,4.5c0.2,1.2,0.6,2.4,1.4,3.1c0.6,0.8,1.8,1.2,3.7,1.2c2.2,0,4.1-0.2,5.3-0.4c1.4-0.4,2.4-1.2,3.3-2.2
		s1.6-2.7,2.2-4.9c0.6-1.8,0.6-3.1,0.2-4.1c-0.4-1-1.4-1.8-2.7-2.4c-1.2-0.8-2.7-1.6-4.1-2.9c-1.8-1.2-3.1-2-4.3-2s-2.7,0.4-4.3,1.6
		c-1.4,1-2.4,2-2.7,3.1C134.2,71.8,133.6,73.7,133.6,76.5z M142.2,97.6c0-0.8-0.2-1.2-0.2-1.6c0-0.4-0.4-0.8-1-0.8
		c-0.8-0.2-1.6-0.4-2-0.4s-1,0.4-1.4,1.2s-0.6,1.2-0.2,1.6c0.4,0.4,0.8,0.8,1.2,1.4c0.4,0.6,0.8,0.8,1.2,1s0.8,0,1.4-0.2
		c0.6-0.2,1-0.6,1-0.8C142.2,98.6,142.4,98.2,142.2,97.6z M146.3,93.5c-0.2-0.2-0.2-0.4-0.4-0.6c-0.2,0-0.4,0-0.6,0
		c-0.6,0-0.8,0.2-1,0.6c-0.2,0.4,0,0.8,0.2,1.2c0.2,0.2,0.6,0.4,0.6,0.4s0.4,0,0.6,0c0.2-0.2,0.4-0.4,0.4-0.6
		C146.3,94.1,146.3,93.9,146.3,93.5z M152.6,96.9c-0.2-0.8-0.6-1.2-0.8-1.6c-0.2-0.4-0.8-0.6-1.6-0.4c-1,0.2-1.6,0.2-2.2,0.6
		c-0.4,0.2-0.8,0.8-1,1.8c-0.2,0.8,0,1.4,0.4,1.8s1,0.8,1.8,1.2s1.4,0.8,1.8,1c0.4,0.2,1,0,1.8-0.8c0.8-0.6,0.8-1.2,0.6-1.6
		C153.2,98.4,153,97.8,152.6,96.9z"/>
	<path class="st1" d="M188.1,105.7c-0.6,0-1.2-0.2-1.6-0.8c-0.4-0.4-0.8-1-0.8-1.6V61.6c0-0.6,0.2-1.2,0.8-1.6
		c0.4-0.4,1-0.8,1.6-0.8H203c0.6,0,1.2,0.2,1.6,0.8c0.4,0.4,0.8,1,0.8,1.6v3.1c1-1.4,2.7-2.7,4.9-4.1c2.2-1.4,4.7-2,7.8-2.2
		c7.1-0.2,11.8,2.2,14.3,7.3c1.4-2,3.3-3.9,5.9-5.3c2.4-1.4,5.1-2,8-2c3.1,0,5.9,0.6,8.4,2s4.5,3.5,5.9,6.5
		c1.4,2.9,2.2,6.7,2.2,11.4v25.1c0,0.6-0.2,1.2-0.8,1.6c-0.4,0.4-1,0.8-1.6,0.8h-15.7c-0.6,0-1.2-0.2-1.6-0.8
		c-0.4-0.4-0.8-1-0.8-1.6V78.8c0-2.9-1.2-4.5-3.7-4.5c-2.2,0-3.5,1.4-3.5,4.5v24.7c0,0.6-0.2,1.2-0.8,1.6c-0.4,0.4-1,0.8-1.6,0.8
		h-15.7c-0.6,0-1.2-0.2-1.6-0.8c-0.4-0.4-0.8-1-0.8-1.6V78.8c0-2.9-1.2-4.5-3.7-4.5c-2.4,0-3.7,1.4-3.7,4.5v24.7
		c0,0.6-0.2,1.2-0.8,1.6c-0.4,0.4-1,0.8-1.6,0.8h-16.5L188.1,105.7L188.1,105.7z M191.2,72.2c-0.2-0.4-0.6-0.4-0.8-0.4
		c-0.4,0.2-0.6,0.4-0.6,0.8c0,0.2,0,0.6,0,0.8s0.2,0.4,0.4,0.4c0.2,0.2,0.6,0.2,0.8,0.2c0.2,0,0.4-0.2,0.6-0.4
		c0.2-0.2,0.2-0.4,0.2-0.6S191.2,72.4,191.2,72.2z M195.1,99.2c-0.2-0.6-0.4-1-1-0.8c-0.4,0-1,0-1.8,0c-0.6,0-1,0-1.2,0.2
		c-0.2,0.2-0.4,0.4-0.6,0.8c-0.2,0.6-0.2,1,0,1.2c0.2,0.2,0.4,0.6,0.8,0.8c0.6,0.4,1,0.6,1.2,0.8c0.2,0.2,0.6,0,1.2-0.4
		c0.6-0.4,1-0.8,1.4-1.2C195.5,100.4,195.5,100,195.1,99.2z M192.2,76.5h-0.8v0.8l0.8,0.4l0.8-0.8L192.2,76.5z M201.6,91.6
		c0-0.8-0.2-1.4-0.4-1.8c-0.2-0.4-0.8-0.6-1.6-1c-0.8-0.2-1.4-0.2-1.8-0.2c-0.4,0.2-0.8,0.4-1.4,1.2c-0.4,0.6-0.6,1.2-0.4,1.6
		c0.2,0.4,0.6,0.8,1,1.6c0.4,0.6,0.8,1,1.2,1.2s0.8,0.2,1.6,0s1.2-0.6,1.6-0.8C201.4,93.1,201.6,92.5,201.6,91.6z M198.3,62.9h-1.4
		l-0.6,1.2l1,0.4l1.2-0.2L198.3,62.9z M198.1,73.5l-0.8-0.2l-0.8,0.8l0.6,0.8l1-0.4V73.5z M199.8,65.9l-0.8,0.2l0.2,1h1l0.4-0.8
		L199.8,65.9z M202.4,97.8c-0.4-0.2-0.6-0.2-0.8,0c-0.2,0.2-0.4,0.4-0.6,0.8c-0.2,0.2-0.4,0.4-0.6,0.6c-0.2,0.2-0.2,0.4,0,0.8
		c0.2,0.4,0.4,0.6,0.6,0.8c0.2,0.2,0.4,0.2,1,0c0.4-0.2,0.6-0.2,0.4-0.6c0-0.2,0-0.6,0-1s0.2-0.8,0.2-1S202.6,97.8,202.4,97.8z
		 M203.2,65.5l-1,0.4l0.4,1l1.2,0.4l0.4-1.4L203.2,65.5z M203,83.5l-0.8,0.2v0.6l0.6,0.4l0.4-0.6L203,83.5z M204.7,79.4l-0.6-0.6
		l-0.8,0.6l0.4,0.6h0.6L204.7,79.4z M208.7,68.6l-0.8-0.6l-0.8,0.8l0.4,0.8h0.8L208.7,68.6z M212.6,61.2l-0.8,0.4l0.2,1h1.2l0.4-1
		L212.6,61.2z M218.1,85.3c-0.4-0.2-0.6-0.4-0.8-0.2c-0.2,0.2-0.4,0.2-0.8,0.4c-0.4,0.2-0.4,0.8-0.2,1.4c0.2,0.4,0.2,0.6,0.4,0.8
		c0.2,0.2,0.4,0.2,0.8,0.2c0.4,0,0.6,0,0.6-0.2s0.2-0.4,0.4-0.8c0-0.4,0.2-0.6,0.2-0.8C218.8,85.7,218.5,85.5,218.1,85.3z
		 M227.9,69.6c-0.4-1.8-0.8-3.1-1.4-3.7c-0.6-0.8-1.6-1.2-3.5-1.4c-1.8-0.2-2.9,0-3.5,0.8c-0.6,0.8-1.2,1.8-2,3.5
		c-0.6,1.2-0.8,2.4-0.6,3.1c0.2,0.8,0.8,1.6,1.8,2.7c1.2,1.2,2.4,2,3.3,2.7c0.8,0.6,2,0.4,3.5-0.4c1.6-0.8,2.4-1.8,2.7-2.9
		C228.3,72.7,228.1,71.2,227.9,69.6z M218.8,101l-0.8-0.8l-0.8,0.8l0.2,0.8h0.8L218.8,101z M222.4,93.9c-0.6-0.4-1-0.8-1.4-0.8
		s-0.8,0-1.6,0.4c-0.8,0.6-1.2,1-1.6,1.4c-0.4,0.4-0.4,1-0.2,1.8c0.2,0.8,0.6,1.2,1.2,1.2c0.6,0,1.2,0,2,0c0.6,0,1.2,0,1.4-0.2
		s0.6-0.6,0.8-1.2c0.2-0.6,0.4-1.2,0.4-1.4S222.8,94.3,222.4,93.9z M223.6,81.6c-0.4,0-0.8,0-1,0c-0.2,0-0.4,0.2-0.6,0.8
		c-0.2,0.6,0,1.2,0.4,1.6c0.2,0.2,0.6,0.2,0.8,0.2c0.2-0.2,0.4-0.2,0.8-0.6c0.4-0.2,0.6-0.6,0.6-1c-0.2-0.4-0.2-0.6-0.4-0.8
		C224.3,81.6,224.1,81.6,223.6,81.6z M228.3,91.4c0-0.6-0.4-1-0.8-1c-0.4,0-0.8,0.2-1,0.6c-0.2,0.2-0.2,0.6-0.4,0.8
		c0,0.2,0,0.4,0.2,0.6c0.4,0.6,1,0.6,1.4,0.4c0.4-0.2,0.6-0.4,0.6-0.6C228.3,92,228.3,91.8,228.3,91.4z M230.2,80.4
		c-0.4-0.2-0.6-0.4-1-0.4c-0.2,0-0.6,0.2-1,0.4c-0.6,0.4-1,0.6-1.2,0.8c-0.2,0.2-0.4,0.6-0.2,1.2c0.2,0.6,0.4,0.8,0.8,0.8
		c0.4,0,0.8,0,1.6,0c0.6,0,1,0,1.2,0c0.4,0,0.6-0.4,0.8-0.8c0.2-0.4,0.2-1,0-1.2C231,81,230.8,80.8,230.2,80.4z M230.8,94.5
		c-0.4-0.4-0.8-0.6-1.4-0.4c-0.6,0.2-0.8,0.6-0.8,1.2c0,0.4,0.4,0.8,0.8,1c0.4,0,0.6,0,0.8,0c0.2,0,0.4-0.2,0.6-0.4
		C231.2,95.5,231.2,95.1,230.8,94.5z M240.2,64.7c-0.4-0.6-0.8-0.8-1-0.8c-0.4,0.2-0.8,0.2-1.6,0.4c-0.6,0.2-0.8,0.2-1,0.4
		c-0.2,0.2-0.2,0.6-0.4,1c0,0.6,0,1,0,1.2c0.2,0.4,0.4,0.6,1,0.8c0.6,0.2,1.2,0.4,1.6,0.4c0.4,0,0.8-0.2,1.2-0.8
		c0.6-0.6,0.8-1,0.8-1.4C240.8,65.9,240.6,65.5,240.2,64.7z M244.5,69.2h-0.6V70l0.8,0.4L244.5,69.2z M247.1,65.9
		c-0.2-0.4-0.2-0.6-0.4-0.8c0-0.2-0.2-0.4-0.8-0.2c-0.4,0-0.6,0.2-0.6,0.4s-0.2,0.4-0.4,0.8c0,0.4-0.2,0.8-0.2,1s0.2,0.4,0.6,0.6
		c0.4,0.2,0.6,0.4,0.8,0.2c0.2-0.2,0.6-0.2,0.8-0.6c0.2-0.2,0.4-0.4,0.2-0.6C247.3,66.3,247.3,66.1,247.1,65.9z M246.7,78l-1-0.6
		l-0.8,0.4v0.8l1,0.4L246.7,78z M249.2,72c-0.2-0.4-0.6-0.8-0.6-1c-0.2-0.2-0.4-0.4-1-0.2c-0.6,0.2-0.8,0.4-0.8,0.6
		c0,0.4-0.2,0.8-0.2,1.2c0,0.6,0,1,0,1.2s0.4,0.6,0.8,0.8c0.6,0.2,1,0.2,1.2,0.2c0.2,0,0.6-0.4,1-0.8c0.2-0.4,0.4-0.8,0.4-1
		C249.6,72.9,249.4,72.7,249.2,72z M258.1,83.5c-0.4-1.4-1-2.2-1.8-2.4s-2-0.2-3.5-0.2c-1.2,0-2.2,0.2-2.9,0.4
		c-0.6,0.2-1.2,1-1.6,2.2c-0.6,1.4-0.8,2.7-1,3.7c-0.2,0.8,0.4,1.8,1.6,2.9c1.6,1.2,2.9,2,3.9,2.4c1,0.4,2.4,0,4.1-1
		c1.6-1.2,2.4-2.2,2.2-3.3C259.2,86.9,258.8,85.5,258.1,83.5z M248.8,62.4l-0.8-0.2l-0.6,0.4l0.4,0.8l0.8-0.2L248.8,62.4z
		 M253.5,94.3l-1,0.6l-0.6,0.8l0.8,0.2l1-0.2L253.5,94.3z M257.1,99.8c-0.4-0.6-1-0.6-1.6-0.4c-0.4,0.2-0.6,0.2-0.6,0.4s0,0.4,0,0.8
		c0,0.6,0.2,1,0.6,1s0.8,0.2,1,0.2s0.4-0.2,0.6-0.4C257.5,101,257.5,100.4,257.1,99.8z M258.4,70.2h-1v1.2l1.2,0.4l0.8-1L258.4,70.2
		z"/>
	<path class="st1" d="M294.7,84.7c-16.5,0-25.1-6.7-26.1-20c-0.2-2.9-0.2-5.7,0-8.4c0.4-6.5,3.1-11.6,7.6-14.9
		c4.5-3.5,10.8-5.1,18.6-5.1c7.8,0,13.9,1.6,18.6,5.1c4.5,3.5,7.1,8.4,7.6,14.9c0.2,2.9,0.2,5.7,0,8.4C320,78,311.2,84.7,294.7,84.7
		z M275.1,66.1c-0.4-0.2-0.8-0.4-1-0.4c-0.2,0-0.6,0.2-1,0.6c-0.6,0.4-0.8,1-0.6,1.8c0.2,0.6,0.4,1,0.6,1.2c0.2,0.2,0.6,0.4,1,0.4
		c0.4,0,0.8-0.2,0.8-0.4c0-0.4,0.2-0.8,0.2-1.2c0.2-0.4,0.4-0.8,0.4-1C275.5,66.7,275.5,66.3,275.1,66.1z M278.8,53.7
		c-0.6-1.2-1.2-2-1.6-2.7c-0.4-0.6-1.2-0.8-2.4-0.6c-1.2,0.2-1.8,0.8-1.8,1.6s0,1.8-0.2,3.1s-0.2,2-0.2,2.7s0.4,1.2,1.4,1.8
		c1.2,0.6,2.2,0.8,3.1,0.8s1.6-0.6,2.4-1.6c0.8-1,1-1.8,0.6-2.4C279.6,55.7,279.6,54.7,278.8,53.7z M277.3,74.3
		c-0.4-0.6-1-1-1.8-0.8c-0.4,0.2-0.6,0.2-0.8,0.6c0,0.2-0.2,0.6-0.2,1s0,0.8,0,1s0.2,0.4,0.6,0.6c0.4,0.2,0.8,0.2,0.8,0
		s0.4-0.4,0.8-0.8c0.2-0.4,0.6-0.6,0.6-0.8C277.7,74.9,277.7,74.7,277.3,74.3z M278.8,67.5l-0.8-0.6l-0.8,0.8l0.8,0.8h0.8V67.5z
		 M283.1,75.5c-0.4-0.2-0.6-0.2-0.8-0.2c-0.2,0-0.4,0.2-0.8,0.4c-0.2,0.2-0.4,0.6-0.6,0.8c-0.2,0.2-0.2,0.4,0,0.8
		c0.2,0.4,0.4,0.6,0.6,0.6c0.2,0,0.6,0.2,1,0c0.4,0,0.6-0.2,0.8-0.4s0.2-0.4,0.4-0.8c0-0.4,0.2-0.8,0.2-1
		C283.7,75.9,283.5,75.7,283.1,75.5z M283.5,51.2l-1-0.2l-0.4,0.8l0.8,0.4l0.4-0.4L283.5,51.2z M283.7,63.7l-0.8-0.2l-0.2,0.8
		l0.8,0.6l0.8-0.6L283.7,63.7z M284.1,59c-0.4,0-0.8,0.2-1,0.8c-0.2,0.6-0.2,1,0.2,1.4c0.4,0.4,1,0.4,1.4,0c0.6-0.4,0.8-0.8,0.6-1.4
		c0-0.4-0.2-0.6-0.4-0.6S284.5,59,284.1,59z M288.4,40.8c-0.2-0.6-0.6-0.8-1-0.8c-0.4,0-0.8,0.2-1.4,0.2c-0.6,0-1,0.2-1.2,0.2
		c-0.4,0-0.6,0.4-0.6,0.8c-0.2,0.6-0.2,1.2,0,1.4c0.2,0.2,0.4,0.6,1,0.8c0.6,0.4,1.2,0.6,1.4,0.6c0.4,0,0.8-0.2,1.4-0.6
		c0.6-0.4,0.8-0.8,0.8-1.2S288.6,41.4,288.4,40.8z M287.3,68.2l-1-0.6l-1,0.8l0.6,0.8l1,0.2L287.3,68.2z M289,51.6
		c-0.2-0.4-0.4-0.6-0.6-0.6c-0.2,0-0.6,0-1,0c-0.6,0-1,0.2-1.2,0.6c-0.2,0.2-0.2,0.6,0,0.6s0.2,0.4,0.6,0.6c0.2,0.2,0.4,0.4,0.6,0.6
		c0.2,0.2,0.4,0,0.8,0c0.4-0.2,0.6-0.4,0.8-0.6S289,52,289,51.6z M290.8,45.3c-0.2-0.2-0.6-0.6-0.8-0.6c-0.2-0.2-0.4-0.2-0.8,0
		c-0.4,0.2-0.4,0.2-0.4,0.6c0,0.2,0.2,0.6,0.2,0.8c0,0.4,0.2,0.8,0.6,0.8c0.4,0,0.6,0.2,0.8,0.2c0.2,0,0.4,0,0.6-0.4
		c0.2-0.4,0.2-0.6,0-0.8C291.2,45.7,291.2,45.5,290.8,45.3z M294.9,75.9c0-0.8-0.2-1.4-0.4-1.8c-0.2-0.4-0.8-0.6-1.6-0.8
		s-1.4-0.4-1.8-0.4c-0.4,0-0.8,0.4-1.4,1.2c-0.4,0.6-0.4,1-0.2,1.2c0.4,0.4,0.8,0.8,1.2,1.4c0.2,0.4,0.6,0.6,0.8,0.8
		c0.2,0.2,0.6,0,1,0c0.8-0.2,1.2-0.4,1.6-0.4C294.7,77.1,294.9,76.7,294.9,75.9z M294.7,70.2c1.8,0,2.9-0.4,3.3-1.4
		c0.4-1,0.6-2.4,0.8-4.7c0-0.8,0-2.2,0-3.7s0-2.9,0-3.7c-0.2-2-0.4-3.5-0.8-4.5c-0.4-1-1.4-1.6-3.3-1.6c-1.6,0-2.7,0.6-3.3,1.6
		c-0.4,1-0.8,2.7-0.8,4.5c0,0.8,0,2.2,0,3.7s0,2.9,0,3.7c0.2,2,0.4,3.7,0.8,4.7C292,69.8,293.1,70.2,294.7,70.2z M293.5,42.8
		l-0.8-0.6l-0.8,0.6l0.2,0.8l0.8-0.4L293.5,42.8z M299.2,74.5c-0.4-0.2-0.8-0.4-1.2-0.6c-0.2-0.2-0.6,0-1,0.4
		c-0.4,0.4-0.4,0.6-0.2,1c0.2,0.2,0.4,0.6,0.6,1c0.2,0.4,0.4,0.6,0.4,0.8s0.4,0.2,0.8,0.2c0.6,0,1-0.2,1.4-0.2c0.4,0,0.6-0.4,0.6-1
		s0-0.8-0.4-1C300.2,74.9,299.8,74.7,299.2,74.5z M301.2,79.4l-1.2-0.2l-0.6,1.2l1,0.4l0.8-0.2V79.4z M302.7,44.9
		c-0.2-0.4-0.4-0.6-0.6-0.8c-0.2-0.2-0.6,0-1,0c-0.4,0-0.6,0.2-0.6,0.4s0,0.4-0.2,0.8c0,0.4-0.2,0.8-0.2,1s0,0.4,0.4,0.6
		c0.4,0.2,0.8,0.4,1.2,0.4c0.4,0,0.6-0.2,1-0.6c0.4-0.4,0.6-0.6,0.4-1C302.9,45.7,302.9,45.3,302.7,44.9z M304.1,39.6
		c-0.2-0.4-0.4-0.6-0.8-0.4c-0.2,0.2-0.6,0.2-1.2,0.2c-0.4,0-0.6,0-0.8,0c-0.2,0-0.2,0.2-0.4,0.6s-0.4,0.8-0.4,1.2
		c0,0.2,0,0.6,0.4,0.8c0.4,0.2,0.8,0.4,1,0.4c0.2,0,0.6-0.2,1-0.6c0.4-0.4,0.6-0.6,0.8-0.8C304.3,40.6,304.3,40.2,304.1,39.6z
		 M312.7,49.2c-1-1.4-2-2.4-2.9-2.9s-2-0.4-3.9,0.2c-1.6,0.6-2.4,1.4-2.4,2.4s0,2.4,0,4.1c0,1.2,0.4,2,1,2.4c0.6,0.4,1.4,0.6,2.9,1
		c1.2,0.4,2,0.6,2.7,0.6c0.6,0,1.4-0.4,2-1.4c0.8-1.2,1.4-2.4,1.8-3.1C313.9,51.4,313.7,50.4,312.7,49.2z M308.8,75.1
		c-0.4-0.4-0.8-0.6-1.2-0.6c-0.4,0-0.8,0.2-1.4,0.4c-0.6,0.2-1,0.6-1.2,0.8s-0.4,0.6-0.4,1.2c0.2,0.8,0.4,1.6,0.4,2
		c0.2,0.4,0.6,0.8,1.4,1c0.8,0.2,1.4,0,1.4-0.6c0-0.6,0.4-1.2,0.8-1.8c0.2-0.6,0.4-1,0.4-1.4C309.4,75.9,309.2,75.5,308.8,75.1z
		 M317.8,64.1c-0.4-1.2-1-1.8-1.8-1.6s-1.8,0.2-3.3,0.4c-1,0.2-1.8,0.4-2.2,0.6c-0.4,0.2-0.8,1-1,2c-0.2,1-0.2,1.8,0,2.4
		c0.2,0.6,0.8,1,1.6,1.6c1.2,0.8,2,1.2,2.9,1.6c0.6,0.4,1.6,0,2.7-0.8c1.2-1,1.8-2,2-2.9C318.4,66.7,318.2,65.5,317.8,64.1z"/>
	<path class="st1" d="M352.5,106.7c-16.5,0-25.1-6.7-26.1-20c-0.2-2.9-0.2-5.7,0-8.4c0.4-6.5,3.1-11.6,7.6-14.9
		c4.5-3.5,10.8-5.1,18.6-5.1c7.8,0,13.9,1.6,18.6,5.1c4.5,3.5,7.1,8.4,7.6,14.9c0.2,2.9,0.2,5.7,0,8.4
		C377.6,100,368.8,106.7,352.5,106.7z M332.7,88.2c-0.4-0.2-0.8-0.4-1-0.4c-0.2,0-0.6,0.2-1,0.6c-0.6,0.4-0.8,1-0.6,1.8
		c0.2,0.6,0.4,1,0.6,1.2c0.2,0.2,0.6,0.4,1,0.4c0.4,0,0.8-0.2,0.8-0.4c0-0.4,0.2-0.8,0.2-1.2c0.2-0.4,0.4-0.8,0.4-1
		C333.3,88.8,333.1,88.4,332.7,88.2z M336.5,75.7c-0.6-1.2-1.2-2-1.6-2.7c-0.4-0.6-1.2-0.8-2.4-0.6c-1.2,0.2-1.8,0.8-1.8,1.6
		s0,1.8-0.2,3.1c-0.2,1.2-0.2,2-0.2,2.7s0.4,1.2,1.4,1.8c1.2,0.6,2.2,0.8,3.1,0.8s1.6-0.6,2.4-1.6c0.8-1,1-1.8,0.6-2.4
		C337.4,77.8,337.2,76.7,336.5,75.7z M335.1,96.3c-0.4-0.6-1-1-1.8-0.8c-0.4,0.2-0.6,0.2-0.8,0.6c0,0.2-0.2,0.6-0.2,1s0,0.8,0,1
		s0.2,0.4,0.6,0.6c0.4,0.2,0.8,0.2,0.8,0s0.4-0.4,0.8-0.8c0.2-0.4,0.6-0.6,0.6-0.8C335.3,96.9,335.3,96.7,335.1,96.3z M336.3,89.6
		l-0.8-0.6l-0.8,0.8l0.8,0.8h0.8V89.6z M340.8,97.6c-0.4-0.2-0.6-0.2-0.8-0.2s-0.4,0.2-0.8,0.4c-0.2,0.2-0.4,0.6-0.6,0.8
		s-0.2,0.4,0,0.8c0.2,0.4,0.4,0.6,0.6,0.6c0.2,0,0.6,0.2,1,0c0.4,0,0.6-0.2,0.8-0.4s0.2-0.4,0.4-0.8c0-0.4,0.2-0.8,0.2-1
		C341.2,98,341,97.8,340.8,97.6z M341,73.3l-1-0.2l-0.4,0.8l0.8,0.4l0.4-0.2L341,73.3z M341.2,85.7l-0.8-0.2l-0.2,0.8l0.8,0.6
		l0.8-0.6L341.2,85.7z M341.6,81c-0.4,0-0.8,0.2-1,0.8c-0.2,0.6-0.2,1,0.2,1.4c0.4,0.4,1,0.4,1.4,0c0.6-0.4,0.8-0.8,0.6-1.4
		c0-0.4-0.2-0.6-0.4-0.6S342.1,81,341.6,81z M345.9,62.9c-0.2-0.6-0.6-0.8-1-0.8c-0.4,0-0.8,0.2-1.4,0.2c-0.6,0-1,0.2-1.2,0.2
		c-0.4,0-0.6,0.4-0.6,0.8c-0.2,0.6-0.2,1.2,0,1.4s0.4,0.6,1,0.8c0.6,0.4,1.2,0.6,1.4,0.6c0.4,0,0.8-0.2,1.4-0.6
		c0.6-0.4,0.8-0.8,0.8-1.2C346.3,63.9,346.3,63.5,345.9,62.9z M345.1,90.2l-1-0.6l-1,0.8l0.6,0.8l1,0.2L345.1,90.2z M346.5,73.7
		c-0.2-0.4-0.4-0.6-0.6-0.6c-0.2,0-0.6,0-1,0c-0.6,0-1,0.2-1.2,0.6c-0.2,0.2-0.2,0.6,0,0.6s0.2,0.4,0.6,0.6c0.2,0.2,0.4,0.4,0.6,0.6
		c0.2,0.2,0.4,0,0.8,0c0.4-0.2,0.6-0.4,0.8-0.6S346.7,74.1,346.5,73.7z M348.6,67.3c-0.2-0.2-0.6-0.6-0.8-0.6
		c-0.2-0.2-0.4-0.2-0.8,0c-0.4,0.2-0.4,0.2-0.4,0.6c0,0.2,0.2,0.6,0.2,0.8c0,0.4,0.2,0.8,0.6,0.8c0.4,0,0.6,0.2,0.8,0.2
		c0.2,0,0.4,0,0.6-0.4c0.2-0.4,0.2-0.6,0-0.8C349,67.8,348.8,67.5,348.6,67.3z M352.7,98c0-0.8-0.2-1.4-0.4-1.8
		c-0.2-0.4-0.8-0.6-1.6-0.8s-1.4-0.4-1.8-0.4c-0.4,0-0.8,0.4-1.4,1.2c-0.4,0.6-0.4,1-0.2,1.2c0.4,0.4,0.8,0.8,1.2,1.4
		c0.2,0.4,0.6,0.6,0.8,0.8s0.6,0,1,0c0.8-0.2,1.2-0.4,1.6-0.4C352.5,99.2,352.7,98.8,352.7,98z M352.5,92.3c1.8,0,2.9-0.4,3.3-1.4
		c0.4-1,0.6-2.4,0.8-4.7c0-0.8,0-2.2,0-3.7s0-2.9,0-3.7c-0.2-2-0.4-3.5-0.8-4.5c-0.4-1-1.4-1.6-3.3-1.6c-1.6,0-2.7,0.6-3.3,1.6
		c-0.4,1-0.8,2.7-0.8,4.5c0,0.8,0,2.2,0,3.7s0,2.9,0,3.7c0.2,2,0.4,3.7,0.8,4.7C349.6,91.8,350.8,92.3,352.5,92.3z M351.2,64.9
		l-0.8-0.6l-0.8,0.6l0.2,0.8l0.8-0.4L351.2,64.9z M357,96.5c-0.4-0.2-0.8-0.4-1.2-0.6c-0.2-0.2-0.6,0-1,0.4c-0.4,0.4-0.4,0.6-0.2,1
		c0.2,0.2,0.4,0.6,0.6,1c0.2,0.4,0.4,0.6,0.4,0.8s0.4,0.2,0.8,0.2c0.6,0,1-0.2,1.4-0.2c0.4,0,0.6-0.4,0.6-1s0-0.8-0.4-1
		C357.8,96.9,357.4,96.7,357,96.5z M358.8,101.4l-1.2-0.2l-0.6,1.2l1,0.4l0.8-0.2V101.4z M360.2,66.9c-0.2-0.4-0.4-0.6-0.6-0.8
		c-0.2-0.2-0.6,0-1,0c-0.4,0-0.6,0.2-0.6,0.4s0,0.4-0.2,0.8c0,0.4-0.2,0.8-0.2,1s0,0.4,0.4,0.6c0.4,0.2,0.8,0.4,1.2,0.4
		c0.4,0,0.6-0.2,1-0.6c0.4-0.4,0.6-0.6,0.4-1C360.6,67.8,360.4,67.3,360.2,66.9z M361.7,61.6c-0.2-0.4-0.4-0.6-0.8-0.4
		c-0.2,0.2-0.6,0.2-1.2,0.2c-0.4,0-0.6,0-0.8,0c-0.2,0-0.2,0.2-0.4,0.6c-0.2,0.4-0.4,0.8-0.4,1.2c0,0.2,0,0.6,0.4,0.8
		c0.4,0.2,0.8,0.4,1,0.4c0.2,0,0.6-0.2,1-0.6c0.4-0.4,0.6-0.6,0.8-0.8C361.9,62.7,361.9,62.2,361.7,61.6z M370.2,71.2
		c-1-1.4-2-2.4-2.9-2.9c-0.8-0.4-2-0.4-3.9,0.2c-1.6,0.6-2.4,1.4-2.4,2.4s0,2.4,0,4.1c0,1.2,0.4,2,1,2.4c0.6,0.4,1.4,0.6,2.9,1
		c1.2,0.4,2,0.6,2.7,0.6c0.6,0,1.4-0.4,2-1.4c0.8-1.2,1.4-2.4,1.8-3.1C371.7,73.5,371.2,72.4,370.2,71.2z M366.3,97.2
		c-0.4-0.4-0.8-0.6-1.2-0.6c-0.4,0-0.8,0.2-1.4,0.4c-0.6,0.2-1,0.6-1.2,0.8s-0.4,0.6-0.4,1.2c0.2,0.8,0.4,1.6,0.4,2
		c0.2,0.4,0.6,0.8,1.4,1c0.8,0.2,1.4,0,1.4-0.6s0.4-1.2,0.8-1.8c0.2-0.6,0.4-1,0.4-1.4C367,98,366.8,97.6,366.3,97.2z M375.3,86.1
		c-0.4-1.2-1-1.8-1.8-1.6s-1.8,0.2-3.3,0.4c-1,0.2-1.8,0.4-2.2,0.6c-0.4,0.2-0.8,1-1,2c-0.2,1-0.2,1.8,0,2.4c0.2,0.6,0.8,1,1.6,1.6
		c1.2,0.8,2,1.2,2.9,1.6c0.6,0.4,1.6,0,2.7-0.8c1.2-1,1.8-2,2-2.9C376.1,88.8,375.9,87.6,375.3,86.1z"/>
	<path class="st1" d="M387.8,105.7c-0.6,0-1.2-0.2-1.6-0.8c-0.4-0.4-0.8-1-0.8-1.6V61.6c0-0.6,0.2-1.2,0.8-1.6
		c0.4-0.4,1-0.8,1.6-0.8h15.7c0.6,0,1.2,0.2,1.6,0.8c0.4,0.4,0.8,1,0.8,1.6v3.1c1.4-1.8,3.5-3.3,6.1-4.5c2.7-1.2,5.5-1.8,8.8-1.8
		c3.1,0,5.9,0.8,8.6,2.2c2.7,1.4,4.7,3.7,6.3,6.7s2.4,6.9,2.4,11.6v24.7c0,0.6-0.2,1.2-0.8,1.6c-0.4,0.4-1,0.8-1.6,0.8h-17.1
		c-0.6,0-1.2-0.2-1.6-0.8c-0.4-0.4-0.8-1-0.8-1.6V79.2c0-3.3-1.4-4.9-4.5-4.9s-4.5,1.6-4.5,4.9v24.1c0,0.6-0.2,1.2-0.8,1.6
		c-0.4,0.4-1,0.8-1.6,0.8C404.7,105.7,387.8,105.7,387.8,105.7z M388.8,78.8l-0.8-0.6l-0.6,0.8l0.4,0.6l0.8,0.2L388.8,78.8z
		 M390.2,101H389l-0.8,0.8l0.6,1.2l1.2-0.6L390.2,101z M392.5,60.8c-0.6,0-1,0-1.2,0s-0.6,0.4-0.8,0.8c-0.2,0.4-0.4,0.8-0.2,1
		c0,0.2,0.4,0.6,0.8,1c0.4,0.4,0.6,0.6,1,0.8c0.2,0.2,0.6,0,1-0.2c0.6-0.2,0.8-0.6,1-0.8c0.2-0.2,0.2-0.6,0-1.2
		c-0.2-0.6-0.2-1-0.6-1.2C393.5,61,393.1,60.8,392.5,60.8z M392.7,73.7c-0.8-0.2-1.2,0-1.6,0.6c-0.2,0.4-0.4,0.8-0.6,1
		c-0.2,0.2,0,0.6,0.2,1c0.4,0.4,0.6,0.6,1,0.4c0.2-0.2,0.6-0.2,1.2-0.4c0.4-0.2,0.6-0.4,0.6-0.6c0-0.2,0-0.4,0-0.8
		c0-0.4,0-0.8-0.2-0.8C393.3,74.1,393.1,73.9,392.7,73.7z M393.5,68.8c-0.2-0.2-0.4-0.4-0.4-0.4c-0.2,0-0.4,0-0.8,0
		c-0.6,0.2-0.8,0.4-0.8,0.8c0,0.4,0.2,0.8,0.6,1c0.4,0.2,0.8,0,1-0.2c0.2-0.2,0.4-0.4,0.4-0.6C393.7,69.4,393.5,69.2,393.5,68.8z
		 M394.5,97.8c-0.4-0.4-0.8-0.6-1-0.8s-0.6,0-1,0.2c-0.4,0.2-0.8,0.6-0.8,0.8s0,0.8,0.2,1.2c0.2,0.6,0.4,1,0.4,1.2
		c0.2,0.2,0.4,0.4,1,0.4c0.6,0,1,0,1.2-0.2s0.6-0.6,0.8-1s0.2-0.8,0-1S394.9,98.2,394.5,97.8z M393.1,94.1l-0.8-0.4l-0.4,0.8
		l0.6,0.6h1L393.1,94.1z M398.2,83.1c-0.6-0.8-1.2-1.4-1.6-1.6c-0.4-0.2-1.2-0.2-2.2,0s-1.4,0.6-1.4,1.2s-0.2,1.2-0.2,2.2
		s0,1.6,0,2.2c0,0.6,0.6,1,1.4,1.4c0.8,0.2,1.4,0.2,1.8-0.2c0.4-0.4,0.8-1,1.2-1.8c0.6-0.8,1-1.2,1.4-1.6
		C398.8,84.3,398.8,83.9,398.2,83.1z M397.6,63.1l-0.8-0.4l-0.8,0.4v1.2h1.2L397.6,63.1z M402.3,72c-0.2-0.4-0.6-0.8-0.8-1.2
		c-0.2-0.4-0.6-0.4-1.2-0.2c-0.6,0.2-1,0.4-1,0.8s-0.2,0.8-0.2,1.4c0,0.8,0.4,1.4,1.2,1.8c0.4,0.2,0.8,0,0.8,0
		c0.2-0.2,0.4-0.4,0.8-0.8c0.2-0.2,0.4-0.6,0.6-0.8C402.7,72.9,402.7,72.4,402.3,72z M400.8,68.2l-0.8-0.6l-0.8,0.4l0.4,0.8l1,0.2
		L400.8,68.2z M403.7,98.8c-0.6-0.6-1.2-0.6-1.8-0.2c-0.6,0.4-1,0.6-1.2,0.8c-0.4,0.2-0.4,0.6-0.2,1.2c0.2,0.8,0.2,1.2,0.6,1.6
		c0.2,0.4,0.8,0.6,1.4,0.6c0.6,0,1,0,1.2-0.4s0.4-0.8,0.6-1.4c0.2-0.4,0.2-0.8,0.2-1C404.3,99.4,404.1,99.2,403.7,98.8z M403.1,80.4
		c-0.2-0.6-0.4-1-1-1.2s-1.2,0.2-1.4,0.8c-0.2,0.6-0.2,1,0.2,1.4c0.2,0.2,0.6,0.4,0.8,0.4s0.4-0.2,0.8-0.2c0.2-0.2,0.6-0.4,0.6-0.4
		C403.1,81,403.3,80.8,403.1,80.4z M403.1,89c-0.4,0-0.8,0-0.8,0.4c-0.2,0.2-0.4,0.6-0.4,0.8c-0.2,0.2-0.2,0.4,0.2,0.6
		c0.4,0.4,1,0.6,1.6,0.2c0.2-0.2,0.4-0.2,0.4-0.4s0-0.4,0-0.8C403.7,89.2,403.5,89,403.1,89z M403.1,93.3l-1-0.2v1l0.6,0.6l0.8-0.6
		L403.1,93.3z M404.9,68.8l-1-0.6l-0.6,1l0.4,0.8h1L404.9,68.8z M409,69c-0.6-0.2-1-0.2-1.2-0.4c-0.2,0-0.6,0.2-1,0.6
		c-0.4,0.4-0.4,0.8-0.4,1c0.2,0.2,0.4,0.6,0.6,1c0.2,0.4,0.4,0.6,0.8,0.8c0.2,0,0.6,0,1,0c0.4-0.2,0.8-0.2,1-0.4
		c0.2-0.2,0.4-0.6,0.4-1c0-0.6,0-0.8-0.2-1C409.8,69.4,409.6,69.2,409,69z M416.2,68.6c-0.4-0.2-0.8-0.2-1-0.2s-0.6,0.2-0.8,0.6
		c-0.2,0.4-0.4,0.8-0.6,1c0,0.2,0,0.6,0.4,1.2c0.2,0.4,0.6,0.4,0.8,0.4s0.6-0.2,1-0.4c0.6-0.2,1-0.6,1-1.4
		C417.2,69.2,417,68.8,416.2,68.6z M428.2,83.1c-1-0.8-2-1.4-2.7-1.6c-0.8-0.2-1.6,0-2.7,0.8c-1.2,1-2.2,1.8-2.9,2.4
		c-0.6,0.8-0.6,1.8-0.2,3.5c0.6,1.6,1.2,2.7,2,3.1s2,0.6,3.9,0.6c1.4,0,2.4-0.4,2.9-1c0.4-0.6,0.8-1.6,1.4-3.1
		c0.4-1.2,0.4-2,0.2-2.7C429.8,84.5,429.2,83.9,428.2,83.1z M423.9,99.6c-0.6-0.2-1-0.2-1.2,0.2c-0.2,0.4-0.2,0.8,0,1.2
		c0.4,0.6,0.8,0.8,1.2,0.6c0.4-0.2,0.6-0.4,0.6-1C424.5,100,424.3,99.8,423.9,99.6z M428.2,71.2c-0.6-0.4-1-0.8-1.4-1
		c-0.4-0.2-0.8-0.2-1.4,0.2c-0.8,0.4-1,0.8-1,1.2s0.2,1,0.4,1.8s0.2,1.4,0.4,1.8c0.2,0.4,0.6,0.8,1.4,0.8c0.8,0,1.4-0.2,1.6-0.4
		c0.2-0.4,0.6-1,1-1.8c0.2-0.6,0.2-1.2,0.2-1.4C429,72,428.6,71.6,428.2,71.2z M426.8,95.9l-0.6-0.8l-0.8,0.8l0.4,0.6h0.6
		L426.8,95.9z M435.5,100.2c-0.4-0.4-0.6-0.4-1-0.4c-0.2,0.2-0.6,0.4-0.8,0.4c-0.2,0-0.2,0.4-0.2,0.8c0,0.2,0.2,0.4,0.4,0.6
		c0.2,0,0.4,0.2,0.8,0.2c0.6,0,1,0,1.2-0.4c0.2-0.2,0.2-0.4,0-0.6C435.8,100.6,435.8,100.4,435.5,100.2z M435.3,77.8l-0.6-0.2
		l-0.8,0.4l0.4,0.8h0.8L435.3,77.8L435.3,77.8z M436.6,92l-1.2-0.2l-0.4,0.8l0.2,0.8l0.8-0.4L436.6,92z"/>
	<path class="st1" d="M460.3,83.1c-0.4,0-0.8-0.2-1.2-0.4c-0.4-0.4-0.6-0.6-0.6-1c0-0.2,0-0.6,0-0.8c0.6-2,1.6-4.1,3.3-5.7
		c1.4-1.8,3.1-3.5,4.7-4.9c1.6-1.4,3.1-2.9,4.3-4.1c1.2-1.2,1.8-2.4,1.8-3.5c0-0.8-0.2-1.6-0.8-2s-1.2-0.8-2.2-0.8
		c-1.8,0-3.1,0.4-3.7,1c-0.6,0.8-1.2,1.4-1.6,2.2c-0.2,0.6-0.6,1.2-1,1.6c-0.4,0.4-1.2,0.6-2.2,0.6h-16.7c-0.6,0-1-0.2-1.6-0.8
		c-0.4-0.4-0.6-1.2-0.6-2c0-2.2,0.6-4.7,1.8-6.9c1.2-2.4,2.9-4.5,5.3-6.5s5.3-3.7,9-4.9c3.7-1.2,8-1.8,12.9-1.8
		c5.3,0,9.4,0.6,12.7,1.8c3.3,1.2,5.9,2.7,7.6,4.5c1.8,1.8,3.1,3.7,3.7,5.5c0.8,1.8,1,3.5,1,4.9c0,2.4-0.4,4.5-1.2,6.5
		c-0.8,1.8-2,3.7-3.3,5.3c-1.4,1.6-2.7,3.1-4.1,4.5c-1.4,1.4-2.7,2.9-3.9,4.1c-0.2,0.2-0.4,0.4-0.6,0.6c-0.2,0.2-0.4,0.4-0.4,0.6
		c-0.6,0.8-1,1.6-1.4,2c-0.4,0.4-1,0.6-1.8,0.6L460.3,83.1L460.3,83.1z M452.5,53.9c-0.2-0.4-0.6-0.8-1.2-0.8c-0.4,0-0.6,0-0.6,0.2
		s-0.2,0.4-0.2,0.6c0,0.4-0.2,0.6-0.2,0.8s0,0.4,0.4,0.6c0.2,0.2,0.4,0.2,0.6,0.2c0.2-0.2,0.4-0.4,0.6-0.4c0.2-0.2,0.4-0.4,0.6-0.4
		C452.5,54.5,452.5,54.3,452.5,53.9z M452.9,59.8c-0.6-0.4-1.4-0.4-2,0c-0.4,0.2-0.4,0.4-0.4,0.8c0,0.2,0.2,0.6,0.4,1
		c0.2,0.4,0.2,0.8,0.4,1.2c0,0.2,0.2,0.4,0.6,0.4c0.4,0,0.8-0.2,0.8-0.4c0.2-0.2,0.2-0.6,0.4-1c0.2-0.4,0.2-0.8,0.4-1
		C453.3,60.4,453.1,60,452.9,59.8z M460.9,51c-0.2-0.6-0.6-1-1-1.2c-0.4,0-0.8-0.2-1.6,0c-0.8,0-1.4,0.2-1.8,0.2
		c-0.4,0-0.8,0.4-1,1.2s-0.2,1.4,0,1.8c0.2,0.4,0.6,0.8,1.4,1.2c0.8,0.4,1.2,0.8,1.8,0.8c0.4,0,1-0.2,1.6-0.8s1-1,1-1.4
		C461.5,52.2,461.3,51.6,460.9,51z M461.3,105.7c-0.6,0-1.2-0.2-1.6-0.8c-0.4-0.4-0.8-1-0.8-1.6V89c0-0.6,0.2-1.2,0.8-1.6
		c0.4-0.4,1-0.8,1.6-0.8h16.5c0.6,0,1.2,0.2,1.6,0.8c0.4,0.4,0.8,1,0.8,1.6v14.3c0,0.6-0.2,1.2-0.8,1.6c-0.4,0.4-1,0.8-1.6,0.8
		H461.3z M465.4,96.5h-0.8l-0.6,1l1,0.8l0.6-0.8L465.4,96.5z M468.2,52.4c-0.4-0.8-1-1.2-2-1c-0.8,0.2-1.4,0.6-1.6,1.4
		c-0.2,0.8,0.2,1.6,1,2c0.4,0.2,0.8,0.4,1,0.2c0.2,0,0.6-0.2,1-0.8c0.4-0.4,0.6-0.6,0.6-1C468.6,53.3,468.6,52.9,468.2,52.4z
		 M469.8,93.5c0-0.4-0.2-0.8-0.2-1s-0.4-0.4-0.8-0.6c-0.4,0-0.8,0-1,0.2s-0.4,0.4-0.6,0.8c-0.2,0.4-0.4,0.8-0.4,1s0,0.6,0.4,0.8
		c0.4,0.4,0.6,0.6,0.8,0.8c0.2,0.2,0.6,0,1.2-0.2c0.4-0.2,0.6-0.4,0.8-0.6C469.8,94.3,469.8,93.9,469.8,93.5z M469,101.8l-0.8,0.2
		v0.8h0.8l0.2-0.6L469,101.8z M475.8,72.2c-1-0.4-1.8-0.6-2.4-0.6c-0.6,0-1.2,0.2-1.8,1.2c-0.6,0.8-0.8,1.4-0.8,2
		c0.2,0.6,0.6,1.2,1.2,2.2c0.4,0.8,1,1,1.4,1.2c0.4,0,1.2,0,2-0.2s1.2-0.6,1.6-0.8c0.2-0.4,0.4-0.8,0.6-1.8c0-0.8-0.2-1.6-0.4-1.8
		C477.2,72.9,476.6,72.7,475.8,72.2z M473.1,48.2l-1,0.4l-0.6,1l1,0.4l0.8-0.6L473.1,48.2z M474.5,98.4c-0.4-0.2-0.6-0.4-0.8-0.2
		c-0.2,0.2-0.6,0.4-0.8,0.8c-0.2,0.2-0.6,0.4-0.6,0.6c-0.2,0.2-0.2,0.4,0,0.8c0.2,0.4,0.2,0.6,0.4,0.6s0.6,0,1,0c0.4,0,0.8,0,1,0
		c0.2,0,0.4-0.2,0.6-0.6c0.2-0.6,0.2-1,0.2-1.2C475.4,99,474.9,98.8,474.5,98.4z M474.1,94.1l-1.2-0.2l-0.8,1.2l1.2,0.8l1.2-0.6
		L474.1,94.1z M473.1,54.5l-0.6,0.4l0.2,0.8l0.8,0.2l0.2-0.8L473.1,54.5z M474.5,88.8l-0.8,0.2l0.4,0.8l0.6,0.4l0.2-0.8L474.5,88.8z
		 M478,65.7c-0.4,0-0.6,0.2-0.8,0.6c-0.2,0.2-0.2,0.6-0.4,0.8c0,0.2,0,0.4,0.2,0.6c0.4,0.4,0.8,0.4,1.4,0c0.2-0.2,0.4-0.4,0.4-0.6
		s0-0.4,0-0.8C478.8,66.1,478.4,65.9,478,65.7z M484.3,49.8c-0.8-0.6-1.4-0.8-2-0.8s-1.2,0.4-1.8,1c-0.8,0.8-1.4,1.4-1.8,1.8
		c-0.4,0.4-0.2,1.2,0.2,2.2c0.4,1,1,1.4,1.6,1.4c0.6,0,1.4-0.2,2.4-0.2c0.8,0,1.2-0.2,1.6-0.6c0.2-0.2,0.6-0.8,0.8-1.6
		c0.2-0.8,0.4-1.4,0.4-2C485.4,50.6,485,50.2,484.3,49.8z M485.8,68l-0.8,0.2l-0.4,0.8l1,0.4l0.6-1L485.8,68z M489,59
		c-0.2-0.2-0.4-0.2-0.6-0.2c-0.2,0.2-0.4,0.4-0.6,0.4c-0.4,0.2-0.4,0.6-0.4,0.8c0,0.4,0.2,0.6,0.2,0.8s0.2,0.2,0.6,0.2
		c0.4,0,0.6-0.2,0.6-0.4s0.2-0.4,0.2-0.8c0-0.2,0.2-0.6,0.2-0.8S489.2,59.2,489,59z"/>
</g>
</svg>
